  0
SECTION
  2
HEADER
  9
$ACADVER
  1
AC1014
  9
$HANDSEED
  5
FFFF
  9
$MEASUREMENT
 70
     1
  0
ENDSEC
  0
SECTION
  2
TABLES
  0
TABLE
  2
VPORT
  5
8
330
0
100
AcDbSymbolTable
 70
     4
  0
VPORT
  5
2E
330
8
100
AcDbSymbolTableRecord
100
AcDbViewportTableRecord
  2
*ACTIVE
 70
     0
 10
0.0
 20
0.0
 11
1.0
 21
1.0
 12
210.0
 22
148.5
 13
0.0
 23
0.0
 14
10.0
 24
10.0
 15
10.0
 25
10.0
 16
0.0
 26
0.0
 36
1.0
 17
0.0
 27
0.0
 37
0.0
 40
341.0
 41
1.24
 42
50.0
 43
0.0
 44
0.0
 50
0.0
 51
0.0
 71
     0
 72
   100
 73
     1
 74
     3
 75
     0
 76
     0
 77
     0
 78
     0
  0
ENDTAB
  0
TABLE
  2
LTYPE
  5
5
330
0
100
AcDbSymbolTable
 70
     1
  0
LTYPE
  5
14
330
5
100
AcDbSymbolTableRecord
100
AcDbLinetypeTableRecord
  2
BYBLOCK
 70
     0
  3

 72
    65
 73
     0
 40
0.0
  0
LTYPE
  5
15
330
5
100
AcDbSymbolTableRecord
100
AcDbLinetypeTableRecord
  2
BYLAYER
 70
     0
  3

 72
    65
 73
     0
 40
0.0
  0
LTYPE
  5
16
330
5
100
AcDbSymbolTableRecord
100
AcDbLinetypeTableRecord
  2
CONTINUOUS
 70
     0
  3
Solid line
 72
    65
 73
     0
 40
0.0
  0
ENDTAB
  0
TABLE
  2
LAYER
  5
2
100
AcDbSymbolTable
 70
1
  0
LAYER
  5
50
100
AcDbSymbolTableRecord
100
AcDbLayerTableRecord
  2
0
 70
0
  6
CONTINUOUS
  0
ENDTAB
  0
TABLE
  2
STYLE
  5
3
330
0
100
AcDbSymbolTable
 70
     1
  0
STYLE
  5
11
330
3
100
AcDbSymbolTableRecord
100
AcDbTextStyleTableRecord
  2
STANDARD
 70
     0
 40
0.0
 41
1.0
 50
0.0
 71
     0
 42
2.5
  3
txt
  4

  0
ENDTAB
  0
TABLE
  2
VIEW
  5
6
330
0
100
AcDbSymbolTable
 70
     0
  0
ENDTAB
  0
TABLE
  2
UCS
  5
7
330
0
100
AcDbSymbolTable
 70
     0
  0
ENDTAB
  0
TABLE
  2
APPID
  5
9
330
0
100
AcDbSymbolTable
 70
     2
  0
APPID
  5
12
330
9
100
AcDbSymbolTableRecord
100
AcDbRegAppTableRecord
  2
ACAD
 70
     0
  0
ENDTAB
  0
TABLE
  2
DIMSTYLE
  5
A
330
0
100
AcDbSymbolTable
 70
     1
  0
DIMSTYLE
105
27
330
A
100
AcDbSymbolTableRecord
100
AcDbDimStyleTableRecord
  2
ISO-25
 70
     0
  3

  4

  5

  6

  7

 40
1.0
 41
2.5
 42
0.625
 43
3.75
 44
1.25
 45
0.0
 46
0.0
 47
0.0
 48
0.0
140
2.5
141
2.5
142
0.0
143
0.03937007874016
144
1.0
145
0.0
146
1.0
147
0.625
 71
     0
 72
     0
 73
     0
 74
     0
 75
     0
 76
     0
 77
     1
 78
     8
170
     0
171
     3
172
     1
173
     0
174
     0
175
     0
176
     0
177
     0
178
     0
270
     2
271
     2
272
     2
273
     2
274
     3
340
11
275
     0
280
     0
281
     0
282
     0
283
     0
284
     8
285
     0
286
     0
287
     3
288
     0
  0
ENDTAB
  0
TABLE
  2
BLOCK_RECORD
  5
1
330
0
100
AcDbSymbolTable
 70
     1
  0
BLOCK_RECORD
  5
1F
330
1
100
AcDbSymbolTableRecord
100
AcDbBlockTableRecord
  2
*MODEL_SPACE
  0
BLOCK_RECORD
  5
1B
330
1
100
AcDbSymbolTableRecord
100
AcDbBlockTableRecord
  2
*PAPER_SPACE
  0
ENDTAB
  0
ENDSEC
  0
SECTION
  2
BLOCKS
  0
BLOCK
  5
20
330
1F
100
AcDbEntity
  8
0
100
AcDbBlockBegin
  2
*MODEL_SPACE
 70
     0
 10
0.0
 20
0.0
 30
0.0
  3
*MODEL_SPACE
  1

  0
ENDBLK
  5
21
330
1F
100
AcDbEntity
  8
0
100
AcDbBlockEnd
  0
BLOCK
  5
1C
330
1B
100
AcDbEntity
 67
     1
  8
0
100
AcDbBlockBegin
  2
*PAPER_SPACE
  1

  0
ENDBLK
  5
1D
330
1B
100
AcDbEntity
 67
     1
  8
0
100
AcDbBlockEnd
  0
ENDSEC
  0
SECTION
  2
ENTITIES
  0
LINE
  5
100
100
AcDbEntity
  8
0
 62
7
100
AcDbLine
 10
23.000000
 20
-15.000000
 30
0.0
 11
23.000000
 21
-15.000000
 31
0.0
  0
SPLINE
  5
101
100
AcDbEntity
  8
0
 62
7
100
AcDbSpline
 70
0
 71
3
 72
25
 73
21
 74
19
 40
0.000000
 40
0.000000
 40
0.000000
 40
0.000000
 40
1.046892
 40
2.078802
 40
3.125694
 40
4.172587
 40
5.204496
 40
6.251389
 40
7.298281
 40
8.330191
 40
9.377083
 40
10.423975
 40
11.455885
 40
12.502777
 40
13.549669
 40
14.581579
 40
15.628471
 40
16.675364
 40
17.707273
 40
18.754166
 40
18.754166
 40
18.754166
 40
18.754166
 10
23.000000
 20
-15.000000
 30
0.0
 10
22.964156
 20
-14.649256
 30
0.0
 10
22.892981
 20
-13.952788
 30
0.0
 10
22.340781
 20
-13.032395
 30
0.0
 10
21.532267
 20
-12.348106
 30
0.0
 10
20.531074
 20
-11.985183
 30
0.0
 10
19.468696
 20
-11.985183
 30
0.0
 10
18.468905
 20
-12.348106
 30
0.0
 10
17.654792
 20
-13.032395
 30
0.0
 10
17.123395
 20
-13.952788
 30
0.0
 10
16.937858
 20
-15.000000
 30
0.0
 10
17.123395
 20
-16.047212
 30
0.0
 10
17.654792
 20
-16.967605
 30
0.0
 10
18.468905
 20
-17.651894
 30
0.0
 10
19.468696
 20
-18.014817
 30
0.0
 10
20.531074
 20
-18.014817
 30
0.0
 10
21.532267
 20
-17.651894
 30
0.0
 10
22.340781
 20
-16.967605
 30
0.0
 10
22.892981
 20
-16.047212
 30
0.0
 10
22.964156
 20
-15.350744
 30
0.0
 10
23.000000
 20
-15.000000
 30
0.0
 11
23.000000
 21
-15.000000
 31
0.0
 11
22.817378
 21
-13.969159
 31
0.0
 11
22.301424
 21
-13.075499
 31
0.0
 11
21.500000
 21
-12.401924
 31
0.0
 11
20.515955
 21
-12.044658
 31
0.0
 11
19.484045
 21
-12.044658
 31
0.0
 11
18.500000
 21
-12.401924
 31
0.0
 11
17.698576
 21
-13.075499
 31
0.0
 11
17.182622
 21
-13.969159
 31
0.0
 11
17.000000
 21
-15.000000
 31
0.0
 11
17.182622
 21
-16.030841
 31
0.0
 11
17.698576
 21
-16.924501
 31
0.0
 11
18.500000
 21
-17.598076
 31
0.0
 11
19.484045
 21
-17.955342
 31
0.0
 11
20.515955
 21
-17.955342
 31
0.0
 11
21.500000
 21
-17.598076
 31
0.0
 11
22.301424
 21
-16.924501
 31
0.0
 11
22.817378
 21
-16.030841
 31
0.0
 11
23.000000
 21
-15.000000
 31
0.0
  0
LINE
  5
102
100
AcDbEntity
  8
0
 62
7
100
AcDbLine
 10
-17.000000
 20
15.000000
 30
0.0
 11
-17.000000
 21
15.000000
 31
0.0
  0
SPLINE
  5
103
100
AcDbEntity
  8
0
 62
7
100
AcDbSpline
 70
0
 71
3
 72
25
 73
21
 74
19
 40
0.000000
 40
0.000000
 40
0.000000
 40
0.000000
 40
1.046892
 40
2.078802
 40
3.125694
 40
4.172587
 40
5.204496
 40
6.251389
 40
7.298281
 40
8.330191
 40
9.377083
 40
10.423975
 40
11.455885
 40
12.502777
 40
13.549669
 40
14.581579
 40
15.628471
 40
16.675364
 40
17.707273
 40
18.754166
 40
18.754166
 40
18.754166
 40
18.754166
 10
-17.000000
 20
15.000000
 30
0.0
 10
-17.035844
 20
15.350744
 30
0.0
 10
-17.107019
 20
16.047212
 30
0.0
 10
-17.659219
 20
16.967605
 30
0.0
 10
-18.467733
 20
17.651894
 30
0.0
 10
-19.468926
 20
18.014817
 30
0.0
 10
-20.531304
 20
18.014817
 30
0.0
 10
-21.531094
 20
17.651894
 30
0.0
 10
-22.345208
 20
16.967605
 30
0.0
 10
-22.876605
 20
16.047212
 30
0.0
 10
-23.062142
 20
15.000000
 30
0.0
 10
-22.876605
 20
13.952788
 30
0.0
 10
-22.345208
 20
13.032395
 30
0.0
 10
-21.531094
 20
12.348106
 30
0.0
 10
-20.531304
 20
11.985183
 30
0.0
 10
-19.468926
 20
11.985183
 30
0.0
 10
-18.467733
 20
12.348106
 30
0.0
 10
-17.659219
 20
13.032395
 30
0.0
 10
-17.107019
 20
13.952788
 30
0.0
 10
-17.035844
 20
14.649256
 30
0.0
 10
-17.000000
 20
15.000000
 30
0.0
 11
-17.000000
 21
15.000000
 31
0.0
 11
-17.182622
 21
16.030841
 31
0.0
 11
-17.698576
 21
16.924501
 31
0.0
 11
-18.500000
 21
17.598076
 31
0.0
 11
-19.484045
 21
17.955342
 31
0.0
 11
-20.515955
 21
17.955342
 31
0.0
 11
-21.500000
 21
17.598076
 31
0.0
 11
-22.301424
 21
16.924501
 31
0.0
 11
-22.817378
 21
16.030841
 31
0.0
 11
-23.000000
 21
15.000000
 31
0.0
 11
-22.817378
 21
13.969159
 31
0.0
 11
-22.301423
 21
13.075499
 31
0.0
 11
-21.500000
 21
12.401924
 31
0.0
 11
-20.515955
 21
12.044658
 31
0.0
 11
-19.484045
 21
12.044658
 31
0.0
 11
-18.500000
 21
12.401924
 31
0.0
 11
-17.698576
 21
13.075499
 31
0.0
 11
-17.182621
 21
13.969159
 31
0.0
 11
-17.000000
 21
15.000000
 31
0.0
  0
LINE
  5
104
100
AcDbEntity
  8
0
 62
7
100
AcDbLine
 10
-28.500000
 20
17.500000
 30
0.0
 11
-28.500000
 21
-17.500000
 31
0.0
  0
SPLINE
  5
105
100
AcDbEntity
  8
0
 62
7
100
AcDbSpline
 70
0
 71
3
 72
10
 73
6
 74
4
 40
0.000000
 40
0.000000
 40
0.000000
 40
0.000000
 40
3.137155
 40
6.181263
 40
9.318418
 40
9.318418
 40
9.318418
 40
9.318418
 10
-22.500000
 20
23.500000
 30
0.0
 10
-23.551355
 20
23.334969
 30
0.0
 10
-25.622882
 20
23.009802
 30
0.0
 10
-28.009802
 20
20.622882
 30
0.0
 10
-28.334969
 20
18.551355
 30
0.0
 10
-28.500000
 20
17.500000
 30
0.0
 11
-22.500000
 21
23.500000
 31
0.0
 11
-25.528315
 21
22.680824
 31
0.0
 11
-27.680824
 21
20.528315
 31
0.0
 11
-28.500000
 21
17.500000
 31
0.0
  0
LINE
  5
106
100
AcDbEntity
  8
0
 62
7
100
AcDbLine
 10
-22.500000
 20
-23.500000
 30
0.0
 11
22.500000
 21
-23.500000
 31
0.0
  0
SPLINE
  5
107
100
AcDbEntity
  8
0
 62
7
100
AcDbSpline
 70
0
 71
3
 72
10
 73
6
 74
4
 40
0.000000
 40
0.000000
 40
0.000000
 40
0.000000
 40
3.137155
 40
6.181262
 40
9.318417
 40
9.318417
 40
9.318417
 40
9.318417
 10
-28.500000
 20
-17.500000
 30
0.0
 10
-28.334969
 20
-18.551355
 30
0.0
 10
-28.009802
 20
-20.622882
 30
0.0
 10
-25.622882
 20
-23.009802
 30
0.0
 10
-23.551355
 20
-23.334969
 30
0.0
 10
-22.500000
 20
-23.500000
 30
0.0
 11
-28.500000
 21
-17.500000
 31
0.0
 11
-27.680824
 21
-20.528315
 31
0.0
 11
-25.528315
 21
-22.680824
 31
0.0
 11
-22.500000
 21
-23.500000
 31
0.0
  0
LINE
  5
108
100
AcDbEntity
  8
0
 62
7
100
AcDbLine
 10
28.500000
 20
-17.500000
 30
0.0
 11
28.500000
 21
17.500000
 31
0.0
  0
SPLINE
  5
109
100
AcDbEntity
  8
0
 62
7
100
AcDbSpline
 70
0
 71
3
 72
10
 73
6
 74
4
 40
0.000000
 40
0.000000
 40
0.000000
 40
0.000000
 40
3.137155
 40
6.181262
 40
9.318417
 40
9.318417
 40
9.318417
 40
9.318417
 10
22.500000
 20
-23.500000
 30
0.0
 10
23.551355
 20
-23.334969
 30
0.0
 10
25.622882
 20
-23.009802
 30
0.0
 10
28.009802
 20
-20.622882
 30
0.0
 10
28.334969
 20
-18.551355
 30
0.0
 10
28.500000
 20
-17.500000
 30
0.0
 11
22.500000
 21
-23.500000
 31
0.0
 11
25.528315
 21
-22.680824
 31
0.0
 11
27.680824
 21
-20.528315
 31
0.0
 11
28.500000
 21
-17.500000
 31
0.0
  0
LINE
  5
10a
100
AcDbEntity
  8
0
 62
7
100
AcDbLine
 10
22.500000
 20
23.500000
 30
0.0
 11
-22.500000
 21
23.500000
 31
0.0
  0
SPLINE
  5
10b
100
AcDbEntity
  8
0
 62
7
100
AcDbSpline
 70
0
 71
3
 72
10
 73
6
 74
4
 40
0.000000
 40
0.000000
 40
0.000000
 40
0.000000
 40
3.137155
 40
6.181263
 40
9.318418
 40
9.318418
 40
9.318418
 40
9.318418
 10
28.500000
 20
17.500000
 30
0.0
 10
28.334969
 20
18.551355
 30
0.0
 10
28.009802
 20
20.622882
 30
0.0
 10
25.622882
 20
23.009802
 30
0.0
 10
23.551355
 20
23.334969
 30
0.0
 10
22.500000
 20
23.500000
 30
0.0
 11
28.500000
 21
17.500000
 31
0.0
 11
27.680824
 21
20.528315
 31
0.0
 11
25.528315
 21
22.680824
 31
0.0
 11
22.500000
 21
23.500000
 31
0.0
  0
LINE
  5
10c
100
AcDbEntity
  8
0
 62
7
100
AcDbLine
 10
23.000000
 20
15.000000
 30
0.0
 11
23.000000
 21
15.000000
 31
0.0
  0
SPLINE
  5
10d
100
AcDbEntity
  8
0
 62
7
100
AcDbSpline
 70
0
 71
3
 72
25
 73
21
 74
19
 40
0.000000
 40
0.000000
 40
0.000000
 40
0.000000
 40
1.046892
 40
2.078802
 40
3.125694
 40
4.172587
 40
5.204496
 40
6.251389
 40
7.298281
 40
8.330191
 40
9.377083
 40
10.423975
 40
11.455885
 40
12.502777
 40
13.549669
 40
14.581579
 40
15.628471
 40
16.675364
 40
17.707273
 40
18.754166
 40
18.754166
 40
18.754166
 40
18.754166
 10
23.000000
 20
15.000000
 30
0.0
 10
22.964156
 20
15.350744
 30
0.0
 10
22.892981
 20
16.047212
 30
0.0
 10
22.340781
 20
16.967605
 30
0.0
 10
21.532267
 20
17.651894
 30
0.0
 10
20.531074
 20
18.014817
 30
0.0
 10
19.468696
 20
18.014817
 30
0.0
 10
18.468905
 20
17.651894
 30
0.0
 10
17.654792
 20
16.967605
 30
0.0
 10
17.123395
 20
16.047212
 30
0.0
 10
16.937858
 20
15.000000
 30
0.0
 10
17.123395
 20
13.952788
 30
0.0
 10
17.654792
 20
13.032395
 30
0.0
 10
18.468905
 20
12.348106
 30
0.0
 10
19.468696
 20
11.985183
 30
0.0
 10
20.531074
 20
11.985183
 30
0.0
 10
21.532267
 20
12.348106
 30
0.0
 10
22.340781
 20
13.032395
 30
0.0
 10
22.892981
 20
13.952788
 30
0.0
 10
22.964156
 20
14.649256
 30
0.0
 10
23.000000
 20
15.000000
 30
0.0
 11
23.000000
 21
15.000000
 31
0.0
 11
22.817378
 21
16.030841
 31
0.0
 11
22.301424
 21
16.924501
 31
0.0
 11
21.500000
 21
17.598076
 31
0.0
 11
20.515955
 21
17.955342
 31
0.0
 11
19.484045
 21
17.955342
 31
0.0
 11
18.500000
 21
17.598076
 31
0.0
 11
17.698576
 21
16.924501
 31
0.0
 11
17.182622
 21
16.030841
 31
0.0
 11
17.000000
 21
15.000000
 31
0.0
 11
17.182622
 21
13.969159
 31
0.0
 11
17.698576
 21
13.075499
 31
0.0
 11
18.500000
 21
12.401924
 31
0.0
 11
19.484045
 21
12.044658
 31
0.0
 11
20.515955
 21
12.044658
 31
0.0
 11
21.500000
 21
12.401924
 31
0.0
 11
22.301424
 21
13.075499
 31
0.0
 11
22.817378
 21
13.969159
 31
0.0
 11
23.000000
 21
15.000000
 31
0.0
  0
LINE
  5
10e
100
AcDbEntity
  8
0
 62
7
100
AcDbLine
 10
-17.000000
 20
-15.000000
 30
0.0
 11
-17.000000
 21
-15.000000
 31
0.0
  0
LINE
  5
10f
100
AcDbEntity
  8
0
 62
7
100
AcDbLine
 10
-20.000000
 20
8.000000
 30
0.0
 11
-20.000000
 21
-8.000000
 31
0.0
  0
SPLINE
  5
110
100
AcDbEntity
  8
0
 62
7
100
AcDbSpline
 70
0
 71
3
 72
25
 73
21
 74
19
 40
0.000000
 40
0.000000
 40
0.000000
 40
0.000000
 40
1.046892
 40
2.078802
 40
3.125694
 40
4.172587
 40
5.204496
 40
6.251389
 40
7.298281
 40
8.330191
 40
9.377083
 40
10.423975
 40
11.455885
 40
12.502777
 40
13.549669
 40
14.581579
 40
15.628471
 40
16.675364
 40
17.707273
 40
18.754166
 40
18.754166
 40
18.754166
 40
18.754166
 10
-17.000000
 20
-15.000000
 30
0.0
 10
-17.035844
 20
-14.649256
 30
0.0
 10
-17.107019
 20
-13.952788
 30
0.0
 10
-17.659219
 20
-13.032395
 30
0.0
 10
-18.467733
 20
-12.348106
 30
0.0
 10
-19.468926
 20
-11.985183
 30
0.0
 10
-20.531304
 20
-11.985183
 30
0.0
 10
-21.531094
 20
-12.348106
 30
0.0
 10
-22.345208
 20
-13.032395
 30
0.0
 10
-22.876605
 20
-13.952788
 30
0.0
 10
-23.062142
 20
-15.000000
 30
0.0
 10
-22.876605
 20
-16.047212
 30
0.0
 10
-22.345208
 20
-16.967605
 30
0.0
 10
-21.531094
 20
-17.651894
 30
0.0
 10
-20.531304
 20
-18.014817
 30
0.0
 10
-19.468926
 20
-18.014817
 30
0.0
 10
-18.467733
 20
-17.651894
 30
0.0
 10
-17.659219
 20
-16.967605
 30
0.0
 10
-17.107019
 20
-16.047212
 30
0.0
 10
-17.035844
 20
-15.350744
 30
0.0
 10
-17.000000
 20
-15.000000
 30
0.0
 11
-17.000000
 21
-15.000000
 31
0.0
 11
-17.182622
 21
-13.969159
 31
0.0
 11
-17.698576
 21
-13.075499
 31
0.0
 11
-18.500000
 21
-12.401924
 31
0.0
 11
-19.484045
 21
-12.044658
 31
0.0
 11
-20.515955
 21
-12.044658
 31
0.0
 11
-21.500000
 21
-12.401924
 31
0.0
 11
-22.301424
 21
-13.075499
 31
0.0
 11
-22.817378
 21
-13.969159
 31
0.0
 11
-23.000000
 21
-15.000000
 31
0.0
 11
-22.817378
 21
-16.030841
 31
0.0
 11
-22.301423
 21
-16.924501
 31
0.0
 11
-21.500000
 21
-17.598076
 31
0.0
 11
-20.515955
 21
-17.955342
 31
0.0
 11
-19.484045
 21
-17.955342
 31
0.0
 11
-18.500000
 21
-17.598076
 31
0.0
 11
-17.698576
 21
-16.924501
 31
0.0
 11
-17.182621
 21
-16.030841
 31
0.0
 11
-17.000000
 21
-15.000000
 31
0.0
  0
LINE
  5
111
100
AcDbEntity
  8
0
 62
7
100
AcDbLine
 10
13.675445
 20
18.000000
 30
0.0
 11
-13.675445
 21
18.000000
 31
0.0
  0
SPLINE
  5
112
100
AcDbEntity
  8
0
 62
7
100
AcDbSpline
 70
0
 71
3
 72
13
 73
9
 74
7
 40
0.000000
 40
0.000000
 40
0.000000
 40
0.000000
 40
2.348739
 40
4.666254
 40
7.014992
 40
9.363731
 40
11.681246
 40
14.029984
 40
14.029984
 40
14.029984
 40
14.029984
 10
-20.000000
 20
8.000000
 30
0.0
 10
-19.213345
 20
8.077233
 30
0.0
 10
-17.650492
 20
8.230671
 30
0.0
 10
-15.565053
 20
9.424176
 30
0.0
 10
-13.968473
 20
11.185327
 30
0.0
 10
-13.061507
 20
13.382630
 30
0.0
 10
-12.876926
 20
15.778342
 30
0.0
 10
-13.408087
 20
17.256151
 30
0.0
 10
-13.675445
 20
18.000000
 30
0.0
 11
-20.000000
 21
8.000000
 31
0.0
 11
-17.684538
 21
8.393963
 31
0.0
 11
-15.654546
 21
9.512002
 31
0.0
 11
-14.083920
 21
11.258343
 31
0.0
 11
-13.179213
 21
13.425848
 31
0.0
 11
-13.039052
 21
15.739120
 31
0.0
 11
-13.675445
 21
18.000000
 31
0.0
  0
LINE
  5
113
100
AcDbEntity
  8
0
 62
7
100
AcDbLine
 10
20.000000
 20
-8.000000
 30
0.0
 11
20.000000
 21
8.000000
 31
0.0
  0
SPLINE
  5
114
100
AcDbEntity
  8
0
 62
7
100
AcDbSpline
 70
0
 71
3
 72
13
 73
9
 74
7
 40
0.000000
 40
0.000000
 40
0.000000
 40
0.000000
 40
2.348739
 40
4.666254
 40
7.014992
 40
9.363731
 40
11.681246
 40
14.029984
 40
14.029984
 40
14.029984
 40
14.029984
 10
13.675445
 20
18.000000
 30
0.0
 10
13.408087
 20
17.256151
 30
0.0
 10
12.876926
 20
15.778342
 30
0.0
 10
13.061507
 20
13.382630
 30
0.0
 10
13.968473
 20
11.185327
 30
0.0
 10
15.565053
 20
9.424176
 30
0.0
 10
17.650492
 20
8.230671
 30
0.0
 10
19.213345
 20
8.077233
 30
0.0
 10
20.000000
 20
8.000000
 30
0.0
 11
13.675445
 21
18.000000
 31
0.0
 11
13.039052
 21
15.739120
 31
0.0
 11
13.179213
 21
13.425848
 31
0.0
 11
14.083920
 21
11.258343
 31
0.0
 11
15.654546
 21
9.512002
 31
0.0
 11
17.684538
 21
8.393963
 31
0.0
 11
20.000000
 21
8.000000
 31
0.0
  0
LINE
  5
115
100
AcDbEntity
  8
0
 62
7
100
AcDbLine
 10
-13.675445
 20
-18.000000
 30
0.0
 11
13.675445
 21
-18.000000
 31
0.0
  0
SPLINE
  5
116
100
AcDbEntity
  8
0
 62
7
100
AcDbSpline
 70
0
 71
3
 72
13
 73
9
 74
7
 40
0.000000
 40
0.000000
 40
0.000000
 40
0.000000
 40
2.348739
 40
4.666254
 40
7.014992
 40
9.363731
 40
11.681246
 40
14.029984
 40
14.029984
 40
14.029984
 40
14.029984
 10
20.000000
 20
-8.000000
 30
0.0
 10
19.213345
 20
-8.077232
 30
0.0
 10
17.650492
 20
-8.230671
 30
0.0
 10
15.565053
 20
-9.424176
 30
0.0
 10
13.968473
 20
-11.185327
 30
0.0
 10
13.061507
 20
-13.382629
 30
0.0
 10
12.876926
 20
-15.778342
 30
0.0
 10
13.408087
 20
-17.256151
 30
0.0
 10
13.675445
 20
-18.000000
 30
0.0
 11
20.000000
 21
-8.000000
 31
0.0
 11
17.684538
 21
-8.393963
 31
0.0
 11
15.654546
 21
-9.512002
 31
0.0
 11
14.083920
 21
-11.258343
 31
0.0
 11
13.179213
 21
-13.425847
 31
0.0
 11
13.039052
 21
-15.739120
 31
0.0
 11
13.675445
 21
-18.000000
 31
0.0
  0
SPLINE
  5
117
100
AcDbEntity
  8
0
 62
7
100
AcDbSpline
 70
0
 71
3
 72
13
 73
9
 74
7
 40
0.000000
 40
0.000000
 40
0.000000
 40
0.000000
 40
2.348739
 40
4.666254
 40
7.014992
 40
9.363731
 40
11.681246
 40
14.029984
 40
14.029984
 40
14.029984
 40
14.029984
 10
-13.675445
 20
-18.000000
 30
0.0
 10
-13.408087
 20
-17.256151
 30
0.0
 10
-12.876926
 20
-15.778342
 30
0.0
 10
-13.061507
 20
-13.382629
 30
0.0
 10
-13.968473
 20
-11.185327
 30
0.0
 10
-15.565053
 20
-9.424176
 30
0.0
 10
-17.650492
 20
-8.230671
 30
0.0
 10
-19.213345
 20
-8.077232
 30
0.0
 10
-20.000000
 20
-8.000000
 30
0.0
 11
-13.675445
 21
-18.000000
 31
0.0
 11
-13.039052
 21
-15.739120
 31
0.0
 11
-13.179213
 21
-13.425847
 31
0.0
 11
-14.083920
 21
-11.258343
 31
0.0
 11
-15.654546
 21
-9.512002
 31
0.0
 11
-17.684538
 21
-8.393963
 31
0.0
 11
-20.000000
 21
-8.000000
 31
0.0
  0
ENDSEC
  0
SECTION
  2
OBJECTS
  0
DICTIONARY
  5
C
330
0
100
AcDbDictionary
  3
ACAD_GROUP
350
D
  3
ACAD_MLINESTYLE
350
17
  0
DICTIONARY
  5
D
330
C
100
AcDbDictionary
  0
DICTIONARY
  5
1A
330
C
100
AcDbDictionary
  0
DICTIONARY
  5
17
330
C
100
AcDbDictionary
  3
STANDARD
350
18
  0
DICTIONARY
  5
19
330
C
100
AcDbDictionary
  0
ENDSEC
  0
EOF
