  0
SECTION
  2
HEADER
  9
$ACADVER
  1
AC1014
  9
$HANDSEED
  5
FFFF
  9
$MEASUREMENT
 70
     1
  0
ENDSEC
  0
SECTION
  2
TABLES
  0
TABLE
  2
VPORT
  5
8
330
0
100
AcDbSymbolTable
 70
     4
  0
VPORT
  5
2E
330
8
100
AcDbSymbolTableRecord
100
AcDbViewportTableRecord
  2
*ACTIVE
 70
     0
 10
0.0
 20
0.0
 11
1.0
 21
1.0
 12
210.0
 22
148.5
 13
0.0
 23
0.0
 14
10.0
 24
10.0
 15
10.0
 25
10.0
 16
0.0
 26
0.0
 36
1.0
 17
0.0
 27
0.0
 37
0.0
 40
341.0
 41
1.24
 42
50.0
 43
0.0
 44
0.0
 50
0.0
 51
0.0
 71
     0
 72
   100
 73
     1
 74
     3
 75
     0
 76
     0
 77
     0
 78
     0
  0
ENDTAB
  0
TABLE
  2
LTYPE
  5
5
330
0
100
AcDbSymbolTable
 70
     1
  0
LTYPE
  5
14
330
5
100
AcDbSymbolTableRecord
100
AcDbLinetypeTableRecord
  2
BYBLOCK
 70
     0
  3

 72
    65
 73
     0
 40
0.0
  0
LTYPE
  5
15
330
5
100
AcDbSymbolTableRecord
100
AcDbLinetypeTableRecord
  2
BYLAYER
 70
     0
  3

 72
    65
 73
     0
 40
0.0
  0
LTYPE
  5
16
330
5
100
AcDbSymbolTableRecord
100
AcDbLinetypeTableRecord
  2
CONTINUOUS
 70
     0
  3
Solid line
 72
    65
 73
     0
 40
0.0
  0
ENDTAB
  0
TABLE
  2
LAYER
  5
2
100
AcDbSymbolTable
 70
1
  0
LAYER
  5
50
100
AcDbSymbolTableRecord
100
AcDbLayerTableRecord
  2
0
 70
0
  6
CONTINUOUS
  0
ENDTAB
  0
TABLE
  2
STYLE
  5
3
330
0
100
AcDbSymbolTable
 70
     1
  0
STYLE
  5
11
330
3
100
AcDbSymbolTableRecord
100
AcDbTextStyleTableRecord
  2
STANDARD
 70
     0
 40
0.0
 41
1.0
 50
0.0
 71
     0
 42
2.5
  3
txt
  4

  0
ENDTAB
  0
TABLE
  2
VIEW
  5
6
330
0
100
AcDbSymbolTable
 70
     0
  0
ENDTAB
  0
TABLE
  2
UCS
  5
7
330
0
100
AcDbSymbolTable
 70
     0
  0
ENDTAB
  0
TABLE
  2
APPID
  5
9
330
0
100
AcDbSymbolTable
 70
     2
  0
APPID
  5
12
330
9
100
AcDbSymbolTableRecord
100
AcDbRegAppTableRecord
  2
ACAD
 70
     0
  0
ENDTAB
  0
TABLE
  2
DIMSTYLE
  5
A
330
0
100
AcDbSymbolTable
 70
     1
  0
DIMSTYLE
105
27
330
A
100
AcDbSymbolTableRecord
100
AcDbDimStyleTableRecord
  2
ISO-25
 70
     0
  3

  4

  5

  6

  7

 40
1.0
 41
2.5
 42
0.625
 43
3.75
 44
1.25
 45
0.0
 46
0.0
 47
0.0
 48
0.0
140
2.5
141
2.5
142
0.0
143
0.03937007874016
144
1.0
145
0.0
146
1.0
147
0.625
 71
     0
 72
     0
 73
     0
 74
     0
 75
     0
 76
     0
 77
     1
 78
     8
170
     0
171
     3
172
     1
173
     0
174
     0
175
     0
176
     0
177
     0
178
     0
270
     2
271
     2
272
     2
273
     2
274
     3
340
11
275
     0
280
     0
281
     0
282
     0
283
     0
284
     8
285
     0
286
     0
287
     3
288
     0
  0
ENDTAB
  0
TABLE
  2
BLOCK_RECORD
  5
1
330
0
100
AcDbSymbolTable
 70
     1
  0
BLOCK_RECORD
  5
1F
330
1
100
AcDbSymbolTableRecord
100
AcDbBlockTableRecord
  2
*MODEL_SPACE
  0
BLOCK_RECORD
  5
1B
330
1
100
AcDbSymbolTableRecord
100
AcDbBlockTableRecord
  2
*PAPER_SPACE
  0
ENDTAB
  0
ENDSEC
  0
SECTION
  2
BLOCKS
  0
BLOCK
  5
20
330
1F
100
AcDbEntity
  8
0
100
AcDbBlockBegin
  2
*MODEL_SPACE
 70
     0
 10
0.0
 20
0.0
 30
0.0
  3
*MODEL_SPACE
  1

  0
ENDBLK
  5
21
330
1F
100
AcDbEntity
  8
0
100
AcDbBlockEnd
  0
BLOCK
  5
1C
330
1B
100
AcDbEntity
 67
     1
  8
0
100
AcDbBlockBegin
  2
*PAPER_SPACE
  1

  0
ENDBLK
  5
1D
330
1B
100
AcDbEntity
 67
     1
  8
0
100
AcDbBlockEnd
  0
ENDSEC
  0
SECTION
  2
ENTITIES
  0
LINE
  5
100
100
AcDbEntity
  8
0
 62
7
100
AcDbLine
 10
-202.002391
 20
86.795149
 30
0.0
 11
-202.002391
 21
86.795149
 31
0.0
  0
SPLINE
  5
101
100
AcDbEntity
  8
0
 62
7
100
AcDbSpline
 70
0
 71
3
 72
25
 73
21
 74
19
 40
0.000000
 40
0.000000
 40
0.000000
 40
0.000000
 40
0.750273
 40
1.489808
 40
2.240081
 40
2.990354
 40
3.729889
 40
4.480162
 40
5.230435
 40
5.969970
 40
6.720243
 40
7.470515
 40
8.210051
 40
8.960324
 40
9.710596
 40
10.450132
 40
11.200404
 40
11.950677
 40
12.690213
 40
13.440485
 40
13.440485
 40
13.440485
 40
13.440485
 10
-202.002391
 20
86.795149
 30
0.0
 10
-202.028079
 20
87.046516
 30
0.0
 10
-202.079088
 20
87.545651
 30
0.0
 10
-202.474831
 20
88.205266
 30
0.0
 10
-203.054267
 20
88.695673
 30
0.0
 10
-203.771788
 20
88.955768
 30
0.0
 10
-204.533159
 20
88.955768
 30
0.0
 10
-205.249676
 20
88.695673
 30
0.0
 10
-205.833123
 20
88.205266
 30
0.0
 10
-206.213958
 20
87.545651
 30
0.0
 10
-206.346926
 20
86.795149
 30
0.0
 10
-206.213958
 20
86.044647
 30
0.0
 10
-205.833123
 20
85.385032
 30
0.0
 10
-205.249676
 20
84.894625
 30
0.0
 10
-204.533159
 20
84.634530
 30
0.0
 10
-203.771788
 20
84.634530
 30
0.0
 10
-203.054266
 20
84.894625
 30
0.0
 10
-202.474831
 20
85.385032
 30
0.0
 10
-202.079088
 20
86.044647
 30
0.0
 10
-202.028079
 20
86.543783
 30
0.0
 10
-202.002391
 20
86.795149
 30
0.0
 11
-202.002391
 21
86.795149
 31
0.0
 11
-202.133270
 21
87.533918
 31
0.0
 11
-202.503038
 21
88.174375
 31
0.0
 11
-203.077391
 21
88.657104
 31
0.0
 11
-203.782624
 21
88.913144
 31
0.0
 11
-204.522159
 21
88.913144
 31
0.0
 11
-205.227391
 21
88.657104
 31
0.0
 11
-205.801745
 21
88.174375
 31
0.0
 11
-206.171512
 21
87.533918
 31
0.0
 11
-206.302391
 21
86.795149
 31
0.0
 11
-206.171512
 21
86.056380
 31
0.0
 11
-205.801745
 21
85.415923
 31
0.0
 11
-205.227391
 21
84.933194
 31
0.0
 11
-204.522159
 21
84.677154
 31
0.0
 11
-203.782624
 21
84.677154
 31
0.0
 11
-203.077391
 21
84.933194
 31
0.0
 11
-202.503038
 21
85.415923
 31
0.0
 11
-202.133270
 21
86.056380
 31
0.0
 11
-202.002391
 21
86.795149
 31
0.0
  0
LINE
  5
102
100
AcDbEntity
  8
0
 62
7
100
AcDbLine
 10
-204.152391
 20
94.795149
 30
0.0
 11
-235.902391
 21
94.795149
 31
0.0
  0
SPLINE
  5
103
100
AcDbEntity
  8
0
 62
7
100
AcDbSpline
 70
0
 71
3
 72
13
 73
9
 74
7
 40
0.000000
 40
0.000000
 40
0.000000
 40
0.000000
 40
4.182376
 40
8.240728
 40
12.423104
 40
16.605480
 40
20.663833
 40
24.846208
 40
24.846208
 40
24.846208
 40
24.846208
 10
-204.152391
 20
78.795149
 30
0.0
 10
-202.742336
 20
79.015401
 30
0.0
 10
-199.964039
 20
79.449372
 30
0.0
 10
-196.905608
 20
82.631801
 30
0.0
 10
-195.772380
 20
86.795149
 30
0.0
 10
-196.905608
 20
90.958497
 30
0.0
 10
-199.964039
 20
94.140925
 30
0.0
 10
-202.742336
 20
94.574897
 30
0.0
 10
-204.152391
 20
94.795149
 30
0.0
 11
-204.152391
 21
78.795149
 31
0.0
 11
-200.115289
 21
79.887883
 31
0.0
 11
-197.245869
 21
82.757841
 31
0.0
 11
-196.153894
 21
86.795149
 31
0.0
 11
-197.245869
 21
90.832457
 31
0.0
 11
-200.115289
 21
93.702415
 31
0.0
 11
-204.152391
 21
94.795149
 31
0.0
  0
LINE
  5
104
100
AcDbEntity
  8
0
 62
7
100
AcDbLine
 10
-235.902391
 20
78.795149
 30
0.0
 11
-204.152391
 21
78.795149
 31
0.0
  0
SPLINE
  5
105
100
AcDbEntity
  8
0
 62
7
100
AcDbSpline
 70
0
 71
3
 72
13
 73
9
 74
7
 40
0.000000
 40
0.000000
 40
0.000000
 40
0.000000
 40
4.182376
 40
8.240728
 40
12.423104
 40
16.605480
 40
20.663833
 40
24.846208
 40
24.846208
 40
24.846208
 40
24.846208
 10
-235.902391
 20
94.795149
 30
0.0
 10
-237.312447
 20
94.574897
 30
0.0
 10
-240.090744
 20
94.140925
 30
0.0
 10
-243.149174
 20
90.958497
 30
0.0
 10
-244.282403
 20
86.795149
 30
0.0
 10
-243.149174
 20
82.631801
 30
0.0
 10
-240.090744
 20
79.449372
 30
0.0
 10
-237.312447
 20
79.015401
 30
0.0
 10
-235.902391
 20
78.795149
 30
0.0
 11
-235.902391
 21
94.795149
 31
0.0
 11
-239.939494
 21
93.702415
 31
0.0
 11
-242.808913
 21
90.832457
 31
0.0
 11
-243.900889
 21
86.795149
 31
0.0
 11
-242.808913
 21
82.757841
 31
0.0
 11
-239.939494
 21
79.887883
 31
0.0
 11
-235.902391
 21
78.795149
 31
0.0
  0
LINE
  5
106
100
AcDbEntity
  8
0
 62
7
100
AcDbLine
 10
-233.752391
 20
86.795149
 30
0.0
 11
-233.752391
 21
86.795149
 31
0.0
  0
SPLINE
  5
107
100
AcDbEntity
  8
0
 62
7
100
AcDbSpline
 70
0
 71
3
 72
25
 73
21
 74
19
 40
0.000000
 40
0.000000
 40
0.000000
 40
0.000000
 40
0.750273
 40
1.489808
 40
2.240081
 40
2.990354
 40
3.729889
 40
4.480162
 40
5.230435
 40
5.969970
 40
6.720243
 40
7.470515
 40
8.210051
 40
8.960324
 40
9.710596
 40
10.450132
 40
11.200404
 40
11.950677
 40
12.690213
 40
13.440485
 40
13.440485
 40
13.440485
 40
13.440485
 10
-233.752391
 20
86.795149
 30
0.0
 10
-233.778079
 20
87.046516
 30
0.0
 10
-233.829088
 20
87.545651
 30
0.0
 10
-234.224831
 20
88.205266
 30
0.0
 10
-234.804267
 20
88.695673
 30
0.0
 10
-235.521788
 20
88.955768
 30
0.0
 10
-236.283159
 20
88.955768
 30
0.0
 10
-236.999676
 20
88.695673
 30
0.0
 10
-237.583123
 20
88.205266
 30
0.0
 10
-237.963958
 20
87.545651
 30
0.0
 10
-238.096926
 20
86.795149
 30
0.0
 10
-237.963958
 20
86.044647
 30
0.0
 10
-237.583123
 20
85.385032
 30
0.0
 10
-236.999676
 20
84.894625
 30
0.0
 10
-236.283159
 20
84.634530
 30
0.0
 10
-235.521788
 20
84.634530
 30
0.0
 10
-234.804266
 20
84.894625
 30
0.0
 10
-234.224831
 20
85.385032
 30
0.0
 10
-233.829088
 20
86.044647
 30
0.0
 10
-233.778079
 20
86.543783
 30
0.0
 10
-233.752391
 20
86.795149
 30
0.0
 11
-233.752391
 21
86.795149
 31
0.0
 11
-233.883270
 21
87.533918
 31
0.0
 11
-234.253038
 21
88.174375
 31
0.0
 11
-234.827391
 21
88.657104
 31
0.0
 11
-235.532624
 21
88.913144
 31
0.0
 11
-236.272159
 21
88.913144
 31
0.0
 11
-236.977391
 21
88.657104
 31
0.0
 11
-237.551745
 21
88.174375
 31
0.0
 11
-237.921512
 21
87.533918
 31
0.0
 11
-238.052391
 21
86.795149
 31
0.0
 11
-237.921512
 21
86.056380
 31
0.0
 11
-237.551745
 21
85.415923
 31
0.0
 11
-236.977391
 21
84.933194
 31
0.0
 11
-236.272159
 21
84.677154
 31
0.0
 11
-235.532624
 21
84.677154
 31
0.0
 11
-234.827391
 21
84.933194
 31
0.0
 11
-234.253038
 21
85.415923
 31
0.0
 11
-233.883270
 21
86.056380
 31
0.0
 11
-233.752391
 21
86.795149
 31
0.0
  0
ENDSEC
  0
SECTION
  2
OBJECTS
  0
DICTIONARY
  5
C
330
0
100
AcDbDictionary
  3
ACAD_GROUP
350
D
  3
ACAD_MLINESTYLE
350
17
  0
DICTIONARY
  5
D
330
C
100
AcDbDictionary
  0
DICTIONARY
  5
1A
330
C
100
AcDbDictionary
  0
DICTIONARY
  5
17
330
C
100
AcDbDictionary
  3
STANDARD
350
18
  0
DICTIONARY
  5
19
330
C
100
AcDbDictionary
  0
ENDSEC
  0
EOF
