  0
SECTION
  2
HEADER
  9
$ACADVER
  1
AC1014
  9
$HANDSEED
  5
FFFF
  9
$MEASUREMENT
 70
     1
  0
ENDSEC
  0
SECTION
  2
TABLES
  0
TABLE
  2
VPORT
  5
8
330
0
100
AcDbSymbolTable
 70
     4
  0
VPORT
  5
2E
330
8
100
AcDbSymbolTableRecord
100
AcDbViewportTableRecord
  2
*ACTIVE
 70
     0
 10
0.0
 20
0.0
 11
1.0
 21
1.0
 12
210.0
 22
148.5
 13
0.0
 23
0.0
 14
10.0
 24
10.0
 15
10.0
 25
10.0
 16
0.0
 26
0.0
 36
1.0
 17
0.0
 27
0.0
 37
0.0
 40
341.0
 41
1.24
 42
50.0
 43
0.0
 44
0.0
 50
0.0
 51
0.0
 71
     0
 72
   100
 73
     1
 74
     3
 75
     0
 76
     0
 77
     0
 78
     0
  0
ENDTAB
  0
TABLE
  2
LTYPE
  5
5
330
0
100
AcDbSymbolTable
 70
     1
  0
LTYPE
  5
14
330
5
100
AcDbSymbolTableRecord
100
AcDbLinetypeTableRecord
  2
BYBLOCK
 70
     0
  3

 72
    65
 73
     0
 40
0.0
  0
LTYPE
  5
15
330
5
100
AcDbSymbolTableRecord
100
AcDbLinetypeTableRecord
  2
BYLAYER
 70
     0
  3

 72
    65
 73
     0
 40
0.0
  0
LTYPE
  5
16
330
5
100
AcDbSymbolTableRecord
100
AcDbLinetypeTableRecord
  2
CONTINUOUS
 70
     0
  3
Solid line
 72
    65
 73
     0
 40
0.0
  0
ENDTAB
  0
TABLE
  2
LAYER
  5
2
100
AcDbSymbolTable
 70
1
  0
LAYER
  5
50
100
AcDbSymbolTableRecord
100
AcDbLayerTableRecord
  2
0
 70
0
  6
CONTINUOUS
  0
ENDTAB
  0
TABLE
  2
STYLE
  5
3
330
0
100
AcDbSymbolTable
 70
     1
  0
STYLE
  5
11
330
3
100
AcDbSymbolTableRecord
100
AcDbTextStyleTableRecord
  2
STANDARD
 70
     0
 40
0.0
 41
1.0
 50
0.0
 71
     0
 42
2.5
  3
txt
  4

  0
ENDTAB
  0
TABLE
  2
VIEW
  5
6
330
0
100
AcDbSymbolTable
 70
     0
  0
ENDTAB
  0
TABLE
  2
UCS
  5
7
330
0
100
AcDbSymbolTable
 70
     0
  0
ENDTAB
  0
TABLE
  2
APPID
  5
9
330
0
100
AcDbSymbolTable
 70
     2
  0
APPID
  5
12
330
9
100
AcDbSymbolTableRecord
100
AcDbRegAppTableRecord
  2
ACAD
 70
     0
  0
ENDTAB
  0
TABLE
  2
DIMSTYLE
  5
A
330
0
100
AcDbSymbolTable
 70
     1
  0
DIMSTYLE
105
27
330
A
100
AcDbSymbolTableRecord
100
AcDbDimStyleTableRecord
  2
ISO-25
 70
     0
  3

  4

  5

  6

  7

 40
1.0
 41
2.5
 42
0.625
 43
3.75
 44
1.25
 45
0.0
 46
0.0
 47
0.0
 48
0.0
140
2.5
141
2.5
142
0.0
143
0.03937007874016
144
1.0
145
0.0
146
1.0
147
0.625
 71
     0
 72
     0
 73
     0
 74
     0
 75
     0
 76
     0
 77
     1
 78
     8
170
     0
171
     3
172
     1
173
     0
174
     0
175
     0
176
     0
177
     0
178
     0
270
     2
271
     2
272
     2
273
     2
274
     3
340
11
275
     0
280
     0
281
     0
282
     0
283
     0
284
     8
285
     0
286
     0
287
     3
288
     0
  0
ENDTAB
  0
TABLE
  2
BLOCK_RECORD
  5
1
330
0
100
AcDbSymbolTable
 70
     1
  0
BLOCK_RECORD
  5
1F
330
1
100
AcDbSymbolTableRecord
100
AcDbBlockTableRecord
  2
*MODEL_SPACE
  0
BLOCK_RECORD
  5
1B
330
1
100
AcDbSymbolTableRecord
100
AcDbBlockTableRecord
  2
*PAPER_SPACE
  0
ENDTAB
  0
ENDSEC
  0
SECTION
  2
BLOCKS
  0
BLOCK
  5
20
330
1F
100
AcDbEntity
  8
0
100
AcDbBlockBegin
  2
*MODEL_SPACE
 70
     0
 10
0.0
 20
0.0
 30
0.0
  3
*MODEL_SPACE
  1

  0
ENDBLK
  5
21
330
1F
100
AcDbEntity
  8
0
100
AcDbBlockEnd
  0
BLOCK
  5
1C
330
1B
100
AcDbEntity
 67
     1
  8
0
100
AcDbBlockBegin
  2
*PAPER_SPACE
  1

  0
ENDBLK
  5
1D
330
1B
100
AcDbEntity
 67
     1
  8
0
100
AcDbBlockEnd
  0
ENDSEC
  0
SECTION
  2
ENTITIES
  0
LINE
  5
100
100
AcDbEntity
  8
0
 62
7
100
AcDbLine
 10
110.000000
 20
52.500000
 30
0.0
 11
116.500000
 21
52.500000
 31
0.0
  0
LINE
  5
101
100
AcDbEntity
  8
0
 62
7
100
AcDbLine
 10
110.000000
 20
55.500000
 30
0.0
 11
110.000000
 21
52.500000
 31
0.0
  0
LINE
  5
102
100
AcDbEntity
  8
0
 62
7
100
AcDbLine
 10
110.000000
 20
55.500000
 30
0.0
 11
75.500000
 21
55.500000
 31
0.0
  0
LINE
  5
103
100
AcDbEntity
  8
0
 62
7
100
AcDbLine
 10
75.500000
 20
37.500000
 30
0.0
 11
75.500000
 21
55.500000
 31
0.0
  0
LINE
  5
104
100
AcDbEntity
  8
0
 62
7
100
AcDbLine
 10
-73.500000
 20
35.500000
 30
0.0
 11
73.500000
 21
35.500000
 31
0.0
  0
SPLINE
  5
105
100
AcDbEntity
  8
0
 62
7
100
AcDbSpline
 70
0
 71
3
 72
13
 73
9
 74
7
 40
0.000000
 40
0.000000
 40
0.000000
 40
0.000000
 40
0.523550
 40
1.042767
 40
1.566317
 40
2.089866
 40
2.609084
 40
3.132633
 40
3.132633
 40
3.132633
 40
3.132633
 10
73.500000
 20
35.500000
 30
0.0
 10
73.675027
 20
35.513333
 30
0.0
 10
74.023631
 20
35.539887
 30
0.0
 10
74.511313
 20
35.749738
 30
0.0
 10
74.930996
 20
36.069004
 30
0.0
 10
75.250262
 20
36.488687
 30
0.0
 10
75.460113
 20
36.976369
 30
0.0
 10
75.486667
 20
37.324974
 30
0.0
 10
75.500000
 20
37.500000
 30
0.0
 11
73.500000
 21
35.500000
 31
0.0
 11
74.019046
 21
35.568521
 31
0.0
 11
74.498741
 21
35.767217
 31
0.0
 11
74.914214
 21
36.085786
 31
0.0
 11
75.232783
 21
36.501259
 31
0.0
 11
75.431479
 21
36.980954
 31
0.0
 11
75.500000
 21
37.500000
 31
0.0
  0
LINE
  5
106
100
AcDbEntity
  8
0
 62
7
100
AcDbLine
 10
-75.500000
 20
55.500000
 30
0.0
 11
-75.500000
 21
37.500000
 31
0.0
  0
LINE
  5
107
100
AcDbEntity
  8
0
 62
7
100
AcDbLine
 10
-75.500000
 20
55.500000
 30
0.0
 11
-110.000000
 21
55.500000
 31
0.0
  0
LINE
  5
108
100
AcDbEntity
  8
0
 62
7
100
AcDbLine
 10
-110.000000
 20
52.500000
 30
0.0
 11
-110.000000
 21
55.500000
 31
0.0
  0
LINE
  5
109
100
AcDbEntity
  8
0
 62
7
100
AcDbLine
 10
-116.500000
 20
52.500000
 30
0.0
 11
-110.000000
 21
52.500000
 31
0.0
  0
LINE
  5
10a
100
AcDbEntity
  8
0
 62
7
100
AcDbLine
 10
-116.500000
 20
52.500000
 30
0.0
 11
-116.500000
 21
28.500000
 31
0.0
  0
LINE
  5
10b
100
AcDbEntity
  8
0
 62
7
100
AcDbLine
 10
-105.500000
 20
28.500000
 30
0.0
 11
-116.500000
 21
28.500000
 31
0.0
  0
SPLINE
  5
10c
100
AcDbEntity
  8
0
 62
7
100
AcDbSpline
 70
0
 71
3
 72
13
 73
9
 74
7
 40
0.000000
 40
0.000000
 40
0.000000
 40
0.000000
 40
0.523550
 40
1.042767
 40
1.566317
 40
2.089866
 40
2.609084
 40
3.132633
 40
3.132633
 40
3.132633
 40
3.132633
 10
-75.500000
 20
37.500000
 30
0.0
 10
-75.486667
 20
37.324974
 30
0.0
 10
-75.460113
 20
36.976369
 30
0.0
 10
-75.250262
 20
36.488687
 30
0.0
 10
-74.930996
 20
36.069004
 30
0.0
 10
-74.511313
 20
35.749738
 30
0.0
 10
-74.023631
 20
35.539887
 30
0.0
 10
-73.675027
 20
35.513333
 30
0.0
 10
-73.500000
 20
35.500000
 30
0.0
 11
-75.500000
 21
37.500000
 31
0.0
 11
-75.431479
 21
36.980954
 31
0.0
 11
-75.232783
 21
36.501259
 31
0.0
 11
-74.914214
 21
36.085786
 31
0.0
 11
-74.498741
 21
35.767217
 31
0.0
 11
-74.019046
 21
35.568521
 31
0.0
 11
-73.500000
 21
35.500000
 31
0.0
  0
LINE
  5
10d
100
AcDbEntity
  8
0
 62
7
100
AcDbLine
 10
-100.500000
 20
-20.500000
 30
0.0
 11
-100.500000
 21
23.500000
 31
0.0
  0
SPLINE
  5
10e
100
AcDbEntity
  8
0
 62
7
100
AcDbSpline
 70
0
 71
3
 72
13
 73
9
 74
7
 40
0.000000
 40
0.000000
 40
0.000000
 40
0.000000
 40
1.308874
 40
2.606917
 40
3.915792
 40
5.224666
 40
6.522709
 40
7.831584
 40
7.831584
 40
7.831584
 40
7.831584
 10
-100.500000
 20
23.500000
 30
0.0
 10
-100.533331
 20
23.937566
 30
0.0
 10
-100.599718
 20
24.809078
 30
0.0
 10
-101.124344
 20
26.028283
 30
0.0
 10
-101.922510
 20
27.077490
 30
0.0
 10
-102.971717
 20
27.875656
 30
0.0
 10
-104.190922
 20
28.400282
 30
0.0
 10
-105.062434
 20
28.466669
 30
0.0
 10
-105.500000
 20
28.500000
 30
0.0
 11
-100.500000
 21
23.500000
 31
0.0
 11
-100.671303
 21
24.797616
 31
0.0
 11
-101.168042
 21
25.996852
 31
0.0
 11
-101.964466
 21
27.035534
 31
0.0
 11
-103.003149
 21
27.831958
 31
0.0
 11
-104.202384
 21
28.328697
 31
0.0
 11
-105.500000
 21
28.500000
 31
0.0
  0
LINE
  5
10f
100
AcDbEntity
  8
0
 62
7
100
AcDbLine
 10
-116.500000
 20
-25.500000
 30
0.0
 11
-105.500000
 21
-25.500000
 31
0.0
  0
LINE
  5
110
100
AcDbEntity
  8
0
 62
7
100
AcDbLine
 10
-116.500000
 20
-25.500000
 30
0.0
 11
-116.500000
 21
-55.500000
 31
0.0
  0
LINE
  5
111
100
AcDbEntity
  8
0
 62
7
100
AcDbLine
 10
-116.500000
 20
-55.500000
 30
0.0
 11
116.500000
 21
-55.500000
 31
0.0
  0
LINE
  5
112
100
AcDbEntity
  8
0
 62
7
100
AcDbLine
 10
116.500000
 20
-55.500000
 30
0.0
 11
116.500000
 21
-25.500000
 31
0.0
  0
LINE
  5
113
100
AcDbEntity
  8
0
 62
7
100
AcDbLine
 10
105.500000
 20
-25.500000
 30
0.0
 11
116.500000
 21
-25.500000
 31
0.0
  0
SPLINE
  5
114
100
AcDbEntity
  8
0
 62
7
100
AcDbSpline
 70
0
 71
3
 72
13
 73
9
 74
7
 40
0.000000
 40
0.000000
 40
0.000000
 40
0.000000
 40
1.308874
 40
2.606917
 40
3.915792
 40
5.224666
 40
6.522709
 40
7.831584
 40
7.831584
 40
7.831584
 40
7.831584
 10
-105.500000
 20
-25.500000
 30
0.0
 10
-105.062434
 20
-25.466669
 30
0.0
 10
-104.190922
 20
-25.400282
 30
0.0
 10
-102.971717
 20
-24.875656
 30
0.0
 10
-101.922510
 20
-24.077490
 30
0.0
 10
-101.124344
 20
-23.028283
 30
0.0
 10
-100.599718
 20
-21.809078
 30
0.0
 10
-100.533331
 20
-20.937566
 30
0.0
 10
-100.500000
 20
-20.500000
 30
0.0
 11
-105.500000
 21
-25.500000
 31
0.0
 11
-104.202384
 21
-25.328697
 31
0.0
 11
-103.003149
 21
-24.831958
 31
0.0
 11
-101.964466
 21
-24.035534
 31
0.0
 11
-101.168042
 21
-22.996852
 31
0.0
 11
-100.671303
 21
-21.797616
 31
0.0
 11
-100.500000
 21
-20.500000
 31
0.0
  0
LINE
  5
115
100
AcDbEntity
  8
0
 62
7
100
AcDbLine
 10
100.500000
 20
23.500000
 30
0.0
 11
100.500000
 21
-20.500000
 31
0.0
  0
SPLINE
  5
116
100
AcDbEntity
  8
0
 62
7
100
AcDbSpline
 70
0
 71
3
 72
13
 73
9
 74
7
 40
0.000000
 40
0.000000
 40
0.000000
 40
0.000000
 40
1.308874
 40
2.606917
 40
3.915792
 40
5.224666
 40
6.522709
 40
7.831584
 40
7.831584
 40
7.831584
 40
7.831584
 10
100.500000
 20
-20.500000
 30
0.0
 10
100.533331
 20
-20.937566
 30
0.0
 10
100.599718
 20
-21.809078
 30
0.0
 10
101.124344
 20
-23.028283
 30
0.0
 10
101.922510
 20
-24.077490
 30
0.0
 10
102.971717
 20
-24.875656
 30
0.0
 10
104.190922
 20
-25.400282
 30
0.0
 10
105.062434
 20
-25.466669
 30
0.0
 10
105.500000
 20
-25.500000
 30
0.0
 11
100.500000
 21
-20.500000
 31
0.0
 11
100.671303
 21
-21.797616
 31
0.0
 11
101.168042
 21
-22.996852
 31
0.0
 11
101.964466
 21
-24.035534
 31
0.0
 11
103.003149
 21
-24.831958
 31
0.0
 11
104.202384
 21
-25.328697
 31
0.0
 11
105.500000
 21
-25.500000
 31
0.0
  0
LINE
  5
117
100
AcDbEntity
  8
0
 62
7
100
AcDbLine
 10
116.500000
 20
28.500000
 30
0.0
 11
105.500000
 21
28.500000
 31
0.0
  0
LINE
  5
118
100
AcDbEntity
  8
0
 62
7
100
AcDbLine
 10
116.500000
 20
28.500000
 30
0.0
 11
116.500000
 21
52.500000
 31
0.0
  0
SPLINE
  5
119
100
AcDbEntity
  8
0
 62
7
100
AcDbSpline
 70
0
 71
3
 72
13
 73
9
 74
7
 40
0.000000
 40
0.000000
 40
0.000000
 40
0.000000
 40
1.308874
 40
2.606917
 40
3.915792
 40
5.224666
 40
6.522709
 40
7.831584
 40
7.831584
 40
7.831584
 40
7.831584
 10
105.500000
 20
28.500000
 30
0.0
 10
105.062434
 20
28.466669
 30
0.0
 10
104.190922
 20
28.400282
 30
0.0
 10
102.971717
 20
27.875656
 30
0.0
 10
101.922510
 20
27.077490
 30
0.0
 10
101.124344
 20
26.028283
 30
0.0
 10
100.599718
 20
24.809078
 30
0.0
 10
100.533331
 20
23.937566
 30
0.0
 10
100.500000
 20
23.500000
 30
0.0
 11
105.500000
 21
28.500000
 31
0.0
 11
104.202384
 21
28.328697
 31
0.0
 11
103.003149
 21
27.831958
 31
0.0
 11
101.964466
 21
27.035534
 31
0.0
 11
101.168042
 21
25.996852
 31
0.0
 11
100.671303
 21
24.797616
 31
0.0
 11
100.500000
 21
23.500000
 31
0.0
  0
LINE
  5
11a
100
AcDbEntity
  8
0
 62
7
100
AcDbLine
 10
-21.779386
 20
-3.684497
 30
0.0
 11
-31.296431
 21
-3.684497
 31
0.0
  0
LINE
  5
11b
100
AcDbEntity
  8
0
 62
7
100
AcDbLine
 10
-31.296431
 20
-3.684497
 30
0.0
 11
-31.296431
 21
-23.814367
 31
0.0
  0
LINE
  5
11c
100
AcDbEntity
  8
0
 62
7
100
AcDbLine
 10
-31.296431
 20
-23.814367
 30
0.0
 11
-41.300489
 21
-23.814367
 31
0.0
  0
LINE
  5
11d
100
AcDbEntity
  8
0
 62
7
100
AcDbLine
 10
-41.300489
 20
-23.814367
 30
0.0
 11
-41.300489
 21
26.185633
 31
0.0
  0
LINE
  5
11e
100
AcDbEntity
  8
0
 62
7
100
AcDbLine
 10
-41.300489
 20
26.185633
 30
0.0
 11
-22.499759
 21
26.185633
 31
0.0
  0
SPLINE
  5
11f
100
AcDbEntity
  8
0
 62
7
100
AcDbSpline
 70
0
 71
3
 72
55
 73
51
 74
49
 40
0.000000
 40
0.000000
 40
0.000000
 40
0.000000
 40
0.304748
 40
0.609341
 40
0.913768
 40
1.206508
 40
1.499415
 40
1.792422
 40
2.067826
 40
2.343133
 40
2.618443
 40
2.882956
 40
3.147474
 40
3.411865
 40
3.664952
 40
3.918143
 40
4.171504
 40
4.419869
 40
4.668068
 40
4.916075
 40
5.159025
 40
5.402169
 40
5.645441
 40
5.887785
 40
6.129996
 40
6.372125
 40
6.614012
 40
6.855984
 40
7.097990
 40
7.340300
 40
7.582574
 40
7.824851
 40
8.070372
 40
8.315891
 40
8.561399
 40
8.811537
 40
9.061690
 40
9.311833
 40
9.569780
 40
9.827737
 40
10.085694
 40
10.355036
 40
10.624377
 40
10.893772
 40
11.180033
 40
11.466244
 40
11.752332
 40
12.050040
 40
12.347863
 40
12.645809
 40
12.645809
 40
12.645809
 40
12.645809
 10
-14.007470
 20
-11.639043
 30
0.0
 10
-14.008947
 20
-11.537470
 30
0.0
 10
-14.011900
 20
-11.334377
 30
0.0
 10
-14.020138
 20
-11.029885
 30
0.0
 10
-14.035800
 20
-10.729651
 30
0.0
 10
-14.062184
 20
-10.434074
 30
0.0
 10
-14.096927
 20
-10.143224
 30
0.0
 10
-14.137697
 20
-9.859009
 30
0.0
 10
-14.182319
 20
-9.581317
 30
0.0
 10
-14.232191
 20
-9.310499
 30
0.0
 10
-14.289210
 20
-9.044790
 30
0.0
 10
-14.354614
 20
-8.784716
 30
0.0
 10
-14.428667
 20
-8.530753
 30
0.0
 10
-14.511753
 20
-8.283596
 30
0.0
 10
-14.604024
 20
-8.043779
 30
0.0
 10
-14.703042
 20
-7.810688
 30
0.0
 10
-14.807590
 20
-7.581775
 30
0.0
 10
-14.915725
 20
-7.356376
 30
0.0
 10
-15.029607
 20
-7.135801
 30
0.0
 10
-15.151349
 20
-6.921490
 30
0.0
 10
-15.282792
 20
-6.714977
 30
0.0
 10
-15.422173
 20
-6.515695
 30
0.0
 10
-15.568777
 20
-6.321945
 30
0.0
 10
-15.721199
 20
-6.133140
 30
0.0
 10
-15.879918
 20
-5.950084
 30
0.0
 10
-16.045548
 20
-5.773447
 30
0.0
 10
-16.218518
 20
-5.604100
 30
0.0
 10
-16.398103
 20
-5.441863
 30
0.0
 10
-16.583766
 20
-5.286411
 30
0.0
 10
-16.774868
 20
-5.137538
 30
0.0
 10
-16.971156
 20
-4.995418
 30
0.0
 10
-17.173185
 20
-4.859659
 30
0.0
 10
-17.380782
 20
-4.730509
 30
0.0
 10
-17.593915
 20
-4.608523
 30
0.0
 10
-17.812906
 20
-4.494023
 30
0.0
 10
-18.037687
 20
-4.387683
 30
0.0
 10
-18.267884
 20
-4.289638
 30
0.0
 10
-18.504097
 20
-4.199552
 30
0.0
 10
-18.746026
 20
-4.117678
 30
0.0
 10
-18.993177
 20
-4.043641
 30
0.0
 10
-19.246230
 20
-3.976565
 30
0.0
 10
-19.504833
 20
-3.916073
 30
0.0
 10
-19.768777
 20
-3.862160
 30
0.0
 10
-20.039611
 20
-3.814313
 30
0.0
 10
-20.317154
 20
-3.772614
 30
0.0
 10
-20.601330
 20
-3.738382
 30
0.0
 10
-20.890273
 20
-3.712935
 30
0.0
 10
-21.183795
 20
-3.697590
 30
0.0
 10
-21.481517
 20
-3.689245
 30
0.0
 10
-21.680082
 20
-3.686080
 30
0.0
 10
-21.779386
 20
-3.684497
 30
0.0
 11
-14.007470
 21
-11.639043
 31
0.0
 11
-14.012536
 21
-11.334337
 31
0.0
 11
-14.021412
 21
-11.029873
 31
0.0
 11
-14.037908
 21
-10.725893
 31
0.0
 11
-14.063628
 21
-10.434285
 31
0.0
 11
-14.098065
 21
-10.143410
 31
0.0
 11
-14.139369
 21
-9.853328
 31
0.0
 11
-14.183355
 21
-9.581460
 31
0.0
 11
-14.233509
 21
-9.310760
 31
0.0
 11
-14.291561
 21
-9.041640
 31
0.0
 11
-14.356203
 21
-8.785148
 31
0.0
 11
-14.430387
 21
-8.531245
 31
0.0
 11
-14.514775
 21
-8.280682
 31
0.0
 11
-14.605355
 21
-8.044360
 31
0.0
 11
-14.704050
 21
-7.811197
 31
0.0
 11
-14.809012
 21
-7.580601
 31
0.0
 11
-14.916836
 21
-7.356862
 31
0.0
 11
-15.031095
 21
-7.136527
 31
0.0
 11
-15.153980
 21
-6.921104
 31
0.0
 11
-15.284220
 21
-6.716013
 31
0.0
 11
-15.423372
 21
-6.516625
 31
0.0
 11
-15.569970
 21
-6.322484
 31
0.0
 11
-15.722317
 21
-6.134015
 31
0.0
 11
-15.881105
 21
-5.951115
 31
0.0
 11
-16.046837
 21
-5.774595
 31
0.0
 11
-16.219605
 21
-5.605300
 31
0.0
 11
-16.399090
 21
-5.443017
 31
0.0
 11
-16.584580
 21
-5.287582
 31
0.0
 11
-16.775730
 21
-5.138666
 31
0.0
 11
-16.971963
 21
-4.996578
 31
0.0
 11
-17.173054
 21
-4.861445
 31
0.0
 11
-17.381553
 21
-4.731797
 31
0.0
 11
-17.594667
 21
-4.609888
 31
0.0
 11
-17.812259
 21
-4.496186
 31
0.0
 11
-18.038352
 21
-4.389178
 31
0.0
 11
-18.268484
 21
-4.291118
 31
0.0
 11
-18.502194
 21
-4.201949
 31
0.0
 11
-18.746482
 21
-4.119124
 31
0.0
 11
-18.993549
 21
-4.044963
 31
0.0
 11
-19.242859
 21
-3.978734
 31
0.0
 11
-19.505105
 21
-3.917314
 31
0.0
 11
-19.768982
 21
-3.863338
 31
0.0
 11
-20.034256
 21
-3.816397
 31
0.0
 11
-20.317359
 21
-3.773994
 31
0.0
 11
-20.601532
 21
-3.739897
 31
0.0
 11
-20.886528
 21
-3.714935
 31
0.0
 11
-21.183798
 21
-3.698792
 31
0.0
 11
-21.481487
 21
-3.689846
 31
0.0
 11
-21.779386
 21
-3.684497
 31
0.0
  0
SPLINE
  5
120
100
AcDbEntity
  8
0
 62
7
100
AcDbSpline
 70
0
 71
3
 72
55
 73
51
 74
49
 40
0.000000
 40
0.000000
 40
0.000000
 40
0.000000
 40
0.690401
 40
1.380668
 40
2.070827
 40
2.726437
 40
3.382167
 40
4.037914
 40
4.661858
 40
5.285777
 40
5.909749
 40
6.501386
 40
7.092973
 40
7.684501
 40
8.249371
 40
8.814295
 40
9.379200
 40
9.924294
 40
10.469396
 40
11.014593
 40
11.543465
 40
12.072248
 40
12.600913
 40
13.119256
 40
13.637715
 40
14.156206
 40
14.661685
 40
15.167122
 40
15.672653
 40
16.166525
 40
16.660311
 40
17.153912
 40
17.640871
 40
18.128007
 40
18.615284
 40
19.104267
 40
19.593107
 40
20.081877
 40
20.580871
 40
21.079946
 40
21.578966
 40
22.091728
 40
22.604541
 40
23.117562
 40
23.651369
 40
24.184971
 40
24.718183
 40
25.279817
 40
25.841834
 40
26.404238
 40
26.404238
 40
26.404238
 40
26.404238
 10
-22.499759
 20
26.185633
 30
0.0
 10
-22.269655
 20
26.181921
 30
0.0
 10
-21.809491
 20
26.174499
 30
0.0
 10
-21.119414
 20
26.157260
 30
0.0
 10
-20.441293
 20
26.128298
 30
0.0
 10
-19.775621
 20
26.082577
 30
0.0
 10
-19.122711
 20
26.021514
 30
0.0
 10
-18.481950
 20
25.945934
 30
0.0
 10
-17.853614
 20
25.857062
 30
0.0
 10
-17.237911
 20
25.755644
 30
0.0
 10
-16.635285
 20
25.642104
 30
0.0
 10
-16.045918
 20
25.517213
 30
0.0
 10
-15.470479
 20
25.379624
 30
0.0
 10
-14.907983
 20
25.227272
 30
0.0
 10
-14.359314
 20
25.059063
 30
0.0
 10
-13.824701
 20
24.876285
 30
0.0
 10
-13.302326
 20
24.678962
 30
0.0
 10
-12.792438
 20
24.468058
 30
0.0
 10
-12.295106
 20
24.244636
 30
0.0
 10
-11.809472
 20
24.008963
 30
0.0
 10
-11.335623
 20
23.761957
 30
0.0
 10
-10.874832
 20
23.502373
 30
0.0
 10
-10.426872
 20
23.227821
 30
0.0
 10
-9.993326
 20
22.937166
 30
0.0
 10
-9.573970
 20
22.632150
 30
0.0
 10
-9.169322
 20
22.314798
 30
0.0
 10
-8.778983
 20
21.986728
 30
0.0
 10
-8.403247
 20
21.648443
 30
0.0
 10
-8.042255
 20
21.300016
 30
0.0
 10
-7.696336
 20
20.941989
 30
0.0
 10
-7.367191
 20
20.573763
 30
0.0
 10
-7.055696
 20
20.193413
 30
0.0
 10
-6.763893
 20
19.800517
 30
0.0
 10
-6.490497
 20
19.397184
 30
0.0
 10
-6.232783
 20
18.982892
 30
0.0
 10
-5.989653
 20
18.559226
 30
0.0
 10
-5.762417
 20
18.126245
 30
0.0
 10
-5.551178
 20
17.681524
 30
0.0
 10
-5.357685
 20
17.225079
 30
0.0
 10
-5.182023
 20
16.757843
 30
0.0
 10
-5.023670
 20
16.279631
 30
0.0
 10
-4.882818
 20
15.791214
 30
0.0
 10
-4.758499
 20
15.293541
 30
0.0
 10
-4.648886
 20
14.785270
 30
0.0
 10
-4.552996
 20
14.267171
 30
0.0
 10
-4.473972
 20
13.739398
 30
0.0
 10
-4.414510
 20
13.199680
 30
0.0
 10
-4.378600
 20
12.648411
 30
0.0
 10
-4.359212
 20
12.086686
 30
0.0
 10
-4.351991
 20
11.711947
 30
0.0
 10
-4.348379
 20
11.524512
 30
0.0
 11
-22.499759
 21
26.185633
 31
0.0
 11
-21.809465
 21
26.173480
 31
0.0
 11
-21.119440
 21
26.155223
 31
0.0
 11
-20.429953
 21
26.124756
 31
0.0
 11
-19.775880
 21
26.079892
 31
0.0
 11
-19.122994
 21
26.018889
 31
0.0
 11
-18.471755
 21
25.942126
 31
0.0
 11
-17.853963
 21
25.854723
 31
0.0
 11
-17.238344
 21
25.753295
 31
0.0
 11
-16.625165
 21
25.637743
 31
0.0
 11
-16.046459
 21
25.514719
 31
0.0
 11
-15.471182
 21
25.376770
 31
0.0
 11
-14.900327
 21
25.221753
 31
0.0
 11
-14.360259
 21
25.056207
 31
0.0
 11
-13.825706
 21
24.873470
 31
0.0
 11
-13.297243
 21
24.673863
 31
0.0
 11
-12.793522
 21
24.465555
 31
0.0
 11
-12.296273
 21
24.242214
 31
0.0
 11
-11.805765
 21
24.004220
 31
0.0
 11
-11.336959
 21
23.759422
 31
0.0
 11
-10.876438
 21
23.499553
 31
0.0
 11
-10.425895
 21
23.222970
 31
0.0
 11
-9.995253
 21
22.934480
 31
0.0
 11
-9.575868
 21
22.629659
 31
0.0
 11
-9.167778
 21
22.309821
 31
0.0
 11
-8.780855
 21
21.984553
 31
0.0
 11
-8.405263
 21
21.646326
 31
0.0
 11
-8.041561
 21
21.295211
 31
0.0
 11
-7.698652
 21
20.939791
 31
0.0
 11
-7.369849
 21
20.571399
 31
0.0
 11
-7.057389
 21
20.189285
 31
0.0
 11
-6.766785
 21
19.798544
 31
0.0
 11
-6.493196
 21
19.395492
 31
0.0
 11
-6.235554
 21
18.981899
 31
0.0
 11
-5.992320
 21
18.557703
 31
0.0
 11
-5.765311
 21
18.124771
 31
0.0
 11
-5.555765
 21
17.683198
 31
0.0
 11
-5.360889
 21
17.223830
 31
0.0
 11
-5.185142
 21
16.756723
 31
0.0
 11
-5.028168
 21
16.283035
 31
0.0
 11
-4.885793
 21
15.790436
 31
0.0
 11
-4.761213
 21
15.292985
 31
0.0
 11
-4.652762
 21
14.791558
 31
0.0
 11
-4.556001
 21
14.266594
 31
0.0
 11
-4.477384
 21
13.738816
 31
0.0
 11
-4.419402
 21
13.208766
 31
0.0
 11
-4.381464
 21
12.648415
 31
0.0
 11
-4.360643
 21
12.086784
 31
0.0
 11
-4.348379
 21
11.524512
 31
0.0
  0
SPLINE
  5
121
100
AcDbEntity
  8
0
 62
7
100
AcDbSpline
 70
0
 71
3
 72
31
 73
27
 74
25
 40
0.000000
 40
0.000000
 40
0.000000
 40
0.000000
 40
0.621396
 40
1.241874
 40
1.861449
 40
2.450377
 40
3.040231
 40
3.630655
 40
4.202621
 40
4.774015
 40
5.345010
 40
5.913194
 40
6.481784
 40
7.050495
 40
7.626612
 40
8.202585
 40
8.778569
 40
9.380635
 40
9.982706
 40
10.584792
 40
11.223169
 40
11.861558
 40
12.499729
 40
13.181762
 40
13.863973
 40
14.546492
 40
14.546492
 40
14.546492
 40
14.546492
 10
-4.348379
 20
11.524512
 30
0.0
 10
-4.355005
 20
11.317484
 30
0.0
 10
-4.368246
 20
10.903734
 30
0.0
 10
-4.401903
 20
10.284069
 30
0.0
 10
-4.462233
 20
9.677043
 30
0.0
 10
-4.560553
 20
9.085300
 30
0.0
 10
-4.690849
 20
8.509838
 30
0.0
 10
-4.849572
 20
7.947494
 30
0.0
 10
-5.032290
 20
7.398983
 30
0.0
 10
-5.240702
 20
6.866588
 30
0.0
 10
-5.478926
 20
6.348148
 30
0.0
 10
-5.749130
 20
5.846688
 30
0.0
 10
-6.048144
 20
5.362820
 30
0.0
 10
-6.375038
 20
4.894147
 30
0.0
 10
-6.727548
 20
4.441328
 30
0.0
 10
-7.103946
 20
4.004985
 30
0.0
 10
-7.506711
 20
3.580876
 30
0.0
 10
-7.935032
 20
3.169906
 30
0.0
 10
-8.388785
 20
2.773841
 30
0.0
 10
-8.870053
 20
2.391911
 30
0.0
 10
-9.378946
 20
2.026442
 30
0.0
 10
-9.914335
 20
1.678487
 30
0.0
 10
-10.476945
 20
1.346872
 30
0.0
 10
-11.065995
 20
1.032622
 30
0.0
 10
-11.677147
 20
0.729259
 30
0.0
 10
-12.087537
 20
0.532982
 30
0.0
 10
-12.292778
 20
0.434821
 30
0.0
 11
-4.348379
 21
11.524512
 31
0.0
 11
-4.370562
 21
10.903513
 31
0.0
 11
-4.406547
 21
10.284079
 31
0.0
 11
-4.470132
 21
9.667776
 31
0.0
 11
-4.566085
 21
9.086717
 31
0.0
 11
-4.695800
 21
8.511302
 31
0.0
 11
-4.855684
 21
7.942938
 31
0.0
 11
-5.036981
 21
7.400466
 31
0.0
 11
-5.245808
 21
6.868599
 31
0.0
 11
-5.484743
 21
6.350000
 31
0.0
 11
-5.753924
 21
5.849625
 31
0.0
 11
-6.052517
 21
5.365749
 31
0.0
 11
-6.377600
 21
4.899107
 31
0.0
 11
-6.731311
 21
4.444356
 31
0.0
 11
-7.107345
 21
4.008072
 31
0.0
 11
-7.503817
 21
3.590259
 31
0.0
 11
-7.938223
 21
3.173396
 31
0.0
 11
-8.391787
 21
2.777454
 31
0.0
 11
-8.863395
 21
2.403165
 31
0.0
 11
-9.381730
 21
2.030533
 31
0.0
 11
-9.916843
 21
1.682404
 31
0.0
 11
-10.466480
 21
1.358116
 31
0.0
 11
-11.067451
 21
1.035623
 31
0.0
 11
-11.677777
 21
0.730804
 31
0.0
 11
-12.292778
 21
0.434821
 31
0.0
  0
LINE
  5
122
100
AcDbEntity
  8
0
 62
7
100
AcDbLine
 10
-4.013558
 20
-11.568020
 30
0.0
 11
-4.013558
 21
-15.271348
 31
0.0
  0
SPLINE
  5
123
100
AcDbEntity
  8
0
 62
7
100
AcDbSpline
 70
0
 71
3
 72
55
 73
51
 74
49
 40
0.000000
 40
0.000000
 40
0.000000
 40
0.000000
 40
0.374508
 40
0.748869
 40
1.123084
 40
1.479209
 40
1.835482
 40
2.191823
 40
2.533769
 40
2.875644
 40
3.217537
 40
3.544273
 40
3.870997
 40
4.197641
 40
4.513576
 40
4.829582
 40
5.145675
 40
5.454594
 40
5.763428
 40
6.072197
 40
6.376768
 40
6.681407
 40
6.986054
 40
7.287343
 40
7.588616
 40
7.889876
 40
8.194471
 40
8.499077
 40
8.803741
 40
9.110993
 40
9.418190
 40
9.725292
 40
10.038789
 40
10.352382
 40
10.666048
 40
10.990432
 40
11.314739
 40
11.639010
 40
11.971394
 40
12.303819
 40
12.636251
 40
12.978286
 40
13.320314
 40
13.662364
 40
14.018872
 40
14.375359
 40
14.731785
 40
15.103907
 40
15.476085
 40
15.848329
 40
15.848329
 40
15.848329
 40
15.848329
 10
-12.292778
 20
0.434821
 30
0.0
 10
-12.173684
 20
0.397395
 30
0.0
 10
-11.935543
 20
0.322556
 30
0.0
 10
-11.579702
 20
0.206216
 30
0.0
 10
-11.232375
 20
0.083734
 30
0.0
 10
-10.894985
 20
-0.048197
 30
0.0
 10
-10.567071
 20
-0.187533
 30
0.0
 10
-10.247092
 20
-0.333139
 30
0.0
 10
-9.934580
 20
-0.483371
 30
0.0
 10
-9.629911
 20
-0.638609
 30
0.0
 10
-9.333775
 20
-0.799196
 30
0.0
 10
-9.046535
 20
-0.965341
 30
0.0
 10
-8.768769
 20
-1.137432
 30
0.0
 10
-8.499948
 20
-1.316807
 30
0.0
 10
-8.240781
 20
-1.503817
 30
0.0
 10
-7.990692
 20
-1.697081
 30
0.0
 10
-7.748269
 20
-1.896195
 30
0.0
 10
-7.512968
 20
-2.100043
 30
0.0
 10
-7.285773
 20
-2.309325
 30
0.0
 10
-7.067069
 20
-2.525435
 30
0.0
 10
-6.857988
 20
-2.748962
 30
0.0
 10
-6.658434
 20
-2.979209
 30
0.0
 10
-6.468178
 20
-3.215791
 30
0.0
 10
-6.287146
 20
-3.458094
 30
0.0
 10
-6.114868
 20
-3.705312
 30
0.0
 10
-5.949652
 20
-3.958614
 30
0.0
 10
-5.791144
 20
-4.217463
 30
0.0
 10
-5.639117
 20
-4.481478
 30
0.0
 10
-5.493413
 20
-4.750035
 30
0.0
 10
-5.353746
 20
-5.022755
 30
0.0
 10
-5.221282
 20
-5.299959
 30
0.0
 10
-5.096684
 20
-5.583079
 30
0.0
 10
-4.981356
 20
-5.872397
 30
0.0
 10
-4.873951
 20
-6.167054
 30
0.0
 10
-4.772471
 20
-6.467621
 30
0.0
 10
-4.675473
 20
-6.773410
 30
0.0
 10
-4.583831
 20
-7.084541
 30
0.0
 10
-4.498575
 20
-7.400251
 30
0.0
 10
-4.420584
 20
-7.720622
 30
0.0
 10
-4.349737
 20
-8.045429
 30
0.0
 10
-4.285711
 20
-8.374924
 30
0.0
 10
-4.228397
 20
-8.708900
 30
0.0
 10
-4.177792
 20
-9.047200
 30
0.0
 10
-4.133572
 20
-9.391254
 30
0.0
 10
-4.095819
 20
-9.740930
 30
0.0
 10
-4.065212
 20
-10.096116
 30
0.0
 10
-4.042273
 20
-10.457100
 30
0.0
 10
-4.027782
 20
-10.823751
 30
0.0
 10
-4.019153
 20
-11.195840
 30
0.0
 10
-4.015423
 20
-11.443953
 30
0.0
 10
-4.013558
 20
-11.568020
 30
0.0
 11
-12.292778
 21
0.434821
 31
0.0
 11
-11.935713
 21
0.321857
 31
0.0
 11
-11.580112
 21
0.204838
 31
0.0
 11
-11.227437
 21
0.079707
 31
0.0
 11
-10.895685
 21
-0.049774
 31
0.0
 11
-10.567697
 21
-0.188895
 31
0.0
 11
-10.243265
 21
-0.336283
 31
0.0
 11
-9.935143
 21
-0.484563
 31
0.0
 11
-9.630595
 21
-0.639901
 31
0.0
 11
-9.330116
 21
-0.803004
 31
0.0
 11
-9.047377
 21
-0.966759
 31
0.0
 11
-8.769738
 21
-1.138994
 31
0.0
 11
-8.498135
 21
-1.320455
 31
0.0
 11
-8.241837
 21
-1.505188
 31
0.0
 11
-7.991691
 21
-1.698286
 31
0.0
 11
-7.747324
 21
-1.898783
 31
0.0
 11
-7.513990
 21
-2.101234
 31
0.0
 11
-7.287001
 21
-2.310648
 31
0.0
 11
-7.067535
 21
-2.527841
 31
0.0
 11
-6.859435
 21
-2.750233
 31
0.0
 11
-6.659871
 21
-2.980405
 31
0.0
 11
-6.468915
 21
-3.217777
 31
0.0
 11
-6.288489
 21
-3.459068
 31
0.0
 11
-6.116142
 21
-3.706176
 31
0.0
 11
-5.951463
 21
-3.958442
 31
0.0
 11
-5.792324
 21
-4.218160
 31
0.0
 11
-5.640251
 21
-4.482088
 31
0.0
 11
-5.494889
 21
-4.749838
 31
0.0
 11
-5.355000
 21
-5.023398
 31
0.0
 11
-5.222720
 21
-5.300656
 31
0.0
 11
-5.099191
 21
-5.581819
 31
0.0
 11
-4.982823
 21
-5.872918
 31
0.0
 11
-4.875140
 21
-6.167443
 31
0.0
 11
-4.774515
 21
-6.464530
 31
0.0
 11
-4.676537
 21
-6.773763
 31
0.0
 11
-4.585008
 21
-7.084887
 31
0.0
 11
-4.500570
 21
-7.397971
 31
0.0
 11
-4.421885
 21
-7.720907
 31
0.0
 11
-4.350977
 21
-8.045681
 31
0.0
 11
-4.287502
 21
-8.371997
 31
0.0
 11
-4.229605
 21
-8.709097
 31
0.0
 11
-4.178960
 21
-9.047354
 31
0.0
 11
-4.135311
 21
-9.386608
 31
0.0
 11
-4.097095
 21
-9.741061
 31
0.0
 11
-4.066543
 21
-10.096237
 31
0.0
 11
-4.043996
 21
-10.451949
 31
0.0
 11
-4.028794
 21
-10.823760
 31
0.0
 11
-4.019659
 21
-11.195827
 31
0.0
 11
-4.013558
 21
-11.568020
 31
0.0
  0
LINE
  5
124
100
AcDbEntity
  8
0
 62
7
100
AcDbLine
 10
-1.507470
 20
-23.083848
 30
0.0
 11
-1.507470
 21
-23.814367
 31
0.0
  0
LINE
  5
125
100
AcDbEntity
  8
0
 62
7
100
AcDbLine
 10
-1.507470
 20
-23.814367
 30
0.0
 11
-11.815912
 21
-23.814367
 31
0.0
  0
SPLINE
  5
126
100
AcDbEntity
  8
0
 62
7
100
AcDbSpline
 70
0
 71
3
 72
31
 73
27
 74
25
 40
0.000000
 40
0.000000
 40
0.000000
 40
0.000000
 40
0.355397
 40
0.710772
 40
1.066151
 40
1.433054
 40
1.799967
 40
2.166825
 40
2.543792
 40
2.920812
 40
3.297874
 40
3.685304
 40
4.072691
 40
4.460194
 40
4.836025
 40
5.211765
 40
5.587227
 40
5.927546
 40
6.268100
 40
6.609195
 40
6.921731
 40
7.233768
 40
7.544849
 40
7.843183
 40
8.142325
 40
8.442221
 40
8.442221
 40
8.442221
 40
8.442221
 10
-4.013558
 20
-15.271348
 30
0.0
 10
-4.010237
 20
-15.389767
 30
0.0
 10
-4.003596
 20
-15.626598
 30
0.0
 10
-3.991257
 20
-15.981773
 30
0.0
 10
-3.973976
 20
-16.340593
 30
0.0
 10
-3.949112
 20
-16.702836
 30
0.0
 10
-3.915660
 20
-17.068233
 30
0.0
 10
-3.872755
 20
-17.436029
 30
0.0
 10
-3.819343
 20
-17.805847
 30
0.0
 10
-3.757351
 20
-18.177754
 30
0.0
 10
-3.688869
 20
-18.552053
 30
0.0
 10
-3.615992
 20
-18.929043
 30
0.0
 10
-3.536070
 20
-19.308177
 30
0.0
 10
-3.448152
 20
-19.681585
 30
0.0
 10
-3.350210
 20
-20.048497
 30
0.0
 10
-3.239942
 20
-20.407735
 30
0.0
 10
-3.117594
 20
-20.750551
 30
0.0
 10
-2.982560
 20
-21.075890
 30
0.0
 10
-2.836956
 20
-21.384006
 30
0.0
 10
-2.681114
 20
-21.676607
 30
0.0
 10
-2.516910
 20
-21.953615
 30
0.0
 10
-2.342568
 20
-22.212472
 30
0.0
 10
-2.152757
 20
-22.454423
 30
0.0
 10
-1.945823
 20
-22.675935
 30
0.0
 10
-1.729645
 20
-22.882780
 30
0.0
 10
-1.581591
 20
-23.016769
 30
0.0
 10
-1.507470
 20
-23.083848
 30
0.0
 11
-4.013558
 21
-15.271348
 31
0.0
 11
-4.003200
 21
-15.626594
 31
0.0
 11
-3.990464
 21
-15.981741
 31
0.0
 11
-3.972973
 21
-16.336689
 31
0.0
 11
-3.947725
 21
-16.702722
 31
0.0
 11
-3.914147
 21
-17.068096
 31
0.0
 11
-3.871512
 21
-17.432468
 31
0.0
 11
-3.817997
 21
-17.805617
 31
0.0
 11
-3.756376
 21
-18.177567
 31
0.0
 11
-3.688882
 21
-18.548539
 31
0.0
 11
-3.614926
 21
-18.928845
 31
0.0
 11
-3.534598
 21
-19.307813
 31
0.0
 11
-3.445376
 21
-19.684903
 31
0.0
 11
-3.347974
 21
-20.047893
 31
0.0
 11
-3.237236
 21
-20.406945
 31
0.0
 11
-3.110554
 21
-20.760390
 31
0.0
 11
-2.980100
 21
-21.074712
 31
0.0
 11
-2.834604
 21
-21.382621
 31
0.0
 11
-2.674272
 21
-21.683685
 31
0.0
 11
-2.514278
 21
-21.952163
 31
0.0
 11
-2.339318
 21
-22.210535
 31
0.0
 11
-2.146675
 21
-22.454789
 31
0.0
 11
-1.944050
 21
-22.673756
 31
0.0
 11
-1.728893
 21
-22.881586
 31
0.0
 11
-1.507470
 21
-23.083848
 31
0.0
  0
LINE
  5
127
100
AcDbEntity
  8
0
 62
7
100
AcDbLine
 10
-14.007470
 20
-15.200325
 30
0.0
 11
-14.007470
 21
-11.639043
 31
0.0
  0
SPLINE
  5
128
100
AcDbEntity
  8
0
 62
7
100
AcDbSpline
 70
0
 71
3
 72
25
 73
21
 74
19
 40
0.000000
 40
0.000000
 40
0.000000
 40
0.000000
 40
0.302878
 40
0.604562
 40
0.904893
 40
1.227135
 40
1.551014
 40
1.875870
 40
2.240148
 40
2.603340
 40
2.965880
 40
3.374077
 40
3.783036
 40
4.192528
 40
5.041824
 40
5.890168
 40
6.738053
 40
7.536648
 40
8.335606
 40
9.134864
 40
9.134864
 40
9.134864
 40
9.134864
 10
-11.815912
 20
-23.814367
 30
0.0
 10
-11.889734
 20
-23.745493
 30
0.0
 10
-12.037087
 20
-23.608017
 30
0.0
 10
-12.250699
 20
-23.394914
 30
0.0
 10
-12.453815
 20
-23.162701
 30
0.0
 10
-12.635483
 20
-22.904074
 30
0.0
 10
-12.798388
 20
-22.624091
 30
0.0
 10
-12.949960
 20
-22.322205
 30
0.0
 10
-13.094133
 20
-22.002302
 30
0.0
 10
-13.227002
 20
-21.663958
 30
0.0
 10
-13.346026
 20
-21.304988
 30
0.0
 10
-13.446289
 20
-20.924505
 30
0.0
 10
-13.530938
 20
-20.524373
 30
0.0
 10
-13.628381
 20
-19.977023
 30
0.0
 10
-13.734755
 20
-19.282621
 30
0.0
 10
-13.836096
 20
-18.440042
 30
0.0
 10
-13.909012
 20
-17.611487
 30
0.0
 10
-13.955598
 20
-16.797585
 30
0.0
 10
-13.985473
 20
-15.999182
 30
0.0
 10
-14.000137
 20
-15.466644
 30
0.0
 10
-14.007470
 20
-15.200325
 30
0.0
 11
-11.815912
 21
-23.814367
 31
0.0
 11
-12.036214
 21
-23.606516
 31
0.0
 11
-12.248554
 21
-23.392216
 31
0.0
 11
-12.444970
 21
-23.165017
 31
0.0
 11
-12.631284
 21
-22.902096
 31
0.0
 11
-12.795290
 21
-22.622812
 31
0.0
 11
-12.942129
 21
-22.333036
 31
0.0
 11
-13.091526
 21
-22.000804
 31
0.0
 11
-13.224004
 21
-21.662635
 31
0.0
 11
-13.337827
 21
-21.318426
 31
0.0
 11
-13.442965
 21
-20.924001
 31
0.0
 11
-13.528739
 21
-20.524139
 31
0.0
 11
-13.601626
 21
-20.121186
 31
0.0
 11
-13.730269
 21
-19.281689
 31
0.0
 11
-13.831624
 21
-18.439421
 31
0.0
 11
-13.906009
 21
-17.594806
 31
0.0
 11
-13.952962
 21
-16.797592
 31
0.0
 11
-13.984156
 21
-15.999243
 31
0.0
 11
-14.007470
 21
-15.200325
 31
0.0
  0
LINE
  5
129
100
AcDbEntity
  8
0
 62
7
100
AcDbLine
 10
101.575000
 20
-45.500000
 30
0.0
 11
101.575000
 21
-45.500000
 31
0.0
  0
SPLINE
  5
12a
100
AcDbEntity
  8
0
 62
7
100
AcDbSpline
 70
0
 71
3
 72
25
 73
21
 74
19
 40
0.000000
 40
0.000000
 40
0.000000
 40
0.000000
 40
0.549766
 40
1.091661
 40
1.641427
 40
2.191194
 40
2.733088
 40
3.282855
 40
3.832621
 40
4.374516
 40
4.924282
 40
5.474049
 40
6.015943
 40
6.565710
 40
7.115476
 40
7.657370
 40
8.207137
 40
8.756903
 40
9.298798
 40
9.848564
 40
9.848564
 40
9.848564
 40
9.848564
 10
101.575000
 20
-45.500000
 30
0.0
 10
101.556250
 20
-45.315801
 30
0.0
 10
101.519017
 20
-44.950042
 30
0.0
 10
101.229165
 20
-44.466618
 30
0.0
 10
100.804646
 20
-44.107187
 30
0.0
 10
100.278891
 20
-43.916550
 30
0.0
 10
99.720989
 20
-43.916550
 30
0.0
 10
99.195967
 20
-44.107187
 30
0.0
 10
98.768519
 20
-44.466618
 30
0.0
 10
98.489549
 20
-44.950042
 30
0.0
 10
98.392493
 20
-45.500000
 30
0.0
 10
98.489549
 20
-46.049958
 30
0.0
 10
98.768519
 20
-46.533382
 30
0.0
 10
99.195967
 20
-46.892813
 30
0.0
 10
99.720989
 20
-47.083450
 30
0.0
 10
100.278891
 20
-47.083450
 30
0.0
 10
100.804646
 20
-46.892813
 30
0.0
 10
101.229165
 20
-46.533382
 30
0.0
 10
101.519017
 20
-46.049958
 30
0.0
 10
101.556250
 20
-45.684199
 30
0.0
 10
101.575000
 20
-45.500000
 30
0.0
 11
101.575000
 21
-45.500000
 31
0.0
 11
101.479301
 21
-44.958627
 31
0.0
 11
101.208486
 21
-44.489256
 31
0.0
 11
100.787692
 21
-44.135454
 31
0.0
 11
100.270947
 21
-43.947791
 31
0.0
 11
99.729053
 21
-43.947791
 31
0.0
 11
99.212307
 21
-44.135454
 31
0.0
 11
98.791514
 21
-44.489256
 31
0.0
 11
98.520699
 21
-44.958627
 31
0.0
 11
98.425000
 21
-45.500000
 31
0.0
 11
98.520699
 21
-46.041373
 31
0.0
 11
98.791514
 21
-46.510744
 31
0.0
 11
99.212307
 21
-46.864546
 31
0.0
 11
99.729053
 21
-47.052209
 31
0.0
 11
100.270947
 21
-47.052209
 31
0.0
 11
100.787692
 21
-46.864546
 31
0.0
 11
101.208486
 21
-46.510744
 31
0.0
 11
101.479301
 21
-46.041373
 31
0.0
 11
101.575000
 21
-45.500000
 31
0.0
  0
LINE
  5
12b
100
AcDbEntity
  8
0
 62
7
100
AcDbLine
 10
-98.425000
 20
45.500000
 30
0.0
 11
-98.425000
 21
45.500000
 31
0.0
  0
SPLINE
  5
12c
100
AcDbEntity
  8
0
 62
7
100
AcDbSpline
 70
0
 71
3
 72
25
 73
21
 74
19
 40
0.000000
 40
0.000000
 40
0.000000
 40
0.000000
 40
0.549766
 40
1.091661
 40
1.641427
 40
2.191194
 40
2.733088
 40
3.282855
 40
3.832621
 40
4.374516
 40
4.924282
 40
5.474049
 40
6.015943
 40
6.565710
 40
7.115476
 40
7.657370
 40
8.207137
 40
8.756903
 40
9.298798
 40
9.848564
 40
9.848564
 40
9.848564
 40
9.848564
 10
-98.425000
 20
45.500000
 30
0.0
 10
-98.443750
 20
45.684199
 30
0.0
 10
-98.480983
 20
46.049958
 30
0.0
 10
-98.770835
 20
46.533382
 30
0.0
 10
-99.195354
 20
46.892813
 30
0.0
 10
-99.721109
 20
47.083450
 30
0.0
 10
-100.279011
 20
47.083450
 30
0.0
 10
-100.804033
 20
46.892813
 30
0.0
 10
-101.231481
 20
46.533382
 30
0.0
 10
-101.510451
 20
46.049958
 30
0.0
 10
-101.607507
 20
45.500000
 30
0.0
 10
-101.510451
 20
44.950042
 30
0.0
 10
-101.231481
 20
44.466618
 30
0.0
 10
-100.804033
 20
44.107187
 30
0.0
 10
-100.279011
 20
43.916550
 30
0.0
 10
-99.721109
 20
43.916550
 30
0.0
 10
-99.195354
 20
44.107187
 30
0.0
 10
-98.770835
 20
44.466618
 30
0.0
 10
-98.480983
 20
44.950042
 30
0.0
 10
-98.443750
 20
45.315801
 30
0.0
 10
-98.425000
 20
45.500000
 30
0.0
 11
-98.425000
 21
45.500000
 31
0.0
 11
-98.520699
 21
46.041373
 31
0.0
 11
-98.791514
 21
46.510744
 31
0.0
 11
-99.212307
 21
46.864546
 31
0.0
 11
-99.729053
 21
47.052209
 31
0.0
 11
-100.270947
 21
47.052209
 31
0.0
 11
-100.787692
 21
46.864546
 31
0.0
 11
-101.208486
 21
46.510744
 31
0.0
 11
-101.479301
 21
46.041373
 31
0.0
 11
-101.575000
 21
45.500000
 31
0.0
 11
-101.479301
 21
44.958627
 31
0.0
 11
-101.208486
 21
44.489256
 31
0.0
 11
-100.787692
 21
44.135454
 31
0.0
 11
-100.270947
 21
43.947791
 31
0.0
 11
-99.729053
 21
43.947791
 31
0.0
 11
-99.212307
 21
44.135454
 31
0.0
 11
-98.791514
 21
44.489256
 31
0.0
 11
-98.520699
 21
44.958627
 31
0.0
 11
-98.425000
 21
45.500000
 31
0.0
  0
LINE
  5
12d
100
AcDbEntity
  8
0
 62
7
100
AcDbLine
 10
-98.425000
 20
-45.500000
 30
0.0
 11
-98.425000
 21
-45.500000
 31
0.0
  0
SPLINE
  5
12e
100
AcDbEntity
  8
0
 62
7
100
AcDbSpline
 70
0
 71
3
 72
25
 73
21
 74
19
 40
0.000000
 40
0.000000
 40
0.000000
 40
0.000000
 40
0.549766
 40
1.091661
 40
1.641427
 40
2.191194
 40
2.733088
 40
3.282855
 40
3.832621
 40
4.374516
 40
4.924282
 40
5.474049
 40
6.015943
 40
6.565710
 40
7.115476
 40
7.657370
 40
8.207137
 40
8.756903
 40
9.298798
 40
9.848564
 40
9.848564
 40
9.848564
 40
9.848564
 10
-98.425000
 20
-45.500000
 30
0.0
 10
-98.443750
 20
-45.315801
 30
0.0
 10
-98.480983
 20
-44.950042
 30
0.0
 10
-98.770835
 20
-44.466618
 30
0.0
 10
-99.195354
 20
-44.107187
 30
0.0
 10
-99.721109
 20
-43.916550
 30
0.0
 10
-100.279011
 20
-43.916550
 30
0.0
 10
-100.804033
 20
-44.107187
 30
0.0
 10
-101.231481
 20
-44.466618
 30
0.0
 10
-101.510451
 20
-44.950042
 30
0.0
 10
-101.607507
 20
-45.500000
 30
0.0
 10
-101.510451
 20
-46.049958
 30
0.0
 10
-101.231481
 20
-46.533382
 30
0.0
 10
-100.804033
 20
-46.892813
 30
0.0
 10
-100.279011
 20
-47.083450
 30
0.0
 10
-99.721109
 20
-47.083450
 30
0.0
 10
-99.195354
 20
-46.892813
 30
0.0
 10
-98.770835
 20
-46.533382
 30
0.0
 10
-98.480983
 20
-46.049958
 30
0.0
 10
-98.443750
 20
-45.684199
 30
0.0
 10
-98.425000
 20
-45.500000
 30
0.0
 11
-98.425000
 21
-45.500000
 31
0.0
 11
-98.520699
 21
-44.958627
 31
0.0
 11
-98.791514
 21
-44.489256
 31
0.0
 11
-99.212307
 21
-44.135454
 31
0.0
 11
-99.729053
 21
-43.947791
 31
0.0
 11
-100.270947
 21
-43.947791
 31
0.0
 11
-100.787692
 21
-44.135454
 31
0.0
 11
-101.208486
 21
-44.489256
 31
0.0
 11
-101.479301
 21
-44.958627
 31
0.0
 11
-101.575000
 21
-45.500000
 31
0.0
 11
-101.479301
 21
-46.041373
 31
0.0
 11
-101.208486
 21
-46.510744
 31
0.0
 11
-100.787692
 21
-46.864546
 31
0.0
 11
-100.270947
 21
-47.052209
 31
0.0
 11
-99.729053
 21
-47.052209
 31
0.0
 11
-99.212307
 21
-46.864546
 31
0.0
 11
-98.791514
 21
-46.510744
 31
0.0
 11
-98.520699
 21
-46.041373
 31
0.0
 11
-98.425000
 21
-45.500000
 31
0.0
  0
LINE
  5
12f
100
AcDbEntity
  8
0
 62
7
100
AcDbLine
 10
101.575000
 20
45.500000
 30
0.0
 11
101.575000
 21
45.500000
 31
0.0
  0
SPLINE
  5
130
100
AcDbEntity
  8
0
 62
7
100
AcDbSpline
 70
0
 71
3
 72
25
 73
21
 74
19
 40
0.000000
 40
0.000000
 40
0.000000
 40
0.000000
 40
0.549766
 40
1.091661
 40
1.641427
 40
2.191194
 40
2.733088
 40
3.282855
 40
3.832621
 40
4.374516
 40
4.924282
 40
5.474049
 40
6.015943
 40
6.565710
 40
7.115476
 40
7.657370
 40
8.207137
 40
8.756903
 40
9.298798
 40
9.848564
 40
9.848564
 40
9.848564
 40
9.848564
 10
101.575000
 20
45.500000
 30
0.0
 10
101.556250
 20
45.684199
 30
0.0
 10
101.519017
 20
46.049958
 30
0.0
 10
101.229165
 20
46.533382
 30
0.0
 10
100.804646
 20
46.892813
 30
0.0
 10
100.278891
 20
47.083450
 30
0.0
 10
99.720989
 20
47.083450
 30
0.0
 10
99.195967
 20
46.892813
 30
0.0
 10
98.768519
 20
46.533382
 30
0.0
 10
98.489549
 20
46.049958
 30
0.0
 10
98.392493
 20
45.500000
 30
0.0
 10
98.489549
 20
44.950042
 30
0.0
 10
98.768519
 20
44.466618
 30
0.0
 10
99.195967
 20
44.107187
 30
0.0
 10
99.720989
 20
43.916550
 30
0.0
 10
100.278891
 20
43.916550
 30
0.0
 10
100.804646
 20
44.107187
 30
0.0
 10
101.229165
 20
44.466618
 30
0.0
 10
101.519017
 20
44.950042
 30
0.0
 10
101.556250
 20
45.315801
 30
0.0
 10
101.575000
 20
45.500000
 30
0.0
 11
101.575000
 21
45.500000
 31
0.0
 11
101.479301
 21
46.041373
 31
0.0
 11
101.208486
 21
46.510744
 31
0.0
 11
100.787692
 21
46.864546
 31
0.0
 11
100.270947
 21
47.052209
 31
0.0
 11
99.729053
 21
47.052209
 31
0.0
 11
99.212307
 21
46.864546
 31
0.0
 11
98.791514
 21
46.510744
 31
0.0
 11
98.520699
 21
46.041373
 31
0.0
 11
98.425000
 21
45.500000
 31
0.0
 11
98.520699
 21
44.958627
 31
0.0
 11
98.791514
 21
44.489256
 31
0.0
 11
99.212307
 21
44.135454
 31
0.0
 11
99.729053
 21
43.947791
 31
0.0
 11
100.270947
 21
43.947791
 31
0.0
 11
100.787692
 21
44.135454
 31
0.0
 11
101.208486
 21
44.489256
 31
0.0
 11
101.479301
 21
44.958627
 31
0.0
 11
101.575000
 21
45.500000
 31
0.0
  0
LINE
  5
131
100
AcDbEntity
  8
0
 62
7
100
AcDbLine
 10
24.669478
 20
-5.632549
 30
0.0
 11
14.807465
 21
-5.632549
 31
0.0
  0
LINE
  5
132
100
AcDbEntity
  8
0
 62
7
100
AcDbLine
 10
14.807465
 20
-5.632549
 30
0.0
 11
14.807465
 21
-23.814367
 31
0.0
  0
LINE
  5
133
100
AcDbEntity
  8
0
 62
7
100
AcDbLine
 10
14.807465
 20
-23.814367
 30
0.0
 11
4.803407
 21
-23.814367
 31
0.0
  0
LINE
  5
134
100
AcDbEntity
  8
0
 62
7
100
AcDbLine
 10
4.803407
 20
-23.814367
 30
0.0
 11
4.803407
 21
26.185633
 31
0.0
  0
LINE
  5
135
100
AcDbEntity
  8
0
 62
7
100
AcDbLine
 10
4.803407
 20
26.185633
 30
0.0
 11
24.669478
 21
26.185633
 31
0.0
  0
SPLINE
  5
136
100
AcDbEntity
  8
0
 62
7
100
AcDbSpline
 70
0
 71
3
 72
55
 73
51
 74
49
 40
0.000000
 40
0.000000
 40
0.000000
 40
0.000000
 40
0.582554
 40
1.164933
 40
1.747200
 40
2.306961
 40
2.866864
 40
3.426761
 40
3.966709
 40
4.506653
 40
5.046658
 40
5.572292
 40
6.097863
 40
6.623316
 40
7.145242
 40
7.667282
 40
8.189461
 40
8.708634
 40
9.227671
 40
9.746561
 40
10.272812
 40
10.799216
 40
11.325706
 40
11.866458
 40
12.407121
 40
12.947794
 40
13.496840
 40
14.045887
 40
14.594892
 40
15.149708
 40
15.704569
 40
16.259422
 40
16.820750
 40
17.382079
 40
17.943457
 40
18.525977
 40
19.108452
 40
19.690881
 40
20.297343
 40
20.903862
 40
21.510380
 40
22.139397
 40
22.768413
 40
23.397504
 40
24.060709
 40
24.723843
 40
25.386817
 40
26.083813
 40
26.780957
 40
27.478270
 40
27.478270
 40
27.478270
 40
27.478270
 10
43.125241
 20
10.246103
 30
0.0
 10
43.119603
 20
10.052000
 30
0.0
 10
43.108328
 20
9.663852
 30
0.0
 10
43.084654
 20
9.081908
 30
0.0
 10
43.047927
 20
8.508193
 30
0.0
 10
42.992330
 20
7.943497
 30
0.0
 10
42.918208
 20
7.388457
 30
0.0
 10
42.825372
 20
6.842926
 30
0.0
 10
42.714104
 20
6.307657
 30
0.0
 10
42.585464
 20
5.783122
 30
0.0
 10
42.439649
 20
5.268059
 30
0.0
 10
42.277478
 20
4.762942
 30
0.0
 10
42.098651
 20
4.268618
 30
0.0
 10
41.901301
 20
3.782706
 30
0.0
 10
41.684770
 20
3.306330
 30
0.0
 10
41.450686
 20
2.839571
 30
0.0
 10
41.200492
 20
2.382312
 30
0.0
 10
40.935703
 20
1.934510
 30
0.0
 10
40.655455
 20
1.497493
 30
0.0
 10
40.356908
 20
1.069854
 30
0.0
 10
40.038911
 20
0.653373
 30
0.0
 10
39.703152
 20
0.247820
 30
0.0
 10
39.349832
 20
-0.148996
 30
0.0
 10
38.980327
 20
-0.537369
 30
0.0
 10
38.594590
 20
-0.916408
 30
0.0
 10
38.194215
 20
-1.284052
 30
0.0
 10
37.779340
 20
-1.639575
 30
0.0
 10
37.349780
 20
-1.981700
 30
0.0
 10
36.906175
 20
-2.308681
 30
0.0
 10
36.448527
 20
-2.619170
 30
0.0
 10
35.977873
 20
-2.913236
 30
0.0
 10
35.495046
 20
-3.191214
 30
0.0
 10
35.000949
 20
-3.453244
 30
0.0
 10
34.496526
 20
-3.699769
 30
0.0
 10
33.978261
 20
-3.933403
 30
0.0
 10
33.446772
 20
-4.154251
 30
0.0
 10
32.902090
 20
-4.360919
 30
0.0
 10
32.343493
 20
-4.552574
 30
0.0
 10
31.771065
 20
-4.727590
 30
0.0
 10
31.185526
 20
-4.886037
 30
0.0
 10
30.588132
 20
-5.028332
 30
0.0
 10
29.979524
 20
-5.154760
 30
0.0
 10
29.360279
 20
-5.265759
 30
0.0
 10
28.727166
 20
-5.362744
 30
0.0
 10
28.080629
 20
-5.446016
 30
0.0
 10
27.420944
 20
-5.513980
 30
0.0
 10
26.748452
 20
-5.565402
 30
0.0
 10
26.063476
 20
-5.598524
 30
0.0
 10
25.366602
 20
-5.618866
 30
0.0
 10
24.901872
 20
-5.627988
 30
0.0
 10
24.669478
 20
-5.632549
 30
0.0
 11
43.125241
 21
10.246103
 31
0.0
 11
43.107199
 21
9.663829
 31
0.0
 11
43.082396
 21
9.081978
 31
0.0
 11
43.044072
 21
8.500974
 31
0.0
 11
42.989126
 21
7.943916
 31
0.0
 11
42.914903
 21
7.388955
 31
0.0
 11
42.820858
 21
6.837012
 31
0.0
 11
42.710983
 21
6.308362
 31
0.0
 11
42.582390
 21
5.783955
 31
0.0
 11
42.435306
 21
5.264366
 31
0.0
 11
42.274448
 21
4.763951
 31
0.0
 11
42.095473
 21
4.269792
 31
0.0
 11
41.897563
 21
3.783035
 31
0.0
 11
41.681786
 21
3.307801
 31
0.0
 11
41.447949
 21
2.841061
 31
0.0
 11
41.197481
 21
2.382873
 31
0.0
 11
40.933009
 21
1.936112
 31
0.0
 11
40.652603
 21
1.499337
 31
0.0
 11
40.355355
 21
1.074025
 31
0.0
 11
40.036239
 21
0.655570
 31
0.0
 11
39.700779
 21
0.249900
 31
0.0
 11
39.350890
 21
-0.143507
 31
0.0
 11
38.978144
 21
-0.535263
 31
0.0
 11
38.592492
 21
-0.914195
 31
0.0
 11
38.194235
 21
-1.279871
 31
0.0
 11
37.777244
 21
-1.637041
 31
0.0
 11
37.347686
 21
-1.978994
 31
0.0
 11
36.905680
 21
-2.304627
 31
0.0
 11
36.446641
 21
-2.616242
 31
0.0
 11
35.976156
 21
-2.910375
 31
0.0
 11
35.495371
 21
-3.187338
 31
0.0
 11
34.999548
 21
-3.450490
 31
0.0
 11
34.495307
 21
-3.697129
 31
0.0
 11
33.983601
 21
-3.928004
 31
0.0
 11
33.445639
 21
-4.151444
 31
0.0
 11
32.901015
 21
-4.357990
 31
0.0
 11
32.350079
 21
-4.546916
 31
0.0
 11
31.770179
 21
-4.724432
 31
0.0
 11
31.184769
 21
-4.883055
 31
0.0
 11
30.594803
 21
-5.023783
 31
0.0
 11
29.978979
 21
-5.151934
 31
0.0
 11
29.359869
 21
-5.263132
 31
0.0
 11
28.738066
 21
-5.358604
 31
0.0
 11
28.080281
 21
-5.443227
 31
0.0
 11
27.420628
 21
-5.511085
 31
0.0
 11
26.759576
 21
-5.561527
 31
0.0
 11
26.063448
 21
-5.596300
 31
0.0
 11
25.366634
 21
-5.617755
 31
0.0
 11
24.669478
 21
-5.632549
 31
0.0
  0
LINE
  5
137
100
AcDbEntity
  8
0
 62
7
100
AcDbLine
 10
24.669478
 20
18.393425
 30
0.0
 11
14.807465
 21
18.393425
 31
0.0
  0
LINE
  5
138
100
AcDbEntity
  8
0
 62
7
100
AcDbLine
 10
14.807465
 20
18.393425
 30
0.0
 11
14.807465
 21
2.159659
 31
0.0
  0
LINE
  5
139
100
AcDbEntity
  8
0
 62
7
100
AcDbLine
 10
14.807465
 20
2.159659
 30
0.0
 11
24.669478
 21
2.159659
 31
0.0
  0
SPLINE
  5
13a
100
AcDbEntity
  8
0
 62
7
100
AcDbSpline
 70
0
 71
3
 72
55
 73
51
 74
49
 40
0.000000
 40
0.000000
 40
0.000000
 40
0.000000
 40
0.697268
 40
1.394401
 40
2.091443
 40
2.754492
 40
3.417650
 40
4.080807
 40
4.710453
 40
5.340089
 40
5.969762
 40
6.576262
 40
7.182725
 40
7.789186
 40
8.371719
 40
8.954256
 40
9.536721
 40
10.101023
 40
10.665384
 40
11.229831
 40
11.786521
 40
12.343126
 40
12.899659
 40
13.448629
 40
13.997669
 40
14.546723
 40
15.087418
 40
15.628093
 40
16.168846
 40
16.697970
 40
17.227019
 40
17.755880
 40
18.277548
 40
18.799390
 40
19.321453
 40
19.840698
 40
20.359721
 40
20.878517
 40
21.407055
 40
21.935837
 40
22.464766
 40
23.004836
 40
23.544753
 40
24.084629
 40
24.644490
 40
25.204406
 40
25.764199
 40
26.346484
 40
26.928860
 40
27.511398
 40
27.511398
 40
27.511398
 40
27.511398
 10
24.669478
 20
26.185633
 30
0.0
 10
24.901854
 20
26.180959
 30
0.0
 10
25.366561
 20
26.171614
 30
0.0
 10
26.063428
 20
26.151159
 30
0.0
 10
26.748451
 20
26.118367
 30
0.0
 10
27.421061
 20
26.067907
 30
0.0
 10
28.080825
 20
26.000461
 30
0.0
 10
28.727437
 20
25.916233
 30
0.0
 10
29.360427
 20
25.815917
 30
0.0
 10
29.979542
 20
25.700807
 30
0.0
 10
30.587855
 20
25.571009
 30
0.0
 10
31.185126
 20
25.427448
 30
0.0
 10
31.770695
 20
25.269250
 30
0.0
 10
32.343486
 20
25.095407
 30
0.0
 10
32.902687
 20
24.905344
 30
0.0
 10
33.447677
 20
24.699335
 30
0.0
 10
33.979462
 20
24.476559
 30
0.0
 10
34.497297
 20
24.237165
 30
0.0
 10
35.001295
 20
23.982965
 30
0.0
 10
35.494533
 20
23.713752
 30
0.0
 10
35.977048
 20
23.430841
 30
0.0
 10
36.447787
 20
23.133623
 30
0.0
 10
36.905625
 20
22.821406
 30
0.0
 10
37.349396
 20
22.493725
 30
0.0
 10
37.779030
 20
22.151719
 30
0.0
 10
38.194209
 20
21.796543
 30
0.0
 10
38.594937
 20
21.429262
 30
0.0
 10
38.980815
 20
21.050342
 30
0.0
 10
39.350573
 20
20.660976
 30
0.0
 10
39.703897
 20
20.261794
 30
0.0
 10
40.039547
 20
19.852734
 30
0.0
 10
40.356994
 20
19.432467
 30
0.0
 10
40.654774
 20
19.000973
 30
0.0
 10
40.934681
 20
18.560401
 30
0.0
 10
41.199210
 20
18.111400
 30
0.0
 10
41.450116
 20
17.655719
 30
0.0
 10
41.684840
 20
17.192677
 30
0.0
 10
41.902460
 20
16.717896
 30
0.0
 10
42.099700
 20
16.230769
 30
0.0
 10
42.277970
 20
15.732839
 30
0.0
 10
42.439138
 20
15.225111
 30
0.0
 10
42.584779
 20
14.708860
 30
0.0
 10
42.713690
 20
14.184409
 30
0.0
 10
42.825437
 20
13.649283
 30
0.0
 10
42.918404
 20
13.103802
 30
0.0
 10
42.992450
 20
12.548747
 30
0.0
 10
43.047910
 20
11.984017
 30
0.0
 10
43.084591
 20
11.410284
 30
0.0
 10
43.108281
 20
10.828342
 30
0.0
 10
43.119587
 20
10.440201
 30
0.0
 10
43.125241
 20
10.246103
 30
0.0
 11
24.669478
 21
26.185633
 31
0.0
 11
25.366583
 21
26.170540
 31
0.0
 11
26.063383
 21
26.149011
 31
0.0
 11
26.759576
 21
26.114610
 31
0.0
 11
27.420761
 21
26.064938
 31
0.0
 11
28.080474
 21
25.997424
 31
0.0
 11
28.738066
 21
25.911688
 31
0.0
 11
29.359955
 21
25.813160
 31
0.0
 11
29.978988
 21
25.698093
 31
0.0
 11
30.594803
 21
25.566720
 31
0.0
 11
31.184441
 21
25.424704
 31
0.0
 11
31.769840
 21
25.266255
 31
0.0
 11
32.350079
 21
25.089854
 31
0.0
 11
32.901579
 21
24.902258
 31
0.0
 11
33.446433
 21
24.696140
 31
0.0
 11
33.983601
 21
24.470941
 31
0.0
 11
34.495882
 21
24.234286
 31
0.0
 11
34.999848
 21
23.980273
 31
0.0
 11
35.495371
 21
23.709983
 31
0.0
 11
35.975489
 21
23.428219
 31
0.0
 11
36.446012
 21
23.130869
 31
0.0
 11
36.905680
 21
22.817126
 31
0.0
 11
37.347356
 21
22.491105
 31
0.0
 11
37.776967
 21
22.149228
 31
0.0
 11
38.194235
 21
21.792370
 31
0.0
 11
38.592807
 21
21.427006
 31
0.0
 11
38.978553
 21
21.048153
 31
0.0
 11
39.350890
 21
20.656006
 31
0.0
 11
39.701405
 21
20.259633
 31
0.0
 11
40.036802
 21
19.850486
 31
0.0
 11
40.355355
 21
19.428328
 31
0.0
 11
40.651978
 21
18.999197
 31
0.0
 11
40.932147
 21
18.558943
 31
0.0
 11
41.197481
 21
18.109334
 31
0.0
 11
41.447540
 21
17.654268
 31
0.0
 11
41.681808
 21
17.191122
 31
0.0
 11
41.897563
 21
16.719318
 31
0.0
 11
42.096299
 21
16.229567
 31
0.0
 11
42.274910
 21
15.731863
 31
0.0
 11
42.435306
 21
15.227840
 31
0.0
 11
42.581838
 21
14.708030
 31
0.0
 11
42.710608
 21
14.183693
 31
0.0
 11
42.820858
 21
13.655194
 31
0.0
 11
42.915061
 21
13.103316
 31
0.0
 11
42.989235
 21
12.548334
 31
0.0
 11
43.044072
 21
11.991233
 31
0.0
 11
43.082344
 21
11.410208
 31
0.0
 11
43.107157
 21
10.828361
 31
0.0
 11
43.125241
 21
10.246103
 31
0.0
  0
SPLINE
  5
13b
100
AcDbEntity
  8
0
 62
7
100
AcDbSpline
 70
0
 71
3
 72
55
 73
51
 74
49
 40
0.000000
 40
0.000000
 40
0.000000
 40
0.000000
 40
0.338613
 40
0.677022
 40
1.015210
 40
1.331824
 40
1.648648
 40
1.965631
 40
2.265653
 40
2.565524
 40
2.865283
 40
3.155240
 40
3.445310
 40
3.735436
 40
4.006933
 40
4.278369
 40
4.549773
 40
4.816268
 40
5.082796
 40
5.349365
 40
5.611406
 40
5.873408
 40
6.135344
 40
6.393889
 40
6.652496
 40
6.911135
 40
7.170255
 40
7.429336
 40
7.688396
 40
7.940860
 40
8.193339
 40
8.445866
 40
8.698979
 40
8.952047
 40
9.205043
 40
9.462654
 40
9.720342
 40
9.978078
 40
10.233828
 40
10.489525
 40
10.745196
 40
11.011930
 40
11.278697
 40
11.545513
 40
11.821705
 40
12.097853
 40
12.373890
 40
12.658092
 40
12.942392
 40
13.226803
 40
13.226803
 40
13.226803
 40
13.226803
 10
24.669478
 20
2.159659
 30
0.0
 10
24.782344
 20
2.160763
 30
0.0
 10
25.008008
 20
2.162972
 30
0.0
 10
25.346339
 20
2.170837
 30
0.0
 10
25.677063
 20
2.187459
 30
0.0
 10
25.999717
 20
2.216386
 30
0.0
 10
26.314251
 20
2.254602
 30
0.0
 10
26.622237
 20
2.299899
 30
0.0
 10
26.923764
 20
2.349904
 30
0.0
 10
27.218328
 20
2.406357
 30
0.0
 10
27.507670
 20
2.471553
 30
0.0
 10
27.791108
 20
2.547097
 30
0.0
 10
28.068533
 20
2.631947
 30
0.0
 10
28.337037
 20
2.724327
 30
0.0
 10
28.596654
 20
2.822984
 30
0.0
 10
28.847165
 20
2.927649
 30
0.0
 10
29.092406
 20
3.040202
 30
0.0
 10
29.331965
 20
3.160797
 30
0.0
 10
29.565543
 20
3.289300
 30
0.0
 10
29.792871
 20
3.425699
 30
0.0
 10
30.013584
 20
3.569825
 30
0.0
 10
30.227049
 20
3.721854
 30
0.0
 10
30.432845
 20
3.882246
 30
0.0
 10
30.630234
 20
4.051136
 30
0.0
 10
30.819507
 20
4.227444
 30
0.0
 10
31.001882
 20
4.411135
 30
0.0
 10
31.177623
 20
4.601387
 30
0.0
 10
31.346711
 20
4.797759
 30
0.0
 10
31.507686
 20
4.997990
 30
0.0
 10
31.660807
 20
5.201536
 30
0.0
 10
31.806246
 20
5.407980
 30
0.0
 10
31.945409
 20
5.618961
 30
0.0
 10
32.078260
 20
5.834209
 30
0.0
 10
32.203869
 20
6.053954
 30
0.0
 10
32.321900
 20
6.279571
 30
0.0
 10
32.431169
 20
6.511266
 30
0.0
 10
32.532232
 20
6.748357
 30
0.0
 10
32.624993
 20
6.988141
 30
0.0
 10
32.710328
 20
7.229957
 30
0.0
 10
32.788174
 20
7.473566
 30
0.0
 10
32.859650
 20
7.722931
 30
0.0
 10
32.924262
 20
7.977975
 30
0.0
 10
32.981712
 20
8.238532
 30
0.0
 10
33.031762
 20
8.503817
 30
0.0
 10
33.074178
 20
8.773601
 30
0.0
 10
33.108209
 20
9.047671
 30
0.0
 10
33.133194
 20
9.325405
 30
0.0
 10
33.148356
 20
9.606557
 30
0.0
 10
33.156781
 20
9.890750
 30
0.0
 10
33.160105
 20
10.080291
 30
0.0
 10
33.161767
 20
10.175081
 30
0.0
 11
24.669478
 21
2.159659
 31
0.0
 11
25.008066
 21
2.163732
 31
0.0
 11
25.346366
 21
2.172360
 31
0.0
 11
25.684089
 21
2.190097
 31
0.0
 11
25.999467
 21
2.218031
 31
0.0
 11
26.314019
 21
2.255910
 31
0.0
 11
26.627676
 21
2.301704
 31
0.0
 11
26.923597
 21
2.351145
 31
0.0
 11
27.218040
 21
2.407945
 31
0.0
 11
27.510387
 21
2.474188
 31
0.0
 11
27.790587
 21
2.548776
 31
0.0
 11
28.067998
 21
2.633531
 31
0.0
 11
28.342368
 21
2.727841
 31
0.0
 11
28.596128
 21
2.824362
 31
0.0
 11
28.846549
 21
2.929083
 31
0.0
 11
29.093179
 21
3.042370
 31
0.0
 11
29.331199
 21
3.162231
 31
0.0
 11
29.564701
 21
3.290737
 31
0.0
 11
29.793261
 21
3.427922
 31
0.0
 11
30.012602
 21
3.571290
 31
0.0
 11
30.225942
 21
3.723381
 31
0.0
 11
30.432465
 21
3.884496
 31
0.0
 11
30.629005
 21
4.052477
 31
0.0
 11
30.818327
 21
4.228644
 31
0.0
 11
31.000647
 21
4.412094
 31
0.0
 11
31.176507
 21
4.602400
 31
0.0
 11
31.345595
 21
4.798696
 31
0.0
 11
31.507952
 21
5.000568
 31
0.0
 11
31.659742
 21
5.202305
 31
0.0
 11
31.805171
 21
5.408693
 31
0.0
 11
31.944235
 21
5.619480
 31
0.0
 11
32.077047
 21
5.834949
 31
0.0
 11
32.202502
 21
6.054732
 31
0.0
 11
32.319640
 21
6.278977
 31
0.0
 11
32.429679
 21
6.511904
 31
0.0
 11
32.530880
 21
6.748888
 31
0.0
 11
32.624024
 21
6.989204
 31
0.0
 11
32.709124
 21
7.230381
 31
0.0
 11
32.786947
 21
7.473947
 31
0.0
 11
32.857384
 21
7.719723
 31
0.0
 11
32.922914
 21
7.978283
 31
0.0
 11
32.980378
 21
8.238787
 31
0.0
 11
33.029868
 21
8.500974
 31
0.0
 11
33.072703
 21
8.773824
 31
0.0
 11
33.106666
 21
9.047875
 31
0.0
 11
33.131329
 21
9.322808
 31
0.0
 11
33.147207
 21
9.606567
 31
0.0
 11
33.156207
 21
9.890724
 31
0.0
 11
33.161767
 21
10.175081
 31
0.0
  0
LINE
  5
13c
100
AcDbEntity
  8
0
 62
7
100
AcDbLine
 10
-22.499759
 20
18.393425
 30
0.0
 11
-31.296431
 21
18.393425
 31
0.0
  0
LINE
  5
13d
100
AcDbEntity
  8
0
 62
7
100
AcDbLine
 10
-31.296431
 20
18.393425
 30
0.0
 11
-31.296431
 21
4.107710
 31
0.0
  0
LINE
  5
13e
100
AcDbEntity
  8
0
 62
7
100
AcDbLine
 10
-31.296431
 20
4.107710
 30
0.0
 11
-22.672243
 21
4.107710
 31
0.0
  0
SPLINE
  5
13f
100
AcDbEntity
  8
0
 62
7
100
AcDbSpline
 70
0
 71
3
 72
55
 73
51
 74
49
 40
0.000000
 40
0.000000
 40
0.000000
 40
0.000000
 40
0.291162
 40
0.582219
 40
0.873193
 40
1.152610
 40
1.432122
 40
1.711646
 40
1.981722
 40
2.251778
 40
2.521840
 40
2.787220
 40
3.052593
 40
3.317993
 40
3.574393
 40
3.830770
 40
4.087082
 40
4.345987
 40
4.604957
 40
4.863962
 40
5.122026
 40
5.380050
 40
5.638093
 40
5.897601
 40
6.157096
 40
6.416544
 40
6.679704
 40
6.942918
 40
7.206233
 40
7.469649
 40
7.732972
 40
7.996117
 40
8.264135
 40
8.532329
 40
8.800694
 40
9.078093
 40
9.355316
 40
9.632393
 40
9.919077
 40
10.205920
 40
10.492863
 40
10.796836
 40
11.100705
 40
11.404515
 40
11.724269
 40
12.044088
 40
12.363908
 40
12.705778
 40
13.047636
 40
13.389524
 40
13.389524
 40
13.389524
 40
13.389524
 10
33.161767
 20
10.175081
 30
0.0
 10
33.160128
 20
10.272121
 30
0.0
 10
33.156850
 20
10.466167
 30
0.0
 10
33.148448
 20
10.757123
 30
0.0
 10
33.133273
 20
11.043919
 30
0.0
 10
33.108333
 20
11.326179
 30
0.0
 10
33.074380
 20
11.603643
 30
0.0
 10
33.031824
 20
11.876768
 30
0.0
 10
32.981270
 20
12.145311
 30
0.0
 10
32.923536
 20
12.409170
 30
0.0
 10
32.858896
 20
12.669805
 30
0.0
 10
32.787953
 20
12.927175
 30
0.0
 10
32.710387
 20
13.181009
 30
0.0
 10
32.626301
 20
13.429605
 30
0.0
 10
32.535589
 20
13.672666
 30
0.0
 10
32.437854
 20
13.909725
 30
0.0
 10
32.330997
 20
14.143749
 30
0.0
 10
32.214252
 20
14.373972
 30
0.0
 10
32.088595
 20
14.600463
 30
0.0
 10
31.955622
 20
14.822397
 30
0.0
 10
31.816360
 20
15.040059
 30
0.0
 10
31.670897
 20
15.253242
 30
0.0
 10
31.518848
 20
15.462374
 30
0.0
 10
31.360246
 20
15.667206
 30
0.0
 10
31.194693
 20
15.867081
 30
0.0
 10
31.021330
 20
16.061867
 30
0.0
 10
30.839739
 20
16.250737
 30
0.0
 10
30.650155
 20
16.433442
 30
0.0
 10
30.453791
 20
16.608961
 30
0.0
 10
30.251044
 20
16.777135
 30
0.0
 10
30.041530
 20
16.936733
 30
0.0
 10
29.823587
 20
17.087375
 30
0.0
 10
29.596800
 20
17.227453
 30
0.0
 10
29.362692
 20
17.358433
 30
0.0
 10
29.121456
 20
17.482689
 30
0.0
 10
28.874328
 20
17.601869
 30
0.0
 10
28.620826
 20
17.714234
 30
0.0
 10
28.360383
 20
17.818147
 30
0.0
 10
28.092603
 20
17.911611
 30
0.0
 10
27.818251
 20
17.995483
 30
0.0
 10
27.535678
 20
18.071546
 30
0.0
 10
27.245475
 20
18.140606
 30
0.0
 10
26.947739
 20
18.201683
 30
0.0
 10
26.642989
 20
18.253960
 30
0.0
 10
26.331346
 20
18.296417
 30
0.0
 10
26.013232
 20
18.329626
 30
0.0
 10
25.686984
 20
18.354657
 30
0.0
 10
25.352898
 20
18.372109
 30
0.0
 10
25.011232
 20
18.384202
 30
0.0
 10
24.783400
 20
18.390351
 30
0.0
 10
24.669478
 20
18.393425
 30
0.0
 11
33.161767
 21
10.175081
 31
0.0
 11
33.156268
 21
10.466191
 31
0.0
 11
33.147284
 21
10.757110
 31
0.0
 11
33.131329
 21
11.047646
 31
0.0
 11
33.106779
 21
11.325982
 31
0.0
 11
33.072867
 21
11.603429
 31
0.0
 11
33.029868
 21
11.879626
 31
0.0
 11
32.979975
 21
12.145054
 31
0.0
 11
32.922323
 21
12.408884
 31
0.0
 11
32.857384
 21
12.671022
 31
0.0
 11
32.786779
 21
12.926838
 31
0.0
 11
32.709143
 21
13.180600
 31
0.0
 11
32.624024
 21
13.431980
 31
0.0
 11
32.534239
 21
13.672146
 31
0.0
 11
32.436383
 21
13.909112
 31
0.0
 11
32.329787
 21
14.142207
 31
0.0
 11
32.212845
 21
14.373197
 31
0.0
 11
32.087357
 21
14.599733
 31
0.0
 11
31.954381
 21
14.821996
 31
0.0
 11
31.815290
 21
15.039368
 31
0.0
 11
31.669850
 21
15.252497
 31
0.0
 11
31.518098
 21
15.461201
 31
0.0
 11
31.359133
 21
15.666322
 31
0.0
 11
31.193516
 21
15.866093
 31
0.0
 11
31.020939
 21
16.059821
 31
0.0
 11
30.838568
 21
16.249542
 31
0.0
 11
30.649060
 21
16.432212
 31
0.0
 11
30.452757
 21
16.607711
 31
0.0
 11
30.249884
 21
16.775731
 31
0.0
 11
30.040288
 21
16.935130
 31
0.0
 11
29.823699
 21
17.084578
 31
0.0
 11
29.595878
 21
17.225755
 31
0.0
 11
29.362018
 21
17.357047
 31
0.0
 11
29.123618
 21
17.480275
 31
0.0
 11
28.873648
 21
17.600548
 31
0.0
 11
28.620104
 21
17.712654
 31
0.0
 11
28.362660
 21
17.815097
 31
0.0
 11
28.092076
 21
17.909815
 31
0.0
 11
27.817841
 21
17.993922
 31
0.0
 11
27.540826
 21
18.068750
 31
0.0
 11
27.245097
 21
18.139066
 31
0.0
 11
26.947415
 21
18.200072
 31
0.0
 11
26.647969
 21
18.251379
 31
0.0
 11
26.331170
 21
18.294753
 31
0.0
 11
26.013101
 21
18.328169
 31
0.0
 11
25.694235
 21
18.352840
 31
0.0
 11
25.352855
 21
18.371152
 31
0.0
 11
25.011229
 21
18.383723
 31
0.0
 11
24.669478
 21
18.393425
 31
0.0
  0
SPLINE
  5
140
100
AcDbEntity
  8
0
 62
7
100
AcDbSpline
 70
0
 71
3
 72
55
 73
51
 74
49
 40
0.000000
 40
0.000000
 40
0.000000
 40
0.000000
 40
0.338444
 40
0.676818
 40
1.015117
 40
1.334140
 40
1.653239
 40
1.972423
 40
2.273424
 40
2.574344
 40
2.875165
 40
3.153243
 40
3.431405
 40
3.709646
 40
3.972899
 40
4.236075
 40
4.499194
 40
4.750618
 40
5.002097
 40
5.253602
 40
5.491574
 40
5.729517
 40
5.967469
 40
6.194901
 40
6.422324
 40
6.649690
 40
6.874601
 40
7.099566
 40
7.324600
 40
7.548241
 40
7.771813
 40
7.995316
 40
8.218733
 40
8.442221
 40
8.665746
 40
8.897386
 40
9.128988
 40
9.360577
 40
9.595972
 40
9.831380
 40
10.066764
 40
10.316245
 40
10.565751
 40
10.815342
 40
11.078144
 40
11.340864
 40
11.603432
 40
11.880834
 40
12.158385
 40
12.436088
 40
12.436088
 40
12.436088
 40
12.436088
 10
-22.672243
 20
4.107710
 30
0.0
 10
-22.559446
 20
4.109749
 30
0.0
 10
-22.333877
 20
4.113824
 30
0.0
 10
-21.995612
 20
4.122626
 30
0.0
 10
-21.663981
 20
4.136536
 30
0.0
 10
-21.339169
 20
4.157713
 30
0.0
 10
-21.021221
 20
4.185061
 30
0.0
 10
-20.709825
 20
4.217781
 30
0.0
 10
-20.405028
 20
4.254933
 30
0.0
 10
-20.107179
 20
4.297992
 30
0.0
 10
-19.818185
 20
4.348211
 30
0.0
 10
-19.538459
 20
4.406497
 30
0.0
 10
-19.267884
 20
4.471167
 30
0.0
 10
-19.003887
 20
4.541656
 30
0.0
 10
-18.746366
 20
4.616757
 30
0.0
 10
-18.495777
 20
4.697320
 30
0.0
 10
-18.251630
 20
4.784646
 30
0.0
 10
-18.014473
 20
4.879430
 30
0.0
 10
-17.784370
 20
4.980996
 30
0.0
 10
-17.562010
 20
5.088616
 30
0.0
 10
-17.347413
 20
5.201593
 30
0.0
 10
-17.140837
 20
5.319805
 30
0.0
 10
-16.941810
 20
5.443818
 30
0.0
 10
-16.750660
 20
5.573510
 30
0.0
 10
-16.567716
 20
5.708693
 30
0.0
 10
-16.391339
 20
5.851023
 30
0.0
 10
-16.222129
 20
6.000562
 30
0.0
 10
-16.059874
 20
6.156486
 30
0.0
 10
-15.904117
 20
6.318301
 30
0.0
 10
-15.754620
 20
6.485294
 30
0.0
 10
-15.612150
 20
6.657674
 30
0.0
 10
-15.477263
 20
6.835974
 30
0.0
 10
-15.350844
 20
7.020343
 30
0.0
 10
-15.232622
 20
7.210067
 30
0.0
 10
-15.120945
 20
7.406864
 30
0.0
 10
-15.015824
 20
7.610291
 30
0.0
 10
-14.917699
 20
7.820155
 30
0.0
 10
-14.827411
 20
8.034865
 30
0.0
 10
-14.745204
 20
8.254152
 30
0.0
 10
-14.670952
 20
8.477587
 30
0.0
 10
-14.603472
 20
8.708051
 30
0.0
 10
-14.543006
 20
8.945307
 30
0.0
 10
-14.489311
 20
9.189028
 30
0.0
 10
-14.441889
 20
9.438558
 30
0.0
 10
-14.400282
 20
9.693591
 30
0.0
 10
-14.365934
 20
9.954078
 30
0.0
 10
-14.340132
 20
10.220460
 30
0.0
 10
-14.324626
 20
10.492584
 30
0.0
 10
-14.316361
 20
10.770029
 30
0.0
 10
-14.313356
 20
10.955090
 30
0.0
 10
-14.311853
 20
11.047646
 30
0.0
 11
-22.672243
 21
4.107710
 31
0.0
 11
-22.333862
 21
4.114273
 31
0.0
 11
-21.995615
 21
4.123523
 31
0.0
 11
-21.657632
 21
4.138149
 31
0.0
 11
-21.339279
 21
4.158809
 31
0.0
 11
-21.021345
 21
4.186058
 31
0.0
 11
-20.703898
 21
4.219318
 31
0.0
 11
-20.405147
 21
4.256045
 31
0.0
 11
-20.107368
 21
4.299408
 31
0.0
 11
-19.811041
 21
4.351217
 31
0.0
 11
-19.538784
 21
4.407810
 31
0.0
 11
-19.268210
 21
4.472343
 31
0.0
 11
-18.999353
 21
4.543993
 31
0.0
 11
-18.746691
 21
4.617910
 31
0.0
 11
-18.496213
 21
4.698675
 31
0.0
 11
-18.248541
 21
4.787499
 31
0.0
 11
-18.015066
 21
4.880792
 31
0.0
 11
-17.784996
 21
4.982327
 31
0.0
 11
-17.558606
 21
5.091883
 31
0.0
 11
-17.348075
 21
5.202821
 31
0.0
 11
-17.141601
 21
5.321080
 31
0.0
 11
-16.939694
 21
5.446996
 31
0.0
 11
-16.751538
 21
5.574758
 31
0.0
 11
-16.568686
 21
5.709984
 31
0.0
 11
-16.391804
 21
5.852840
 31
0.0
 11
-16.223204
 21
6.001700
 31
0.0
 11
-16.060924
 21
6.157503
 31
0.0
 11
-15.904791
 21
6.319561
 31
0.0
 11
-15.755719
 21
6.486273
 31
0.0
 11
-15.613392
 21
6.658689
 31
0.0
 11
-15.478655
 21
6.837012
 31
0.0
 11
-15.352224
 21
7.021215
 31
0.0
 11
-15.233945
 21
7.210837
 31
0.0
 11
-15.123541
 21
7.405194
 31
0.0
 11
-15.017190
 21
7.610977
 31
0.0
 11
-14.919084
 21
7.820774
 31
0.0
 11
-14.829304
 21
8.034253
 31
0.0
 11
-14.746605
 21
8.254642
 31
0.0
 11
-14.672298
 21
8.478015
 31
0.0
 11
-14.606090
 21
8.703896
 31
0.0
 11
-14.544331
 21
8.945612
 31
0.0
 11
-14.490500
 21
9.189242
 31
0.0
 11
-14.443752
 21
9.434415
 31
0.0
 11
-14.401604
 21
9.693816
 31
0.0
 11
-14.367430
 21
9.954303
 31
0.0
 11
-14.342291
 21
10.215665
 31
0.0
 11
-14.325882
 21
10.492581
 31
0.0
 11
-14.316989
 21
10.769990
 31
0.0
 11
-14.311853
 21
11.047646
 31
0.0
  0
SPLINE
  5
141
100
AcDbEntity
  8
0
 62
7
100
AcDbSpline
 70
0
 71
3
 72
55
 73
51
 74
49
 40
0.000000
 40
0.000000
 40
0.000000
 40
0.000000
 40
0.274303
 40
0.548470
 40
0.822511
 40
1.085107
 40
1.347837
 40
1.610611
 40
1.860149
 40
2.109637
 40
2.359156
 40
2.601023
 40
2.842861
 40
3.084609
 40
3.322247
 40
3.559971
 40
3.797809
 40
4.032966
 40
4.268011
 40
4.502923
 40
4.736965
 40
4.971140
 40
5.205409
 40
5.442447
 40
5.679389
 40
5.916275
 40
6.156233
 40
6.396254
 40
6.636348
 40
6.880465
 40
7.124514
 40
7.368427
 40
7.617948
 40
7.867603
 40
8.117421
 40
8.378972
 40
8.640354
 40
8.901543
 40
9.177899
 40
9.454466
 40
9.731191
 40
10.020592
 40
10.309828
 40
10.598966
 40
10.908240
 40
11.217635
 40
11.527045
 40
11.851910
 40
12.176745
 40
12.501600
 40
12.501600
 40
12.501600
 40
12.501600
 10
-14.311853
 20
11.047646
 30
0.0
 10
-14.313418
 20
11.139067
 30
0.0
 10
-14.316548
 20
11.321864
 30
0.0
 10
-14.324876
 20
11.595922
 30
0.0
 10
-14.340259
 20
11.865808
 30
0.0
 10
-14.365793
 20
12.131102
 30
0.0
 10
-14.400057
 20
12.391605
 30
0.0
 10
-14.441816
 20
12.646594
 30
0.0
 10
-14.489776
 20
12.895988
 30
0.0
 10
-14.543770
 20
13.139627
 30
0.0
 10
-14.604244
 20
13.379103
 30
0.0
 10
-14.671159
 20
13.614213
 30
0.0
 10
-14.745131
 20
13.844492
 30
0.0
 10
-14.827259
 20
14.070508
 30
0.0
 10
-14.918196
 20
14.291640
 30
0.0
 10
-15.016764
 20
14.508031
 30
0.0
 10
-15.122108
 20
14.720267
 30
0.0
 10
-15.233186
 20
14.928551
 30
0.0
 10
-15.351021
 20
15.131982
 30
0.0
 10
-15.476956
 20
15.330090
 30
0.0
 10
-15.611958
 20
15.521780
 30
0.0
 10
-15.754641
 20
15.707522
 30
0.0
 10
-15.904487
 20
15.888811
 30
0.0
 10
-16.060353
 20
16.066177
 30
0.0
 10
-16.222570
 20
16.238963
 30
0.0
 10
-16.391497
 20
16.406592
 30
0.0
 10
-16.567453
 20
16.568354
 30
0.0
 10
-16.750240
 20
16.724009
 30
0.0
 10
-16.939843
 20
16.873530
 30
0.0
 10
-17.136031
 20
17.016602
 30
0.0
 10
-17.338941
 20
17.152289
 30
0.0
 10
-17.549116
 20
17.279963
 30
0.0
 10
-17.766697
 20
17.398507
 30
0.0
 10
-17.990506
 20
17.509264
 30
0.0
 10
-18.221274
 20
17.614672
 30
0.0
 10
-18.458044
 20
17.716184
 30
0.0
 10
-18.701367
 20
17.811766
 30
0.0
 10
-18.952797
 20
17.899779
 30
0.0
 10
-19.212846
 20
17.977649
 30
0.0
 10
-19.480526
 20
18.047291
 30
0.0
 10
-19.754126
 20
18.110981
 30
0.0
 10
-20.032814
 20
18.171270
 30
0.0
 10
-20.316832
 20
18.226234
 30
0.0
 10
-20.608823
 20
18.274368
 30
0.0
 10
-20.908990
 20
18.313171
 30
0.0
 10
-21.216952
 20
18.343013
 30
0.0
 10
-21.530805
 20
18.364581
 30
0.0
 10
-21.850225
 20
18.378615
 30
0.0
 10
-22.174966
 20
18.387391
 30
0.0
 10
-22.391492
 20
18.391413
 30
0.0
 10
-22.499759
 20
18.393425
 30
0.0
 11
-14.311853
 21
11.047646
 31
0.0
 11
-14.317155
 21
11.321897
 31
0.0
 11
-14.326090
 21
11.595918
 31
0.0
 11
-14.342291
 21
11.869480
 31
0.0
 11
-14.367303
 21
12.130883
 31
0.0
 11
-14.401421
 21
12.391388
 31
0.0
 11
-14.443752
 21
12.650730
 31
0.0
 11
-14.490924
 21
12.895768
 31
0.0
 11
-14.544952
 21
13.139336
 31
0.0
 11
-14.606090
 21
13.381250
 31
0.0
 11
-14.672457
 21
13.613832
 31
0.0
 11
-14.746580
 21
13.844031
 31
0.0
 11
-14.829304
 21
14.071184
 31
0.0
 11
-14.919539
 21
14.291025
 31
0.0
 11
-15.017939
 21
14.507427
 31
0.0
 11
-15.123541
 21
14.720535
 31
0.0
 11
-15.234407
 21
14.927918
 31
0.0
 11
-15.352427
 21
15.131185
 31
0.0
 11
-15.478655
 21
15.329302
 31
0.0
 11
-15.613232
 21
15.520782
 31
0.0
 11
-15.755709
 21
15.706627
 31
0.0
 11
-15.904791
 21
15.887337
 31
0.0
 11
-16.061337
 21
16.065328
 31
0.0
 11
-16.223586
 21
16.238003
 31
0.0
 11
-16.391804
 21
16.404789
 31
0.0
 11
-16.568445
 21
16.567202
 31
0.0
 11
-16.751176
 21
16.722828
 31
0.0
 11
-16.939694
 21
16.871509
 31
0.0
 11
-17.136999
 21
17.015259
 31
0.0
 11
-17.339933
 21
17.150822
 31
0.0
 11
-17.548460
 21
17.277353
 31
0.0
 11
-17.767407
 21
17.397032
 31
0.0
 11
-17.991009
 21
17.508071
 31
0.0
 11
-18.218103
 21
17.612175
 31
0.0
 11
-18.458608
 21
17.714968
 31
0.0
 11
-18.702002
 21
17.810256
 31
0.0
 11
-18.948622
 21
17.896266
 31
0.0
 11
-19.213223
 21
17.976012
 31
0.0
 11
-19.480756
 21
18.046122
 31
0.0
 11
-19.750165
 21
18.109334
 31
0.0
 11
-20.033082
 21
18.170247
 31
0.0
 11
-20.317104
 21
18.224922
 31
0.0
 11
-20.602437
 21
18.271672
 31
0.0
 11
-20.909132
 21
18.311529
 31
0.0
 11
-21.217065
 21
18.341574
 31
0.0
 11
-21.525733
 21
18.362987
 31
0.0
 11
-21.850264
 21
18.377701
 31
0.0
 11
-22.174968
 21
18.386934
 31
0.0
 11
-22.499759
 21
18.393425
 31
0.0
  0
ENDSEC
  0
SECTION
  2
OBJECTS
  0
DICTIONARY
  5
C
330
0
100
AcDbDictionary
  3
ACAD_GROUP
350
D
  3
ACAD_MLINESTYLE
350
17
  0
DICTIONARY
  5
D
330
C
100
AcDbDictionary
  0
DICTIONARY
  5
1A
330
C
100
AcDbDictionary
  0
DICTIONARY
  5
17
330
C
100
AcDbDictionary
  3
STANDARD
350
18
  0
DICTIONARY
  5
19
330
C
100
AcDbDictionary
  0
ENDSEC
  0
EOF
