  0
SECTION
  2
HEADER
  9
$ACADVER
  1
AC1014
  9
$HANDSEED
  5
FFFF
  9
$MEASUREMENT
 70
     1
  0
ENDSEC
  0
SECTION
  2
TABLES
  0
TABLE
  2
VPORT
  5
8
330
0
100
AcDbSymbolTable
 70
     4
  0
VPORT
  5
2E
330
8
100
AcDbSymbolTableRecord
100
AcDbViewportTableRecord
  2
*ACTIVE
 70
     0
 10
0.0
 20
0.0
 11
1.0
 21
1.0
 12
210.0
 22
148.5
 13
0.0
 23
0.0
 14
10.0
 24
10.0
 15
10.0
 25
10.0
 16
0.0
 26
0.0
 36
1.0
 17
0.0
 27
0.0
 37
0.0
 40
341.0
 41
1.24
 42
50.0
 43
0.0
 44
0.0
 50
0.0
 51
0.0
 71
     0
 72
   100
 73
     1
 74
     3
 75
     0
 76
     0
 77
     0
 78
     0
  0
ENDTAB
  0
TABLE
  2
LTYPE
  5
5
330
0
100
AcDbSymbolTable
 70
     1
  0
LTYPE
  5
14
330
5
100
AcDbSymbolTableRecord
100
AcDbLinetypeTableRecord
  2
BYBLOCK
 70
     0
  3

 72
    65
 73
     0
 40
0.0
  0
LTYPE
  5
15
330
5
100
AcDbSymbolTableRecord
100
AcDbLinetypeTableRecord
  2
BYLAYER
 70
     0
  3

 72
    65
 73
     0
 40
0.0
  0
LTYPE
  5
16
330
5
100
AcDbSymbolTableRecord
100
AcDbLinetypeTableRecord
  2
CONTINUOUS
 70
     0
  3
Solid line
 72
    65
 73
     0
 40
0.0
  0
ENDTAB
  0
TABLE
  2
LAYER
  5
2
100
AcDbSymbolTable
 70
1
  0
LAYER
  5
50
100
AcDbSymbolTableRecord
100
AcDbLayerTableRecord
  2
0
 70
0
  6
CONTINUOUS
  0
ENDTAB
  0
TABLE
  2
STYLE
  5
3
330
0
100
AcDbSymbolTable
 70
     1
  0
STYLE
  5
11
330
3
100
AcDbSymbolTableRecord
100
AcDbTextStyleTableRecord
  2
STANDARD
 70
     0
 40
0.0
 41
1.0
 50
0.0
 71
     0
 42
2.5
  3
txt
  4

  0
ENDTAB
  0
TABLE
  2
VIEW
  5
6
330
0
100
AcDbSymbolTable
 70
     0
  0
ENDTAB
  0
TABLE
  2
UCS
  5
7
330
0
100
AcDbSymbolTable
 70
     0
  0
ENDTAB
  0
TABLE
  2
APPID
  5
9
330
0
100
AcDbSymbolTable
 70
     2
  0
APPID
  5
12
330
9
100
AcDbSymbolTableRecord
100
AcDbRegAppTableRecord
  2
ACAD
 70
     0
  0
ENDTAB
  0
TABLE
  2
DIMSTYLE
  5
A
330
0
100
AcDbSymbolTable
 70
     1
  0
DIMSTYLE
105
27
330
A
100
AcDbSymbolTableRecord
100
AcDbDimStyleTableRecord
  2
ISO-25
 70
     0
  3

  4

  5

  6

  7

 40
1.0
 41
2.5
 42
0.625
 43
3.75
 44
1.25
 45
0.0
 46
0.0
 47
0.0
 48
0.0
140
2.5
141
2.5
142
0.0
143
0.03937007874016
144
1.0
145
0.0
146
1.0
147
0.625
 71
     0
 72
     0
 73
     0
 74
     0
 75
     0
 76
     0
 77
     1
 78
     8
170
     0
171
     3
172
     1
173
     0
174
     0
175
     0
176
     0
177
     0
178
     0
270
     2
271
     2
272
     2
273
     2
274
     3
340
11
275
     0
280
     0
281
     0
282
     0
283
     0
284
     8
285
     0
286
     0
287
     3
288
     0
  0
ENDTAB
  0
TABLE
  2
BLOCK_RECORD
  5
1
330
0
100
AcDbSymbolTable
 70
     1
  0
BLOCK_RECORD
  5
1F
330
1
100
AcDbSymbolTableRecord
100
AcDbBlockTableRecord
  2
*MODEL_SPACE
  0
BLOCK_RECORD
  5
1B
330
1
100
AcDbSymbolTableRecord
100
AcDbBlockTableRecord
  2
*PAPER_SPACE
  0
ENDTAB
  0
ENDSEC
  0
SECTION
  2
BLOCKS
  0
BLOCK
  5
20
330
1F
100
AcDbEntity
  8
0
100
AcDbBlockBegin
  2
*MODEL_SPACE
 70
     0
 10
0.0
 20
0.0
 30
0.0
  3
*MODEL_SPACE
  1

  0
ENDBLK
  5
21
330
1F
100
AcDbEntity
  8
0
100
AcDbBlockEnd
  0
BLOCK
  5
1C
330
1B
100
AcDbEntity
 67
     1
  8
0
100
AcDbBlockBegin
  2
*PAPER_SPACE
  1

  0
ENDBLK
  5
1D
330
1B
100
AcDbEntity
 67
     1
  8
0
100
AcDbBlockEnd
  0
ENDSEC
  0
SECTION
  2
ENTITIES
  0
LINE
  5
100
100
AcDbEntity
  8
0
 62
7
100
AcDbLine
 10
86.500000
 20
20.000000
 30
0.0
 11
86.500000
 21
20.000000
 31
0.0
  0
SPLINE
  5
101
100
AcDbEntity
  8
0
 62
7
100
AcDbSpline
 70
0
 71
3
 72
25
 73
21
 74
19
 40
0.000000
 40
0.000000
 40
0.000000
 40
0.000000
 40
0.523591
 40
1.039684
 40
1.563274
 40
2.086865
 40
2.602958
 40
3.126549
 40
3.650140
 40
4.166233
 40
4.689823
 40
5.213414
 40
5.729507
 40
6.253098
 40
6.776689
 40
7.292782
 40
7.816372
 40
8.339963
 40
8.856056
 40
9.379647
 40
9.379647
 40
9.379647
 40
9.379647
 10
86.500000
 20
20.000000
 30
0.0
 10
86.482144
 20
20.175429
 30
0.0
 10
86.446688
 20
20.523774
 30
0.0
 10
86.170640
 20
20.984183
 30
0.0
 10
85.766334
 20
21.326502
 30
0.0
 10
85.265612
 20
21.508064
 30
0.0
 10
84.734273
 20
21.508064
 30
0.0
 10
84.234250
 20
21.326502
 30
0.0
 10
83.827155
 20
20.984183
 30
0.0
 10
83.561470
 20
20.523774
 30
0.0
 10
83.469043
 20
20.000000
 30
0.0
 10
83.561470
 20
19.476226
 30
0.0
 10
83.827155
 20
19.015817
 30
0.0
 10
84.234250
 20
18.673498
 30
0.0
 10
84.734273
 20
18.491936
 30
0.0
 10
85.265612
 20
18.491936
 30
0.0
 10
85.766334
 20
18.673498
 30
0.0
 10
86.170640
 20
19.015817
 30
0.0
 10
86.446688
 20
19.476226
 30
0.0
 10
86.482144
 20
19.824571
 30
0.0
 10
86.500000
 20
20.000000
 30
0.0
 11
86.500000
 21
20.000000
 31
0.0
 11
86.408863
 21
20.515598
 31
0.0
 11
86.150945
 21
20.962622
 31
0.0
 11
85.750188
 21
21.299580
 31
0.0
 11
85.258047
 21
21.478310
 31
0.0
 11
84.741953
 21
21.478310
 31
0.0
 11
84.249812
 21
21.299580
 31
0.0
 11
83.849055
 21
20.962622
 31
0.0
 11
83.591138
 21
20.515598
 31
0.0
 11
83.500000
 21
20.000000
 31
0.0
 11
83.591138
 21
19.484402
 31
0.0
 11
83.849055
 21
19.037378
 31
0.0
 11
84.249812
 21
18.700420
 31
0.0
 11
84.741953
 21
18.521690
 31
0.0
 11
85.258047
 21
18.521690
 31
0.0
 11
85.750188
 21
18.700420
 31
0.0
 11
86.150945
 21
19.037378
 31
0.0
 11
86.408863
 21
19.484402
 31
0.0
 11
86.500000
 21
20.000000
 31
0.0
  0
LINE
  5
102
100
AcDbEntity
  8
0
 62
7
100
AcDbLine
 10
90.500000
 20
-15.000000
 30
0.0
 11
90.500000
 21
-15.000000
 31
0.0
  0
SPLINE
  5
103
100
AcDbEntity
  8
0
 62
7
100
AcDbSpline
 70
0
 71
3
 72
25
 73
21
 74
19
 40
0.000000
 40
0.000000
 40
0.000000
 40
0.000000
 40
0.523591
 40
1.039684
 40
1.563274
 40
2.086865
 40
2.602958
 40
3.126549
 40
3.650140
 40
4.166233
 40
4.689823
 40
5.213414
 40
5.729507
 40
6.253098
 40
6.776689
 40
7.292782
 40
7.816372
 40
8.339963
 40
8.856056
 40
9.379647
 40
9.379647
 40
9.379647
 40
9.379647
 10
90.500000
 20
-15.000000
 30
0.0
 10
90.482144
 20
-14.824571
 30
0.0
 10
90.446688
 20
-14.476226
 30
0.0
 10
90.170640
 20
-14.015817
 30
0.0
 10
89.766334
 20
-13.673498
 30
0.0
 10
89.265612
 20
-13.491936
 30
0.0
 10
88.734273
 20
-13.491936
 30
0.0
 10
88.234250
 20
-13.673498
 30
0.0
 10
87.827155
 20
-14.015817
 30
0.0
 10
87.561470
 20
-14.476226
 30
0.0
 10
87.469043
 20
-15.000000
 30
0.0
 10
87.561470
 20
-15.523774
 30
0.0
 10
87.827155
 20
-15.984183
 30
0.0
 10
88.234250
 20
-16.326502
 30
0.0
 10
88.734273
 20
-16.508064
 30
0.0
 10
89.265612
 20
-16.508064
 30
0.0
 10
89.766334
 20
-16.326502
 30
0.0
 10
90.170640
 20
-15.984183
 30
0.0
 10
90.446688
 20
-15.523774
 30
0.0
 10
90.482144
 20
-15.175429
 30
0.0
 10
90.500000
 20
-15.000000
 30
0.0
 11
90.500000
 21
-15.000000
 31
0.0
 11
90.408862
 21
-14.484402
 31
0.0
 11
90.150945
 21
-14.037378
 31
0.0
 11
89.750188
 21
-13.700420
 31
0.0
 11
89.258047
 21
-13.521690
 31
0.0
 11
88.741953
 21
-13.521690
 31
0.0
 11
88.249812
 21
-13.700420
 31
0.0
 11
87.849055
 21
-14.037378
 31
0.0
 11
87.591137
 21
-14.484402
 31
0.0
 11
87.500000
 21
-15.000000
 31
0.0
 11
87.591137
 21
-15.515598
 31
0.0
 11
87.849055
 21
-15.962622
 31
0.0
 11
88.249812
 21
-16.299580
 31
0.0
 11
88.741953
 21
-16.478310
 31
0.0
 11
89.258047
 21
-16.478310
 31
0.0
 11
89.750188
 21
-16.299580
 31
0.0
 11
90.150945
 21
-15.962622
 31
0.0
 11
90.408862
 21
-15.515598
 31
0.0
 11
90.500000
 21
-15.000000
 31
0.0
  0
LINE
  5
104
100
AcDbEntity
  8
0
 62
7
100
AcDbLine
 10
-87.500000
 20
-15.000000
 30
0.0
 11
-87.500000
 21
-15.000000
 31
0.0
  0
SPLINE
  5
105
100
AcDbEntity
  8
0
 62
7
100
AcDbSpline
 70
0
 71
3
 72
25
 73
21
 74
19
 40
0.000000
 40
0.000000
 40
0.000000
 40
0.000000
 40
0.523591
 40
1.039684
 40
1.563274
 40
2.086865
 40
2.602958
 40
3.126549
 40
3.650140
 40
4.166233
 40
4.689823
 40
5.213414
 40
5.729507
 40
6.253098
 40
6.776689
 40
7.292782
 40
7.816372
 40
8.339963
 40
8.856056
 40
9.379647
 40
9.379647
 40
9.379647
 40
9.379647
 10
-87.500000
 20
-15.000000
 30
0.0
 10
-87.517856
 20
-14.824571
 30
0.0
 10
-87.553312
 20
-14.476226
 30
0.0
 10
-87.829360
 20
-14.015817
 30
0.0
 10
-88.233666
 20
-13.673498
 30
0.0
 10
-88.734388
 20
-13.491936
 30
0.0
 10
-89.265727
 20
-13.491936
 30
0.0
 10
-89.765750
 20
-13.673498
 30
0.0
 10
-90.172845
 20
-14.015817
 30
0.0
 10
-90.438530
 20
-14.476226
 30
0.0
 10
-90.530957
 20
-15.000000
 30
0.0
 10
-90.438530
 20
-15.523774
 30
0.0
 10
-90.172845
 20
-15.984183
 30
0.0
 10
-89.765750
 20
-16.326502
 30
0.0
 10
-89.265727
 20
-16.508064
 30
0.0
 10
-88.734388
 20
-16.508064
 30
0.0
 10
-88.233666
 20
-16.326502
 30
0.0
 10
-87.829360
 20
-15.984183
 30
0.0
 10
-87.553312
 20
-15.523774
 30
0.0
 10
-87.517856
 20
-15.175429
 30
0.0
 10
-87.500000
 20
-15.000000
 30
0.0
 11
-87.500000
 21
-15.000000
 31
0.0
 11
-87.591137
 21
-14.484402
 31
0.0
 11
-87.849055
 21
-14.037378
 31
0.0
 11
-88.249812
 21
-13.700420
 31
0.0
 11
-88.741953
 21
-13.521690
 31
0.0
 11
-89.258047
 21
-13.521690
 31
0.0
 11
-89.750188
 21
-13.700420
 31
0.0
 11
-90.150945
 21
-14.037378
 31
0.0
 11
-90.408862
 21
-14.484402
 31
0.0
 11
-90.500000
 21
-15.000000
 31
0.0
 11
-90.408862
 21
-15.515598
 31
0.0
 11
-90.150945
 21
-15.962622
 31
0.0
 11
-89.750188
 21
-16.299580
 31
0.0
 11
-89.258047
 21
-16.478310
 31
0.0
 11
-88.741953
 21
-16.478310
 31
0.0
 11
-88.249812
 21
-16.299580
 31
0.0
 11
-87.849055
 21
-15.962622
 31
0.0
 11
-87.591137
 21
-15.515598
 31
0.0
 11
-87.500000
 21
-15.000000
 31
0.0
  0
LINE
  5
106
100
AcDbEntity
  8
0
 62
7
100
AcDbLine
 10
-83.500000
 20
20.000000
 30
0.0
 11
-83.500000
 21
20.000000
 31
0.0
  0
LINE
  5
107
100
AcDbEntity
  8
0
 62
7
100
AcDbLine
 10
93.000000
 20
-20.000000
 30
0.0
 11
-93.000000
 21
-20.000000
 31
0.0
  0
LINE
  5
108
100
AcDbEntity
  8
0
 62
7
100
AcDbLine
 10
93.000000
 20
-20.000000
 30
0.0
 11
93.000000
 21
10.000000
 31
0.0
  0
SPLINE
  5
109
100
AcDbEntity
  8
0
 62
7
100
AcDbSpline
 70
0
 71
3
 72
25
 73
21
 74
19
 40
0.000000
 40
0.000000
 40
0.000000
 40
0.000000
 40
0.523591
 40
1.039684
 40
1.563274
 40
2.086865
 40
2.602958
 40
3.126549
 40
3.650140
 40
4.166233
 40
4.689823
 40
5.213414
 40
5.729507
 40
6.253098
 40
6.776689
 40
7.292782
 40
7.816372
 40
8.339963
 40
8.856056
 40
9.379647
 40
9.379647
 40
9.379647
 40
9.379647
 10
-83.500000
 20
20.000000
 30
0.0
 10
-83.517856
 20
20.175429
 30
0.0
 10
-83.553312
 20
20.523774
 30
0.0
 10
-83.829360
 20
20.984183
 30
0.0
 10
-84.233666
 20
21.326502
 30
0.0
 10
-84.734388
 20
21.508064
 30
0.0
 10
-85.265727
 20
21.508064
 30
0.0
 10
-85.765750
 20
21.326502
 30
0.0
 10
-86.172845
 20
20.984183
 30
0.0
 10
-86.438530
 20
20.523774
 30
0.0
 10
-86.530957
 20
20.000000
 30
0.0
 10
-86.438530
 20
19.476226
 30
0.0
 10
-86.172845
 20
19.015817
 30
0.0
 10
-85.765750
 20
18.673498
 30
0.0
 10
-85.265727
 20
18.491936
 30
0.0
 10
-84.734388
 20
18.491936
 30
0.0
 10
-84.233666
 20
18.673498
 30
0.0
 10
-83.829360
 20
19.015817
 30
0.0
 10
-83.553312
 20
19.476226
 30
0.0
 10
-83.517856
 20
19.824571
 30
0.0
 10
-83.500000
 20
20.000000
 30
0.0
 11
-83.500000
 21
20.000000
 31
0.0
 11
-83.591138
 21
20.515598
 31
0.0
 11
-83.849055
 21
20.962622
 31
0.0
 11
-84.249812
 21
21.299580
 31
0.0
 11
-84.741953
 21
21.478310
 31
0.0
 11
-85.258047
 21
21.478310
 31
0.0
 11
-85.750188
 21
21.299580
 31
0.0
 11
-86.150945
 21
20.962622
 31
0.0
 11
-86.408863
 21
20.515598
 31
0.0
 11
-86.500000
 21
20.000000
 31
0.0
 11
-86.408863
 21
19.484402
 31
0.0
 11
-86.150945
 21
19.037378
 31
0.0
 11
-85.750188
 21
18.700420
 31
0.0
 11
-85.258047
 21
18.521690
 31
0.0
 11
-84.741953
 21
18.521690
 31
0.0
 11
-84.249812
 21
18.700420
 31
0.0
 11
-83.849055
 21
19.037378
 31
0.0
 11
-83.591138
 21
19.484402
 31
0.0
 11
-83.500000
 21
20.000000
 31
0.0
  0
LINE
  5
10a
100
AcDbEntity
  8
0
 62
7
100
AcDbLine
 10
75.000000
 20
28.000000
 30
0.0
 11
-75.000000
 21
28.000000
 31
0.0
  0
SPLINE
  5
10b
100
AcDbEntity
  8
0
 62
7
100
AcDbSpline
 70
0
 71
3
 72
13
 73
9
 74
7
 40
0.000000
 40
0.000000
 40
0.000000
 40
0.000000
 40
4.711948
 40
9.384903
 40
14.096851
 40
18.808798
 40
23.481753
 40
28.193701
 40
28.193701
 40
28.193701
 40
28.193701
 10
93.000000
 20
10.000000
 30
0.0
 10
92.880008
 20
11.575238
 30
0.0
 10
92.641016
 20
14.712679
 30
0.0
 10
90.752362
 20
19.101820
 30
0.0
 10
87.878962
 20
22.878963
 30
0.0
 10
84.101820
 20
25.752362
 30
0.0
 10
79.712679
 20
27.641016
 30
0.0
 10
76.575238
 20
27.880008
 30
0.0
 10
75.000000
 20
28.000000
 30
0.0
 11
93.000000
 21
10.000000
 31
0.0
 11
92.383310
 21
14.671418
 31
0.0
 11
90.595048
 21
18.988665
 31
0.0
 11
87.727922
 21
22.727922
 31
0.0
 11
83.988665
 21
25.595048
 31
0.0
 11
79.671418
 21
27.383311
 31
0.0
 11
75.000000
 21
28.000000
 31
0.0
  0
LINE
  5
10c
100
AcDbEntity
  8
0
 62
7
100
AcDbLine
 10
-93.000000
 20
10.000000
 30
0.0
 11
-93.000000
 21
-20.000000
 31
0.0
  0
SPLINE
  5
10d
100
AcDbEntity
  8
0
 62
7
100
AcDbSpline
 70
0
 71
3
 72
13
 73
9
 74
7
 40
0.000000
 40
0.000000
 40
0.000000
 40
0.000000
 40
4.711948
 40
9.384903
 40
14.096851
 40
18.808798
 40
23.481753
 40
28.193701
 40
28.193701
 40
28.193701
 40
28.193701
 10
-75.000000
 20
28.000000
 30
0.0
 10
-76.575238
 20
27.880008
 30
0.0
 10
-79.712679
 20
27.641016
 30
0.0
 10
-84.101820
 20
25.752362
 30
0.0
 10
-87.878962
 20
22.878963
 30
0.0
 10
-90.752362
 20
19.101820
 30
0.0
 10
-92.641016
 20
14.712679
 30
0.0
 10
-92.880008
 20
11.575238
 30
0.0
 10
-93.000000
 20
10.000000
 30
0.0
 11
-75.000000
 21
28.000000
 31
0.0
 11
-79.671418
 21
27.383311
 31
0.0
 11
-83.988665
 21
25.595048
 31
0.0
 11
-87.727922
 21
22.727922
 31
0.0
 11
-90.595048
 21
18.988665
 31
0.0
 11
-92.383310
 21
14.671418
 31
0.0
 11
-93.000000
 21
10.000000
 31
0.0
  0
ENDSEC
  0
SECTION
  2
OBJECTS
  0
DICTIONARY
  5
C
330
0
100
AcDbDictionary
  3
ACAD_GROUP
350
D
  3
ACAD_MLINESTYLE
350
17
  0
DICTIONARY
  5
D
330
C
100
AcDbDictionary
  0
DICTIONARY
  5
1A
330
C
100
AcDbDictionary
  0
DICTIONARY
  5
17
330
C
100
AcDbDictionary
  3
STANDARD
350
18
  0
DICTIONARY
  5
19
330
C
100
AcDbDictionary
  0
ENDSEC
  0
EOF
