  0
SECTION
  2
HEADER
  9
$ACADVER
  1
AC1014
  9
$HANDSEED
  5
FFFF
  9
$MEASUREMENT
 70
     1
  0
ENDSEC
  0
SECTION
  2
TABLES
  0
TABLE
  2
VPORT
  5
8
330
0
100
AcDbSymbolTable
 70
     4
  0
VPORT
  5
2E
330
8
100
AcDbSymbolTableRecord
100
AcDbViewportTableRecord
  2
*ACTIVE
 70
     0
 10
0.0
 20
0.0
 11
1.0
 21
1.0
 12
210.0
 22
148.5
 13
0.0
 23
0.0
 14
10.0
 24
10.0
 15
10.0
 25
10.0
 16
0.0
 26
0.0
 36
1.0
 17
0.0
 27
0.0
 37
0.0
 40
341.0
 41
1.24
 42
50.0
 43
0.0
 44
0.0
 50
0.0
 51
0.0
 71
     0
 72
   100
 73
     1
 74
     3
 75
     0
 76
     0
 77
     0
 78
     0
  0
ENDTAB
  0
TABLE
  2
LTYPE
  5
5
330
0
100
AcDbSymbolTable
 70
     1
  0
LTYPE
  5
14
330
5
100
AcDbSymbolTableRecord
100
AcDbLinetypeTableRecord
  2
BYBLOCK
 70
     0
  3

 72
    65
 73
     0
 40
0.0
  0
LTYPE
  5
15
330
5
100
AcDbSymbolTableRecord
100
AcDbLinetypeTableRecord
  2
BYLAYER
 70
     0
  3

 72
    65
 73
     0
 40
0.0
  0
LTYPE
  5
16
330
5
100
AcDbSymbolTableRecord
100
AcDbLinetypeTableRecord
  2
CONTINUOUS
 70
     0
  3
Solid line
 72
    65
 73
     0
 40
0.0
  0
ENDTAB
  0
TABLE
  2
LAYER
  5
2
100
AcDbSymbolTable
 70
1
  0
LAYER
  5
50
100
AcDbSymbolTableRecord
100
AcDbLayerTableRecord
  2
0
 70
0
  6
CONTINUOUS
  0
ENDTAB
  0
TABLE
  2
STYLE
  5
3
330
0
100
AcDbSymbolTable
 70
     1
  0
STYLE
  5
11
330
3
100
AcDbSymbolTableRecord
100
AcDbTextStyleTableRecord
  2
STANDARD
 70
     0
 40
0.0
 41
1.0
 50
0.0
 71
     0
 42
2.5
  3
txt
  4

  0
ENDTAB
  0
TABLE
  2
VIEW
  5
6
330
0
100
AcDbSymbolTable
 70
     0
  0
ENDTAB
  0
TABLE
  2
UCS
  5
7
330
0
100
AcDbSymbolTable
 70
     0
  0
ENDTAB
  0
TABLE
  2
APPID
  5
9
330
0
100
AcDbSymbolTable
 70
     2
  0
APPID
  5
12
330
9
100
AcDbSymbolTableRecord
100
AcDbRegAppTableRecord
  2
ACAD
 70
     0
  0
ENDTAB
  0
TABLE
  2
DIMSTYLE
  5
A
330
0
100
AcDbSymbolTable
 70
     1
  0
DIMSTYLE
105
27
330
A
100
AcDbSymbolTableRecord
100
AcDbDimStyleTableRecord
  2
ISO-25
 70
     0
  3

  4

  5

  6

  7

 40
1.0
 41
2.5
 42
0.625
 43
3.75
 44
1.25
 45
0.0
 46
0.0
 47
0.0
 48
0.0
140
2.5
141
2.5
142
0.0
143
0.03937007874016
144
1.0
145
0.0
146
1.0
147
0.625
 71
     0
 72
     0
 73
     0
 74
     0
 75
     0
 76
     0
 77
     1
 78
     8
170
     0
171
     3
172
     1
173
     0
174
     0
175
     0
176
     0
177
     0
178
     0
270
     2
271
     2
272
     2
273
     2
274
     3
340
11
275
     0
280
     0
281
     0
282
     0
283
     0
284
     8
285
     0
286
     0
287
     3
288
     0
  0
ENDTAB
  0
TABLE
  2
BLOCK_RECORD
  5
1
330
0
100
AcDbSymbolTable
 70
     1
  0
BLOCK_RECORD
  5
1F
330
1
100
AcDbSymbolTableRecord
100
AcDbBlockTableRecord
  2
*MODEL_SPACE
  0
BLOCK_RECORD
  5
1B
330
1
100
AcDbSymbolTableRecord
100
AcDbBlockTableRecord
  2
*PAPER_SPACE
  0
ENDTAB
  0
ENDSEC
  0
SECTION
  2
BLOCKS
  0
BLOCK
  5
20
330
1F
100
AcDbEntity
  8
0
100
AcDbBlockBegin
  2
*MODEL_SPACE
 70
     0
 10
0.0
 20
0.0
 30
0.0
  3
*MODEL_SPACE
  1

  0
ENDBLK
  5
21
330
1F
100
AcDbEntity
  8
0
100
AcDbBlockEnd
  0
BLOCK
  5
1C
330
1B
100
AcDbEntity
 67
     1
  8
0
100
AcDbBlockBegin
  2
*PAPER_SPACE
  1

  0
ENDBLK
  5
1D
330
1B
100
AcDbEntity
 67
     1
  8
0
100
AcDbBlockEnd
  0
ENDSEC
  0
SECTION
  2
ENTITIES
  0
LINE
  5
100
100
AcDbEntity
  8
0
 62
7
100
AcDbLine
 10
30.000000
 20
-42.870000
 30
0.0
 11
30.000000
 21
-2.170000
 31
0.0
  0
LINE
  5
101
100
AcDbEntity
  8
0
 62
7
100
AcDbLine
 10
35.000000
 20
-47.870000
 30
0.0
 11
111.000000
 21
-47.870000
 31
0.0
  0
LINE
  5
102
100
AcDbEntity
  8
0
 62
7
100
AcDbLine
 10
111.000000
 20
-26.870000
 30
0.0
 11
111.000000
 21
-47.870000
 31
0.0
  0
LINE
  5
103
100
AcDbEntity
  8
0
 62
7
100
AcDbLine
 10
114.000000
 20
-26.870000
 30
0.0
 11
111.000000
 21
-26.870000
 31
0.0
  0
LINE
  5
104
100
AcDbEntity
  8
0
 62
7
100
AcDbLine
 10
114.000000
 20
-6.870000
 30
0.0
 11
114.000000
 21
-26.870000
 31
0.0
  0
LINE
  5
105
100
AcDbEntity
  8
0
 62
7
100
AcDbLine
 10
111.000000
 20
-6.870000
 30
0.0
 11
114.000000
 21
-6.870000
 31
0.0
  0
LINE
  5
106
100
AcDbEntity
  8
0
 62
7
100
AcDbLine
 10
111.000000
 20
13.130000
 30
0.0
 11
111.000000
 21
-6.870000
 31
0.0
  0
LINE
  5
107
100
AcDbEntity
  8
0
 62
7
100
AcDbLine
 10
114.000000
 20
13.130000
 30
0.0
 11
111.000000
 21
13.130000
 31
0.0
  0
LINE
  5
108
100
AcDbEntity
  8
0
 62
7
100
AcDbLine
 10
114.000000
 20
33.130000
 30
0.0
 11
114.000000
 21
13.130000
 31
0.0
  0
LINE
  5
109
100
AcDbEntity
  8
0
 62
7
100
AcDbLine
 10
111.000000
 20
33.130000
 30
0.0
 11
114.000000
 21
33.130000
 31
0.0
  0
LINE
  5
10a
100
AcDbEntity
  8
0
 62
7
100
AcDbLine
 10
111.000000
 20
53.130000
 30
0.0
 11
111.000000
 21
33.130000
 31
0.0
  0
LINE
  5
10b
100
AcDbEntity
  8
0
 62
7
100
AcDbLine
 10
114.000000
 20
53.130000
 30
0.0
 11
111.000000
 21
53.130000
 31
0.0
  0
LINE
  5
10c
100
AcDbEntity
  8
0
 62
7
100
AcDbLine
 10
114.000000
 20
73.130000
 30
0.0
 11
114.000000
 21
53.130000
 31
0.0
  0
LINE
  5
10d
100
AcDbEntity
  8
0
 62
7
100
AcDbLine
 10
114.000000
 20
73.130000
 30
0.0
 11
90.000000
 21
73.130000
 31
0.0
  0
LINE
  5
10e
100
AcDbEntity
  8
0
 62
7
100
AcDbLine
 10
90.000000
 20
70.130000
 30
0.0
 11
90.000000
 21
73.130000
 31
0.0
  0
LINE
  5
10f
100
AcDbEntity
  8
0
 62
7
100
AcDbLine
 10
70.000000
 20
70.130000
 30
0.0
 11
90.000000
 21
70.130000
 31
0.0
  0
LINE
  5
110
100
AcDbEntity
  8
0
 62
7
100
AcDbLine
 10
70.000000
 20
73.130000
 30
0.0
 11
70.000000
 21
70.130000
 31
0.0
  0
LINE
  5
111
100
AcDbEntity
  8
0
 62
7
100
AcDbLine
 10
70.000000
 20
73.130000
 30
0.0
 11
50.000000
 21
73.130000
 31
0.0
  0
LINE
  5
112
100
AcDbEntity
  8
0
 62
7
100
AcDbLine
 10
50.000000
 20
70.130000
 30
0.0
 11
50.000000
 21
73.130000
 31
0.0
  0
LINE
  5
113
100
AcDbEntity
  8
0
 62
7
100
AcDbLine
 10
30.000000
 20
70.130000
 30
0.0
 11
50.000000
 21
70.130000
 31
0.0
  0
LINE
  5
114
100
AcDbEntity
  8
0
 62
7
100
AcDbLine
 10
30.000000
 20
73.130000
 30
0.0
 11
30.000000
 21
70.130000
 31
0.0
  0
LINE
  5
115
100
AcDbEntity
  8
0
 62
7
100
AcDbLine
 10
30.000000
 20
73.130000
 30
0.0
 11
10.000000
 21
73.130000
 31
0.0
  0
LINE
  5
116
100
AcDbEntity
  8
0
 62
7
100
AcDbLine
 10
10.000000
 20
70.130000
 30
0.0
 11
10.000000
 21
73.130000
 31
0.0
  0
LINE
  5
117
100
AcDbEntity
  8
0
 62
7
100
AcDbLine
 10
-10.000000
 20
70.130000
 30
0.0
 11
10.000000
 21
70.130000
 31
0.0
  0
LINE
  5
118
100
AcDbEntity
  8
0
 62
7
100
AcDbLine
 10
-10.000000
 20
73.130000
 30
0.0
 11
-10.000000
 21
70.130000
 31
0.0
  0
LINE
  5
119
100
AcDbEntity
  8
0
 62
7
100
AcDbLine
 10
-10.000000
 20
73.130000
 30
0.0
 11
-30.000000
 21
73.130000
 31
0.0
  0
LINE
  5
11a
100
AcDbEntity
  8
0
 62
7
100
AcDbLine
 10
-30.000000
 20
70.130000
 30
0.0
 11
-30.000000
 21
73.130000
 31
0.0
  0
LINE
  5
11b
100
AcDbEntity
  8
0
 62
7
100
AcDbLine
 10
-50.000000
 20
70.130000
 30
0.0
 11
-30.000000
 21
70.130000
 31
0.0
  0
LINE
  5
11c
100
AcDbEntity
  8
0
 62
7
100
AcDbLine
 10
-50.000000
 20
73.130000
 30
0.0
 11
-50.000000
 21
70.130000
 31
0.0
  0
LINE
  5
11d
100
AcDbEntity
  8
0
 62
7
100
AcDbLine
 10
-50.000000
 20
73.130000
 30
0.0
 11
-70.000000
 21
73.130000
 31
0.0
  0
LINE
  5
11e
100
AcDbEntity
  8
0
 62
7
100
AcDbLine
 10
-70.000000
 20
70.130000
 30
0.0
 11
-70.000000
 21
73.130000
 31
0.0
  0
LINE
  5
11f
100
AcDbEntity
  8
0
 62
7
100
AcDbLine
 10
-90.000000
 20
70.130000
 30
0.0
 11
-70.000000
 21
70.130000
 31
0.0
  0
LINE
  5
120
100
AcDbEntity
  8
0
 62
7
100
AcDbLine
 10
-90.000000
 20
73.130000
 30
0.0
 11
-90.000000
 21
70.130000
 31
0.0
  0
LINE
  5
121
100
AcDbEntity
  8
0
 62
7
100
AcDbLine
 10
-90.000000
 20
73.130000
 30
0.0
 11
-114.000000
 21
73.130000
 31
0.0
  0
LINE
  5
122
100
AcDbEntity
  8
0
 62
7
100
AcDbLine
 10
-114.000000
 20
53.130000
 30
0.0
 11
-114.000000
 21
73.130000
 31
0.0
  0
LINE
  5
123
100
AcDbEntity
  8
0
 62
7
100
AcDbLine
 10
-111.000000
 20
53.130000
 30
0.0
 11
-114.000000
 21
53.130000
 31
0.0
  0
LINE
  5
124
100
AcDbEntity
  8
0
 62
7
100
AcDbLine
 10
-111.000000
 20
33.130000
 30
0.0
 11
-111.000000
 21
53.130000
 31
0.0
  0
LINE
  5
125
100
AcDbEntity
  8
0
 62
7
100
AcDbLine
 10
-114.000000
 20
33.130000
 30
0.0
 11
-111.000000
 21
33.130000
 31
0.0
  0
LINE
  5
126
100
AcDbEntity
  8
0
 62
7
100
AcDbLine
 10
-114.000000
 20
13.130000
 30
0.0
 11
-114.000000
 21
33.130000
 31
0.0
  0
LINE
  5
127
100
AcDbEntity
  8
0
 62
7
100
AcDbLine
 10
-111.000000
 20
13.130000
 30
0.0
 11
-114.000000
 21
13.130000
 31
0.0
  0
LINE
  5
128
100
AcDbEntity
  8
0
 62
7
100
AcDbLine
 10
-111.000000
 20
-6.870000
 30
0.0
 11
-111.000000
 21
13.130000
 31
0.0
  0
LINE
  5
129
100
AcDbEntity
  8
0
 62
7
100
AcDbLine
 10
-114.000000
 20
-6.870000
 30
0.0
 11
-111.000000
 21
-6.870000
 31
0.0
  0
LINE
  5
12a
100
AcDbEntity
  8
0
 62
7
100
AcDbLine
 10
-114.000000
 20
-26.870000
 30
0.0
 11
-114.000000
 21
-6.870000
 31
0.0
  0
LINE
  5
12b
100
AcDbEntity
  8
0
 62
7
100
AcDbLine
 10
-111.000000
 20
-26.870000
 30
0.0
 11
-114.000000
 21
-26.870000
 31
0.0
  0
LINE
  5
12c
100
AcDbEntity
  8
0
 62
7
100
AcDbLine
 10
-111.000000
 20
-47.870000
 30
0.0
 11
-111.000000
 21
-26.870000
 31
0.0
  0
LINE
  5
12d
100
AcDbEntity
  8
0
 62
7
100
AcDbLine
 10
-111.000000
 20
-47.870000
 30
0.0
 11
-35.000000
 21
-47.870000
 31
0.0
  0
SPLINE
  5
12e
100
AcDbEntity
  8
0
 62
7
100
AcDbSpline
 70
0
 71
3
 72
13
 73
9
 74
7
 40
0.000000
 40
0.000000
 40
0.000000
 40
0.000000
 40
1.308874
 40
2.606917
 40
3.915792
 40
5.224666
 40
6.522709
 40
7.831583
 40
7.831583
 40
7.831583
 40
7.831583
 10
30.000000
 20
-42.870000
 30
0.0
 10
30.033331
 20
-43.307566
 30
0.0
 10
30.099718
 20
-44.179078
 30
0.0
 10
30.624344
 20
-45.398283
 30
0.0
 10
31.422510
 20
-46.447490
 30
0.0
 10
32.471717
 20
-47.245656
 30
0.0
 10
33.690922
 20
-47.770282
 30
0.0
 10
34.562434
 20
-47.836669
 30
0.0
 10
35.000000
 20
-47.870000
 30
0.0
 11
30.000000
 21
-42.870000
 31
0.0
 11
30.171303
 21
-44.167616
 31
0.0
 11
30.668042
 21
-45.366852
 31
0.0
 11
31.464466
 21
-46.405534
 31
0.0
 11
32.503149
 21
-47.201958
 31
0.0
 11
33.702384
 21
-47.698697
 31
0.0
 11
35.000000
 21
-47.870000
 31
0.0
  0
LINE
  5
12f
100
AcDbEntity
  8
0
 62
7
100
AcDbLine
 10
-30.000000
 20
-2.170000
 30
0.0
 11
-30.000000
 21
-42.870000
 31
0.0
  0
SPLINE
  5
130
100
AcDbEntity
  8
0
 62
7
100
AcDbSpline
 70
0
 71
3
 72
13
 73
9
 74
7
 40
0.000000
 40
0.000000
 40
0.000000
 40
0.000000
 40
1.308874
 40
2.606917
 40
3.915792
 40
5.224666
 40
6.522709
 40
7.831583
 40
7.831583
 40
7.831583
 40
7.831583
 10
-35.000000
 20
-47.870000
 30
0.0
 10
-34.562434
 20
-47.836669
 30
0.0
 10
-33.690922
 20
-47.770282
 30
0.0
 10
-32.471717
 20
-47.245656
 30
0.0
 10
-31.422510
 20
-46.447490
 30
0.0
 10
-30.624344
 20
-45.398283
 30
0.0
 10
-30.099718
 20
-44.179078
 30
0.0
 10
-30.033331
 20
-43.307566
 30
0.0
 10
-30.000000
 20
-42.870000
 30
0.0
 11
-35.000000
 21
-47.870000
 31
0.0
 11
-33.702384
 21
-47.698697
 31
0.0
 11
-32.503149
 21
-47.201958
 31
0.0
 11
-31.464466
 21
-46.405534
 31
0.0
 11
-30.668042
 21
-45.366852
 31
0.0
 11
-30.171303
 21
-44.167616
 31
0.0
 11
-30.000000
 21
-42.870000
 31
0.0
  0
LINE
  5
131
100
AcDbEntity
  8
0
 62
7
100
AcDbLine
 10
-22.000000
 20
5.830000
 30
0.0
 11
22.000000
 21
5.830000
 31
0.0
  0
SPLINE
  5
132
100
AcDbEntity
  8
0
 62
7
100
AcDbSpline
 70
0
 71
3
 72
13
 73
9
 74
7
 40
0.000000
 40
0.000000
 40
0.000000
 40
0.000000
 40
2.094199
 40
4.171068
 40
6.265267
 40
8.359466
 40
10.436335
 40
12.530534
 40
12.530534
 40
12.530534
 40
12.530534
 10
-22.000000
 20
5.830000
 30
0.0
 10
-22.700106
 20
5.776670
 30
0.0
 10
-24.094524
 20
5.670452
 30
0.0
 10
-26.045253
 20
4.831050
 30
0.0
 10
-27.723983
 20
3.553983
 30
0.0
 10
-29.001050
 20
1.875253
 30
0.0
 10
-29.840452
 20
-0.075476
 30
0.0
 10
-29.946670
 20
-1.469894
 30
0.0
 10
-30.000000
 20
-2.170000
 30
0.0
 11
-22.000000
 21
5.830000
 31
0.0
 11
-24.076186
 21
5.555916
 31
0.0
 11
-25.994962
 21
4.761133
 31
0.0
 11
-27.656854
 21
3.486854
 31
0.0
 11
-28.931133
 21
1.824962
 31
0.0
 11
-29.725916
 21
-0.093814
 31
0.0
 11
-30.000000
 21
-2.170000
 31
0.0
  0
SPLINE
  5
133
100
AcDbEntity
  8
0
 62
7
100
AcDbSpline
 70
0
 71
3
 72
13
 73
9
 74
7
 40
0.000000
 40
0.000000
 40
0.000000
 40
0.000000
 40
2.094199
 40
4.171068
 40
6.265267
 40
8.359466
 40
10.436335
 40
12.530534
 40
12.530534
 40
12.530534
 40
12.530534
 10
30.000000
 20
-2.170000
 30
0.0
 10
29.946670
 20
-1.469894
 30
0.0
 10
29.840452
 20
-0.075476
 30
0.0
 10
29.001050
 20
1.875253
 30
0.0
 10
27.723983
 20
3.553983
 30
0.0
 10
26.045253
 20
4.831050
 30
0.0
 10
24.094524
 20
5.670452
 30
0.0
 10
22.700106
 20
5.776670
 30
0.0
 10
22.000000
 20
5.830000
 30
0.0
 11
30.000000
 21
-2.170000
 31
0.0
 11
29.725916
 21
-0.093814
 31
0.0
 11
28.931133
 21
1.824962
 31
0.0
 11
27.656854
 21
3.486854
 31
0.0
 11
25.994962
 21
4.761133
 31
0.0
 11
24.076186
 21
5.555916
 31
0.0
 11
22.000000
 21
5.830000
 31
0.0
  0
LINE
  5
134
100
AcDbEntity
  8
0
 62
7
100
AcDbLine
 10
-40.350000
 20
-35.870000
 30
0.0
 11
-40.350000
 21
-35.870000
 31
0.0
  0
SPLINE
  5
135
100
AcDbEntity
  8
0
 62
7
100
AcDbSpline
 70
0
 71
3
 72
25
 73
21
 74
19
 40
0.000000
 40
0.000000
 40
0.000000
 40
0.000000
 40
0.750273
 40
1.489808
 40
2.240081
 40
2.990354
 40
3.729889
 40
4.480162
 40
5.230435
 40
5.969970
 40
6.720243
 40
7.470516
 40
8.210051
 40
8.960324
 40
9.710596
 40
10.450132
 40
11.200404
 40
11.950677
 40
12.690213
 40
13.440485
 40
13.440485
 40
13.440485
 40
13.440485
 10
-40.350000
 20
-35.870000
 30
0.0
 10
-40.375688
 20
-35.618634
 30
0.0
 10
-40.426697
 20
-35.119498
 30
0.0
 10
-40.822440
 20
-34.459883
 30
0.0
 10
-41.401875
 20
-33.969476
 30
0.0
 10
-42.119397
 20
-33.709381
 30
0.0
 10
-42.880768
 20
-33.709381
 30
0.0
 10
-43.597284
 20
-33.969476
 30
0.0
 10
-44.180732
 20
-34.459883
 30
0.0
 10
-44.561567
 20
-35.119498
 30
0.0
 10
-44.694535
 20
-35.870000
 30
0.0
 10
-44.561567
 20
-36.620502
 30
0.0
 10
-44.180732
 20
-37.280117
 30
0.0
 10
-43.597284
 20
-37.770524
 30
0.0
 10
-42.880768
 20
-38.030619
 30
0.0
 10
-42.119397
 20
-38.030619
 30
0.0
 10
-41.401875
 20
-37.770524
 30
0.0
 10
-40.822440
 20
-37.280117
 30
0.0
 10
-40.426697
 20
-36.620502
 30
0.0
 10
-40.375688
 20
-36.121366
 30
0.0
 10
-40.350000
 20
-35.870000
 30
0.0
 11
-40.350000
 21
-35.870000
 31
0.0
 11
-40.480879
 21
-35.131231
 31
0.0
 11
-40.850646
 21
-34.490774
 31
0.0
 11
-41.425000
 21
-34.008045
 31
0.0
 11
-42.130232
 21
-33.752005
 31
0.0
 11
-42.869768
 21
-33.752005
 31
0.0
 11
-43.575000
 21
-34.008045
 31
0.0
 11
-44.149354
 21
-34.490774
 31
0.0
 11
-44.519121
 21
-35.131231
 31
0.0
 11
-44.650000
 21
-35.870000
 31
0.0
 11
-44.519121
 21
-36.608769
 31
0.0
 11
-44.149354
 21
-37.249226
 31
0.0
 11
-43.575000
 21
-37.731955
 31
0.0
 11
-42.869768
 21
-37.987995
 31
0.0
 11
-42.130232
 21
-37.987995
 31
0.0
 11
-41.425000
 21
-37.731955
 31
0.0
 11
-40.850646
 21
-37.249226
 31
0.0
 11
-40.480879
 21
-36.608769
 31
0.0
 11
-40.350000
 21
-35.870000
 31
0.0
  0
LINE
  5
136
100
AcDbEntity
  8
0
 62
7
100
AcDbLine
 10
-72.100000
 20
-35.870000
 30
0.0
 11
-72.100000
 21
-35.870000
 31
0.0
  0
SPLINE
  5
137
100
AcDbEntity
  8
0
 62
7
100
AcDbSpline
 70
0
 71
3
 72
25
 73
21
 74
19
 40
0.000000
 40
0.000000
 40
0.000000
 40
0.000000
 40
0.750273
 40
1.489808
 40
2.240081
 40
2.990354
 40
3.729889
 40
4.480162
 40
5.230435
 40
5.969970
 40
6.720243
 40
7.470516
 40
8.210051
 40
8.960324
 40
9.710596
 40
10.450132
 40
11.200404
 40
11.950677
 40
12.690213
 40
13.440485
 40
13.440485
 40
13.440485
 40
13.440485
 10
-72.100000
 20
-35.870000
 30
0.0
 10
-72.125688
 20
-35.618634
 30
0.0
 10
-72.176697
 20
-35.119498
 30
0.0
 10
-72.572440
 20
-34.459883
 30
0.0
 10
-73.151875
 20
-33.969476
 30
0.0
 10
-73.869397
 20
-33.709381
 30
0.0
 10
-74.630768
 20
-33.709381
 30
0.0
 10
-75.347284
 20
-33.969476
 30
0.0
 10
-75.930732
 20
-34.459883
 30
0.0
 10
-76.311567
 20
-35.119498
 30
0.0
 10
-76.444535
 20
-35.870000
 30
0.0
 10
-76.311567
 20
-36.620502
 30
0.0
 10
-75.930732
 20
-37.280117
 30
0.0
 10
-75.347284
 20
-37.770524
 30
0.0
 10
-74.630768
 20
-38.030619
 30
0.0
 10
-73.869397
 20
-38.030619
 30
0.0
 10
-73.151875
 20
-37.770524
 30
0.0
 10
-72.572440
 20
-37.280117
 30
0.0
 10
-72.176697
 20
-36.620502
 30
0.0
 10
-72.125688
 20
-36.121366
 30
0.0
 10
-72.100000
 20
-35.870000
 30
0.0
 11
-72.100000
 21
-35.870000
 31
0.0
 11
-72.230879
 21
-35.131231
 31
0.0
 11
-72.600646
 21
-34.490774
 31
0.0
 11
-73.175000
 21
-34.008045
 31
0.0
 11
-73.880232
 21
-33.752005
 31
0.0
 11
-74.619768
 21
-33.752005
 31
0.0
 11
-75.325000
 21
-34.008045
 31
0.0
 11
-75.899354
 21
-34.490774
 31
0.0
 11
-76.269121
 21
-35.131231
 31
0.0
 11
-76.400000
 21
-35.870000
 31
0.0
 11
-76.269121
 21
-36.608769
 31
0.0
 11
-75.899354
 21
-37.249226
 31
0.0
 11
-75.325000
 21
-37.731955
 31
0.0
 11
-74.619768
 21
-37.987995
 31
0.0
 11
-73.880232
 21
-37.987995
 31
0.0
 11
-73.175000
 21
-37.731955
 31
0.0
 11
-72.600646
 21
-37.249226
 31
0.0
 11
-72.230879
 21
-36.608769
 31
0.0
 11
-72.100000
 21
-35.870000
 31
0.0
  0
LINE
  5
138
100
AcDbEntity
  8
0
 62
7
100
AcDbLine
 10
44.650000
 20
-35.870000
 30
0.0
 11
44.650000
 21
-35.870000
 31
0.0
  0
SPLINE
  5
139
100
AcDbEntity
  8
0
 62
7
100
AcDbSpline
 70
0
 71
3
 72
25
 73
21
 74
19
 40
0.000000
 40
0.000000
 40
0.000000
 40
0.000000
 40
0.750273
 40
1.489808
 40
2.240081
 40
2.990354
 40
3.729889
 40
4.480162
 40
5.230435
 40
5.969970
 40
6.720243
 40
7.470516
 40
8.210051
 40
8.960324
 40
9.710597
 40
10.450132
 40
11.200405
 40
11.950677
 40
12.690213
 40
13.440486
 40
13.440486
 40
13.440486
 40
13.440486
 10
44.650000
 20
-35.870000
 30
0.0
 10
44.624312
 20
-35.618634
 30
0.0
 10
44.573303
 20
-35.119498
 30
0.0
 10
44.177560
 20
-34.459883
 30
0.0
 10
43.598125
 20
-33.969476
 30
0.0
 10
42.880603
 20
-33.709381
 30
0.0
 10
42.119232
 20
-33.709381
 30
0.0
 10
41.402716
 20
-33.969476
 30
0.0
 10
40.819268
 20
-34.459883
 30
0.0
 10
40.438433
 20
-35.119498
 30
0.0
 10
40.305465
 20
-35.870000
 30
0.0
 10
40.438433
 20
-36.620502
 30
0.0
 10
40.819268
 20
-37.280117
 30
0.0
 10
41.402716
 20
-37.770524
 30
0.0
 10
42.119232
 20
-38.030619
 30
0.0
 10
42.880603
 20
-38.030619
 30
0.0
 10
43.598125
 20
-37.770524
 30
0.0
 10
44.177560
 20
-37.280117
 30
0.0
 10
44.573303
 20
-36.620502
 30
0.0
 10
44.624312
 20
-36.121366
 30
0.0
 10
44.650000
 20
-35.870000
 30
0.0
 11
44.650000
 21
-35.870000
 31
0.0
 11
44.519121
 21
-35.131231
 31
0.0
 11
44.149354
 21
-34.490774
 31
0.0
 11
43.575000
 21
-34.008045
 31
0.0
 11
42.869768
 21
-33.752005
 31
0.0
 11
42.130232
 21
-33.752005
 31
0.0
 11
41.425000
 21
-34.008045
 31
0.0
 11
40.850646
 21
-34.490774
 31
0.0
 11
40.480879
 21
-35.131231
 31
0.0
 11
40.350000
 21
-35.870000
 31
0.0
 11
40.480879
 21
-36.608769
 31
0.0
 11
40.850646
 21
-37.249226
 31
0.0
 11
41.425000
 21
-37.731955
 31
0.0
 11
42.130232
 21
-37.987995
 31
0.0
 11
42.869768
 21
-37.987995
 31
0.0
 11
43.575000
 21
-37.731955
 31
0.0
 11
44.149354
 21
-37.249226
 31
0.0
 11
44.519121
 21
-36.608769
 31
0.0
 11
44.650000
 21
-35.870000
 31
0.0
  0
LINE
  5
13a
100
AcDbEntity
  8
0
 62
7
100
AcDbLine
 10
76.400000
 20
-35.870000
 30
0.0
 11
76.400000
 21
-35.870000
 31
0.0
  0
SPLINE
  5
13b
100
AcDbEntity
  8
0
 62
7
100
AcDbSpline
 70
0
 71
3
 72
25
 73
21
 74
19
 40
0.000000
 40
0.000000
 40
0.000000
 40
0.000000
 40
0.750273
 40
1.489808
 40
2.240081
 40
2.990354
 40
3.729889
 40
4.480162
 40
5.230435
 40
5.969970
 40
6.720243
 40
7.470516
 40
8.210051
 40
8.960324
 40
9.710596
 40
10.450132
 40
11.200404
 40
11.950677
 40
12.690213
 40
13.440485
 40
13.440485
 40
13.440485
 40
13.440485
 10
76.400000
 20
-35.870000
 30
0.0
 10
76.374312
 20
-35.618634
 30
0.0
 10
76.323303
 20
-35.119498
 30
0.0
 10
75.927560
 20
-34.459883
 30
0.0
 10
75.348125
 20
-33.969476
 30
0.0
 10
74.630603
 20
-33.709381
 30
0.0
 10
73.869232
 20
-33.709381
 30
0.0
 10
73.152716
 20
-33.969476
 30
0.0
 10
72.569268
 20
-34.459883
 30
0.0
 10
72.188433
 20
-35.119498
 30
0.0
 10
72.055465
 20
-35.870000
 30
0.0
 10
72.188433
 20
-36.620502
 30
0.0
 10
72.569268
 20
-37.280117
 30
0.0
 10
73.152716
 20
-37.770524
 30
0.0
 10
73.869232
 20
-38.030619
 30
0.0
 10
74.630603
 20
-38.030619
 30
0.0
 10
75.348125
 20
-37.770524
 30
0.0
 10
75.927560
 20
-37.280117
 30
0.0
 10
76.323303
 20
-36.620502
 30
0.0
 10
76.374312
 20
-36.121366
 30
0.0
 10
76.400000
 20
-35.870000
 30
0.0
 11
76.400000
 21
-35.870000
 31
0.0
 11
76.269121
 21
-35.131231
 31
0.0
 11
75.899354
 21
-34.490774
 31
0.0
 11
75.325000
 21
-34.008045
 31
0.0
 11
74.619768
 21
-33.752005
 31
0.0
 11
73.880232
 21
-33.752005
 31
0.0
 11
73.175000
 21
-34.008045
 31
0.0
 11
72.600646
 21
-34.490774
 31
0.0
 11
72.230879
 21
-35.131231
 31
0.0
 11
72.100000
 21
-35.870000
 31
0.0
 11
72.230879
 21
-36.608769
 31
0.0
 11
72.600646
 21
-37.249226
 31
0.0
 11
73.175000
 21
-37.731955
 31
0.0
 11
73.880232
 21
-37.987995
 31
0.0
 11
74.619768
 21
-37.987995
 31
0.0
 11
75.325000
 21
-37.731955
 31
0.0
 11
75.899354
 21
-37.249226
 31
0.0
 11
76.269121
 21
-36.608769
 31
0.0
 11
76.400000
 21
-35.870000
 31
0.0
  0
ENDSEC
  0
SECTION
  2
OBJECTS
  0
DICTIONARY
  5
C
330
0
100
AcDbDictionary
  3
ACAD_GROUP
350
D
  3
ACAD_MLINESTYLE
350
17
  0
DICTIONARY
  5
D
330
C
100
AcDbDictionary
  0
DICTIONARY
  5
1A
330
C
100
AcDbDictionary
  0
DICTIONARY
  5
17
330
C
100
AcDbDictionary
  3
STANDARD
350
18
  0
DICTIONARY
  5
19
330
C
100
AcDbDictionary
  0
ENDSEC
  0
EOF
