  0
SECTION
  2
HEADER
  9
$ACADVER
  1
AC1014
  9
$HANDSEED
  5
FFFF
  9
$MEASUREMENT
 70
     1
  0
ENDSEC
  0
SECTION
  2
TABLES
  0
TABLE
  2
VPORT
  5
8
330
0
100
AcDbSymbolTable
 70
     4
  0
VPORT
  5
2E
330
8
100
AcDbSymbolTableRecord
100
AcDbViewportTableRecord
  2
*ACTIVE
 70
     0
 10
0.0
 20
0.0
 11
1.0
 21
1.0
 12
210.0
 22
148.5
 13
0.0
 23
0.0
 14
10.0
 24
10.0
 15
10.0
 25
10.0
 16
0.0
 26
0.0
 36
1.0
 17
0.0
 27
0.0
 37
0.0
 40
341.0
 41
1.24
 42
50.0
 43
0.0
 44
0.0
 50
0.0
 51
0.0
 71
     0
 72
   100
 73
     1
 74
     3
 75
     0
 76
     0
 77
     0
 78
     0
  0
ENDTAB
  0
TABLE
  2
LTYPE
  5
5
330
0
100
AcDbSymbolTable
 70
     1
  0
LTYPE
  5
14
330
5
100
AcDbSymbolTableRecord
100
AcDbLinetypeTableRecord
  2
BYBLOCK
 70
     0
  3

 72
    65
 73
     0
 40
0.0
  0
LTYPE
  5
15
330
5
100
AcDbSymbolTableRecord
100
AcDbLinetypeTableRecord
  2
BYLAYER
 70
     0
  3

 72
    65
 73
     0
 40
0.0
  0
LTYPE
  5
16
330
5
100
AcDbSymbolTableRecord
100
AcDbLinetypeTableRecord
  2
CONTINUOUS
 70
     0
  3
Solid line
 72
    65
 73
     0
 40
0.0
  0
ENDTAB
  0
TABLE
  2
LAYER
  5
2
100
AcDbSymbolTable
 70
1
  0
LAYER
  5
50
100
AcDbSymbolTableRecord
100
AcDbLayerTableRecord
  2
0
 70
0
  6
CONTINUOUS
  0
ENDTAB
  0
TABLE
  2
STYLE
  5
3
330
0
100
AcDbSymbolTable
 70
     1
  0
STYLE
  5
11
330
3
100
AcDbSymbolTableRecord
100
AcDbTextStyleTableRecord
  2
STANDARD
 70
     0
 40
0.0
 41
1.0
 50
0.0
 71
     0
 42
2.5
  3
txt
  4

  0
ENDTAB
  0
TABLE
  2
VIEW
  5
6
330
0
100
AcDbSymbolTable
 70
     0
  0
ENDTAB
  0
TABLE
  2
UCS
  5
7
330
0
100
AcDbSymbolTable
 70
     0
  0
ENDTAB
  0
TABLE
  2
APPID
  5
9
330
0
100
AcDbSymbolTable
 70
     2
  0
APPID
  5
12
330
9
100
AcDbSymbolTableRecord
100
AcDbRegAppTableRecord
  2
ACAD
 70
     0
  0
ENDTAB
  0
TABLE
  2
DIMSTYLE
  5
A
330
0
100
AcDbSymbolTable
 70
     1
  0
DIMSTYLE
105
27
330
A
100
AcDbSymbolTableRecord
100
AcDbDimStyleTableRecord
  2
ISO-25
 70
     0
  3

  4

  5

  6

  7

 40
1.0
 41
2.5
 42
0.625
 43
3.75
 44
1.25
 45
0.0
 46
0.0
 47
0.0
 48
0.0
140
2.5
141
2.5
142
0.0
143
0.03937007874016
144
1.0
145
0.0
146
1.0
147
0.625
 71
     0
 72
     0
 73
     0
 74
     0
 75
     0
 76
     0
 77
     1
 78
     8
170
     0
171
     3
172
     1
173
     0
174
     0
175
     0
176
     0
177
     0
178
     0
270
     2
271
     2
272
     2
273
     2
274
     3
340
11
275
     0
280
     0
281
     0
282
     0
283
     0
284
     8
285
     0
286
     0
287
     3
288
     0
  0
ENDTAB
  0
TABLE
  2
BLOCK_RECORD
  5
1
330
0
100
AcDbSymbolTable
 70
     1
  0
BLOCK_RECORD
  5
1F
330
1
100
AcDbSymbolTableRecord
100
AcDbBlockTableRecord
  2
*MODEL_SPACE
  0
BLOCK_RECORD
  5
1B
330
1
100
AcDbSymbolTableRecord
100
AcDbBlockTableRecord
  2
*PAPER_SPACE
  0
ENDTAB
  0
ENDSEC
  0
SECTION
  2
BLOCKS
  0
BLOCK
  5
20
330
1F
100
AcDbEntity
  8
0
100
AcDbBlockBegin
  2
*MODEL_SPACE
 70
     0
 10
0.0
 20
0.0
 30
0.0
  3
*MODEL_SPACE
  1

  0
ENDBLK
  5
21
330
1F
100
AcDbEntity
  8
0
100
AcDbBlockEnd
  0
BLOCK
  5
1C
330
1B
100
AcDbEntity
 67
     1
  8
0
100
AcDbBlockBegin
  2
*PAPER_SPACE
  1

  0
ENDBLK
  5
1D
330
1B
100
AcDbEntity
 67
     1
  8
0
100
AcDbBlockEnd
  0
ENDSEC
  0
SECTION
  2
ENTITIES
  0
LINE
  5
100
100
AcDbEntity
  8
0
 62
7
100
AcDbLine
 10
55.550000
 20
-7.075972
 30
0.0
 11
59.550000
 21
-7.075972
 31
0.0
  0
LINE
  5
101
100
AcDbEntity
  8
0
 62
7
100
AcDbLine
 10
59.550000
 20
-7.075972
 30
0.0
 11
59.550000
 21
1.535546
 31
0.0
  0
LINE
  5
102
100
AcDbEntity
  8
0
 62
7
100
AcDbLine
 10
59.550000
 20
1.535546
 30
0.0
 11
-32.344654
 21
44.386727
 31
0.0
  0
SPLINE
  5
103
100
AcDbEntity
  8
0
 62
7
100
AcDbSpline
 70
0
 71
3
 72
13
 73
9
 74
7
 40
0.000000
 40
0.000000
 40
0.000000
 40
0.000000
 40
1.047100
 40
2.085534
 40
3.132634
 40
4.179733
 40
5.218167
 40
6.265267
 40
6.265267
 40
6.265267
 40
6.265267
 10
55.550000
 20
-7.075972
 30
0.0
 10
55.199947
 20
-7.102637
 30
0.0
 10
54.502738
 20
-7.155746
 30
0.0
 10
53.527373
 20
-7.575447
 30
0.0
 10
52.688008
 20
-8.213980
 30
0.0
 10
52.049475
 20
-9.053345
 30
0.0
 10
51.629774
 20
-10.028710
 30
0.0
 10
51.576665
 20
-10.725919
 30
0.0
 10
51.550000
 20
-11.075972
 30
0.0
 11
55.550000
 21
-7.075972
 31
0.0
 11
54.511907
 21
-7.213014
 31
0.0
 11
53.552519
 21
-7.610406
 31
0.0
 11
52.721573
 21
-8.247545
 31
0.0
 11
52.084434
 21
-9.078491
 31
0.0
 11
51.687042
 21
-10.037879
 31
0.0
 11
51.550000
 21
-11.075972
 31
0.0
  0
LINE
  5
104
100
AcDbEntity
  8
0
 62
7
100
AcDbLine
 10
-44.044415
 20
44.247728
 30
0.0
 11
-59.550000
 21
36.563723
 31
0.0
  0
LINE
  5
105
100
AcDbEntity
  8
0
 62
7
100
AcDbLine
 10
-59.550000
 20
36.563723
 30
0.0
 11
-59.550000
 21
27.953723
 31
0.0
  0
LINE
  5
106
100
AcDbEntity
  8
0
 62
7
100
AcDbLine
 10
-59.550000
 20
27.953723
 30
0.0
 11
-55.550000
 21
27.953723
 31
0.0
  0
SPLINE
  5
107
100
AcDbEntity
  8
0
 62
7
100
AcDbSpline
 70
0
 71
3
 72
10
 73
6
 74
4
 40
0.000000
 40
0.000000
 40
0.000000
 40
0.000000
 40
4.033273
 40
8.023528
 40
12.056801
 40
12.056801
 40
12.056801
 40
12.056801
 10
-32.344654
 20
44.386727
 30
0.0
 10
-33.615398
 20
44.846301
 30
0.0
 10
-36.143333
 20
45.760546
 30
0.0
 10
-40.279447
 20
45.711407
 30
0.0
 10
-42.784948
 20
44.737362
 30
0.0
 10
-44.044415
 20
44.247728
 30
0.0
 11
-32.344654
 21
44.386727
 31
0.0
 11
-36.213629
 21
45.526166
 31
0.0
 11
-40.203602
 21
45.478763
 31
0.0
 11
-44.044415
 21
44.247728
 31
0.0
  0
LINE
  5
108
100
AcDbEntity
  8
0
 62
7
100
AcDbLine
 10
-51.550000
 20
23.953723
 30
0.0
 11
-51.550000
 21
-32.151572
 31
0.0
  0
SPLINE
  5
109
100
AcDbEntity
  8
0
 62
7
100
AcDbSpline
 70
0
 71
3
 72
13
 73
9
 74
7
 40
0.000000
 40
0.000000
 40
0.000000
 40
0.000000
 40
1.047100
 40
2.085534
 40
3.132634
 40
4.179733
 40
5.218167
 40
6.265267
 40
6.265267
 40
6.265267
 40
6.265267
 10
-51.550000
 20
23.953723
 30
0.0
 10
-51.576665
 20
24.303776
 30
0.0
 10
-51.629774
 20
25.000985
 30
0.0
 10
-52.049475
 20
25.976350
 30
0.0
 10
-52.688008
 20
26.815715
 30
0.0
 10
-53.527373
 20
27.454248
 30
0.0
 10
-54.502738
 20
27.873949
 30
0.0
 10
-55.199947
 20
27.927058
 30
0.0
 10
-55.550000
 20
27.953723
 30
0.0
 11
-51.550000
 21
23.953723
 31
0.0
 11
-51.687042
 21
24.991816
 31
0.0
 11
-52.084434
 21
25.951205
 31
0.0
 11
-52.721573
 21
26.782151
 31
0.0
 11
-53.552519
 21
27.419290
 31
0.0
 11
-54.511907
 21
27.816681
 31
0.0
 11
-55.550000
 21
27.953723
 31
0.0
  0
LINE
  5
10a
100
AcDbEntity
  8
0
 62
7
100
AcDbLine
 10
-38.050000
 20
-45.651572
 30
0.0
 11
38.050000
 21
-45.651572
 31
0.0
  0
SPLINE
  5
10b
100
AcDbEntity
  8
0
 62
7
100
AcDbSpline
 70
0
 71
3
 72
10
 73
6
 74
4
 40
0.000000
 40
0.000000
 40
0.000000
 40
0.000000
 40
7.058598
 40
13.907841
 40
20.966439
 40
20.966439
 40
20.966439
 40
20.966439
 10
-51.550000
 20
-32.151572
 30
0.0
 10
-51.178680
 20
-34.517121
 30
0.0
 10
-50.447054
 20
-39.178057
 30
0.0
 10
-45.076485
 20
-44.548626
 30
0.0
 10
-40.415549
 20
-45.280252
 30
0.0
 10
-38.050000
 20
-45.651572
 30
0.0
 11
-51.550000
 21
-32.151572
 31
0.0
 11
-49.706854
 21
-38.965281
 31
0.0
 11
-44.863709
 21
-43.808426
 31
0.0
 11
-38.050000
 21
-45.651572
 31
0.0
  0
LINE
  5
10c
100
AcDbEntity
  8
0
 62
7
100
AcDbLine
 10
51.550000
 20
-32.151572
 30
0.0
 11
51.550000
 21
-11.075972
 31
0.0
  0
SPLINE
  5
10d
100
AcDbEntity
  8
0
 62
7
100
AcDbSpline
 70
0
 71
3
 72
10
 73
6
 74
4
 40
0.000000
 40
0.000000
 40
0.000000
 40
0.000000
 40
7.058598
 40
13.907841
 40
20.966439
 40
20.966439
 40
20.966439
 40
20.966439
 10
38.050000
 20
-45.651572
 30
0.0
 10
40.415549
 20
-45.280252
 30
0.0
 10
45.076485
 20
-44.548626
 30
0.0
 10
50.447054
 20
-39.178057
 30
0.0
 10
51.178680
 20
-34.517121
 30
0.0
 10
51.550000
 20
-32.151572
 30
0.0
 11
38.050000
 21
-45.651572
 31
0.0
 11
44.863709
 21
-43.808426
 31
0.0
 11
49.706854
 21
-38.965281
 31
0.0
 11
51.550000
 21
-32.151572
 31
0.0
  0
ENDSEC
  0
SECTION
  2
OBJECTS
  0
DICTIONARY
  5
C
330
0
100
AcDbDictionary
  3
ACAD_GROUP
350
D
  3
ACAD_MLINESTYLE
350
17
  0
DICTIONARY
  5
D
330
C
100
AcDbDictionary
  0
DICTIONARY
  5
1A
330
C
100
AcDbDictionary
  0
DICTIONARY
  5
17
330
C
100
AcDbDictionary
  3
STANDARD
350
18
  0
DICTIONARY
  5
19
330
C
100
AcDbDictionary
  0
ENDSEC
  0
EOF
