  0
SECTION
  2
HEADER
  9
$ACADVER
  1
AC1014
  9
$HANDSEED
  5
FFFF
  9
$MEASUREMENT
 70
     1
  0
ENDSEC
  0
SECTION
  2
TABLES
  0
TABLE
  2
VPORT
  5
8
330
0
100
AcDbSymbolTable
 70
     4
  0
VPORT
  5
2E
330
8
100
AcDbSymbolTableRecord
100
AcDbViewportTableRecord
  2
*ACTIVE
 70
     0
 10
0.0
 20
0.0
 11
1.0
 21
1.0
 12
210.0
 22
148.5
 13
0.0
 23
0.0
 14
10.0
 24
10.0
 15
10.0
 25
10.0
 16
0.0
 26
0.0
 36
1.0
 17
0.0
 27
0.0
 37
0.0
 40
341.0
 41
1.24
 42
50.0
 43
0.0
 44
0.0
 50
0.0
 51
0.0
 71
     0
 72
   100
 73
     1
 74
     3
 75
     0
 76
     0
 77
     0
 78
     0
  0
ENDTAB
  0
TABLE
  2
LTYPE
  5
5
330
0
100
AcDbSymbolTable
 70
     1
  0
LTYPE
  5
14
330
5
100
AcDbSymbolTableRecord
100
AcDbLinetypeTableRecord
  2
BYBLOCK
 70
     0
  3

 72
    65
 73
     0
 40
0.0
  0
LTYPE
  5
15
330
5
100
AcDbSymbolTableRecord
100
AcDbLinetypeTableRecord
  2
BYLAYER
 70
     0
  3

 72
    65
 73
     0
 40
0.0
  0
LTYPE
  5
16
330
5
100
AcDbSymbolTableRecord
100
AcDbLinetypeTableRecord
  2
CONTINUOUS
 70
     0
  3
Solid line
 72
    65
 73
     0
 40
0.0
  0
ENDTAB
  0
TABLE
  2
LAYER
  5
2
100
AcDbSymbolTable
 70
1
  0
LAYER
  5
50
100
AcDbSymbolTableRecord
100
AcDbLayerTableRecord
  2
0
 70
0
  6
CONTINUOUS
  0
ENDTAB
  0
TABLE
  2
STYLE
  5
3
330
0
100
AcDbSymbolTable
 70
     1
  0
STYLE
  5
11
330
3
100
AcDbSymbolTableRecord
100
AcDbTextStyleTableRecord
  2
STANDARD
 70
     0
 40
0.0
 41
1.0
 50
0.0
 71
     0
 42
2.5
  3
txt
  4

  0
ENDTAB
  0
TABLE
  2
VIEW
  5
6
330
0
100
AcDbSymbolTable
 70
     0
  0
ENDTAB
  0
TABLE
  2
UCS
  5
7
330
0
100
AcDbSymbolTable
 70
     0
  0
ENDTAB
  0
TABLE
  2
APPID
  5
9
330
0
100
AcDbSymbolTable
 70
     2
  0
APPID
  5
12
330
9
100
AcDbSymbolTableRecord
100
AcDbRegAppTableRecord
  2
ACAD
 70
     0
  0
ENDTAB
  0
TABLE
  2
DIMSTYLE
  5
A
330
0
100
AcDbSymbolTable
 70
     1
  0
DIMSTYLE
105
27
330
A
100
AcDbSymbolTableRecord
100
AcDbDimStyleTableRecord
  2
ISO-25
 70
     0
  3

  4

  5

  6

  7

 40
1.0
 41
2.5
 42
0.625
 43
3.75
 44
1.25
 45
0.0
 46
0.0
 47
0.0
 48
0.0
140
2.5
141
2.5
142
0.0
143
0.03937007874016
144
1.0
145
0.0
146
1.0
147
0.625
 71
     0
 72
     0
 73
     0
 74
     0
 75
     0
 76
     0
 77
     1
 78
     8
170
     0
171
     3
172
     1
173
     0
174
     0
175
     0
176
     0
177
     0
178
     0
270
     2
271
     2
272
     2
273
     2
274
     3
340
11
275
     0
280
     0
281
     0
282
     0
283
     0
284
     8
285
     0
286
     0
287
     3
288
     0
  0
ENDTAB
  0
TABLE
  2
BLOCK_RECORD
  5
1
330
0
100
AcDbSymbolTable
 70
     1
  0
BLOCK_RECORD
  5
1F
330
1
100
AcDbSymbolTableRecord
100
AcDbBlockTableRecord
  2
*MODEL_SPACE
  0
BLOCK_RECORD
  5
1B
330
1
100
AcDbSymbolTableRecord
100
AcDbBlockTableRecord
  2
*PAPER_SPACE
  0
ENDTAB
  0
ENDSEC
  0
SECTION
  2
BLOCKS
  0
BLOCK
  5
20
330
1F
100
AcDbEntity
  8
0
100
AcDbBlockBegin
  2
*MODEL_SPACE
 70
     0
 10
0.0
 20
0.0
 30
0.0
  3
*MODEL_SPACE
  1

  0
ENDBLK
  5
21
330
1F
100
AcDbEntity
  8
0
100
AcDbBlockEnd
  0
BLOCK
  5
1C
330
1B
100
AcDbEntity
 67
     1
  8
0
100
AcDbBlockBegin
  2
*PAPER_SPACE
  1

  0
ENDBLK
  5
1D
330
1B
100
AcDbEntity
 67
     1
  8
0
100
AcDbBlockEnd
  0
ENDSEC
  0
SECTION
  2
ENTITIES
  0
LINE
  5
100
100
AcDbEntity
  8
0
 62
7
100
AcDbLine
 10
-68.000000
 20
-57.800000
 30
0.0
 11
-68.000000
 21
-62.500000
 31
0.0
  0
LINE
  5
101
100
AcDbEntity
  8
0
 62
7
100
AcDbLine
 10
68.000000
 20
-57.800000
 30
0.0
 11
-68.000000
 21
-57.800000
 31
0.0
  0
LINE
  5
102
100
AcDbEntity
  8
0
 62
7
100
AcDbLine
 10
68.000000
 20
-62.500000
 30
0.0
 11
68.000000
 21
-57.800000
 31
0.0
  0
LINE
  5
103
100
AcDbEntity
  8
0
 62
7
100
AcDbLine
 10
74.650000
 20
-62.500000
 30
0.0
 11
68.000000
 21
-62.500000
 31
0.0
  0
LINE
  5
104
100
AcDbEntity
  8
0
 62
7
100
AcDbLine
 10
74.650000
 20
62.500000
 30
0.0
 11
74.650000
 21
-62.500000
 31
0.0
  0
LINE
  5
105
100
AcDbEntity
  8
0
 62
7
100
AcDbLine
 10
-74.650000
 20
62.500000
 30
0.0
 11
74.650000
 21
62.500000
 31
0.0
  0
LINE
  5
106
100
AcDbEntity
  8
0
 62
7
100
AcDbLine
 10
-74.650000
 20
-62.500000
 30
0.0
 11
-74.650000
 21
62.500000
 31
0.0
  0
LINE
  5
107
100
AcDbEntity
  8
0
 62
7
100
AcDbLine
 10
-68.000000
 20
-62.500000
 30
0.0
 11
-74.650000
 21
-62.500000
 31
0.0
  0
LINE
  5
108
100
AcDbEntity
  8
0
 62
7
100
AcDbLine
 10
72.925000
 20
37.500000
 30
0.0
 11
72.925000
 21
37.500000
 31
0.0
  0
SPLINE
  5
109
100
AcDbEntity
  8
0
 62
7
100
AcDbSpline
 70
0
 71
3
 72
25
 73
21
 74
19
 40
0.000000
 40
0.000000
 40
0.000000
 40
0.000000
 40
0.558343
 40
1.108694
 40
1.667037
 40
2.225379
 40
2.775731
 40
3.334074
 40
3.892416
 40
4.442768
 40
5.001111
 40
5.559453
 40
6.109805
 40
6.668148
 40
7.226490
 40
7.776842
 40
8.335185
 40
8.893527
 40
9.443879
 40
10.002222
 40
10.002222
 40
10.002222
 40
10.002222
 10
72.925000
 20
37.500000
 30
0.0
 10
72.905883
 20
37.687063
 30
0.0
 10
72.867923
 20
38.058513
 30
0.0
 10
72.573417
 20
38.549389
 30
0.0
 10
72.142209
 20
38.914343
 30
0.0
 10
71.608240
 20
39.107903
 30
0.0
 10
71.041638
 20
39.107903
 30
0.0
 10
70.508416
 20
38.914343
 30
0.0
 10
70.074223
 20
38.549389
 30
0.0
 10
69.790811
 20
38.058513
 30
0.0
 10
69.691858
 20
37.500000
 30
0.0
 10
69.790811
 20
36.941487
 30
0.0
 10
70.074223
 20
36.450610
 30
0.0
 10
70.508416
 20
36.085657
 30
0.0
 10
71.041638
 20
35.892097
 30
0.0
 10
71.608240
 20
35.892097
 30
0.0
 10
72.142209
 20
36.085657
 30
0.0
 10
72.573417
 20
36.450610
 30
0.0
 10
72.867923
 20
36.941487
 30
0.0
 10
72.905883
 20
37.312937
 30
0.0
 10
72.925000
 20
37.500000
 30
0.0
 11
72.925000
 21
37.500000
 31
0.0
 11
72.827602
 21
38.049782
 31
0.0
 11
72.552426
 21
38.526400
 31
0.0
 11
72.125000
 21
38.885641
 31
0.0
 11
71.600176
 21
39.076182
 31
0.0
 11
71.049824
 21
39.076182
 31
0.0
 11
70.525000
 21
38.885641
 31
0.0
 11
70.097574
 21
38.526400
 31
0.0
 11
69.822398
 21
38.049782
 31
0.0
 11
69.725000
 21
37.500000
 31
0.0
 11
69.822398
 21
36.950218
 31
0.0
 11
70.097574
 21
36.473599
 31
0.0
 11
70.525000
 21
36.114359
 31
0.0
 11
71.049824
 21
35.923818
 31
0.0
 11
71.600176
 21
35.923818
 31
0.0
 11
72.125000
 21
36.114359
 31
0.0
 11
72.552426
 21
36.473599
 31
0.0
 11
72.827602
 21
36.950218
 31
0.0
 11
72.925000
 21
37.500000
 31
0.0
  0
LINE
  5
10a
100
AcDbEntity
  8
0
 62
7
100
AcDbLine
 10
-69.725000
 20
-22.500000
 30
0.0
 11
-69.725000
 21
-22.500000
 31
0.0
  0
SPLINE
  5
10b
100
AcDbEntity
  8
0
 62
7
100
AcDbSpline
 70
0
 71
3
 72
25
 73
21
 74
19
 40
0.000000
 40
0.000000
 40
0.000000
 40
0.000000
 40
0.558343
 40
1.108694
 40
1.667037
 40
2.225379
 40
2.775731
 40
3.334074
 40
3.892416
 40
4.442768
 40
5.001111
 40
5.559453
 40
6.109805
 40
6.668148
 40
7.226490
 40
7.776842
 40
8.335184
 40
8.893527
 40
9.443879
 40
10.002221
 40
10.002221
 40
10.002221
 40
10.002221
 10
-69.725000
 20
-22.500000
 30
0.0
 10
-69.744117
 20
-22.312937
 30
0.0
 10
-69.782077
 20
-21.941487
 30
0.0
 10
-70.076583
 20
-21.450610
 30
0.0
 10
-70.507791
 20
-21.085657
 30
0.0
 10
-71.041760
 20
-20.892097
 30
0.0
 10
-71.608362
 20
-20.892097
 30
0.0
 10
-72.141584
 20
-21.085657
 30
0.0
 10
-72.575777
 20
-21.450610
 30
0.0
 10
-72.859189
 20
-21.941487
 30
0.0
 10
-72.958142
 20
-22.500000
 30
0.0
 10
-72.859189
 20
-23.058513
 30
0.0
 10
-72.575777
 20
-23.549389
 30
0.0
 10
-72.141584
 20
-23.914343
 30
0.0
 10
-71.608362
 20
-24.107902
 30
0.0
 10
-71.041760
 20
-24.107902
 30
0.0
 10
-70.507791
 20
-23.914343
 30
0.0
 10
-70.076583
 20
-23.549389
 30
0.0
 10
-69.782077
 20
-23.058513
 30
0.0
 10
-69.744117
 20
-22.687063
 30
0.0
 10
-69.725000
 20
-22.500000
 30
0.0
 11
-69.725000
 21
-22.500000
 31
0.0
 11
-69.822398
 21
-21.950218
 31
0.0
 11
-70.097574
 21
-21.473600
 31
0.0
 11
-70.525000
 21
-21.114359
 31
0.0
 11
-71.049824
 21
-20.923818
 31
0.0
 11
-71.600176
 21
-20.923818
 31
0.0
 11
-72.125000
 21
-21.114359
 31
0.0
 11
-72.552426
 21
-21.473600
 31
0.0
 11
-72.827602
 21
-21.950218
 31
0.0
 11
-72.925000
 21
-22.500000
 31
0.0
 11
-72.827602
 21
-23.049782
 31
0.0
 11
-72.552426
 21
-23.526400
 31
0.0
 11
-72.125000
 21
-23.885641
 31
0.0
 11
-71.600176
 21
-24.076182
 31
0.0
 11
-71.049824
 21
-24.076182
 31
0.0
 11
-70.525000
 21
-23.885641
 31
0.0
 11
-70.097574
 21
-23.526400
 31
0.0
 11
-69.822398
 21
-23.049782
 31
0.0
 11
-69.725000
 21
-22.500000
 31
0.0
  0
LINE
  5
10c
100
AcDbEntity
  8
0
 62
7
100
AcDbLine
 10
72.925000
 20
-22.500000
 30
0.0
 11
72.925000
 21
-22.500000
 31
0.0
  0
SPLINE
  5
10d
100
AcDbEntity
  8
0
 62
7
100
AcDbSpline
 70
0
 71
3
 72
25
 73
21
 74
19
 40
0.000000
 40
0.000000
 40
0.000000
 40
0.000000
 40
0.558343
 40
1.108694
 40
1.667037
 40
2.225379
 40
2.775731
 40
3.334074
 40
3.892416
 40
4.442768
 40
5.001111
 40
5.559453
 40
6.109805
 40
6.668148
 40
7.226490
 40
7.776842
 40
8.335185
 40
8.893527
 40
9.443879
 40
10.002222
 40
10.002222
 40
10.002222
 40
10.002222
 10
72.925000
 20
-22.500000
 30
0.0
 10
72.905883
 20
-22.312937
 30
0.0
 10
72.867923
 20
-21.941487
 30
0.0
 10
72.573417
 20
-21.450610
 30
0.0
 10
72.142209
 20
-21.085657
 30
0.0
 10
71.608240
 20
-20.892097
 30
0.0
 10
71.041638
 20
-20.892097
 30
0.0
 10
70.508416
 20
-21.085657
 30
0.0
 10
70.074223
 20
-21.450610
 30
0.0
 10
69.790811
 20
-21.941487
 30
0.0
 10
69.691858
 20
-22.500000
 30
0.0
 10
69.790811
 20
-23.058513
 30
0.0
 10
70.074223
 20
-23.549390
 30
0.0
 10
70.508416
 20
-23.914343
 30
0.0
 10
71.041638
 20
-24.107903
 30
0.0
 10
71.608240
 20
-24.107903
 30
0.0
 10
72.142209
 20
-23.914343
 30
0.0
 10
72.573417
 20
-23.549390
 30
0.0
 10
72.867923
 20
-23.058513
 30
0.0
 10
72.905883
 20
-22.687063
 30
0.0
 10
72.925000
 20
-22.500000
 30
0.0
 11
72.925000
 21
-22.500000
 31
0.0
 11
72.827602
 21
-21.950218
 31
0.0
 11
72.552426
 21
-21.473600
 31
0.0
 11
72.125000
 21
-21.114359
 31
0.0
 11
71.600176
 21
-20.923818
 31
0.0
 11
71.049824
 21
-20.923818
 31
0.0
 11
70.525000
 21
-21.114359
 31
0.0
 11
70.097574
 21
-21.473600
 31
0.0
 11
69.822398
 21
-21.950218
 31
0.0
 11
69.725000
 21
-22.500000
 31
0.0
 11
69.822398
 21
-23.049782
 31
0.0
 11
70.097574
 21
-23.526400
 31
0.0
 11
70.525000
 21
-23.885641
 31
0.0
 11
71.049824
 21
-24.076182
 31
0.0
 11
71.600176
 21
-24.076182
 31
0.0
 11
72.125000
 21
-23.885641
 31
0.0
 11
72.552426
 21
-23.526400
 31
0.0
 11
72.827602
 21
-23.049782
 31
0.0
 11
72.925000
 21
-22.500000
 31
0.0
  0
LINE
  5
10e
100
AcDbEntity
  8
0
 62
7
100
AcDbLine
 10
-69.725000
 20
37.500000
 30
0.0
 11
-69.725000
 21
37.500000
 31
0.0
  0
SPLINE
  5
10f
100
AcDbEntity
  8
0
 62
7
100
AcDbSpline
 70
0
 71
3
 72
25
 73
21
 74
19
 40
0.000000
 40
0.000000
 40
0.000000
 40
0.000000
 40
0.558343
 40
1.108694
 40
1.667037
 40
2.225379
 40
2.775731
 40
3.334074
 40
3.892416
 40
4.442768
 40
5.001111
 40
5.559453
 40
6.109805
 40
6.668148
 40
7.226490
 40
7.776842
 40
8.335184
 40
8.893527
 40
9.443879
 40
10.002221
 40
10.002221
 40
10.002221
 40
10.002221
 10
-69.725000
 20
37.500000
 30
0.0
 10
-69.744117
 20
37.687063
 30
0.0
 10
-69.782077
 20
38.058513
 30
0.0
 10
-70.076583
 20
38.549389
 30
0.0
 10
-70.507791
 20
38.914343
 30
0.0
 10
-71.041760
 20
39.107903
 30
0.0
 10
-71.608362
 20
39.107903
 30
0.0
 10
-72.141584
 20
38.914343
 30
0.0
 10
-72.575777
 20
38.549389
 30
0.0
 10
-72.859189
 20
38.058513
 30
0.0
 10
-72.958142
 20
37.500000
 30
0.0
 10
-72.859189
 20
36.941487
 30
0.0
 10
-72.575777
 20
36.450611
 30
0.0
 10
-72.141584
 20
36.085657
 30
0.0
 10
-71.608362
 20
35.892097
 30
0.0
 10
-71.041760
 20
35.892097
 30
0.0
 10
-70.507791
 20
36.085657
 30
0.0
 10
-70.076583
 20
36.450611
 30
0.0
 10
-69.782077
 20
36.941487
 30
0.0
 10
-69.744117
 20
37.312937
 30
0.0
 10
-69.725000
 20
37.500000
 30
0.0
 11
-69.725000
 21
37.500000
 31
0.0
 11
-69.822398
 21
38.049782
 31
0.0
 11
-70.097574
 21
38.526400
 31
0.0
 11
-70.525000
 21
38.885641
 31
0.0
 11
-71.049824
 21
39.076182
 31
0.0
 11
-71.600176
 21
39.076182
 31
0.0
 11
-72.125000
 21
38.885641
 31
0.0
 11
-72.552426
 21
38.526400
 31
0.0
 11
-72.827602
 21
38.049782
 31
0.0
 11
-72.925000
 21
37.500000
 31
0.0
 11
-72.827602
 21
36.950218
 31
0.0
 11
-72.552426
 21
36.473600
 31
0.0
 11
-72.125000
 21
36.114359
 31
0.0
 11
-71.600176
 21
35.923818
 31
0.0
 11
-71.049824
 21
35.923818
 31
0.0
 11
-70.525000
 21
36.114359
 31
0.0
 11
-70.097574
 21
36.473600
 31
0.0
 11
-69.822398
 21
36.950218
 31
0.0
 11
-69.725000
 21
37.500000
 31
0.0
  0
ENDSEC
  0
SECTION
  2
OBJECTS
  0
DICTIONARY
  5
C
330
0
100
AcDbDictionary
  3
ACAD_GROUP
350
D
  3
ACAD_MLINESTYLE
350
17
  0
DICTIONARY
  5
D
330
C
100
AcDbDictionary
  0
DICTIONARY
  5
1A
330
C
100
AcDbDictionary
  0
DICTIONARY
  5
17
330
C
100
AcDbDictionary
  3
STANDARD
350
18
  0
DICTIONARY
  5
19
330
C
100
AcDbDictionary
  0
ENDSEC
  0
EOF
