  0
SECTION
  2
HEADER
  9
$ACADVER
  1
AC1014
  9
$HANDSEED
  5
FFFF
  9
$MEASUREMENT
 70
     1
  0
ENDSEC
  0
SECTION
  2
TABLES
  0
TABLE
  2
VPORT
  5
8
330
0
100
AcDbSymbolTable
 70
     4
  0
VPORT
  5
2E
330
8
100
AcDbSymbolTableRecord
100
AcDbViewportTableRecord
  2
*ACTIVE
 70
     0
 10
0.0
 20
0.0
 11
1.0
 21
1.0
 12
210.0
 22
148.5
 13
0.0
 23
0.0
 14
10.0
 24
10.0
 15
10.0
 25
10.0
 16
0.0
 26
0.0
 36
1.0
 17
0.0
 27
0.0
 37
0.0
 40
341.0
 41
1.24
 42
50.0
 43
0.0
 44
0.0
 50
0.0
 51
0.0
 71
     0
 72
   100
 73
     1
 74
     3
 75
     0
 76
     0
 77
     0
 78
     0
  0
ENDTAB
  0
TABLE
  2
LTYPE
  5
5
330
0
100
AcDbSymbolTable
 70
     1
  0
LTYPE
  5
14
330
5
100
AcDbSymbolTableRecord
100
AcDbLinetypeTableRecord
  2
BYBLOCK
 70
     0
  3

 72
    65
 73
     0
 40
0.0
  0
LTYPE
  5
15
330
5
100
AcDbSymbolTableRecord
100
AcDbLinetypeTableRecord
  2
BYLAYER
 70
     0
  3

 72
    65
 73
     0
 40
0.0
  0
LTYPE
  5
16
330
5
100
AcDbSymbolTableRecord
100
AcDbLinetypeTableRecord
  2
CONTINUOUS
 70
     0
  3
Solid line
 72
    65
 73
     0
 40
0.0
  0
ENDTAB
  0
TABLE
  2
LAYER
  5
2
100
AcDbSymbolTable
 70
1
  0
LAYER
  5
50
100
AcDbSymbolTableRecord
100
AcDbLayerTableRecord
  2
0
 70
0
  6
CONTINUOUS
  0
ENDTAB
  0
TABLE
  2
STYLE
  5
3
330
0
100
AcDbSymbolTable
 70
     1
  0
STYLE
  5
11
330
3
100
AcDbSymbolTableRecord
100
AcDbTextStyleTableRecord
  2
STANDARD
 70
     0
 40
0.0
 41
1.0
 50
0.0
 71
     0
 42
2.5
  3
txt
  4

  0
ENDTAB
  0
TABLE
  2
VIEW
  5
6
330
0
100
AcDbSymbolTable
 70
     0
  0
ENDTAB
  0
TABLE
  2
UCS
  5
7
330
0
100
AcDbSymbolTable
 70
     0
  0
ENDTAB
  0
TABLE
  2
APPID
  5
9
330
0
100
AcDbSymbolTable
 70
     2
  0
APPID
  5
12
330
9
100
AcDbSymbolTableRecord
100
AcDbRegAppTableRecord
  2
ACAD
 70
     0
  0
ENDTAB
  0
TABLE
  2
DIMSTYLE
  5
A
330
0
100
AcDbSymbolTable
 70
     1
  0
DIMSTYLE
105
27
330
A
100
AcDbSymbolTableRecord
100
AcDbDimStyleTableRecord
  2
ISO-25
 70
     0
  3

  4

  5

  6

  7

 40
1.0
 41
2.5
 42
0.625
 43
3.75
 44
1.25
 45
0.0
 46
0.0
 47
0.0
 48
0.0
140
2.5
141
2.5
142
0.0
143
0.03937007874016
144
1.0
145
0.0
146
1.0
147
0.625
 71
     0
 72
     0
 73
     0
 74
     0
 75
     0
 76
     0
 77
     1
 78
     8
170
     0
171
     3
172
     1
173
     0
174
     0
175
     0
176
     0
177
     0
178
     0
270
     2
271
     2
272
     2
273
     2
274
     3
340
11
275
     0
280
     0
281
     0
282
     0
283
     0
284
     8
285
     0
286
     0
287
     3
288
     0
  0
ENDTAB
  0
TABLE
  2
BLOCK_RECORD
  5
1
330
0
100
AcDbSymbolTable
 70
     1
  0
BLOCK_RECORD
  5
1F
330
1
100
AcDbSymbolTableRecord
100
AcDbBlockTableRecord
  2
*MODEL_SPACE
  0
BLOCK_RECORD
  5
1B
330
1
100
AcDbSymbolTableRecord
100
AcDbBlockTableRecord
  2
*PAPER_SPACE
  0
ENDTAB
  0
ENDSEC
  0
SECTION
  2
BLOCKS
  0
BLOCK
  5
20
330
1F
100
AcDbEntity
  8
0
100
AcDbBlockBegin
  2
*MODEL_SPACE
 70
     0
 10
0.0
 20
0.0
 30
0.0
  3
*MODEL_SPACE
  1

  0
ENDBLK
  5
21
330
1F
100
AcDbEntity
  8
0
100
AcDbBlockEnd
  0
BLOCK
  5
1C
330
1B
100
AcDbEntity
 67
     1
  8
0
100
AcDbBlockBegin
  2
*PAPER_SPACE
  1

  0
ENDBLK
  5
1D
330
1B
100
AcDbEntity
 67
     1
  8
0
100
AcDbBlockEnd
  0
ENDSEC
  0
SECTION
  2
ENTITIES
  0
LINE
  5
100
100
AcDbEntity
  8
0
 62
7
100
AcDbLine
 10
86.888348
 20
-6.250000
 30
0.0
 11
86.888348
 21
-6.250000
 31
0.0
  0
LINE
  5
101
100
AcDbEntity
  8
0
 62
7
100
AcDbLine
 10
103.178348
 20
-0.000000
 30
0.0
 11
103.178348
 21
-9.045819
 31
0.0
  0
SPLINE
  5
102
100
AcDbEntity
  8
0
 62
7
100
AcDbSpline
 70
0
 71
3
 72
25
 73
21
 74
19
 40
0.000000
 40
0.000000
 40
0.000000
 40
0.000000
 40
0.523591
 40
1.039684
 40
1.563274
 40
2.086865
 40
2.602958
 40
3.126549
 40
3.650140
 40
4.166233
 40
4.689823
 40
5.213414
 40
5.729507
 40
6.253098
 40
6.776689
 40
7.292782
 40
7.816372
 40
8.339963
 40
8.856056
 40
9.379647
 40
9.379647
 40
9.379647
 40
9.379647
 10
86.888348
 20
-6.250000
 30
0.0
 10
86.870492
 20
-6.074571
 30
0.0
 10
86.835036
 20
-5.726226
 30
0.0
 10
86.558987
 20
-5.265817
 30
0.0
 10
86.154682
 20
-4.923498
 30
0.0
 10
85.653960
 20
-4.741936
 30
0.0
 10
85.122621
 20
-4.741936
 30
0.0
 10
84.622597
 20
-4.923498
 30
0.0
 10
84.215503
 20
-5.265817
 30
0.0
 10
83.949818
 20
-5.726226
 30
0.0
 10
83.857391
 20
-6.250000
 30
0.0
 10
83.949818
 20
-6.773774
 30
0.0
 10
84.215503
 20
-7.234183
 30
0.0
 10
84.622597
 20
-7.576502
 30
0.0
 10
85.122621
 20
-7.758064
 30
0.0
 10
85.653960
 20
-7.758064
 30
0.0
 10
86.154682
 20
-7.576502
 30
0.0
 10
86.558987
 20
-7.234183
 30
0.0
 10
86.835036
 20
-6.773774
 30
0.0
 10
86.870492
 20
-6.425429
 30
0.0
 10
86.888348
 20
-6.250000
 30
0.0
 11
86.888348
 21
-6.250000
 31
0.0
 11
86.797210
 21
-5.734402
 31
0.0
 11
86.539293
 21
-5.287378
 31
0.0
 11
86.138536
 21
-4.950420
 31
0.0
 11
85.646394
 21
-4.771690
 31
0.0
 11
85.130301
 21
-4.771690
 31
0.0
 11
84.638160
 21
-4.950420
 31
0.0
 11
84.237403
 21
-5.287378
 31
0.0
 11
83.979485
 21
-5.734402
 31
0.0
 11
83.888348
 21
-6.250000
 31
0.0
 11
83.979485
 21
-6.765598
 31
0.0
 11
84.237403
 21
-7.212622
 31
0.0
 11
84.638160
 21
-7.549580
 31
0.0
 11
85.130301
 21
-7.728310
 31
0.0
 11
85.646394
 21
-7.728310
 31
0.0
 11
86.138536
 21
-7.549580
 31
0.0
 11
86.539293
 21
-7.212622
 31
0.0
 11
86.797210
 21
-6.765598
 31
0.0
 11
86.888348
 21
-6.250000
 31
0.0
  0
SPLINE
  5
103
100
AcDbEntity
  8
0
 62
7
100
AcDbSpline
 70
0
 71
3
 72
10
 73
6
 74
4
 40
0.000000
 40
0.000000
 40
0.000000
 40
0.000000
 40
2.986705
 40
5.892002
 40
8.878707
 40
8.878707
 40
8.878707
 40
8.878707
 10
97.632098
 20
-15.028637
 30
0.0
 10
98.618134
 20
-14.804024
 30
0.0
 10
100.563329
 20
-14.360920
 30
0.0
 10
102.734217
 20
-12.019152
 30
0.0
 10
103.028947
 20
-10.046017
 30
0.0
 10
103.178348
 20
-9.045819
 30
0.0
 11
97.632098
 21
-15.028637
 31
0.0
 11
100.460553
 21
-14.069340
 31
0.0
 11
102.435700
 21
-11.938721
 31
0.0
 11
103.178348
 21
-9.045819
 31
0.0
  0
LINE
  5
104
100
AcDbEntity
  8
0
 62
7
100
AcDbLine
 10
88.388348
 20
-88.388348
 30
0.0
 11
88.388348
 21
-25.000000
 31
0.0
  0
LINE
  5
105
100
AcDbEntity
  8
0
 62
7
100
AcDbLine
 10
71.771338
 20
-71.771338
 30
0.0
 11
88.388348
 21
-88.388348
 31
0.0
  0
LINE
  5
106
100
AcDbEntity
  8
0
 62
7
100
AcDbLine
 10
76.240946
 20
-67.301730
 30
0.0
 11
71.771338
 21
-71.771338
 31
0.0
  0
SPLINE
  5
107
100
AcDbEntity
  8
0
 62
7
100
AcDbSpline
 70
0
 71
3
 72
10
 73
6
 74
4
 40
0.000000
 40
0.000000
 40
0.000000
 40
0.000000
 40
4.977842
 40
9.820002
 40
14.797845
 40
14.797845
 40
14.797845
 40
14.797845
 10
97.632098
 20
-15.028637
 30
0.0
 10
95.988704
 20
-15.402992
 30
0.0
 10
92.746712
 20
-16.141499
 30
0.0
 10
89.128565
 20
-20.044444
 30
0.0
 10
88.637349
 20
-23.333002
 30
0.0
 10
88.388348
 20
-25.000000
 30
0.0
 11
97.632098
 21
-15.028637
 31
0.0
 11
92.918005
 21
-16.627464
 31
0.0
 11
89.626093
 21
-20.178496
 31
0.0
 11
88.388348
 21
-25.000000
 31
0.0
  0
LINE
  5
108
100
AcDbEntity
  8
0
 62
7
100
AcDbLine
 10
79.160604
 20
-66.149839
 30
0.0
 11
78.170655
 21
-67.139789
 31
0.0
  0
SPLINE
  5
109
100
AcDbEntity
  8
0
 62
7
100
AcDbSpline
 70
0
 71
3
 72
10
 73
6
 74
4
 40
0.000000
 40
0.000000
 40
0.000000
 40
0.000000
 40
0.701033
 40
1.384955
 40
2.085988
 40
2.085988
 40
2.085988
 40
2.085988
 10
76.240946
 20
-67.301730
 30
0.0
 10
76.451195
 20
-67.410836
 30
0.0
 10
76.866560
 20
-67.626383
 30
0.0
 10
77.607900
 20
-67.564170
 30
0.0
 10
77.981531
 20
-67.282409
 30
0.0
 10
78.170655
 20
-67.139789
 30
0.0
 11
76.240946
 21
-67.301730
 31
0.0
 11
76.891378
 21
-67.563236
 31
0.0
 11
77.572905
 21
-67.506042
 31
0.0
 11
78.170655
 21
-67.139789
 31
0.0
  0
SPLINE
  5
10a
100
AcDbEntity
  8
0
 62
7
100
AcDbSpline
 70
0
 71
3
 72
10
 73
6
 74
4
 40
0.000000
 40
0.000000
 40
0.000000
 40
0.000000
 40
0.758540
 40
1.495833
 40
2.254373
 40
2.254373
 40
2.254373
 40
2.254373
 10
79.160604
 20
-66.149839
 30
0.0
 10
79.312999
 20
-65.942912
 30
0.0
 10
79.613520
 20
-65.534852
 30
0.0
 10
79.634577
 20
-64.722519
 30
0.0
 10
79.355600
 20
-64.299438
 30
0.0
 10
79.214130
 20
-64.084893
 30
0.0
 11
79.160604
 21
-66.149839
 31
0.0
 11
79.544102
 21
-65.495383
 31
0.0
 11
79.563207
 21
-64.758338
 31
0.0
 11
79.214130
 21
-64.084893
 31
0.0
  0
SPLINE
  5
10b
100
AcDbEntity
  8
0
 62
7
100
AcDbSpline
 70
0
 71
3
 72
13
 73
9
 74
7
 40
0.000000
 40
0.000000
 40
0.000000
 40
0.000000
 40
0.543215
 40
1.078097
 40
1.621312
 40
2.164527
 40
2.699409
 40
3.242624
 40
3.242624
 40
3.242624
 40
3.242624
 10
79.214130
 20
-64.084893
 30
0.0
 10
79.249714
 20
-63.905282
 30
0.0
 10
79.320336
 20
-63.548815
 30
0.0
 10
79.177386
 20
-63.009683
 30
0.0
 10
78.866529
 20
-62.554827
 30
0.0
 10
78.411673
 20
-62.243970
 30
0.0
 10
77.872542
 20
-62.101020
 30
0.0
 10
77.516074
 20
-62.171643
 30
0.0
 10
77.336463
 20
-62.207227
 30
0.0
 11
79.214130
 21
-64.084893
 31
0.0
 11
79.278820
 21
-63.545544
 31
0.0
 11
79.150638
 21
-63.026248
 31
0.0
 11
78.842406
 21
-62.578950
 31
0.0
 11
78.395108
 21
-62.270718
 31
0.0
 11
77.875812
 21
-62.142536
 31
0.0
 11
77.336463
 21
-62.207227
 31
0.0
  0
LINE
  5
10c
100
AcDbEntity
  8
0
 62
7
100
AcDbLine
 10
74.281567
 20
-63.250702
 30
0.0
 11
75.271517
 21
-62.260752
 31
0.0
  0
SPLINE
  5
10d
100
AcDbEntity
  8
0
 62
7
100
AcDbSpline
 70
0
 71
3
 72
10
 73
6
 74
4
 40
0.000000
 40
0.000000
 40
0.000000
 40
0.000000
 40
0.758540
 40
1.495833
 40
2.254373
 40
2.254373
 40
2.254373
 40
2.254373
 10
77.336463
 20
-62.207227
 30
0.0
 10
77.121918
 20
-62.065757
 30
0.0
 10
76.698837
 20
-61.786780
 30
0.0
 10
75.886504
 20
-61.807836
 30
0.0
 10
75.478445
 20
-62.108357
 30
0.0
 10
75.271517
 20
-62.260752
 30
0.0
 11
77.336463
 21
-62.207227
 31
0.0
 11
76.663018
 21
-61.858150
 31
0.0
 11
75.925973
 21
-61.877254
 31
0.0
 11
75.271517
 21
-62.260752
 31
0.0
  0
LINE
  5
10e
100
AcDbEntity
  8
0
 62
7
100
AcDbLine
 10
69.650018
 20
-69.650018
 30
0.0
 11
74.119626
 21
-65.180410
 31
0.0
  0
LINE
  5
10f
100
AcDbEntity
  8
0
 62
7
100
AcDbLine
 10
29.344931
 20
-29.344931
 30
0.0
 11
69.650018
 21
-69.650018
 31
0.0
  0
LINE
  5
110
100
AcDbEntity
  8
0
 62
7
100
AcDbLine
 10
33.814539
 20
-24.875324
 30
0.0
 11
29.344931
 21
-29.344931
 31
0.0
  0
SPLINE
  5
111
100
AcDbEntity
  8
0
 62
7
100
AcDbSpline
 70
0
 71
3
 72
10
 73
6
 74
4
 40
0.000000
 40
0.000000
 40
0.000000
 40
0.000000
 40
0.701033
 40
1.384955
 40
2.085988
 40
2.085988
 40
2.085988
 40
2.085988
 10
74.281567
 20
-63.250702
 30
0.0
 10
74.138947
 20
-63.439825
 30
0.0
 10
73.857186
 20
-63.813457
 30
0.0
 10
73.794973
 20
-64.554796
 30
0.0
 10
74.010520
 20
-64.970162
 30
0.0
 10
74.119626
 20
-65.180410
 30
0.0
 11
74.281567
 21
-63.250702
 31
0.0
 11
73.915314
 21
-63.848451
 31
0.0
 11
73.858120
 21
-64.529979
 31
0.0
 11
74.119626
 21
-65.180410
 31
0.0
  0
LINE
  5
112
100
AcDbEntity
  8
0
 62
7
100
AcDbLine
 10
36.734197
 20
-23.723432
 30
0.0
 11
35.744248
 21
-24.713382
 31
0.0
  0
SPLINE
  5
113
100
AcDbEntity
  8
0
 62
7
100
AcDbSpline
 70
0
 71
3
 72
10
 73
6
 74
4
 40
0.000000
 40
0.000000
 40
0.000000
 40
0.000000
 40
0.701032
 40
1.384955
 40
2.085988
 40
2.085988
 40
2.085988
 40
2.085988
 10
33.814539
 20
-24.875324
 30
0.0
 10
34.024788
 20
-24.984429
 30
0.0
 10
34.440154
 20
-25.199976
 30
0.0
 10
35.181493
 20
-25.137763
 30
0.0
 10
35.555124
 20
-24.856003
 30
0.0
 10
35.744248
 20
-24.713382
 30
0.0
 11
33.814539
 21
-24.875324
 31
0.0
 11
34.464971
 21
-25.136829
 31
0.0
 11
35.146498
 21
-25.079636
 31
0.0
 11
35.744248
 21
-24.713382
 31
0.0
  0
SPLINE
  5
114
100
AcDbEntity
  8
0
 62
7
100
AcDbSpline
 70
0
 71
3
 72
10
 73
6
 74
4
 40
0.000000
 40
0.000000
 40
0.000000
 40
0.000000
 40
0.758540
 40
1.495833
 40
2.254373
 40
2.254373
 40
2.254373
 40
2.254373
 10
36.734197
 20
-23.723432
 30
0.0
 10
36.886592
 20
-23.516505
 30
0.0
 10
37.187113
 20
-23.108445
 30
0.0
 10
37.208170
 20
-22.296112
 30
0.0
 10
36.929193
 20
-21.873031
 30
0.0
 10
36.787723
 20
-21.658486
 30
0.0
 11
36.734197
 21
-23.723432
 31
0.0
 11
37.117695
 21
-23.068977
 31
0.0
 11
37.136800
 21
-22.331931
 31
0.0
 11
36.787723
 21
-21.658486
 31
0.0
  0
SPLINE
  5
115
100
AcDbEntity
  8
0
 62
7
100
AcDbSpline
 70
0
 71
3
 72
13
 73
9
 74
7
 40
0.000000
 40
0.000000
 40
0.000000
 40
0.000000
 40
0.543215
 40
1.078097
 40
1.621312
 40
2.164527
 40
2.699409
 40
3.242624
 40
3.242624
 40
3.242624
 40
3.242624
 10
36.787723
 20
-21.658486
 30
0.0
 10
36.823307
 20
-21.478875
 30
0.0
 10
36.893930
 20
-21.122408
 30
0.0
 10
36.750980
 20
-20.583276
 30
0.0
 10
36.440122
 20
-20.128420
 30
0.0
 10
35.985266
 20
-19.817563
 30
0.0
 10
35.446135
 20
-19.674613
 30
0.0
 10
35.089667
 20
-19.745235
 30
0.0
 10
34.910056
 20
-19.780820
 30
0.0
 11
36.787723
 21
-21.658486
 31
0.0
 11
36.852413
 21
-21.119137
 31
0.0
 11
36.724231
 21
-20.599841
 31
0.0
 11
36.415999
 21
-20.152543
 31
0.0
 11
35.968702
 21
-19.844311
 31
0.0
 11
35.449405
 21
-19.716129
 31
0.0
 11
34.910056
 21
-19.780820
 31
0.0
  0
LINE
  5
116
100
AcDbEntity
  8
0
 62
7
100
AcDbLine
 10
31.855161
 20
-20.824295
 30
0.0
 11
32.845110
 21
-19.834345
 31
0.0
  0
SPLINE
  5
117
100
AcDbEntity
  8
0
 62
7
100
AcDbSpline
 70
0
 71
3
 72
10
 73
6
 74
4
 40
0.000000
 40
0.000000
 40
0.000000
 40
0.000000
 40
0.758540
 40
1.495833
 40
2.254373
 40
2.254373
 40
2.254373
 40
2.254373
 10
34.910056
 20
-19.780820
 30
0.0
 10
34.695511
 20
-19.639350
 30
0.0
 10
34.272431
 20
-19.360373
 30
0.0
 10
33.460097
 20
-19.381429
 30
0.0
 10
33.052038
 20
-19.681950
 30
0.0
 10
32.845110
 20
-19.834345
 30
0.0
 11
34.910056
 21
-19.780820
 31
0.0
 11
34.236611
 21
-19.431743
 31
0.0
 11
33.499566
 21
-19.450848
 31
0.0
 11
32.845110
 21
-19.834345
 31
0.0
  0
LINE
  5
118
100
AcDbEntity
  8
0
 62
7
100
AcDbLine
 10
27.223611
 20
-27.223611
 30
0.0
 11
31.693219
 21
-22.754003
 31
0.0
  0
LINE
  5
119
100
AcDbEntity
  8
0
 62
7
100
AcDbLine
 10
0.000000
 20
-0.000000
 30
0.0
 11
27.223611
 21
-27.223611
 31
0.0
  0
LINE
  5
11a
100
AcDbEntity
  8
0
 62
7
100
AcDbLine
 10
22.358348
 20
-0.000000
 30
0.0
 11
0.000000
 21
-0.000000
 31
0.0
  0
LINE
  5
11b
100
AcDbEntity
  8
0
 62
7
100
AcDbLine
 10
22.358348
 20
-6.320980
 30
0.0
 11
22.358348
 21
-0.000000
 31
0.0
  0
SPLINE
  5
11c
100
AcDbEntity
  8
0
 62
7
100
AcDbSpline
 70
0
 71
3
 72
10
 73
6
 74
4
 40
0.000000
 40
0.000000
 40
0.000000
 40
0.000000
 40
0.701033
 40
1.384955
 40
2.085988
 40
2.085988
 40
2.085988
 40
2.085988
 10
31.855161
 20
-20.824295
 30
0.0
 10
31.712540
 20
-21.013418
 30
0.0
 10
31.430779
 20
-21.387050
 30
0.0
 10
31.368566
 20
-22.128389
 30
0.0
 10
31.584114
 20
-22.543755
 30
0.0
 10
31.693219
 20
-22.754003
 30
0.0
 11
31.855161
 21
-20.824295
 31
0.0
 11
31.488907
 21
-21.422045
 31
0.0
 11
31.431713
 21
-22.103572
 31
0.0
 11
31.693219
 21
-22.754003
 31
0.0
  0
LINE
  5
11d
100
AcDbEntity
  8
0
 62
7
100
AcDbLine
 10
21.108348
 20
-9.200000
 30
0.0
 11
21.108348
 21
-7.800000
 31
0.0
  0
SPLINE
  5
11e
100
AcDbEntity
  8
0
 62
7
100
AcDbSpline
 70
0
 71
3
 72
10
 73
6
 74
4
 40
0.000000
 40
0.000000
 40
0.000000
 40
0.000000
 40
0.701033
 40
1.384955
 40
2.085988
 40
2.085988
 40
2.085988
 40
2.085988
 10
22.358348
 20
-6.320980
 30
0.0
 10
22.132531
 20
-6.392499
 30
0.0
 10
21.686408
 20
-6.533792
 30
0.0
 10
21.206193
 20
-7.101989
 30
0.0
 10
21.141230
 20
-7.565421
 30
0.0
 10
21.108348
 20
-7.800000
 30
0.0
 11
22.358348
 21
-6.320980
 31
0.0
 11
21.713510
 21
-6.595992
 31
0.0
 11
21.272040
 21
-7.118347
 31
0.0
 11
21.108348
 21
-7.800000
 31
0.0
  0
SPLINE
  5
11f
100
AcDbEntity
  8
0
 62
7
100
AcDbSpline
 70
0
 71
3
 72
10
 73
6
 74
4
 40
0.000000
 40
0.000000
 40
0.000000
 40
0.000000
 40
0.758540
 40
1.495833
 40
2.254373
 40
2.254373
 40
2.254373
 40
2.254373
 10
21.108348
 20
-9.200000
 30
0.0
 10
21.146908
 20
-9.454079
 30
0.0
 10
21.222949
 20
-9.955121
 30
0.0
 10
21.782467
 20
-10.544417
 30
0.0
 10
22.278896
 20
-10.646314
 30
0.0
 10
22.530637
 20
-10.697986
 30
0.0
 11
21.108348
 21
-9.200000
 31
0.0
 11
21.299944
 21
-9.933944
 31
0.0
 11
21.807605
 21
-10.468623
 31
0.0
 11
22.530637
 21
-10.697986
 31
0.0
  0
SPLINE
  5
120
100
AcDbEntity
  8
0
 62
7
100
AcDbSpline
 70
0
 71
3
 72
13
 73
9
 74
7
 40
0.000000
 40
0.000000
 40
0.000000
 40
0.000000
 40
0.543215
 40
1.078097
 40
1.621312
 40
2.164527
 40
2.699409
 40
3.242624
 40
3.242624
 40
3.242624
 40
3.242624
 10
22.530637
 20
-10.697986
 30
0.0
 10
22.632479
 20
-10.850152
 30
0.0
 10
22.834602
 20
-11.152150
 30
0.0
 10
23.316907
 20
-11.432292
 30
0.0
 10
23.858348
 20
-11.534115
 30
0.0
 10
24.399788
 20
-11.432292
 30
0.0
 10
24.882093
 20
-11.152150
 30
0.0
 10
25.084216
 20
-10.850152
 30
0.0
 10
25.186058
 20
-10.697986
 30
0.0
 11
22.530637
 21
-10.697986
 31
0.0
 11
22.866271
 21
-11.125106
 31
0.0
 11
23.324107
 21
-11.401666
 31
0.0
 11
23.858348
 21
-11.500000
 31
0.0
 11
24.392588
 21
-11.401666
 31
0.0
 11
24.850424
 21
-11.125106
 31
0.0
 11
25.186058
 21
-10.697986
 31
0.0
  0
LINE
  5
121
100
AcDbEntity
  8
0
 62
7
100
AcDbLine
 10
26.608348
 20
-7.800000
 30
0.0
 11
26.608348
 21
-9.200000
 31
0.0
  0
SPLINE
  5
122
100
AcDbEntity
  8
0
 62
7
100
AcDbSpline
 70
0
 71
3
 72
10
 73
6
 74
4
 40
0.000000
 40
0.000000
 40
0.000000
 40
0.000000
 40
0.758540
 40
1.495833
 40
2.254373
 40
2.254373
 40
2.254373
 40
2.254373
 10
25.186058
 20
-10.697986
 30
0.0
 10
25.437799
 20
-10.646314
 30
0.0
 10
25.934229
 20
-10.544417
 30
0.0
 10
26.493746
 20
-9.955122
 30
0.0
 10
26.569787
 20
-9.454079
 30
0.0
 10
26.608348
 20
-9.200000
 30
0.0
 11
25.186058
 21
-10.697986
 31
0.0
 11
25.909091
 21
-10.468623
 31
0.0
 11
26.416751
 21
-9.933944
 31
0.0
 11
26.608348
 21
-9.200000
 31
0.0
  0
LINE
  5
123
100
AcDbEntity
  8
0
 62
7
100
AcDbLine
 10
25.358348
 20
-0.000000
 30
0.0
 11
25.358348
 21
-6.320980
 31
0.0
  0
LINE
  5
124
100
AcDbEntity
  8
0
 62
7
100
AcDbLine
 10
74.898348
 20
-0.000000
 30
0.0
 11
25.358348
 21
-0.000000
 31
0.0
  0
LINE
  5
125
100
AcDbEntity
  8
0
 62
7
100
AcDbLine
 10
74.898348
 20
-6.320980
 30
0.0
 11
74.898348
 21
-0.000000
 31
0.0
  0
SPLINE
  5
126
100
AcDbEntity
  8
0
 62
7
100
AcDbSpline
 70
0
 71
3
 72
10
 73
6
 74
4
 40
0.000000
 40
0.000000
 40
0.000000
 40
0.000000
 40
0.701033
 40
1.384955
 40
2.085988
 40
2.085988
 40
2.085988
 40
2.085988
 10
26.608348
 20
-7.800000
 30
0.0
 10
26.575465
 20
-7.565421
 30
0.0
 10
26.510502
 20
-7.101989
 30
0.0
 10
26.030288
 20
-6.533792
 30
0.0
 10
25.584165
 20
-6.392499
 30
0.0
 10
25.358348
 20
-6.320980
 30
0.0
 11
26.608348
 21
-7.800000
 31
0.0
 11
26.444655
 21
-7.118347
 31
0.0
 11
26.003185
 21
-6.595992
 31
0.0
 11
25.358348
 21
-6.320980
 31
0.0
  0
LINE
  5
127
100
AcDbEntity
  8
0
 62
7
100
AcDbLine
 10
73.648348
 20
-9.200000
 30
0.0
 11
73.648348
 21
-7.800000
 31
0.0
  0
SPLINE
  5
128
100
AcDbEntity
  8
0
 62
7
100
AcDbSpline
 70
0
 71
3
 72
10
 73
6
 74
4
 40
0.000000
 40
0.000000
 40
0.000000
 40
0.000000
 40
0.701033
 40
1.384955
 40
2.085988
 40
2.085988
 40
2.085988
 40
2.085988
 10
74.898348
 20
-6.320980
 30
0.0
 10
74.672530
 20
-6.392499
 30
0.0
 10
74.226407
 20
-6.533792
 30
0.0
 10
73.746193
 20
-7.101989
 30
0.0
 10
73.681230
 20
-7.565421
 30
0.0
 10
73.648348
 20
-7.800000
 30
0.0
 11
74.898348
 21
-6.320980
 31
0.0
 11
74.253510
 21
-6.595992
 31
0.0
 11
73.812040
 21
-7.118347
 31
0.0
 11
73.648348
 21
-7.800000
 31
0.0
  0
SPLINE
  5
129
100
AcDbEntity
  8
0
 62
7
100
AcDbSpline
 70
0
 71
3
 72
10
 73
6
 74
4
 40
0.000000
 40
0.000000
 40
0.000000
 40
0.000000
 40
0.758540
 40
1.495833
 40
2.254373
 40
2.254373
 40
2.254373
 40
2.254373
 10
73.648348
 20
-9.200000
 30
0.0
 10
73.686908
 20
-9.454079
 30
0.0
 10
73.762949
 20
-9.955121
 30
0.0
 10
74.322467
 20
-10.544417
 30
0.0
 10
74.818896
 20
-10.646314
 30
0.0
 10
75.070637
 20
-10.697986
 30
0.0
 11
73.648348
 21
-9.200000
 31
0.0
 11
73.839944
 21
-9.933944
 31
0.0
 11
74.347604
 21
-10.468623
 31
0.0
 11
75.070637
 21
-10.697986
 31
0.0
  0
SPLINE
  5
12a
100
AcDbEntity
  8
0
 62
7
100
AcDbSpline
 70
0
 71
3
 72
13
 73
9
 74
7
 40
0.000000
 40
0.000000
 40
0.000000
 40
0.000000
 40
0.543215
 40
1.078097
 40
1.621312
 40
2.164527
 40
2.699409
 40
3.242624
 40
3.242624
 40
3.242624
 40
3.242624
 10
75.070637
 20
-10.697986
 30
0.0
 10
75.172479
 20
-10.850152
 30
0.0
 10
75.374602
 20
-11.152150
 30
0.0
 10
75.856907
 20
-11.432293
 30
0.0
 10
76.398348
 20
-11.534115
 30
0.0
 10
76.939789
 20
-11.432293
 30
0.0
 10
77.422093
 20
-11.152150
 30
0.0
 10
77.624216
 20
-10.850152
 30
0.0
 10
77.726059
 20
-10.697986
 30
0.0
 11
75.070637
 21
-10.697986
 31
0.0
 11
75.406271
 21
-11.125106
 31
0.0
 11
75.864107
 21
-11.401666
 31
0.0
 11
76.398348
 21
-11.500000
 31
0.0
 11
76.932588
 21
-11.401666
 31
0.0
 11
77.390424
 21
-11.125106
 31
0.0
 11
77.726059
 21
-10.697986
 31
0.0
  0
LINE
  5
12b
100
AcDbEntity
  8
0
 62
7
100
AcDbLine
 10
79.148348
 20
-7.800000
 30
0.0
 11
79.148348
 21
-9.200000
 31
0.0
  0
SPLINE
  5
12c
100
AcDbEntity
  8
0
 62
7
100
AcDbSpline
 70
0
 71
3
 72
10
 73
6
 74
4
 40
0.000000
 40
0.000000
 40
0.000000
 40
0.000000
 40
0.758540
 40
1.495833
 40
2.254373
 40
2.254373
 40
2.254373
 40
2.254373
 10
77.726059
 20
-10.697986
 30
0.0
 10
77.977799
 20
-10.646314
 30
0.0
 10
78.474229
 20
-10.544417
 30
0.0
 10
79.033746
 20
-9.955121
 30
0.0
 10
79.109787
 20
-9.454079
 30
0.0
 10
79.148348
 20
-9.200000
 30
0.0
 11
77.726059
 21
-10.697986
 31
0.0
 11
78.449091
 21
-10.468623
 31
0.0
 11
78.956751
 21
-9.933944
 31
0.0
 11
79.148348
 21
-9.200000
 31
0.0
  0
LINE
  5
12d
100
AcDbEntity
  8
0
 62
7
100
AcDbLine
 10
77.898348
 20
-0.000000
 30
0.0
 11
77.898348
 21
-6.320980
 31
0.0
  0
LINE
  5
12e
100
AcDbEntity
  8
0
 62
7
100
AcDbLine
 10
103.178348
 20
-0.000000
 30
0.0
 11
77.898348
 21
-0.000000
 31
0.0
  0
SPLINE
  5
12f
100
AcDbEntity
  8
0
 62
7
100
AcDbSpline
 70
0
 71
3
 72
10
 73
6
 74
4
 40
0.000000
 40
0.000000
 40
0.000000
 40
0.000000
 40
0.701033
 40
1.384955
 40
2.085988
 40
2.085988
 40
2.085988
 40
2.085988
 10
79.148348
 20
-7.800000
 30
0.0
 10
79.115465
 20
-7.565421
 30
0.0
 10
79.050502
 20
-7.101989
 30
0.0
 10
78.570288
 20
-6.533792
 30
0.0
 10
78.124165
 20
-6.392499
 30
0.0
 10
77.898348
 20
-6.320980
 30
0.0
 11
79.148348
 21
-7.800000
 31
0.0
 11
78.984655
 21
-7.118347
 31
0.0
 11
78.543185
 21
-6.595992
 31
0.0
 11
77.898348
 21
-6.320980
 31
0.0
  0
LINE
  5
130
100
AcDbEntity
  8
0
 62
7
100
AcDbLine
 10
101.178348
 20
-6.250000
 30
0.0
 11
101.178348
 21
-6.250000
 31
0.0
  0
SPLINE
  5
131
100
AcDbEntity
  8
0
 62
7
100
AcDbSpline
 70
0
 71
3
 72
25
 73
21
 74
19
 40
0.000000
 40
0.000000
 40
0.000000
 40
0.000000
 40
0.523591
 40
1.039684
 40
1.563274
 40
2.086865
 40
2.602958
 40
3.126549
 40
3.650140
 40
4.166233
 40
4.689823
 40
5.213414
 40
5.729507
 40
6.253098
 40
6.776689
 40
7.292782
 40
7.816372
 40
8.339963
 40
8.856056
 40
9.379647
 40
9.379647
 40
9.379647
 40
9.379647
 10
101.178348
 20
-6.250000
 30
0.0
 10
101.160492
 20
-6.074571
 30
0.0
 10
101.125035
 20
-5.726226
 30
0.0
 10
100.848987
 20
-5.265817
 30
0.0
 10
100.444682
 20
-4.923498
 30
0.0
 10
99.943960
 20
-4.741936
 30
0.0
 10
99.412621
 20
-4.741936
 30
0.0
 10
98.912597
 20
-4.923498
 30
0.0
 10
98.505503
 20
-5.265817
 30
0.0
 10
98.239818
 20
-5.726226
 30
0.0
 10
98.147391
 20
-6.250000
 30
0.0
 10
98.239818
 20
-6.773774
 30
0.0
 10
98.505503
 20
-7.234183
 30
0.0
 10
98.912597
 20
-7.576502
 30
0.0
 10
99.412621
 20
-7.758064
 30
0.0
 10
99.943960
 20
-7.758064
 30
0.0
 10
100.444682
 20
-7.576502
 30
0.0
 10
100.848987
 20
-7.234183
 30
0.0
 10
101.125035
 20
-6.773774
 30
0.0
 10
101.160492
 20
-6.425429
 30
0.0
 10
101.178348
 20
-6.250000
 30
0.0
 11
101.178348
 21
-6.250000
 31
0.0
 11
101.087210
 21
-5.734402
 31
0.0
 11
100.829293
 21
-5.287378
 31
0.0
 11
100.428535
 21
-4.950420
 31
0.0
 11
99.936394
 21
-4.771690
 31
0.0
 11
99.420301
 21
-4.771690
 31
0.0
 11
98.928160
 21
-4.950420
 31
0.0
 11
98.527403
 21
-5.287378
 31
0.0
 11
98.269485
 21
-5.734402
 31
0.0
 11
98.178348
 21
-6.250000
 31
0.0
 11
98.269485
 21
-6.765598
 31
0.0
 11
98.527403
 21
-7.212622
 31
0.0
 11
98.928160
 21
-7.549580
 31
0.0
 11
99.420301
 21
-7.728310
 31
0.0
 11
99.936394
 21
-7.728310
 31
0.0
 11
100.428535
 21
-7.549580
 31
0.0
 11
100.829293
 21
-7.212622
 31
0.0
 11
101.087210
 21
-6.765598
 31
0.0
 11
101.178348
 21
-6.250000
 31
0.0
  0
ENDSEC
  0
SECTION
  2
OBJECTS
  0
DICTIONARY
  5
C
330
0
100
AcDbDictionary
  3
ACAD_GROUP
350
D
  3
ACAD_MLINESTYLE
350
17
  0
DICTIONARY
  5
D
330
C
100
AcDbDictionary
  0
DICTIONARY
  5
1A
330
C
100
AcDbDictionary
  0
DICTIONARY
  5
17
330
C
100
AcDbDictionary
  3
STANDARD
350
18
  0
DICTIONARY
  5
19
330
C
100
AcDbDictionary
  0
ENDSEC
  0
EOF
