  0
SECTION
  2
HEADER
  9
$ACADVER
  1
AC1014
  9
$HANDSEED
  5
FFFF
  9
$MEASUREMENT
 70
     1
  0
ENDSEC
  0
SECTION
  2
TABLES
  0
TABLE
  2
VPORT
  5
8
330
0
100
AcDbSymbolTable
 70
     4
  0
VPORT
  5
2E
330
8
100
AcDbSymbolTableRecord
100
AcDbViewportTableRecord
  2
*ACTIVE
 70
     0
 10
0.0
 20
0.0
 11
1.0
 21
1.0
 12
210.0
 22
148.5
 13
0.0
 23
0.0
 14
10.0
 24
10.0
 15
10.0
 25
10.0
 16
0.0
 26
0.0
 36
1.0
 17
0.0
 27
0.0
 37
0.0
 40
341.0
 41
1.24
 42
50.0
 43
0.0
 44
0.0
 50
0.0
 51
0.0
 71
     0
 72
   100
 73
     1
 74
     3
 75
     0
 76
     0
 77
     0
 78
     0
  0
ENDTAB
  0
TABLE
  2
LTYPE
  5
5
330
0
100
AcDbSymbolTable
 70
     1
  0
LTYPE
  5
14
330
5
100
AcDbSymbolTableRecord
100
AcDbLinetypeTableRecord
  2
BYBLOCK
 70
     0
  3

 72
    65
 73
     0
 40
0.0
  0
LTYPE
  5
15
330
5
100
AcDbSymbolTableRecord
100
AcDbLinetypeTableRecord
  2
BYLAYER
 70
     0
  3

 72
    65
 73
     0
 40
0.0
  0
LTYPE
  5
16
330
5
100
AcDbSymbolTableRecord
100
AcDbLinetypeTableRecord
  2
CONTINUOUS
 70
     0
  3
Solid line
 72
    65
 73
     0
 40
0.0
  0
ENDTAB
  0
TABLE
  2
LAYER
  5
2
100
AcDbSymbolTable
 70
1
  0
LAYER
  5
50
100
AcDbSymbolTableRecord
100
AcDbLayerTableRecord
  2
0
 70
0
  6
CONTINUOUS
  0
ENDTAB
  0
TABLE
  2
STYLE
  5
3
330
0
100
AcDbSymbolTable
 70
     1
  0
STYLE
  5
11
330
3
100
AcDbSymbolTableRecord
100
AcDbTextStyleTableRecord
  2
STANDARD
 70
     0
 40
0.0
 41
1.0
 50
0.0
 71
     0
 42
2.5
  3
txt
  4

  0
ENDTAB
  0
TABLE
  2
VIEW
  5
6
330
0
100
AcDbSymbolTable
 70
     0
  0
ENDTAB
  0
TABLE
  2
UCS
  5
7
330
0
100
AcDbSymbolTable
 70
     0
  0
ENDTAB
  0
TABLE
  2
APPID
  5
9
330
0
100
AcDbSymbolTable
 70
     2
  0
APPID
  5
12
330
9
100
AcDbSymbolTableRecord
100
AcDbRegAppTableRecord
  2
ACAD
 70
     0
  0
ENDTAB
  0
TABLE
  2
DIMSTYLE
  5
A
330
0
100
AcDbSymbolTable
 70
     1
  0
DIMSTYLE
105
27
330
A
100
AcDbSymbolTableRecord
100
AcDbDimStyleTableRecord
  2
ISO-25
 70
     0
  3

  4

  5

  6

  7

 40
1.0
 41
2.5
 42
0.625
 43
3.75
 44
1.25
 45
0.0
 46
0.0
 47
0.0
 48
0.0
140
2.5
141
2.5
142
0.0
143
0.03937007874016
144
1.0
145
0.0
146
1.0
147
0.625
 71
     0
 72
     0
 73
     0
 74
     0
 75
     0
 76
     0
 77
     1
 78
     8
170
     0
171
     3
172
     1
173
     0
174
     0
175
     0
176
     0
177
     0
178
     0
270
     2
271
     2
272
     2
273
     2
274
     3
340
11
275
     0
280
     0
281
     0
282
     0
283
     0
284
     8
285
     0
286
     0
287
     3
288
     0
  0
ENDTAB
  0
TABLE
  2
BLOCK_RECORD
  5
1
330
0
100
AcDbSymbolTable
 70
     1
  0
BLOCK_RECORD
  5
1F
330
1
100
AcDbSymbolTableRecord
100
AcDbBlockTableRecord
  2
*MODEL_SPACE
  0
BLOCK_RECORD
  5
1B
330
1
100
AcDbSymbolTableRecord
100
AcDbBlockTableRecord
  2
*PAPER_SPACE
  0
ENDTAB
  0
ENDSEC
  0
SECTION
  2
BLOCKS
  0
BLOCK
  5
20
330
1F
100
AcDbEntity
  8
0
100
AcDbBlockBegin
  2
*MODEL_SPACE
 70
     0
 10
0.0
 20
0.0
 30
0.0
  3
*MODEL_SPACE
  1

  0
ENDBLK
  5
21
330
1F
100
AcDbEntity
  8
0
100
AcDbBlockEnd
  0
BLOCK
  5
1C
330
1B
100
AcDbEntity
 67
     1
  8
0
100
AcDbBlockBegin
  2
*PAPER_SPACE
  1

  0
ENDBLK
  5
1D
330
1B
100
AcDbEntity
 67
     1
  8
0
100
AcDbBlockEnd
  0
ENDSEC
  0
SECTION
  2
ENTITIES
  0
LINE
  5
100
100
AcDbEntity
  8
0
 62
7
100
AcDbLine
 10
102.625000
 20
65.800000
 30
0.0
 11
102.625000
 21
65.800000
 31
0.0
  0
SPLINE
  5
101
100
AcDbEntity
  8
0
 62
7
100
AcDbSpline
 70
0
 71
3
 72
25
 73
21
 74
19
 40
0.000000
 40
0.000000
 40
0.000000
 40
0.000000
 40
0.916031
 40
1.818952
 40
2.734983
 40
3.651013
 40
4.553934
 40
5.469965
 40
6.385996
 40
7.288917
 40
8.204948
 40
9.120978
 40
10.023899
 40
10.939930
 40
11.855961
 40
12.758882
 40
13.674913
 40
14.590943
 40
15.493864
 40
16.409895
 40
16.409895
 40
16.409895
 40
16.409895
 10
102.625000
 20
65.800000
 30
0.0
 10
102.593637
 20
66.106901
 30
0.0
 10
102.531359
 20
66.716311
 30
0.0
 10
102.048184
 20
67.521655
 30
0.0
 10
101.340734
 20
68.120407
 30
0.0
 10
100.464690
 20
68.437965
 30
0.0
 10
99.535109
 20
68.437965
 30
0.0
 10
98.660292
 20
68.120407
 30
0.0
 10
97.947943
 20
67.521655
 30
0.0
 10
97.482971
 20
66.716311
 30
0.0
 10
97.320626
 20
65.800000
 30
0.0
 10
97.482971
 20
64.883690
 30
0.0
 10
97.947943
 20
64.078345
 30
0.0
 10
98.660292
 20
63.479593
 30
0.0
 10
99.535109
 20
63.162035
 30
0.0
 10
100.464690
 20
63.162035
 30
0.0
 10
101.340734
 20
63.479593
 30
0.0
 10
102.048184
 20
64.078345
 30
0.0
 10
102.531359
 20
64.883690
 30
0.0
 10
102.593637
 20
65.493099
 30
0.0
 10
102.625000
 20
65.800000
 30
0.0
 11
102.625000
 21
65.800000
 31
0.0
 11
102.465206
 21
66.701986
 31
0.0
 11
102.013746
 21
67.483938
 31
0.0
 11
101.312500
 21
68.073317
 31
0.0
 11
100.451461
 21
68.385924
 31
0.0
 11
99.548540
 21
68.385924
 31
0.0
 11
98.687500
 21
68.073317
 31
0.0
 11
97.986254
 21
67.483938
 31
0.0
 11
97.534794
 21
66.701986
 31
0.0
 11
97.375000
 21
65.800000
 31
0.0
 11
97.534794
 21
64.898014
 31
0.0
 11
97.986254
 21
64.116062
 31
0.0
 11
98.687500
 21
63.526683
 31
0.0
 11
99.548540
 21
63.214076
 31
0.0
 11
100.451461
 21
63.214076
 31
0.0
 11
101.312500
 21
63.526683
 31
0.0
 11
102.013746
 21
64.116062
 31
0.0
 11
102.465206
 21
64.898014
 31
0.0
 11
102.625000
 21
65.800000
 31
0.0
  0
LINE
  5
102
100
AcDbEntity
  8
0
 62
7
100
AcDbLine
 10
-97.375000
 20
65.800000
 30
0.0
 11
-97.375000
 21
65.800000
 31
0.0
  0
LINE
  5
103
100
AcDbEntity
  8
0
 62
7
100
AcDbLine
 10
-34.000000
 20
43.800000
 30
0.0
 11
-34.000000
 21
8.500000
 31
0.0
  0
SPLINE
  5
104
100
AcDbEntity
  8
0
 62
7
100
AcDbSpline
 70
0
 71
3
 72
25
 73
21
 74
19
 40
0.000000
 40
0.000000
 40
0.000000
 40
0.000000
 40
0.916031
 40
1.818952
 40
2.734983
 40
3.651013
 40
4.553934
 40
5.469965
 40
6.385996
 40
7.288917
 40
8.204948
 40
9.120978
 40
10.023899
 40
10.939930
 40
11.855961
 40
12.758882
 40
13.674913
 40
14.590943
 40
15.493864
 40
16.409895
 40
16.409895
 40
16.409895
 40
16.409895
 10
-97.375000
 20
65.800000
 30
0.0
 10
-97.406364
 20
66.106901
 30
0.0
 10
-97.468641
 20
66.716311
 30
0.0
 10
-97.951816
 20
67.521655
 30
0.0
 10
-98.659266
 20
68.120407
 30
0.0
 10
-99.535310
 20
68.437965
 30
0.0
 10
-100.464891
 20
68.437965
 30
0.0
 10
-101.339708
 20
68.120407
 30
0.0
 10
-102.052057
 20
67.521655
 30
0.0
 10
-102.517029
 20
66.716311
 30
0.0
 10
-102.679375
 20
65.800000
 30
0.0
 10
-102.517029
 20
64.883690
 30
0.0
 10
-102.052057
 20
64.078345
 30
0.0
 10
-101.339708
 20
63.479593
 30
0.0
 10
-100.464891
 20
63.162035
 30
0.0
 10
-99.535310
 20
63.162035
 30
0.0
 10
-98.659266
 20
63.479593
 30
0.0
 10
-97.951816
 20
64.078345
 30
0.0
 10
-97.468641
 20
64.883690
 30
0.0
 10
-97.406364
 20
65.493099
 30
0.0
 10
-97.375000
 20
65.800000
 30
0.0
 11
-97.375000
 21
65.800000
 31
0.0
 11
-97.534794
 21
66.701986
 31
0.0
 11
-97.986254
 21
67.483938
 31
0.0
 11
-98.687500
 21
68.073317
 31
0.0
 11
-99.548540
 21
68.385924
 31
0.0
 11
-100.451461
 21
68.385924
 31
0.0
 11
-101.312500
 21
68.073317
 31
0.0
 11
-102.013746
 21
67.483938
 31
0.0
 11
-102.465206
 21
66.701986
 31
0.0
 11
-102.625000
 21
65.800000
 31
0.0
 11
-102.465206
 21
64.898014
 31
0.0
 11
-102.013746
 21
64.116062
 31
0.0
 11
-101.312500
 21
63.526683
 31
0.0
 11
-100.451461
 21
63.214076
 31
0.0
 11
-99.548540
 21
63.214076
 31
0.0
 11
-98.687500
 21
63.526683
 31
0.0
 11
-97.986254
 21
64.116062
 31
0.0
 11
-97.534794
 21
64.898014
 31
0.0
 11
-97.375000
 21
65.800000
 31
0.0
  0
LINE
  5
105
100
AcDbEntity
  8
0
 62
7
100
AcDbLine
 10
-24.000000
 20
-1.500000
 30
0.0
 11
24.000000
 21
-1.500000
 31
0.0
  0
SPLINE
  5
106
100
AcDbEntity
  8
0
 62
7
100
AcDbSpline
 70
0
 71
3
 72
13
 73
9
 74
7
 40
0.000000
 40
0.000000
 40
0.000000
 40
0.000000
 40
2.617749
 40
5.213835
 40
7.831584
 40
10.449332
 40
13.045418
 40
15.663167
 40
15.663167
 40
15.663167
 40
15.663167
 10
-34.000000
 20
8.500000
 30
0.0
 10
-33.933338
 20
7.624868
 30
0.0
 10
-33.800564
 20
5.881845
 30
0.0
 10
-32.751312
 20
3.443433
 30
0.0
 10
-31.154979
 20
1.345021
 30
0.0
 10
-29.056567
 20
-0.251312
 30
0.0
 10
-26.618155
 20
-1.300564
 30
0.0
 10
-24.875132
 20
-1.433337
 30
0.0
 10
-24.000000
 20
-1.500000
 30
0.0
 11
-34.000000
 21
8.500000
 31
0.0
 11
-33.657395
 21
5.904768
 31
0.0
 11
-32.663916
 21
3.506297
 31
0.0
 11
-31.071068
 21
1.428932
 31
0.0
 11
-28.993703
 21
-0.163916
 31
0.0
 11
-26.595232
 21
-1.157395
 31
0.0
 11
-24.000000
 21
-1.500000
 31
0.0
  0
LINE
  5
107
100
AcDbEntity
  8
0
 62
7
100
AcDbLine
 10
34.000000
 20
8.500000
 30
0.0
 11
34.000000
 21
43.800000
 31
0.0
  0
SPLINE
  5
108
100
AcDbEntity
  8
0
 62
7
100
AcDbSpline
 70
0
 71
3
 72
13
 73
9
 74
7
 40
0.000000
 40
0.000000
 40
0.000000
 40
0.000000
 40
2.617749
 40
5.213835
 40
7.831584
 40
10.449332
 40
13.045418
 40
15.663167
 40
15.663167
 40
15.663167
 40
15.663167
 10
24.000000
 20
-1.500000
 30
0.0
 10
24.875132
 20
-1.433337
 30
0.0
 10
26.618155
 20
-1.300564
 30
0.0
 10
29.056567
 20
-0.251312
 30
0.0
 10
31.154979
 20
1.345021
 30
0.0
 10
32.751312
 20
3.443433
 30
0.0
 10
33.800564
 20
5.881845
 30
0.0
 10
33.933338
 20
7.624868
 30
0.0
 10
34.000000
 20
8.500000
 30
0.0
 11
24.000000
 21
-1.500000
 31
0.0
 11
26.595232
 21
-1.157395
 31
0.0
 11
28.993703
 21
-0.163916
 31
0.0
 11
31.071068
 21
1.428932
 31
0.0
 11
32.663916
 21
3.506297
 31
0.0
 11
33.657395
 21
5.904768
 31
0.0
 11
34.000000
 21
8.500000
 31
0.0
  0
LINE
  5
109
100
AcDbEntity
  8
0
 62
7
100
AcDbLine
 10
44.000000
 20
53.800000
 30
0.0
 11
110.000000
 21
53.800000
 31
0.0
  0
LINE
  5
10a
100
AcDbEntity
  8
0
 62
7
100
AcDbLine
 10
110.000000
 20
53.800000
 30
0.0
 11
110.000000
 21
110.300000
 31
0.0
  0
LINE
  5
10b
100
AcDbEntity
  8
0
 62
7
100
AcDbLine
 10
110.000000
 20
110.300000
 30
0.0
 11
-110.000000
 21
110.300000
 31
0.0
  0
LINE
  5
10c
100
AcDbEntity
  8
0
 62
7
100
AcDbLine
 10
-110.000000
 20
110.300000
 30
0.0
 11
-110.000000
 21
53.800000
 31
0.0
  0
LINE
  5
10d
100
AcDbEntity
  8
0
 62
7
100
AcDbLine
 10
-110.000000
 20
53.800000
 30
0.0
 11
-44.000000
 21
53.800000
 31
0.0
  0
SPLINE
  5
10e
100
AcDbEntity
  8
0
 62
7
100
AcDbSpline
 70
0
 71
3
 72
13
 73
9
 74
7
 40
0.000000
 40
0.000000
 40
0.000000
 40
0.000000
 40
2.617749
 40
5.213835
 40
7.831584
 40
10.449332
 40
13.045418
 40
15.663167
 40
15.663167
 40
15.663167
 40
15.663167
 10
44.000000
 20
53.800000
 30
0.0
 10
43.124868
 20
53.733338
 30
0.0
 10
41.381845
 20
53.600564
 30
0.0
 10
38.943433
 20
52.551312
 30
0.0
 10
36.845021
 20
50.954979
 30
0.0
 10
35.248688
 20
48.856567
 30
0.0
 10
34.199436
 20
46.418155
 30
0.0
 10
34.066662
 20
44.675132
 30
0.0
 10
34.000000
 20
43.800000
 30
0.0
 11
44.000000
 21
53.800000
 31
0.0
 11
41.404768
 21
53.457395
 31
0.0
 11
39.006297
 21
52.463916
 31
0.0
 11
36.928932
 21
50.871068
 31
0.0
 11
35.336084
 21
48.793703
 31
0.0
 11
34.342605
 21
46.395232
 31
0.0
 11
34.000000
 21
43.800000
 31
0.0
  0
SPLINE
  5
10f
100
AcDbEntity
  8
0
 62
7
100
AcDbSpline
 70
0
 71
3
 72
13
 73
9
 74
7
 40
0.000000
 40
0.000000
 40
0.000000
 40
0.000000
 40
2.617749
 40
5.213835
 40
7.831584
 40
10.449332
 40
13.045418
 40
15.663167
 40
15.663167
 40
15.663167
 40
15.663167
 10
-34.000000
 20
43.800000
 30
0.0
 10
-34.066662
 20
44.675132
 30
0.0
 10
-34.199436
 20
46.418155
 30
0.0
 10
-35.248688
 20
48.856567
 30
0.0
 10
-36.845021
 20
50.954979
 30
0.0
 10
-38.943433
 20
52.551312
 30
0.0
 10
-41.381845
 20
53.600564
 30
0.0
 10
-43.124868
 20
53.733338
 30
0.0
 10
-44.000000
 20
53.800000
 30
0.0
 11
-34.000000
 21
43.800000
 31
0.0
 11
-34.342605
 21
46.395232
 31
0.0
 11
-35.336084
 21
48.793703
 31
0.0
 11
-36.928932
 21
50.871068
 31
0.0
 11
-39.006297
 21
52.463916
 31
0.0
 11
-41.404768
 21
53.457395
 31
0.0
 11
-44.000000
 21
53.800000
 31
0.0
  0
LINE
  5
110
100
AcDbEntity
  8
0
 62
7
100
AcDbLine
 10
-40.350000
 20
69.700000
 30
0.0
 11
-40.350000
 21
69.700000
 31
0.0
  0
SPLINE
  5
111
100
AcDbEntity
  8
0
 62
7
100
AcDbSpline
 70
0
 71
3
 72
25
 73
21
 74
19
 40
0.000000
 40
0.000000
 40
0.000000
 40
0.000000
 40
0.750273
 40
1.489808
 40
2.240081
 40
2.990354
 40
3.729889
 40
4.480162
 40
5.230435
 40
5.969970
 40
6.720243
 40
7.470516
 40
8.210051
 40
8.960324
 40
9.710596
 40
10.450132
 40
11.200404
 40
11.950677
 40
12.690213
 40
13.440485
 40
13.440485
 40
13.440485
 40
13.440485
 10
-40.350000
 20
69.700000
 30
0.0
 10
-40.375688
 20
69.951366
 30
0.0
 10
-40.426697
 20
70.450502
 30
0.0
 10
-40.822440
 20
71.110117
 30
0.0
 10
-41.401875
 20
71.600524
 30
0.0
 10
-42.119397
 20
71.860619
 30
0.0
 10
-42.880768
 20
71.860619
 30
0.0
 10
-43.597284
 20
71.600524
 30
0.0
 10
-44.180732
 20
71.110117
 30
0.0
 10
-44.561567
 20
70.450502
 30
0.0
 10
-44.694535
 20
69.700000
 30
0.0
 10
-44.561567
 20
68.949498
 30
0.0
 10
-44.180732
 20
68.289883
 30
0.0
 10
-43.597284
 20
67.799476
 30
0.0
 10
-42.880768
 20
67.539381
 30
0.0
 10
-42.119397
 20
67.539381
 30
0.0
 10
-41.401875
 20
67.799476
 30
0.0
 10
-40.822440
 20
68.289883
 30
0.0
 10
-40.426697
 20
68.949498
 30
0.0
 10
-40.375688
 20
69.448633
 30
0.0
 10
-40.350000
 20
69.700000
 30
0.0
 11
-40.350000
 21
69.700000
 31
0.0
 11
-40.480879
 21
70.438769
 31
0.0
 11
-40.850646
 21
71.079226
 31
0.0
 11
-41.425000
 21
71.561954
 31
0.0
 11
-42.130232
 21
71.817995
 31
0.0
 11
-42.869768
 21
71.817995
 31
0.0
 11
-43.575000
 21
71.561954
 31
0.0
 11
-44.149354
 21
71.079226
 31
0.0
 11
-44.519121
 21
70.438769
 31
0.0
 11
-44.650000
 21
69.700000
 31
0.0
 11
-44.519121
 21
68.961231
 31
0.0
 11
-44.149354
 21
68.320774
 31
0.0
 11
-43.575000
 21
67.838045
 31
0.0
 11
-42.869768
 21
67.582005
 31
0.0
 11
-42.130232
 21
67.582005
 31
0.0
 11
-41.425000
 21
67.838045
 31
0.0
 11
-40.850646
 21
68.320774
 31
0.0
 11
-40.480879
 21
68.961231
 31
0.0
 11
-40.350000
 21
69.700000
 31
0.0
  0
LINE
  5
112
100
AcDbEntity
  8
0
 62
7
100
AcDbLine
 10
-72.100000
 20
69.700000
 30
0.0
 11
-72.100000
 21
69.700000
 31
0.0
  0
SPLINE
  5
113
100
AcDbEntity
  8
0
 62
7
100
AcDbSpline
 70
0
 71
3
 72
25
 73
21
 74
19
 40
0.000000
 40
0.000000
 40
0.000000
 40
0.000000
 40
0.750273
 40
1.489808
 40
2.240081
 40
2.990354
 40
3.729889
 40
4.480162
 40
5.230435
 40
5.969970
 40
6.720243
 40
7.470516
 40
8.210051
 40
8.960324
 40
9.710596
 40
10.450132
 40
11.200404
 40
11.950677
 40
12.690213
 40
13.440485
 40
13.440485
 40
13.440485
 40
13.440485
 10
-72.100000
 20
69.700000
 30
0.0
 10
-72.125688
 20
69.951366
 30
0.0
 10
-72.176697
 20
70.450502
 30
0.0
 10
-72.572440
 20
71.110117
 30
0.0
 10
-73.151875
 20
71.600524
 30
0.0
 10
-73.869397
 20
71.860619
 30
0.0
 10
-74.630768
 20
71.860619
 30
0.0
 10
-75.347284
 20
71.600524
 30
0.0
 10
-75.930732
 20
71.110117
 30
0.0
 10
-76.311567
 20
70.450502
 30
0.0
 10
-76.444535
 20
69.700000
 30
0.0
 10
-76.311567
 20
68.949498
 30
0.0
 10
-75.930732
 20
68.289883
 30
0.0
 10
-75.347284
 20
67.799476
 30
0.0
 10
-74.630768
 20
67.539381
 30
0.0
 10
-73.869397
 20
67.539381
 30
0.0
 10
-73.151875
 20
67.799476
 30
0.0
 10
-72.572440
 20
68.289883
 30
0.0
 10
-72.176697
 20
68.949498
 30
0.0
 10
-72.125688
 20
69.448633
 30
0.0
 10
-72.100000
 20
69.700000
 30
0.0
 11
-72.100000
 21
69.700000
 31
0.0
 11
-72.230879
 21
70.438769
 31
0.0
 11
-72.600646
 21
71.079226
 31
0.0
 11
-73.175000
 21
71.561954
 31
0.0
 11
-73.880232
 21
71.817995
 31
0.0
 11
-74.619768
 21
71.817995
 31
0.0
 11
-75.325000
 21
71.561954
 31
0.0
 11
-75.899354
 21
71.079226
 31
0.0
 11
-76.269121
 21
70.438769
 31
0.0
 11
-76.400000
 21
69.700000
 31
0.0
 11
-76.269121
 21
68.961231
 31
0.0
 11
-75.899354
 21
68.320774
 31
0.0
 11
-75.325000
 21
67.838045
 31
0.0
 11
-74.619768
 21
67.582005
 31
0.0
 11
-73.880232
 21
67.582005
 31
0.0
 11
-73.175000
 21
67.838045
 31
0.0
 11
-72.600646
 21
68.320774
 31
0.0
 11
-72.230879
 21
68.961231
 31
0.0
 11
-72.100000
 21
69.700000
 31
0.0
  0
LINE
  5
114
100
AcDbEntity
  8
0
 62
7
100
AcDbLine
 10
44.650000
 20
69.700000
 30
0.0
 11
44.650000
 21
69.700000
 31
0.0
  0
SPLINE
  5
115
100
AcDbEntity
  8
0
 62
7
100
AcDbSpline
 70
0
 71
3
 72
25
 73
21
 74
19
 40
0.000000
 40
0.000000
 40
0.000000
 40
0.000000
 40
0.750273
 40
1.489808
 40
2.240081
 40
2.990354
 40
3.729889
 40
4.480162
 40
5.230435
 40
5.969970
 40
6.720243
 40
7.470516
 40
8.210051
 40
8.960324
 40
9.710597
 40
10.450132
 40
11.200405
 40
11.950677
 40
12.690213
 40
13.440486
 40
13.440486
 40
13.440486
 40
13.440486
 10
44.650000
 20
69.700000
 30
0.0
 10
44.624312
 20
69.951366
 30
0.0
 10
44.573303
 20
70.450502
 30
0.0
 10
44.177560
 20
71.110117
 30
0.0
 10
43.598125
 20
71.600524
 30
0.0
 10
42.880603
 20
71.860619
 30
0.0
 10
42.119232
 20
71.860619
 30
0.0
 10
41.402716
 20
71.600524
 30
0.0
 10
40.819268
 20
71.110117
 30
0.0
 10
40.438433
 20
70.450502
 30
0.0
 10
40.305465
 20
69.700000
 30
0.0
 10
40.438433
 20
68.949498
 30
0.0
 10
40.819268
 20
68.289883
 30
0.0
 10
41.402716
 20
67.799476
 30
0.0
 10
42.119232
 20
67.539381
 30
0.0
 10
42.880603
 20
67.539381
 30
0.0
 10
43.598125
 20
67.799476
 30
0.0
 10
44.177560
 20
68.289883
 30
0.0
 10
44.573303
 20
68.949498
 30
0.0
 10
44.624312
 20
69.448633
 30
0.0
 10
44.650000
 20
69.700000
 30
0.0
 11
44.650000
 21
69.700000
 31
0.0
 11
44.519121
 21
70.438769
 31
0.0
 11
44.149354
 21
71.079226
 31
0.0
 11
43.575000
 21
71.561954
 31
0.0
 11
42.869768
 21
71.817995
 31
0.0
 11
42.130232
 21
71.817995
 31
0.0
 11
41.425000
 21
71.561954
 31
0.0
 11
40.850646
 21
71.079226
 31
0.0
 11
40.480879
 21
70.438769
 31
0.0
 11
40.350000
 21
69.700000
 31
0.0
 11
40.480879
 21
68.961231
 31
0.0
 11
40.850646
 21
68.320774
 31
0.0
 11
41.425000
 21
67.838045
 31
0.0
 11
42.130232
 21
67.582005
 31
0.0
 11
42.869768
 21
67.582005
 31
0.0
 11
43.575000
 21
67.838045
 31
0.0
 11
44.149354
 21
68.320774
 31
0.0
 11
44.519121
 21
68.961231
 31
0.0
 11
44.650000
 21
69.700000
 31
0.0
  0
LINE
  5
116
100
AcDbEntity
  8
0
 62
7
100
AcDbLine
 10
76.400000
 20
69.700000
 30
0.0
 11
76.400000
 21
69.700000
 31
0.0
  0
SPLINE
  5
117
100
AcDbEntity
  8
0
 62
7
100
AcDbSpline
 70
0
 71
3
 72
25
 73
21
 74
19
 40
0.000000
 40
0.000000
 40
0.000000
 40
0.000000
 40
0.750273
 40
1.489808
 40
2.240081
 40
2.990354
 40
3.729889
 40
4.480162
 40
5.230435
 40
5.969970
 40
6.720243
 40
7.470516
 40
8.210051
 40
8.960324
 40
9.710596
 40
10.450132
 40
11.200404
 40
11.950677
 40
12.690213
 40
13.440485
 40
13.440485
 40
13.440485
 40
13.440485
 10
76.400000
 20
69.700000
 30
0.0
 10
76.374312
 20
69.951366
 30
0.0
 10
76.323303
 20
70.450502
 30
0.0
 10
75.927560
 20
71.110117
 30
0.0
 10
75.348125
 20
71.600524
 30
0.0
 10
74.630603
 20
71.860619
 30
0.0
 10
73.869232
 20
71.860619
 30
0.0
 10
73.152716
 20
71.600524
 30
0.0
 10
72.569268
 20
71.110117
 30
0.0
 10
72.188433
 20
70.450502
 30
0.0
 10
72.055465
 20
69.700000
 30
0.0
 10
72.188433
 20
68.949498
 30
0.0
 10
72.569268
 20
68.289883
 30
0.0
 10
73.152716
 20
67.799476
 30
0.0
 10
73.869232
 20
67.539381
 30
0.0
 10
74.630603
 20
67.539381
 30
0.0
 10
75.348125
 20
67.799476
 30
0.0
 10
75.927560
 20
68.289883
 30
0.0
 10
76.323303
 20
68.949498
 30
0.0
 10
76.374312
 20
69.448633
 30
0.0
 10
76.400000
 20
69.700000
 30
0.0
 11
76.400000
 21
69.700000
 31
0.0
 11
76.269121
 21
70.438769
 31
0.0
 11
75.899354
 21
71.079226
 31
0.0
 11
75.325000
 21
71.561954
 31
0.0
 11
74.619768
 21
71.817995
 31
0.0
 11
73.880232
 21
71.817995
 31
0.0
 11
73.175000
 21
71.561954
 31
0.0
 11
72.600646
 21
71.079226
 31
0.0
 11
72.230879
 21
70.438769
 31
0.0
 11
72.100000
 21
69.700000
 31
0.0
 11
72.230879
 21
68.961231
 31
0.0
 11
72.600646
 21
68.320774
 31
0.0
 11
73.175000
 21
67.838045
 31
0.0
 11
73.880232
 21
67.582005
 31
0.0
 11
74.619768
 21
67.582005
 31
0.0
 11
75.325000
 21
67.838045
 31
0.0
 11
75.899354
 21
68.320774
 31
0.0
 11
76.269121
 21
68.961231
 31
0.0
 11
76.400000
 21
69.700000
 31
0.0
  0
LINE
  5
118
100
AcDbEntity
  8
0
 62
7
100
AcDbLine
 10
-13.900000
 20
78.150000
 30
0.0
 11
-13.900000
 21
78.150000
 31
0.0
  0
SPLINE
  5
119
100
AcDbEntity
  8
0
 62
7
100
AcDbSpline
 70
0
 71
3
 72
25
 73
21
 74
19
 40
0.000000
 40
0.000000
 40
0.000000
 40
0.000000
 40
0.558343
 40
1.108694
 40
1.667037
 40
2.225379
 40
2.775731
 40
3.334074
 40
3.892416
 40
4.442768
 40
5.001111
 40
5.559453
 40
6.109805
 40
6.668148
 40
7.226490
 40
7.776842
 40
8.335184
 40
8.893527
 40
9.443879
 40
10.002221
 40
10.002221
 40
10.002221
 40
10.002221
 10
-13.900000
 20
78.150000
 30
0.0
 10
-13.919117
 20
78.337063
 30
0.0
 10
-13.957077
 20
78.708513
 30
0.0
 10
-14.251583
 20
79.199389
 30
0.0
 10
-14.682791
 20
79.564343
 30
0.0
 10
-15.216760
 20
79.757903
 30
0.0
 10
-15.783362
 20
79.757903
 30
0.0
 10
-16.316584
 20
79.564343
 30
0.0
 10
-16.750777
 20
79.199389
 30
0.0
 10
-17.034189
 20
78.708513
 30
0.0
 10
-17.133142
 20
78.150000
 30
0.0
 10
-17.034189
 20
77.591487
 30
0.0
 10
-16.750777
 20
77.100610
 30
0.0
 10
-16.316584
 20
76.735657
 30
0.0
 10
-15.783362
 20
76.542097
 30
0.0
 10
-15.216760
 20
76.542097
 30
0.0
 10
-14.682791
 20
76.735657
 30
0.0
 10
-14.251583
 20
77.100610
 30
0.0
 10
-13.957077
 20
77.591487
 30
0.0
 10
-13.919117
 20
77.962937
 30
0.0
 10
-13.900000
 20
78.150000
 30
0.0
 11
-13.900000
 21
78.150000
 31
0.0
 11
-13.997398
 21
78.699782
 31
0.0
 11
-14.272574
 21
79.176400
 31
0.0
 11
-14.700000
 21
79.535641
 31
0.0
 11
-15.224824
 21
79.726182
 31
0.0
 11
-15.775176
 21
79.726182
 31
0.0
 11
-16.300000
 21
79.535641
 31
0.0
 11
-16.727426
 21
79.176400
 31
0.0
 11
-17.002602
 21
78.699782
 31
0.0
 11
-17.100000
 21
78.150000
 31
0.0
 11
-17.002602
 21
77.600218
 31
0.0
 11
-16.727426
 21
77.123600
 31
0.0
 11
-16.300000
 21
76.764359
 31
0.0
 11
-15.775176
 21
76.573818
 31
0.0
 11
-15.224824
 21
76.573818
 31
0.0
 11
-14.700000
 21
76.764359
 31
0.0
 11
-14.272574
 21
77.123600
 31
0.0
 11
-13.997398
 21
77.600218
 31
0.0
 11
-13.900000
 21
78.150000
 31
0.0
  0
LINE
  5
11a
100
AcDbEntity
  8
0
 62
7
100
AcDbLine
 10
-13.900000
 20
47.150000
 30
0.0
 11
-13.900000
 21
47.150000
 31
0.0
  0
SPLINE
  5
11b
100
AcDbEntity
  8
0
 62
7
100
AcDbSpline
 70
0
 71
3
 72
25
 73
21
 74
19
 40
0.000000
 40
0.000000
 40
0.000000
 40
0.000000
 40
0.558343
 40
1.108694
 40
1.667037
 40
2.225379
 40
2.775731
 40
3.334074
 40
3.892416
 40
4.442768
 40
5.001111
 40
5.559453
 40
6.109805
 40
6.668148
 40
7.226490
 40
7.776842
 40
8.335184
 40
8.893527
 40
9.443879
 40
10.002221
 40
10.002221
 40
10.002221
 40
10.002221
 10
-13.900000
 20
47.150000
 30
0.0
 10
-13.919117
 20
47.337063
 30
0.0
 10
-13.957077
 20
47.708513
 30
0.0
 10
-14.251583
 20
48.199389
 30
0.0
 10
-14.682791
 20
48.564343
 30
0.0
 10
-15.216760
 20
48.757902
 30
0.0
 10
-15.783362
 20
48.757902
 30
0.0
 10
-16.316584
 20
48.564343
 30
0.0
 10
-16.750777
 20
48.199389
 30
0.0
 10
-17.034189
 20
47.708513
 30
0.0
 10
-17.133142
 20
47.150000
 30
0.0
 10
-17.034189
 20
46.591487
 30
0.0
 10
-16.750777
 20
46.100610
 30
0.0
 10
-16.316584
 20
45.735657
 30
0.0
 10
-15.783362
 20
45.542097
 30
0.0
 10
-15.216760
 20
45.542097
 30
0.0
 10
-14.682791
 20
45.735657
 30
0.0
 10
-14.251583
 20
46.100610
 30
0.0
 10
-13.957077
 20
46.591487
 30
0.0
 10
-13.919117
 20
46.962936
 30
0.0
 10
-13.900000
 20
47.150000
 30
0.0
 11
-13.900000
 21
47.150000
 31
0.0
 11
-13.997398
 21
47.699782
 31
0.0
 11
-14.272574
 21
48.176400
 31
0.0
 11
-14.700000
 21
48.535640
 31
0.0
 11
-15.224824
 21
48.726182
 31
0.0
 11
-15.775176
 21
48.726182
 31
0.0
 11
-16.300000
 21
48.535640
 31
0.0
 11
-16.727426
 21
48.176400
 31
0.0
 11
-17.002602
 21
47.699782
 31
0.0
 11
-17.100000
 21
47.150000
 31
0.0
 11
-17.002602
 21
46.600218
 31
0.0
 11
-16.727426
 21
46.123599
 31
0.0
 11
-16.300000
 21
45.764359
 31
0.0
 11
-15.775176
 21
45.573818
 31
0.0
 11
-15.224824
 21
45.573818
 31
0.0
 11
-14.700000
 21
45.764359
 31
0.0
 11
-14.272574
 21
46.123599
 31
0.0
 11
-13.997398
 21
46.600218
 31
0.0
 11
-13.900000
 21
47.150000
 31
0.0
  0
LINE
  5
11c
100
AcDbEntity
  8
0
 62
7
100
AcDbLine
 10
17.100000
 20
47.150000
 30
0.0
 11
17.100000
 21
47.150000
 31
0.0
  0
SPLINE
  5
11d
100
AcDbEntity
  8
0
 62
7
100
AcDbSpline
 70
0
 71
3
 72
25
 73
21
 74
19
 40
0.000000
 40
0.000000
 40
0.000000
 40
0.000000
 40
0.558343
 40
1.108694
 40
1.667037
 40
2.225379
 40
2.775731
 40
3.334074
 40
3.892416
 40
4.442768
 40
5.001111
 40
5.559453
 40
6.109805
 40
6.668148
 40
7.226490
 40
7.776842
 40
8.335184
 40
8.893527
 40
9.443879
 40
10.002221
 40
10.002221
 40
10.002221
 40
10.002221
 10
17.100000
 20
47.150000
 30
0.0
 10
17.080883
 20
47.337063
 30
0.0
 10
17.042923
 20
47.708513
 30
0.0
 10
16.748417
 20
48.199389
 30
0.0
 10
16.317209
 20
48.564343
 30
0.0
 10
15.783240
 20
48.757902
 30
0.0
 10
15.216638
 20
48.757902
 30
0.0
 10
14.683416
 20
48.564343
 30
0.0
 10
14.249223
 20
48.199389
 30
0.0
 10
13.965811
 20
47.708513
 30
0.0
 10
13.866858
 20
47.150000
 30
0.0
 10
13.965811
 20
46.591487
 30
0.0
 10
14.249223
 20
46.100610
 30
0.0
 10
14.683416
 20
45.735657
 30
0.0
 10
15.216638
 20
45.542097
 30
0.0
 10
15.783240
 20
45.542097
 30
0.0
 10
16.317209
 20
45.735657
 30
0.0
 10
16.748417
 20
46.100610
 30
0.0
 10
17.042923
 20
46.591487
 30
0.0
 10
17.080883
 20
46.962936
 30
0.0
 10
17.100000
 20
47.150000
 30
0.0
 11
17.100000
 21
47.150000
 31
0.0
 11
17.002602
 21
47.699782
 31
0.0
 11
16.727426
 21
48.176400
 31
0.0
 11
16.300000
 21
48.535640
 31
0.0
 11
15.775176
 21
48.726182
 31
0.0
 11
15.224824
 21
48.726182
 31
0.0
 11
14.700000
 21
48.535640
 31
0.0
 11
14.272574
 21
48.176400
 31
0.0
 11
13.997398
 21
47.699782
 31
0.0
 11
13.900000
 21
47.150000
 31
0.0
 11
13.997398
 21
46.600218
 31
0.0
 11
14.272574
 21
46.123599
 31
0.0
 11
14.700000
 21
45.764359
 31
0.0
 11
15.224824
 21
45.573818
 31
0.0
 11
15.775176
 21
45.573818
 31
0.0
 11
16.300000
 21
45.764359
 31
0.0
 11
16.727426
 21
46.123599
 31
0.0
 11
17.002602
 21
46.600218
 31
0.0
 11
17.100000
 21
47.150000
 31
0.0
  0
LINE
  5
11e
100
AcDbEntity
  8
0
 62
7
100
AcDbLine
 10
17.100000
 20
78.150000
 30
0.0
 11
17.100000
 21
78.150000
 31
0.0
  0
SPLINE
  5
11f
100
AcDbEntity
  8
0
 62
7
100
AcDbSpline
 70
0
 71
3
 72
25
 73
21
 74
19
 40
0.000000
 40
0.000000
 40
0.000000
 40
0.000000
 40
0.558343
 40
1.108694
 40
1.667037
 40
2.225379
 40
2.775731
 40
3.334074
 40
3.892416
 40
4.442768
 40
5.001111
 40
5.559453
 40
6.109805
 40
6.668148
 40
7.226490
 40
7.776842
 40
8.335184
 40
8.893527
 40
9.443879
 40
10.002221
 40
10.002221
 40
10.002221
 40
10.002221
 10
17.100000
 20
78.150000
 30
0.0
 10
17.080883
 20
78.337063
 30
0.0
 10
17.042923
 20
78.708513
 30
0.0
 10
16.748417
 20
79.199389
 30
0.0
 10
16.317209
 20
79.564343
 30
0.0
 10
15.783240
 20
79.757903
 30
0.0
 10
15.216638
 20
79.757903
 30
0.0
 10
14.683416
 20
79.564343
 30
0.0
 10
14.249223
 20
79.199389
 30
0.0
 10
13.965811
 20
78.708513
 30
0.0
 10
13.866858
 20
78.150000
 30
0.0
 10
13.965811
 20
77.591487
 30
0.0
 10
14.249223
 20
77.100610
 30
0.0
 10
14.683416
 20
76.735657
 30
0.0
 10
15.216638
 20
76.542097
 30
0.0
 10
15.783240
 20
76.542097
 30
0.0
 10
16.317209
 20
76.735657
 30
0.0
 10
16.748417
 20
77.100610
 30
0.0
 10
17.042923
 20
77.591487
 30
0.0
 10
17.080883
 20
77.962937
 30
0.0
 10
17.100000
 20
78.150000
 30
0.0
 11
17.100000
 21
78.150000
 31
0.0
 11
17.002602
 21
78.699782
 31
0.0
 11
16.727426
 21
79.176400
 31
0.0
 11
16.300000
 21
79.535641
 31
0.0
 11
15.775176
 21
79.726182
 31
0.0
 11
15.224824
 21
79.726182
 31
0.0
 11
14.700000
 21
79.535641
 31
0.0
 11
14.272574
 21
79.176400
 31
0.0
 11
13.997398
 21
78.699782
 31
0.0
 11
13.900000
 21
78.150000
 31
0.0
 11
13.997398
 21
77.600218
 31
0.0
 11
14.272574
 21
77.123600
 31
0.0
 11
14.700000
 21
76.764359
 31
0.0
 11
15.224824
 21
76.573818
 31
0.0
 11
15.775176
 21
76.573818
 31
0.0
 11
16.300000
 21
76.764359
 31
0.0
 11
16.727426
 21
77.123600
 31
0.0
 11
17.002602
 21
77.600218
 31
0.0
 11
17.100000
 21
78.150000
 31
0.0
  0
LINE
  5
120
100
AcDbEntity
  8
0
 62
7
100
AcDbLine
 10
11.500000
 20
62.650000
 30
0.0
 11
11.500000
 21
62.650000
 31
0.0
  0
SPLINE
  5
121
100
AcDbEntity
  8
0
 62
7
100
AcDbSpline
 70
0
 71
3
 72
25
 73
21
 74
19
 40
0.000000
 40
0.000000
 40
0.000000
 40
0.000000
 40
4.013087
 40
7.968741
 40
11.981828
 40
15.994916
 40
19.950569
 40
23.963657
 40
27.976744
 40
31.932398
 40
35.945485
 40
39.958572
 40
43.914226
 40
47.927313
 40
51.940400
 40
55.896054
 40
59.909141
 40
63.922229
 40
67.877882
 40
71.890970
 40
71.890970
 40
71.890970
 40
71.890970
 10
11.500000
 20
62.650000
 30
0.0
 10
11.362598
 20
63.994518
 30
0.0
 10
11.089762
 20
66.664313
 30
0.0
 10
8.972995
 20
70.192487
 30
0.0
 10
5.873690
 20
72.815592
 30
0.0
 10
2.035785
 20
74.206800
 30
0.0
 10
-2.036666
 20
74.206800
 30
0.0
 10
-5.869196
 20
72.815592
 30
0.0
 10
-8.989963
 20
70.192487
 30
0.0
 10
-11.026985
 20
66.664313
 30
0.0
 10
-11.738212
 20
62.650000
 30
0.0
 10
-11.026985
 20
58.635687
 30
0.0
 10
-8.989963
 20
55.107513
 30
0.0
 10
-5.869196
 20
52.484407
 30
0.0
 10
-2.036666
 20
51.093200
 30
0.0
 10
2.035785
 20
51.093200
 30
0.0
 10
5.873690
 20
52.484407
 30
0.0
 10
8.972995
 20
55.107513
 30
0.0
 10
11.089762
 20
58.635687
 30
0.0
 10
11.362598
 20
61.305482
 30
0.0
 10
11.500000
 20
62.650000
 30
0.0
 11
11.500000
 21
62.650000
 31
0.0
 11
10.799951
 21
66.601557
 31
0.0
 11
8.822124
 21
70.027253
 31
0.0
 11
5.750000
 21
72.609292
 31
0.0
 11
1.977827
 21
73.978810
 31
0.0
 11
-1.977827
 21
73.978810
 31
0.0
 11
-5.750000
 21
72.609292
 31
0.0
 11
-8.822124
 21
70.027253
 31
0.0
 11
-10.799951
 21
66.601557
 31
0.0
 11
-11.500000
 21
62.650000
 31
0.0
 11
-10.799951
 21
58.698443
 31
0.0
 11
-8.822124
 21
55.272747
 31
0.0
 11
-5.750000
 21
52.690708
 31
0.0
 11
-1.977827
 21
51.321190
 31
0.0
 11
1.977827
 21
51.321190
 31
0.0
 11
5.750000
 21
52.690708
 31
0.0
 11
8.822124
 21
55.272747
 31
0.0
 11
10.799951
 21
58.698443
 31
0.0
 11
11.500000
 21
62.650000
 31
0.0
  0
LINE
  5
122
100
AcDbEntity
  8
0
 62
7
100
AcDbLine
 10
102.625000
 20
93.800000
 30
0.0
 11
102.625000
 21
93.800000
 31
0.0
  0
SPLINE
  5
123
100
AcDbEntity
  8
0
 62
7
100
AcDbSpline
 70
0
 71
3
 72
25
 73
21
 74
19
 40
0.000000
 40
0.000000
 40
0.000000
 40
0.000000
 40
0.916031
 40
1.818952
 40
2.734983
 40
3.651013
 40
4.553934
 40
5.469965
 40
6.385996
 40
7.288917
 40
8.204948
 40
9.120978
 40
10.023899
 40
10.939930
 40
11.855961
 40
12.758882
 40
13.674913
 40
14.590943
 40
15.493864
 40
16.409895
 40
16.409895
 40
16.409895
 40
16.409895
 10
102.625000
 20
93.800000
 30
0.0
 10
102.593637
 20
94.106901
 30
0.0
 10
102.531359
 20
94.716311
 30
0.0
 10
102.048184
 20
95.521655
 30
0.0
 10
101.340734
 20
96.120407
 30
0.0
 10
100.464690
 20
96.437965
 30
0.0
 10
99.535109
 20
96.437965
 30
0.0
 10
98.660292
 20
96.120407
 30
0.0
 10
97.947943
 20
95.521655
 30
0.0
 10
97.482971
 20
94.716311
 30
0.0
 10
97.320626
 20
93.800000
 30
0.0
 10
97.482971
 20
92.883689
 30
0.0
 10
97.947943
 20
92.078345
 30
0.0
 10
98.660292
 20
91.479593
 30
0.0
 10
99.535109
 20
91.162035
 30
0.0
 10
100.464690
 20
91.162035
 30
0.0
 10
101.340734
 20
91.479593
 30
0.0
 10
102.048184
 20
92.078345
 30
0.0
 10
102.531359
 20
92.883689
 30
0.0
 10
102.593637
 20
93.493099
 30
0.0
 10
102.625000
 20
93.800000
 30
0.0
 11
102.625000
 21
93.800000
 31
0.0
 11
102.465206
 21
94.701986
 31
0.0
 11
102.013746
 21
95.483938
 31
0.0
 11
101.312500
 21
96.073317
 31
0.0
 11
100.451461
 21
96.385924
 31
0.0
 11
99.548540
 21
96.385924
 31
0.0
 11
98.687500
 21
96.073317
 31
0.0
 11
97.986254
 21
95.483938
 31
0.0
 11
97.534794
 21
94.701986
 31
0.0
 11
97.375000
 21
93.800000
 31
0.0
 11
97.534794
 21
92.898014
 31
0.0
 11
97.986254
 21
92.116062
 31
0.0
 11
98.687500
 21
91.526683
 31
0.0
 11
99.548540
 21
91.214076
 31
0.0
 11
100.451461
 21
91.214076
 31
0.0
 11
101.312500
 21
91.526683
 31
0.0
 11
102.013746
 21
92.116062
 31
0.0
 11
102.465206
 21
92.898014
 31
0.0
 11
102.625000
 21
93.800000
 31
0.0
  0
LINE
  5
124
100
AcDbEntity
  8
0
 62
7
100
AcDbLine
 10
-97.375000
 20
93.800000
 30
0.0
 11
-97.375000
 21
93.800000
 31
0.0
  0
SPLINE
  5
125
100
AcDbEntity
  8
0
 62
7
100
AcDbSpline
 70
0
 71
3
 72
25
 73
21
 74
19
 40
0.000000
 40
0.000000
 40
0.000000
 40
0.000000
 40
0.916031
 40
1.818952
 40
2.734983
 40
3.651013
 40
4.553934
 40
5.469965
 40
6.385996
 40
7.288917
 40
8.204948
 40
9.120978
 40
10.023899
 40
10.939930
 40
11.855961
 40
12.758882
 40
13.674913
 40
14.590943
 40
15.493864
 40
16.409895
 40
16.409895
 40
16.409895
 40
16.409895
 10
-97.375000
 20
93.800000
 30
0.0
 10
-97.406364
 20
94.106901
 30
0.0
 10
-97.468641
 20
94.716311
 30
0.0
 10
-97.951816
 20
95.521655
 30
0.0
 10
-98.659266
 20
96.120407
 30
0.0
 10
-99.535310
 20
96.437965
 30
0.0
 10
-100.464891
 20
96.437965
 30
0.0
 10
-101.339708
 20
96.120407
 30
0.0
 10
-102.052057
 20
95.521655
 30
0.0
 10
-102.517029
 20
94.716311
 30
0.0
 10
-102.679375
 20
93.800000
 30
0.0
 10
-102.517029
 20
92.883689
 30
0.0
 10
-102.052057
 20
92.078345
 30
0.0
 10
-101.339708
 20
91.479593
 30
0.0
 10
-100.464891
 20
91.162035
 30
0.0
 10
-99.535310
 20
91.162035
 30
0.0
 10
-98.659266
 20
91.479593
 30
0.0
 10
-97.951816
 20
92.078345
 30
0.0
 10
-97.468641
 20
92.883689
 30
0.0
 10
-97.406364
 20
93.493099
 30
0.0
 10
-97.375000
 20
93.800000
 30
0.0
 11
-97.375000
 21
93.800000
 31
0.0
 11
-97.534794
 21
94.701986
 31
0.0
 11
-97.986254
 21
95.483938
 31
0.0
 11
-98.687500
 21
96.073317
 31
0.0
 11
-99.548540
 21
96.385924
 31
0.0
 11
-100.451461
 21
96.385924
 31
0.0
 11
-101.312500
 21
96.073317
 31
0.0
 11
-102.013746
 21
95.483938
 31
0.0
 11
-102.465206
 21
94.701986
 31
0.0
 11
-102.625000
 21
93.800000
 31
0.0
 11
-102.465206
 21
92.898014
 31
0.0
 11
-102.013746
 21
92.116062
 31
0.0
 11
-101.312500
 21
91.526683
 31
0.0
 11
-100.451461
 21
91.214076
 31
0.0
 11
-99.548540
 21
91.214076
 31
0.0
 11
-98.687500
 21
91.526683
 31
0.0
 11
-97.986254
 21
92.116062
 31
0.0
 11
-97.534794
 21
92.898014
 31
0.0
 11
-97.375000
 21
93.800000
 31
0.0
  0
ENDSEC
  0
SECTION
  2
OBJECTS
  0
DICTIONARY
  5
C
330
0
100
AcDbDictionary
  3
ACAD_GROUP
350
D
  3
ACAD_MLINESTYLE
350
17
  0
DICTIONARY
  5
D
330
C
100
AcDbDictionary
  0
DICTIONARY
  5
1A
330
C
100
AcDbDictionary
  0
DICTIONARY
  5
17
330
C
100
AcDbDictionary
  3
STANDARD
350
18
  0
DICTIONARY
  5
19
330
C
100
AcDbDictionary
  0
ENDSEC
  0
EOF
