  0
SECTION
  2
HEADER
  9
$ACADVER
  1
AC1014
  9
$HANDSEED
  5
FFFF
  9
$MEASUREMENT
 70
     1
  0
ENDSEC
  0
SECTION
  2
TABLES
  0
TABLE
  2
VPORT
  5
8
330
0
100
AcDbSymbolTable
 70
     4
  0
VPORT
  5
2E
330
8
100
AcDbSymbolTableRecord
100
AcDbViewportTableRecord
  2
*ACTIVE
 70
     0
 10
0.0
 20
0.0
 11
1.0
 21
1.0
 12
210.0
 22
148.5
 13
0.0
 23
0.0
 14
10.0
 24
10.0
 15
10.0
 25
10.0
 16
0.0
 26
0.0
 36
1.0
 17
0.0
 27
0.0
 37
0.0
 40
341.0
 41
1.24
 42
50.0
 43
0.0
 44
0.0
 50
0.0
 51
0.0
 71
     0
 72
   100
 73
     1
 74
     3
 75
     0
 76
     0
 77
     0
 78
     0
  0
ENDTAB
  0
TABLE
  2
LTYPE
  5
5
330
0
100
AcDbSymbolTable
 70
     1
  0
LTYPE
  5
14
330
5
100
AcDbSymbolTableRecord
100
AcDbLinetypeTableRecord
  2
BYBLOCK
 70
     0
  3

 72
    65
 73
     0
 40
0.0
  0
LTYPE
  5
15
330
5
100
AcDbSymbolTableRecord
100
AcDbLinetypeTableRecord
  2
BYLAYER
 70
     0
  3

 72
    65
 73
     0
 40
0.0
  0
LTYPE
  5
16
330
5
100
AcDbSymbolTableRecord
100
AcDbLinetypeTableRecord
  2
CONTINUOUS
 70
     0
  3
Solid line
 72
    65
 73
     0
 40
0.0
  0
ENDTAB
  0
TABLE
  2
LAYER
  5
2
100
AcDbSymbolTable
 70
1
  0
LAYER
  5
50
100
AcDbSymbolTableRecord
100
AcDbLayerTableRecord
  2
0
 70
0
  6
CONTINUOUS
  0
ENDTAB
  0
TABLE
  2
STYLE
  5
3
330
0
100
AcDbSymbolTable
 70
     1
  0
STYLE
  5
11
330
3
100
AcDbSymbolTableRecord
100
AcDbTextStyleTableRecord
  2
STANDARD
 70
     0
 40
0.0
 41
1.0
 50
0.0
 71
     0
 42
2.5
  3
txt
  4

  0
ENDTAB
  0
TABLE
  2
VIEW
  5
6
330
0
100
AcDbSymbolTable
 70
     0
  0
ENDTAB
  0
TABLE
  2
UCS
  5
7
330
0
100
AcDbSymbolTable
 70
     0
  0
ENDTAB
  0
TABLE
  2
APPID
  5
9
330
0
100
AcDbSymbolTable
 70
     2
  0
APPID
  5
12
330
9
100
AcDbSymbolTableRecord
100
AcDbRegAppTableRecord
  2
ACAD
 70
     0
  0
ENDTAB
  0
TABLE
  2
DIMSTYLE
  5
A
330
0
100
AcDbSymbolTable
 70
     1
  0
DIMSTYLE
105
27
330
A
100
AcDbSymbolTableRecord
100
AcDbDimStyleTableRecord
  2
ISO-25
 70
     0
  3

  4

  5

  6

  7

 40
1.0
 41
2.5
 42
0.625
 43
3.75
 44
1.25
 45
0.0
 46
0.0
 47
0.0
 48
0.0
140
2.5
141
2.5
142
0.0
143
0.03937007874016
144
1.0
145
0.0
146
1.0
147
0.625
 71
     0
 72
     0
 73
     0
 74
     0
 75
     0
 76
     0
 77
     1
 78
     8
170
     0
171
     3
172
     1
173
     0
174
     0
175
     0
176
     0
177
     0
178
     0
270
     2
271
     2
272
     2
273
     2
274
     3
340
11
275
     0
280
     0
281
     0
282
     0
283
     0
284
     8
285
     0
286
     0
287
     3
288
     0
  0
ENDTAB
  0
TABLE
  2
BLOCK_RECORD
  5
1
330
0
100
AcDbSymbolTable
 70
     1
  0
BLOCK_RECORD
  5
1F
330
1
100
AcDbSymbolTableRecord
100
AcDbBlockTableRecord
  2
*MODEL_SPACE
  0
BLOCK_RECORD
  5
1B
330
1
100
AcDbSymbolTableRecord
100
AcDbBlockTableRecord
  2
*PAPER_SPACE
  0
ENDTAB
  0
ENDSEC
  0
SECTION
  2
BLOCKS
  0
BLOCK
  5
20
330
1F
100
AcDbEntity
  8
0
100
AcDbBlockBegin
  2
*MODEL_SPACE
 70
     0
 10
0.0
 20
0.0
 30
0.0
  3
*MODEL_SPACE
  1

  0
ENDBLK
  5
21
330
1F
100
AcDbEntity
  8
0
100
AcDbBlockEnd
  0
BLOCK
  5
1C
330
1B
100
AcDbEntity
 67
     1
  8
0
100
AcDbBlockBegin
  2
*PAPER_SPACE
  1

  0
ENDBLK
  5
1D
330
1B
100
AcDbEntity
 67
     1
  8
0
100
AcDbBlockEnd
  0
ENDSEC
  0
SECTION
  2
ENTITIES
  0
LINE
  5
100
100
AcDbEntity
  8
0
 62
7
100
AcDbLine
 10
-60.263076
 20
103.033707
 30
0.0
 11
-60.263076
 21
103.033707
 31
0.0
  0
SPLINE
  5
101
100
AcDbEntity
  8
0
 62
7
100
AcDbSpline
 70
0
 71
3
 72
25
 73
21
 74
19
 40
0.000000
 40
0.000000
 40
0.000000
 40
0.000000
 40
0.540894
 40
1.074048
 40
1.614942
 40
2.155836
 40
2.688990
 40
3.229884
 40
3.770779
 40
4.303932
 40
4.844826
 40
5.385721
 40
5.918874
 40
6.459768
 40
7.000663
 40
7.533816
 40
8.074710
 40
8.615605
 40
9.148758
 40
9.689653
 40
9.689653
 40
9.689653
 40
9.689653
 10
-60.263076
 20
103.033707
 30
0.0
 10
-60.281595
 20
103.214925
 30
0.0
 10
-60.318369
 20
103.574766
 30
0.0
 10
-60.603672
 20
104.050303
 30
0.0
 10
-61.021404
 20
104.403852
 30
0.0
 10
-61.538687
 20
104.591363
 30
0.0
 10
-62.087583
 20
104.591363
 30
0.0
 10
-62.604141
 20
104.403852
 30
0.0
 10
-63.024766
 20
104.050303
 30
0.0
 10
-63.299322
 20
103.574766
 30
0.0
 10
-63.395182
 20
103.033707
 30
0.0
 10
-63.299322
 20
102.492647
 30
0.0
 10
-63.024766
 20
102.017111
 30
0.0
 10
-62.604141
 20
101.663562
 30
0.0
 10
-62.087583
 20
101.476051
 30
0.0
 10
-61.538687
 20
101.476051
 30
0.0
 10
-61.021404
 20
101.663562
 30
0.0
 10
-60.603672
 20
102.017111
 30
0.0
 10
-60.318369
 20
102.492647
 30
0.0
 10
-60.281595
 20
102.852489
 30
0.0
 10
-60.263076
 20
103.033707
 30
0.0
 11
-60.263076
 21
103.033707
 31
0.0
 11
-60.357430
 21
103.566308
 31
0.0
 11
-60.624007
 21
104.028032
 31
0.0
 11
-61.038076
 21
104.376046
 31
0.0
 11
-61.546499
 21
104.560633
 31
0.0
 11
-62.079652
 21
104.560633
 31
0.0
 11
-62.588076
 21
104.376046
 31
0.0
 11
-63.002145
 21
104.028032
 31
0.0
 11
-63.268721
 21
103.566308
 31
0.0
 11
-63.363076
 21
103.033707
 31
0.0
 11
-63.268721
 21
102.501106
 31
0.0
 11
-63.002145
 21
102.039381
 31
0.0
 11
-62.588076
 21
101.691367
 31
0.0
 11
-62.079652
 21
101.506780
 31
0.0
 11
-61.546499
 21
101.506780
 31
0.0
 11
-61.038076
 21
101.691367
 31
0.0
 11
-60.624007
 21
102.039381
 31
0.0
 11
-60.357430
 21
102.501106
 31
0.0
 11
-60.263076
 21
103.033707
 31
0.0
  0
LINE
  5
102
100
AcDbEntity
  8
0
 62
7
100
AcDbLine
 10
50.836924
 20
83.004011
 30
0.0
 11
50.836924
 21
83.004011
 31
0.0
  0
SPLINE
  5
103
100
AcDbEntity
  8
0
 62
7
100
AcDbSpline
 70
0
 71
3
 72
25
 73
21
 74
19
 40
0.000000
 40
0.000000
 40
0.000000
 40
0.000000
 40
0.540894
 40
1.074048
 40
1.614942
 40
2.155837
 40
2.688990
 40
3.229884
 40
3.770779
 40
4.303932
 40
4.844826
 40
5.385721
 40
5.918874
 40
6.459769
 40
7.000663
 40
7.533816
 40
8.074711
 40
8.615605
 40
9.148758
 40
9.689653
 40
9.689653
 40
9.689653
 40
9.689653
 10
50.836924
 20
83.004011
 30
0.0
 10
50.818405
 20
83.185229
 30
0.0
 10
50.781631
 20
83.545071
 30
0.0
 10
50.496328
 20
84.020608
 30
0.0
 10
50.078596
 20
84.374157
 30
0.0
 10
49.561313
 20
84.561667
 30
0.0
 10
49.012417
 20
84.561667
 30
0.0
 10
48.495859
 20
84.374157
 30
0.0
 10
48.075234
 20
84.020608
 30
0.0
 10
47.800678
 20
83.545071
 30
0.0
 10
47.704817
 20
83.004011
 30
0.0
 10
47.800678
 20
82.462952
 30
0.0
 10
48.075234
 20
81.987415
 30
0.0
 10
48.495859
 20
81.633866
 30
0.0
 10
49.012417
 20
81.446356
 30
0.0
 10
49.561313
 20
81.446356
 30
0.0
 10
50.078596
 20
81.633866
 30
0.0
 10
50.496328
 20
81.987415
 30
0.0
 10
50.781631
 20
82.462952
 30
0.0
 10
50.818405
 20
82.822794
 30
0.0
 10
50.836924
 20
83.004011
 30
0.0
 11
50.836924
 21
83.004011
 31
0.0
 11
50.742570
 21
83.536613
 31
0.0
 11
50.475993
 21
83.998337
 31
0.0
 11
50.061924
 21
84.346351
 31
0.0
 11
49.553501
 21
84.530938
 31
0.0
 11
49.020348
 21
84.530938
 31
0.0
 11
48.511924
 21
84.346351
 31
0.0
 11
48.097855
 21
83.998337
 31
0.0
 11
47.831279
 21
83.536613
 31
0.0
 11
47.736924
 21
83.004011
 31
0.0
 11
47.831279
 21
82.471410
 31
0.0
 11
48.097855
 21
82.009686
 31
0.0
 11
48.511924
 21
81.661672
 31
0.0
 11
49.020348
 21
81.477085
 31
0.0
 11
49.553501
 21
81.477085
 31
0.0
 11
50.061924
 21
81.661672
 31
0.0
 11
50.475993
 21
82.009686
 31
0.0
 11
50.742570
 21
82.471410
 31
0.0
 11
50.836924
 21
83.004011
 31
0.0
  0
LINE
  5
104
100
AcDbEntity
  8
0
 62
7
100
AcDbLine
 10
50.836924
 20
68.004011
 30
0.0
 11
50.836924
 21
68.004011
 31
0.0
  0
SPLINE
  5
105
100
AcDbEntity
  8
0
 62
7
100
AcDbSpline
 70
0
 71
3
 72
25
 73
21
 74
19
 40
0.000000
 40
0.000000
 40
0.000000
 40
0.000000
 40
0.540894
 40
1.074048
 40
1.614942
 40
2.155837
 40
2.688990
 40
3.229884
 40
3.770779
 40
4.303932
 40
4.844826
 40
5.385721
 40
5.918874
 40
6.459769
 40
7.000663
 40
7.533816
 40
8.074711
 40
8.615605
 40
9.148758
 40
9.689653
 40
9.689653
 40
9.689653
 40
9.689653
 10
50.836924
 20
68.004011
 30
0.0
 10
50.818405
 20
68.185229
 30
0.0
 10
50.781631
 20
68.545071
 30
0.0
 10
50.496328
 20
69.020608
 30
0.0
 10
50.078596
 20
69.374157
 30
0.0
 10
49.561313
 20
69.561667
 30
0.0
 10
49.012417
 20
69.561667
 30
0.0
 10
48.495859
 20
69.374157
 30
0.0
 10
48.075234
 20
69.020608
 30
0.0
 10
47.800678
 20
68.545071
 30
0.0
 10
47.704817
 20
68.004011
 30
0.0
 10
47.800678
 20
67.462952
 30
0.0
 10
48.075234
 20
66.987415
 30
0.0
 10
48.495859
 20
66.633866
 30
0.0
 10
49.012417
 20
66.446356
 30
0.0
 10
49.561313
 20
66.446356
 30
0.0
 10
50.078596
 20
66.633866
 30
0.0
 10
50.496328
 20
66.987415
 30
0.0
 10
50.781631
 20
67.462952
 30
0.0
 10
50.818405
 20
67.822794
 30
0.0
 10
50.836924
 20
68.004011
 30
0.0
 11
50.836924
 21
68.004011
 31
0.0
 11
50.742570
 21
68.536613
 31
0.0
 11
50.475993
 21
68.998337
 31
0.0
 11
50.061924
 21
69.346351
 31
0.0
 11
49.553501
 21
69.530938
 31
0.0
 11
49.020348
 21
69.530938
 31
0.0
 11
48.511924
 21
69.346351
 31
0.0
 11
48.097855
 21
68.998337
 31
0.0
 11
47.831279
 21
68.536613
 31
0.0
 11
47.736924
 21
68.004011
 31
0.0
 11
47.831279
 21
67.471410
 31
0.0
 11
48.097855
 21
67.009686
 31
0.0
 11
48.511924
 21
66.661672
 31
0.0
 11
49.020348
 21
66.477085
 31
0.0
 11
49.553501
 21
66.477085
 31
0.0
 11
50.061924
 21
66.661672
 31
0.0
 11
50.475993
 21
67.009686
 31
0.0
 11
50.742570
 21
67.471410
 31
0.0
 11
50.836924
 21
68.004011
 31
0.0
  0
LINE
  5
106
100
AcDbEntity
  8
0
 62
7
100
AcDbLine
 10
-60.263076
 20
118.033707
 30
0.0
 11
-60.263076
 21
118.033707
 31
0.0
  0
SPLINE
  5
107
100
AcDbEntity
  8
0
 62
7
100
AcDbSpline
 70
0
 71
3
 72
25
 73
21
 74
19
 40
0.000000
 40
0.000000
 40
0.000000
 40
0.000000
 40
0.540894
 40
1.074048
 40
1.614942
 40
2.155836
 40
2.688990
 40
3.229884
 40
3.770779
 40
4.303932
 40
4.844826
 40
5.385721
 40
5.918874
 40
6.459768
 40
7.000663
 40
7.533816
 40
8.074710
 40
8.615605
 40
9.148758
 40
9.689653
 40
9.689653
 40
9.689653
 40
9.689653
 10
-60.263076
 20
118.033707
 30
0.0
 10
-60.281595
 20
118.214925
 30
0.0
 10
-60.318369
 20
118.574767
 30
0.0
 10
-60.603672
 20
119.050303
 30
0.0
 10
-61.021404
 20
119.403852
 30
0.0
 10
-61.538687
 20
119.591363
 30
0.0
 10
-62.087583
 20
119.591363
 30
0.0
 10
-62.604141
 20
119.403852
 30
0.0
 10
-63.024766
 20
119.050303
 30
0.0
 10
-63.299322
 20
118.574767
 30
0.0
 10
-63.395182
 20
118.033707
 30
0.0
 10
-63.299322
 20
117.492648
 30
0.0
 10
-63.024766
 20
117.017111
 30
0.0
 10
-62.604141
 20
116.663562
 30
0.0
 10
-62.087583
 20
116.476051
 30
0.0
 10
-61.538687
 20
116.476051
 30
0.0
 10
-61.021404
 20
116.663562
 30
0.0
 10
-60.603672
 20
117.017111
 30
0.0
 10
-60.318369
 20
117.492648
 30
0.0
 10
-60.281595
 20
117.852489
 30
0.0
 10
-60.263076
 20
118.033707
 30
0.0
 11
-60.263076
 21
118.033707
 31
0.0
 11
-60.357430
 21
118.566308
 31
0.0
 11
-60.624007
 21
119.028033
 31
0.0
 11
-61.038076
 21
119.376046
 31
0.0
 11
-61.546499
 21
119.560634
 31
0.0
 11
-62.079652
 21
119.560634
 31
0.0
 11
-62.588076
 21
119.376046
 31
0.0
 11
-63.002145
 21
119.028033
 31
0.0
 11
-63.268721
 21
118.566308
 31
0.0
 11
-63.363076
 21
118.033707
 31
0.0
 11
-63.268721
 21
117.501106
 31
0.0
 11
-63.002145
 21
117.039382
 31
0.0
 11
-62.588076
 21
116.691368
 31
0.0
 11
-62.079652
 21
116.506780
 31
0.0
 11
-61.546499
 21
116.506780
 31
0.0
 11
-61.038076
 21
116.691368
 31
0.0
 11
-60.624007
 21
117.039382
 31
0.0
 11
-60.357430
 21
117.501106
 31
0.0
 11
-60.263076
 21
118.033707
 31
0.0
  0
LINE
  5
108
100
AcDbEntity
  8
0
 62
7
100
AcDbLine
 10
-54.313076
 20
126.231556
 30
0.0
 11
-54.313076
 21
61.928412
 31
0.0
  0
SPLINE
  5
109
100
AcDbEntity
  8
0
 62
7
100
AcDbSpline
 70
0
 71
3
 72
13
 73
9
 74
7
 40
0.000000
 40
0.000000
 40
0.000000
 40
0.000000
 40
2.617749
 40
5.213835
 40
7.831584
 40
10.449332
 40
13.045418
 40
15.663167
 40
15.663167
 40
15.663167
 40
15.663167
 10
-54.313076
 20
61.928412
 30
0.0
 10
-54.246413
 20
61.053279
 30
0.0
 10
-54.113640
 20
59.310256
 30
0.0
 10
-53.064388
 20
56.871845
 30
0.0
 10
-51.468055
 20
54.773432
 30
0.0
 10
-49.369642
 20
53.177099
 30
0.0
 10
-46.931231
 20
52.127847
 30
0.0
 10
-45.188208
 20
51.995074
 30
0.0
 10
-44.313076
 20
51.928412
 30
0.0
 11
-54.313076
 21
61.928412
 31
0.0
 11
-53.970470
 21
59.333179
 31
0.0
 11
-52.976991
 21
56.934709
 31
0.0
 11
-51.384143
 21
54.857344
 31
0.0
 11
-49.306779
 21
53.264496
 31
0.0
 11
-46.908308
 21
52.271017
 31
0.0
 11
-44.313076
 21
51.928412
 31
0.0
  0
LINE
  5
10a
100
AcDbEntity
  8
0
 62
7
100
AcDbLine
 10
36.013107
 20
99.808621
 30
0.0
 11
-40.086893
 21
135.294634
 31
0.0
  0
SPLINE
  5
10b
100
AcDbEntity
  8
0
 62
7
100
AcDbSpline
 70
0
 71
3
 72
13
 73
9
 74
7
 40
0.000000
 40
0.000000
 40
0.000000
 40
0.000000
 40
3.344390
 40
6.644593
 40
9.988983
 40
13.333373
 40
16.633576
 40
19.977966
 40
19.977966
 40
19.977966
 40
19.977966
 10
-40.086893
 20
135.294634
 30
0.0
 10
-41.148359
 20
135.668674
 30
0.0
 10
-43.257267
 20
136.411811
 30
0.0
 10
-46.666719
 20
136.132317
 30
0.0
 10
-49.790236
 20
134.828976
 30
0.0
 10
-52.291520
 20
132.548924
 30
0.0
 10
-53.985725
 20
129.577030
 30
0.0
 10
-54.203476
 20
127.351647
 30
0.0
 10
-54.313076
 20
126.231556
 30
0.0
 11
-40.086893
 21
135.294634
 31
0.0
 11
-43.311580
 21
136.181390
 31
0.0
 11
-46.604717
 21
135.965546
 31
0.0
 11
-49.686072
 21
134.665470
 31
0.0
 11
-52.166577
 21
132.422251
 31
0.0
 11
-53.753938
 21
129.528874
 31
0.0
 11
-54.313076
 21
126.231556
 31
0.0
  0
LINE
  5
10c
100
AcDbEntity
  8
0
 62
7
100
AcDbLine
 10
41.786924
 20
61.928412
 30
0.0
 11
41.786924
 21
90.745543
 31
0.0
  0
SPLINE
  5
10d
100
AcDbEntity
  8
0
 62
7
100
AcDbSpline
 70
0
 71
3
 72
10
 73
6
 74
4
 40
0.000000
 40
0.000000
 40
0.000000
 40
0.000000
 40
3.780038
 40
7.497286
 40
11.277324
 40
11.277324
 40
11.277324
 40
11.277324
 10
41.786924
 20
90.745543
 30
0.0
 10
41.643863
 20
92.008193
 30
0.0
 10
41.360118
 20
94.512518
 30
0.0
 10
39.246770
 20
97.829810
 30
0.0
 10
37.096996
 20
99.145345
 30
0.0
 10
36.013107
 20
99.808621
 30
0.0
 11
41.786924
 21
90.745543
 31
0.0
 11
41.072719
 21
94.457496
 31
0.0
 11
39.075443
 21
97.592592
 31
0.0
 11
36.013107
 21
99.808621
 31
0.0
  0
LINE
  5
10e
100
AcDbEntity
  8
0
 62
7
100
AcDbLine
 10
-44.313076
 20
51.928412
 30
0.0
 11
31.786924
 21
51.928412
 31
0.0
  0
SPLINE
  5
10f
100
AcDbEntity
  8
0
 62
7
100
AcDbSpline
 70
0
 71
3
 72
13
 73
9
 74
7
 40
0.000000
 40
0.000000
 40
0.000000
 40
0.000000
 40
2.617749
 40
5.213835
 40
7.831584
 40
10.449332
 40
13.045418
 40
15.663167
 40
15.663167
 40
15.663167
 40
15.663167
 10
31.786924
 20
51.928412
 30
0.0
 10
32.662057
 20
51.995074
 30
0.0
 10
34.405079
 20
52.127847
 30
0.0
 10
36.843491
 20
53.177099
 30
0.0
 10
38.941903
 20
54.773432
 30
0.0
 10
40.538237
 20
56.871845
 30
0.0
 10
41.587489
 20
59.310256
 30
0.0
 10
41.720262
 20
61.053279
 30
0.0
 10
41.786924
 20
61.928412
 30
0.0
 11
31.786924
 21
51.928412
 31
0.0
 11
34.382157
 21
52.271017
 31
0.0
 11
36.780627
 21
53.264496
 31
0.0
 11
38.857992
 21
54.857344
 31
0.0
 11
40.450840
 21
56.934709
 31
0.0
 11
41.444319
 21
59.333179
 31
0.0
 11
41.786924
 21
61.928412
 31
0.0
  0
LINE
  5
110
100
AcDbEntity
  8
0
 62
7
100
AcDbLine
 10
68.336924
 20
47.644012
 30
0.0
 11
68.336924
 21
47.644012
 31
0.0
  0
LINE
  5
111
100
AcDbEntity
  8
0
 62
7
100
AcDbLine
 10
49.786924
 20
26.004012
 30
0.0
 11
70.786924
 21
26.004012
 31
0.0
  0
SPLINE
  5
112
100
AcDbEntity
  8
0
 62
7
100
AcDbSpline
 70
0
 71
3
 72
25
 73
21
 74
19
 40
0.000000
 40
0.000000
 40
0.000000
 40
0.000000
 40
0.540894
 40
1.074048
 40
1.614942
 40
2.155836
 40
2.688990
 40
3.229884
 40
3.770779
 40
4.303932
 40
4.844826
 40
5.385721
 40
5.918874
 40
6.459768
 40
7.000663
 40
7.533816
 40
8.074710
 40
8.615605
 40
9.148758
 40
9.689653
 40
9.689653
 40
9.689653
 40
9.689653
 10
68.336924
 20
47.644012
 30
0.0
 10
68.318405
 20
47.825229
 30
0.0
 10
68.281631
 20
48.185071
 30
0.0
 10
67.996328
 20
48.660608
 30
0.0
 10
67.578596
 20
49.014157
 30
0.0
 10
67.061313
 20
49.201667
 30
0.0
 10
66.512417
 20
49.201667
 30
0.0
 10
65.995859
 20
49.014157
 30
0.0
 10
65.575234
 20
48.660608
 30
0.0
 10
65.300678
 20
48.185071
 30
0.0
 10
65.204817
 20
47.644012
 30
0.0
 10
65.300678
 20
47.102952
 30
0.0
 10
65.575234
 20
46.627415
 30
0.0
 10
65.995859
 20
46.273866
 30
0.0
 10
66.512417
 20
46.086356
 30
0.0
 10
67.061313
 20
46.086356
 30
0.0
 10
67.578596
 20
46.273866
 30
0.0
 10
67.996328
 20
46.627415
 30
0.0
 10
68.281631
 20
47.102952
 30
0.0
 10
68.318405
 20
47.462794
 30
0.0
 10
68.336924
 20
47.644012
 30
0.0
 11
68.336924
 21
47.644012
 31
0.0
 11
68.242570
 21
48.176613
 31
0.0
 11
67.975993
 21
48.638337
 31
0.0
 11
67.561924
 21
48.986351
 31
0.0
 11
67.053501
 21
49.170938
 31
0.0
 11
66.520348
 21
49.170938
 31
0.0
 11
66.011924
 21
48.986351
 31
0.0
 11
65.597855
 21
48.638337
 31
0.0
 11
65.331279
 21
48.176613
 31
0.0
 11
65.236924
 21
47.644012
 31
0.0
 11
65.331279
 21
47.111410
 31
0.0
 11
65.597855
 21
46.649686
 31
0.0
 11
66.011924
 21
46.301672
 31
0.0
 11
66.520348
 21
46.117085
 31
0.0
 11
67.053501
 21
46.117085
 31
0.0
 11
67.561924
 21
46.301672
 31
0.0
 11
67.975993
 21
46.649686
 31
0.0
 11
68.242570
 21
47.111410
 31
0.0
 11
68.336924
 21
47.644012
 31
0.0
  0
LINE
  5
113
100
AcDbEntity
  8
0
 62
7
100
AcDbLine
 10
76.786924
 20
32.004011
 30
0.0
 11
76.786924
 21
125.504012
 31
0.0
  0
LINE
  5
114
100
AcDbEntity
  8
0
 62
7
100
AcDbLine
 10
49.786924
 20
125.504012
 30
0.0
 11
76.786924
 21
125.504012
 31
0.0
  0
LINE
  5
115
100
AcDbEntity
  8
0
 62
7
100
AcDbLine
 10
49.786924
 20
132.004012
 30
0.0
 11
49.786924
 21
125.504012
 31
0.0
  0
LINE
  5
116
100
AcDbEntity
  8
0
 62
7
100
AcDbLine
 10
49.786924
 20
132.004012
 30
0.0
 11
-65.860710
 21
185.931389
 31
0.0
  0
SPLINE
  5
117
100
AcDbEntity
  8
0
 62
7
100
AcDbSpline
 70
0
 71
3
 72
10
 73
6
 74
4
 40
0.000000
 40
0.000000
 40
0.000000
 40
0.000000
 40
3.137155
 40
6.181262
 40
9.318417
 40
9.318417
 40
9.318417
 40
9.318417
 10
70.786924
 20
26.004012
 30
0.0
 10
71.838279
 20
26.169043
 30
0.0
 10
73.909806
 20
26.494210
 30
0.0
 10
76.296726
 20
28.881130
 30
0.0
 10
76.621893
 20
30.952657
 30
0.0
 10
76.786924
 20
32.004011
 30
0.0
 11
70.786924
 21
26.004012
 31
0.0
 11
73.815239
 21
26.823188
 31
0.0
 11
75.967748
 21
28.975697
 31
0.0
 11
76.786924
 21
32.004011
 31
0.0
  0
LINE
  5
118
100
AcDbEntity
  8
0
 62
7
100
AcDbLine
 10
-94.313076
 20
167.805233
 30
0.0
 11
-94.313076
 21
26.004012
 31
0.0
  0
LINE
  5
119
100
AcDbEntity
  8
0
 62
7
100
AcDbLine
 10
-87.813076
 20
19.504011
 30
0.0
 11
-94.313076
 21
26.004012
 31
0.0
  0
LINE
  5
11a
100
AcDbEntity
  8
0
 62
7
100
AcDbLine
 10
-87.813076
 20
-84.995988
 30
0.0
 11
-87.813076
 21
19.504011
 31
0.0
  0
LINE
  5
11b
100
AcDbEntity
  8
0
 62
7
100
AcDbLine
 10
-87.813076
 20
-84.995988
 30
0.0
 11
49.786924
 21
-84.995988
 31
0.0
  0
LINE
  5
11c
100
AcDbEntity
  8
0
 62
7
100
AcDbLine
 10
49.786924
 20
-84.995988
 30
0.0
 11
49.786924
 21
-54.995988
 31
0.0
  0
LINE
  5
11d
100
AcDbEntity
  8
0
 62
7
100
AcDbLine
 10
39.786924
 20
-54.995988
 30
0.0
 11
49.786924
 21
-54.995988
 31
0.0
  0
SPLINE
  5
11e
100
AcDbEntity
  8
0
 62
7
100
AcDbSpline
 70
0
 71
3
 72
13
 73
9
 74
7
 40
0.000000
 40
0.000000
 40
0.000000
 40
0.000000
 40
6.688779
 40
13.289186
 40
19.977965
 40
26.666745
 40
33.267151
 40
39.955931
 40
39.955931
 40
39.955931
 40
39.955931
 10
-65.860710
 20
185.931389
 30
0.0
 10
-67.983643
 20
186.679469
 30
0.0
 10
-72.201458
 20
188.165744
 30
0.0
 10
-79.020363
 20
187.606755
 30
0.0
 10
-85.267396
 20
185.000073
 30
0.0
 10
-90.269963
 20
180.439969
 30
0.0
 10
-93.658373
 20
174.496182
 30
0.0
 10
-94.093876
 20
170.045415
 30
0.0
 10
-94.313076
 20
167.805233
 30
0.0
 11
-65.860710
 21
185.931389
 31
0.0
 11
-72.310084
 21
187.704901
 31
0.0
 11
-78.896359
 21
187.273214
 31
0.0
 11
-85.059068
 21
184.673062
 31
0.0
 11
-90.020079
 21
180.186623
 31
0.0
 11
-93.194800
 21
174.399870
 31
0.0
 11
-94.313076
 21
167.805233
 31
0.0
  0
LINE
  5
11f
100
AcDbEntity
  8
0
 62
7
100
AcDbLine
 10
34.786924
 20
-5.995988
 30
0.0
 11
34.786924
 21
-49.995988
 31
0.0
  0
SPLINE
  5
120
100
AcDbEntity
  8
0
 62
7
100
AcDbSpline
 70
0
 71
3
 72
13
 73
9
 74
7
 40
0.000000
 40
0.000000
 40
0.000000
 40
0.000000
 40
1.308874
 40
2.606917
 40
3.915792
 40
5.224666
 40
6.522709
 40
7.831584
 40
7.831584
 40
7.831584
 40
7.831584
 10
34.786924
 20
-49.995988
 30
0.0
 10
34.820255
 20
-50.433555
 30
0.0
 10
34.886642
 20
-51.305066
 30
0.0
 10
35.411268
 20
-52.524272
 30
0.0
 10
36.209435
 20
-53.573478
 30
0.0
 10
37.258641
 20
-54.371645
 30
0.0
 10
38.477847
 20
-54.896271
 30
0.0
 10
39.349358
 20
-54.962657
 30
0.0
 10
39.786924
 20
-54.995988
 30
0.0
 11
34.786924
 21
-49.995988
 31
0.0
 11
34.958227
 21
-51.293605
 31
0.0
 11
35.454966
 21
-52.492840
 31
0.0
 11
36.251390
 21
-53.531522
 31
0.0
 11
37.290073
 21
-54.327946
 31
0.0
 11
38.489308
 21
-54.824686
 31
0.0
 11
39.786924
 21
-54.995988
 31
0.0
  0
LINE
  5
121
100
AcDbEntity
  8
0
 62
7
100
AcDbLine
 10
49.786924
 20
-0.995989
 30
0.0
 11
39.786924
 21
-0.995989
 31
0.0
  0
LINE
  5
122
100
AcDbEntity
  8
0
 62
7
100
AcDbLine
 10
49.786924
 20
-0.995989
 30
0.0
 11
49.786924
 21
26.004012
 31
0.0
  0
SPLINE
  5
123
100
AcDbEntity
  8
0
 62
7
100
AcDbSpline
 70
0
 71
3
 72
13
 73
9
 74
7
 40
0.000000
 40
0.000000
 40
0.000000
 40
0.000000
 40
1.308874
 40
2.606917
 40
3.915792
 40
5.224666
 40
6.522709
 40
7.831584
 40
7.831584
 40
7.831584
 40
7.831584
 10
39.786924
 20
-0.995989
 30
0.0
 10
39.349358
 20
-1.029320
 30
0.0
 10
38.477847
 20
-1.095706
 30
0.0
 10
37.258641
 20
-1.620332
 30
0.0
 10
36.209435
 20
-2.418499
 30
0.0
 10
35.411268
 20
-3.467705
 30
0.0
 10
34.886642
 20
-4.686911
 30
0.0
 10
34.820255
 20
-5.558422
 30
0.0
 10
34.786924
 20
-5.995988
 30
0.0
 11
39.786924
 21
-0.995989
 31
0.0
 11
38.489308
 21
-1.167291
 31
0.0
 11
37.290073
 21
-1.664031
 31
0.0
 11
36.251390
 21
-2.460455
 31
0.0
 11
35.454966
 21
-3.499137
 31
0.0
 11
34.958227
 21
-4.698372
 31
0.0
 11
34.786924
 21
-5.995988
 31
0.0
  0
LINE
  5
124
100
AcDbEntity
  8
0
 62
7
100
AcDbLine
 10
68.336924
 20
67.644012
 30
0.0
 11
68.336924
 21
67.644012
 31
0.0
  0
SPLINE
  5
125
100
AcDbEntity
  8
0
 62
7
100
AcDbSpline
 70
0
 71
3
 72
25
 73
21
 74
19
 40
0.000000
 40
0.000000
 40
0.000000
 40
0.000000
 40
0.540894
 40
1.074048
 40
1.614942
 40
2.155836
 40
2.688990
 40
3.229884
 40
3.770779
 40
4.303932
 40
4.844826
 40
5.385721
 40
5.918874
 40
6.459768
 40
7.000663
 40
7.533816
 40
8.074710
 40
8.615605
 40
9.148758
 40
9.689653
 40
9.689653
 40
9.689653
 40
9.689653
 10
68.336924
 20
67.644012
 30
0.0
 10
68.318405
 20
67.825229
 30
0.0
 10
68.281631
 20
68.185071
 30
0.0
 10
67.996328
 20
68.660608
 30
0.0
 10
67.578596
 20
69.014157
 30
0.0
 10
67.061313
 20
69.201667
 30
0.0
 10
66.512417
 20
69.201667
 30
0.0
 10
65.995859
 20
69.014157
 30
0.0
 10
65.575234
 20
68.660608
 30
0.0
 10
65.300678
 20
68.185071
 30
0.0
 10
65.204817
 20
67.644012
 30
0.0
 10
65.300678
 20
67.102952
 30
0.0
 10
65.575234
 20
66.627415
 30
0.0
 10
65.995859
 20
66.273867
 30
0.0
 10
66.512417
 20
66.086356
 30
0.0
 10
67.061313
 20
66.086356
 30
0.0
 10
67.578596
 20
66.273867
 30
0.0
 10
67.996328
 20
66.627415
 30
0.0
 10
68.281631
 20
67.102952
 30
0.0
 10
68.318405
 20
67.462794
 30
0.0
 10
68.336924
 20
67.644012
 30
0.0
 11
68.336924
 21
67.644012
 31
0.0
 11
68.242570
 21
68.176613
 31
0.0
 11
67.975993
 21
68.638337
 31
0.0
 11
67.561924
 21
68.986351
 31
0.0
 11
67.053501
 21
69.170938
 31
0.0
 11
66.520348
 21
69.170938
 31
0.0
 11
66.011924
 21
68.986351
 31
0.0
 11
65.597855
 21
68.638337
 31
0.0
 11
65.331279
 21
68.176613
 31
0.0
 11
65.236924
 21
67.644012
 31
0.0
 11
65.331279
 21
67.111410
 31
0.0
 11
65.597855
 21
66.649686
 31
0.0
 11
66.011924
 21
66.301672
 31
0.0
 11
66.520348
 21
66.117085
 31
0.0
 11
67.053501
 21
66.117085
 31
0.0
 11
67.561924
 21
66.301672
 31
0.0
 11
67.975993
 21
66.649686
 31
0.0
 11
68.242570
 21
67.111410
 31
0.0
 11
68.336924
 21
67.644012
 31
0.0
  0
LINE
  5
126
100
AcDbEntity
  8
0
 62
7
100
AcDbLine
 10
-75.188076
 20
-69.995989
 30
0.0
 11
-75.188076
 21
-69.995989
 31
0.0
  0
SPLINE
  5
127
100
AcDbEntity
  8
0
 62
7
100
AcDbSpline
 70
0
 71
3
 72
25
 73
21
 74
19
 40
0.000000
 40
0.000000
 40
0.000000
 40
0.000000
 40
0.916031
 40
1.818952
 40
2.734983
 40
3.651013
 40
4.553934
 40
5.469965
 40
6.385996
 40
7.288917
 40
8.204948
 40
9.120978
 40
10.023899
 40
10.939930
 40
11.855961
 40
12.758882
 40
13.674913
 40
14.590943
 40
15.493864
 40
16.409895
 40
16.409895
 40
16.409895
 40
16.409895
 10
-75.188076
 20
-69.995989
 30
0.0
 10
-75.219439
 20
-69.689088
 30
0.0
 10
-75.281717
 20
-69.079678
 30
0.0
 10
-75.764892
 20
-68.274334
 30
0.0
 10
-76.472342
 20
-67.675582
 30
0.0
 10
-77.348386
 20
-67.358023
 30
0.0
 10
-78.277967
 20
-67.358023
 30
0.0
 10
-79.152783
 20
-67.675582
 30
0.0
 10
-79.865132
 20
-68.274334
 30
0.0
 10
-80.330105
 20
-69.079678
 30
0.0
 10
-80.492450
 20
-69.995989
 30
0.0
 10
-80.330105
 20
-70.912299
 30
0.0
 10
-79.865132
 20
-71.717643
 30
0.0
 10
-79.152783
 20
-72.316396
 30
0.0
 10
-78.277967
 20
-72.633954
 30
0.0
 10
-77.348386
 20
-72.633954
 30
0.0
 10
-76.472342
 20
-72.316396
 30
0.0
 10
-75.764892
 20
-71.717643
 30
0.0
 10
-75.281717
 20
-70.912299
 30
0.0
 10
-75.219439
 20
-70.302889
 30
0.0
 10
-75.188076
 20
-69.995989
 30
0.0
 11
-75.188076
 21
-69.995989
 31
0.0
 11
-75.347870
 21
-69.094003
 31
0.0
 11
-75.799330
 21
-68.312050
 31
0.0
 11
-76.500576
 21
-67.722672
 31
0.0
 11
-77.361615
 21
-67.410065
 31
0.0
 11
-78.264536
 21
-67.410065
 31
0.0
 11
-79.125576
 21
-67.722672
 31
0.0
 11
-79.826821
 21
-68.312050
 31
0.0
 11
-80.278282
 21
-69.094003
 31
0.0
 11
-80.438076
 21
-69.995989
 31
0.0
 11
-80.278282
 21
-70.897974
 31
0.0
 11
-79.826821
 21
-71.679927
 31
0.0
 11
-79.125576
 21
-72.269305
 31
0.0
 11
-78.264536
 21
-72.581913
 31
0.0
 11
-77.361615
 21
-72.581913
 31
0.0
 11
-76.500576
 21
-72.269305
 31
0.0
 11
-75.799330
 21
-71.679927
 31
0.0
 11
-75.347869
 21
-70.897974
 31
0.0
 11
-75.188076
 21
-69.995989
 31
0.0
  0
LINE
  5
128
100
AcDbEntity
  8
0
 62
7
100
AcDbLine
 10
-75.188076
 20
67.504012
 30
0.0
 11
-75.188076
 21
67.504012
 31
0.0
  0
SPLINE
  5
129
100
AcDbEntity
  8
0
 62
7
100
AcDbSpline
 70
0
 71
3
 72
25
 73
21
 74
19
 40
0.000000
 40
0.000000
 40
0.000000
 40
0.000000
 40
0.916031
 40
1.818952
 40
2.734983
 40
3.651013
 40
4.553934
 40
5.469965
 40
6.385996
 40
7.288917
 40
8.204948
 40
9.120978
 40
10.023899
 40
10.939930
 40
11.855961
 40
12.758882
 40
13.674913
 40
14.590943
 40
15.493864
 40
16.409895
 40
16.409895
 40
16.409895
 40
16.409895
 10
-75.188076
 20
67.504012
 30
0.0
 10
-75.219439
 20
67.810913
 30
0.0
 10
-75.281717
 20
68.420322
 30
0.0
 10
-75.764892
 20
69.225666
 30
0.0
 10
-76.472342
 20
69.824419
 30
0.0
 10
-77.348386
 20
70.141977
 30
0.0
 10
-78.277967
 20
70.141977
 30
0.0
 10
-79.152783
 20
69.824419
 30
0.0
 10
-79.865132
 20
69.225666
 30
0.0
 10
-80.330105
 20
68.420322
 30
0.0
 10
-80.492450
 20
67.504012
 30
0.0
 10
-80.330105
 20
66.587701
 30
0.0
 10
-79.865132
 20
65.782357
 30
0.0
 10
-79.152783
 20
65.183605
 30
0.0
 10
-78.277967
 20
64.866046
 30
0.0
 10
-77.348386
 20
64.866046
 30
0.0
 10
-76.472342
 20
65.183605
 30
0.0
 10
-75.764892
 20
65.782357
 30
0.0
 10
-75.281717
 20
66.587701
 30
0.0
 10
-75.219439
 20
67.197111
 30
0.0
 10
-75.188076
 20
67.504012
 30
0.0
 11
-75.188076
 21
67.504012
 31
0.0
 11
-75.347870
 21
68.405997
 31
0.0
 11
-75.799330
 21
69.187950
 31
0.0
 11
-76.500576
 21
69.777328
 31
0.0
 11
-77.361615
 21
70.089936
 31
0.0
 11
-78.264536
 21
70.089936
 31
0.0
 11
-79.125576
 21
69.777328
 31
0.0
 11
-79.826821
 21
69.187950
 31
0.0
 11
-80.278282
 21
68.405997
 31
0.0
 11
-80.438076
 21
67.504012
 31
0.0
 11
-80.278282
 21
66.602026
 31
0.0
 11
-79.826821
 21
65.820073
 31
0.0
 11
-79.125576
 21
65.230695
 31
0.0
 11
-78.264536
 21
64.918088
 31
0.0
 11
-77.361615
 21
64.918088
 31
0.0
 11
-76.500576
 21
65.230695
 31
0.0
 11
-75.799330
 21
65.820073
 31
0.0
 11
-75.347869
 21
66.602026
 31
0.0
 11
-75.188076
 21
67.504012
 31
0.0
  0
LINE
  5
12a
100
AcDbEntity
  8
0
 62
7
100
AcDbLine
 10
42.411924
 20
14.004012
 30
0.0
 11
42.411924
 21
14.004012
 31
0.0
  0
SPLINE
  5
12b
100
AcDbEntity
  8
0
 62
7
100
AcDbSpline
 70
0
 71
3
 72
25
 73
21
 74
19
 40
0.000000
 40
0.000000
 40
0.000000
 40
0.000000
 40
0.916031
 40
1.818952
 40
2.734983
 40
3.651013
 40
4.553934
 40
5.469965
 40
6.385996
 40
7.288917
 40
8.204948
 40
9.120978
 40
10.023899
 40
10.939930
 40
11.855961
 40
12.758882
 40
13.674913
 40
14.590943
 40
15.493864
 40
16.409895
 40
16.409895
 40
16.409895
 40
16.409895
 10
42.411924
 20
14.004012
 30
0.0
 10
42.380561
 20
14.310913
 30
0.0
 10
42.318283
 20
14.920322
 30
0.0
 10
41.835108
 20
15.725666
 30
0.0
 10
41.127658
 20
16.324419
 30
0.0
 10
40.251614
 20
16.641977
 30
0.0
 10
39.322033
 20
16.641977
 30
0.0
 10
38.447217
 20
16.324419
 30
0.0
 10
37.734868
 20
15.725666
 30
0.0
 10
37.269895
 20
14.920322
 30
0.0
 10
37.107550
 20
14.004012
 30
0.0
 10
37.269895
 20
13.087701
 30
0.0
 10
37.734868
 20
12.282357
 30
0.0
 10
38.447217
 20
11.683605
 30
0.0
 10
39.322033
 20
11.366046
 30
0.0
 10
40.251614
 20
11.366046
 30
0.0
 10
41.127658
 20
11.683605
 30
0.0
 10
41.835108
 20
12.282357
 30
0.0
 10
42.318283
 20
13.087701
 30
0.0
 10
42.380561
 20
13.697111
 30
0.0
 10
42.411924
 20
14.004012
 30
0.0
 11
42.411924
 21
14.004012
 31
0.0
 11
42.252131
 21
14.905997
 31
0.0
 11
41.800670
 21
15.687950
 31
0.0
 11
41.099424
 21
16.277328
 31
0.0
 11
40.238385
 21
16.589936
 31
0.0
 11
39.335464
 21
16.589936
 31
0.0
 11
38.474424
 21
16.277328
 31
0.0
 11
37.773179
 21
15.687950
 31
0.0
 11
37.321718
 21
14.905997
 31
0.0
 11
37.161924
 21
14.004012
 31
0.0
 11
37.321718
 21
13.102026
 31
0.0
 11
37.773179
 21
12.320073
 31
0.0
 11
38.474424
 21
11.730695
 31
0.0
 11
39.335464
 21
11.418088
 31
0.0
 11
40.238385
 21
11.418088
 31
0.0
 11
41.099424
 21
11.730695
 31
0.0
 11
41.800670
 21
12.320073
 31
0.0
 11
42.252131
 21
13.102026
 31
0.0
 11
42.411924
 21
14.004012
 31
0.0
  0
LINE
  5
12c
100
AcDbEntity
  8
0
 62
7
100
AcDbLine
 10
42.411924
 20
-69.995989
 30
0.0
 11
42.411924
 21
-69.995989
 31
0.0
  0
SPLINE
  5
12d
100
AcDbEntity
  8
0
 62
7
100
AcDbSpline
 70
0
 71
3
 72
25
 73
21
 74
19
 40
0.000000
 40
0.000000
 40
0.000000
 40
0.000000
 40
0.916031
 40
1.818952
 40
2.734983
 40
3.651013
 40
4.553934
 40
5.469965
 40
6.385996
 40
7.288917
 40
8.204948
 40
9.120978
 40
10.023899
 40
10.939930
 40
11.855961
 40
12.758882
 40
13.674913
 40
14.590943
 40
15.493864
 40
16.409895
 40
16.409895
 40
16.409895
 40
16.409895
 10
42.411924
 20
-69.995989
 30
0.0
 10
42.380561
 20
-69.689088
 30
0.0
 10
42.318283
 20
-69.079678
 30
0.0
 10
41.835108
 20
-68.274334
 30
0.0
 10
41.127658
 20
-67.675582
 30
0.0
 10
40.251614
 20
-67.358023
 30
0.0
 10
39.322033
 20
-67.358023
 30
0.0
 10
38.447217
 20
-67.675582
 30
0.0
 10
37.734868
 20
-68.274334
 30
0.0
 10
37.269895
 20
-69.079678
 30
0.0
 10
37.107550
 20
-69.995989
 30
0.0
 10
37.269895
 20
-70.912299
 30
0.0
 10
37.734868
 20
-71.717643
 30
0.0
 10
38.447217
 20
-72.316396
 30
0.0
 10
39.322033
 20
-72.633954
 30
0.0
 10
40.251614
 20
-72.633954
 30
0.0
 10
41.127658
 20
-72.316396
 30
0.0
 10
41.835108
 20
-71.717643
 30
0.0
 10
42.318283
 20
-70.912299
 30
0.0
 10
42.380561
 20
-70.302889
 30
0.0
 10
42.411924
 20
-69.995989
 30
0.0
 11
42.411924
 21
-69.995989
 31
0.0
 11
42.252131
 21
-69.094003
 31
0.0
 11
41.800670
 21
-68.312050
 31
0.0
 11
41.099424
 21
-67.722672
 31
0.0
 11
40.238385
 21
-67.410065
 31
0.0
 11
39.335464
 21
-67.410065
 31
0.0
 11
38.474424
 21
-67.722672
 31
0.0
 11
37.773179
 21
-68.312050
 31
0.0
 11
37.321718
 21
-69.094003
 31
0.0
 11
37.161924
 21
-69.995989
 31
0.0
 11
37.321718
 21
-70.897974
 31
0.0
 11
37.773179
 21
-71.679927
 31
0.0
 11
38.474424
 21
-72.269305
 31
0.0
 11
39.335464
 21
-72.581913
 31
0.0
 11
40.238385
 21
-72.581913
 31
0.0
 11
41.099424
 21
-72.269305
 31
0.0
 11
41.800670
 21
-71.679927
 31
0.0
 11
42.252131
 21
-70.897974
 31
0.0
 11
42.411924
 21
-69.995989
 31
0.0
  0
LINE
  5
12e
100
AcDbEntity
  8
0
 62
7
100
AcDbLine
 10
-75.188076
 20
167.805233
 30
0.0
 11
-75.188076
 21
167.805233
 31
0.0
  0
SPLINE
  5
12f
100
AcDbEntity
  8
0
 62
7
100
AcDbSpline
 70
0
 71
3
 72
25
 73
21
 74
19
 40
0.000000
 40
0.000000
 40
0.000000
 40
0.000000
 40
0.916031
 40
1.818952
 40
2.734983
 40
3.651013
 40
4.553934
 40
5.469965
 40
6.385996
 40
7.288917
 40
8.204948
 40
9.120978
 40
10.023899
 40
10.939930
 40
11.855961
 40
12.758882
 40
13.674913
 40
14.590943
 40
15.493864
 40
16.409895
 40
16.409895
 40
16.409895
 40
16.409895
 10
-75.188076
 20
167.805233
 30
0.0
 10
-75.219439
 20
168.112134
 30
0.0
 10
-75.281717
 20
168.721544
 30
0.0
 10
-75.764892
 20
169.526888
 30
0.0
 10
-76.472342
 20
170.125640
 30
0.0
 10
-77.348386
 20
170.443199
 30
0.0
 10
-78.277967
 20
170.443199
 30
0.0
 10
-79.152783
 20
170.125640
 30
0.0
 10
-79.865132
 20
169.526888
 30
0.0
 10
-80.330105
 20
168.721544
 30
0.0
 10
-80.492450
 20
167.805233
 30
0.0
 10
-80.330105
 20
166.888923
 30
0.0
 10
-79.865132
 20
166.083579
 30
0.0
 10
-79.152783
 20
165.484826
 30
0.0
 10
-78.277967
 20
165.167268
 30
0.0
 10
-77.348386
 20
165.167268
 30
0.0
 10
-76.472342
 20
165.484826
 30
0.0
 10
-75.764892
 20
166.083579
 30
0.0
 10
-75.281717
 20
166.888923
 30
0.0
 10
-75.219439
 20
167.498332
 30
0.0
 10
-75.188076
 20
167.805233
 30
0.0
 11
-75.188076
 21
167.805233
 31
0.0
 11
-75.347870
 21
168.707219
 31
0.0
 11
-75.799330
 21
169.489172
 31
0.0
 11
-76.500576
 21
170.078550
 31
0.0
 11
-77.361615
 21
170.391157
 31
0.0
 11
-78.264536
 21
170.391157
 31
0.0
 11
-79.125576
 21
170.078550
 31
0.0
 11
-79.826821
 21
169.489172
 31
0.0
 11
-80.278282
 21
168.707219
 31
0.0
 11
-80.438076
 21
167.805233
 31
0.0
 11
-80.278282
 21
166.903248
 31
0.0
 11
-79.826821
 21
166.121295
 31
0.0
 11
-79.125576
 21
165.531917
 31
0.0
 11
-78.264536
 21
165.219309
 31
0.0
 11
-77.361615
 21
165.219309
 31
0.0
 11
-76.500576
 21
165.531917
 31
0.0
 11
-75.799330
 21
166.121295
 31
0.0
 11
-75.347869
 21
166.903248
 31
0.0
 11
-75.188076
 21
167.805233
 31
0.0
  0
ENDSEC
  0
SECTION
  2
OBJECTS
  0
DICTIONARY
  5
C
330
0
100
AcDbDictionary
  3
ACAD_GROUP
350
D
  3
ACAD_MLINESTYLE
350
17
  0
DICTIONARY
  5
D
330
C
100
AcDbDictionary
  0
DICTIONARY
  5
1A
330
C
100
AcDbDictionary
  0
DICTIONARY
  5
17
330
C
100
AcDbDictionary
  3
STANDARD
350
18
  0
DICTIONARY
  5
19
330
C
100
AcDbDictionary
  0
ENDSEC
  0
EOF
