  0
SECTION
  2
HEADER
  9
$ACADVER
  1
AC1014
  9
$HANDSEED
  5
FFFF
  9
$MEASUREMENT
 70
     1
  0
ENDSEC
  0
SECTION
  2
TABLES
  0
TABLE
  2
VPORT
  5
8
330
0
100
AcDbSymbolTable
 70
     4
  0
VPORT
  5
2E
330
8
100
AcDbSymbolTableRecord
100
AcDbViewportTableRecord
  2
*ACTIVE
 70
     0
 10
0.0
 20
0.0
 11
1.0
 21
1.0
 12
210.0
 22
148.5
 13
0.0
 23
0.0
 14
10.0
 24
10.0
 15
10.0
 25
10.0
 16
0.0
 26
0.0
 36
1.0
 17
0.0
 27
0.0
 37
0.0
 40
341.0
 41
1.24
 42
50.0
 43
0.0
 44
0.0
 50
0.0
 51
0.0
 71
     0
 72
   100
 73
     1
 74
     3
 75
     0
 76
     0
 77
     0
 78
     0
  0
ENDTAB
  0
TABLE
  2
LTYPE
  5
5
330
0
100
AcDbSymbolTable
 70
     1
  0
LTYPE
  5
14
330
5
100
AcDbSymbolTableRecord
100
AcDbLinetypeTableRecord
  2
BYBLOCK
 70
     0
  3

 72
    65
 73
     0
 40
0.0
  0
LTYPE
  5
15
330
5
100
AcDbSymbolTableRecord
100
AcDbLinetypeTableRecord
  2
BYLAYER
 70
     0
  3

 72
    65
 73
     0
 40
0.0
  0
LTYPE
  5
16
330
5
100
AcDbSymbolTableRecord
100
AcDbLinetypeTableRecord
  2
CONTINUOUS
 70
     0
  3
Solid line
 72
    65
 73
     0
 40
0.0
  0
ENDTAB
  0
TABLE
  2
LAYER
  5
2
100
AcDbSymbolTable
 70
1
  0
LAYER
  5
50
100
AcDbSymbolTableRecord
100
AcDbLayerTableRecord
  2
0
 70
0
  6
CONTINUOUS
  0
ENDTAB
  0
TABLE
  2
STYLE
  5
3
330
0
100
AcDbSymbolTable
 70
     1
  0
STYLE
  5
11
330
3
100
AcDbSymbolTableRecord
100
AcDbTextStyleTableRecord
  2
STANDARD
 70
     0
 40
0.0
 41
1.0
 50
0.0
 71
     0
 42
2.5
  3
txt
  4

  0
ENDTAB
  0
TABLE
  2
VIEW
  5
6
330
0
100
AcDbSymbolTable
 70
     0
  0
ENDTAB
  0
TABLE
  2
UCS
  5
7
330
0
100
AcDbSymbolTable
 70
     0
  0
ENDTAB
  0
TABLE
  2
APPID
  5
9
330
0
100
AcDbSymbolTable
 70
     2
  0
APPID
  5
12
330
9
100
AcDbSymbolTableRecord
100
AcDbRegAppTableRecord
  2
ACAD
 70
     0
  0
ENDTAB
  0
TABLE
  2
DIMSTYLE
  5
A
330
0
100
AcDbSymbolTable
 70
     1
  0
DIMSTYLE
105
27
330
A
100
AcDbSymbolTableRecord
100
AcDbDimStyleTableRecord
  2
ISO-25
 70
     0
  3

  4

  5

  6

  7

 40
1.0
 41
2.5
 42
0.625
 43
3.75
 44
1.25
 45
0.0
 46
0.0
 47
0.0
 48
0.0
140
2.5
141
2.5
142
0.0
143
0.03937007874016
144
1.0
145
0.0
146
1.0
147
0.625
 71
     0
 72
     0
 73
     0
 74
     0
 75
     0
 76
     0
 77
     1
 78
     8
170
     0
171
     3
172
     1
173
     0
174
     0
175
     0
176
     0
177
     0
178
     0
270
     2
271
     2
272
     2
273
     2
274
     3
340
11
275
     0
280
     0
281
     0
282
     0
283
     0
284
     8
285
     0
286
     0
287
     3
288
     0
  0
ENDTAB
  0
TABLE
  2
BLOCK_RECORD
  5
1
330
0
100
AcDbSymbolTable
 70
     1
  0
BLOCK_RECORD
  5
1F
330
1
100
AcDbSymbolTableRecord
100
AcDbBlockTableRecord
  2
*MODEL_SPACE
  0
BLOCK_RECORD
  5
1B
330
1
100
AcDbSymbolTableRecord
100
AcDbBlockTableRecord
  2
*PAPER_SPACE
  0
ENDTAB
  0
ENDSEC
  0
SECTION
  2
BLOCKS
  0
BLOCK
  5
20
330
1F
100
AcDbEntity
  8
0
100
AcDbBlockBegin
  2
*MODEL_SPACE
 70
     0
 10
0.0
 20
0.0
 30
0.0
  3
*MODEL_SPACE
  1

  0
ENDBLK
  5
21
330
1F
100
AcDbEntity
  8
0
100
AcDbBlockEnd
  0
BLOCK
  5
1C
330
1B
100
AcDbEntity
 67
     1
  8
0
100
AcDbBlockBegin
  2
*PAPER_SPACE
  1

  0
ENDBLK
  5
1D
330
1B
100
AcDbEntity
 67
     1
  8
0
100
AcDbBlockEnd
  0
ENDSEC
  0
SECTION
  2
ENTITIES
  0
LINE
  5
100
100
AcDbEntity
  8
0
 62
7
100
AcDbLine
 10
111.500000
 20
-60.800000
 30
0.0
 11
111.441967
 21
-60.800000
 31
0.0
  0
LINE
  5
101
100
AcDbEntity
  8
0
 62
7
100
AcDbLine
 10
116.500000
 20
-55.800000
 30
0.0
 11
116.500000
 21
103.800000
 31
0.0
  0
SPLINE
  5
102
100
AcDbEntity
  8
0
 62
7
100
AcDbSpline
 70
0
 71
3
 72
13
 73
9
 74
7
 40
0.000000
 40
0.000000
 40
0.000000
 40
0.000000
 40
1.308874
 40
2.606918
 40
3.915792
 40
5.224666
 40
6.522710
 40
7.831584
 40
7.831584
 40
7.831584
 40
7.831584
 10
111.500000
 20
-60.800000
 30
0.0
 10
111.937566
 20
-60.766669
 30
0.0
 10
112.809078
 20
-60.700282
 30
0.0
 10
114.028283
 20
-60.175656
 30
0.0
 10
115.077490
 20
-59.377490
 30
0.0
 10
115.875656
 20
-58.328283
 30
0.0
 10
116.400282
 20
-57.109078
 30
0.0
 10
116.466669
 20
-56.237566
 30
0.0
 10
116.500000
 20
-55.800000
 30
0.0
 11
111.500000
 21
-60.800000
 31
0.0
 11
112.797616
 21
-60.628698
 31
0.0
 11
113.996852
 21
-60.131958
 31
0.0
 11
115.035534
 21
-59.335534
 31
0.0
 11
115.831958
 21
-58.296852
 31
0.0
 11
116.328698
 21
-57.097616
 31
0.0
 11
116.500000
 21
-55.800000
 31
0.0
  0
LINE
  5
103
100
AcDbEntity
  8
0
 62
7
100
AcDbLine
 10
111.500000
 20
108.800000
 30
0.0
 11
-111.500000
 21
108.800000
 31
0.0
  0
SPLINE
  5
104
100
AcDbEntity
  8
0
 62
7
100
AcDbSpline
 70
0
 71
3
 72
13
 73
9
 74
7
 40
0.000000
 40
0.000000
 40
0.000000
 40
0.000000
 40
1.308874
 40
2.606917
 40
3.915792
 40
5.224666
 40
6.522709
 40
7.831584
 40
7.831584
 40
7.831584
 40
7.831584
 10
116.500000
 20
103.800000
 30
0.0
 10
116.466669
 20
104.237566
 30
0.0
 10
116.400282
 20
105.109078
 30
0.0
 10
115.875656
 20
106.328283
 30
0.0
 10
115.077490
 20
107.377490
 30
0.0
 10
114.028283
 20
108.175656
 30
0.0
 10
112.809078
 20
108.700282
 30
0.0
 10
111.937566
 20
108.766669
 30
0.0
 10
111.500000
 20
108.800000
 30
0.0
 11
116.500000
 21
103.800000
 31
0.0
 11
116.328697
 21
105.097616
 31
0.0
 11
115.831958
 21
106.296852
 31
0.0
 11
115.035534
 21
107.335534
 31
0.0
 11
113.996851
 21
108.131958
 31
0.0
 11
112.797616
 21
108.628697
 31
0.0
 11
111.500000
 21
108.800000
 31
0.0
  0
LINE
  5
105
100
AcDbEntity
  8
0
 62
7
100
AcDbLine
 10
-116.500000
 20
103.800000
 30
0.0
 11
-116.500000
 21
-55.800000
 31
0.0
  0
SPLINE
  5
106
100
AcDbEntity
  8
0
 62
7
100
AcDbSpline
 70
0
 71
3
 72
13
 73
9
 74
7
 40
0.000000
 40
0.000000
 40
0.000000
 40
0.000000
 40
1.308874
 40
2.606917
 40
3.915792
 40
5.224666
 40
6.522709
 40
7.831584
 40
7.831584
 40
7.831584
 40
7.831584
 10
-111.500000
 20
108.800000
 30
0.0
 10
-111.937566
 20
108.766669
 30
0.0
 10
-112.809078
 20
108.700282
 30
0.0
 10
-114.028283
 20
108.175656
 30
0.0
 10
-115.077490
 20
107.377490
 30
0.0
 10
-115.875656
 20
106.328283
 30
0.0
 10
-116.400282
 20
105.109078
 30
0.0
 10
-116.466669
 20
104.237566
 30
0.0
 10
-116.500000
 20
103.800000
 30
0.0
 11
-111.500000
 21
108.800000
 31
0.0
 11
-112.797616
 21
108.628697
 31
0.0
 11
-113.996851
 21
108.131958
 31
0.0
 11
-115.035534
 21
107.335534
 31
0.0
 11
-115.831958
 21
106.296852
 31
0.0
 11
-116.328697
 21
105.097616
 31
0.0
 11
-116.500000
 21
103.800000
 31
0.0
  0
LINE
  5
107
100
AcDbEntity
  8
0
 62
7
100
AcDbLine
 10
106.691658
 20
-60.800000
 30
0.0
 11
-111.500000
 21
-60.800000
 31
0.0
  0
LINE
  5
108
100
AcDbEntity
  8
0
 62
7
100
AcDbLine
 10
106.691658
 20
-60.800000
 30
0.0
 11
106.691658
 21
-60.801732
 31
0.0
  0
LINE
  5
109
100
AcDbEntity
  8
0
 62
7
100
AcDbLine
 10
106.691658
 20
-60.801732
 30
0.0
 11
111.441967
 21
-60.801732
 31
0.0
  0
LINE
  5
10a
100
AcDbEntity
  8
0
 62
7
100
AcDbLine
 10
111.441967
 20
-60.801732
 30
0.0
 11
111.441967
 21
-60.800000
 31
0.0
  0
SPLINE
  5
10b
100
AcDbEntity
  8
0
 62
7
100
AcDbSpline
 70
0
 71
3
 72
13
 73
9
 74
7
 40
0.000000
 40
0.000000
 40
0.000000
 40
0.000000
 40
1.308874
 40
2.606918
 40
3.915792
 40
5.224666
 40
6.522710
 40
7.831584
 40
7.831584
 40
7.831584
 40
7.831584
 10
-116.500000
 20
-55.800000
 30
0.0
 10
-116.466669
 20
-56.237566
 30
0.0
 10
-116.400282
 20
-57.109078
 30
0.0
 10
-115.875656
 20
-58.328283
 30
0.0
 10
-115.077490
 20
-59.377490
 30
0.0
 10
-114.028283
 20
-60.175656
 30
0.0
 10
-112.809078
 20
-60.700282
 30
0.0
 10
-111.937566
 20
-60.766669
 30
0.0
 10
-111.500000
 20
-60.800000
 30
0.0
 11
-116.500000
 21
-55.800000
 31
0.0
 11
-116.328698
 21
-57.097616
 31
0.0
 11
-115.831958
 21
-58.296852
 31
0.0
 11
-115.035534
 21
-59.335534
 31
0.0
 11
-113.996852
 21
-60.131958
 31
0.0
 11
-112.797616
 21
-60.628698
 31
0.0
 11
-111.500000
 21
-60.800000
 31
0.0
  0
LINE
  5
10c
100
AcDbEntity
  8
0
 62
7
100
AcDbLine
 10
102.625000
 20
-23.800000
 30
0.0
 11
102.625000
 21
-23.800000
 31
0.0
  0
SPLINE
  5
10d
100
AcDbEntity
  8
0
 62
7
100
AcDbSpline
 70
0
 71
3
 72
25
 73
21
 74
19
 40
0.000000
 40
0.000000
 40
0.000000
 40
0.000000
 40
0.916031
 40
1.818952
 40
2.734983
 40
3.651013
 40
4.553934
 40
5.469965
 40
6.385996
 40
7.288917
 40
8.204948
 40
9.120978
 40
10.023899
 40
10.939930
 40
11.855961
 40
12.758882
 40
13.674913
 40
14.590943
 40
15.493864
 40
16.409895
 40
16.409895
 40
16.409895
 40
16.409895
 10
102.625000
 20
-23.800000
 30
0.0
 10
102.593637
 20
-23.493099
 30
0.0
 10
102.531359
 20
-22.883689
 30
0.0
 10
102.048184
 20
-22.078345
 30
0.0
 10
101.340734
 20
-21.479593
 30
0.0
 10
100.464690
 20
-21.162035
 30
0.0
 10
99.535109
 20
-21.162035
 30
0.0
 10
98.660292
 20
-21.479593
 30
0.0
 10
97.947943
 20
-22.078345
 30
0.0
 10
97.482971
 20
-22.883689
 30
0.0
 10
97.320626
 20
-23.800000
 30
0.0
 10
97.482971
 20
-24.716310
 30
0.0
 10
97.947943
 20
-25.521655
 30
0.0
 10
98.660292
 20
-26.120407
 30
0.0
 10
99.535109
 20
-26.437965
 30
0.0
 10
100.464690
 20
-26.437965
 30
0.0
 10
101.340734
 20
-26.120407
 30
0.0
 10
102.048184
 20
-25.521655
 30
0.0
 10
102.531359
 20
-24.716310
 30
0.0
 10
102.593637
 20
-24.106901
 30
0.0
 10
102.625000
 20
-23.800000
 30
0.0
 11
102.625000
 21
-23.800000
 31
0.0
 11
102.465206
 21
-22.898014
 31
0.0
 11
102.013746
 21
-22.116062
 31
0.0
 11
101.312500
 21
-21.526683
 31
0.0
 11
100.451461
 21
-21.214076
 31
0.0
 11
99.548540
 21
-21.214076
 31
0.0
 11
98.687500
 21
-21.526683
 31
0.0
 11
97.986254
 21
-22.116062
 31
0.0
 11
97.534794
 21
-22.898014
 31
0.0
 11
97.375000
 21
-23.800000
 31
0.0
 11
97.534794
 21
-24.701986
 31
0.0
 11
97.986254
 21
-25.483938
 31
0.0
 11
98.687500
 21
-26.073317
 31
0.0
 11
99.548540
 21
-26.385924
 31
0.0
 11
100.451461
 21
-26.385924
 31
0.0
 11
101.312500
 21
-26.073317
 31
0.0
 11
102.013746
 21
-25.483938
 31
0.0
 11
102.465206
 21
-24.701986
 31
0.0
 11
102.625000
 21
-23.800000
 31
0.0
  0
LINE
  5
10e
100
AcDbEntity
  8
0
 62
7
100
AcDbLine
 10
102.625000
 20
93.800000
 30
0.0
 11
102.625000
 21
93.800000
 31
0.0
  0
SPLINE
  5
10f
100
AcDbEntity
  8
0
 62
7
100
AcDbSpline
 70
0
 71
3
 72
25
 73
21
 74
19
 40
0.000000
 40
0.000000
 40
0.000000
 40
0.000000
 40
0.916031
 40
1.818952
 40
2.734983
 40
3.651013
 40
4.553934
 40
5.469965
 40
6.385996
 40
7.288917
 40
8.204948
 40
9.120978
 40
10.023899
 40
10.939930
 40
11.855961
 40
12.758882
 40
13.674913
 40
14.590943
 40
15.493864
 40
16.409895
 40
16.409895
 40
16.409895
 40
16.409895
 10
102.625000
 20
93.800000
 30
0.0
 10
102.593637
 20
94.106901
 30
0.0
 10
102.531359
 20
94.716311
 30
0.0
 10
102.048184
 20
95.521655
 30
0.0
 10
101.340734
 20
96.120407
 30
0.0
 10
100.464690
 20
96.437965
 30
0.0
 10
99.535109
 20
96.437965
 30
0.0
 10
98.660292
 20
96.120407
 30
0.0
 10
97.947943
 20
95.521655
 30
0.0
 10
97.482971
 20
94.716311
 30
0.0
 10
97.320626
 20
93.800000
 30
0.0
 10
97.482971
 20
92.883689
 30
0.0
 10
97.947943
 20
92.078345
 30
0.0
 10
98.660292
 20
91.479593
 30
0.0
 10
99.535109
 20
91.162035
 30
0.0
 10
100.464690
 20
91.162035
 30
0.0
 10
101.340734
 20
91.479593
 30
0.0
 10
102.048184
 20
92.078345
 30
0.0
 10
102.531359
 20
92.883689
 30
0.0
 10
102.593637
 20
93.493099
 30
0.0
 10
102.625000
 20
93.800000
 30
0.0
 11
102.625000
 21
93.800000
 31
0.0
 11
102.465206
 21
94.701986
 31
0.0
 11
102.013746
 21
95.483938
 31
0.0
 11
101.312500
 21
96.073317
 31
0.0
 11
100.451461
 21
96.385924
 31
0.0
 11
99.548540
 21
96.385924
 31
0.0
 11
98.687500
 21
96.073317
 31
0.0
 11
97.986254
 21
95.483938
 31
0.0
 11
97.534794
 21
94.701986
 31
0.0
 11
97.375000
 21
93.800000
 31
0.0
 11
97.534794
 21
92.898014
 31
0.0
 11
97.986254
 21
92.116062
 31
0.0
 11
98.687500
 21
91.526683
 31
0.0
 11
99.548540
 21
91.214076
 31
0.0
 11
100.451461
 21
91.214076
 31
0.0
 11
101.312500
 21
91.526683
 31
0.0
 11
102.013746
 21
92.116062
 31
0.0
 11
102.465206
 21
92.898014
 31
0.0
 11
102.625000
 21
93.800000
 31
0.0
  0
LINE
  5
110
100
AcDbEntity
  8
0
 62
7
100
AcDbLine
 10
-97.375000
 20
-23.800000
 30
0.0
 11
-97.375000
 21
-23.800000
 31
0.0
  0
SPLINE
  5
111
100
AcDbEntity
  8
0
 62
7
100
AcDbSpline
 70
0
 71
3
 72
25
 73
21
 74
19
 40
0.000000
 40
0.000000
 40
0.000000
 40
0.000000
 40
0.916031
 40
1.818952
 40
2.734983
 40
3.651013
 40
4.553934
 40
5.469965
 40
6.385996
 40
7.288917
 40
8.204948
 40
9.120978
 40
10.023899
 40
10.939930
 40
11.855961
 40
12.758882
 40
13.674913
 40
14.590943
 40
15.493864
 40
16.409895
 40
16.409895
 40
16.409895
 40
16.409895
 10
-97.375000
 20
-23.800000
 30
0.0
 10
-97.406364
 20
-23.493099
 30
0.0
 10
-97.468641
 20
-22.883689
 30
0.0
 10
-97.951816
 20
-22.078345
 30
0.0
 10
-98.659266
 20
-21.479593
 30
0.0
 10
-99.535310
 20
-21.162035
 30
0.0
 10
-100.464891
 20
-21.162035
 30
0.0
 10
-101.339708
 20
-21.479593
 30
0.0
 10
-102.052057
 20
-22.078345
 30
0.0
 10
-102.517029
 20
-22.883689
 30
0.0
 10
-102.679375
 20
-23.800000
 30
0.0
 10
-102.517029
 20
-24.716310
 30
0.0
 10
-102.052057
 20
-25.521655
 30
0.0
 10
-101.339708
 20
-26.120407
 30
0.0
 10
-100.464891
 20
-26.437965
 30
0.0
 10
-99.535310
 20
-26.437965
 30
0.0
 10
-98.659266
 20
-26.120407
 30
0.0
 10
-97.951816
 20
-25.521655
 30
0.0
 10
-97.468641
 20
-24.716310
 30
0.0
 10
-97.406364
 20
-24.106901
 30
0.0
 10
-97.375000
 20
-23.800000
 30
0.0
 11
-97.375000
 21
-23.800000
 31
0.0
 11
-97.534794
 21
-22.898014
 31
0.0
 11
-97.986254
 21
-22.116062
 31
0.0
 11
-98.687500
 21
-21.526683
 31
0.0
 11
-99.548540
 21
-21.214076
 31
0.0
 11
-100.451461
 21
-21.214076
 31
0.0
 11
-101.312500
 21
-21.526683
 31
0.0
 11
-102.013746
 21
-22.116062
 31
0.0
 11
-102.465206
 21
-22.898014
 31
0.0
 11
-102.625000
 21
-23.800000
 31
0.0
 11
-102.465206
 21
-24.701986
 31
0.0
 11
-102.013746
 21
-25.483938
 31
0.0
 11
-101.312500
 21
-26.073317
 31
0.0
 11
-100.451461
 21
-26.385924
 31
0.0
 11
-99.548540
 21
-26.385924
 31
0.0
 11
-98.687500
 21
-26.073317
 31
0.0
 11
-97.986254
 21
-25.483938
 31
0.0
 11
-97.534794
 21
-24.701986
 31
0.0
 11
-97.375000
 21
-23.800000
 31
0.0
  0
LINE
  5
112
100
AcDbEntity
  8
0
 62
7
100
AcDbLine
 10
-97.375000
 20
93.800000
 30
0.0
 11
-97.375000
 21
93.800000
 31
0.0
  0
SPLINE
  5
113
100
AcDbEntity
  8
0
 62
7
100
AcDbSpline
 70
0
 71
3
 72
25
 73
21
 74
19
 40
0.000000
 40
0.000000
 40
0.000000
 40
0.000000
 40
0.916031
 40
1.818952
 40
2.734983
 40
3.651013
 40
4.553934
 40
5.469965
 40
6.385996
 40
7.288917
 40
8.204948
 40
9.120978
 40
10.023899
 40
10.939930
 40
11.855961
 40
12.758882
 40
13.674913
 40
14.590943
 40
15.493864
 40
16.409895
 40
16.409895
 40
16.409895
 40
16.409895
 10
-97.375000
 20
93.800000
 30
0.0
 10
-97.406364
 20
94.106901
 30
0.0
 10
-97.468641
 20
94.716311
 30
0.0
 10
-97.951816
 20
95.521655
 30
0.0
 10
-98.659266
 20
96.120407
 30
0.0
 10
-99.535310
 20
96.437965
 30
0.0
 10
-100.464891
 20
96.437965
 30
0.0
 10
-101.339708
 20
96.120407
 30
0.0
 10
-102.052057
 20
95.521655
 30
0.0
 10
-102.517029
 20
94.716311
 30
0.0
 10
-102.679375
 20
93.800000
 30
0.0
 10
-102.517029
 20
92.883689
 30
0.0
 10
-102.052057
 20
92.078345
 30
0.0
 10
-101.339708
 20
91.479593
 30
0.0
 10
-100.464891
 20
91.162035
 30
0.0
 10
-99.535310
 20
91.162035
 30
0.0
 10
-98.659266
 20
91.479593
 30
0.0
 10
-97.951816
 20
92.078345
 30
0.0
 10
-97.468641
 20
92.883689
 30
0.0
 10
-97.406364
 20
93.493099
 30
0.0
 10
-97.375000
 20
93.800000
 30
0.0
 11
-97.375000
 21
93.800000
 31
0.0
 11
-97.534794
 21
94.701986
 31
0.0
 11
-97.986254
 21
95.483938
 31
0.0
 11
-98.687500
 21
96.073317
 31
0.0
 11
-99.548540
 21
96.385924
 31
0.0
 11
-100.451461
 21
96.385924
 31
0.0
 11
-101.312500
 21
96.073317
 31
0.0
 11
-102.013746
 21
95.483938
 31
0.0
 11
-102.465206
 21
94.701986
 31
0.0
 11
-102.625000
 21
93.800000
 31
0.0
 11
-102.465206
 21
92.898014
 31
0.0
 11
-102.013746
 21
92.116062
 31
0.0
 11
-101.312500
 21
91.526683
 31
0.0
 11
-100.451461
 21
91.214076
 31
0.0
 11
-99.548540
 21
91.214076
 31
0.0
 11
-98.687500
 21
91.526683
 31
0.0
 11
-97.986254
 21
92.116062
 31
0.0
 11
-97.534794
 21
92.898014
 31
0.0
 11
-97.375000
 21
93.800000
 31
0.0
  0
ENDSEC
  0
SECTION
  2
OBJECTS
  0
DICTIONARY
  5
C
330
0
100
AcDbDictionary
  3
ACAD_GROUP
350
D
  3
ACAD_MLINESTYLE
350
17
  0
DICTIONARY
  5
D
330
C
100
AcDbDictionary
  0
DICTIONARY
  5
1A
330
C
100
AcDbDictionary
  0
DICTIONARY
  5
17
330
C
100
AcDbDictionary
  3
STANDARD
350
18
  0
DICTIONARY
  5
19
330
C
100
AcDbDictionary
  0
ENDSEC
  0
EOF
