  0
SECTION
  2
HEADER
  9
$ACADVER
  1
AC1014
  9
$HANDSEED
  5
FFFF
  9
$MEASUREMENT
 70
     1
  0
ENDSEC
  0
SECTION
  2
TABLES
  0
TABLE
  2
VPORT
  5
8
330
0
100
AcDbSymbolTable
 70
     4
  0
VPORT
  5
2E
330
8
100
AcDbSymbolTableRecord
100
AcDbViewportTableRecord
  2
*ACTIVE
 70
     0
 10
0.0
 20
0.0
 11
1.0
 21
1.0
 12
210.0
 22
148.5
 13
0.0
 23
0.0
 14
10.0
 24
10.0
 15
10.0
 25
10.0
 16
0.0
 26
0.0
 36
1.0
 17
0.0
 27
0.0
 37
0.0
 40
341.0
 41
1.24
 42
50.0
 43
0.0
 44
0.0
 50
0.0
 51
0.0
 71
     0
 72
   100
 73
     1
 74
     3
 75
     0
 76
     0
 77
     0
 78
     0
  0
ENDTAB
  0
TABLE
  2
LTYPE
  5
5
330
0
100
AcDbSymbolTable
 70
     1
  0
LTYPE
  5
14
330
5
100
AcDbSymbolTableRecord
100
AcDbLinetypeTableRecord
  2
BYBLOCK
 70
     0
  3

 72
    65
 73
     0
 40
0.0
  0
LTYPE
  5
15
330
5
100
AcDbSymbolTableRecord
100
AcDbLinetypeTableRecord
  2
BYLAYER
 70
     0
  3

 72
    65
 73
     0
 40
0.0
  0
LTYPE
  5
16
330
5
100
AcDbSymbolTableRecord
100
AcDbLinetypeTableRecord
  2
CONTINUOUS
 70
     0
  3
Solid line
 72
    65
 73
     0
 40
0.0
  0
ENDTAB
  0
TABLE
  2
LAYER
  5
2
100
AcDbSymbolTable
 70
1
  0
LAYER
  5
50
100
AcDbSymbolTableRecord
100
AcDbLayerTableRecord
  2
0
 70
0
  6
CONTINUOUS
  0
ENDTAB
  0
TABLE
  2
STYLE
  5
3
330
0
100
AcDbSymbolTable
 70
     1
  0
STYLE
  5
11
330
3
100
AcDbSymbolTableRecord
100
AcDbTextStyleTableRecord
  2
STANDARD
 70
     0
 40
0.0
 41
1.0
 50
0.0
 71
     0
 42
2.5
  3
txt
  4

  0
ENDTAB
  0
TABLE
  2
VIEW
  5
6
330
0
100
AcDbSymbolTable
 70
     0
  0
ENDTAB
  0
TABLE
  2
UCS
  5
7
330
0
100
AcDbSymbolTable
 70
     0
  0
ENDTAB
  0
TABLE
  2
APPID
  5
9
330
0
100
AcDbSymbolTable
 70
     2
  0
APPID
  5
12
330
9
100
AcDbSymbolTableRecord
100
AcDbRegAppTableRecord
  2
ACAD
 70
     0
  0
ENDTAB
  0
TABLE
  2
DIMSTYLE
  5
A
330
0
100
AcDbSymbolTable
 70
     1
  0
DIMSTYLE
105
27
330
A
100
AcDbSymbolTableRecord
100
AcDbDimStyleTableRecord
  2
ISO-25
 70
     0
  3

  4

  5

  6

  7

 40
1.0
 41
2.5
 42
0.625
 43
3.75
 44
1.25
 45
0.0
 46
0.0
 47
0.0
 48
0.0
140
2.5
141
2.5
142
0.0
143
0.03937007874016
144
1.0
145
0.0
146
1.0
147
0.625
 71
     0
 72
     0
 73
     0
 74
     0
 75
     0
 76
     0
 77
     1
 78
     8
170
     0
171
     3
172
     1
173
     0
174
     0
175
     0
176
     0
177
     0
178
     0
270
     2
271
     2
272
     2
273
     2
274
     3
340
11
275
     0
280
     0
281
     0
282
     0
283
     0
284
     8
285
     0
286
     0
287
     3
288
     0
  0
ENDTAB
  0
TABLE
  2
BLOCK_RECORD
  5
1
330
0
100
AcDbSymbolTable
 70
     1
  0
BLOCK_RECORD
  5
1F
330
1
100
AcDbSymbolTableRecord
100
AcDbBlockTableRecord
  2
*MODEL_SPACE
  0
BLOCK_RECORD
  5
1B
330
1
100
AcDbSymbolTableRecord
100
AcDbBlockTableRecord
  2
*PAPER_SPACE
  0
ENDTAB
  0
ENDSEC
  0
SECTION
  2
BLOCKS
  0
BLOCK
  5
20
330
1F
100
AcDbEntity
  8
0
100
AcDbBlockBegin
  2
*MODEL_SPACE
 70
     0
 10
0.0
 20
0.0
 30
0.0
  3
*MODEL_SPACE
  1

  0
ENDBLK
  5
21
330
1F
100
AcDbEntity
  8
0
100
AcDbBlockEnd
  0
BLOCK
  5
1C
330
1B
100
AcDbEntity
 67
     1
  8
0
100
AcDbBlockBegin
  2
*PAPER_SPACE
  1

  0
ENDBLK
  5
1D
330
1B
100
AcDbEntity
 67
     1
  8
0
100
AcDbBlockEnd
  0
ENDSEC
  0
SECTION
  2
ENTITIES
  0
LINE
  5
100
100
AcDbEntity
  8
0
 62
7
100
AcDbLine
 10
49.786924
 20
32.004011
 30
0.0
 11
-65.860710
 21
85.931389
 31
0.0
  0
LINE
  5
101
100
AcDbEntity
  8
0
 62
7
100
AcDbLine
 10
-94.313076
 20
67.805234
 30
0.0
 11
-94.313076
 21
26.004012
 31
0.0
  0
LINE
  5
102
100
AcDbEntity
  8
0
 62
7
100
AcDbLine
 10
-87.813076
 20
19.504011
 30
0.0
 11
-94.313076
 21
26.004012
 31
0.0
  0
LINE
  5
103
100
AcDbEntity
  8
0
 62
7
100
AcDbLine
 10
-87.813076
 20
-84.995988
 30
0.0
 11
-87.813076
 21
19.504011
 31
0.0
  0
LINE
  5
104
100
AcDbEntity
  8
0
 62
7
100
AcDbLine
 10
-87.813076
 20
-84.995988
 30
0.0
 11
49.786924
 21
-84.995988
 31
0.0
  0
LINE
  5
105
100
AcDbEntity
  8
0
 62
7
100
AcDbLine
 10
49.786924
 20
-84.995988
 30
0.0
 11
49.786924
 21
-54.995988
 31
0.0
  0
LINE
  5
106
100
AcDbEntity
  8
0
 62
7
100
AcDbLine
 10
39.786924
 20
-54.995988
 30
0.0
 11
49.786924
 21
-54.995988
 31
0.0
  0
SPLINE
  5
107
100
AcDbEntity
  8
0
 62
7
100
AcDbSpline
 70
0
 71
3
 72
13
 73
9
 74
7
 40
0.000000
 40
0.000000
 40
0.000000
 40
0.000000
 40
6.688779
 40
13.289186
 40
19.977965
 40
26.666745
 40
33.267151
 40
39.955931
 40
39.955931
 40
39.955931
 40
39.955931
 10
-65.860710
 20
85.931389
 30
0.0
 10
-67.983643
 20
86.679469
 30
0.0
 10
-72.201458
 20
88.165744
 30
0.0
 10
-79.020363
 20
87.606755
 30
0.0
 10
-85.267396
 20
85.000073
 30
0.0
 10
-90.269963
 20
80.439969
 30
0.0
 10
-93.658373
 20
74.496182
 30
0.0
 10
-94.093876
 20
70.045415
 30
0.0
 10
-94.313076
 20
67.805233
 30
0.0
 11
-65.860710
 21
85.931389
 31
0.0
 11
-72.310084
 21
87.704902
 31
0.0
 11
-78.896359
 21
87.273214
 31
0.0
 11
-85.059068
 21
84.673062
 31
0.0
 11
-90.020079
 21
80.186623
 31
0.0
 11
-93.194800
 21
74.399870
 31
0.0
 11
-94.313076
 21
67.805233
 31
0.0
  0
LINE
  5
108
100
AcDbEntity
  8
0
 62
7
100
AcDbLine
 10
34.786924
 20
-5.995988
 30
0.0
 11
34.786924
 21
-49.995988
 31
0.0
  0
SPLINE
  5
109
100
AcDbEntity
  8
0
 62
7
100
AcDbSpline
 70
0
 71
3
 72
13
 73
9
 74
7
 40
0.000000
 40
0.000000
 40
0.000000
 40
0.000000
 40
1.308874
 40
2.606917
 40
3.915792
 40
5.224666
 40
6.522709
 40
7.831584
 40
7.831584
 40
7.831584
 40
7.831584
 10
34.786924
 20
-49.995988
 30
0.0
 10
34.820255
 20
-50.433555
 30
0.0
 10
34.886642
 20
-51.305066
 30
0.0
 10
35.411268
 20
-52.524272
 30
0.0
 10
36.209435
 20
-53.573478
 30
0.0
 10
37.258641
 20
-54.371645
 30
0.0
 10
38.477847
 20
-54.896271
 30
0.0
 10
39.349358
 20
-54.962657
 30
0.0
 10
39.786924
 20
-54.995988
 30
0.0
 11
34.786924
 21
-49.995988
 31
0.0
 11
34.958227
 21
-51.293605
 31
0.0
 11
35.454966
 21
-52.492840
 31
0.0
 11
36.251390
 21
-53.531522
 31
0.0
 11
37.290073
 21
-54.327946
 31
0.0
 11
38.489308
 21
-54.824686
 31
0.0
 11
39.786924
 21
-54.995988
 31
0.0
  0
LINE
  5
10a
100
AcDbEntity
  8
0
 62
7
100
AcDbLine
 10
49.786924
 20
-0.995989
 30
0.0
 11
39.786924
 21
-0.995989
 31
0.0
  0
LINE
  5
10b
100
AcDbEntity
  8
0
 62
7
100
AcDbLine
 10
49.786924
 20
-0.995989
 30
0.0
 11
49.786924
 21
32.004011
 31
0.0
  0
SPLINE
  5
10c
100
AcDbEntity
  8
0
 62
7
100
AcDbSpline
 70
0
 71
3
 72
13
 73
9
 74
7
 40
0.000000
 40
0.000000
 40
0.000000
 40
0.000000
 40
1.308874
 40
2.606917
 40
3.915792
 40
5.224666
 40
6.522709
 40
7.831584
 40
7.831584
 40
7.831584
 40
7.831584
 10
39.786924
 20
-0.995989
 30
0.0
 10
39.349358
 20
-1.029320
 30
0.0
 10
38.477847
 20
-1.095706
 30
0.0
 10
37.258641
 20
-1.620332
 30
0.0
 10
36.209435
 20
-2.418499
 30
0.0
 10
35.411268
 20
-3.467705
 30
0.0
 10
34.886642
 20
-4.686911
 30
0.0
 10
34.820255
 20
-5.558422
 30
0.0
 10
34.786924
 20
-5.995988
 30
0.0
 11
39.786924
 21
-0.995989
 31
0.0
 11
38.489308
 21
-1.167291
 31
0.0
 11
37.290073
 21
-1.664031
 31
0.0
 11
36.251390
 21
-2.460455
 31
0.0
 11
35.454966
 21
-3.499137
 31
0.0
 11
34.958227
 21
-4.698372
 31
0.0
 11
34.786924
 21
-5.995988
 31
0.0
  0
LINE
  5
10d
100
AcDbEntity
  8
0
 62
7
100
AcDbLine
 10
-75.188076
 20
-69.995989
 30
0.0
 11
-75.188076
 21
-69.995989
 31
0.0
  0
SPLINE
  5
10e
100
AcDbEntity
  8
0
 62
7
100
AcDbSpline
 70
0
 71
3
 72
25
 73
21
 74
19
 40
0.000000
 40
0.000000
 40
0.000000
 40
0.000000
 40
0.916031
 40
1.818952
 40
2.734983
 40
3.651013
 40
4.553934
 40
5.469965
 40
6.385996
 40
7.288917
 40
8.204948
 40
9.120978
 40
10.023899
 40
10.939930
 40
11.855961
 40
12.758882
 40
13.674913
 40
14.590943
 40
15.493864
 40
16.409895
 40
16.409895
 40
16.409895
 40
16.409895
 10
-75.188076
 20
-69.995989
 30
0.0
 10
-75.219439
 20
-69.689088
 30
0.0
 10
-75.281717
 20
-69.079678
 30
0.0
 10
-75.764892
 20
-68.274334
 30
0.0
 10
-76.472342
 20
-67.675582
 30
0.0
 10
-77.348386
 20
-67.358023
 30
0.0
 10
-78.277967
 20
-67.358023
 30
0.0
 10
-79.152783
 20
-67.675582
 30
0.0
 10
-79.865132
 20
-68.274334
 30
0.0
 10
-80.330105
 20
-69.079678
 30
0.0
 10
-80.492450
 20
-69.995989
 30
0.0
 10
-80.330105
 20
-70.912299
 30
0.0
 10
-79.865132
 20
-71.717643
 30
0.0
 10
-79.152783
 20
-72.316396
 30
0.0
 10
-78.277967
 20
-72.633954
 30
0.0
 10
-77.348386
 20
-72.633954
 30
0.0
 10
-76.472342
 20
-72.316396
 30
0.0
 10
-75.764892
 20
-71.717643
 30
0.0
 10
-75.281717
 20
-70.912299
 30
0.0
 10
-75.219439
 20
-70.302889
 30
0.0
 10
-75.188076
 20
-69.995989
 30
0.0
 11
-75.188076
 21
-69.995989
 31
0.0
 11
-75.347870
 21
-69.094003
 31
0.0
 11
-75.799330
 21
-68.312050
 31
0.0
 11
-76.500576
 21
-67.722672
 31
0.0
 11
-77.361615
 21
-67.410065
 31
0.0
 11
-78.264536
 21
-67.410065
 31
0.0
 11
-79.125576
 21
-67.722672
 31
0.0
 11
-79.826821
 21
-68.312050
 31
0.0
 11
-80.278282
 21
-69.094003
 31
0.0
 11
-80.438076
 21
-69.995989
 31
0.0
 11
-80.278282
 21
-70.897974
 31
0.0
 11
-79.826821
 21
-71.679927
 31
0.0
 11
-79.125576
 21
-72.269305
 31
0.0
 11
-78.264536
 21
-72.581913
 31
0.0
 11
-77.361615
 21
-72.581913
 31
0.0
 11
-76.500576
 21
-72.269305
 31
0.0
 11
-75.799330
 21
-71.679927
 31
0.0
 11
-75.347869
 21
-70.897974
 31
0.0
 11
-75.188076
 21
-69.995989
 31
0.0
  0
LINE
  5
10f
100
AcDbEntity
  8
0
 62
7
100
AcDbLine
 10
-75.188076
 20
67.504012
 30
0.0
 11
-75.188076
 21
67.504012
 31
0.0
  0
SPLINE
  5
110
100
AcDbEntity
  8
0
 62
7
100
AcDbSpline
 70
0
 71
3
 72
25
 73
21
 74
19
 40
0.000000
 40
0.000000
 40
0.000000
 40
0.000000
 40
0.916031
 40
1.818952
 40
2.734983
 40
3.651013
 40
4.553934
 40
5.469965
 40
6.385996
 40
7.288917
 40
8.204948
 40
9.120978
 40
10.023899
 40
10.939930
 40
11.855961
 40
12.758882
 40
13.674913
 40
14.590943
 40
15.493864
 40
16.409895
 40
16.409895
 40
16.409895
 40
16.409895
 10
-75.188076
 20
67.504012
 30
0.0
 10
-75.219439
 20
67.810913
 30
0.0
 10
-75.281717
 20
68.420322
 30
0.0
 10
-75.764892
 20
69.225666
 30
0.0
 10
-76.472342
 20
69.824419
 30
0.0
 10
-77.348386
 20
70.141977
 30
0.0
 10
-78.277967
 20
70.141977
 30
0.0
 10
-79.152783
 20
69.824419
 30
0.0
 10
-79.865132
 20
69.225666
 30
0.0
 10
-80.330105
 20
68.420322
 30
0.0
 10
-80.492450
 20
67.504012
 30
0.0
 10
-80.330105
 20
66.587701
 30
0.0
 10
-79.865132
 20
65.782357
 30
0.0
 10
-79.152783
 20
65.183605
 30
0.0
 10
-78.277967
 20
64.866046
 30
0.0
 10
-77.348386
 20
64.866046
 30
0.0
 10
-76.472342
 20
65.183605
 30
0.0
 10
-75.764892
 20
65.782357
 30
0.0
 10
-75.281717
 20
66.587701
 30
0.0
 10
-75.219439
 20
67.197111
 30
0.0
 10
-75.188076
 20
67.504012
 30
0.0
 11
-75.188076
 21
67.504012
 31
0.0
 11
-75.347870
 21
68.405997
 31
0.0
 11
-75.799330
 21
69.187950
 31
0.0
 11
-76.500576
 21
69.777328
 31
0.0
 11
-77.361615
 21
70.089936
 31
0.0
 11
-78.264536
 21
70.089936
 31
0.0
 11
-79.125576
 21
69.777328
 31
0.0
 11
-79.826821
 21
69.187950
 31
0.0
 11
-80.278282
 21
68.405997
 31
0.0
 11
-80.438076
 21
67.504012
 31
0.0
 11
-80.278282
 21
66.602026
 31
0.0
 11
-79.826821
 21
65.820073
 31
0.0
 11
-79.125576
 21
65.230695
 31
0.0
 11
-78.264536
 21
64.918088
 31
0.0
 11
-77.361615
 21
64.918088
 31
0.0
 11
-76.500576
 21
65.230695
 31
0.0
 11
-75.799330
 21
65.820073
 31
0.0
 11
-75.347869
 21
66.602026
 31
0.0
 11
-75.188076
 21
67.504012
 31
0.0
  0
LINE
  5
111
100
AcDbEntity
  8
0
 62
7
100
AcDbLine
 10
42.411924
 20
14.004012
 30
0.0
 11
42.411924
 21
14.004012
 31
0.0
  0
SPLINE
  5
112
100
AcDbEntity
  8
0
 62
7
100
AcDbSpline
 70
0
 71
3
 72
25
 73
21
 74
19
 40
0.000000
 40
0.000000
 40
0.000000
 40
0.000000
 40
0.916031
 40
1.818952
 40
2.734983
 40
3.651013
 40
4.553934
 40
5.469965
 40
6.385996
 40
7.288917
 40
8.204948
 40
9.120978
 40
10.023899
 40
10.939930
 40
11.855961
 40
12.758882
 40
13.674913
 40
14.590943
 40
15.493864
 40
16.409895
 40
16.409895
 40
16.409895
 40
16.409895
 10
42.411924
 20
14.004012
 30
0.0
 10
42.380561
 20
14.310913
 30
0.0
 10
42.318283
 20
14.920322
 30
0.0
 10
41.835108
 20
15.725666
 30
0.0
 10
41.127658
 20
16.324419
 30
0.0
 10
40.251614
 20
16.641977
 30
0.0
 10
39.322033
 20
16.641977
 30
0.0
 10
38.447217
 20
16.324419
 30
0.0
 10
37.734868
 20
15.725666
 30
0.0
 10
37.269895
 20
14.920322
 30
0.0
 10
37.107550
 20
14.004012
 30
0.0
 10
37.269895
 20
13.087701
 30
0.0
 10
37.734868
 20
12.282357
 30
0.0
 10
38.447217
 20
11.683605
 30
0.0
 10
39.322033
 20
11.366046
 30
0.0
 10
40.251614
 20
11.366046
 30
0.0
 10
41.127658
 20
11.683605
 30
0.0
 10
41.835108
 20
12.282357
 30
0.0
 10
42.318283
 20
13.087701
 30
0.0
 10
42.380561
 20
13.697111
 30
0.0
 10
42.411924
 20
14.004012
 30
0.0
 11
42.411924
 21
14.004012
 31
0.0
 11
42.252131
 21
14.905997
 31
0.0
 11
41.800670
 21
15.687950
 31
0.0
 11
41.099424
 21
16.277328
 31
0.0
 11
40.238385
 21
16.589936
 31
0.0
 11
39.335464
 21
16.589936
 31
0.0
 11
38.474424
 21
16.277328
 31
0.0
 11
37.773179
 21
15.687950
 31
0.0
 11
37.321718
 21
14.905997
 31
0.0
 11
37.161924
 21
14.004012
 31
0.0
 11
37.321718
 21
13.102026
 31
0.0
 11
37.773179
 21
12.320073
 31
0.0
 11
38.474424
 21
11.730695
 31
0.0
 11
39.335464
 21
11.418088
 31
0.0
 11
40.238385
 21
11.418088
 31
0.0
 11
41.099424
 21
11.730695
 31
0.0
 11
41.800670
 21
12.320073
 31
0.0
 11
42.252131
 21
13.102026
 31
0.0
 11
42.411924
 21
14.004012
 31
0.0
  0
LINE
  5
113
100
AcDbEntity
  8
0
 62
7
100
AcDbLine
 10
42.411924
 20
-69.995989
 30
0.0
 11
42.411924
 21
-69.995989
 31
0.0
  0
SPLINE
  5
114
100
AcDbEntity
  8
0
 62
7
100
AcDbSpline
 70
0
 71
3
 72
25
 73
21
 74
19
 40
0.000000
 40
0.000000
 40
0.000000
 40
0.000000
 40
0.916031
 40
1.818952
 40
2.734983
 40
3.651013
 40
4.553934
 40
5.469965
 40
6.385996
 40
7.288917
 40
8.204948
 40
9.120978
 40
10.023899
 40
10.939930
 40
11.855961
 40
12.758882
 40
13.674913
 40
14.590943
 40
15.493864
 40
16.409895
 40
16.409895
 40
16.409895
 40
16.409895
 10
42.411924
 20
-69.995989
 30
0.0
 10
42.380561
 20
-69.689088
 30
0.0
 10
42.318283
 20
-69.079678
 30
0.0
 10
41.835108
 20
-68.274334
 30
0.0
 10
41.127658
 20
-67.675582
 30
0.0
 10
40.251614
 20
-67.358023
 30
0.0
 10
39.322033
 20
-67.358023
 30
0.0
 10
38.447217
 20
-67.675582
 30
0.0
 10
37.734868
 20
-68.274334
 30
0.0
 10
37.269895
 20
-69.079678
 30
0.0
 10
37.107550
 20
-69.995989
 30
0.0
 10
37.269895
 20
-70.912299
 30
0.0
 10
37.734868
 20
-71.717643
 30
0.0
 10
38.447217
 20
-72.316396
 30
0.0
 10
39.322033
 20
-72.633954
 30
0.0
 10
40.251614
 20
-72.633954
 30
0.0
 10
41.127658
 20
-72.316396
 30
0.0
 10
41.835108
 20
-71.717643
 30
0.0
 10
42.318283
 20
-70.912299
 30
0.0
 10
42.380561
 20
-70.302889
 30
0.0
 10
42.411924
 20
-69.995989
 30
0.0
 11
42.411924
 21
-69.995989
 31
0.0
 11
42.252131
 21
-69.094003
 31
0.0
 11
41.800670
 21
-68.312050
 31
0.0
 11
41.099424
 21
-67.722672
 31
0.0
 11
40.238385
 21
-67.410065
 31
0.0
 11
39.335464
 21
-67.410065
 31
0.0
 11
38.474424
 21
-67.722672
 31
0.0
 11
37.773179
 21
-68.312050
 31
0.0
 11
37.321718
 21
-69.094003
 31
0.0
 11
37.161924
 21
-69.995989
 31
0.0
 11
37.321718
 21
-70.897974
 31
0.0
 11
37.773179
 21
-71.679927
 31
0.0
 11
38.474424
 21
-72.269305
 31
0.0
 11
39.335464
 21
-72.581913
 31
0.0
 11
40.238385
 21
-72.581913
 31
0.0
 11
41.099424
 21
-72.269305
 31
0.0
 11
41.800670
 21
-71.679927
 31
0.0
 11
42.252131
 21
-70.897974
 31
0.0
 11
42.411924
 21
-69.995989
 31
0.0
  0
ENDSEC
  0
SECTION
  2
OBJECTS
  0
DICTIONARY
  5
C
330
0
100
AcDbDictionary
  3
ACAD_GROUP
350
D
  3
ACAD_MLINESTYLE
350
17
  0
DICTIONARY
  5
D
330
C
100
AcDbDictionary
  0
DICTIONARY
  5
1A
330
C
100
AcDbDictionary
  0
DICTIONARY
  5
17
330
C
100
AcDbDictionary
  3
STANDARD
350
18
  0
DICTIONARY
  5
19
330
C
100
AcDbDictionary
  0
ENDSEC
  0
EOF
