  0
SECTION
  2
HEADER
  9
$ACADVER
  1
AC1014
  9
$HANDSEED
  5
FFFF
  9
$MEASUREMENT
 70
     1
  0
ENDSEC
  0
SECTION
  2
TABLES
  0
TABLE
  2
VPORT
  5
8
330
0
100
AcDbSymbolTable
 70
     4
  0
VPORT
  5
2E
330
8
100
AcDbSymbolTableRecord
100
AcDbViewportTableRecord
  2
*ACTIVE
 70
     0
 10
0.0
 20
0.0
 11
1.0
 21
1.0
 12
210.0
 22
148.5
 13
0.0
 23
0.0
 14
10.0
 24
10.0
 15
10.0
 25
10.0
 16
0.0
 26
0.0
 36
1.0
 17
0.0
 27
0.0
 37
0.0
 40
341.0
 41
1.24
 42
50.0
 43
0.0
 44
0.0
 50
0.0
 51
0.0
 71
     0
 72
   100
 73
     1
 74
     3
 75
     0
 76
     0
 77
     0
 78
     0
  0
ENDTAB
  0
TABLE
  2
LTYPE
  5
5
330
0
100
AcDbSymbolTable
 70
     1
  0
LTYPE
  5
14
330
5
100
AcDbSymbolTableRecord
100
AcDbLinetypeTableRecord
  2
BYBLOCK
 70
     0
  3

 72
    65
 73
     0
 40
0.0
  0
LTYPE
  5
15
330
5
100
AcDbSymbolTableRecord
100
AcDbLinetypeTableRecord
  2
BYLAYER
 70
     0
  3

 72
    65
 73
     0
 40
0.0
  0
LTYPE
  5
16
330
5
100
AcDbSymbolTableRecord
100
AcDbLinetypeTableRecord
  2
CONTINUOUS
 70
     0
  3
Solid line
 72
    65
 73
     0
 40
0.0
  0
ENDTAB
  0
TABLE
  2
LAYER
  5
2
100
AcDbSymbolTable
 70
1
  0
LAYER
  5
50
100
AcDbSymbolTableRecord
100
AcDbLayerTableRecord
  2
0
 70
0
  6
CONTINUOUS
  0
ENDTAB
  0
TABLE
  2
STYLE
  5
3
330
0
100
AcDbSymbolTable
 70
     1
  0
STYLE
  5
11
330
3
100
AcDbSymbolTableRecord
100
AcDbTextStyleTableRecord
  2
STANDARD
 70
     0
 40
0.0
 41
1.0
 50
0.0
 71
     0
 42
2.5
  3
txt
  4

  0
ENDTAB
  0
TABLE
  2
VIEW
  5
6
330
0
100
AcDbSymbolTable
 70
     0
  0
ENDTAB
  0
TABLE
  2
UCS
  5
7
330
0
100
AcDbSymbolTable
 70
     0
  0
ENDTAB
  0
TABLE
  2
APPID
  5
9
330
0
100
AcDbSymbolTable
 70
     2
  0
APPID
  5
12
330
9
100
AcDbSymbolTableRecord
100
AcDbRegAppTableRecord
  2
ACAD
 70
     0
  0
ENDTAB
  0
TABLE
  2
DIMSTYLE
  5
A
330
0
100
AcDbSymbolTable
 70
     1
  0
DIMSTYLE
105
27
330
A
100
AcDbSymbolTableRecord
100
AcDbDimStyleTableRecord
  2
ISO-25
 70
     0
  3

  4

  5

  6

  7

 40
1.0
 41
2.5
 42
0.625
 43
3.75
 44
1.25
 45
0.0
 46
0.0
 47
0.0
 48
0.0
140
2.5
141
2.5
142
0.0
143
0.03937007874016
144
1.0
145
0.0
146
1.0
147
0.625
 71
     0
 72
     0
 73
     0
 74
     0
 75
     0
 76
     0
 77
     1
 78
     8
170
     0
171
     3
172
     1
173
     0
174
     0
175
     0
176
     0
177
     0
178
     0
270
     2
271
     2
272
     2
273
     2
274
     3
340
11
275
     0
280
     0
281
     0
282
     0
283
     0
284
     8
285
     0
286
     0
287
     3
288
     0
  0
ENDTAB
  0
TABLE
  2
BLOCK_RECORD
  5
1
330
0
100
AcDbSymbolTable
 70
     1
  0
BLOCK_RECORD
  5
1F
330
1
100
AcDbSymbolTableRecord
100
AcDbBlockTableRecord
  2
*MODEL_SPACE
  0
BLOCK_RECORD
  5
1B
330
1
100
AcDbSymbolTableRecord
100
AcDbBlockTableRecord
  2
*PAPER_SPACE
  0
ENDTAB
  0
ENDSEC
  0
SECTION
  2
BLOCKS
  0
BLOCK
  5
20
330
1F
100
AcDbEntity
  8
0
100
AcDbBlockBegin
  2
*MODEL_SPACE
 70
     0
 10
0.0
 20
0.0
 30
0.0
  3
*MODEL_SPACE
  1

  0
ENDBLK
  5
21
330
1F
100
AcDbEntity
  8
0
100
AcDbBlockEnd
  0
BLOCK
  5
1C
330
1B
100
AcDbEntity
 67
     1
  8
0
100
AcDbBlockBegin
  2
*PAPER_SPACE
  1

  0
ENDBLK
  5
1D
330
1B
100
AcDbEntity
 67
     1
  8
0
100
AcDbBlockEnd
  0
ENDSEC
  0
SECTION
  2
ENTITIES
  0
LINE
  5
100
100
AcDbEntity
  8
0
 62
7
100
AcDbLine
 10
116.500000
 20
-39.250465
 30
0.0
 11
116.500000
 21
105.300000
 31
0.0
  0
LINE
  5
101
100
AcDbEntity
  8
0
 62
7
100
AcDbLine
 10
-111.500000
 20
110.300000
 30
0.0
 11
111.500000
 21
110.300000
 31
0.0
  0
SPLINE
  5
102
100
AcDbEntity
  8
0
 62
7
100
AcDbSpline
 70
0
 71
3
 72
13
 73
9
 74
7
 40
0.000000
 40
0.000000
 40
0.000000
 40
0.000000
 40
1.308874
 40
2.606918
 40
3.915792
 40
5.224666
 40
6.522710
 40
7.831584
 40
7.831584
 40
7.831584
 40
7.831584
 10
116.500000
 20
105.300000
 30
0.0
 10
116.466669
 20
105.737566
 30
0.0
 10
116.400282
 20
106.609078
 30
0.0
 10
115.875656
 20
107.828283
 30
0.0
 10
115.077490
 20
108.877490
 30
0.0
 10
114.028283
 20
109.675656
 30
0.0
 10
112.809078
 20
110.200282
 30
0.0
 10
111.937566
 20
110.266669
 30
0.0
 10
111.500000
 20
110.300000
 30
0.0
 11
116.500000
 21
105.300000
 31
0.0
 11
116.328698
 21
106.597616
 31
0.0
 11
115.831958
 21
107.796851
 31
0.0
 11
115.035534
 21
108.835534
 31
0.0
 11
113.996852
 21
109.631958
 31
0.0
 11
112.797616
 21
110.128697
 31
0.0
 11
111.500000
 21
110.300000
 31
0.0
  0
LINE
  5
103
100
AcDbEntity
  8
0
 62
7
100
AcDbLine
 10
-116.500000
 20
105.300000
 30
0.0
 11
-116.500000
 21
-38.841101
 31
0.0
  0
SPLINE
  5
104
100
AcDbEntity
  8
0
 62
7
100
AcDbSpline
 70
0
 71
3
 72
13
 73
9
 74
7
 40
0.000000
 40
0.000000
 40
0.000000
 40
0.000000
 40
1.308874
 40
2.606918
 40
3.915792
 40
5.224666
 40
6.522710
 40
7.831584
 40
7.831584
 40
7.831584
 40
7.831584
 10
-111.500000
 20
110.300000
 30
0.0
 10
-111.937566
 20
110.266669
 30
0.0
 10
-112.809078
 20
110.200282
 30
0.0
 10
-114.028283
 20
109.675656
 30
0.0
 10
-115.077490
 20
108.877490
 30
0.0
 10
-115.875656
 20
107.828283
 30
0.0
 10
-116.400282
 20
106.609078
 30
0.0
 10
-116.466669
 20
105.737566
 30
0.0
 10
-116.500000
 20
105.300000
 30
0.0
 11
-111.500000
 21
110.300000
 31
0.0
 11
-112.797616
 21
110.128697
 31
0.0
 11
-113.996852
 21
109.631958
 31
0.0
 11
-115.035534
 21
108.835534
 31
0.0
 11
-115.831958
 21
107.796851
 31
0.0
 11
-116.328698
 21
106.597616
 31
0.0
 11
-116.500000
 21
105.300000
 31
0.0
  0
LINE
  5
105
100
AcDbEntity
  8
0
 62
7
100
AcDbLine
 10
-93.907718
 20
-194.334410
 30
0.0
 11
-116.288288
 21
-41.743456
 31
0.0
  0
SPLINE
  5
106
100
AcDbEntity
  8
0
 62
7
100
AcDbSpline
 70
0
 71
3
 72
10
 73
6
 74
4
 40
0.000000
 40
0.000000
 40
0.000000
 40
0.000000
 40
0.970880
 40
1.941474
 40
2.912354
 40
2.912354
 40
2.912354
 40
2.912354
 10
-116.500000
 20
-38.841101
 30
0.0
 10
-116.495287
 20
-39.164734
 30
0.0
 10
-116.485863
 20
-39.811905
 30
0.0
 10
-116.415181
 20
-40.780877
 30
0.0
 10
-116.330590
 20
-41.422565
 30
0.0
 10
-116.288288
 20
-41.743456
 30
0.0
 11
-116.500000
 21
-38.841101
 31
0.0
 11
-116.476435
 21
-39.811695
 31
0.0
 11
-116.405822
 21
-40.779717
 31
0.0
 11
-116.288288
 21
-41.743456
 31
0.0
  0
LINE
  5
107
100
AcDbEntity
  8
0
 62
7
100
AcDbLine
 10
162.900000
 20
-211.432055
 30
0.0
 11
-74.119430
 21
-211.432055
 31
0.0
  0
SPLINE
  5
108
100
AcDbEntity
  8
0
 62
7
100
AcDbSpline
 70
0
 71
3
 72
10
 73
6
 74
4
 40
0.000000
 40
0.000000
 40
0.000000
 40
0.000000
 40
9.491873
 40
18.745716
 40
28.237589
 40
28.237589
 40
28.237589
 40
28.237589
 10
-93.907718
 20
-194.334410
 30
0.0
 10
-92.999261
 20
-197.411879
 30
0.0
 10
-91.205128
 20
-203.489644
 30
0.0
 10
-83.569944
 20
-210.086661
 30
0.0
 10
-77.296156
 20
-210.979810
 30
0.0
 10
-74.119430
 20
-211.432055
 30
0.0
 11
-93.907718
 21
-194.334410
 31
0.0
 11
-90.342791
 21
-203.131395
 31
0.0
 11
-83.340628
 21
-209.181463
 31
0.0
 11
-74.119430
 21
-211.432055
 31
0.0
  0
LINE
  5
109
100
AcDbEntity
  8
0
 62
7
100
AcDbLine
 10
182.900000
 20
-191.432054
 30
0.0
 11
182.900000
 21
-149.456489
 31
0.0
  0
SPLINE
  5
10a
100
AcDbEntity
  8
0
 62
7
100
AcDbSpline
 70
0
 71
3
 72
13
 73
9
 74
7
 40
0.000000
 40
0.000000
 40
0.000000
 40
0.000000
 40
5.235498
 40
10.427670
 40
15.663167
 40
20.898665
 40
26.090837
 40
31.326335
 40
31.326335
 40
31.326335
 40
31.326335
 10
162.900000
 20
-211.432055
 30
0.0
 10
164.650265
 20
-211.298730
 30
0.0
 10
168.136310
 20
-211.033183
 30
0.0
 10
173.013133
 20
-208.934679
 30
0.0
 10
177.209958
 20
-205.742013
 30
0.0
 10
180.402625
 20
-201.545188
 30
0.0
 10
182.501129
 20
-196.668365
 30
0.0
 10
182.766675
 20
-193.182319
 30
0.0
 10
182.900000
 20
-191.432054
 30
0.0
 11
162.900000
 21
-211.432055
 31
0.0
 11
168.090464
 21
-210.746844
 31
0.0
 11
172.887406
 21
-208.759886
 31
0.0
 11
177.042136
 21
-205.574190
 31
0.0
 11
180.227831
 21
-201.419460
 31
0.0
 11
182.214789
 21
-196.622519
 31
0.0
 11
182.900000
 21
-191.432054
 31
0.0
  0
LINE
  5
10b
100
AcDbEntity
  8
0
 62
7
100
AcDbLine
 10
179.453272
 20
-138.232000
 30
0.0
 11
119.946728
 21
-50.474955
 31
0.0
  0
SPLINE
  5
10c
100
AcDbEntity
  8
0
 62
7
100
AcDbSpline
 70
0
 71
3
 72
10
 73
6
 74
4
 40
0.000000
 40
0.000000
 40
0.000000
 40
0.000000
 40
3.972306
 40
7.925408
 40
11.897714
 40
11.897714
 40
11.897714
 40
11.897714
 10
182.900000
 20
-149.456489
 30
0.0
 10
182.821115
 20
-148.131857
 30
0.0
 10
182.663726
 20
-145.488995
 30
0.0
 10
181.484372
 20
-141.648354
 30
0.0
 10
180.131398
 20
-139.372623
 30
0.0
 10
179.453272
 20
-138.232000
 30
0.0
 11
182.900000
 21
-149.456489
 31
0.0
 11
182.505529
 21
-145.503819
 31
0.0
 11
181.345119
 21
-141.724868
 31
0.0
 11
179.453272
 21
-138.232000
 31
0.0
  0
SPLINE
  5
10d
100
AcDbEntity
  8
0
 62
7
100
AcDbSpline
 70
0
 71
3
 72
10
 73
6
 74
4
 40
0.000000
 40
0.000000
 40
0.000000
 40
0.000000
 40
3.972306
 40
7.925408
 40
11.897714
 40
11.897714
 40
11.897714
 40
11.897714
 10
116.500000
 20
-39.250465
 30
0.0
 10
116.578885
 20
-40.575098
 30
0.0
 10
116.736274
 20
-43.217960
 30
0.0
 10
117.915628
 20
-47.058601
 30
0.0
 10
119.268602
 20
-49.334332
 30
0.0
 10
119.946728
 20
-50.474955
 30
0.0
 11
116.500000
 21
-39.250465
 31
0.0
 11
116.894471
 21
-43.203136
 31
0.0
 11
118.054881
 21
-46.982087
 31
0.0
 11
119.946728
 21
-50.474955
 31
0.0
  0
LINE
  5
10e
100
AcDbEntity
  8
0
 62
7
100
AcDbLine
 10
175.700000
 20
-197.750000
 30
0.0
 11
175.700000
 21
-197.750000
 31
0.0
  0
SPLINE
  5
10f
100
AcDbEntity
  8
0
 62
7
100
AcDbSpline
 70
0
 71
3
 72
25
 73
21
 74
19
 40
0.000000
 40
0.000000
 40
0.000000
 40
0.000000
 40
0.697928
 40
1.385868
 40
2.083796
 40
2.781724
 40
3.469664
 40
4.167592
 40
4.865521
 40
5.553460
 40
6.251389
 40
6.949317
 40
7.637257
 40
8.335185
 40
9.033113
 40
9.721053
 40
10.418981
 40
11.116909
 40
11.804849
 40
12.502777
 40
12.502777
 40
12.502777
 40
12.502777
 10
175.700000
 20
-197.750000
 30
0.0
 10
175.676104
 20
-197.516171
 30
0.0
 10
175.628654
 20
-197.051859
 30
0.0
 10
175.260521
 20
-196.438263
 30
0.0
 10
174.721511
 20
-195.982071
 30
0.0
 10
174.054050
 20
-195.740122
 30
0.0
 10
173.345797
 20
-195.740122
 30
0.0
 10
172.679270
 20
-195.982071
 30
0.0
 10
172.136528
 20
-196.438263
 30
0.0
 10
171.782263
 20
-197.051859
 30
0.0
 10
171.658572
 20
-197.750000
 30
0.0
 10
171.782263
 20
-198.448141
 30
0.0
 10
172.136528
 20
-199.061737
 30
0.0
 10
172.679270
 20
-199.517929
 30
0.0
 10
173.345797
 20
-199.759878
 30
0.0
 10
174.054050
 20
-199.759878
 30
0.0
 10
174.721511
 20
-199.517929
 30
0.0
 10
175.260521
 20
-199.061737
 30
0.0
 10
175.628654
 20
-198.448141
 30
0.0
 10
175.676104
 20
-197.983829
 30
0.0
 10
175.700000
 20
-197.750000
 30
0.0
 11
175.700000
 21
-197.750000
 31
0.0
 11
175.578252
 21
-197.062773
 31
0.0
 11
175.234282
 21
-196.466999
 31
0.0
 11
174.700000
 21
-196.017949
 31
0.0
 11
174.043970
 21
-195.779772
 31
0.0
 11
173.356030
 21
-195.779772
 31
0.0
 11
172.700000
 21
-196.017949
 31
0.0
 11
172.165718
 21
-196.466999
 31
0.0
 11
171.821748
 21
-197.062773
 31
0.0
 11
171.700000
 21
-197.750000
 31
0.0
 11
171.821748
 21
-198.437227
 31
0.0
 11
172.165718
 21
-199.033001
 31
0.0
 11
172.700000
 21
-199.482051
 31
0.0
 11
173.356030
 21
-199.720228
 31
0.0
 11
174.043970
 21
-199.720228
 31
0.0
 11
174.700000
 21
-199.482051
 31
0.0
 11
175.234282
 21
-199.033001
 31
0.0
 11
175.578252
 21
-198.437227
 31
0.0
 11
175.700000
 21
-197.750000
 31
0.0
  0
LINE
  5
110
100
AcDbEntity
  8
0
 62
7
100
AcDbLine
 10
-39.000000
 20
-122.680000
 30
0.0
 11
-39.000000
 21
-122.680000
 31
0.0
  0
SPLINE
  5
111
100
AcDbEntity
  8
0
 62
7
100
AcDbSpline
 70
0
 71
3
 72
25
 73
21
 74
19
 40
0.000000
 40
0.000000
 40
0.000000
 40
0.000000
 40
0.697928
 40
1.385868
 40
2.083796
 40
2.781724
 40
3.469664
 40
4.167592
 40
4.865521
 40
5.553460
 40
6.251389
 40
6.949317
 40
7.637257
 40
8.335185
 40
9.033113
 40
9.721053
 40
10.418981
 40
11.116909
 40
11.804849
 40
12.502777
 40
12.502777
 40
12.502777
 40
12.502777
 10
-39.000000
 20
-122.680000
 30
0.0
 10
-39.023896
 20
-122.446171
 30
0.0
 10
-39.071346
 20
-121.981859
 30
0.0
 10
-39.439479
 20
-121.368263
 30
0.0
 10
-39.978489
 20
-120.912071
 30
0.0
 10
-40.645950
 20
-120.670122
 30
0.0
 10
-41.354203
 20
-120.670122
 30
0.0
 10
-42.020730
 20
-120.912071
 30
0.0
 10
-42.563472
 20
-121.368263
 30
0.0
 10
-42.917737
 20
-121.981859
 30
0.0
 10
-43.041428
 20
-122.680000
 30
0.0
 10
-42.917736
 20
-123.378141
 30
0.0
 10
-42.563472
 20
-123.991737
 30
0.0
 10
-42.020730
 20
-124.447929
 30
0.0
 10
-41.354203
 20
-124.689878
 30
0.0
 10
-40.645950
 20
-124.689878
 30
0.0
 10
-39.978489
 20
-124.447929
 30
0.0
 10
-39.439479
 20
-123.991737
 30
0.0
 10
-39.071346
 20
-123.378141
 30
0.0
 10
-39.023896
 20
-122.913829
 30
0.0
 10
-39.000000
 20
-122.680000
 30
0.0
 11
-39.000000
 21
-122.680000
 31
0.0
 11
-39.121748
 21
-121.992773
 31
0.0
 11
-39.465718
 21
-121.396999
 31
0.0
 11
-40.000000
 21
-120.947949
 31
0.0
 11
-40.656030
 21
-120.709772
 31
0.0
 11
-41.343970
 21
-120.709772
 31
0.0
 11
-42.000000
 21
-120.947949
 31
0.0
 11
-42.534282
 21
-121.396999
 31
0.0
 11
-42.878252
 21
-121.992773
 31
0.0
 11
-43.000000
 21
-122.680000
 31
0.0
 11
-42.878252
 21
-123.367227
 31
0.0
 11
-42.534282
 21
-123.963001
 31
0.0
 11
-42.000000
 21
-124.412051
 31
0.0
 11
-41.343970
 21
-124.650228
 31
0.0
 11
-40.656030
 21
-124.650228
 31
0.0
 11
-40.000000
 21
-124.412051
 31
0.0
 11
-39.465718
 21
-123.963001
 31
0.0
 11
-39.121748
 21
-123.367227
 31
0.0
 11
-39.000000
 21
-122.680000
 31
0.0
  0
LINE
  5
112
100
AcDbEntity
  8
0
 62
7
100
AcDbLine
 10
175.700000
 20
-187.750000
 30
0.0
 11
175.700000
 21
-187.750000
 31
0.0
  0
SPLINE
  5
113
100
AcDbEntity
  8
0
 62
7
100
AcDbSpline
 70
0
 71
3
 72
25
 73
21
 74
19
 40
0.000000
 40
0.000000
 40
0.000000
 40
0.000000
 40
0.697928
 40
1.385868
 40
2.083796
 40
2.781724
 40
3.469664
 40
4.167592
 40
4.865521
 40
5.553460
 40
6.251389
 40
6.949317
 40
7.637257
 40
8.335185
 40
9.033113
 40
9.721053
 40
10.418981
 40
11.116909
 40
11.804849
 40
12.502777
 40
12.502777
 40
12.502777
 40
12.502777
 10
175.700000
 20
-187.750000
 30
0.0
 10
175.676104
 20
-187.516171
 30
0.0
 10
175.628654
 20
-187.051859
 30
0.0
 10
175.260521
 20
-186.438263
 30
0.0
 10
174.721511
 20
-185.982071
 30
0.0
 10
174.054050
 20
-185.740122
 30
0.0
 10
173.345797
 20
-185.740122
 30
0.0
 10
172.679270
 20
-185.982071
 30
0.0
 10
172.136528
 20
-186.438263
 30
0.0
 10
171.782263
 20
-187.051859
 30
0.0
 10
171.658572
 20
-187.750000
 30
0.0
 10
171.782263
 20
-188.448141
 30
0.0
 10
172.136528
 20
-189.061737
 30
0.0
 10
172.679270
 20
-189.517929
 30
0.0
 10
173.345797
 20
-189.759878
 30
0.0
 10
174.054050
 20
-189.759878
 30
0.0
 10
174.721511
 20
-189.517929
 30
0.0
 10
175.260521
 20
-189.061737
 30
0.0
 10
175.628654
 20
-188.448141
 30
0.0
 10
175.676104
 20
-187.983829
 30
0.0
 10
175.700000
 20
-187.750000
 30
0.0
 11
175.700000
 21
-187.750000
 31
0.0
 11
175.578252
 21
-187.062773
 31
0.0
 11
175.234282
 21
-186.466999
 31
0.0
 11
174.700000
 21
-186.017949
 31
0.0
 11
174.043970
 21
-185.779772
 31
0.0
 11
173.356030
 21
-185.779772
 31
0.0
 11
172.700000
 21
-186.017949
 31
0.0
 11
172.165718
 21
-186.466999
 31
0.0
 11
171.821748
 21
-187.062773
 31
0.0
 11
171.700000
 21
-187.750000
 31
0.0
 11
171.821748
 21
-188.437227
 31
0.0
 11
172.165718
 21
-189.033001
 31
0.0
 11
172.700000
 21
-189.482051
 31
0.0
 11
173.356030
 21
-189.720228
 31
0.0
 11
174.043970
 21
-189.720228
 31
0.0
 11
174.700000
 21
-189.482051
 31
0.0
 11
175.234282
 21
-189.033001
 31
0.0
 11
175.578252
 21
-188.437227
 31
0.0
 11
175.700000
 21
-187.750000
 31
0.0
  0
LINE
  5
114
100
AcDbEntity
  8
0
 62
7
100
AcDbLine
 10
-39.000000
 20
-112.680000
 30
0.0
 11
-39.000000
 21
-112.680000
 31
0.0
  0
LINE
  5
115
100
AcDbEntity
  8
0
 62
7
100
AcDbLine
 10
52.566812
 20
-141.912767
 30
0.0
 11
52.566812
 21
-143.089892
 31
0.0
  0
SPLINE
  5
116
100
AcDbEntity
  8
0
 62
7
100
AcDbSpline
 70
0
 71
3
 72
25
 73
21
 74
19
 40
0.000000
 40
0.000000
 40
0.000000
 40
0.000000
 40
0.697928
 40
1.385868
 40
2.083796
 40
2.781724
 40
3.469664
 40
4.167592
 40
4.865521
 40
5.553460
 40
6.251389
 40
6.949317
 40
7.637257
 40
8.335185
 40
9.033113
 40
9.721053
 40
10.418981
 40
11.116909
 40
11.804849
 40
12.502777
 40
12.502777
 40
12.502777
 40
12.502777
 10
-39.000000
 20
-112.680000
 30
0.0
 10
-39.023896
 20
-112.446171
 30
0.0
 10
-39.071346
 20
-111.981859
 30
0.0
 10
-39.439479
 20
-111.368263
 30
0.0
 10
-39.978489
 20
-110.912071
 30
0.0
 10
-40.645950
 20
-110.670122
 30
0.0
 10
-41.354203
 20
-110.670122
 30
0.0
 10
-42.020730
 20
-110.912071
 30
0.0
 10
-42.563472
 20
-111.368263
 30
0.0
 10
-42.917737
 20
-111.981859
 30
0.0
 10
-43.041428
 20
-112.680000
 30
0.0
 10
-42.917736
 20
-113.378141
 30
0.0
 10
-42.563472
 20
-113.991737
 30
0.0
 10
-42.020730
 20
-114.447929
 30
0.0
 10
-41.354203
 20
-114.689878
 30
0.0
 10
-40.645950
 20
-114.689878
 30
0.0
 10
-39.978489
 20
-114.447929
 30
0.0
 10
-39.439479
 20
-113.991737
 30
0.0
 10
-39.071346
 20
-113.378141
 30
0.0
 10
-39.023896
 20
-112.913829
 30
0.0
 10
-39.000000
 20
-112.680000
 30
0.0
 11
-39.000000
 21
-112.680000
 31
0.0
 11
-39.121748
 21
-111.992773
 31
0.0
 11
-39.465718
 21
-111.396999
 31
0.0
 11
-40.000000
 21
-110.947949
 31
0.0
 11
-40.656030
 21
-110.709772
 31
0.0
 11
-41.343970
 21
-110.709772
 31
0.0
 11
-42.000000
 21
-110.947949
 31
0.0
 11
-42.534282
 21
-111.396999
 31
0.0
 11
-42.878252
 21
-111.992773
 31
0.0
 11
-43.000000
 21
-112.680000
 31
0.0
 11
-42.878252
 21
-113.367227
 31
0.0
 11
-42.534282
 21
-113.963000
 31
0.0
 11
-42.000000
 21
-114.412051
 31
0.0
 11
-41.343970
 21
-114.650228
 31
0.0
 11
-40.656030
 21
-114.650228
 31
0.0
 11
-40.000000
 21
-114.412051
 31
0.0
 11
-39.465718
 21
-113.963000
 31
0.0
 11
-39.121748
 21
-113.367227
 31
0.0
 11
-39.000000
 21
-112.680000
 31
0.0
  0
LINE
  5
117
100
AcDbEntity
  8
0
 62
7
100
AcDbLine
 10
55.566812
 20
-143.089892
 30
0.0
 11
55.566812
 21
-141.912767
 31
0.0
  0
SPLINE
  5
118
100
AcDbEntity
  8
0
 62
7
100
AcDbSpline
 70
0
 71
3
 72
13
 73
9
 74
7
 40
0.000000
 40
0.000000
 40
0.000000
 40
0.000000
 40
0.784073
 40
1.544902
 40
2.328976
 40
3.113049
 40
3.873878
 40
4.657951
 40
4.657951
 40
4.657951
 40
4.657951
 10
55.566812
 20
-141.912767
 30
0.0
 10
55.525464
 20
-141.648434
 30
0.0
 10
55.443992
 20
-141.127604
 30
0.0
 10
54.847319
 20
-140.554320
 30
0.0
 10
54.066812
 20
-140.341907
 30
0.0
 10
53.286306
 20
-140.554320
 30
0.0
 10
52.689633
 20
-141.127604
 30
0.0
 10
52.608161
 20
-141.648434
 30
0.0
 10
52.566812
 20
-141.912767
 30
0.0
 11
55.566812
 21
-141.912767
 31
0.0
 11
55.361802
 21
-141.155970
 31
0.0
 11
54.823698
 21
-140.618100
 31
0.0
 11
54.066812
 21
-140.413418
 31
0.0
 11
53.309926
 21
-140.618100
 31
0.0
 11
52.771822
 21
-141.155970
 31
0.0
 11
52.566812
 21
-141.912767
 31
0.0
  0
LINE
  5
119
100
AcDbEntity
  8
0
 62
7
100
AcDbLine
 10
162.566812
 20
-141.912767
 30
0.0
 11
162.566812
 21
-143.089892
 31
0.0
  0
SPLINE
  5
11a
100
AcDbEntity
  8
0
 62
7
100
AcDbSpline
 70
0
 71
3
 72
16
 73
12
 74
10
 40
0.000000
 40
0.000000
 40
0.000000
 40
0.000000
 40
1.018049
 40
2.007257
 40
3.025306
 40
4.043355
 40
5.032563
 40
6.050612
 40
7.068661
 40
8.057869
 40
9.075918
 40
9.075918
 40
9.075918
 40
9.075918
 10
52.566812
 20
-143.089892
 30
0.0
 10
52.378900
 20
-143.381550
 30
0.0
 10
52.008399
 20
-143.956605
 30
0.0
 10
52.074638
 20
-145.026468
 30
0.0
 10
52.618681
 20
-145.920187
 30
0.0
 10
53.541697
 20
-146.433670
 30
0.0
 10
54.591928
 20
-146.433670
 30
0.0
 10
55.514944
 20
-145.920187
 30
0.0
 10
56.058987
 20
-145.026468
 30
0.0
 10
56.125226
 20
-143.956605
 30
0.0
 10
55.754725
 20
-143.381550
 30
0.0
 10
55.566812
 20
-143.089892
 30
0.0
 11
52.566812
 21
-143.089892
 31
0.0
 11
52.109687
 21
-143.999540
 31
0.0
 11
52.151000
 21
-144.987885
 31
0.0
 11
52.682445
 21
-145.856210
 31
0.0
 11
53.572208
 21
-146.350928
 31
0.0
 11
54.561417
 21
-146.350928
 31
0.0
 11
55.451180
 21
-145.856210
 31
0.0
 11
55.982625
 21
-144.987885
 31
0.0
 11
56.023938
 21
-143.999540
 31
0.0
 11
55.566812
 21
-143.089892
 31
0.0
  0
LINE
  5
11b
100
AcDbEntity
  8
0
 62
7
100
AcDbLine
 10
165.566812
 20
-143.089892
 30
0.0
 11
165.566812
 21
-141.912767
 31
0.0
  0
SPLINE
  5
11c
100
AcDbEntity
  8
0
 62
7
100
AcDbSpline
 70
0
 71
3
 72
16
 73
12
 74
10
 40
0.000000
 40
0.000000
 40
0.000000
 40
0.000000
 40
0.523446
 40
1.039401
 40
1.562847
 40
2.086294
 40
2.602248
 40
3.125695
 40
3.649141
 40
4.165096
 40
4.688542
 40
4.688542
 40
4.688542
 40
4.688542
 10
165.566812
 20
-141.912767
 30
0.0
 10
165.548891
 20
-141.737395
 30
0.0
 10
165.513304
 20
-141.389161
 30
0.0
 10
165.237200
 20
-140.928965
 30
0.0
 10
164.832957
 20
-140.586820
 30
0.0
 10
164.332307
 20
-140.405359
 30
0.0
 10
163.801318
 20
-140.405359
 30
0.0
 10
163.300667
 20
-140.586820
 30
0.0
 10
162.896425
 20
-140.928965
 30
0.0
 10
162.620321
 20
-141.389161
 30
0.0
 10
162.584734
 20
-141.737395
 30
0.0
 10
162.566812
 20
-141.912767
 30
0.0
 11
165.566812
 21
-141.912767
 31
0.0
 11
165.475502
 21
-141.397347
 31
0.0
 11
165.217524
 21
-140.950517
 31
0.0
 11
164.816812
 21
-140.613729
 31
0.0
 11
164.324790
 21
-140.435096
 31
0.0
 11
163.808835
 21
-140.435096
 31
0.0
 11
163.316812
 21
-140.613729
 31
0.0
 11
162.916100
 21
-140.950517
 31
0.0
 11
162.658123
 21
-141.397347
 31
0.0
 11
162.566812
 21
-141.912767
 31
0.0
  0
LINE
  5
11d
100
AcDbEntity
  8
0
 62
7
100
AcDbLine
 10
161.400000
 20
-153.911035
 30
0.0
 11
161.400000
 21
-155.088159
 31
0.0
  0
SPLINE
  5
11e
100
AcDbEntity
  8
0
 62
7
100
AcDbSpline
 70
0
 71
3
 72
16
 73
12
 74
10
 40
0.000000
 40
0.000000
 40
0.000000
 40
0.000000
 40
1.018049
 40
2.007257
 40
3.025306
 40
4.043355
 40
5.032563
 40
6.050612
 40
7.068660
 40
8.057869
 40
9.075917
 40
9.075917
 40
9.075917
 40
9.075917
 10
162.566812
 20
-143.089892
 30
0.0
 10
162.378900
 20
-143.381550
 30
0.0
 10
162.008398
 20
-143.956605
 30
0.0
 10
162.074638
 20
-145.026468
 30
0.0
 10
162.618681
 20
-145.920187
 30
0.0
 10
163.541697
 20
-146.433670
 30
0.0
 10
164.591928
 20
-146.433670
 30
0.0
 10
165.514944
 20
-145.920187
 30
0.0
 10
166.058987
 20
-145.026468
 30
0.0
 10
166.125226
 20
-143.956605
 30
0.0
 10
165.754725
 20
-143.381550
 30
0.0
 10
165.566812
 20
-143.089892
 30
0.0
 11
162.566812
 21
-143.089892
 31
0.0
 11
162.109687
 21
-143.999540
 31
0.0
 11
162.151000
 21
-144.987885
 31
0.0
 11
162.682445
 21
-145.856210
 31
0.0
 11
163.572208
 21
-146.350927
 31
0.0
 11
164.561417
 21
-146.350927
 31
0.0
 11
165.451179
 21
-145.856210
 31
0.0
 11
165.982625
 21
-144.987885
 31
0.0
 11
166.023938
 21
-143.999540
 31
0.0
 11
165.566812
 21
-143.089892
 31
0.0
  0
LINE
  5
11f
100
AcDbEntity
  8
0
 62
7
100
AcDbLine
 10
164.400000
 20
-155.088159
 30
0.0
 11
164.400000
 21
-153.911035
 31
0.0
  0
SPLINE
  5
120
100
AcDbEntity
  8
0
 62
7
100
AcDbSpline
 70
0
 71
3
 72
13
 73
9
 74
7
 40
0.000000
 40
0.000000
 40
0.000000
 40
0.000000
 40
0.784073
 40
1.544902
 40
2.328976
 40
3.113049
 40
3.873878
 40
4.657951
 40
4.657951
 40
4.657951
 40
4.657951
 10
164.400000
 20
-153.911035
 30
0.0
 10
164.358651
 20
-153.646702
 30
0.0
 10
164.277180
 20
-153.125872
 30
0.0
 10
163.680506
 20
-152.552588
 30
0.0
 10
162.900000
 20
-152.340174
 30
0.0
 10
162.119494
 20
-152.552588
 30
0.0
 10
161.522821
 20
-153.125872
 30
0.0
 10
161.441349
 20
-153.646702
 30
0.0
 10
161.400000
 20
-153.911035
 30
0.0
 11
164.400000
 21
-153.911035
 31
0.0
 11
164.194990
 21
-153.154238
 31
0.0
 11
163.656886
 21
-152.616367
 31
0.0
 11
162.900000
 21
-152.411686
 31
0.0
 11
162.143114
 21
-152.616367
 31
0.0
 11
161.605010
 21
-153.154238
 31
0.0
 11
161.400000
 21
-153.911035
 31
0.0
  0
LINE
  5
121
100
AcDbEntity
  8
0
 62
7
100
AcDbLine
 10
51.400000
 20
-153.911035
 30
0.0
 11
51.400000
 21
-155.088159
 31
0.0
  0
SPLINE
  5
122
100
AcDbEntity
  8
0
 62
7
100
AcDbSpline
 70
0
 71
3
 72
16
 73
12
 74
10
 40
0.000000
 40
0.000000
 40
0.000000
 40
0.000000
 40
1.018049
 40
2.007257
 40
3.025306
 40
4.043355
 40
5.032563
 40
6.050612
 40
7.068661
 40
8.057869
 40
9.075918
 40
9.075918
 40
9.075918
 40
9.075918
 10
161.400000
 20
-155.088159
 30
0.0
 10
161.212088
 20
-155.379818
 30
0.0
 10
160.841586
 20
-155.954873
 30
0.0
 10
160.907825
 20
-157.024735
 30
0.0
 10
161.451869
 20
-157.918455
 30
0.0
 10
162.374884
 20
-158.431938
 30
0.0
 10
163.425116
 20
-158.431938
 30
0.0
 10
164.348131
 20
-157.918455
 30
0.0
 10
164.892175
 20
-157.024735
 30
0.0
 10
164.958414
 20
-155.954873
 30
0.0
 10
164.587912
 20
-155.379818
 30
0.0
 10
164.400000
 20
-155.088159
 30
0.0
 11
161.400000
 21
-155.088159
 31
0.0
 11
160.942874
 21
-155.997807
 31
0.0
 11
160.984187
 21
-156.986153
 31
0.0
 11
161.515633
 21
-157.854478
 31
0.0
 11
162.405396
 21
-158.349195
 31
0.0
 11
163.394604
 21
-158.349195
 31
0.0
 11
164.284367
 21
-157.854478
 31
0.0
 11
164.815813
 21
-156.986153
 31
0.0
 11
164.857126
 21
-155.997807
 31
0.0
 11
164.400000
 21
-155.088159
 31
0.0
  0
LINE
  5
123
100
AcDbEntity
  8
0
 62
7
100
AcDbLine
 10
54.400000
 20
-155.088159
 30
0.0
 11
54.400000
 21
-153.911035
 31
0.0
  0
SPLINE
  5
124
100
AcDbEntity
  8
0
 62
7
100
AcDbSpline
 70
0
 71
3
 72
16
 73
12
 74
10
 40
0.000000
 40
0.000000
 40
0.000000
 40
0.000000
 40
0.523446
 40
1.039401
 40
1.562847
 40
2.086294
 40
2.602248
 40
3.125695
 40
3.649141
 40
4.165096
 40
4.688542
 40
4.688542
 40
4.688542
 40
4.688542
 10
54.400000
 20
-153.911035
 30
0.0
 10
54.382078
 20
-153.735663
 30
0.0
 10
54.346492
 20
-153.387429
 30
0.0
 10
54.070388
 20
-152.927232
 30
0.0
 10
53.666145
 20
-152.585088
 30
0.0
 10
53.165495
 20
-152.403626
 30
0.0
 10
52.634506
 20
-152.403626
 30
0.0
 10
52.133855
 20
-152.585088
 30
0.0
 10
51.729612
 20
-152.927232
 30
0.0
 10
51.453508
 20
-153.387429
 30
0.0
 10
51.417922
 20
-153.735663
 30
0.0
 10
51.400000
 20
-153.911035
 30
0.0
 11
54.400000
 21
-153.911035
 31
0.0
 11
54.308689
 21
-153.395615
 31
0.0
 11
54.050712
 21
-152.948785
 31
0.0
 11
53.650000
 21
-152.611997
 31
0.0
 11
53.157977
 21
-152.433364
 31
0.0
 11
52.642023
 21
-152.433364
 31
0.0
 11
52.150000
 21
-152.611997
 31
0.0
 11
51.749288
 21
-152.948785
 31
0.0
 11
51.491311
 21
-153.395615
 31
0.0
 11
51.400000
 21
-153.911035
 31
0.0
  0
LINE
  5
125
100
AcDbEntity
  8
0
 62
7
100
AcDbLine
 10
110.566812
 20
-61.978857
 30
0.0
 11
110.566812
 21
-60.801732
 31
0.0
  0
SPLINE
  5
126
100
AcDbEntity
  8
0
 62
7
100
AcDbSpline
 70
0
 71
3
 72
16
 73
12
 74
10
 40
0.000000
 40
0.000000
 40
0.000000
 40
0.000000
 40
1.018049
 40
2.007257
 40
3.025306
 40
4.043355
 40
5.032563
 40
6.050612
 40
7.068660
 40
8.057869
 40
9.075917
 40
9.075917
 40
9.075917
 40
9.075917
 10
51.400000
 20
-155.088159
 30
0.0
 10
51.212088
 20
-155.379818
 30
0.0
 10
50.841586
 20
-155.954873
 30
0.0
 10
50.907826
 20
-157.024735
 30
0.0
 10
51.451869
 20
-157.918455
 30
0.0
 10
52.374884
 20
-158.431938
 30
0.0
 10
53.425116
 20
-158.431938
 30
0.0
 10
54.348131
 20
-157.918455
 30
0.0
 10
54.892175
 20
-157.024735
 30
0.0
 10
54.958414
 20
-155.954873
 30
0.0
 10
54.587913
 20
-155.379818
 30
0.0
 10
54.400000
 20
-155.088159
 30
0.0
 11
51.400000
 21
-155.088159
 31
0.0
 11
50.942874
 21
-155.997807
 31
0.0
 11
50.984187
 21
-156.986153
 31
0.0
 11
51.515633
 21
-157.854478
 31
0.0
 11
52.405396
 21
-158.349195
 31
0.0
 11
53.394604
 21
-158.349195
 31
0.0
 11
54.284367
 21
-157.854478
 31
0.0
 11
54.815813
 21
-156.986153
 31
0.0
 11
54.857126
 21
-155.997807
 31
0.0
 11
54.400000
 21
-155.088159
 31
0.0
  0
LINE
  5
127
100
AcDbEntity
  8
0
 62
7
100
AcDbLine
 10
107.566812
 20
-60.801732
 30
0.0
 11
107.566812
 21
-61.978857
 31
0.0
  0
SPLINE
  5
128
100
AcDbEntity
  8
0
 62
7
100
AcDbSpline
 70
0
 71
3
 72
16
 73
12
 74
10
 40
0.000000
 40
0.000000
 40
0.000000
 40
0.000000
 40
1.018049
 40
2.007257
 40
3.025306
 40
4.043355
 40
5.032563
 40
6.050612
 40
7.068661
 40
8.057869
 40
9.075918
 40
9.075918
 40
9.075918
 40
9.075918
 10
107.566812
 20
-61.978857
 30
0.0
 10
107.378900
 20
-62.270515
 30
0.0
 10
107.008399
 20
-62.845570
 30
0.0
 10
107.074638
 20
-63.915433
 30
0.0
 10
107.618681
 20
-64.809152
 30
0.0
 10
108.541697
 20
-65.322635
 30
0.0
 10
109.591928
 20
-65.322635
 30
0.0
 10
110.514944
 20
-64.809152
 30
0.0
 10
111.058987
 20
-63.915433
 30
0.0
 10
111.125226
 20
-62.845570
 30
0.0
 10
110.754725
 20
-62.270515
 30
0.0
 10
110.566812
 20
-61.978857
 30
0.0
 11
107.566812
 21
-61.978857
 31
0.0
 11
107.109687
 21
-62.888505
 31
0.0
 11
107.151000
 21
-63.876850
 31
0.0
 11
107.682445
 21
-64.745175
 31
0.0
 11
108.572208
 21
-65.239893
 31
0.0
 11
109.561417
 21
-65.239893
 31
0.0
 11
110.451180
 21
-64.745175
 31
0.0
 11
110.982625
 21
-63.876850
 31
0.0
 11
111.023938
 21
-62.888505
 31
0.0
 11
110.566812
 21
-61.978857
 31
0.0
  0
LINE
  5
129
100
AcDbEntity
  8
0
 62
7
100
AcDbLine
 10
109.400000
 20
-73.977124
 30
0.0
 11
109.400000
 21
-72.800000
 31
0.0
  0
SPLINE
  5
12a
100
AcDbEntity
  8
0
 62
7
100
AcDbSpline
 70
0
 71
3
 72
13
 73
9
 74
7
 40
0.000000
 40
0.000000
 40
0.000000
 40
0.000000
 40
0.784073
 40
1.544902
 40
2.328976
 40
3.113049
 40
3.873878
 40
4.657951
 40
4.657951
 40
4.657951
 40
4.657951
 10
110.566812
 20
-60.801732
 30
0.0
 10
110.525464
 20
-60.537399
 30
0.0
 10
110.443992
 20
-60.016569
 30
0.0
 10
109.847319
 20
-59.443285
 30
0.0
 10
109.066812
 20
-59.230872
 30
0.0
 10
108.286306
 20
-59.443285
 30
0.0
 10
107.689633
 20
-60.016569
 30
0.0
 10
107.608161
 20
-60.537399
 30
0.0
 10
107.566812
 20
-60.801732
 30
0.0
 11
110.566812
 21
-60.801732
 31
0.0
 11
110.361802
 21
-60.044935
 31
0.0
 11
109.823698
 21
-59.507065
 31
0.0
 11
109.066812
 21
-59.302383
 31
0.0
 11
108.309926
 21
-59.507065
 31
0.0
 11
107.771823
 21
-60.044935
 31
0.0
 11
107.566812
 21
-60.801732
 31
0.0
  0
LINE
  5
12b
100
AcDbEntity
  8
0
 62
7
100
AcDbLine
 10
106.400000
 20
-72.800000
 30
0.0
 11
106.400000
 21
-73.977124
 31
0.0
  0
SPLINE
  5
12c
100
AcDbEntity
  8
0
 62
7
100
AcDbSpline
 70
0
 71
3
 72
16
 73
12
 74
10
 40
0.000000
 40
0.000000
 40
0.000000
 40
0.000000
 40
1.018049
 40
2.007257
 40
3.025306
 40
4.043355
 40
5.032563
 40
6.050612
 40
7.068661
 40
8.057869
 40
9.075918
 40
9.075918
 40
9.075918
 40
9.075918
 10
106.400000
 20
-73.977124
 30
0.0
 10
106.212088
 20
-74.268783
 30
0.0
 10
105.841586
 20
-74.843838
 30
0.0
 10
105.907825
 20
-75.913700
 30
0.0
 10
106.451869
 20
-76.807420
 30
0.0
 10
107.374884
 20
-77.320903
 30
0.0
 10
108.425116
 20
-77.320903
 30
0.0
 10
109.348131
 20
-76.807420
 30
0.0
 10
109.892175
 20
-75.913700
 30
0.0
 10
109.958414
 20
-74.843838
 30
0.0
 10
109.587912
 20
-74.268783
 30
0.0
 10
109.400000
 20
-73.977124
 30
0.0
 11
106.400000
 21
-73.977124
 31
0.0
 11
105.942874
 21
-74.886772
 31
0.0
 11
105.984187
 21
-75.875118
 31
0.0
 11
106.515633
 21
-76.743443
 31
0.0
 11
107.405396
 21
-77.238160
 31
0.0
 11
108.394604
 21
-77.238160
 31
0.0
 11
109.284367
 21
-76.743443
 31
0.0
 11
109.815813
 21
-75.875118
 31
0.0
 11
109.857126
 21
-74.886772
 31
0.0
 11
109.400000
 21
-73.977124
 31
0.0
  0
SPLINE
  5
12d
100
AcDbEntity
  8
0
 62
7
100
AcDbSpline
 70
0
 71
3
 72
13
 73
9
 74
7
 40
0.000000
 40
0.000000
 40
0.000000
 40
0.000000
 40
0.784073
 40
1.544902
 40
2.328976
 40
3.113049
 40
3.873878
 40
4.657951
 40
4.657951
 40
4.657951
 40
4.657951
 10
109.400000
 20
-72.800000
 30
0.0
 10
109.358651
 20
-72.535667
 30
0.0
 10
109.277179
 20
-72.014837
 30
0.0
 10
108.680506
 20
-71.441553
 30
0.0
 10
107.900000
 20
-71.229139
 30
0.0
 10
107.119494
 20
-71.441553
 30
0.0
 10
106.522820
 20
-72.014837
 30
0.0
 10
106.441349
 20
-72.535667
 30
0.0
 10
106.400000
 20
-72.800000
 30
0.0
 11
109.400000
 21
-72.800000
 31
0.0
 11
109.194990
 21
-72.043203
 31
0.0
 11
108.656886
 21
-71.505332
 31
0.0
 11
107.900000
 21
-71.300651
 31
0.0
 11
107.143114
 21
-71.505332
 31
0.0
 11
106.605010
 21
-72.043203
 31
0.0
 11
106.400000
 21
-72.800000
 31
0.0
  0
LINE
  5
12e
100
AcDbEntity
  8
0
 62
7
100
AcDbLine
 10
152.795594
 20
-151.721926
 30
0.0
 11
152.795594
 21
-151.721926
 31
0.0
  0
SPLINE
  5
12f
100
AcDbEntity
  8
0
 62
7
100
AcDbSpline
 70
0
 71
3
 72
25
 73
21
 74
19
 40
0.000000
 40
0.000000
 40
0.000000
 40
0.000000
 40
0.697928
 40
1.385868
 40
2.083796
 40
2.781724
 40
3.469664
 40
4.167592
 40
4.865521
 40
5.553460
 40
6.251389
 40
6.949317
 40
7.637257
 40
8.335185
 40
9.033113
 40
9.721053
 40
10.418981
 40
11.116909
 40
11.804849
 40
12.502777
 40
12.502777
 40
12.502777
 40
12.502777
 10
152.795594
 20
-151.721926
 30
0.0
 10
152.771698
 20
-151.488096
 30
0.0
 10
152.724248
 20
-151.023784
 30
0.0
 10
152.356115
 20
-150.410189
 30
0.0
 10
151.817105
 20
-149.953997
 30
0.0
 10
151.149644
 20
-149.712047
 30
0.0
 10
150.441391
 20
-149.712047
 30
0.0
 10
149.774865
 20
-149.953997
 30
0.0
 10
149.232122
 20
-150.410189
 30
0.0
 10
148.877858
 20
-151.023784
 30
0.0
 10
148.754166
 20
-151.721926
 30
0.0
 10
148.877858
 20
-152.420067
 30
0.0
 10
149.232122
 20
-153.033663
 30
0.0
 10
149.774865
 20
-153.489855
 30
0.0
 10
150.441392
 20
-153.731804
 30
0.0
 10
151.149644
 20
-153.731804
 30
0.0
 10
151.817106
 20
-153.489855
 30
0.0
 10
152.356115
 20
-153.033663
 30
0.0
 10
152.724248
 20
-152.420067
 30
0.0
 10
152.771698
 20
-151.955755
 30
0.0
 10
152.795594
 20
-151.721926
 30
0.0
 11
152.795594
 21
-151.721926
 31
0.0
 11
152.673846
 21
-151.034698
 31
0.0
 11
152.329877
 21
-150.438925
 31
0.0
 11
151.795594
 21
-149.989875
 31
0.0
 11
151.139564
 21
-149.751698
 31
0.0
 11
150.451624
 21
-149.751698
 31
0.0
 11
149.795594
 21
-149.989875
 31
0.0
 11
149.261312
 21
-150.438925
 31
0.0
 11
148.917342
 21
-151.034698
 31
0.0
 11
148.795594
 21
-151.721926
 31
0.0
 11
148.917342
 21
-152.409153
 31
0.0
 11
149.261312
 21
-153.004926
 31
0.0
 11
149.795594
 21
-153.453976
 31
0.0
 11
150.451624
 21
-153.692153
 31
0.0
 11
151.139564
 21
-153.692153
 31
0.0
 11
151.795594
 21
-153.453976
 31
0.0
 11
152.329877
 21
-153.004926
 31
0.0
 11
152.673847
 21
-152.409153
 31
0.0
 11
152.795594
 21
-151.721926
 31
0.0
  0
LINE
  5
130
100
AcDbEntity
  8
0
 62
7
100
AcDbLine
 10
34.010147
 20
-65.934800
 30
0.0
 11
34.010147
 21
-65.934800
 31
0.0
  0
SPLINE
  5
131
100
AcDbEntity
  8
0
 62
7
100
AcDbSpline
 70
0
 71
3
 72
25
 73
21
 74
19
 40
0.000000
 40
0.000000
 40
0.000000
 40
0.000000
 40
0.697928
 40
1.385868
 40
2.083796
 40
2.781724
 40
3.469664
 40
4.167592
 40
4.865521
 40
5.553460
 40
6.251389
 40
6.949317
 40
7.637257
 40
8.335185
 40
9.033113
 40
9.721053
 40
10.418981
 40
11.116909
 40
11.804849
 40
12.502777
 40
12.502777
 40
12.502777
 40
12.502777
 10
34.010147
 20
-65.934800
 30
0.0
 10
33.986251
 20
-65.700971
 30
0.0
 10
33.938801
 20
-65.236659
 30
0.0
 10
33.570667
 20
-64.623063
 30
0.0
 10
33.031658
 20
-64.166871
 30
0.0
 10
32.364196
 20
-63.924922
 30
0.0
 10
31.655944
 20
-63.924922
 30
0.0
 10
30.989417
 20
-64.166871
 30
0.0
 10
30.446675
 20
-64.623063
 30
0.0
 10
30.092410
 20
-65.236659
 30
0.0
 10
29.968719
 20
-65.934800
 30
0.0
 10
30.092410
 20
-66.632942
 30
0.0
 10
30.446675
 20
-67.246537
 30
0.0
 10
30.989417
 20
-67.702729
 30
0.0
 10
31.655944
 20
-67.944679
 30
0.0
 10
32.364196
 20
-67.944679
 30
0.0
 10
33.031658
 20
-67.702729
 30
0.0
 10
33.570668
 20
-67.246537
 30
0.0
 10
33.938801
 20
-66.632942
 30
0.0
 10
33.986251
 20
-66.168630
 30
0.0
 10
34.010147
 20
-65.934800
 30
0.0
 11
34.010147
 21
-65.934800
 31
0.0
 11
33.888399
 21
-65.247573
 31
0.0
 11
33.544429
 21
-64.651800
 31
0.0
 11
33.010147
 21
-64.202750
 31
0.0
 11
32.354117
 21
-63.964573
 31
0.0
 11
31.666177
 21
-63.964573
 31
0.0
 11
31.010147
 21
-64.202750
 31
0.0
 11
30.475864
 21
-64.651800
 31
0.0
 11
30.131894
 21
-65.247573
 31
0.0
 11
30.010147
 21
-65.934800
 31
0.0
 11
30.131894
 21
-66.622028
 31
0.0
 11
30.475864
 21
-67.217801
 31
0.0
 11
31.010147
 21
-67.666851
 31
0.0
 11
31.666177
 21
-67.905028
 31
0.0
 11
32.354117
 21
-67.905028
 31
0.0
 11
33.010147
 21
-67.666851
 31
0.0
 11
33.544429
 21
-67.217801
 31
0.0
 11
33.888399
 21
-66.622028
 31
0.0
 11
34.010147
 21
-65.934800
 31
0.0
  0
LINE
  5
132
100
AcDbEntity
  8
0
 62
7
100
AcDbLine
 10
21.010147
 20
-93.064801
 30
0.0
 11
21.010147
 21
-93.064801
 31
0.0
  0
SPLINE
  5
133
100
AcDbEntity
  8
0
 62
7
100
AcDbSpline
 70
0
 71
3
 72
25
 73
21
 74
19
 40
0.000000
 40
0.000000
 40
0.000000
 40
0.000000
 40
0.697928
 40
1.385868
 40
2.083796
 40
2.781724
 40
3.469664
 40
4.167592
 40
4.865521
 40
5.553460
 40
6.251389
 40
6.949317
 40
7.637257
 40
8.335185
 40
9.033113
 40
9.721053
 40
10.418981
 40
11.116909
 40
11.804849
 40
12.502777
 40
12.502777
 40
12.502777
 40
12.502777
 10
21.010147
 20
-93.064801
 30
0.0
 10
20.986251
 20
-92.830971
 30
0.0
 10
20.938801
 20
-92.366659
 30
0.0
 10
20.570668
 20
-91.753064
 30
0.0
 10
20.031658
 20
-91.296871
 30
0.0
 10
19.364196
 20
-91.054922
 30
0.0
 10
18.655944
 20
-91.054922
 30
0.0
 10
17.989417
 20
-91.296871
 30
0.0
 10
17.446675
 20
-91.753064
 30
0.0
 10
17.092410
 20
-92.366659
 30
0.0
 10
16.968719
 20
-93.064801
 30
0.0
 10
17.092410
 20
-93.762942
 30
0.0
 10
17.446675
 20
-94.376537
 30
0.0
 10
17.989417
 20
-94.832730
 30
0.0
 10
18.655944
 20
-95.074679
 30
0.0
 10
19.364196
 20
-95.074679
 30
0.0
 10
20.031658
 20
-94.832730
 30
0.0
 10
20.570668
 20
-94.376537
 30
0.0
 10
20.938801
 20
-93.762942
 30
0.0
 10
20.986251
 20
-93.298630
 30
0.0
 10
21.010147
 20
-93.064801
 30
0.0
 11
21.010147
 21
-93.064801
 31
0.0
 11
20.888399
 21
-92.377573
 31
0.0
 11
20.544429
 21
-91.781800
 31
0.0
 11
20.010147
 21
-91.332750
 31
0.0
 11
19.354117
 21
-91.094573
 31
0.0
 11
18.666177
 21
-91.094573
 31
0.0
 11
18.010147
 21
-91.332750
 31
0.0
 11
17.475864
 21
-91.781800
 31
0.0
 11
17.131894
 21
-92.377573
 31
0.0
 11
17.010147
 21
-93.064801
 31
0.0
 11
17.131894
 21
-93.752028
 31
0.0
 11
17.475864
 21
-94.347801
 31
0.0
 11
18.010147
 21
-94.796851
 31
0.0
 11
18.666177
 21
-95.035028
 31
0.0
 11
19.354117
 21
-95.035028
 31
0.0
 11
20.010147
 21
-94.796851
 31
0.0
 11
20.544429
 21
-94.347801
 31
0.0
 11
20.888399
 21
-93.752028
 31
0.0
 11
21.010147
 21
-93.064801
 31
0.0
  0
LINE
  5
134
100
AcDbEntity
  8
0
 62
7
100
AcDbLine
 10
-46.754406
 20
-148.971925
 30
0.0
 11
-46.754406
 21
-148.971925
 31
0.0
  0
SPLINE
  5
135
100
AcDbEntity
  8
0
 62
7
100
AcDbSpline
 70
0
 71
3
 72
25
 73
21
 74
19
 40
0.000000
 40
0.000000
 40
0.000000
 40
0.000000
 40
0.697928
 40
1.385868
 40
2.083796
 40
2.781724
 40
3.469664
 40
4.167592
 40
4.865521
 40
5.553460
 40
6.251389
 40
6.949317
 40
7.637257
 40
8.335185
 40
9.033113
 40
9.721053
 40
10.418981
 40
11.116909
 40
11.804849
 40
12.502777
 40
12.502777
 40
12.502777
 40
12.502777
 10
-46.754406
 20
-148.971925
 30
0.0
 10
-46.778302
 20
-148.738096
 30
0.0
 10
-46.825752
 20
-148.273784
 30
0.0
 10
-47.193885
 20
-147.660189
 30
0.0
 10
-47.732894
 20
-147.203996
 30
0.0
 10
-48.400356
 20
-146.962047
 30
0.0
 10
-49.108608
 20
-146.962047
 30
0.0
 10
-49.775135
 20
-147.203996
 30
0.0
 10
-50.317878
 20
-147.660189
 30
0.0
 10
-50.672142
 20
-148.273784
 30
0.0
 10
-50.795834
 20
-148.971925
 30
0.0
 10
-50.672142
 20
-149.670067
 30
0.0
 10
-50.317877
 20
-150.283662
 30
0.0
 10
-49.775135
 20
-150.739855
 30
0.0
 10
-49.108608
 20
-150.981804
 30
0.0
 10
-48.400356
 20
-150.981804
 30
0.0
 10
-47.732894
 20
-150.739855
 30
0.0
 10
-47.193885
 20
-150.283662
 30
0.0
 10
-46.825752
 20
-149.670067
 30
0.0
 10
-46.778302
 20
-149.205755
 30
0.0
 10
-46.754406
 20
-148.971925
 30
0.0
 11
-46.754406
 21
-148.971925
 31
0.0
 11
-46.876153
 21
-148.284698
 31
0.0
 11
-47.220123
 21
-147.688925
 31
0.0
 11
-47.754406
 21
-147.239875
 31
0.0
 11
-48.410436
 21
-147.001698
 31
0.0
 11
-49.098376
 21
-147.001698
 31
0.0
 11
-49.754406
 21
-147.239875
 31
0.0
 11
-50.288688
 21
-147.688925
 31
0.0
 11
-50.632658
 21
-148.284698
 31
0.0
 11
-50.754406
 21
-148.971925
 31
0.0
 11
-50.632658
 21
-149.659153
 31
0.0
 11
-50.288688
 21
-150.254926
 31
0.0
 11
-49.754406
 21
-150.703976
 31
0.0
 11
-49.098376
 21
-150.942153
 31
0.0
 11
-48.410436
 21
-150.942153
 31
0.0
 11
-47.754406
 21
-150.703976
 31
0.0
 11
-47.220123
 21
-150.254926
 31
0.0
 11
-46.876153
 21
-149.659153
 31
0.0
 11
-46.754406
 21
-148.971925
 31
0.0
  0
LINE
  5
136
100
AcDbEntity
  8
0
 62
7
100
AcDbLine
 10
-45.304406
 20
-88.101926
 30
0.0
 11
-45.304406
 21
-88.101926
 31
0.0
  0
SPLINE
  5
137
100
AcDbEntity
  8
0
 62
7
100
AcDbSpline
 70
0
 71
3
 72
25
 73
21
 74
19
 40
0.000000
 40
0.000000
 40
0.000000
 40
0.000000
 40
0.697928
 40
1.385868
 40
2.083796
 40
2.781725
 40
3.469664
 40
4.167593
 40
4.865521
 40
5.553461
 40
6.251389
 40
6.949317
 40
7.637257
 40
8.335185
 40
9.033113
 40
9.721053
 40
10.418981
 40
11.116909
 40
11.804849
 40
12.502777
 40
12.502777
 40
12.502777
 40
12.502777
 10
-45.304406
 20
-88.101926
 30
0.0
 10
-45.328302
 20
-87.868096
 30
0.0
 10
-45.375751
 20
-87.403784
 30
0.0
 10
-45.743885
 20
-86.790189
 30
0.0
 10
-46.282894
 20
-86.333996
 30
0.0
 10
-46.950356
 20
-86.092047
 30
0.0
 10
-47.658608
 20
-86.092047
 30
0.0
 10
-48.325135
 20
-86.333996
 30
0.0
 10
-48.867878
 20
-86.790189
 30
0.0
 10
-49.222142
 20
-87.403784
 30
0.0
 10
-49.345834
 20
-88.101926
 30
0.0
 10
-49.222142
 20
-88.800067
 30
0.0
 10
-48.867877
 20
-89.413662
 30
0.0
 10
-48.325135
 20
-89.869855
 30
0.0
 10
-47.658608
 20
-90.111804
 30
0.0
 10
-46.950356
 20
-90.111804
 30
0.0
 10
-46.282894
 20
-89.869855
 30
0.0
 10
-45.743885
 20
-89.413662
 30
0.0
 10
-45.375752
 20
-88.800067
 30
0.0
 10
-45.328302
 20
-88.335755
 30
0.0
 10
-45.304406
 20
-88.101926
 30
0.0
 11
-45.304406
 21
-88.101926
 31
0.0
 11
-45.426153
 21
-87.414698
 31
0.0
 11
-45.770123
 21
-86.818925
 31
0.0
 11
-46.304406
 21
-86.369875
 31
0.0
 11
-46.960436
 21
-86.131698
 31
0.0
 11
-47.648376
 21
-86.131698
 31
0.0
 11
-48.304406
 21
-86.369875
 31
0.0
 11
-48.838688
 21
-86.818925
 31
0.0
 11
-49.182658
 21
-87.414698
 31
0.0
 11
-49.304406
 21
-88.101926
 31
0.0
 11
-49.182658
 21
-88.789153
 31
0.0
 11
-48.838688
 21
-89.384926
 31
0.0
 11
-48.304406
 21
-89.833976
 31
0.0
 11
-47.648376
 21
-90.072153
 31
0.0
 11
-46.960436
 21
-90.072153
 31
0.0
 11
-46.304406
 21
-89.833976
 31
0.0
 11
-45.770123
 21
-89.384926
 31
0.0
 11
-45.426153
 21
-88.789153
 31
0.0
 11
-45.304406
 21
-88.101926
 31
0.0
  0
LINE
  5
138
100
AcDbEntity
  8
0
 62
7
100
AcDbLine
 10
110.000000
 20
-122.932055
 30
0.0
 11
110.000000
 21
-122.932055
 31
0.0
  0
SPLINE
  5
139
100
AcDbEntity
  8
0
 62
7
100
AcDbSpline
 70
0
 71
3
 72
25
 73
21
 74
19
 40
0.000000
 40
0.000000
 40
0.000000
 40
0.000000
 40
0.697928
 40
1.385868
 40
2.083796
 40
2.781724
 40
3.469664
 40
4.167592
 40
4.865521
 40
5.553460
 40
6.251389
 40
6.949317
 40
7.637257
 40
8.335185
 40
9.033113
 40
9.721053
 40
10.418981
 40
11.116909
 40
11.804849
 40
12.502777
 40
12.502777
 40
12.502777
 40
12.502777
 10
110.000000
 20
-122.932055
 30
0.0
 10
109.976104
 20
-122.698225
 30
0.0
 10
109.928654
 20
-122.233913
 30
0.0
 10
109.560521
 20
-121.620318
 30
0.0
 10
109.021511
 20
-121.164126
 30
0.0
 10
108.354050
 20
-120.922176
 30
0.0
 10
107.645797
 20
-120.922176
 30
0.0
 10
106.979270
 20
-121.164126
 30
0.0
 10
106.436528
 20
-121.620318
 30
0.0
 10
106.082263
 20
-122.233913
 30
0.0
 10
105.958572
 20
-122.932055
 30
0.0
 10
106.082264
 20
-123.630196
 30
0.0
 10
106.436528
 20
-124.243792
 30
0.0
 10
106.979270
 20
-124.699984
 30
0.0
 10
107.645797
 20
-124.941933
 30
0.0
 10
108.354050
 20
-124.941933
 30
0.0
 10
109.021511
 20
-124.699984
 30
0.0
 10
109.560521
 20
-124.243792
 30
0.0
 10
109.928654
 20
-123.630196
 30
0.0
 10
109.976104
 20
-123.165884
 30
0.0
 10
110.000000
 20
-122.932055
 30
0.0
 11
110.000000
 21
-122.932055
 31
0.0
 11
109.878252
 21
-122.244827
 31
0.0
 11
109.534282
 21
-121.649054
 31
0.0
 11
109.000000
 21
-121.200004
 31
0.0
 11
108.343970
 21
-120.961827
 31
0.0
 11
107.656030
 21
-120.961827
 31
0.0
 11
107.000000
 21
-121.200004
 31
0.0
 11
106.465718
 21
-121.649054
 31
0.0
 11
106.121748
 21
-122.244827
 31
0.0
 11
106.000000
 21
-122.932055
 31
0.0
 11
106.121748
 21
-123.619282
 31
0.0
 11
106.465718
 21
-124.215055
 31
0.0
 11
107.000000
 21
-124.664105
 31
0.0
 11
107.656030
 21
-124.902282
 31
0.0
 11
108.343970
 21
-124.902282
 31
0.0
 11
109.000000
 21
-124.664105
 31
0.0
 11
109.534283
 21
-124.215055
 31
0.0
 11
109.878252
 21
-123.619282
 31
0.0
 11
110.000000
 21
-122.932055
 31
0.0
  0
LINE
  5
13a
100
AcDbEntity
  8
0
 62
7
100
AcDbLine
 10
-44.499398
 20
-82.932054
 30
0.0
 11
-44.499398
 21
-82.932054
 31
0.0
  0
SPLINE
  5
13b
100
AcDbEntity
  8
0
 62
7
100
AcDbSpline
 70
0
 71
3
 72
25
 73
21
 74
19
 40
0.000000
 40
0.000000
 40
0.000000
 40
0.000000
 40
0.697928
 40
1.385868
 40
2.083796
 40
2.781724
 40
3.469664
 40
4.167592
 40
4.865521
 40
5.553460
 40
6.251389
 40
6.949317
 40
7.637257
 40
8.335185
 40
9.033113
 40
9.721053
 40
10.418981
 40
11.116909
 40
11.804849
 40
12.502777
 40
12.502777
 40
12.502777
 40
12.502777
 10
-44.499398
 20
-82.932054
 30
0.0
 10
-44.523294
 20
-82.698225
 30
0.0
 10
-44.570744
 20
-82.233913
 30
0.0
 10
-44.938877
 20
-81.620318
 30
0.0
 10
-45.477887
 20
-81.164125
 30
0.0
 10
-46.145348
 20
-80.922176
 30
0.0
 10
-46.853601
 20
-80.922176
 30
0.0
 10
-47.520128
 20
-81.164125
 30
0.0
 10
-48.062870
 20
-81.620318
 30
0.0
 10
-48.417134
 20
-82.233913
 30
0.0
 10
-48.540826
 20
-82.932054
 30
0.0
 10
-48.417134
 20
-83.630196
 30
0.0
 10
-48.062870
 20
-84.243791
 30
0.0
 10
-47.520128
 20
-84.699984
 30
0.0
 10
-46.853601
 20
-84.941933
 30
0.0
 10
-46.145348
 20
-84.941933
 30
0.0
 10
-45.477887
 20
-84.699984
 30
0.0
 10
-44.938877
 20
-84.243791
 30
0.0
 10
-44.570744
 20
-83.630196
 30
0.0
 10
-44.523294
 20
-83.165884
 30
0.0
 10
-44.499398
 20
-82.932054
 30
0.0
 11
-44.499398
 21
-82.932054
 31
0.0
 11
-44.621146
 21
-82.244827
 31
0.0
 11
-44.965115
 21
-81.649054
 31
0.0
 11
-45.499398
 21
-81.200004
 31
0.0
 11
-46.155428
 21
-80.961827
 31
0.0
 11
-46.843368
 21
-80.961827
 31
0.0
 11
-47.499398
 21
-81.200004
 31
0.0
 11
-48.033680
 21
-81.649054
 31
0.0
 11
-48.377650
 21
-82.244827
 31
0.0
 11
-48.499398
 21
-82.932054
 31
0.0
 11
-48.377650
 21
-83.619282
 31
0.0
 11
-48.033680
 21
-84.215055
 31
0.0
 11
-47.499398
 21
-84.664105
 31
0.0
 11
-46.843368
 21
-84.902282
 31
0.0
 11
-46.155428
 21
-84.902282
 31
0.0
 11
-45.499398
 21
-84.664105
 31
0.0
 11
-44.965115
 21
-84.215055
 31
0.0
 11
-44.621146
 21
-83.619282
 31
0.0
 11
-44.499398
 21
-82.932054
 31
0.0
  0
LINE
  5
13c
100
AcDbEntity
  8
0
 62
7
100
AcDbLine
 10
-52.499398
 20
-159.432054
 30
0.0
 11
-52.499398
 21
-159.432054
 31
0.0
  0
SPLINE
  5
13d
100
AcDbEntity
  8
0
 62
7
100
AcDbSpline
 70
0
 71
3
 72
25
 73
21
 74
19
 40
0.000000
 40
0.000000
 40
0.000000
 40
0.000000
 40
0.697928
 40
1.385868
 40
2.083796
 40
2.781725
 40
3.469664
 40
4.167593
 40
4.865521
 40
5.553461
 40
6.251389
 40
6.949317
 40
7.637257
 40
8.335185
 40
9.033113
 40
9.721053
 40
10.418981
 40
11.116909
 40
11.804849
 40
12.502777
 40
12.502777
 40
12.502777
 40
12.502777
 10
-52.499398
 20
-159.432054
 30
0.0
 10
-52.523294
 20
-159.198225
 30
0.0
 10
-52.570744
 20
-158.733913
 30
0.0
 10
-52.938877
 20
-158.120317
 30
0.0
 10
-53.477887
 20
-157.664125
 30
0.0
 10
-54.145348
 20
-157.422176
 30
0.0
 10
-54.853601
 20
-157.422176
 30
0.0
 10
-55.520128
 20
-157.664125
 30
0.0
 10
-56.062870
 20
-158.120317
 30
0.0
 10
-56.417135
 20
-158.733913
 30
0.0
 10
-56.540826
 20
-159.432054
 30
0.0
 10
-56.417135
 20
-160.130196
 30
0.0
 10
-56.062870
 20
-160.743791
 30
0.0
 10
-55.520128
 20
-161.199984
 30
0.0
 10
-54.853601
 20
-161.441933
 30
0.0
 10
-54.145348
 20
-161.441933
 30
0.0
 10
-53.477887
 20
-161.199984
 30
0.0
 10
-52.938877
 20
-160.743791
 30
0.0
 10
-52.570744
 20
-160.130196
 30
0.0
 10
-52.523294
 20
-159.665884
 30
0.0
 10
-52.499398
 20
-159.432054
 30
0.0
 11
-52.499398
 21
-159.432054
 31
0.0
 11
-52.621146
 21
-158.744827
 31
0.0
 11
-52.965116
 21
-158.149054
 31
0.0
 11
-53.499398
 21
-157.700004
 31
0.0
 11
-54.155428
 21
-157.461826
 31
0.0
 11
-54.843368
 21
-157.461826
 31
0.0
 11
-55.499398
 21
-157.700004
 31
0.0
 11
-56.033680
 21
-158.149054
 31
0.0
 11
-56.377650
 21
-158.744827
 31
0.0
 11
-56.499398
 21
-159.432054
 31
0.0
 11
-56.377650
 21
-160.119282
 31
0.0
 11
-56.033680
 21
-160.715055
 31
0.0
 11
-55.499398
 21
-161.164105
 31
0.0
 11
-54.843368
 21
-161.402282
 31
0.0
 11
-54.155428
 21
-161.402282
 31
0.0
 11
-53.499398
 21
-161.164105
 31
0.0
 11
-52.965116
 21
-160.715055
 31
0.0
 11
-52.621146
 21
-160.119282
 31
0.0
 11
-52.499398
 21
-159.432054
 31
0.0
  0
LINE
  5
13e
100
AcDbEntity
  8
0
 62
7
100
AcDbLine
 10
155.100000
 20
-159.932055
 30
0.0
 11
155.100000
 21
-159.932055
 31
0.0
  0
SPLINE
  5
13f
100
AcDbEntity
  8
0
 62
7
100
AcDbSpline
 70
0
 71
3
 72
25
 73
21
 74
19
 40
0.000000
 40
0.000000
 40
0.000000
 40
0.000000
 40
0.697928
 40
1.385868
 40
2.083796
 40
2.781724
 40
3.469664
 40
4.167592
 40
4.865521
 40
5.553460
 40
6.251389
 40
6.949317
 40
7.637257
 40
8.335185
 40
9.033113
 40
9.721053
 40
10.418981
 40
11.116909
 40
11.804849
 40
12.502777
 40
12.502777
 40
12.502777
 40
12.502777
 10
155.100000
 20
-159.932055
 30
0.0
 10
155.076104
 20
-159.698225
 30
0.0
 10
155.028654
 20
-159.233913
 30
0.0
 10
154.660521
 20
-158.620318
 30
0.0
 10
154.121511
 20
-158.164125
 30
0.0
 10
153.454050
 20
-157.922176
 30
0.0
 10
152.745797
 20
-157.922176
 30
0.0
 10
152.079270
 20
-158.164125
 30
0.0
 10
151.536528
 20
-158.620318
 30
0.0
 10
151.182263
 20
-159.233913
 30
0.0
 10
151.058572
 20
-159.932055
 30
0.0
 10
151.182263
 20
-160.630196
 30
0.0
 10
151.536528
 20
-161.243791
 30
0.0
 10
152.079270
 20
-161.699984
 30
0.0
 10
152.745797
 20
-161.941933
 30
0.0
 10
153.454050
 20
-161.941933
 30
0.0
 10
154.121511
 20
-161.699984
 30
0.0
 10
154.660521
 20
-161.243791
 30
0.0
 10
155.028654
 20
-160.630196
 30
0.0
 10
155.076104
 20
-160.165884
 30
0.0
 10
155.100000
 20
-159.932055
 30
0.0
 11
155.100000
 21
-159.932055
 31
0.0
 11
154.978252
 21
-159.244827
 31
0.0
 11
154.634282
 21
-158.649054
 31
0.0
 11
154.100000
 21
-158.200004
 31
0.0
 11
153.443970
 21
-157.961827
 31
0.0
 11
152.756030
 21
-157.961827
 31
0.0
 11
152.100000
 21
-158.200004
 31
0.0
 11
151.565718
 21
-158.649054
 31
0.0
 11
151.221748
 21
-159.244827
 31
0.0
 11
151.100000
 21
-159.932055
 31
0.0
 11
151.221748
 21
-160.619282
 31
0.0
 11
151.565718
 21
-161.215055
 31
0.0
 11
152.100000
 21
-161.664105
 31
0.0
 11
152.756030
 21
-161.902282
 31
0.0
 11
153.443970
 21
-161.902282
 31
0.0
 11
154.100000
 21
-161.664105
 31
0.0
 11
154.634282
 21
-161.215055
 31
0.0
 11
154.978252
 21
-160.619282
 31
0.0
 11
155.100000
 21
-159.932055
 31
0.0
  0
LINE
  5
140
100
AcDbEntity
  8
0
 62
7
100
AcDbLine
 10
110.000000
 20
-152.932054
 30
0.0
 11
110.000000
 21
-152.932054
 31
0.0
  0
SPLINE
  5
141
100
AcDbEntity
  8
0
 62
7
100
AcDbSpline
 70
0
 71
3
 72
25
 73
21
 74
19
 40
0.000000
 40
0.000000
 40
0.000000
 40
0.000000
 40
0.697928
 40
1.385868
 40
2.083796
 40
2.781724
 40
3.469664
 40
4.167592
 40
4.865521
 40
5.553460
 40
6.251389
 40
6.949317
 40
7.637257
 40
8.335185
 40
9.033113
 40
9.721053
 40
10.418981
 40
11.116909
 40
11.804849
 40
12.502777
 40
12.502777
 40
12.502777
 40
12.502777
 10
110.000000
 20
-152.932054
 30
0.0
 10
109.976104
 20
-152.698225
 30
0.0
 10
109.928654
 20
-152.233913
 30
0.0
 10
109.560521
 20
-151.620318
 30
0.0
 10
109.021511
 20
-151.164125
 30
0.0
 10
108.354050
 20
-150.922176
 30
0.0
 10
107.645797
 20
-150.922176
 30
0.0
 10
106.979270
 20
-151.164125
 30
0.0
 10
106.436528
 20
-151.620318
 30
0.0
 10
106.082263
 20
-152.233913
 30
0.0
 10
105.958572
 20
-152.932054
 30
0.0
 10
106.082264
 20
-153.630196
 30
0.0
 10
106.436528
 20
-154.243791
 30
0.0
 10
106.979270
 20
-154.699984
 30
0.0
 10
107.645797
 20
-154.941933
 30
0.0
 10
108.354050
 20
-154.941933
 30
0.0
 10
109.021511
 20
-154.699984
 30
0.0
 10
109.560521
 20
-154.243791
 30
0.0
 10
109.928654
 20
-153.630196
 30
0.0
 10
109.976104
 20
-153.165884
 30
0.0
 10
110.000000
 20
-152.932054
 30
0.0
 11
110.000000
 21
-152.932054
 31
0.0
 11
109.878252
 21
-152.244827
 31
0.0
 11
109.534282
 21
-151.649054
 31
0.0
 11
109.000000
 21
-151.200004
 31
0.0
 11
108.343970
 21
-150.961827
 31
0.0
 11
107.656030
 21
-150.961827
 31
0.0
 11
107.000000
 21
-151.200004
 31
0.0
 11
106.465718
 21
-151.649054
 31
0.0
 11
106.121748
 21
-152.244827
 31
0.0
 11
106.000000
 21
-152.932054
 31
0.0
 11
106.121748
 21
-153.619282
 31
0.0
 11
106.465718
 21
-154.215055
 31
0.0
 11
107.000000
 21
-154.664105
 31
0.0
 11
107.656030
 21
-154.902282
 31
0.0
 11
108.343970
 21
-154.902282
 31
0.0
 11
109.000000
 21
-154.664105
 31
0.0
 11
109.534283
 21
-154.215055
 31
0.0
 11
109.878252
 21
-153.619282
 31
0.0
 11
110.000000
 21
-152.932054
 31
0.0
  0
LINE
  5
142
100
AcDbEntity
  8
0
 62
7
100
AcDbLine
 10
-44.499398
 20
-112.932055
 30
0.0
 11
-44.499398
 21
-112.932055
 31
0.0
  0
SPLINE
  5
143
100
AcDbEntity
  8
0
 62
7
100
AcDbSpline
 70
0
 71
3
 72
25
 73
21
 74
19
 40
0.000000
 40
0.000000
 40
0.000000
 40
0.000000
 40
0.697928
 40
1.385868
 40
2.083796
 40
2.781724
 40
3.469664
 40
4.167592
 40
4.865521
 40
5.553460
 40
6.251389
 40
6.949317
 40
7.637257
 40
8.335185
 40
9.033113
 40
9.721053
 40
10.418981
 40
11.116909
 40
11.804849
 40
12.502777
 40
12.502777
 40
12.502777
 40
12.502777
 10
-44.499398
 20
-112.932055
 30
0.0
 10
-44.523294
 20
-112.698225
 30
0.0
 10
-44.570744
 20
-112.233913
 30
0.0
 10
-44.938877
 20
-111.620318
 30
0.0
 10
-45.477887
 20
-111.164125
 30
0.0
 10
-46.145348
 20
-110.922176
 30
0.0
 10
-46.853601
 20
-110.922176
 30
0.0
 10
-47.520128
 20
-111.164125
 30
0.0
 10
-48.062870
 20
-111.620318
 30
0.0
 10
-48.417134
 20
-112.233913
 30
0.0
 10
-48.540826
 20
-112.932055
 30
0.0
 10
-48.417134
 20
-113.630196
 30
0.0
 10
-48.062870
 20
-114.243791
 30
0.0
 10
-47.520128
 20
-114.699984
 30
0.0
 10
-46.853601
 20
-114.941933
 30
0.0
 10
-46.145348
 20
-114.941933
 30
0.0
 10
-45.477887
 20
-114.699984
 30
0.0
 10
-44.938877
 20
-114.243791
 30
0.0
 10
-44.570744
 20
-113.630196
 30
0.0
 10
-44.523294
 20
-113.165884
 30
0.0
 10
-44.499398
 20
-112.932055
 30
0.0
 11
-44.499398
 21
-112.932055
 31
0.0
 11
-44.621146
 21
-112.244827
 31
0.0
 11
-44.965115
 21
-111.649054
 31
0.0
 11
-45.499398
 21
-111.200004
 31
0.0
 11
-46.155428
 21
-110.961827
 31
0.0
 11
-46.843368
 21
-110.961827
 31
0.0
 11
-47.499398
 21
-111.200004
 31
0.0
 11
-48.033680
 21
-111.649054
 31
0.0
 11
-48.377650
 21
-112.244827
 31
0.0
 11
-48.499398
 21
-112.932055
 31
0.0
 11
-48.377650
 21
-113.619282
 31
0.0
 11
-48.033680
 21
-114.215055
 31
0.0
 11
-47.499398
 21
-114.664105
 31
0.0
 11
-46.843368
 21
-114.902282
 31
0.0
 11
-46.155428
 21
-114.902282
 31
0.0
 11
-45.499398
 21
-114.664105
 31
0.0
 11
-44.965115
 21
-114.215055
 31
0.0
 11
-44.621146
 21
-113.619282
 31
0.0
 11
-44.499398
 21
-112.932055
 31
0.0
  0
LINE
  5
144
100
AcDbEntity
  8
0
 62
7
100
AcDbLine
 10
-52.499398
 20
-189.432055
 30
0.0
 11
-52.499398
 21
-189.432055
 31
0.0
  0
SPLINE
  5
145
100
AcDbEntity
  8
0
 62
7
100
AcDbSpline
 70
0
 71
3
 72
25
 73
21
 74
19
 40
0.000000
 40
0.000000
 40
0.000000
 40
0.000000
 40
0.697928
 40
1.385868
 40
2.083796
 40
2.781725
 40
3.469664
 40
4.167593
 40
4.865521
 40
5.553461
 40
6.251389
 40
6.949317
 40
7.637257
 40
8.335185
 40
9.033113
 40
9.721053
 40
10.418981
 40
11.116909
 40
11.804849
 40
12.502777
 40
12.502777
 40
12.502777
 40
12.502777
 10
-52.499398
 20
-189.432055
 30
0.0
 10
-52.523294
 20
-189.198225
 30
0.0
 10
-52.570744
 20
-188.733913
 30
0.0
 10
-52.938877
 20
-188.120318
 30
0.0
 10
-53.477887
 20
-187.664125
 30
0.0
 10
-54.145348
 20
-187.422176
 30
0.0
 10
-54.853601
 20
-187.422176
 30
0.0
 10
-55.520128
 20
-187.664125
 30
0.0
 10
-56.062870
 20
-188.120318
 30
0.0
 10
-56.417135
 20
-188.733913
 30
0.0
 10
-56.540826
 20
-189.432055
 30
0.0
 10
-56.417135
 20
-190.130196
 30
0.0
 10
-56.062870
 20
-190.743791
 30
0.0
 10
-55.520128
 20
-191.199984
 30
0.0
 10
-54.853601
 20
-191.441933
 30
0.0
 10
-54.145348
 20
-191.441933
 30
0.0
 10
-53.477887
 20
-191.199984
 30
0.0
 10
-52.938877
 20
-190.743791
 30
0.0
 10
-52.570744
 20
-190.130196
 30
0.0
 10
-52.523294
 20
-189.665884
 30
0.0
 10
-52.499398
 20
-189.432055
 30
0.0
 11
-52.499398
 21
-189.432055
 31
0.0
 11
-52.621146
 21
-188.744827
 31
0.0
 11
-52.965116
 21
-188.149054
 31
0.0
 11
-53.499398
 21
-187.700004
 31
0.0
 11
-54.155428
 21
-187.461827
 31
0.0
 11
-54.843368
 21
-187.461827
 31
0.0
 11
-55.499398
 21
-187.700004
 31
0.0
 11
-56.033680
 21
-188.149054
 31
0.0
 11
-56.377650
 21
-188.744827
 31
0.0
 11
-56.499398
 21
-189.432055
 31
0.0
 11
-56.377650
 21
-190.119282
 31
0.0
 11
-56.033680
 21
-190.715055
 31
0.0
 11
-55.499398
 21
-191.164105
 31
0.0
 11
-54.843368
 21
-191.402282
 31
0.0
 11
-54.155428
 21
-191.402282
 31
0.0
 11
-53.499398
 21
-191.164105
 31
0.0
 11
-52.965116
 21
-190.715055
 31
0.0
 11
-52.621146
 21
-190.119282
 31
0.0
 11
-52.499398
 21
-189.432055
 31
0.0
  0
LINE
  5
146
100
AcDbEntity
  8
0
 62
7
100
AcDbLine
 10
155.100000
 20
-189.932054
 30
0.0
 11
155.100000
 21
-189.932054
 31
0.0
  0
SPLINE
  5
147
100
AcDbEntity
  8
0
 62
7
100
AcDbSpline
 70
0
 71
3
 72
25
 73
21
 74
19
 40
0.000000
 40
0.000000
 40
0.000000
 40
0.000000
 40
0.697928
 40
1.385868
 40
2.083796
 40
2.781724
 40
3.469664
 40
4.167592
 40
4.865521
 40
5.553460
 40
6.251389
 40
6.949317
 40
7.637257
 40
8.335185
 40
9.033113
 40
9.721053
 40
10.418981
 40
11.116909
 40
11.804849
 40
12.502777
 40
12.502777
 40
12.502777
 40
12.502777
 10
155.100000
 20
-189.932054
 30
0.0
 10
155.076104
 20
-189.698225
 30
0.0
 10
155.028654
 20
-189.233913
 30
0.0
 10
154.660521
 20
-188.620317
 30
0.0
 10
154.121511
 20
-188.164125
 30
0.0
 10
153.454050
 20
-187.922176
 30
0.0
 10
152.745797
 20
-187.922176
 30
0.0
 10
152.079270
 20
-188.164125
 30
0.0
 10
151.536528
 20
-188.620317
 30
0.0
 10
151.182263
 20
-189.233913
 30
0.0
 10
151.058572
 20
-189.932054
 30
0.0
 10
151.182263
 20
-190.630196
 30
0.0
 10
151.536528
 20
-191.243791
 30
0.0
 10
152.079270
 20
-191.699983
 30
0.0
 10
152.745797
 20
-191.941933
 30
0.0
 10
153.454050
 20
-191.941933
 30
0.0
 10
154.121511
 20
-191.699983
 30
0.0
 10
154.660521
 20
-191.243791
 30
0.0
 10
155.028654
 20
-190.630196
 30
0.0
 10
155.076104
 20
-190.165884
 30
0.0
 10
155.100000
 20
-189.932054
 30
0.0
 11
155.100000
 21
-189.932054
 31
0.0
 11
154.978252
 21
-189.244827
 31
0.0
 11
154.634282
 21
-188.649054
 31
0.0
 11
154.100000
 21
-188.200004
 31
0.0
 11
153.443970
 21
-187.961827
 31
0.0
 11
152.756030
 21
-187.961827
 31
0.0
 11
152.100000
 21
-188.200004
 31
0.0
 11
151.565718
 21
-188.649054
 31
0.0
 11
151.221748
 21
-189.244827
 31
0.0
 11
151.100000
 21
-189.932054
 31
0.0
 11
151.221748
 21
-190.619282
 31
0.0
 11
151.565718
 21
-191.215055
 31
0.0
 11
152.100000
 21
-191.664105
 31
0.0
 11
152.756030
 21
-191.902282
 31
0.0
 11
153.443970
 21
-191.902282
 31
0.0
 11
154.100000
 21
-191.664105
 31
0.0
 11
154.634282
 21
-191.215055
 31
0.0
 11
154.978252
 21
-190.619282
 31
0.0
 11
155.100000
 21
-189.932054
 31
0.0
  0
LINE
  5
148
100
AcDbEntity
  8
0
 62
7
100
AcDbLine
 10
102.625000
 20
-23.800000
 30
0.0
 11
102.625000
 21
-23.800000
 31
0.0
  0
SPLINE
  5
149
100
AcDbEntity
  8
0
 62
7
100
AcDbSpline
 70
0
 71
3
 72
25
 73
21
 74
19
 40
0.000000
 40
0.000000
 40
0.000000
 40
0.000000
 40
0.916031
 40
1.818952
 40
2.734983
 40
3.651013
 40
4.553934
 40
5.469965
 40
6.385996
 40
7.288917
 40
8.204948
 40
9.120978
 40
10.023899
 40
10.939930
 40
11.855961
 40
12.758882
 40
13.674913
 40
14.590943
 40
15.493864
 40
16.409895
 40
16.409895
 40
16.409895
 40
16.409895
 10
102.625000
 20
-23.800000
 30
0.0
 10
102.593637
 20
-23.493099
 30
0.0
 10
102.531359
 20
-22.883689
 30
0.0
 10
102.048184
 20
-22.078345
 30
0.0
 10
101.340734
 20
-21.479593
 30
0.0
 10
100.464690
 20
-21.162035
 30
0.0
 10
99.535109
 20
-21.162035
 30
0.0
 10
98.660292
 20
-21.479593
 30
0.0
 10
97.947943
 20
-22.078345
 30
0.0
 10
97.482971
 20
-22.883689
 30
0.0
 10
97.320626
 20
-23.800000
 30
0.0
 10
97.482971
 20
-24.716310
 30
0.0
 10
97.947943
 20
-25.521655
 30
0.0
 10
98.660292
 20
-26.120407
 30
0.0
 10
99.535109
 20
-26.437965
 30
0.0
 10
100.464690
 20
-26.437965
 30
0.0
 10
101.340734
 20
-26.120407
 30
0.0
 10
102.048184
 20
-25.521655
 30
0.0
 10
102.531359
 20
-24.716310
 30
0.0
 10
102.593637
 20
-24.106901
 30
0.0
 10
102.625000
 20
-23.800000
 30
0.0
 11
102.625000
 21
-23.800000
 31
0.0
 11
102.465206
 21
-22.898014
 31
0.0
 11
102.013746
 21
-22.116062
 31
0.0
 11
101.312500
 21
-21.526683
 31
0.0
 11
100.451461
 21
-21.214076
 31
0.0
 11
99.548540
 21
-21.214076
 31
0.0
 11
98.687500
 21
-21.526683
 31
0.0
 11
97.986254
 21
-22.116062
 31
0.0
 11
97.534794
 21
-22.898014
 31
0.0
 11
97.375000
 21
-23.800000
 31
0.0
 11
97.534794
 21
-24.701986
 31
0.0
 11
97.986254
 21
-25.483938
 31
0.0
 11
98.687500
 21
-26.073317
 31
0.0
 11
99.548540
 21
-26.385924
 31
0.0
 11
100.451461
 21
-26.385924
 31
0.0
 11
101.312500
 21
-26.073317
 31
0.0
 11
102.013746
 21
-25.483938
 31
0.0
 11
102.465206
 21
-24.701986
 31
0.0
 11
102.625000
 21
-23.800000
 31
0.0
  0
LINE
  5
14a
100
AcDbEntity
  8
0
 62
7
100
AcDbLine
 10
9.500000
 20
-115.300000
 30
0.0
 11
9.500000
 21
-115.300000
 31
0.0
  0
SPLINE
  5
14b
100
AcDbEntity
  8
0
 62
7
100
AcDbSpline
 70
0
 71
3
 72
25
 73
21
 74
19
 40
0.000000
 40
0.000000
 40
0.000000
 40
0.000000
 40
0.697928
 40
1.385868
 40
2.083796
 40
2.781724
 40
3.469664
 40
4.167592
 40
4.865521
 40
5.553460
 40
6.251389
 40
6.949317
 40
7.637257
 40
8.335185
 40
9.033113
 40
9.721053
 40
10.418981
 40
11.116909
 40
11.804849
 40
12.502777
 40
12.502777
 40
12.502777
 40
12.502777
 10
9.500000
 20
-115.300000
 30
0.0
 10
9.476104
 20
-115.066171
 30
0.0
 10
9.428654
 20
-114.601859
 30
0.0
 10
9.060521
 20
-113.988263
 30
0.0
 10
8.521511
 20
-113.532071
 30
0.0
 10
7.854049
 20
-113.290122
 30
0.0
 10
7.145797
 20
-113.290122
 30
0.0
 10
6.479270
 20
-113.532071
 30
0.0
 10
5.936528
 20
-113.988263
 30
0.0
 10
5.582263
 20
-114.601859
 30
0.0
 10
5.458572
 20
-115.300000
 30
0.0
 10
5.582263
 20
-115.998141
 30
0.0
 10
5.936528
 20
-116.611737
 30
0.0
 10
6.479270
 20
-117.067929
 30
0.0
 10
7.145797
 20
-117.309878
 30
0.0
 10
7.854049
 20
-117.309878
 30
0.0
 10
8.521511
 20
-117.067929
 30
0.0
 10
9.060521
 20
-116.611737
 30
0.0
 10
9.428654
 20
-115.998141
 30
0.0
 10
9.476104
 20
-115.533829
 30
0.0
 10
9.500000
 20
-115.300000
 30
0.0
 11
9.500000
 21
-115.300000
 31
0.0
 11
9.378252
 21
-114.612773
 31
0.0
 11
9.034282
 21
-114.016999
 31
0.0
 11
8.500000
 21
-113.567949
 31
0.0
 11
7.843970
 21
-113.329772
 31
0.0
 11
7.156030
 21
-113.329772
 31
0.0
 11
6.500000
 21
-113.567949
 31
0.0
 11
5.965718
 21
-114.016999
 31
0.0
 11
5.621748
 21
-114.612773
 31
0.0
 11
5.500000
 21
-115.300000
 31
0.0
 11
5.621748
 21
-115.987227
 31
0.0
 11
5.965718
 21
-116.583001
 31
0.0
 11
6.500000
 21
-117.032051
 31
0.0
 11
7.156030
 21
-117.270228
 31
0.0
 11
7.843970
 21
-117.270228
 31
0.0
 11
8.500000
 21
-117.032051
 31
0.0
 11
9.034282
 21
-116.583001
 31
0.0
 11
9.378252
 21
-115.987227
 31
0.0
 11
9.500000
 21
-115.300000
 31
0.0
  0
LINE
  5
14c
100
AcDbEntity
  8
0
 62
7
100
AcDbLine
 10
102.625000
 20
93.800000
 30
0.0
 11
102.625000
 21
93.800000
 31
0.0
  0
SPLINE
  5
14d
100
AcDbEntity
  8
0
 62
7
100
AcDbSpline
 70
0
 71
3
 72
25
 73
21
 74
19
 40
0.000000
 40
0.000000
 40
0.000000
 40
0.000000
 40
0.916031
 40
1.818952
 40
2.734983
 40
3.651013
 40
4.553934
 40
5.469965
 40
6.385996
 40
7.288917
 40
8.204948
 40
9.120978
 40
10.023899
 40
10.939930
 40
11.855961
 40
12.758882
 40
13.674913
 40
14.590943
 40
15.493864
 40
16.409895
 40
16.409895
 40
16.409895
 40
16.409895
 10
102.625000
 20
93.800000
 30
0.0
 10
102.593637
 20
94.106901
 30
0.0
 10
102.531359
 20
94.716311
 30
0.0
 10
102.048184
 20
95.521655
 30
0.0
 10
101.340734
 20
96.120407
 30
0.0
 10
100.464690
 20
96.437965
 30
0.0
 10
99.535109
 20
96.437965
 30
0.0
 10
98.660292
 20
96.120407
 30
0.0
 10
97.947943
 20
95.521655
 30
0.0
 10
97.482971
 20
94.716311
 30
0.0
 10
97.320626
 20
93.800000
 30
0.0
 10
97.482971
 20
92.883689
 30
0.0
 10
97.947943
 20
92.078345
 30
0.0
 10
98.660292
 20
91.479593
 30
0.0
 10
99.535109
 20
91.162035
 30
0.0
 10
100.464690
 20
91.162035
 30
0.0
 10
101.340734
 20
91.479593
 30
0.0
 10
102.048184
 20
92.078345
 30
0.0
 10
102.531359
 20
92.883689
 30
0.0
 10
102.593637
 20
93.493099
 30
0.0
 10
102.625000
 20
93.800000
 30
0.0
 11
102.625000
 21
93.800000
 31
0.0
 11
102.465206
 21
94.701986
 31
0.0
 11
102.013746
 21
95.483938
 31
0.0
 11
101.312500
 21
96.073317
 31
0.0
 11
100.451461
 21
96.385924
 31
0.0
 11
99.548540
 21
96.385924
 31
0.0
 11
98.687500
 21
96.073317
 31
0.0
 11
97.986254
 21
95.483938
 31
0.0
 11
97.534794
 21
94.701986
 31
0.0
 11
97.375000
 21
93.800000
 31
0.0
 11
97.534794
 21
92.898014
 31
0.0
 11
97.986254
 21
92.116062
 31
0.0
 11
98.687500
 21
91.526683
 31
0.0
 11
99.548540
 21
91.214076
 31
0.0
 11
100.451461
 21
91.214076
 31
0.0
 11
101.312500
 21
91.526683
 31
0.0
 11
102.013746
 21
92.116062
 31
0.0
 11
102.465206
 21
92.898014
 31
0.0
 11
102.625000
 21
93.800000
 31
0.0
  0
LINE
  5
14e
100
AcDbEntity
  8
0
 62
7
100
AcDbLine
 10
-97.375000
 20
-23.800000
 30
0.0
 11
-97.375000
 21
-23.800000
 31
0.0
  0
SPLINE
  5
14f
100
AcDbEntity
  8
0
 62
7
100
AcDbSpline
 70
0
 71
3
 72
25
 73
21
 74
19
 40
0.000000
 40
0.000000
 40
0.000000
 40
0.000000
 40
0.916031
 40
1.818952
 40
2.734983
 40
3.651013
 40
4.553934
 40
5.469965
 40
6.385996
 40
7.288917
 40
8.204948
 40
9.120978
 40
10.023899
 40
10.939930
 40
11.855961
 40
12.758882
 40
13.674913
 40
14.590943
 40
15.493864
 40
16.409895
 40
16.409895
 40
16.409895
 40
16.409895
 10
-97.375000
 20
-23.800000
 30
0.0
 10
-97.406364
 20
-23.493099
 30
0.0
 10
-97.468641
 20
-22.883689
 30
0.0
 10
-97.951816
 20
-22.078345
 30
0.0
 10
-98.659266
 20
-21.479593
 30
0.0
 10
-99.535310
 20
-21.162035
 30
0.0
 10
-100.464891
 20
-21.162035
 30
0.0
 10
-101.339708
 20
-21.479593
 30
0.0
 10
-102.052057
 20
-22.078345
 30
0.0
 10
-102.517029
 20
-22.883689
 30
0.0
 10
-102.679375
 20
-23.800000
 30
0.0
 10
-102.517029
 20
-24.716310
 30
0.0
 10
-102.052057
 20
-25.521655
 30
0.0
 10
-101.339708
 20
-26.120407
 30
0.0
 10
-100.464891
 20
-26.437965
 30
0.0
 10
-99.535310
 20
-26.437965
 30
0.0
 10
-98.659266
 20
-26.120407
 30
0.0
 10
-97.951816
 20
-25.521655
 30
0.0
 10
-97.468641
 20
-24.716310
 30
0.0
 10
-97.406364
 20
-24.106901
 30
0.0
 10
-97.375000
 20
-23.800000
 30
0.0
 11
-97.375000
 21
-23.800000
 31
0.0
 11
-97.534794
 21
-22.898014
 31
0.0
 11
-97.986254
 21
-22.116062
 31
0.0
 11
-98.687500
 21
-21.526683
 31
0.0
 11
-99.548540
 21
-21.214076
 31
0.0
 11
-100.451461
 21
-21.214076
 31
0.0
 11
-101.312500
 21
-21.526683
 31
0.0
 11
-102.013746
 21
-22.116062
 31
0.0
 11
-102.465206
 21
-22.898014
 31
0.0
 11
-102.625000
 21
-23.800000
 31
0.0
 11
-102.465206
 21
-24.701986
 31
0.0
 11
-102.013746
 21
-25.483938
 31
0.0
 11
-101.312500
 21
-26.073317
 31
0.0
 11
-100.451461
 21
-26.385924
 31
0.0
 11
-99.548540
 21
-26.385924
 31
0.0
 11
-98.687500
 21
-26.073317
 31
0.0
 11
-97.986254
 21
-25.483938
 31
0.0
 11
-97.534794
 21
-24.701986
 31
0.0
 11
-97.375000
 21
-23.800000
 31
0.0
  0
LINE
  5
150
100
AcDbEntity
  8
0
 62
7
100
AcDbLine
 10
-97.375000
 20
93.800000
 30
0.0
 11
-97.375000
 21
93.800000
 31
0.0
  0
SPLINE
  5
151
100
AcDbEntity
  8
0
 62
7
100
AcDbSpline
 70
0
 71
3
 72
25
 73
21
 74
19
 40
0.000000
 40
0.000000
 40
0.000000
 40
0.000000
 40
0.916031
 40
1.818952
 40
2.734983
 40
3.651013
 40
4.553934
 40
5.469965
 40
6.385996
 40
7.288917
 40
8.204948
 40
9.120978
 40
10.023899
 40
10.939930
 40
11.855961
 40
12.758882
 40
13.674913
 40
14.590943
 40
15.493864
 40
16.409895
 40
16.409895
 40
16.409895
 40
16.409895
 10
-97.375000
 20
93.800000
 30
0.0
 10
-97.406364
 20
94.106901
 30
0.0
 10
-97.468641
 20
94.716311
 30
0.0
 10
-97.951816
 20
95.521655
 30
0.0
 10
-98.659266
 20
96.120407
 30
0.0
 10
-99.535310
 20
96.437965
 30
0.0
 10
-100.464891
 20
96.437965
 30
0.0
 10
-101.339708
 20
96.120407
 30
0.0
 10
-102.052057
 20
95.521655
 30
0.0
 10
-102.517029
 20
94.716311
 30
0.0
 10
-102.679375
 20
93.800000
 30
0.0
 10
-102.517029
 20
92.883689
 30
0.0
 10
-102.052057
 20
92.078345
 30
0.0
 10
-101.339708
 20
91.479593
 30
0.0
 10
-100.464891
 20
91.162035
 30
0.0
 10
-99.535310
 20
91.162035
 30
0.0
 10
-98.659266
 20
91.479593
 30
0.0
 10
-97.951816
 20
92.078345
 30
0.0
 10
-97.468641
 20
92.883689
 30
0.0
 10
-97.406364
 20
93.493099
 30
0.0
 10
-97.375000
 20
93.800000
 30
0.0
 11
-97.375000
 21
93.800000
 31
0.0
 11
-97.534794
 21
94.701986
 31
0.0
 11
-97.986254
 21
95.483938
 31
0.0
 11
-98.687500
 21
96.073317
 31
0.0
 11
-99.548540
 21
96.385924
 31
0.0
 11
-100.451461
 21
96.385924
 31
0.0
 11
-101.312500
 21
96.073317
 31
0.0
 11
-102.013746
 21
95.483938
 31
0.0
 11
-102.465206
 21
94.701986
 31
0.0
 11
-102.625000
 21
93.800000
 31
0.0
 11
-102.465206
 21
92.898014
 31
0.0
 11
-102.013746
 21
92.116062
 31
0.0
 11
-101.312500
 21
91.526683
 31
0.0
 11
-100.451461
 21
91.214076
 31
0.0
 11
-99.548540
 21
91.214076
 31
0.0
 11
-98.687500
 21
91.526683
 31
0.0
 11
-97.986254
 21
92.116062
 31
0.0
 11
-97.534794
 21
92.898014
 31
0.0
 11
-97.375000
 21
93.800000
 31
0.0
  0
LINE
  5
152
100
AcDbEntity
  8
0
 62
7
100
AcDbLine
 10
64.775000
 20
-197.432055
 30
0.0
 11
64.775000
 21
-197.432055
 31
0.0
  0
SPLINE
  5
153
100
AcDbEntity
  8
0
 62
7
100
AcDbSpline
 70
0
 71
3
 72
25
 73
21
 74
19
 40
0.000000
 40
0.000000
 40
0.000000
 40
0.000000
 40
0.697928
 40
1.385868
 40
2.083796
 40
2.781724
 40
3.469664
 40
4.167592
 40
4.865521
 40
5.553460
 40
6.251389
 40
6.949317
 40
7.637257
 40
8.335185
 40
9.033113
 40
9.721053
 40
10.418981
 40
11.116909
 40
11.804849
 40
12.502777
 40
12.502777
 40
12.502777
 40
12.502777
 10
64.775000
 20
-197.432055
 30
0.0
 10
64.751104
 20
-197.198225
 30
0.0
 10
64.703654
 20
-196.733913
 30
0.0
 10
64.335521
 20
-196.120318
 30
0.0
 10
63.796511
 20
-195.664126
 30
0.0
 10
63.129050
 20
-195.422176
 30
0.0
 10
62.420797
 20
-195.422176
 30
0.0
 10
61.754270
 20
-195.664126
 30
0.0
 10
61.211528
 20
-196.120318
 30
0.0
 10
60.857263
 20
-196.733913
 30
0.0
 10
60.733572
 20
-197.432055
 30
0.0
 10
60.857264
 20
-198.130196
 30
0.0
 10
61.211528
 20
-198.743792
 30
0.0
 10
61.754270
 20
-199.199984
 30
0.0
 10
62.420797
 20
-199.441933
 30
0.0
 10
63.129050
 20
-199.441933
 30
0.0
 10
63.796511
 20
-199.199984
 30
0.0
 10
64.335521
 20
-198.743792
 30
0.0
 10
64.703654
 20
-198.130196
 30
0.0
 10
64.751104
 20
-197.665884
 30
0.0
 10
64.775000
 20
-197.432055
 30
0.0
 11
64.775000
 21
-197.432055
 31
0.0
 11
64.653252
 21
-196.744827
 31
0.0
 11
64.309282
 21
-196.149054
 31
0.0
 11
63.775000
 21
-195.700004
 31
0.0
 11
63.118970
 21
-195.461827
 31
0.0
 11
62.431030
 21
-195.461827
 31
0.0
 11
61.775000
 21
-195.700004
 31
0.0
 11
61.240718
 21
-196.149054
 31
0.0
 11
60.896748
 21
-196.744827
 31
0.0
 11
60.775000
 21
-197.432055
 31
0.0
 11
60.896748
 21
-198.119282
 31
0.0
 11
61.240718
 21
-198.715055
 31
0.0
 11
61.775000
 21
-199.164105
 31
0.0
 11
62.431030
 21
-199.402282
 31
0.0
 11
63.118970
 21
-199.402282
 31
0.0
 11
63.775000
 21
-199.164105
 31
0.0
 11
64.309283
 21
-198.715055
 31
0.0
 11
64.653252
 21
-198.119282
 31
0.0
 11
64.775000
 21
-197.432055
 31
0.0
  0
LINE
  5
154
100
AcDbEntity
  8
0
 62
7
100
AcDbLine
 10
-75.225000
 20
-197.432055
 30
0.0
 11
-75.225000
 21
-197.432055
 31
0.0
  0
SPLINE
  5
155
100
AcDbEntity
  8
0
 62
7
100
AcDbSpline
 70
0
 71
3
 72
25
 73
21
 74
19
 40
0.000000
 40
0.000000
 40
0.000000
 40
0.000000
 40
0.697928
 40
1.385868
 40
2.083796
 40
2.781725
 40
3.469664
 40
4.167593
 40
4.865521
 40
5.553461
 40
6.251389
 40
6.949317
 40
7.637257
 40
8.335185
 40
9.033113
 40
9.721053
 40
10.418982
 40
11.116910
 40
11.804850
 40
12.502778
 40
12.502778
 40
12.502778
 40
12.502778
 10
-75.225000
 20
-197.432055
 30
0.0
 10
-75.248896
 20
-197.198225
 30
0.0
 10
-75.296346
 20
-196.733913
 30
0.0
 10
-75.664479
 20
-196.120318
 30
0.0
 10
-76.203489
 20
-195.664125
 30
0.0
 10
-76.870951
 20
-195.422176
 30
0.0
 10
-77.579203
 20
-195.422176
 30
0.0
 10
-78.245730
 20
-195.664125
 30
0.0
 10
-78.788472
 20
-196.120318
 30
0.0
 10
-79.142737
 20
-196.733913
 30
0.0
 10
-79.266428
 20
-197.432055
 30
0.0
 10
-79.142737
 20
-198.130196
 30
0.0
 10
-78.788472
 20
-198.743792
 30
0.0
 10
-78.245730
 20
-199.199984
 30
0.0
 10
-77.579203
 20
-199.441933
 30
0.0
 10
-76.870951
 20
-199.441933
 30
0.0
 10
-76.203489
 20
-199.199984
 30
0.0
 10
-75.664479
 20
-198.743792
 30
0.0
 10
-75.296346
 20
-198.130196
 30
0.0
 10
-75.248896
 20
-197.665884
 30
0.0
 10
-75.225000
 20
-197.432055
 30
0.0
 11
-75.225000
 21
-197.432055
 31
0.0
 11
-75.346748
 21
-196.744827
 31
0.0
 11
-75.690718
 21
-196.149054
 31
0.0
 11
-76.225000
 21
-195.700004
 31
0.0
 11
-76.881030
 21
-195.461827
 31
0.0
 11
-77.568970
 21
-195.461827
 31
0.0
 11
-78.225000
 21
-195.700004
 31
0.0
 11
-78.759283
 21
-196.149054
 31
0.0
 11
-79.103252
 21
-196.744827
 31
0.0
 11
-79.225000
 21
-197.432055
 31
0.0
 11
-79.103252
 21
-198.119282
 31
0.0
 11
-78.759283
 21
-198.715055
 31
0.0
 11
-78.225000
 21
-199.164106
 31
0.0
 11
-77.568970
 21
-199.402283
 31
0.0
 11
-76.881030
 21
-199.402283
 31
0.0
 11
-76.225000
 21
-199.164106
 31
0.0
 11
-75.690718
 21
-198.715055
 31
0.0
 11
-75.346748
 21
-198.119282
 31
0.0
 11
-75.225000
 21
-197.432055
 31
0.0
  0
ENDSEC
  0
SECTION
  2
OBJECTS
  0
DICTIONARY
  5
C
330
0
100
AcDbDictionary
  3
ACAD_GROUP
350
D
  3
ACAD_MLINESTYLE
350
17
  0
DICTIONARY
  5
D
330
C
100
AcDbDictionary
  0
DICTIONARY
  5
1A
330
C
100
AcDbDictionary
  0
DICTIONARY
  5
17
330
C
100
AcDbDictionary
  3
STANDARD
350
18
  0
DICTIONARY
  5
19
330
C
100
AcDbDictionary
  0
ENDSEC
  0
EOF
