  0
SECTION
  2
HEADER
  9
$ACADVER
  1
AC1014
  9
$HANDSEED
  5
FFFF
  9
$MEASUREMENT
 70
     1
  0
ENDSEC
  0
SECTION
  2
TABLES
  0
TABLE
  2
VPORT
  5
8
330
0
100
AcDbSymbolTable
 70
     4
  0
VPORT
  5
2E
330
8
100
AcDbSymbolTableRecord
100
AcDbViewportTableRecord
  2
*ACTIVE
 70
     0
 10
0.0
 20
0.0
 11
1.0
 21
1.0
 12
210.0
 22
148.5
 13
0.0
 23
0.0
 14
10.0
 24
10.0
 15
10.0
 25
10.0
 16
0.0
 26
0.0
 36
1.0
 17
0.0
 27
0.0
 37
0.0
 40
341.0
 41
1.24
 42
50.0
 43
0.0
 44
0.0
 50
0.0
 51
0.0
 71
     0
 72
   100
 73
     1
 74
     3
 75
     0
 76
     0
 77
     0
 78
     0
  0
ENDTAB
  0
TABLE
  2
LTYPE
  5
5
330
0
100
AcDbSymbolTable
 70
     1
  0
LTYPE
  5
14
330
5
100
AcDbSymbolTableRecord
100
AcDbLinetypeTableRecord
  2
BYBLOCK
 70
     0
  3

 72
    65
 73
     0
 40
0.0
  0
LTYPE
  5
15
330
5
100
AcDbSymbolTableRecord
100
AcDbLinetypeTableRecord
  2
BYLAYER
 70
     0
  3

 72
    65
 73
     0
 40
0.0
  0
LTYPE
  5
16
330
5
100
AcDbSymbolTableRecord
100
AcDbLinetypeTableRecord
  2
CONTINUOUS
 70
     0
  3
Solid line
 72
    65
 73
     0
 40
0.0
  0
ENDTAB
  0
TABLE
  2
LAYER
  5
2
100
AcDbSymbolTable
 70
1
  0
LAYER
  5
50
100
AcDbSymbolTableRecord
100
AcDbLayerTableRecord
  2
0
 70
0
  6
CONTINUOUS
  0
ENDTAB
  0
TABLE
  2
STYLE
  5
3
330
0
100
AcDbSymbolTable
 70
     1
  0
STYLE
  5
11
330
3
100
AcDbSymbolTableRecord
100
AcDbTextStyleTableRecord
  2
STANDARD
 70
     0
 40
0.0
 41
1.0
 50
0.0
 71
     0
 42
2.5
  3
txt
  4

  0
ENDTAB
  0
TABLE
  2
VIEW
  5
6
330
0
100
AcDbSymbolTable
 70
     0
  0
ENDTAB
  0
TABLE
  2
UCS
  5
7
330
0
100
AcDbSymbolTable
 70
     0
  0
ENDTAB
  0
TABLE
  2
APPID
  5
9
330
0
100
AcDbSymbolTable
 70
     2
  0
APPID
  5
12
330
9
100
AcDbSymbolTableRecord
100
AcDbRegAppTableRecord
  2
ACAD
 70
     0
  0
ENDTAB
  0
TABLE
  2
DIMSTYLE
  5
A
330
0
100
AcDbSymbolTable
 70
     1
  0
DIMSTYLE
105
27
330
A
100
AcDbSymbolTableRecord
100
AcDbDimStyleTableRecord
  2
ISO-25
 70
     0
  3

  4

  5

  6

  7

 40
1.0
 41
2.5
 42
0.625
 43
3.75
 44
1.25
 45
0.0
 46
0.0
 47
0.0
 48
0.0
140
2.5
141
2.5
142
0.0
143
0.03937007874016
144
1.0
145
0.0
146
1.0
147
0.625
 71
     0
 72
     0
 73
     0
 74
     0
 75
     0
 76
     0
 77
     1
 78
     8
170
     0
171
     3
172
     1
173
     0
174
     0
175
     0
176
     0
177
     0
178
     0
270
     2
271
     2
272
     2
273
     2
274
     3
340
11
275
     0
280
     0
281
     0
282
     0
283
     0
284
     8
285
     0
286
     0
287
     3
288
     0
  0
ENDTAB
  0
TABLE
  2
BLOCK_RECORD
  5
1
330
0
100
AcDbSymbolTable
 70
     1
  0
BLOCK_RECORD
  5
1F
330
1
100
AcDbSymbolTableRecord
100
AcDbBlockTableRecord
  2
*MODEL_SPACE
  0
BLOCK_RECORD
  5
1B
330
1
100
AcDbSymbolTableRecord
100
AcDbBlockTableRecord
  2
*PAPER_SPACE
  0
ENDTAB
  0
ENDSEC
  0
SECTION
  2
BLOCKS
  0
BLOCK
  5
20
330
1F
100
AcDbEntity
  8
0
100
AcDbBlockBegin
  2
*MODEL_SPACE
 70
     0
 10
0.0
 20
0.0
 30
0.0
  3
*MODEL_SPACE
  1

  0
ENDBLK
  5
21
330
1F
100
AcDbEntity
  8
0
100
AcDbBlockEnd
  0
BLOCK
  5
1C
330
1B
100
AcDbEntity
 67
     1
  8
0
100
AcDbBlockBegin
  2
*PAPER_SPACE
  1

  0
ENDBLK
  5
1D
330
1B
100
AcDbEntity
 67
     1
  8
0
100
AcDbBlockEnd
  0
ENDSEC
  0
SECTION
  2
ENTITIES
  0
LINE
  5
100
100
AcDbEntity
  8
0
 62
7
100
AcDbLine
 10
1.700000
 20
-2.500000
 30
0.0
 11
1.700000
 21
-2.500000
 31
0.0
  0
SPLINE
  5
101
100
AcDbEntity
  8
0
 62
7
100
AcDbSpline
 70
0
 71
3
 72
25
 73
21
 74
19
 40
0.000000
 40
0.000000
 40
0.000000
 40
0.000000
 40
0.593239
 40
1.177988
 40
1.771227
 40
2.364466
 40
2.949215
 40
3.542454
 40
4.135693
 40
4.720441
 40
5.313680
 40
5.906919
 40
6.491668
 40
7.084907
 40
7.678146
 40
8.262895
 40
8.856134
 40
9.449373
 40
10.034122
 40
10.627361
 40
10.627361
 40
10.627361
 40
10.627361
 10
1.700000
 20
-2.500000
 30
0.0
 10
1.679688
 20
-2.301245
 30
0.0
 10
1.639356
 20
-1.906580
 30
0.0
 10
1.326443
 20
-1.385023
 30
0.0
 10
0.868285
 20
-0.997260
 30
0.0
 10
0.300942
 20
-0.791603
 30
0.0
 10
-0.301072
 20
-0.791603
 30
0.0
 10
-0.867620
 20
-0.997260
 30
0.0
 10
-1.328951
 20
-1.385023
 30
0.0
 10
-1.630076
 20
-1.906580
 30
0.0
 10
-1.735214
 20
-2.500000
 30
0.0
 10
-1.630076
 20
-3.093420
 30
0.0
 10
-1.328951
 20
-3.614976
 30
0.0
 10
-0.867620
 20
-4.002740
 30
0.0
 10
-0.301072
 20
-4.208396
 30
0.0
 10
0.300942
 20
-4.208396
 30
0.0
 10
0.868285
 20
-4.002740
 30
0.0
 10
1.326443
 20
-3.614976
 30
0.0
 10
1.639356
 20
-3.093420
 30
0.0
 10
1.679688
 20
-2.698755
 30
0.0
 10
1.700000
 20
-2.500000
 30
0.0
 11
1.700000
 21
-2.500000
 31
0.0
 11
1.596514
 21
-1.915857
 31
0.0
 11
1.304140
 21
-1.409449
 31
0.0
 11
0.850000
 21
-1.027757
 31
0.0
 11
0.292374
 21
-0.825306
 31
0.0
 11
-0.292374
 21
-0.825306
 31
0.0
 11
-0.850000
 21
-1.027757
 31
0.0
 11
-1.304140
 21
-1.409449
 31
0.0
 11
-1.596514
 21
-1.915857
 31
0.0
 11
-1.700000
 21
-2.500000
 31
0.0
 11
-1.596514
 21
-3.084143
 31
0.0
 11
-1.304140
 21
-3.590550
 31
0.0
 11
-0.850000
 21
-3.972243
 31
0.0
 11
-0.292374
 21
-4.174694
 31
0.0
 11
0.292374
 21
-4.174694
 31
0.0
 11
0.850000
 21
-3.972243
 31
0.0
 11
1.304140
 21
-3.590550
 31
0.0
 11
1.596514
 21
-3.084143
 31
0.0
 11
1.700000
 21
-2.500000
 31
0.0
  0
LINE
  5
102
100
AcDbEntity
  8
0
 62
7
100
AcDbLine
 10
1.700000
 20
22.500000
 30
0.0
 11
1.700000
 21
22.500000
 31
0.0
  0
SPLINE
  5
103
100
AcDbEntity
  8
0
 62
7
100
AcDbSpline
 70
0
 71
3
 72
25
 73
21
 74
19
 40
0.000000
 40
0.000000
 40
0.000000
 40
0.000000
 40
0.593239
 40
1.177988
 40
1.771227
 40
2.364466
 40
2.949215
 40
3.542454
 40
4.135693
 40
4.720441
 40
5.313680
 40
5.906919
 40
6.491668
 40
7.084907
 40
7.678146
 40
8.262895
 40
8.856134
 40
9.449373
 40
10.034122
 40
10.627361
 40
10.627361
 40
10.627361
 40
10.627361
 10
1.700000
 20
22.500000
 30
0.0
 10
1.679688
 20
22.698755
 30
0.0
 10
1.639356
 20
23.093420
 30
0.0
 10
1.326443
 20
23.614976
 30
0.0
 10
0.868285
 20
24.002740
 30
0.0
 10
0.300942
 20
24.208397
 30
0.0
 10
-0.301072
 20
24.208397
 30
0.0
 10
-0.867620
 20
24.002740
 30
0.0
 10
-1.328951
 20
23.614976
 30
0.0
 10
-1.630076
 20
23.093420
 30
0.0
 10
-1.735214
 20
22.500000
 30
0.0
 10
-1.630076
 20
21.906580
 30
0.0
 10
-1.328951
 20
21.385024
 30
0.0
 10
-0.867620
 20
20.997260
 30
0.0
 10
-0.301072
 20
20.791604
 30
0.0
 10
0.300942
 20
20.791604
 30
0.0
 10
0.868285
 20
20.997260
 30
0.0
 10
1.326443
 20
21.385024
 30
0.0
 10
1.639356
 20
21.906580
 30
0.0
 10
1.679688
 20
22.301245
 30
0.0
 10
1.700000
 20
22.500000
 30
0.0
 11
1.700000
 21
22.500000
 31
0.0
 11
1.596514
 21
23.084143
 31
0.0
 11
1.304140
 21
23.590551
 31
0.0
 11
0.850000
 21
23.972243
 31
0.0
 11
0.292374
 21
24.174694
 31
0.0
 11
-0.292374
 21
24.174694
 31
0.0
 11
-0.850000
 21
23.972243
 31
0.0
 11
-1.304140
 21
23.590551
 31
0.0
 11
-1.596514
 21
23.084143
 31
0.0
 11
-1.700000
 21
22.500000
 31
0.0
 11
-1.596514
 21
21.915857
 31
0.0
 11
-1.304140
 21
21.409450
 31
0.0
 11
-0.850000
 21
21.027757
 31
0.0
 11
-0.292374
 21
20.825306
 31
0.0
 11
0.292374
 21
20.825306
 31
0.0
 11
0.850000
 21
21.027757
 31
0.0
 11
1.304140
 21
21.409450
 31
0.0
 11
1.596514
 21
21.915857
 31
0.0
 11
1.700000
 21
22.500000
 31
0.0
  0
LINE
  5
104
100
AcDbEntity
  8
0
 62
7
100
AcDbLine
 10
1.700000
 20
47.500000
 30
0.0
 11
1.700000
 21
47.500000
 31
0.0
  0
SPLINE
  5
105
100
AcDbEntity
  8
0
 62
7
100
AcDbSpline
 70
0
 71
3
 72
25
 73
21
 74
19
 40
0.000000
 40
0.000000
 40
0.000000
 40
0.000000
 40
0.593239
 40
1.177988
 40
1.771227
 40
2.364466
 40
2.949215
 40
3.542454
 40
4.135693
 40
4.720441
 40
5.313680
 40
5.906919
 40
6.491668
 40
7.084907
 40
7.678146
 40
8.262895
 40
8.856134
 40
9.449373
 40
10.034122
 40
10.627361
 40
10.627361
 40
10.627361
 40
10.627361
 10
1.700000
 20
47.500000
 30
0.0
 10
1.679688
 20
47.698755
 30
0.0
 10
1.639356
 20
48.093420
 30
0.0
 10
1.326443
 20
48.614976
 30
0.0
 10
0.868285
 20
49.002740
 30
0.0
 10
0.300942
 20
49.208397
 30
0.0
 10
-0.301072
 20
49.208397
 30
0.0
 10
-0.867620
 20
49.002740
 30
0.0
 10
-1.328951
 20
48.614976
 30
0.0
 10
-1.630076
 20
48.093420
 30
0.0
 10
-1.735214
 20
47.500000
 30
0.0
 10
-1.630076
 20
46.906580
 30
0.0
 10
-1.328951
 20
46.385024
 30
0.0
 10
-0.867620
 20
45.997260
 30
0.0
 10
-0.301072
 20
45.791603
 30
0.0
 10
0.300942
 20
45.791603
 30
0.0
 10
0.868285
 20
45.997260
 30
0.0
 10
1.326443
 20
46.385024
 30
0.0
 10
1.639356
 20
46.906580
 30
0.0
 10
1.679688
 20
47.301245
 30
0.0
 10
1.700000
 20
47.500000
 30
0.0
 11
1.700000
 21
47.500000
 31
0.0
 11
1.596514
 21
48.084143
 31
0.0
 11
1.304140
 21
48.590551
 31
0.0
 11
0.850000
 21
48.972243
 31
0.0
 11
0.292374
 21
49.174694
 31
0.0
 11
-0.292374
 21
49.174694
 31
0.0
 11
-0.850000
 21
48.972243
 31
0.0
 11
-1.304140
 21
48.590551
 31
0.0
 11
-1.596514
 21
48.084143
 31
0.0
 11
-1.700000
 21
47.500000
 31
0.0
 11
-1.596514
 21
46.915857
 31
0.0
 11
-1.304140
 21
46.409450
 31
0.0
 11
-0.850000
 21
46.027757
 31
0.0
 11
-0.292374
 21
45.825306
 31
0.0
 11
0.292374
 21
45.825306
 31
0.0
 11
0.850000
 21
46.027757
 31
0.0
 11
1.304140
 21
46.409450
 31
0.0
 11
1.596514
 21
46.915857
 31
0.0
 11
1.700000
 21
47.500000
 31
0.0
  0
LINE
  5
106
100
AcDbEntity
  8
0
 62
7
100
AcDbLine
 10
1.700000
 20
72.500000
 30
0.0
 11
1.700000
 21
72.500000
 31
0.0
  0
SPLINE
  5
107
100
AcDbEntity
  8
0
 62
7
100
AcDbSpline
 70
0
 71
3
 72
25
 73
21
 74
19
 40
0.000000
 40
0.000000
 40
0.000000
 40
0.000000
 40
0.593239
 40
1.177988
 40
1.771227
 40
2.364466
 40
2.949215
 40
3.542454
 40
4.135693
 40
4.720441
 40
5.313680
 40
5.906919
 40
6.491668
 40
7.084907
 40
7.678146
 40
8.262895
 40
8.856134
 40
9.449373
 40
10.034122
 40
10.627361
 40
10.627361
 40
10.627361
 40
10.627361
 10
1.700000
 20
72.500000
 30
0.0
 10
1.679688
 20
72.698755
 30
0.0
 10
1.639356
 20
73.093420
 30
0.0
 10
1.326443
 20
73.614976
 30
0.0
 10
0.868285
 20
74.002740
 30
0.0
 10
0.300942
 20
74.208397
 30
0.0
 10
-0.301072
 20
74.208397
 30
0.0
 10
-0.867620
 20
74.002740
 30
0.0
 10
-1.328951
 20
73.614976
 30
0.0
 10
-1.630076
 20
73.093420
 30
0.0
 10
-1.735214
 20
72.500000
 30
0.0
 10
-1.630076
 20
71.906580
 30
0.0
 10
-1.328951
 20
71.385024
 30
0.0
 10
-0.867620
 20
70.997260
 30
0.0
 10
-0.301072
 20
70.791603
 30
0.0
 10
0.300942
 20
70.791603
 30
0.0
 10
0.868285
 20
70.997260
 30
0.0
 10
1.326443
 20
71.385024
 30
0.0
 10
1.639356
 20
71.906580
 30
0.0
 10
1.679688
 20
72.301245
 30
0.0
 10
1.700000
 20
72.500000
 30
0.0
 11
1.700000
 21
72.500000
 31
0.0
 11
1.596514
 21
73.084143
 31
0.0
 11
1.304140
 21
73.590550
 31
0.0
 11
0.850000
 21
73.972243
 31
0.0
 11
0.292374
 21
74.174694
 31
0.0
 11
-0.292374
 21
74.174694
 31
0.0
 11
-0.850000
 21
73.972243
 31
0.0
 11
-1.304140
 21
73.590550
 31
0.0
 11
-1.596514
 21
73.084143
 31
0.0
 11
-1.700000
 21
72.500000
 31
0.0
 11
-1.596514
 21
71.915857
 31
0.0
 11
-1.304140
 21
71.409449
 31
0.0
 11
-0.850000
 21
71.027757
 31
0.0
 11
-0.292374
 21
70.825306
 31
0.0
 11
0.292374
 21
70.825306
 31
0.0
 11
0.850000
 21
71.027757
 31
0.0
 11
1.304140
 21
71.409449
 31
0.0
 11
1.596514
 21
71.915857
 31
0.0
 11
1.700000
 21
72.500000
 31
0.0
  0
LINE
  5
108
100
AcDbEntity
  8
0
 62
7
100
AcDbLine
 10
1.700000
 20
97.500000
 30
0.0
 11
1.700000
 21
97.500000
 31
0.0
  0
SPLINE
  5
109
100
AcDbEntity
  8
0
 62
7
100
AcDbSpline
 70
0
 71
3
 72
25
 73
21
 74
19
 40
0.000000
 40
0.000000
 40
0.000000
 40
0.000000
 40
0.593239
 40
1.177988
 40
1.771227
 40
2.364466
 40
2.949215
 40
3.542454
 40
4.135693
 40
4.720441
 40
5.313680
 40
5.906919
 40
6.491668
 40
7.084907
 40
7.678146
 40
8.262895
 40
8.856134
 40
9.449373
 40
10.034122
 40
10.627361
 40
10.627361
 40
10.627361
 40
10.627361
 10
1.700000
 20
97.500000
 30
0.0
 10
1.679688
 20
97.698755
 30
0.0
 10
1.639356
 20
98.093420
 30
0.0
 10
1.326443
 20
98.614976
 30
0.0
 10
0.868285
 20
99.002740
 30
0.0
 10
0.300942
 20
99.208396
 30
0.0
 10
-0.301072
 20
99.208396
 30
0.0
 10
-0.867620
 20
99.002740
 30
0.0
 10
-1.328951
 20
98.614976
 30
0.0
 10
-1.630076
 20
98.093420
 30
0.0
 10
-1.735214
 20
97.500000
 30
0.0
 10
-1.630076
 20
96.906580
 30
0.0
 10
-1.328951
 20
96.385024
 30
0.0
 10
-0.867620
 20
95.997260
 30
0.0
 10
-0.301072
 20
95.791603
 30
0.0
 10
0.300942
 20
95.791603
 30
0.0
 10
0.868285
 20
95.997260
 30
0.0
 10
1.326443
 20
96.385024
 30
0.0
 10
1.639356
 20
96.906580
 30
0.0
 10
1.679688
 20
97.301245
 30
0.0
 10
1.700000
 20
97.500000
 30
0.0
 11
1.700000
 21
97.500000
 31
0.0
 11
1.596514
 21
98.084143
 31
0.0
 11
1.304140
 21
98.590550
 31
0.0
 11
0.850000
 21
98.972243
 31
0.0
 11
0.292374
 21
99.174694
 31
0.0
 11
-0.292374
 21
99.174694
 31
0.0
 11
-0.850000
 21
98.972243
 31
0.0
 11
-1.304140
 21
98.590550
 31
0.0
 11
-1.596514
 21
98.084143
 31
0.0
 11
-1.700000
 21
97.500000
 31
0.0
 11
-1.596514
 21
96.915857
 31
0.0
 11
-1.304140
 21
96.409449
 31
0.0
 11
-0.850000
 21
96.027757
 31
0.0
 11
-0.292374
 21
95.825306
 31
0.0
 11
0.292374
 21
95.825306
 31
0.0
 11
0.850000
 21
96.027757
 31
0.0
 11
1.304140
 21
96.409449
 31
0.0
 11
1.596514
 21
96.915857
 31
0.0
 11
1.700000
 21
97.500000
 31
0.0
  0
LINE
  5
10a
100
AcDbEntity
  8
0
 62
7
100
AcDbLine
 10
1.700000
 20
122.500000
 30
0.0
 11
1.700000
 21
122.500000
 31
0.0
  0
SPLINE
  5
10b
100
AcDbEntity
  8
0
 62
7
100
AcDbSpline
 70
0
 71
3
 72
25
 73
21
 74
19
 40
0.000000
 40
0.000000
 40
0.000000
 40
0.000000
 40
0.593239
 40
1.177988
 40
1.771227
 40
2.364466
 40
2.949215
 40
3.542454
 40
4.135693
 40
4.720441
 40
5.313680
 40
5.906919
 40
6.491668
 40
7.084907
 40
7.678146
 40
8.262895
 40
8.856134
 40
9.449373
 40
10.034122
 40
10.627361
 40
10.627361
 40
10.627361
 40
10.627361
 10
1.700000
 20
122.500000
 30
0.0
 10
1.679688
 20
122.698755
 30
0.0
 10
1.639356
 20
123.093420
 30
0.0
 10
1.326443
 20
123.614976
 30
0.0
 10
0.868285
 20
124.002740
 30
0.0
 10
0.300942
 20
124.208396
 30
0.0
 10
-0.301072
 20
124.208396
 30
0.0
 10
-0.867620
 20
124.002740
 30
0.0
 10
-1.328951
 20
123.614976
 30
0.0
 10
-1.630076
 20
123.093420
 30
0.0
 10
-1.735214
 20
122.500000
 30
0.0
 10
-1.630076
 20
121.906580
 30
0.0
 10
-1.328951
 20
121.385024
 30
0.0
 10
-0.867620
 20
120.997260
 30
0.0
 10
-0.301072
 20
120.791603
 30
0.0
 10
0.300942
 20
120.791603
 30
0.0
 10
0.868285
 20
120.997260
 30
0.0
 10
1.326443
 20
121.385024
 30
0.0
 10
1.639356
 20
121.906580
 30
0.0
 10
1.679688
 20
122.301245
 30
0.0
 10
1.700000
 20
122.500000
 30
0.0
 11
1.700000
 21
122.500000
 31
0.0
 11
1.596514
 21
123.084143
 31
0.0
 11
1.304140
 21
123.590550
 31
0.0
 11
0.850000
 21
123.972243
 31
0.0
 11
0.292374
 21
124.174694
 31
0.0
 11
-0.292374
 21
124.174694
 31
0.0
 11
-0.850000
 21
123.972243
 31
0.0
 11
-1.304140
 21
123.590550
 31
0.0
 11
-1.596514
 21
123.084143
 31
0.0
 11
-1.700000
 21
122.500000
 31
0.0
 11
-1.596514
 21
121.915857
 31
0.0
 11
-1.304140
 21
121.409449
 31
0.0
 11
-0.850000
 21
121.027757
 31
0.0
 11
-0.292374
 21
120.825306
 31
0.0
 11
0.292374
 21
120.825306
 31
0.0
 11
0.850000
 21
121.027757
 31
0.0
 11
1.304140
 21
121.409449
 31
0.0
 11
1.596514
 21
121.915857
 31
0.0
 11
1.700000
 21
122.500000
 31
0.0
  0
LINE
  5
10c
100
AcDbEntity
  8
0
 62
7
100
AcDbLine
 10
35.250000
 20
128.550000
 30
0.0
 11
35.250000
 21
128.550000
 31
0.0
  0
SPLINE
  5
10d
100
AcDbEntity
  8
0
 62
7
100
AcDbSpline
 70
0
 71
3
 72
25
 73
21
 74
19
 40
0.000000
 40
0.000000
 40
0.000000
 40
0.000000
 40
0.436205
 40
0.866168
 40
1.302373
 40
1.738578
 40
2.168540
 40
2.604745
 40
3.040951
 40
3.470913
 40
3.907118
 40
4.343323
 40
4.773286
 40
5.209491
 40
5.645696
 40
6.075659
 40
6.511864
 40
6.948069
 40
7.378031
 40
7.814236
 40
7.814236
 40
7.814236
 40
7.814236
 10
35.250000
 20
128.550000
 30
0.0
 10
35.235065
 20
128.696143
 30
0.0
 10
35.205409
 20
128.986338
 30
0.0
 10
34.975326
 20
129.369836
 30
0.0
 10
34.638445
 20
129.654956
 30
0.0
 10
34.221281
 20
129.806174
 30
0.0
 10
33.778623
 20
129.806174
 30
0.0
 10
33.362044
 20
129.654956
 30
0.0
 10
33.022830
 20
129.369836
 30
0.0
 10
32.801415
 20
128.986338
 30
0.0
 10
32.724107
 20
128.550000
 30
0.0
 10
32.801415
 20
128.113662
 30
0.0
 10
33.022830
 20
127.730164
 30
0.0
 10
33.362044
 20
127.445044
 30
0.0
 10
33.778623
 20
127.293826
 30
0.0
 10
34.221281
 20
127.293826
 30
0.0
 10
34.638445
 20
127.445044
 30
0.0
 10
34.975326
 20
127.730164
 30
0.0
 10
35.205409
 20
128.113662
 30
0.0
 10
35.235065
 20
128.403857
 30
0.0
 10
35.250000
 20
128.550000
 30
0.0
 11
35.250000
 21
128.550000
 31
0.0
 11
35.173908
 21
128.979517
 31
0.0
 11
34.958927
 21
129.351875
 31
0.0
 11
34.625000
 21
129.632532
 31
0.0
 11
34.214981
 21
129.781392
 31
0.0
 11
33.785019
 21
129.781392
 31
0.0
 11
33.375000
 21
129.632532
 31
0.0
 11
33.041073
 21
129.351875
 31
0.0
 11
32.826092
 21
128.979517
 31
0.0
 11
32.750000
 21
128.550000
 31
0.0
 11
32.826092
 21
128.120483
 31
0.0
 11
33.041073
 21
127.748124
 31
0.0
 11
33.375000
 21
127.467468
 31
0.0
 11
33.785019
 21
127.318607
 31
0.0
 11
34.214981
 21
127.318607
 31
0.0
 11
34.625000
 21
127.467468
 31
0.0
 11
34.958927
 21
127.748124
 31
0.0
 11
35.173908
 21
128.120483
 31
0.0
 11
35.250000
 21
128.550000
 31
0.0
  0
LINE
  5
10e
100
AcDbEntity
  8
0
 62
7
100
AcDbLine
 10
25.750000
 20
128.550000
 30
0.0
 11
25.750000
 21
128.550000
 31
0.0
  0
LINE
  5
10f
100
AcDbEntity
  8
0
 62
7
100
AcDbLine
 10
42.500000
 20
165.000000
 30
0.0
 11
42.500000
 21
162.500000
 31
0.0
  0
LINE
  5
110
100
AcDbEntity
  8
0
 62
7
100
AcDbLine
 10
42.500000
 20
165.000000
 30
0.0
 11
-110.000000
 21
165.000000
 31
0.0
  0
LINE
  5
111
100
AcDbEntity
  8
0
 62
7
100
AcDbLine
 10
-110.000000
 20
-54.000000
 30
0.0
 11
-110.000000
 21
165.000000
 31
0.0
  0
LINE
  5
112
100
AcDbEntity
  8
0
 62
7
100
AcDbLine
 10
110.000000
 20
-54.000000
 30
0.0
 11
-110.000000
 21
-54.000000
 31
0.0
  0
LINE
  5
113
100
AcDbEntity
  8
0
 62
7
100
AcDbLine
 10
110.000000
 20
165.000000
 30
0.0
 11
110.000000
 21
-54.000000
 31
0.0
  0
LINE
  5
114
100
AcDbEntity
  8
0
 62
7
100
AcDbLine
 10
110.000000
 20
165.000000
 30
0.0
 11
47.500000
 21
165.000000
 31
0.0
  0
LINE
  5
115
100
AcDbEntity
  8
0
 62
7
100
AcDbLine
 10
47.500000
 20
162.500000
 30
0.0
 11
47.500000
 21
165.000000
 31
0.0
  0
SPLINE
  5
116
100
AcDbEntity
  8
0
 62
7
100
AcDbSpline
 70
0
 71
3
 72
25
 73
21
 74
19
 40
0.000000
 40
0.000000
 40
0.000000
 40
0.000000
 40
0.436337
 40
0.866426
 40
1.302763
 40
1.739100
 40
2.169188
 40
2.605525
 40
3.041862
 40
3.471951
 40
3.908288
 40
4.344625
 40
4.774714
 40
5.211051
 40
5.647388
 40
6.077476
 40
6.513813
 40
6.950150
 40
7.380239
 40
7.816576
 40
7.816576
 40
7.816576
 40
7.816576
 10
25.750000
 20
128.550000
 30
0.0
 10
25.735125
 20
128.696195
 30
0.0
 10
25.705589
 20
128.986491
 30
0.0
 10
25.475553
 20
129.370182
 30
0.0
 10
25.138628
 20
129.655462
 30
0.0
 10
24.721350
 20
129.806772
 30
0.0
 10
24.278555
 20
129.806772
 30
0.0
 10
23.861859
 20
129.655462
 30
0.0
 10
23.522610
 20
129.370182
 30
0.0
 10
23.301207
 20
128.986491
 30
0.0
 10
23.224212
 20
128.550000
 30
0.0
 10
23.301207
 20
128.113508
 30
0.0
 10
23.522610
 20
127.729818
 30
0.0
 10
23.861859
 20
127.444538
 30
0.0
 10
24.278555
 20
127.293228
 30
0.0
 10
24.721350
 20
127.293228
 30
0.0
 10
25.138628
 20
127.444538
 30
0.0
 10
25.475553
 20
127.729818
 30
0.0
 10
25.705589
 20
128.113508
 30
0.0
 10
25.735125
 20
128.403805
 30
0.0
 10
25.750000
 20
128.550000
 30
0.0
 11
25.750000
 21
128.550000
 31
0.0
 11
25.674066
 21
128.979679
 31
0.0
 11
25.459139
 21
129.352215
 31
0.0
 11
25.125171
 21
129.633027
 31
0.0
 11
24.715044
 21
129.781975
 31
0.0
 11
24.284956
 21
129.781975
 31
0.0
 11
23.874828
 21
129.633027
 31
0.0
 11
23.540861
 21
129.352215
 31
0.0
 11
23.325934
 21
128.979679
 31
0.0
 11
23.250000
 21
128.550000
 31
0.0
 11
23.325934
 21
128.120321
 31
0.0
 11
23.540861
 21
127.747785
 31
0.0
 11
23.874828
 21
127.466973
 31
0.0
 11
24.284956
 21
127.318025
 31
0.0
 11
24.715044
 21
127.318025
 31
0.0
 11
25.125171
 21
127.466973
 31
0.0
 11
25.459139
 21
127.747785
 31
0.0
 11
25.674066
 21
128.120321
 31
0.0
 11
25.750000
 21
128.550000
 31
0.0
  0
SPLINE
  5
117
100
AcDbEntity
  8
0
 62
7
100
AcDbSpline
 70
0
 71
3
 72
16
 73
12
 74
10
 40
0.000000
 40
0.000000
 40
0.000000
 40
0.000000
 40
0.872410
 40
1.732335
 40
2.604745
 40
3.477156
 40
4.337080
 40
5.209491
 40
6.081901
 40
6.941826
 40
7.814236
 40
7.814236
 40
7.814236
 40
7.814236
 10
42.500000
 20
162.500000
 30
0.0
 10
42.529869
 20
162.207713
 30
0.0
 10
42.589181
 20
161.627323
 30
0.0
 10
43.049354
 20
160.860329
 30
0.0
 10
43.723092
 20
160.290089
 30
0.0
 10
44.557509
 20
159.987652
 30
0.0
 10
45.442491
 20
159.987652
 30
0.0
 10
46.276908
 20
160.290089
 30
0.0
 10
46.950646
 20
160.860329
 30
0.0
 10
47.410819
 20
161.627323
 30
0.0
 10
47.470131
 20
162.207713
 30
0.0
 10
47.500000
 20
162.500000
 30
0.0
 11
42.500000
 21
162.500000
 31
0.0
 11
42.652185
 21
161.640966
 31
0.0
 11
43.082147
 21
160.896249
 31
0.0
 11
43.750000
 21
160.334936
 31
0.0
 11
44.570038
 21
160.037215
 31
0.0
 11
45.429962
 21
160.037215
 31
0.0
 11
46.250000
 21
160.334936
 31
0.0
 11
46.917853
 21
160.896249
 31
0.0
 11
47.347816
 21
161.640966
 31
0.0
 11
47.500000
 21
162.500000
 31
0.0
  0
LINE
  5
118
100
AcDbEntity
  8
0
 62
7
100
AcDbLine
 10
102.625000
 20
-39.000000
 30
0.0
 11
102.625000
 21
-39.000000
 31
0.0
  0
SPLINE
  5
119
100
AcDbEntity
  8
0
 62
7
100
AcDbSpline
 70
0
 71
3
 72
25
 73
21
 74
19
 40
0.000000
 40
0.000000
 40
0.000000
 40
0.000000
 40
0.916031
 40
1.818952
 40
2.734983
 40
3.651013
 40
4.553934
 40
5.469965
 40
6.385996
 40
7.288917
 40
8.204948
 40
9.120978
 40
10.023899
 40
10.939930
 40
11.855961
 40
12.758882
 40
13.674913
 40
14.590943
 40
15.493864
 40
16.409895
 40
16.409895
 40
16.409895
 40
16.409895
 10
102.625000
 20
-39.000000
 30
0.0
 10
102.593637
 20
-38.693099
 30
0.0
 10
102.531359
 20
-38.083689
 30
0.0
 10
102.048184
 20
-37.278345
 30
0.0
 10
101.340734
 20
-36.679593
 30
0.0
 10
100.464690
 20
-36.362035
 30
0.0
 10
99.535109
 20
-36.362035
 30
0.0
 10
98.660292
 20
-36.679593
 30
0.0
 10
97.947943
 20
-37.278345
 30
0.0
 10
97.482971
 20
-38.083689
 30
0.0
 10
97.320626
 20
-39.000000
 30
0.0
 10
97.482971
 20
-39.916310
 30
0.0
 10
97.947943
 20
-40.721655
 30
0.0
 10
98.660292
 20
-41.320407
 30
0.0
 10
99.535109
 20
-41.637965
 30
0.0
 10
100.464690
 20
-41.637965
 30
0.0
 10
101.340734
 20
-41.320407
 30
0.0
 10
102.048184
 20
-40.721655
 30
0.0
 10
102.531359
 20
-39.916310
 30
0.0
 10
102.593637
 20
-39.306901
 30
0.0
 10
102.625000
 20
-39.000000
 30
0.0
 11
102.625000
 21
-39.000000
 31
0.0
 11
102.465206
 21
-38.098014
 31
0.0
 11
102.013746
 21
-37.316062
 31
0.0
 11
101.312500
 21
-36.726683
 31
0.0
 11
100.451461
 21
-36.414076
 31
0.0
 11
99.548540
 21
-36.414076
 31
0.0
 11
98.687500
 21
-36.726683
 31
0.0
 11
97.986254
 21
-37.316062
 31
0.0
 11
97.534794
 21
-38.098014
 31
0.0
 11
97.375000
 21
-39.000000
 31
0.0
 11
97.534794
 21
-39.901986
 31
0.0
 11
97.986254
 21
-40.683938
 31
0.0
 11
98.687500
 21
-41.273317
 31
0.0
 11
99.548540
 21
-41.585924
 31
0.0
 11
100.451461
 21
-41.585924
 31
0.0
 11
101.312500
 21
-41.273317
 31
0.0
 11
102.013746
 21
-40.683938
 31
0.0
 11
102.465206
 21
-39.901986
 31
0.0
 11
102.625000
 21
-39.000000
 31
0.0
  0
LINE
  5
11a
100
AcDbEntity
  8
0
 62
7
100
AcDbLine
 10
-97.375000
 20
-39.000000
 30
0.0
 11
-97.375000
 21
-39.000000
 31
0.0
  0
SPLINE
  5
11b
100
AcDbEntity
  8
0
 62
7
100
AcDbSpline
 70
0
 71
3
 72
25
 73
21
 74
19
 40
0.000000
 40
0.000000
 40
0.000000
 40
0.000000
 40
0.916031
 40
1.818952
 40
2.734983
 40
3.651013
 40
4.553934
 40
5.469965
 40
6.385996
 40
7.288917
 40
8.204948
 40
9.120978
 40
10.023899
 40
10.939930
 40
11.855961
 40
12.758882
 40
13.674913
 40
14.590943
 40
15.493864
 40
16.409895
 40
16.409895
 40
16.409895
 40
16.409895
 10
-97.375000
 20
-39.000000
 30
0.0
 10
-97.406364
 20
-38.693099
 30
0.0
 10
-97.468641
 20
-38.083689
 30
0.0
 10
-97.951816
 20
-37.278345
 30
0.0
 10
-98.659266
 20
-36.679593
 30
0.0
 10
-99.535310
 20
-36.362035
 30
0.0
 10
-100.464891
 20
-36.362035
 30
0.0
 10
-101.339708
 20
-36.679593
 30
0.0
 10
-102.052057
 20
-37.278345
 30
0.0
 10
-102.517029
 20
-38.083689
 30
0.0
 10
-102.679375
 20
-39.000000
 30
0.0
 10
-102.517029
 20
-39.916310
 30
0.0
 10
-102.052057
 20
-40.721655
 30
0.0
 10
-101.339708
 20
-41.320407
 30
0.0
 10
-100.464891
 20
-41.637965
 30
0.0
 10
-99.535310
 20
-41.637965
 30
0.0
 10
-98.659266
 20
-41.320407
 30
0.0
 10
-97.951816
 20
-40.721655
 30
0.0
 10
-97.468641
 20
-39.916310
 30
0.0
 10
-97.406364
 20
-39.306901
 30
0.0
 10
-97.375000
 20
-39.000000
 30
0.0
 11
-97.375000
 21
-39.000000
 31
0.0
 11
-97.534794
 21
-38.098014
 31
0.0
 11
-97.986254
 21
-37.316062
 31
0.0
 11
-98.687500
 21
-36.726683
 31
0.0
 11
-99.548540
 21
-36.414076
 31
0.0
 11
-100.451461
 21
-36.414076
 31
0.0
 11
-101.312500
 21
-36.726683
 31
0.0
 11
-102.013746
 21
-37.316062
 31
0.0
 11
-102.465206
 21
-38.098014
 31
0.0
 11
-102.625000
 21
-39.000000
 31
0.0
 11
-102.465206
 21
-39.901986
 31
0.0
 11
-102.013746
 21
-40.683938
 31
0.0
 11
-101.312500
 21
-41.273317
 31
0.0
 11
-100.451461
 21
-41.585924
 31
0.0
 11
-99.548540
 21
-41.585924
 31
0.0
 11
-98.687500
 21
-41.273317
 31
0.0
 11
-97.986254
 21
-40.683938
 31
0.0
 11
-97.534794
 21
-39.901986
 31
0.0
 11
-97.375000
 21
-39.000000
 31
0.0
  0
LINE
  5
11c
100
AcDbEntity
  8
0
 62
7
100
AcDbLine
 10
-56.475000
 20
136.000000
 30
0.0
 11
-56.475000
 21
136.000000
 31
0.0
  0
SPLINE
  5
11d
100
AcDbEntity
  8
0
 62
7
100
AcDbSpline
 70
0
 71
3
 72
25
 73
21
 74
19
 40
0.000000
 40
0.000000
 40
0.000000
 40
0.000000
 40
0.567067
 40
1.126018
 40
1.693084
 40
2.260151
 40
2.819102
 40
3.386169
 40
3.953236
 40
4.512187
 40
5.079253
 40
5.646320
 40
6.205271
 40
6.772338
 40
7.339404
 40
7.898356
 40
8.465422
 40
9.032489
 40
9.591440
 40
10.158507
 40
10.158507
 40
10.158507
 40
10.158507
 10
-56.475000
 20
136.000000
 30
0.0
 10
-56.494416
 20
136.189986
 30
0.0
 10
-56.532969
 20
136.567240
 30
0.0
 10
-56.832077
 20
137.065786
 30
0.0
 10
-57.270022
 20
137.436442
 30
0.0
 10
-57.812335
 20
137.633026
 30
0.0
 10
-58.387790
 20
137.633026
 30
0.0
 10
-58.929343
 20
137.436442
 30
0.0
 10
-59.370321
 20
137.065786
 30
0.0
 10
-59.658161
 20
136.567240
 30
0.0
 10
-59.758660
 20
136.000000
 30
0.0
 10
-59.658161
 20
135.432760
 30
0.0
 10
-59.370321
 20
134.934214
 30
0.0
 10
-58.929343
 20
134.563558
 30
0.0
 10
-58.387790
 20
134.366974
 30
0.0
 10
-57.812335
 20
134.366974
 30
0.0
 10
-57.270022
 20
134.563558
 30
0.0
 10
-56.832077
 20
134.934214
 30
0.0
 10
-56.532969
 20
135.432760
 30
0.0
 10
-56.494416
 20
135.810014
 30
0.0
 10
-56.475000
 20
136.000000
 30
0.0
 11
-56.475000
 21
136.000000
 31
0.0
 11
-56.573920
 21
136.558372
 31
0.0
 11
-56.853396
 21
137.042438
 31
0.0
 11
-57.287500
 21
137.407291
 31
0.0
 11
-57.820525
 21
137.600810
 31
0.0
 11
-58.379476
 21
137.600810
 31
0.0
 11
-58.912500
 21
137.407291
 31
0.0
 11
-59.346605
 21
137.042438
 31
0.0
 11
-59.626080
 21
136.558372
 31
0.0
 11
-59.725000
 21
136.000000
 31
0.0
 11
-59.626080
 21
135.441628
 31
0.0
 11
-59.346605
 21
134.957562
 31
0.0
 11
-58.912500
 21
134.592709
 31
0.0
 11
-58.379476
 21
134.399190
 31
0.0
 11
-57.820525
 21
134.399190
 31
0.0
 11
-57.287500
 21
134.592709
 31
0.0
 11
-56.853396
 21
134.957562
 31
0.0
 11
-56.573920
 21
135.441628
 31
0.0
 11
-56.475000
 21
136.000000
 31
0.0
  0
LINE
  5
11e
100
AcDbEntity
  8
0
 62
7
100
AcDbLine
 10
-84.375000
 20
136.000000
 30
0.0
 11
-84.375000
 21
136.000000
 31
0.0
  0
SPLINE
  5
11f
100
AcDbEntity
  8
0
 62
7
100
AcDbSpline
 70
0
 71
3
 72
25
 73
21
 74
19
 40
0.000000
 40
0.000000
 40
0.000000
 40
0.000000
 40
0.567067
 40
1.126018
 40
1.693085
 40
2.260151
 40
2.819102
 40
3.386169
 40
3.953236
 40
4.512187
 40
5.079254
 40
5.646320
 40
6.205271
 40
6.772338
 40
7.339405
 40
7.898356
 40
8.465422
 40
9.032489
 40
9.591440
 40
10.158507
 40
10.158507
 40
10.158507
 40
10.158507
 10
-84.375000
 20
136.000000
 30
0.0
 10
-84.394415
 20
136.189986
 30
0.0
 10
-84.432968
 20
136.567240
 30
0.0
 10
-84.732077
 20
137.065786
 30
0.0
 10
-85.170022
 20
137.436443
 30
0.0
 10
-85.712335
 20
137.633026
 30
0.0
 10
-86.287790
 20
137.633026
 30
0.0
 10
-86.829343
 20
137.436443
 30
0.0
 10
-87.270321
 20
137.065786
 30
0.0
 10
-87.558161
 20
136.567240
 30
0.0
 10
-87.658660
 20
136.000000
 30
0.0
 10
-87.558161
 20
135.432760
 30
0.0
 10
-87.270321
 20
134.934214
 30
0.0
 10
-86.829343
 20
134.563558
 30
0.0
 10
-86.287790
 20
134.366974
 30
0.0
 10
-85.712335
 20
134.366974
 30
0.0
 10
-85.170022
 20
134.563558
 30
0.0
 10
-84.732077
 20
134.934214
 30
0.0
 10
-84.432968
 20
135.432760
 30
0.0
 10
-84.394415
 20
135.810014
 30
0.0
 10
-84.375000
 20
136.000000
 30
0.0
 11
-84.375000
 21
136.000000
 31
0.0
 11
-84.473920
 21
136.558372
 31
0.0
 11
-84.753395
 21
137.042438
 31
0.0
 11
-85.187500
 21
137.407291
 31
0.0
 11
-85.720524
 21
137.600810
 31
0.0
 11
-86.279475
 21
137.600810
 31
0.0
 11
-86.812500
 21
137.407291
 31
0.0
 11
-87.246604
 21
137.042438
 31
0.0
 11
-87.526080
 21
136.558372
 31
0.0
 11
-87.625000
 21
136.000000
 31
0.0
 11
-87.526080
 21
135.441628
 31
0.0
 11
-87.246604
 21
134.957562
 31
0.0
 11
-86.812500
 21
134.592709
 31
0.0
 11
-86.279475
 21
134.399190
 31
0.0
 11
-85.720524
 21
134.399190
 31
0.0
 11
-85.187500
 21
134.592709
 31
0.0
 11
-84.753395
 21
134.957562
 31
0.0
 11
-84.473920
 21
135.441628
 31
0.0
 11
-84.375000
 21
136.000000
 31
0.0
  0
LINE
  5
120
100
AcDbEntity
  8
0
 62
7
100
AcDbLine
 10
102.625000
 20
51.500000
 30
0.0
 11
102.625000
 21
51.500000
 31
0.0
  0
SPLINE
  5
121
100
AcDbEntity
  8
0
 62
7
100
AcDbSpline
 70
0
 71
3
 72
25
 73
21
 74
19
 40
0.000000
 40
0.000000
 40
0.000000
 40
0.000000
 40
0.916031
 40
1.818952
 40
2.734983
 40
3.651013
 40
4.553934
 40
5.469965
 40
6.385996
 40
7.288917
 40
8.204948
 40
9.120978
 40
10.023899
 40
10.939930
 40
11.855961
 40
12.758882
 40
13.674913
 40
14.590943
 40
15.493864
 40
16.409895
 40
16.409895
 40
16.409895
 40
16.409895
 10
102.625000
 20
51.500000
 30
0.0
 10
102.593637
 20
51.806901
 30
0.0
 10
102.531359
 20
52.416310
 30
0.0
 10
102.048184
 20
53.221655
 30
0.0
 10
101.340734
 20
53.820407
 30
0.0
 10
100.464690
 20
54.137965
 30
0.0
 10
99.535109
 20
54.137965
 30
0.0
 10
98.660292
 20
53.820407
 30
0.0
 10
97.947943
 20
53.221655
 30
0.0
 10
97.482971
 20
52.416310
 30
0.0
 10
97.320626
 20
51.500000
 30
0.0
 10
97.482971
 20
50.583689
 30
0.0
 10
97.947943
 20
49.778345
 30
0.0
 10
98.660292
 20
49.179593
 30
0.0
 10
99.535109
 20
48.862035
 30
0.0
 10
100.464690
 20
48.862035
 30
0.0
 10
101.340734
 20
49.179593
 30
0.0
 10
102.048184
 20
49.778345
 30
0.0
 10
102.531359
 20
50.583689
 30
0.0
 10
102.593637
 20
51.193099
 30
0.0
 10
102.625000
 20
51.500000
 30
0.0
 11
102.625000
 21
51.500000
 31
0.0
 11
102.465206
 21
52.401986
 31
0.0
 11
102.013746
 21
53.183938
 31
0.0
 11
101.312500
 21
53.773317
 31
0.0
 11
100.451461
 21
54.085924
 31
0.0
 11
99.548540
 21
54.085924
 31
0.0
 11
98.687500
 21
53.773317
 31
0.0
 11
97.986254
 21
53.183938
 31
0.0
 11
97.534794
 21
52.401986
 31
0.0
 11
97.375000
 21
51.500000
 31
0.0
 11
97.534794
 21
50.598014
 31
0.0
 11
97.986254
 21
49.816062
 31
0.0
 11
98.687500
 21
49.226683
 31
0.0
 11
99.548540
 21
48.914076
 31
0.0
 11
100.451461
 21
48.914076
 31
0.0
 11
101.312500
 21
49.226683
 31
0.0
 11
102.013746
 21
49.816062
 31
0.0
 11
102.465206
 21
50.598014
 31
0.0
 11
102.625000
 21
51.500000
 31
0.0
  0
LINE
  5
122
100
AcDbEntity
  8
0
 62
7
100
AcDbLine
 10
-97.375000
 20
51.500000
 30
0.0
 11
-97.375000
 21
51.500000
 31
0.0
  0
SPLINE
  5
123
100
AcDbEntity
  8
0
 62
7
100
AcDbSpline
 70
0
 71
3
 72
25
 73
21
 74
19
 40
0.000000
 40
0.000000
 40
0.000000
 40
0.000000
 40
0.916031
 40
1.818952
 40
2.734983
 40
3.651013
 40
4.553934
 40
5.469965
 40
6.385996
 40
7.288917
 40
8.204948
 40
9.120978
 40
10.023899
 40
10.939930
 40
11.855961
 40
12.758882
 40
13.674913
 40
14.590943
 40
15.493864
 40
16.409895
 40
16.409895
 40
16.409895
 40
16.409895
 10
-97.375000
 20
51.500000
 30
0.0
 10
-97.406364
 20
51.806901
 30
0.0
 10
-97.468641
 20
52.416310
 30
0.0
 10
-97.951816
 20
53.221655
 30
0.0
 10
-98.659266
 20
53.820407
 30
0.0
 10
-99.535310
 20
54.137965
 30
0.0
 10
-100.464891
 20
54.137965
 30
0.0
 10
-101.339708
 20
53.820407
 30
0.0
 10
-102.052057
 20
53.221655
 30
0.0
 10
-102.517029
 20
52.416310
 30
0.0
 10
-102.679375
 20
51.500000
 30
0.0
 10
-102.517029
 20
50.583689
 30
0.0
 10
-102.052057
 20
49.778345
 30
0.0
 10
-101.339708
 20
49.179593
 30
0.0
 10
-100.464891
 20
48.862035
 30
0.0
 10
-99.535310
 20
48.862035
 30
0.0
 10
-98.659266
 20
49.179593
 30
0.0
 10
-97.951816
 20
49.778345
 30
0.0
 10
-97.468641
 20
50.583689
 30
0.0
 10
-97.406364
 20
51.193099
 30
0.0
 10
-97.375000
 20
51.500000
 30
0.0
 11
-97.375000
 21
51.500000
 31
0.0
 11
-97.534794
 21
52.401986
 31
0.0
 11
-97.986254
 21
53.183938
 31
0.0
 11
-98.687500
 21
53.773317
 31
0.0
 11
-99.548540
 21
54.085924
 31
0.0
 11
-100.451461
 21
54.085924
 31
0.0
 11
-101.312500
 21
53.773317
 31
0.0
 11
-102.013746
 21
53.183938
 31
0.0
 11
-102.465206
 21
52.401986
 31
0.0
 11
-102.625000
 21
51.500000
 31
0.0
 11
-102.465206
 21
50.598014
 31
0.0
 11
-102.013746
 21
49.816062
 31
0.0
 11
-101.312500
 21
49.226683
 31
0.0
 11
-100.451461
 21
48.914076
 31
0.0
 11
-99.548540
 21
48.914076
 31
0.0
 11
-98.687500
 21
49.226683
 31
0.0
 11
-97.986254
 21
49.816062
 31
0.0
 11
-97.534794
 21
50.598014
 31
0.0
 11
-97.375000
 21
51.500000
 31
0.0
  0
LINE
  5
124
100
AcDbEntity
  8
0
 62
7
100
AcDbLine
 10
102.625000
 20
151.500000
 30
0.0
 11
102.625000
 21
151.500000
 31
0.0
  0
SPLINE
  5
125
100
AcDbEntity
  8
0
 62
7
100
AcDbSpline
 70
0
 71
3
 72
25
 73
21
 74
19
 40
0.000000
 40
0.000000
 40
0.000000
 40
0.000000
 40
0.916031
 40
1.818952
 40
2.734983
 40
3.651013
 40
4.553934
 40
5.469965
 40
6.385996
 40
7.288917
 40
8.204948
 40
9.120978
 40
10.023899
 40
10.939930
 40
11.855961
 40
12.758882
 40
13.674913
 40
14.590943
 40
15.493864
 40
16.409895
 40
16.409895
 40
16.409895
 40
16.409895
 10
102.625000
 20
151.500000
 30
0.0
 10
102.593637
 20
151.806901
 30
0.0
 10
102.531359
 20
152.416311
 30
0.0
 10
102.048184
 20
153.221655
 30
0.0
 10
101.340734
 20
153.820407
 30
0.0
 10
100.464690
 20
154.137965
 30
0.0
 10
99.535109
 20
154.137965
 30
0.0
 10
98.660292
 20
153.820407
 30
0.0
 10
97.947943
 20
153.221655
 30
0.0
 10
97.482971
 20
152.416311
 30
0.0
 10
97.320626
 20
151.500000
 30
0.0
 10
97.482971
 20
150.583690
 30
0.0
 10
97.947943
 20
149.778345
 30
0.0
 10
98.660292
 20
149.179593
 30
0.0
 10
99.535109
 20
148.862035
 30
0.0
 10
100.464690
 20
148.862035
 30
0.0
 10
101.340734
 20
149.179593
 30
0.0
 10
102.048184
 20
149.778345
 30
0.0
 10
102.531359
 20
150.583690
 30
0.0
 10
102.593637
 20
151.193099
 30
0.0
 10
102.625000
 20
151.500000
 30
0.0
 11
102.625000
 21
151.500000
 31
0.0
 11
102.465206
 21
152.401986
 31
0.0
 11
102.013746
 21
153.183938
 31
0.0
 11
101.312500
 21
153.773317
 31
0.0
 11
100.451461
 21
154.085924
 31
0.0
 11
99.548540
 21
154.085924
 31
0.0
 11
98.687500
 21
153.773317
 31
0.0
 11
97.986254
 21
153.183938
 31
0.0
 11
97.534794
 21
152.401986
 31
0.0
 11
97.375000
 21
151.500000
 31
0.0
 11
97.534794
 21
150.598014
 31
0.0
 11
97.986254
 21
149.816062
 31
0.0
 11
98.687500
 21
149.226683
 31
0.0
 11
99.548540
 21
148.914076
 31
0.0
 11
100.451461
 21
148.914076
 31
0.0
 11
101.312500
 21
149.226683
 31
0.0
 11
102.013746
 21
149.816062
 31
0.0
 11
102.465206
 21
150.598014
 31
0.0
 11
102.625000
 21
151.500000
 31
0.0
  0
LINE
  5
126
100
AcDbEntity
  8
0
 62
7
100
AcDbLine
 10
-97.375000
 20
151.500000
 30
0.0
 11
-97.375000
 21
151.500000
 31
0.0
  0
SPLINE
  5
127
100
AcDbEntity
  8
0
 62
7
100
AcDbSpline
 70
0
 71
3
 72
25
 73
21
 74
19
 40
0.000000
 40
0.000000
 40
0.000000
 40
0.000000
 40
0.916031
 40
1.818952
 40
2.734983
 40
3.651013
 40
4.553934
 40
5.469965
 40
6.385996
 40
7.288917
 40
8.204948
 40
9.120978
 40
10.023899
 40
10.939930
 40
11.855961
 40
12.758882
 40
13.674913
 40
14.590943
 40
15.493864
 40
16.409895
 40
16.409895
 40
16.409895
 40
16.409895
 10
-97.375000
 20
151.500000
 30
0.0
 10
-97.406364
 20
151.806901
 30
0.0
 10
-97.468641
 20
152.416311
 30
0.0
 10
-97.951816
 20
153.221655
 30
0.0
 10
-98.659266
 20
153.820407
 30
0.0
 10
-99.535310
 20
154.137965
 30
0.0
 10
-100.464891
 20
154.137965
 30
0.0
 10
-101.339708
 20
153.820407
 30
0.0
 10
-102.052057
 20
153.221655
 30
0.0
 10
-102.517029
 20
152.416311
 30
0.0
 10
-102.679375
 20
151.500000
 30
0.0
 10
-102.517029
 20
150.583690
 30
0.0
 10
-102.052057
 20
149.778345
 30
0.0
 10
-101.339708
 20
149.179593
 30
0.0
 10
-100.464891
 20
148.862035
 30
0.0
 10
-99.535310
 20
148.862035
 30
0.0
 10
-98.659266
 20
149.179593
 30
0.0
 10
-97.951816
 20
149.778345
 30
0.0
 10
-97.468641
 20
150.583690
 30
0.0
 10
-97.406364
 20
151.193099
 30
0.0
 10
-97.375000
 20
151.500000
 30
0.0
 11
-97.375000
 21
151.500000
 31
0.0
 11
-97.534794
 21
152.401986
 31
0.0
 11
-97.986254
 21
153.183938
 31
0.0
 11
-98.687500
 21
153.773317
 31
0.0
 11
-99.548540
 21
154.085924
 31
0.0
 11
-100.451461
 21
154.085924
 31
0.0
 11
-101.312500
 21
153.773317
 31
0.0
 11
-102.013746
 21
153.183938
 31
0.0
 11
-102.465206
 21
152.401986
 31
0.0
 11
-102.625000
 21
151.500000
 31
0.0
 11
-102.465206
 21
150.598014
 31
0.0
 11
-102.013746
 21
149.816062
 31
0.0
 11
-101.312500
 21
149.226683
 31
0.0
 11
-100.451461
 21
148.914076
 31
0.0
 11
-99.548540
 21
148.914076
 31
0.0
 11
-98.687500
 21
149.226683
 31
0.0
 11
-97.986254
 21
149.816062
 31
0.0
 11
-97.534794
 21
150.598014
 31
0.0
 11
-97.375000
 21
151.500000
 31
0.0
  0
LINE
  5
128
100
AcDbEntity
  8
0
 62
7
100
AcDbLine
 10
2.625000
 20
30.000000
 30
0.0
 11
2.625000
 21
30.000000
 31
0.0
  0
SPLINE
  5
129
100
AcDbEntity
  8
0
 62
7
100
AcDbSpline
 70
0
 71
3
 72
25
 73
21
 74
19
 40
0.000000
 40
0.000000
 40
0.000000
 40
0.000000
 40
0.916031
 40
1.818952
 40
2.734983
 40
3.651013
 40
4.553934
 40
5.469965
 40
6.385996
 40
7.288917
 40
8.204948
 40
9.120979
 40
10.023899
 40
10.939930
 40
11.855961
 40
12.758882
 40
13.674913
 40
14.590944
 40
15.493865
 40
16.409895
 40
16.409895
 40
16.409895
 40
16.409895
 10
2.625000
 20
30.000000
 30
0.0
 10
2.593637
 20
30.306901
 30
0.0
 10
2.531359
 20
30.916311
 30
0.0
 10
2.048184
 20
31.721655
 30
0.0
 10
1.340734
 20
32.320407
 30
0.0
 10
0.464690
 20
32.637965
 30
0.0
 10
-0.464891
 20
32.637965
 30
0.0
 10
-1.339708
 20
32.320407
 30
0.0
 10
-2.052057
 20
31.721655
 30
0.0
 10
-2.517029
 20
30.916311
 30
0.0
 10
-2.679374
 20
30.000000
 30
0.0
 10
-2.517029
 20
29.083689
 30
0.0
 10
-2.052057
 20
28.278345
 30
0.0
 10
-1.339708
 20
27.679593
 30
0.0
 10
-0.464891
 20
27.362035
 30
0.0
 10
0.464690
 20
27.362035
 30
0.0
 10
1.340734
 20
27.679593
 30
0.0
 10
2.048184
 20
28.278345
 30
0.0
 10
2.531359
 20
29.083689
 30
0.0
 10
2.593637
 20
29.693099
 30
0.0
 10
2.625000
 20
30.000000
 30
0.0
 11
2.625000
 21
30.000000
 31
0.0
 11
2.465206
 21
30.901986
 31
0.0
 11
2.013746
 21
31.683938
 31
0.0
 11
1.312500
 21
32.273317
 31
0.0
 11
0.451460
 21
32.585924
 31
0.0
 11
-0.451460
 21
32.585924
 31
0.0
 11
-1.312500
 21
32.273317
 31
0.0
 11
-2.013746
 21
31.683938
 31
0.0
 11
-2.465206
 21
30.901986
 31
0.0
 11
-2.625000
 21
30.000000
 31
0.0
 11
-2.465206
 21
29.098014
 31
0.0
 11
-2.013746
 21
28.316062
 31
0.0
 11
-1.312500
 21
27.726683
 31
0.0
 11
-0.451460
 21
27.414076
 31
0.0
 11
0.451460
 21
27.414076
 31
0.0
 11
1.312500
 21
27.726683
 31
0.0
 11
2.013746
 21
28.316062
 31
0.0
 11
2.465206
 21
29.098014
 31
0.0
 11
2.625000
 21
30.000000
 31
0.0
  0
LINE
  5
12a
100
AcDbEntity
  8
0
 62
7
100
AcDbLine
 10
2.625000
 20
90.000000
 30
0.0
 11
2.625000
 21
90.000000
 31
0.0
  0
SPLINE
  5
12b
100
AcDbEntity
  8
0
 62
7
100
AcDbSpline
 70
0
 71
3
 72
25
 73
21
 74
19
 40
0.000000
 40
0.000000
 40
0.000000
 40
0.000000
 40
0.916031
 40
1.818952
 40
2.734983
 40
3.651013
 40
4.553934
 40
5.469965
 40
6.385996
 40
7.288917
 40
8.204948
 40
9.120979
 40
10.023899
 40
10.939930
 40
11.855961
 40
12.758882
 40
13.674913
 40
14.590944
 40
15.493865
 40
16.409895
 40
16.409895
 40
16.409895
 40
16.409895
 10
2.625000
 20
90.000000
 30
0.0
 10
2.593637
 20
90.306901
 30
0.0
 10
2.531359
 20
90.916311
 30
0.0
 10
2.048184
 20
91.721655
 30
0.0
 10
1.340734
 20
92.320407
 30
0.0
 10
0.464690
 20
92.637965
 30
0.0
 10
-0.464891
 20
92.637965
 30
0.0
 10
-1.339708
 20
92.320407
 30
0.0
 10
-2.052057
 20
91.721655
 30
0.0
 10
-2.517029
 20
90.916311
 30
0.0
 10
-2.679374
 20
90.000000
 30
0.0
 10
-2.517029
 20
89.083689
 30
0.0
 10
-2.052057
 20
88.278345
 30
0.0
 10
-1.339708
 20
87.679593
 30
0.0
 10
-0.464891
 20
87.362035
 30
0.0
 10
0.464690
 20
87.362035
 30
0.0
 10
1.340734
 20
87.679593
 30
0.0
 10
2.048184
 20
88.278345
 30
0.0
 10
2.531359
 20
89.083689
 30
0.0
 10
2.593637
 20
89.693099
 30
0.0
 10
2.625000
 20
90.000000
 30
0.0
 11
2.625000
 21
90.000000
 31
0.0
 11
2.465206
 21
90.901986
 31
0.0
 11
2.013746
 21
91.683938
 31
0.0
 11
1.312500
 21
92.273317
 31
0.0
 11
0.451460
 21
92.585924
 31
0.0
 11
-0.451460
 21
92.585924
 31
0.0
 11
-1.312500
 21
92.273317
 31
0.0
 11
-2.013746
 21
91.683938
 31
0.0
 11
-2.465206
 21
90.901986
 31
0.0
 11
-2.625000
 21
90.000000
 31
0.0
 11
-2.465206
 21
89.098014
 31
0.0
 11
-2.013746
 21
88.316062
 31
0.0
 11
-1.312500
 21
87.726683
 31
0.0
 11
-0.451460
 21
87.414076
 31
0.0
 11
0.451460
 21
87.414076
 31
0.0
 11
1.312500
 21
87.726683
 31
0.0
 11
2.013746
 21
88.316062
 31
0.0
 11
2.465206
 21
89.098014
 31
0.0
 11
2.625000
 21
90.000000
 31
0.0
  0
LINE
  5
12c
100
AcDbEntity
  8
0
 62
7
100
AcDbLine
 10
2.625000
 20
150.000000
 30
0.0
 11
2.625000
 21
150.000000
 31
0.0
  0
SPLINE
  5
12d
100
AcDbEntity
  8
0
 62
7
100
AcDbSpline
 70
0
 71
3
 72
25
 73
21
 74
19
 40
0.000000
 40
0.000000
 40
0.000000
 40
0.000000
 40
0.916031
 40
1.818952
 40
2.734983
 40
3.651013
 40
4.553934
 40
5.469965
 40
6.385996
 40
7.288917
 40
8.204948
 40
9.120979
 40
10.023899
 40
10.939930
 40
11.855961
 40
12.758882
 40
13.674913
 40
14.590944
 40
15.493865
 40
16.409895
 40
16.409895
 40
16.409895
 40
16.409895
 10
2.625000
 20
150.000000
 30
0.0
 10
2.593637
 20
150.306901
 30
0.0
 10
2.531359
 20
150.916310
 30
0.0
 10
2.048184
 20
151.721655
 30
0.0
 10
1.340734
 20
152.320407
 30
0.0
 10
0.464690
 20
152.637965
 30
0.0
 10
-0.464891
 20
152.637965
 30
0.0
 10
-1.339708
 20
152.320407
 30
0.0
 10
-2.052057
 20
151.721655
 30
0.0
 10
-2.517029
 20
150.916310
 30
0.0
 10
-2.679374
 20
150.000000
 30
0.0
 10
-2.517029
 20
149.083689
 30
0.0
 10
-2.052057
 20
148.278345
 30
0.0
 10
-1.339708
 20
147.679593
 30
0.0
 10
-0.464891
 20
147.362035
 30
0.0
 10
0.464690
 20
147.362035
 30
0.0
 10
1.340734
 20
147.679593
 30
0.0
 10
2.048184
 20
148.278345
 30
0.0
 10
2.531359
 20
149.083689
 30
0.0
 10
2.593637
 20
149.693099
 30
0.0
 10
2.625000
 20
150.000000
 30
0.0
 11
2.625000
 21
150.000000
 31
0.0
 11
2.465206
 21
150.901986
 31
0.0
 11
2.013746
 21
151.683938
 31
0.0
 11
1.312500
 21
152.273317
 31
0.0
 11
0.451460
 21
152.585924
 31
0.0
 11
-0.451460
 21
152.585924
 31
0.0
 11
-1.312500
 21
152.273317
 31
0.0
 11
-2.013746
 21
151.683938
 31
0.0
 11
-2.465206
 21
150.901986
 31
0.0
 11
-2.625000
 21
150.000000
 31
0.0
 11
-2.465206
 21
149.098014
 31
0.0
 11
-2.013746
 21
148.316062
 31
0.0
 11
-1.312500
 21
147.726683
 31
0.0
 11
-0.451460
 21
147.414076
 31
0.0
 11
0.451460
 21
147.414076
 31
0.0
 11
1.312500
 21
147.726683
 31
0.0
 11
2.013746
 21
148.316062
 31
0.0
 11
2.465206
 21
149.098014
 31
0.0
 11
2.625000
 21
150.000000
 31
0.0
  0
LINE
  5
12e
100
AcDbEntity
  8
0
 62
7
100
AcDbLine
 10
2.625000
 20
-30.000000
 30
0.0
 11
2.625000
 21
-30.000000
 31
0.0
  0
SPLINE
  5
12f
100
AcDbEntity
  8
0
 62
7
100
AcDbSpline
 70
0
 71
3
 72
25
 73
21
 74
19
 40
0.000000
 40
0.000000
 40
0.000000
 40
0.000000
 40
0.916031
 40
1.818952
 40
2.734983
 40
3.651013
 40
4.553934
 40
5.469965
 40
6.385996
 40
7.288917
 40
8.204948
 40
9.120979
 40
10.023899
 40
10.939930
 40
11.855961
 40
12.758882
 40
13.674913
 40
14.590944
 40
15.493865
 40
16.409895
 40
16.409895
 40
16.409895
 40
16.409895
 10
2.625000
 20
-30.000000
 30
0.0
 10
2.593637
 20
-29.693099
 30
0.0
 10
2.531359
 20
-29.083689
 30
0.0
 10
2.048184
 20
-28.278345
 30
0.0
 10
1.340734
 20
-27.679593
 30
0.0
 10
0.464690
 20
-27.362035
 30
0.0
 10
-0.464891
 20
-27.362035
 30
0.0
 10
-1.339708
 20
-27.679593
 30
0.0
 10
-2.052057
 20
-28.278345
 30
0.0
 10
-2.517029
 20
-29.083689
 30
0.0
 10
-2.679374
 20
-30.000000
 30
0.0
 10
-2.517029
 20
-30.916310
 30
0.0
 10
-2.052057
 20
-31.721655
 30
0.0
 10
-1.339708
 20
-32.320407
 30
0.0
 10
-0.464891
 20
-32.637965
 30
0.0
 10
0.464690
 20
-32.637965
 30
0.0
 10
1.340734
 20
-32.320407
 30
0.0
 10
2.048184
 20
-31.721655
 30
0.0
 10
2.531359
 20
-30.916310
 30
0.0
 10
2.593637
 20
-30.306901
 30
0.0
 10
2.625000
 20
-30.000000
 30
0.0
 11
2.625000
 21
-30.000000
 31
0.0
 11
2.465206
 21
-29.098014
 31
0.0
 11
2.013746
 21
-28.316062
 31
0.0
 11
1.312500
 21
-27.726683
 31
0.0
 11
0.451460
 21
-27.414076
 31
0.0
 11
-0.451460
 21
-27.414076
 31
0.0
 11
-1.312500
 21
-27.726683
 31
0.0
 11
-2.013746
 21
-28.316062
 31
0.0
 11
-2.465206
 21
-29.098014
 31
0.0
 11
-2.625000
 21
-30.000000
 31
0.0
 11
-2.465206
 21
-30.901986
 31
0.0
 11
-2.013746
 21
-31.683938
 31
0.0
 11
-1.312500
 21
-32.273317
 31
0.0
 11
-0.451460
 21
-32.585924
 31
0.0
 11
0.451460
 21
-32.585924
 31
0.0
 11
1.312500
 21
-32.273317
 31
0.0
 11
2.013746
 21
-31.683938
 31
0.0
 11
2.465206
 21
-30.901986
 31
0.0
 11
2.625000
 21
-30.000000
 31
0.0
  0
ENDSEC
  0
SECTION
  2
OBJECTS
  0
DICTIONARY
  5
C
330
0
100
AcDbDictionary
  3
ACAD_GROUP
350
D
  3
ACAD_MLINESTYLE
350
17
  0
DICTIONARY
  5
D
330
C
100
AcDbDictionary
  0
DICTIONARY
  5
1A
330
C
100
AcDbDictionary
  0
DICTIONARY
  5
17
330
C
100
AcDbDictionary
  3
STANDARD
350
18
  0
DICTIONARY
  5
19
330
C
100
AcDbDictionary
  0
ENDSEC
  0
EOF
