  0
SECTION
  2
HEADER
  9
$ACADVER
  1
AC1014
  9
$HANDSEED
  5
FFFF
  9
$MEASUREMENT
 70
     1
  0
ENDSEC
  0
SECTION
  2
TABLES
  0
TABLE
  2
VPORT
  5
8
330
0
100
AcDbSymbolTable
 70
     4
  0
VPORT
  5
2E
330
8
100
AcDbSymbolTableRecord
100
AcDbViewportTableRecord
  2
*ACTIVE
 70
     0
 10
0.0
 20
0.0
 11
1.0
 21
1.0
 12
210.0
 22
148.5
 13
0.0
 23
0.0
 14
10.0
 24
10.0
 15
10.0
 25
10.0
 16
0.0
 26
0.0
 36
1.0
 17
0.0
 27
0.0
 37
0.0
 40
341.0
 41
1.24
 42
50.0
 43
0.0
 44
0.0
 50
0.0
 51
0.0
 71
     0
 72
   100
 73
     1
 74
     3
 75
     0
 76
     0
 77
     0
 78
     0
  0
ENDTAB
  0
TABLE
  2
LTYPE
  5
5
330
0
100
AcDbSymbolTable
 70
     1
  0
LTYPE
  5
14
330
5
100
AcDbSymbolTableRecord
100
AcDbLinetypeTableRecord
  2
BYBLOCK
 70
     0
  3

 72
    65
 73
     0
 40
0.0
  0
LTYPE
  5
15
330
5
100
AcDbSymbolTableRecord
100
AcDbLinetypeTableRecord
  2
BYLAYER
 70
     0
  3

 72
    65
 73
     0
 40
0.0
  0
LTYPE
  5
16
330
5
100
AcDbSymbolTableRecord
100
AcDbLinetypeTableRecord
  2
CONTINUOUS
 70
     0
  3
Solid line
 72
    65
 73
     0
 40
0.0
  0
ENDTAB
  0
TABLE
  2
LAYER
  5
2
100
AcDbSymbolTable
 70
1
  0
LAYER
  5
50
100
AcDbSymbolTableRecord
100
AcDbLayerTableRecord
  2
0
 70
0
  6
CONTINUOUS
  0
ENDTAB
  0
TABLE
  2
STYLE
  5
3
330
0
100
AcDbSymbolTable
 70
     1
  0
STYLE
  5
11
330
3
100
AcDbSymbolTableRecord
100
AcDbTextStyleTableRecord
  2
STANDARD
 70
     0
 40
0.0
 41
1.0
 50
0.0
 71
     0
 42
2.5
  3
txt
  4

  0
ENDTAB
  0
TABLE
  2
VIEW
  5
6
330
0
100
AcDbSymbolTable
 70
     0
  0
ENDTAB
  0
TABLE
  2
UCS
  5
7
330
0
100
AcDbSymbolTable
 70
     0
  0
ENDTAB
  0
TABLE
  2
APPID
  5
9
330
0
100
AcDbSymbolTable
 70
     2
  0
APPID
  5
12
330
9
100
AcDbSymbolTableRecord
100
AcDbRegAppTableRecord
  2
ACAD
 70
     0
  0
ENDTAB
  0
TABLE
  2
DIMSTYLE
  5
A
330
0
100
AcDbSymbolTable
 70
     1
  0
DIMSTYLE
105
27
330
A
100
AcDbSymbolTableRecord
100
AcDbDimStyleTableRecord
  2
ISO-25
 70
     0
  3

  4

  5

  6

  7

 40
1.0
 41
2.5
 42
0.625
 43
3.75
 44
1.25
 45
0.0
 46
0.0
 47
0.0
 48
0.0
140
2.5
141
2.5
142
0.0
143
0.03937007874016
144
1.0
145
0.0
146
1.0
147
0.625
 71
     0
 72
     0
 73
     0
 74
     0
 75
     0
 76
     0
 77
     1
 78
     8
170
     0
171
     3
172
     1
173
     0
174
     0
175
     0
176
     0
177
     0
178
     0
270
     2
271
     2
272
     2
273
     2
274
     3
340
11
275
     0
280
     0
281
     0
282
     0
283
     0
284
     8
285
     0
286
     0
287
     3
288
     0
  0
ENDTAB
  0
TABLE
  2
BLOCK_RECORD
  5
1
330
0
100
AcDbSymbolTable
 70
     1
  0
BLOCK_RECORD
  5
1F
330
1
100
AcDbSymbolTableRecord
100
AcDbBlockTableRecord
  2
*MODEL_SPACE
  0
BLOCK_RECORD
  5
1B
330
1
100
AcDbSymbolTableRecord
100
AcDbBlockTableRecord
  2
*PAPER_SPACE
  0
ENDTAB
  0
ENDSEC
  0
SECTION
  2
BLOCKS
  0
BLOCK
  5
20
330
1F
100
AcDbEntity
  8
0
100
AcDbBlockBegin
  2
*MODEL_SPACE
 70
     0
 10
0.0
 20
0.0
 30
0.0
  3
*MODEL_SPACE
  1

  0
ENDBLK
  5
21
330
1F
100
AcDbEntity
  8
0
100
AcDbBlockEnd
  0
BLOCK
  5
1C
330
1B
100
AcDbEntity
 67
     1
  8
0
100
AcDbBlockBegin
  2
*PAPER_SPACE
  1

  0
ENDBLK
  5
1D
330
1B
100
AcDbEntity
 67
     1
  8
0
100
AcDbBlockEnd
  0
ENDSEC
  0
SECTION
  2
ENTITIES
  0
LINE
  5
100
100
AcDbEntity
  8
0
 62
7
100
AcDbLine
 10
72.830000
 20
-34.140000
 30
0.0
 11
72.830000
 21
-34.140000
 31
0.0
  0
SPLINE
  5
101
100
AcDbEntity
  8
0
 62
7
100
AcDbSpline
 70
0
 71
3
 72
25
 73
21
 74
19
 40
0.000000
 40
0.000000
 40
0.000000
 40
0.000000
 40
0.523591
 40
1.039684
 40
1.563274
 40
2.086865
 40
2.602958
 40
3.126549
 40
3.650140
 40
4.166233
 40
4.689823
 40
5.213414
 40
5.729507
 40
6.253098
 40
6.776689
 40
7.292782
 40
7.816372
 40
8.339963
 40
8.856056
 40
9.379647
 40
9.379647
 40
9.379647
 40
9.379647
 10
72.830000
 20
-34.140000
 30
0.0
 10
72.812144
 20
-33.964572
 30
0.0
 10
72.776688
 20
-33.616226
 30
0.0
 10
72.500640
 20
-33.155817
 30
0.0
 10
72.096334
 20
-32.813498
 30
0.0
 10
71.595612
 20
-32.631937
 30
0.0
 10
71.064273
 20
-32.631937
 30
0.0
 10
70.564250
 20
-32.813498
 30
0.0
 10
70.157155
 20
-33.155817
 30
0.0
 10
69.891470
 20
-33.616226
 30
0.0
 10
69.799043
 20
-34.140000
 30
0.0
 10
69.891470
 20
-34.663774
 30
0.0
 10
70.157155
 20
-35.124183
 30
0.0
 10
70.564250
 20
-35.466502
 30
0.0
 10
71.064273
 20
-35.648064
 30
0.0
 10
71.595612
 20
-35.648064
 30
0.0
 10
72.096334
 20
-35.466502
 30
0.0
 10
72.500640
 20
-35.124183
 30
0.0
 10
72.776688
 20
-34.663774
 30
0.0
 10
72.812144
 20
-34.315429
 30
0.0
 10
72.830000
 20
-34.140000
 30
0.0
 11
72.830000
 21
-34.140000
 31
0.0
 11
72.738862
 21
-33.624402
 31
0.0
 11
72.480945
 21
-33.177378
 31
0.0
 11
72.080188
 21
-32.840420
 31
0.0
 11
71.588047
 21
-32.661691
 31
0.0
 11
71.071953
 21
-32.661691
 31
0.0
 11
70.579812
 21
-32.840420
 31
0.0
 11
70.179055
 21
-33.177378
 31
0.0
 11
69.921138
 21
-33.624402
 31
0.0
 11
69.830000
 21
-34.140000
 31
0.0
 11
69.921138
 21
-34.655598
 31
0.0
 11
70.179055
 21
-35.102622
 31
0.0
 11
70.579812
 21
-35.439580
 31
0.0
 11
71.071953
 21
-35.618310
 31
0.0
 11
71.588047
 21
-35.618310
 31
0.0
 11
72.080188
 21
-35.439580
 31
0.0
 11
72.480945
 21
-35.102622
 31
0.0
 11
72.738862
 21
-34.655598
 31
0.0
 11
72.830000
 21
-34.140000
 31
0.0
  0
LINE
  5
102
100
AcDbEntity
  8
0
 62
7
100
AcDbLine
 10
72.830000
 20
18.400000
 30
0.0
 11
72.830000
 21
18.400000
 31
0.0
  0
SPLINE
  5
103
100
AcDbEntity
  8
0
 62
7
100
AcDbSpline
 70
0
 71
3
 72
25
 73
21
 74
19
 40
0.000000
 40
0.000000
 40
0.000000
 40
0.000000
 40
0.523591
 40
1.039684
 40
1.563274
 40
2.086865
 40
2.602958
 40
3.126549
 40
3.650140
 40
4.166233
 40
4.689823
 40
5.213414
 40
5.729507
 40
6.253098
 40
6.776689
 40
7.292782
 40
7.816372
 40
8.339963
 40
8.856056
 40
9.379647
 40
9.379647
 40
9.379647
 40
9.379647
 10
72.830000
 20
18.400000
 30
0.0
 10
72.812144
 20
18.575429
 30
0.0
 10
72.776688
 20
18.923774
 30
0.0
 10
72.500640
 20
19.384183
 30
0.0
 10
72.096334
 20
19.726502
 30
0.0
 10
71.595612
 20
19.908064
 30
0.0
 10
71.064273
 20
19.908064
 30
0.0
 10
70.564250
 20
19.726502
 30
0.0
 10
70.157155
 20
19.384183
 30
0.0
 10
69.891470
 20
18.923774
 30
0.0
 10
69.799043
 20
18.400000
 30
0.0
 10
69.891470
 20
17.876226
 30
0.0
 10
70.157155
 20
17.415817
 30
0.0
 10
70.564250
 20
17.073498
 30
0.0
 10
71.064273
 20
16.891937
 30
0.0
 10
71.595612
 20
16.891937
 30
0.0
 10
72.096334
 20
17.073498
 30
0.0
 10
72.500640
 20
17.415817
 30
0.0
 10
72.776688
 20
17.876226
 30
0.0
 10
72.812144
 20
18.224571
 30
0.0
 10
72.830000
 20
18.400000
 30
0.0
 11
72.830000
 21
18.400000
 31
0.0
 11
72.738862
 21
18.915598
 31
0.0
 11
72.480945
 21
19.362622
 31
0.0
 11
72.080188
 21
19.699580
 31
0.0
 11
71.588047
 21
19.878310
 31
0.0
 11
71.071953
 21
19.878310
 31
0.0
 11
70.579812
 21
19.699580
 31
0.0
 11
70.179055
 21
19.362622
 31
0.0
 11
69.921138
 21
18.915598
 31
0.0
 11
69.830000
 21
18.400000
 31
0.0
 11
69.921138
 21
17.884402
 31
0.0
 11
70.179055
 21
17.437378
 31
0.0
 11
70.579812
 21
17.100420
 31
0.0
 11
71.071953
 21
16.921690
 31
0.0
 11
71.588047
 21
16.921690
 31
0.0
 11
72.080188
 21
17.100420
 31
0.0
 11
72.480945
 21
17.437378
 31
0.0
 11
72.738862
 21
17.884402
 31
0.0
 11
72.830000
 21
18.400000
 31
0.0
  0
LINE
  5
104
100
AcDbEntity
  8
0
 62
7
100
AcDbLine
 10
-69.830000
 20
-34.140000
 30
0.0
 11
-69.830000
 21
-34.140000
 31
0.0
  0
SPLINE
  5
105
100
AcDbEntity
  8
0
 62
7
100
AcDbSpline
 70
0
 71
3
 72
25
 73
21
 74
19
 40
0.000000
 40
0.000000
 40
0.000000
 40
0.000000
 40
0.523591
 40
1.039684
 40
1.563274
 40
2.086865
 40
2.602958
 40
3.126549
 40
3.650140
 40
4.166233
 40
4.689823
 40
5.213414
 40
5.729507
 40
6.253098
 40
6.776689
 40
7.292782
 40
7.816372
 40
8.339963
 40
8.856056
 40
9.379647
 40
9.379647
 40
9.379647
 40
9.379647
 10
-69.830000
 20
-34.140000
 30
0.0
 10
-69.847856
 20
-33.964572
 30
0.0
 10
-69.883312
 20
-33.616226
 30
0.0
 10
-70.159360
 20
-33.155817
 30
0.0
 10
-70.563666
 20
-32.813498
 30
0.0
 10
-71.064388
 20
-32.631937
 30
0.0
 10
-71.595727
 20
-32.631937
 30
0.0
 10
-72.095750
 20
-32.813498
 30
0.0
 10
-72.502845
 20
-33.155817
 30
0.0
 10
-72.768530
 20
-33.616226
 30
0.0
 10
-72.860957
 20
-34.140000
 30
0.0
 10
-72.768530
 20
-34.663774
 30
0.0
 10
-72.502845
 20
-35.124183
 30
0.0
 10
-72.095750
 20
-35.466502
 30
0.0
 10
-71.595727
 20
-35.648064
 30
0.0
 10
-71.064388
 20
-35.648064
 30
0.0
 10
-70.563666
 20
-35.466502
 30
0.0
 10
-70.159360
 20
-35.124183
 30
0.0
 10
-69.883312
 20
-34.663774
 30
0.0
 10
-69.847856
 20
-34.315429
 30
0.0
 10
-69.830000
 20
-34.140000
 30
0.0
 11
-69.830000
 21
-34.140000
 31
0.0
 11
-69.921138
 21
-33.624402
 31
0.0
 11
-70.179055
 21
-33.177378
 31
0.0
 11
-70.579812
 21
-32.840420
 31
0.0
 11
-71.071953
 21
-32.661691
 31
0.0
 11
-71.588047
 21
-32.661691
 31
0.0
 11
-72.080188
 21
-32.840420
 31
0.0
 11
-72.480945
 21
-33.177378
 31
0.0
 11
-72.738862
 21
-33.624402
 31
0.0
 11
-72.830000
 21
-34.140000
 31
0.0
 11
-72.738862
 21
-34.655598
 31
0.0
 11
-72.480945
 21
-35.102622
 31
0.0
 11
-72.080188
 21
-35.439580
 31
0.0
 11
-71.588047
 21
-35.618310
 31
0.0
 11
-71.071953
 21
-35.618310
 31
0.0
 11
-70.579812
 21
-35.439580
 31
0.0
 11
-70.179055
 21
-35.102622
 31
0.0
 11
-69.921138
 21
-34.655598
 31
0.0
 11
-69.830000
 21
-34.140000
 31
0.0
  0
LINE
  5
106
100
AcDbEntity
  8
0
 62
7
100
AcDbLine
 10
-69.830000
 20
18.400000
 30
0.0
 11
-69.830000
 21
18.400000
 31
0.0
  0
SPLINE
  5
107
100
AcDbEntity
  8
0
 62
7
100
AcDbSpline
 70
0
 71
3
 72
25
 73
21
 74
19
 40
0.000000
 40
0.000000
 40
0.000000
 40
0.000000
 40
0.523591
 40
1.039684
 40
1.563274
 40
2.086865
 40
2.602958
 40
3.126549
 40
3.650140
 40
4.166233
 40
4.689823
 40
5.213414
 40
5.729507
 40
6.253098
 40
6.776689
 40
7.292782
 40
7.816372
 40
8.339963
 40
8.856056
 40
9.379647
 40
9.379647
 40
9.379647
 40
9.379647
 10
-69.830000
 20
18.400000
 30
0.0
 10
-69.847856
 20
18.575429
 30
0.0
 10
-69.883312
 20
18.923774
 30
0.0
 10
-70.159360
 20
19.384183
 30
0.0
 10
-70.563666
 20
19.726502
 30
0.0
 10
-71.064388
 20
19.908064
 30
0.0
 10
-71.595727
 20
19.908064
 30
0.0
 10
-72.095750
 20
19.726502
 30
0.0
 10
-72.502845
 20
19.384183
 30
0.0
 10
-72.768530
 20
18.923774
 30
0.0
 10
-72.860957
 20
18.400000
 30
0.0
 10
-72.768530
 20
17.876226
 30
0.0
 10
-72.502845
 20
17.415817
 30
0.0
 10
-72.095750
 20
17.073498
 30
0.0
 10
-71.595727
 20
16.891937
 30
0.0
 10
-71.064388
 20
16.891937
 30
0.0
 10
-70.563666
 20
17.073498
 30
0.0
 10
-70.159360
 20
17.415817
 30
0.0
 10
-69.883312
 20
17.876226
 30
0.0
 10
-69.847856
 20
18.224571
 30
0.0
 10
-69.830000
 20
18.400000
 30
0.0
 11
-69.830000
 21
18.400000
 31
0.0
 11
-69.921138
 21
18.915598
 31
0.0
 11
-70.179055
 21
19.362622
 31
0.0
 11
-70.579812
 21
19.699580
 31
0.0
 11
-71.071953
 21
19.878310
 31
0.0
 11
-71.588047
 21
19.878310
 31
0.0
 11
-72.080188
 21
19.699580
 31
0.0
 11
-72.480945
 21
19.362622
 31
0.0
 11
-72.738862
 21
18.915598
 31
0.0
 11
-72.830000
 21
18.400000
 31
0.0
 11
-72.738862
 21
17.884402
 31
0.0
 11
-72.480945
 21
17.437378
 31
0.0
 11
-72.080188
 21
17.100420
 31
0.0
 11
-71.588047
 21
16.921690
 31
0.0
 11
-71.071953
 21
16.921690
 31
0.0
 11
-70.579812
 21
17.100420
 31
0.0
 11
-70.179055
 21
17.437378
 31
0.0
 11
-69.921138
 21
17.884402
 31
0.0
 11
-69.830000
 21
18.400000
 31
0.0
  0
LINE
  5
108
100
AcDbEntity
  8
0
 62
7
100
AcDbLine
 10
-69.830000
 20
-18.400000
 30
0.0
 11
-69.830000
 21
-18.400000
 31
0.0
  0
SPLINE
  5
109
100
AcDbEntity
  8
0
 62
7
100
AcDbSpline
 70
0
 71
3
 72
25
 73
21
 74
19
 40
0.000000
 40
0.000000
 40
0.000000
 40
0.000000
 40
0.523591
 40
1.039684
 40
1.563274
 40
2.086865
 40
2.602958
 40
3.126549
 40
3.650140
 40
4.166233
 40
4.689823
 40
5.213414
 40
5.729507
 40
6.253098
 40
6.776689
 40
7.292782
 40
7.816372
 40
8.339963
 40
8.856056
 40
9.379647
 40
9.379647
 40
9.379647
 40
9.379647
 10
-69.830000
 20
-18.400000
 30
0.0
 10
-69.847856
 20
-18.224571
 30
0.0
 10
-69.883312
 20
-17.876226
 30
0.0
 10
-70.159360
 20
-17.415817
 30
0.0
 10
-70.563666
 20
-17.073498
 30
0.0
 10
-71.064388
 20
-16.891936
 30
0.0
 10
-71.595727
 20
-16.891936
 30
0.0
 10
-72.095750
 20
-17.073498
 30
0.0
 10
-72.502845
 20
-17.415817
 30
0.0
 10
-72.768530
 20
-17.876226
 30
0.0
 10
-72.860957
 20
-18.400000
 30
0.0
 10
-72.768530
 20
-18.923774
 30
0.0
 10
-72.502845
 20
-19.384183
 30
0.0
 10
-72.095750
 20
-19.726502
 30
0.0
 10
-71.595727
 20
-19.908063
 30
0.0
 10
-71.064388
 20
-19.908063
 30
0.0
 10
-70.563666
 20
-19.726502
 30
0.0
 10
-70.159360
 20
-19.384183
 30
0.0
 10
-69.883312
 20
-18.923774
 30
0.0
 10
-69.847856
 20
-18.575429
 30
0.0
 10
-69.830000
 20
-18.400000
 30
0.0
 11
-69.830000
 21
-18.400000
 31
0.0
 11
-69.921138
 21
-17.884402
 31
0.0
 11
-70.179055
 21
-17.437378
 31
0.0
 11
-70.579812
 21
-17.100420
 31
0.0
 11
-71.071953
 21
-16.921690
 31
0.0
 11
-71.588047
 21
-16.921690
 31
0.0
 11
-72.080188
 21
-17.100420
 31
0.0
 11
-72.480945
 21
-17.437378
 31
0.0
 11
-72.738862
 21
-17.884402
 31
0.0
 11
-72.830000
 21
-18.400000
 31
0.0
 11
-72.738862
 21
-18.915598
 31
0.0
 11
-72.480945
 21
-19.362622
 31
0.0
 11
-72.080188
 21
-19.699580
 31
0.0
 11
-71.588047
 21
-19.878310
 31
0.0
 11
-71.071953
 21
-19.878310
 31
0.0
 11
-70.579812
 21
-19.699580
 31
0.0
 11
-70.179055
 21
-19.362622
 31
0.0
 11
-69.921138
 21
-18.915598
 31
0.0
 11
-69.830000
 21
-18.400000
 31
0.0
  0
LINE
  5
10a
100
AcDbEntity
  8
0
 62
7
100
AcDbLine
 10
-69.830000
 20
34.140000
 30
0.0
 11
-69.830000
 21
34.140000
 31
0.0
  0
SPLINE
  5
10b
100
AcDbEntity
  8
0
 62
7
100
AcDbSpline
 70
0
 71
3
 72
25
 73
21
 74
19
 40
0.000000
 40
0.000000
 40
0.000000
 40
0.000000
 40
0.523591
 40
1.039684
 40
1.563274
 40
2.086865
 40
2.602958
 40
3.126549
 40
3.650140
 40
4.166233
 40
4.689823
 40
5.213414
 40
5.729507
 40
6.253098
 40
6.776689
 40
7.292782
 40
7.816372
 40
8.339963
 40
8.856056
 40
9.379647
 40
9.379647
 40
9.379647
 40
9.379647
 10
-69.830000
 20
34.140000
 30
0.0
 10
-69.847856
 20
34.315429
 30
0.0
 10
-69.883312
 20
34.663774
 30
0.0
 10
-70.159360
 20
35.124183
 30
0.0
 10
-70.563666
 20
35.466502
 30
0.0
 10
-71.064388
 20
35.648063
 30
0.0
 10
-71.595727
 20
35.648063
 30
0.0
 10
-72.095750
 20
35.466502
 30
0.0
 10
-72.502845
 20
35.124183
 30
0.0
 10
-72.768530
 20
34.663774
 30
0.0
 10
-72.860957
 20
34.140000
 30
0.0
 10
-72.768530
 20
33.616226
 30
0.0
 10
-72.502845
 20
33.155817
 30
0.0
 10
-72.095750
 20
32.813498
 30
0.0
 10
-71.595727
 20
32.631936
 30
0.0
 10
-71.064388
 20
32.631936
 30
0.0
 10
-70.563666
 20
32.813498
 30
0.0
 10
-70.159360
 20
33.155817
 30
0.0
 10
-69.883312
 20
33.616226
 30
0.0
 10
-69.847856
 20
33.964571
 30
0.0
 10
-69.830000
 20
34.140000
 30
0.0
 11
-69.830000
 21
34.140000
 31
0.0
 11
-69.921138
 21
34.655598
 31
0.0
 11
-70.179055
 21
35.102622
 31
0.0
 11
-70.579812
 21
35.439580
 31
0.0
 11
-71.071953
 21
35.618310
 31
0.0
 11
-71.588047
 21
35.618310
 31
0.0
 11
-72.080188
 21
35.439580
 31
0.0
 11
-72.480945
 21
35.102622
 31
0.0
 11
-72.738862
 21
34.655598
 31
0.0
 11
-72.830000
 21
34.140000
 31
0.0
 11
-72.738862
 21
33.624402
 31
0.0
 11
-72.480945
 21
33.177378
 31
0.0
 11
-72.080188
 21
32.840420
 31
0.0
 11
-71.588047
 21
32.661690
 31
0.0
 11
-71.071953
 21
32.661690
 31
0.0
 11
-70.579812
 21
32.840420
 31
0.0
 11
-70.179055
 21
33.177378
 31
0.0
 11
-69.921138
 21
33.624402
 31
0.0
 11
-69.830000
 21
34.140000
 31
0.0
  0
LINE
  5
10c
100
AcDbEntity
  8
0
 62
7
100
AcDbLine
 10
72.830000
 20
34.140000
 30
0.0
 11
72.830000
 21
34.140000
 31
0.0
  0
SPLINE
  5
10d
100
AcDbEntity
  8
0
 62
7
100
AcDbSpline
 70
0
 71
3
 72
25
 73
21
 74
19
 40
0.000000
 40
0.000000
 40
0.000000
 40
0.000000
 40
0.523591
 40
1.039684
 40
1.563274
 40
2.086865
 40
2.602958
 40
3.126549
 40
3.650140
 40
4.166233
 40
4.689823
 40
5.213414
 40
5.729507
 40
6.253098
 40
6.776689
 40
7.292782
 40
7.816372
 40
8.339963
 40
8.856056
 40
9.379647
 40
9.379647
 40
9.379647
 40
9.379647
 10
72.830000
 20
34.140000
 30
0.0
 10
72.812144
 20
34.315429
 30
0.0
 10
72.776688
 20
34.663774
 30
0.0
 10
72.500640
 20
35.124183
 30
0.0
 10
72.096334
 20
35.466502
 30
0.0
 10
71.595612
 20
35.648063
 30
0.0
 10
71.064273
 20
35.648063
 30
0.0
 10
70.564250
 20
35.466502
 30
0.0
 10
70.157155
 20
35.124183
 30
0.0
 10
69.891470
 20
34.663774
 30
0.0
 10
69.799043
 20
34.140000
 30
0.0
 10
69.891470
 20
33.616226
 30
0.0
 10
70.157155
 20
33.155817
 30
0.0
 10
70.564250
 20
32.813498
 30
0.0
 10
71.064273
 20
32.631936
 30
0.0
 10
71.595612
 20
32.631936
 30
0.0
 10
72.096334
 20
32.813498
 30
0.0
 10
72.500640
 20
33.155817
 30
0.0
 10
72.776688
 20
33.616226
 30
0.0
 10
72.812144
 20
33.964571
 30
0.0
 10
72.830000
 20
34.140000
 30
0.0
 11
72.830000
 21
34.140000
 31
0.0
 11
72.738862
 21
34.655598
 31
0.0
 11
72.480945
 21
35.102622
 31
0.0
 11
72.080188
 21
35.439580
 31
0.0
 11
71.588047
 21
35.618310
 31
0.0
 11
71.071953
 21
35.618310
 31
0.0
 11
70.579812
 21
35.439580
 31
0.0
 11
70.179055
 21
35.102622
 31
0.0
 11
69.921138
 21
34.655598
 31
0.0
 11
69.830000
 21
34.140000
 31
0.0
 11
69.921138
 21
33.624402
 31
0.0
 11
70.179055
 21
33.177378
 31
0.0
 11
70.579812
 21
32.840420
 31
0.0
 11
71.071953
 21
32.661690
 31
0.0
 11
71.588047
 21
32.661690
 31
0.0
 11
72.080188
 21
32.840420
 31
0.0
 11
72.480945
 21
33.177378
 31
0.0
 11
72.738862
 21
33.624402
 31
0.0
 11
72.830000
 21
34.140000
 31
0.0
  0
LINE
  5
10e
100
AcDbEntity
  8
0
 62
7
100
AcDbLine
 10
72.830000
 20
-18.400000
 30
0.0
 11
72.830000
 21
-18.400000
 31
0.0
  0
SPLINE
  5
10f
100
AcDbEntity
  8
0
 62
7
100
AcDbSpline
 70
0
 71
3
 72
25
 73
21
 74
19
 40
0.000000
 40
0.000000
 40
0.000000
 40
0.000000
 40
0.523591
 40
1.039684
 40
1.563274
 40
2.086865
 40
2.602958
 40
3.126549
 40
3.650140
 40
4.166233
 40
4.689823
 40
5.213414
 40
5.729507
 40
6.253098
 40
6.776689
 40
7.292782
 40
7.816372
 40
8.339963
 40
8.856056
 40
9.379647
 40
9.379647
 40
9.379647
 40
9.379647
 10
72.830000
 20
-18.400000
 30
0.0
 10
72.812144
 20
-18.224571
 30
0.0
 10
72.776688
 20
-17.876226
 30
0.0
 10
72.500640
 20
-17.415817
 30
0.0
 10
72.096334
 20
-17.073498
 30
0.0
 10
71.595612
 20
-16.891936
 30
0.0
 10
71.064273
 20
-16.891936
 30
0.0
 10
70.564250
 20
-17.073498
 30
0.0
 10
70.157155
 20
-17.415817
 30
0.0
 10
69.891470
 20
-17.876226
 30
0.0
 10
69.799043
 20
-18.400000
 30
0.0
 10
69.891470
 20
-18.923774
 30
0.0
 10
70.157155
 20
-19.384183
 30
0.0
 10
70.564250
 20
-19.726502
 30
0.0
 10
71.064273
 20
-19.908063
 30
0.0
 10
71.595612
 20
-19.908063
 30
0.0
 10
72.096334
 20
-19.726502
 30
0.0
 10
72.500640
 20
-19.384183
 30
0.0
 10
72.776688
 20
-18.923774
 30
0.0
 10
72.812144
 20
-18.575429
 30
0.0
 10
72.830000
 20
-18.400000
 30
0.0
 11
72.830000
 21
-18.400000
 31
0.0
 11
72.738862
 21
-17.884402
 31
0.0
 11
72.480945
 21
-17.437378
 31
0.0
 11
72.080188
 21
-17.100420
 31
0.0
 11
71.588047
 21
-16.921690
 31
0.0
 11
71.071953
 21
-16.921690
 31
0.0
 11
70.579812
 21
-17.100420
 31
0.0
 11
70.179055
 21
-17.437378
 31
0.0
 11
69.921138
 21
-17.884402
 31
0.0
 11
69.830000
 21
-18.400000
 31
0.0
 11
69.921138
 21
-18.915598
 31
0.0
 11
70.179055
 21
-19.362622
 31
0.0
 11
70.579812
 21
-19.699580
 31
0.0
 11
71.071953
 21
-19.878310
 31
0.0
 11
71.588047
 21
-19.878310
 31
0.0
 11
72.080188
 21
-19.699580
 31
0.0
 11
72.480945
 21
-19.362622
 31
0.0
 11
72.738862
 21
-18.915598
 31
0.0
 11
72.830000
 21
-18.400000
 31
0.0
  0
LINE
  5
110
100
AcDbEntity
  8
0
 62
7
100
AcDbLine
 10
-82.397006
 20
-33.020000
 30
0.0
 11
-82.397006
 21
-33.020000
 31
0.0
  0
SPLINE
  5
111
100
AcDbEntity
  8
0
 62
7
100
AcDbSpline
 70
0
 71
3
 72
25
 73
21
 74
19
 40
0.000000
 40
0.000000
 40
0.000000
 40
0.000000
 40
0.523591
 40
1.039684
 40
1.563274
 40
2.086865
 40
2.602958
 40
3.126549
 40
3.650140
 40
4.166233
 40
4.689823
 40
5.213414
 40
5.729507
 40
6.253098
 40
6.776689
 40
7.292782
 40
7.816372
 40
8.339963
 40
8.856056
 40
9.379647
 40
9.379647
 40
9.379647
 40
9.379647
 10
-82.397006
 20
-33.020000
 30
0.0
 10
-82.414862
 20
-32.844571
 30
0.0
 10
-82.450318
 20
-32.496226
 30
0.0
 10
-82.726366
 20
-32.035817
 30
0.0
 10
-83.130671
 20
-31.693498
 30
0.0
 10
-83.631393
 20
-31.511936
 30
0.0
 10
-84.162732
 20
-31.511936
 30
0.0
 10
-84.662756
 20
-31.693498
 30
0.0
 10
-85.069850
 20
-32.035817
 30
0.0
 10
-85.335535
 20
-32.496226
 30
0.0
 10
-85.427962
 20
-33.020000
 30
0.0
 10
-85.335535
 20
-33.543774
 30
0.0
 10
-85.069850
 20
-34.004182
 30
0.0
 10
-84.662756
 20
-34.346502
 30
0.0
 10
-84.162732
 20
-34.528063
 30
0.0
 10
-83.631393
 20
-34.528063
 30
0.0
 10
-83.130671
 20
-34.346502
 30
0.0
 10
-82.726366
 20
-34.004182
 30
0.0
 10
-82.450318
 20
-33.543774
 30
0.0
 10
-82.414862
 20
-33.195428
 30
0.0
 10
-82.397006
 20
-33.020000
 30
0.0
 11
-82.397006
 21
-33.020000
 31
0.0
 11
-82.488143
 21
-32.504402
 31
0.0
 11
-82.746061
 21
-32.057378
 31
0.0
 11
-83.146818
 21
-31.720419
 31
0.0
 11
-83.638959
 21
-31.541690
 31
0.0
 11
-84.155052
 21
-31.541690
 31
0.0
 11
-84.647193
 21
-31.720419
 31
0.0
 11
-85.047951
 21
-32.057378
 31
0.0
 11
-85.305868
 21
-32.504402
 31
0.0
 11
-85.397006
 21
-33.020000
 31
0.0
 11
-85.305868
 21
-33.535598
 31
0.0
 11
-85.047951
 21
-33.982622
 31
0.0
 11
-84.647193
 21
-34.319580
 31
0.0
 11
-84.155052
 21
-34.498309
 31
0.0
 11
-83.638959
 21
-34.498309
 31
0.0
 11
-83.146818
 21
-34.319580
 31
0.0
 11
-82.746061
 21
-33.982622
 31
0.0
 11
-82.488143
 21
-33.535598
 31
0.0
 11
-82.397006
 21
-33.020000
 31
0.0
  0
LINE
  5
112
100
AcDbEntity
  8
0
 62
7
100
AcDbLine
 10
1.500000
 20
59.020000
 30
0.0
 11
1.500000
 21
59.020000
 31
0.0
  0
SPLINE
  5
113
100
AcDbEntity
  8
0
 62
7
100
AcDbSpline
 70
0
 71
3
 72
25
 73
21
 74
19
 40
0.000000
 40
0.000000
 40
0.000000
 40
0.000000
 40
0.523446
 40
1.039401
 40
1.562847
 40
2.086294
 40
2.602248
 40
3.125695
 40
3.649141
 40
4.165096
 40
4.688542
 40
5.211988
 40
5.727943
 40
6.251389
 40
6.774835
 40
7.290790
 40
7.814237
 40
8.337683
 40
8.853638
 40
9.377084
 40
9.377084
 40
9.377084
 40
9.377084
 10
1.500000
 20
59.020000
 30
0.0
 10
1.482078
 20
59.195372
 30
0.0
 10
1.446491
 20
59.543606
 30
0.0
 10
1.170391
 20
60.003803
 30
0.0
 10
0.766134
 20
60.345947
 30
0.0
 10
0.265537
 20
60.527409
 30
0.0
 10
-0.265652
 20
60.527409
 30
0.0
 10
-0.765547
 20
60.345947
 30
0.0
 10
-1.172604
 20
60.003803
 30
0.0
 10
-1.438303
 20
59.543606
 30
0.0
 10
-1.531071
 20
59.020000
 30
0.0
 10
-1.438303
 20
58.496394
 30
0.0
 10
-1.172604
 20
58.036197
 30
0.0
 10
-0.765547
 20
57.694053
 30
0.0
 10
-0.265652
 20
57.512591
 30
0.0
 10
0.265537
 20
57.512591
 30
0.0
 10
0.766134
 20
57.694053
 30
0.0
 10
1.170391
 20
58.036197
 30
0.0
 10
1.446491
 20
58.496394
 30
0.0
 10
1.482078
 20
58.844628
 30
0.0
 10
1.500000
 20
59.020000
 30
0.0
 11
1.500000
 21
59.020000
 31
0.0
 11
1.408689
 21
59.535421
 31
0.0
 11
1.150712
 21
59.982251
 31
0.0
 11
0.750000
 21
60.319038
 31
0.0
 11
0.257977
 21
60.497671
 31
0.0
 11
-0.257977
 21
60.497671
 31
0.0
 11
-0.750000
 21
60.319038
 31
0.0
 11
-1.150712
 21
59.982251
 31
0.0
 11
-1.408689
 21
59.535421
 31
0.0
 11
-1.500000
 21
59.020000
 31
0.0
 11
-1.408689
 21
58.504580
 31
0.0
 11
-1.150712
 21
58.057750
 31
0.0
 11
-0.750000
 21
57.720962
 31
0.0
 11
-0.257977
 21
57.542329
 31
0.0
 11
0.257977
 21
57.542329
 31
0.0
 11
0.750000
 21
57.720962
 31
0.0
 11
1.150712
 21
58.057750
 31
0.0
 11
1.408689
 21
58.504580
 31
0.0
 11
1.500000
 21
59.020000
 31
0.0
  0
LINE
  5
114
100
AcDbEntity
  8
0
 62
7
100
AcDbLine
 10
85.402994
 20
-33.020000
 30
0.0
 11
85.402994
 21
-33.020000
 31
0.0
  0
LINE
  5
115
100
AcDbEntity
  8
0
 62
7
100
AcDbLine
 10
105.000000
 20
-60.800000
 30
0.0
 11
-105.000000
 21
-60.800000
 31
0.0
  0
SPLINE
  5
116
100
AcDbEntity
  8
0
 62
7
100
AcDbSpline
 70
0
 71
3
 72
25
 73
21
 74
19
 40
0.000000
 40
0.000000
 40
0.000000
 40
0.000000
 40
0.523591
 40
1.039684
 40
1.563274
 40
2.086865
 40
2.602958
 40
3.126549
 40
3.650140
 40
4.166233
 40
4.689823
 40
5.213414
 40
5.729507
 40
6.253098
 40
6.776689
 40
7.292782
 40
7.816372
 40
8.339963
 40
8.856056
 40
9.379647
 40
9.379647
 40
9.379647
 40
9.379647
 10
85.402994
 20
-33.020000
 30
0.0
 10
85.385138
 20
-32.844571
 30
0.0
 10
85.349682
 20
-32.496226
 30
0.0
 10
85.073634
 20
-32.035817
 30
0.0
 10
84.669329
 20
-31.693498
 30
0.0
 10
84.168607
 20
-31.511936
 30
0.0
 10
83.637268
 20
-31.511936
 30
0.0
 10
83.137244
 20
-31.693498
 30
0.0
 10
82.730150
 20
-32.035817
 30
0.0
 10
82.464464
 20
-32.496226
 30
0.0
 10
82.372038
 20
-33.020000
 30
0.0
 10
82.464464
 20
-33.543774
 30
0.0
 10
82.730150
 20
-34.004182
 30
0.0
 10
83.137244
 20
-34.346502
 30
0.0
 10
83.637268
 20
-34.528063
 30
0.0
 10
84.168607
 20
-34.528063
 30
0.0
 10
84.669329
 20
-34.346502
 30
0.0
 10
85.073634
 20
-34.004182
 30
0.0
 10
85.349682
 20
-33.543774
 30
0.0
 10
85.385138
 20
-33.195428
 30
0.0
 10
85.402994
 20
-33.020000
 30
0.0
 11
85.402994
 21
-33.020000
 31
0.0
 11
85.311857
 21
-32.504402
 31
0.0
 11
85.053939
 21
-32.057378
 31
0.0
 11
84.653182
 21
-31.720419
 31
0.0
 11
84.161041
 21
-31.541690
 31
0.0
 11
83.644948
 21
-31.541690
 31
0.0
 11
83.152806
 21
-31.720419
 31
0.0
 11
82.752049
 21
-32.057378
 31
0.0
 11
82.494132
 21
-32.504402
 31
0.0
 11
82.402994
 21
-33.020000
 31
0.0
 11
82.494132
 21
-33.535598
 31
0.0
 11
82.752049
 21
-33.982622
 31
0.0
 11
83.152806
 21
-34.319580
 31
0.0
 11
83.644948
 21
-34.498309
 31
0.0
 11
84.161041
 21
-34.498309
 31
0.0
 11
84.653182
 21
-34.319580
 31
0.0
 11
85.053939
 21
-33.982622
 31
0.0
 11
85.311857
 21
-33.535598
 31
0.0
 11
85.402994
 21
-33.020000
 31
0.0
  0
LINE
  5
117
100
AcDbEntity
  8
0
 62
7
100
AcDbLine
 10
110.000000
 20
-55.800000
 30
0.0
 11
110.000000
 21
83.800000
 31
0.0
  0
LINE
  5
118
100
AcDbEntity
  8
0
 62
7
100
AcDbLine
 10
110.000000
 20
83.800000
 30
0.0
 11
90.000000
 21
83.800000
 31
0.0
  0
LINE
  5
119
100
AcDbEntity
  8
0
 62
7
100
AcDbLine
 10
90.000000
 20
83.800000
 30
0.0
 11
90.000000
 21
103.800000
 31
0.0
  0
LINE
  5
11a
100
AcDbEntity
  8
0
 62
7
100
AcDbLine
 10
90.000000
 20
103.800000
 30
0.0
 11
-90.000000
 21
103.800000
 31
0.0
  0
LINE
  5
11b
100
AcDbEntity
  8
0
 62
7
100
AcDbLine
 10
-90.000000
 20
103.800000
 30
0.0
 11
-90.000000
 21
83.800000
 31
0.0
  0
LINE
  5
11c
100
AcDbEntity
  8
0
 62
7
100
AcDbLine
 10
-90.000000
 20
83.800000
 30
0.0
 11
-110.000000
 21
83.800000
 31
0.0
  0
LINE
  5
11d
100
AcDbEntity
  8
0
 62
7
100
AcDbLine
 10
-110.000000
 20
83.800000
 30
0.0
 11
-110.000000
 21
-55.800000
 31
0.0
  0
SPLINE
  5
11e
100
AcDbEntity
  8
0
 62
7
100
AcDbSpline
 70
0
 71
3
 72
13
 73
9
 74
7
 40
0.000000
 40
0.000000
 40
0.000000
 40
0.000000
 40
1.308874
 40
2.606918
 40
3.915792
 40
5.224666
 40
6.522710
 40
7.831584
 40
7.831584
 40
7.831584
 40
7.831584
 10
105.000000
 20
-60.800000
 30
0.0
 10
105.437566
 20
-60.766669
 30
0.0
 10
106.309078
 20
-60.700282
 30
0.0
 10
107.528283
 20
-60.175656
 30
0.0
 10
108.577490
 20
-59.377490
 30
0.0
 10
109.375656
 20
-58.328283
 30
0.0
 10
109.900282
 20
-57.109078
 30
0.0
 10
109.966669
 20
-56.237566
 30
0.0
 10
110.000000
 20
-55.800000
 30
0.0
 11
105.000000
 21
-60.800000
 31
0.0
 11
106.297616
 21
-60.628698
 31
0.0
 11
107.496852
 21
-60.131958
 31
0.0
 11
108.535534
 21
-59.335534
 31
0.0
 11
109.331958
 21
-58.296852
 31
0.0
 11
109.828698
 21
-57.097616
 31
0.0
 11
110.000000
 21
-55.800000
 31
0.0
  0
SPLINE
  5
11f
100
AcDbEntity
  8
0
 62
7
100
AcDbSpline
 70
0
 71
3
 72
13
 73
9
 74
7
 40
0.000000
 40
0.000000
 40
0.000000
 40
0.000000
 40
1.308874
 40
2.606918
 40
3.915792
 40
5.224666
 40
6.522710
 40
7.831584
 40
7.831584
 40
7.831584
 40
7.831584
 10
-110.000000
 20
-55.800000
 30
0.0
 10
-109.966669
 20
-56.237566
 30
0.0
 10
-109.900282
 20
-57.109078
 30
0.0
 10
-109.375656
 20
-58.328283
 30
0.0
 10
-108.577490
 20
-59.377490
 30
0.0
 10
-107.528283
 20
-60.175656
 30
0.0
 10
-106.309078
 20
-60.700282
 30
0.0
 10
-105.437566
 20
-60.766669
 30
0.0
 10
-105.000000
 20
-60.800000
 30
0.0
 11
-110.000000
 21
-55.800000
 31
0.0
 11
-109.828698
 21
-57.097616
 31
0.0
 11
-109.331958
 21
-58.296852
 31
0.0
 11
-108.535534
 21
-59.335534
 31
0.0
 11
-107.496852
 21
-60.131958
 31
0.0
 11
-106.297616
 21
-60.628698
 31
0.0
 11
-105.000000
 21
-60.800000
 31
0.0
  0
LINE
  5
120
100
AcDbEntity
  8
0
 62
7
100
AcDbLine
 10
85.561165
 20
8.838835
 30
0.0
 11
85.561165
 21
8.838835
 31
0.0
  0
SPLINE
  5
121
100
AcDbEntity
  8
0
 62
7
100
AcDbSpline
 70
0
 71
3
 72
25
 73
21
 74
19
 40
0.000000
 40
0.000000
 40
0.000000
 40
0.000000
 40
0.523591
 40
1.039684
 40
1.563274
 40
2.086865
 40
2.602958
 40
3.126549
 40
3.650140
 40
4.166233
 40
4.689823
 40
5.213414
 40
5.729507
 40
6.253098
 40
6.776689
 40
7.292782
 40
7.816372
 40
8.339963
 40
8.856056
 40
9.379647
 40
9.379647
 40
9.379647
 40
9.379647
 10
85.561165
 20
8.838835
 30
0.0
 10
85.543309
 20
9.014263
 30
0.0
 10
85.507853
 20
9.362609
 30
0.0
 10
85.231805
 20
9.823017
 30
0.0
 10
84.827500
 20
10.165337
 30
0.0
 10
84.326778
 20
10.346898
 30
0.0
 10
83.795438
 20
10.346898
 30
0.0
 10
83.295415
 20
10.165337
 30
0.0
 10
82.888321
 20
9.823017
 30
0.0
 10
82.622635
 20
9.362609
 30
0.0
 10
82.530209
 20
8.838835
 30
0.0
 10
82.622635
 20
8.315061
 30
0.0
 10
82.888321
 20
7.854652
 30
0.0
 10
83.295415
 20
7.512333
 30
0.0
 10
83.795438
 20
7.330771
 30
0.0
 10
84.326778
 20
7.330771
 30
0.0
 10
84.827500
 20
7.512333
 30
0.0
 10
85.231805
 20
7.854652
 30
0.0
 10
85.507853
 20
8.315061
 30
0.0
 10
85.543309
 20
8.663406
 30
0.0
 10
85.561165
 20
8.838835
 30
0.0
 11
85.561165
 21
8.838835
 31
0.0
 11
85.470028
 21
9.354432
 31
0.0
 11
85.212110
 21
9.801457
 31
0.0
 11
84.811353
 21
10.138415
 31
0.0
 11
84.319212
 21
10.317144
 31
0.0
 11
83.803119
 21
10.317144
 31
0.0
 11
83.310977
 21
10.138415
 31
0.0
 11
82.910220
 21
9.801457
 31
0.0
 11
82.652303
 21
9.354432
 31
0.0
 11
82.561165
 21
8.838835
 31
0.0
 11
82.652303
 21
8.323237
 31
0.0
 11
82.910220
 21
7.876212
 31
0.0
 11
83.310977
 21
7.539254
 31
0.0
 11
83.803119
 21
7.360525
 31
0.0
 11
84.319212
 21
7.360525
 31
0.0
 11
84.811353
 21
7.539254
 31
0.0
 11
85.212110
 21
7.876212
 31
0.0
 11
85.470028
 21
8.323237
 31
0.0
 11
85.561165
 21
8.838835
 31
0.0
  0
LINE
  5
122
100
AcDbEntity
  8
0
 62
7
100
AcDbLine
 10
96.400000
 20
-0.000000
 30
0.0
 11
96.400000
 21
-0.000000
 31
0.0
  0
SPLINE
  5
123
100
AcDbEntity
  8
0
 62
7
100
AcDbSpline
 70
0
 71
3
 72
25
 73
21
 74
19
 40
0.000000
 40
0.000000
 40
0.000000
 40
0.000000
 40
1.221595
 40
2.425701
 40
3.647296
 40
4.868891
 40
6.072997
 40
7.294592
 40
8.516187
 40
9.720293
 40
10.941888
 40
12.163483
 40
13.367589
 40
14.589184
 40
15.810779
 40
17.014885
 40
18.236480
 40
19.458075
 40
20.662181
 40
21.883776
 40
21.883776
 40
21.883776
 40
21.883776
 10
96.400000
 20
-0.000000
 30
0.0
 10
96.358283
 20
0.409288
 30
0.0
 10
96.275446
 20
1.222004
 30
0.0
 10
95.631292
 20
2.296120
 30
0.0
 10
94.687952
 20
3.094724
 30
0.0
 10
93.519702
 20
3.518287
 30
0.0
 10
92.280031
 20
3.518287
 30
0.0
 10
91.113413
 20
3.094724
 30
0.0
 10
90.163557
 20
2.296120
 30
0.0
 10
89.543614
 20
1.222004
 30
0.0
 10
89.327676
 20
-0.000000
 30
0.0
 10
89.543614
 20
-1.222004
 30
0.0
 10
90.163557
 20
-2.296120
 30
0.0
 10
91.113413
 20
-3.094724
 30
0.0
 10
92.280031
 20
-3.518287
 30
0.0
 10
93.519702
 20
-3.518287
 30
0.0
 10
94.687952
 20
-3.094724
 30
0.0
 10
95.631292
 20
-2.296120
 30
0.0
 10
96.275446
 20
-1.222004
 30
0.0
 10
96.358283
 20
-0.409288
 30
0.0
 10
96.400000
 20
-0.000000
 30
0.0
 11
96.400000
 21
-0.000000
 31
0.0
 11
96.187206
 21
1.202918
 31
0.0
 11
95.585351
 21
2.245819
 31
0.0
 11
94.650287
 21
3.031917
 31
0.0
 11
93.502053
 21
3.448874
 31
0.0
 11
92.297947
 21
3.448874
 31
0.0
 11
91.149713
 21
3.031917
 31
0.0
 11
90.214650
 21
2.245819
 31
0.0
 11
89.612794
 21
1.202918
 31
0.0
 11
89.400000
 21
-0.000000
 31
0.0
 11
89.612794
 21
-1.202919
 31
0.0
 11
90.214650
 21
-2.245819
 31
0.0
 11
91.149713
 21
-3.031917
 31
0.0
 11
92.297947
 21
-3.448874
 31
0.0
 11
93.502053
 21
-3.448874
 31
0.0
 11
94.650287
 21
-3.031917
 31
0.0
 11
95.585351
 21
-2.245819
 31
0.0
 11
96.187206
 21
-1.202919
 31
0.0
 11
96.400000
 21
-0.000000
 31
0.0
  0
LINE
  5
124
100
AcDbEntity
  8
0
 62
7
100
AcDbLine
 10
103.238835
 20
-8.838835
 30
0.0
 11
103.238835
 21
-8.838835
 31
0.0
  0
SPLINE
  5
125
100
AcDbEntity
  8
0
 62
7
100
AcDbSpline
 70
0
 71
3
 72
25
 73
21
 74
19
 40
0.000000
 40
0.000000
 40
0.000000
 40
0.000000
 40
0.523591
 40
1.039684
 40
1.563274
 40
2.086865
 40
2.602958
 40
3.126549
 40
3.650140
 40
4.166233
 40
4.689823
 40
5.213414
 40
5.729507
 40
6.253098
 40
6.776689
 40
7.292782
 40
7.816372
 40
8.339963
 40
8.856056
 40
9.379647
 40
9.379647
 40
9.379647
 40
9.379647
 10
103.238835
 20
-8.838835
 30
0.0
 10
103.220979
 20
-8.663406
 30
0.0
 10
103.185523
 20
-8.315061
 30
0.0
 10
102.909475
 20
-7.854652
 30
0.0
 10
102.505169
 20
-7.512333
 30
0.0
 10
102.004447
 20
-7.330771
 30
0.0
 10
101.473108
 20
-7.330771
 30
0.0
 10
100.973085
 20
-7.512333
 30
0.0
 10
100.565990
 20
-7.854652
 30
0.0
 10
100.300305
 20
-8.315061
 30
0.0
 10
100.207878
 20
-8.838835
 30
0.0
 10
100.300305
 20
-9.362609
 30
0.0
 10
100.565990
 20
-9.823017
 30
0.0
 10
100.973085
 20
-10.165337
 30
0.0
 10
101.473108
 20
-10.346898
 30
0.0
 10
102.004447
 20
-10.346898
 30
0.0
 10
102.505169
 20
-10.165337
 30
0.0
 10
102.909475
 20
-9.823017
 30
0.0
 10
103.185523
 20
-9.362609
 30
0.0
 10
103.220979
 20
-9.014263
 30
0.0
 10
103.238835
 20
-8.838835
 30
0.0
 11
103.238835
 21
-8.838835
 31
0.0
 11
103.147697
 21
-8.323237
 31
0.0
 11
102.889780
 21
-7.876213
 31
0.0
 11
102.489023
 21
-7.539255
 31
0.0
 11
101.996882
 21
-7.360525
 31
0.0
 11
101.480788
 21
-7.360525
 31
0.0
 11
100.988647
 21
-7.539255
 31
0.0
 11
100.587890
 21
-7.876213
 31
0.0
 11
100.329972
 21
-8.323237
 31
0.0
 11
100.238835
 21
-8.838835
 31
0.0
 11
100.329972
 21
-9.354433
 31
0.0
 11
100.587890
 21
-9.801457
 31
0.0
 11
100.988647
 21
-10.138415
 31
0.0
 11
101.480788
 21
-10.317144
 31
0.0
 11
101.996882
 21
-10.317144
 31
0.0
 11
102.489023
 21
-10.138415
 31
0.0
 11
102.889780
 21
-9.801457
 31
0.0
 11
103.147697
 21
-9.354433
 31
0.0
 11
103.238835
 21
-8.838835
 31
0.0
  0
LINE
  5
126
100
AcDbEntity
  8
0
 62
7
100
AcDbLine
 10
-100.238835
 20
-8.838835
 30
0.0
 11
-100.238835
 21
-8.838835
 31
0.0
  0
SPLINE
  5
127
100
AcDbEntity
  8
0
 62
7
100
AcDbSpline
 70
0
 71
3
 72
25
 73
21
 74
19
 40
0.000000
 40
0.000000
 40
0.000000
 40
0.000000
 40
0.523591
 40
1.039684
 40
1.563274
 40
2.086865
 40
2.602958
 40
3.126549
 40
3.650140
 40
4.166233
 40
4.689823
 40
5.213414
 40
5.729507
 40
6.253098
 40
6.776689
 40
7.292782
 40
7.816372
 40
8.339963
 40
8.856056
 40
9.379647
 40
9.379647
 40
9.379647
 40
9.379647
 10
-100.238835
 20
-8.838835
 30
0.0
 10
-100.256691
 20
-8.663406
 30
0.0
 10
-100.292147
 20
-8.315061
 30
0.0
 10
-100.568195
 20
-7.854652
 30
0.0
 10
-100.972500
 20
-7.512333
 30
0.0
 10
-101.473222
 20
-7.330771
 30
0.0
 10
-102.004562
 20
-7.330771
 30
0.0
 10
-102.504585
 20
-7.512333
 30
0.0
 10
-102.911680
 20
-7.854652
 30
0.0
 10
-103.177365
 20
-8.315061
 30
0.0
 10
-103.269791
 20
-8.838835
 30
0.0
 10
-103.177365
 20
-9.362609
 30
0.0
 10
-102.911680
 20
-9.823017
 30
0.0
 10
-102.504585
 20
-10.165337
 30
0.0
 10
-102.004562
 20
-10.346898
 30
0.0
 10
-101.473222
 20
-10.346898
 30
0.0
 10
-100.972500
 20
-10.165337
 30
0.0
 10
-100.568195
 20
-9.823017
 30
0.0
 10
-100.292147
 20
-9.362609
 30
0.0
 10
-100.256691
 20
-9.014263
 30
0.0
 10
-100.238835
 20
-8.838835
 30
0.0
 11
-100.238835
 21
-8.838835
 31
0.0
 11
-100.329972
 21
-8.323237
 31
0.0
 11
-100.587890
 21
-7.876213
 31
0.0
 11
-100.988647
 21
-7.539255
 31
0.0
 11
-101.480788
 21
-7.360525
 31
0.0
 11
-101.996882
 21
-7.360525
 31
0.0
 11
-102.489023
 21
-7.539255
 31
0.0
 11
-102.889780
 21
-7.876213
 31
0.0
 11
-103.147697
 21
-8.323237
 31
0.0
 11
-103.238835
 21
-8.838835
 31
0.0
 11
-103.147697
 21
-9.354433
 31
0.0
 11
-102.889780
 21
-9.801457
 31
0.0
 11
-102.489023
 21
-10.138415
 31
0.0
 11
-101.996882
 21
-10.317144
 31
0.0
 11
-101.480788
 21
-10.317144
 31
0.0
 11
-100.988647
 21
-10.138415
 31
0.0
 11
-100.587890
 21
-9.801457
 31
0.0
 11
-100.329972
 21
-9.354433
 31
0.0
 11
-100.238835
 21
-8.838835
 31
0.0
  0
LINE
  5
128
100
AcDbEntity
  8
0
 62
7
100
AcDbLine
 10
-89.400000
 20
-0.000000
 30
0.0
 11
-89.400000
 21
-0.000000
 31
0.0
  0
SPLINE
  5
129
100
AcDbEntity
  8
0
 62
7
100
AcDbSpline
 70
0
 71
3
 72
25
 73
21
 74
19
 40
0.000000
 40
0.000000
 40
0.000000
 40
0.000000
 40
1.221595
 40
2.425701
 40
3.647296
 40
4.868891
 40
6.072997
 40
7.294592
 40
8.516187
 40
9.720293
 40
10.941888
 40
12.163483
 40
13.367589
 40
14.589184
 40
15.810779
 40
17.014885
 40
18.236480
 40
19.458075
 40
20.662181
 40
21.883776
 40
21.883776
 40
21.883776
 40
21.883776
 10
-89.400000
 20
-0.000000
 30
0.0
 10
-89.441717
 20
0.409288
 30
0.0
 10
-89.524554
 20
1.222004
 30
0.0
 10
-90.168708
 20
2.296120
 30
0.0
 10
-91.112048
 20
3.094724
 30
0.0
 10
-92.280298
 20
3.518287
 30
0.0
 10
-93.519969
 20
3.518287
 30
0.0
 10
-94.686587
 20
3.094724
 30
0.0
 10
-95.636444
 20
2.296120
 30
0.0
 10
-96.256386
 20
1.222004
 30
0.0
 10
-96.472324
 20
-0.000000
 30
0.0
 10
-96.256386
 20
-1.222004
 30
0.0
 10
-95.636444
 20
-2.296120
 30
0.0
 10
-94.686587
 20
-3.094724
 30
0.0
 10
-93.519969
 20
-3.518287
 30
0.0
 10
-92.280298
 20
-3.518287
 30
0.0
 10
-91.112048
 20
-3.094724
 30
0.0
 10
-90.168708
 20
-2.296120
 30
0.0
 10
-89.524554
 20
-1.222004
 30
0.0
 10
-89.441717
 20
-0.409288
 30
0.0
 10
-89.400000
 20
-0.000000
 30
0.0
 11
-89.400000
 21
-0.000000
 31
0.0
 11
-89.612794
 21
1.202918
 31
0.0
 11
-90.214650
 21
2.245819
 31
0.0
 11
-91.149713
 21
3.031917
 31
0.0
 11
-92.297947
 21
3.448874
 31
0.0
 11
-93.502053
 21
3.448874
 31
0.0
 11
-94.650287
 21
3.031917
 31
0.0
 11
-95.585351
 21
2.245819
 31
0.0
 11
-96.187206
 21
1.202918
 31
0.0
 11
-96.400000
 21
-0.000000
 31
0.0
 11
-96.187206
 21
-1.202919
 31
0.0
 11
-95.585351
 21
-2.245819
 31
0.0
 11
-94.650287
 21
-3.031917
 31
0.0
 11
-93.502053
 21
-3.448874
 31
0.0
 11
-92.297947
 21
-3.448874
 31
0.0
 11
-91.149713
 21
-3.031917
 31
0.0
 11
-90.214650
 21
-2.245819
 31
0.0
 11
-89.612794
 21
-1.202919
 31
0.0
 11
-89.400000
 21
-0.000000
 31
0.0
  0
LINE
  5
12a
100
AcDbEntity
  8
0
 62
7
100
AcDbLine
 10
-82.561165
 20
8.838835
 30
0.0
 11
-82.561165
 21
8.838835
 31
0.0
  0
SPLINE
  5
12b
100
AcDbEntity
  8
0
 62
7
100
AcDbSpline
 70
0
 71
3
 72
25
 73
21
 74
19
 40
0.000000
 40
0.000000
 40
0.000000
 40
0.000000
 40
0.523591
 40
1.039684
 40
1.563274
 40
2.086865
 40
2.602958
 40
3.126549
 40
3.650140
 40
4.166233
 40
4.689823
 40
5.213414
 40
5.729507
 40
6.253098
 40
6.776689
 40
7.292782
 40
7.816372
 40
8.339963
 40
8.856056
 40
9.379647
 40
9.379647
 40
9.379647
 40
9.379647
 10
-82.561165
 20
8.838835
 30
0.0
 10
-82.579021
 20
9.014263
 30
0.0
 10
-82.614477
 20
9.362609
 30
0.0
 10
-82.890526
 20
9.823017
 30
0.0
 10
-83.294831
 20
10.165337
 30
0.0
 10
-83.795553
 20
10.346898
 30
0.0
 10
-84.326892
 20
10.346898
 30
0.0
 10
-84.826916
 20
10.165337
 30
0.0
 10
-85.234010
 20
9.823017
 30
0.0
 10
-85.499695
 20
9.362609
 30
0.0
 10
-85.592122
 20
8.838835
 30
0.0
 10
-85.499695
 20
8.315061
 30
0.0
 10
-85.234010
 20
7.854652
 30
0.0
 10
-84.826916
 20
7.512333
 30
0.0
 10
-84.326892
 20
7.330771
 30
0.0
 10
-83.795553
 20
7.330771
 30
0.0
 10
-83.294831
 20
7.512333
 30
0.0
 10
-82.890526
 20
7.854652
 30
0.0
 10
-82.614477
 20
8.315061
 30
0.0
 10
-82.579021
 20
8.663406
 30
0.0
 10
-82.561165
 20
8.838835
 30
0.0
 11
-82.561165
 21
8.838835
 31
0.0
 11
-82.652303
 21
9.354432
 31
0.0
 11
-82.910220
 21
9.801457
 31
0.0
 11
-83.310977
 21
10.138415
 31
0.0
 11
-83.803119
 21
10.317144
 31
0.0
 11
-84.319212
 21
10.317144
 31
0.0
 11
-84.811353
 21
10.138415
 31
0.0
 11
-85.212110
 21
9.801457
 31
0.0
 11
-85.470028
 21
9.354432
 31
0.0
 11
-85.561165
 21
8.838835
 31
0.0
 11
-85.470028
 21
8.323237
 31
0.0
 11
-85.212110
 21
7.876212
 31
0.0
 11
-84.811353
 21
7.539254
 31
0.0
 11
-84.319212
 21
7.360525
 31
0.0
 11
-83.803119
 21
7.360525
 31
0.0
 11
-83.310977
 21
7.539254
 31
0.0
 11
-82.910220
 21
7.876212
 31
0.0
 11
-82.652303
 21
8.323237
 31
0.0
 11
-82.561165
 21
8.838835
 31
0.0
  0
LINE
  5
12c
100
AcDbEntity
  8
0
 62
7
100
AcDbLine
 10
-97.375000
 20
-23.800000
 30
0.0
 11
-97.375000
 21
-23.800000
 31
0.0
  0
SPLINE
  5
12d
100
AcDbEntity
  8
0
 62
7
100
AcDbSpline
 70
0
 71
3
 72
25
 73
21
 74
19
 40
0.000000
 40
0.000000
 40
0.000000
 40
0.000000
 40
0.916031
 40
1.818952
 40
2.734983
 40
3.651013
 40
4.553934
 40
5.469965
 40
6.385996
 40
7.288917
 40
8.204948
 40
9.120978
 40
10.023899
 40
10.939930
 40
11.855961
 40
12.758882
 40
13.674913
 40
14.590943
 40
15.493864
 40
16.409895
 40
16.409895
 40
16.409895
 40
16.409895
 10
-97.375000
 20
-23.800000
 30
0.0
 10
-97.406364
 20
-23.493099
 30
0.0
 10
-97.468641
 20
-22.883689
 30
0.0
 10
-97.951816
 20
-22.078345
 30
0.0
 10
-98.659266
 20
-21.479593
 30
0.0
 10
-99.535310
 20
-21.162035
 30
0.0
 10
-100.464891
 20
-21.162035
 30
0.0
 10
-101.339708
 20
-21.479593
 30
0.0
 10
-102.052057
 20
-22.078345
 30
0.0
 10
-102.517029
 20
-22.883689
 30
0.0
 10
-102.679375
 20
-23.800000
 30
0.0
 10
-102.517029
 20
-24.716310
 30
0.0
 10
-102.052057
 20
-25.521655
 30
0.0
 10
-101.339708
 20
-26.120407
 30
0.0
 10
-100.464891
 20
-26.437965
 30
0.0
 10
-99.535310
 20
-26.437965
 30
0.0
 10
-98.659266
 20
-26.120407
 30
0.0
 10
-97.951816
 20
-25.521655
 30
0.0
 10
-97.468641
 20
-24.716310
 30
0.0
 10
-97.406364
 20
-24.106901
 30
0.0
 10
-97.375000
 20
-23.800000
 30
0.0
 11
-97.375000
 21
-23.800000
 31
0.0
 11
-97.534794
 21
-22.898014
 31
0.0
 11
-97.986254
 21
-22.116062
 31
0.0
 11
-98.687500
 21
-21.526683
 31
0.0
 11
-99.548540
 21
-21.214076
 31
0.0
 11
-100.451461
 21
-21.214076
 31
0.0
 11
-101.312500
 21
-21.526683
 31
0.0
 11
-102.013746
 21
-22.116062
 31
0.0
 11
-102.465206
 21
-22.898014
 31
0.0
 11
-102.625000
 21
-23.800000
 31
0.0
 11
-102.465206
 21
-24.701986
 31
0.0
 11
-102.013746
 21
-25.483938
 31
0.0
 11
-101.312500
 21
-26.073317
 31
0.0
 11
-100.451461
 21
-26.385924
 31
0.0
 11
-99.548540
 21
-26.385924
 31
0.0
 11
-98.687500
 21
-26.073317
 31
0.0
 11
-97.986254
 21
-25.483938
 31
0.0
 11
-97.534794
 21
-24.701986
 31
0.0
 11
-97.375000
 21
-23.800000
 31
0.0
  0
LINE
  5
12e
100
AcDbEntity
  8
0
 62
7
100
AcDbLine
 10
-97.375000
 20
73.800000
 30
0.0
 11
-97.375000
 21
73.800000
 31
0.0
  0
SPLINE
  5
12f
100
AcDbEntity
  8
0
 62
7
100
AcDbSpline
 70
0
 71
3
 72
25
 73
21
 74
19
 40
0.000000
 40
0.000000
 40
0.000000
 40
0.000000
 40
0.916031
 40
1.818952
 40
2.734983
 40
3.651013
 40
4.553934
 40
5.469965
 40
6.385996
 40
7.288917
 40
8.204948
 40
9.120978
 40
10.023899
 40
10.939930
 40
11.855961
 40
12.758882
 40
13.674913
 40
14.590943
 40
15.493864
 40
16.409895
 40
16.409895
 40
16.409895
 40
16.409895
 10
-97.375000
 20
73.800000
 30
0.0
 10
-97.406364
 20
74.106901
 30
0.0
 10
-97.468641
 20
74.716310
 30
0.0
 10
-97.951816
 20
75.521655
 30
0.0
 10
-98.659266
 20
76.120407
 30
0.0
 10
-99.535310
 20
76.437965
 30
0.0
 10
-100.464891
 20
76.437965
 30
0.0
 10
-101.339708
 20
76.120407
 30
0.0
 10
-102.052057
 20
75.521655
 30
0.0
 10
-102.517029
 20
74.716310
 30
0.0
 10
-102.679375
 20
73.800000
 30
0.0
 10
-102.517029
 20
72.883689
 30
0.0
 10
-102.052057
 20
72.078345
 30
0.0
 10
-101.339708
 20
71.479593
 30
0.0
 10
-100.464891
 20
71.162035
 30
0.0
 10
-99.535310
 20
71.162035
 30
0.0
 10
-98.659266
 20
71.479593
 30
0.0
 10
-97.951816
 20
72.078345
 30
0.0
 10
-97.468641
 20
72.883689
 30
0.0
 10
-97.406364
 20
73.493099
 30
0.0
 10
-97.375000
 20
73.800000
 30
0.0
 11
-97.375000
 21
73.800000
 31
0.0
 11
-97.534794
 21
74.701986
 31
0.0
 11
-97.986254
 21
75.483938
 31
0.0
 11
-98.687500
 21
76.073317
 31
0.0
 11
-99.548540
 21
76.385924
 31
0.0
 11
-100.451461
 21
76.385924
 31
0.0
 11
-101.312500
 21
76.073317
 31
0.0
 11
-102.013746
 21
75.483938
 31
0.0
 11
-102.465206
 21
74.701986
 31
0.0
 11
-102.625000
 21
73.800000
 31
0.0
 11
-102.465206
 21
72.898014
 31
0.0
 11
-102.013746
 21
72.116062
 31
0.0
 11
-101.312500
 21
71.526683
 31
0.0
 11
-100.451461
 21
71.214076
 31
0.0
 11
-99.548540
 21
71.214076
 31
0.0
 11
-98.687500
 21
71.526683
 31
0.0
 11
-97.986254
 21
72.116062
 31
0.0
 11
-97.534794
 21
72.898014
 31
0.0
 11
-97.375000
 21
73.800000
 31
0.0
  0
LINE
  5
130
100
AcDbEntity
  8
0
 62
7
100
AcDbLine
 10
102.625000
 20
73.800000
 30
0.0
 11
102.625000
 21
73.800000
 31
0.0
  0
SPLINE
  5
131
100
AcDbEntity
  8
0
 62
7
100
AcDbSpline
 70
0
 71
3
 72
25
 73
21
 74
19
 40
0.000000
 40
0.000000
 40
0.000000
 40
0.000000
 40
0.916031
 40
1.818952
 40
2.734983
 40
3.651013
 40
4.553934
 40
5.469965
 40
6.385996
 40
7.288917
 40
8.204948
 40
9.120978
 40
10.023899
 40
10.939930
 40
11.855961
 40
12.758882
 40
13.674913
 40
14.590943
 40
15.493864
 40
16.409895
 40
16.409895
 40
16.409895
 40
16.409895
 10
102.625000
 20
73.800000
 30
0.0
 10
102.593637
 20
74.106901
 30
0.0
 10
102.531359
 20
74.716310
 30
0.0
 10
102.048184
 20
75.521655
 30
0.0
 10
101.340734
 20
76.120407
 30
0.0
 10
100.464690
 20
76.437965
 30
0.0
 10
99.535109
 20
76.437965
 30
0.0
 10
98.660292
 20
76.120407
 30
0.0
 10
97.947943
 20
75.521655
 30
0.0
 10
97.482971
 20
74.716310
 30
0.0
 10
97.320626
 20
73.800000
 30
0.0
 10
97.482971
 20
72.883689
 30
0.0
 10
97.947943
 20
72.078345
 30
0.0
 10
98.660292
 20
71.479593
 30
0.0
 10
99.535109
 20
71.162035
 30
0.0
 10
100.464690
 20
71.162035
 30
0.0
 10
101.340734
 20
71.479593
 30
0.0
 10
102.048184
 20
72.078345
 30
0.0
 10
102.531359
 20
72.883689
 30
0.0
 10
102.593637
 20
73.493099
 30
0.0
 10
102.625000
 20
73.800000
 30
0.0
 11
102.625000
 21
73.800000
 31
0.0
 11
102.465206
 21
74.701986
 31
0.0
 11
102.013746
 21
75.483938
 31
0.0
 11
101.312500
 21
76.073317
 31
0.0
 11
100.451461
 21
76.385924
 31
0.0
 11
99.548540
 21
76.385924
 31
0.0
 11
98.687500
 21
76.073317
 31
0.0
 11
97.986254
 21
75.483938
 31
0.0
 11
97.534794
 21
74.701986
 31
0.0
 11
97.375000
 21
73.800000
 31
0.0
 11
97.534794
 21
72.898014
 31
0.0
 11
97.986254
 21
72.116062
 31
0.0
 11
98.687500
 21
71.526683
 31
0.0
 11
99.548540
 21
71.214076
 31
0.0
 11
100.451461
 21
71.214076
 31
0.0
 11
101.312500
 21
71.526683
 31
0.0
 11
102.013746
 21
72.116062
 31
0.0
 11
102.465206
 21
72.898014
 31
0.0
 11
102.625000
 21
73.800000
 31
0.0
  0
LINE
  5
132
100
AcDbEntity
  8
0
 62
7
100
AcDbLine
 10
102.625000
 20
-23.800000
 30
0.0
 11
102.625000
 21
-23.800000
 31
0.0
  0
LINE
  5
133
100
AcDbEntity
  8
0
 62
7
100
AcDbLine
 10
-49.330000
 20
-34.510000
 30
0.0
 11
49.330000
 21
-34.510000
 31
0.0
  0
SPLINE
  5
134
100
AcDbEntity
  8
0
 62
7
100
AcDbSpline
 70
0
 71
3
 72
25
 73
21
 74
19
 40
0.000000
 40
0.000000
 40
0.000000
 40
0.000000
 40
0.916031
 40
1.818952
 40
2.734983
 40
3.651013
 40
4.553934
 40
5.469965
 40
6.385996
 40
7.288917
 40
8.204948
 40
9.120978
 40
10.023899
 40
10.939930
 40
11.855961
 40
12.758882
 40
13.674913
 40
14.590943
 40
15.493864
 40
16.409895
 40
16.409895
 40
16.409895
 40
16.409895
 10
102.625000
 20
-23.800000
 30
0.0
 10
102.593637
 20
-23.493099
 30
0.0
 10
102.531359
 20
-22.883689
 30
0.0
 10
102.048184
 20
-22.078345
 30
0.0
 10
101.340734
 20
-21.479593
 30
0.0
 10
100.464690
 20
-21.162035
 30
0.0
 10
99.535109
 20
-21.162035
 30
0.0
 10
98.660292
 20
-21.479593
 30
0.0
 10
97.947943
 20
-22.078345
 30
0.0
 10
97.482971
 20
-22.883689
 30
0.0
 10
97.320626
 20
-23.800000
 30
0.0
 10
97.482971
 20
-24.716310
 30
0.0
 10
97.947943
 20
-25.521655
 30
0.0
 10
98.660292
 20
-26.120407
 30
0.0
 10
99.535109
 20
-26.437965
 30
0.0
 10
100.464690
 20
-26.437965
 30
0.0
 10
101.340734
 20
-26.120407
 30
0.0
 10
102.048184
 20
-25.521655
 30
0.0
 10
102.531359
 20
-24.716310
 30
0.0
 10
102.593637
 20
-24.106901
 30
0.0
 10
102.625000
 20
-23.800000
 30
0.0
 11
102.625000
 21
-23.800000
 31
0.0
 11
102.465206
 21
-22.898014
 31
0.0
 11
102.013746
 21
-22.116062
 31
0.0
 11
101.312500
 21
-21.526683
 31
0.0
 11
100.451461
 21
-21.214076
 31
0.0
 11
99.548540
 21
-21.214076
 31
0.0
 11
98.687500
 21
-21.526683
 31
0.0
 11
97.986254
 21
-22.116062
 31
0.0
 11
97.534794
 21
-22.898014
 31
0.0
 11
97.375000
 21
-23.800000
 31
0.0
 11
97.534794
 21
-24.701986
 31
0.0
 11
97.986254
 21
-25.483938
 31
0.0
 11
98.687500
 21
-26.073317
 31
0.0
 11
99.548540
 21
-26.385924
 31
0.0
 11
100.451461
 21
-26.385924
 31
0.0
 11
101.312500
 21
-26.073317
 31
0.0
 11
102.013746
 21
-25.483938
 31
0.0
 11
102.465206
 21
-24.701986
 31
0.0
 11
102.625000
 21
-23.800000
 31
0.0
  0
LINE
  5
135
100
AcDbEntity
  8
0
 62
7
100
AcDbLine
 10
-51.330000
 20
-32.510000
 30
0.0
 11
-51.330000
 21
-31.455000
 31
0.0
  0
SPLINE
  5
136
100
AcDbEntity
  8
0
 62
7
100
AcDbSpline
 70
0
 71
3
 72
13
 73
9
 74
7
 40
0.000000
 40
0.000000
 40
0.000000
 40
0.000000
 40
0.523550
 40
1.042767
 40
1.566317
 40
2.089866
 40
2.609084
 40
3.132633
 40
3.132633
 40
3.132633
 40
3.132633
 10
-51.330000
 20
-32.510000
 30
0.0
 10
-51.316668
 20
-32.685026
 30
0.0
 10
-51.290113
 20
-33.033631
 30
0.0
 10
-51.080263
 20
-33.521313
 30
0.0
 10
-50.760996
 20
-33.940996
 30
0.0
 10
-50.341313
 20
-34.260262
 30
0.0
 10
-49.853631
 20
-34.470113
 30
0.0
 10
-49.505027
 20
-34.496667
 30
0.0
 10
-49.330000
 20
-34.510000
 30
0.0
 11
-51.330000
 21
-32.510000
 31
0.0
 11
-51.261479
 21
-33.029046
 31
0.0
 11
-51.062783
 21
-33.508741
 31
0.0
 11
-50.744214
 21
-33.924213
 31
0.0
 11
-50.328741
 21
-34.242783
 31
0.0
 11
-49.849047
 21
-34.441479
 31
0.0
 11
-49.330000
 21
-34.510000
 31
0.0
  0
LINE
  5
137
100
AcDbEntity
  8
0
 62
7
100
AcDbLine
 10
-56.330000
 20
-26.455000
 30
0.0
 11
-57.385000
 21
-26.455000
 31
0.0
  0
SPLINE
  5
138
100
AcDbEntity
  8
0
 62
7
100
AcDbSpline
 70
0
 71
3
 72
13
 73
9
 74
7
 40
0.000000
 40
0.000000
 40
0.000000
 40
0.000000
 40
1.308874
 40
2.606917
 40
3.915792
 40
5.224666
 40
6.522709
 40
7.831583
 40
7.831583
 40
7.831583
 40
7.831583
 10
-51.330000
 20
-31.455000
 30
0.0
 10
-51.363331
 20
-31.017434
 30
0.0
 10
-51.429718
 20
-30.145922
 30
0.0
 10
-51.954344
 20
-28.926717
 30
0.0
 10
-52.752510
 20
-27.877510
 30
0.0
 10
-53.801717
 20
-27.079344
 30
0.0
 10
-55.020922
 20
-26.554718
 30
0.0
 10
-55.892434
 20
-26.488331
 30
0.0
 10
-56.330000
 20
-26.455000
 30
0.0
 11
-51.330000
 21
-31.455000
 31
0.0
 11
-51.501303
 21
-30.157384
 31
0.0
 11
-51.998042
 21
-28.958149
 31
0.0
 11
-52.794466
 21
-27.919466
 31
0.0
 11
-53.833149
 21
-27.123042
 31
0.0
 11
-55.032384
 21
-26.626303
 31
0.0
 11
-56.330000
 21
-26.455000
 31
0.0
  0
LINE
  5
139
100
AcDbEntity
  8
0
 62
7
100
AcDbLine
 10
-59.385000
 20
24.455000
 30
0.0
 11
-59.385000
 21
-24.455000
 31
0.0
  0
SPLINE
  5
13a
100
AcDbEntity
  8
0
 62
7
100
AcDbSpline
 70
0
 71
3
 72
13
 73
9
 74
7
 40
0.000000
 40
0.000000
 40
0.000000
 40
0.000000
 40
0.523550
 40
1.042767
 40
1.566317
 40
2.089866
 40
2.609084
 40
3.132633
 40
3.132633
 40
3.132633
 40
3.132633
 10
-59.385000
 20
-24.455000
 30
0.0
 10
-59.371667
 20
-24.630027
 30
0.0
 10
-59.345113
 20
-24.978631
 30
0.0
 10
-59.135262
 20
-25.466313
 30
0.0
 10
-58.815996
 20
-25.885996
 30
0.0
 10
-58.396313
 20
-26.205263
 30
0.0
 10
-57.908631
 20
-26.415113
 30
0.0
 10
-57.560026
 20
-26.441668
 30
0.0
 10
-57.385000
 20
-26.455000
 30
0.0
 11
-59.385000
 21
-24.455000
 31
0.0
 11
-59.316479
 21
-24.974047
 31
0.0
 11
-59.117783
 21
-25.453741
 31
0.0
 11
-58.799213
 21
-25.869214
 31
0.0
 11
-58.383741
 21
-26.187783
 31
0.0
 11
-57.904046
 21
-26.386479
 31
0.0
 11
-57.385000
 21
-26.455000
 31
0.0
  0
LINE
  5
13b
100
AcDbEntity
  8
0
 62
7
100
AcDbLine
 10
-57.385000
 20
26.455000
 30
0.0
 11
-56.330000
 21
26.455000
 31
0.0
  0
SPLINE
  5
13c
100
AcDbEntity
  8
0
 62
7
100
AcDbSpline
 70
0
 71
3
 72
13
 73
9
 74
7
 40
0.000000
 40
0.000000
 40
0.000000
 40
0.000000
 40
0.523550
 40
1.042767
 40
1.566317
 40
2.089866
 40
2.609084
 40
3.132633
 40
3.132633
 40
3.132633
 40
3.132633
 10
-57.385000
 20
26.455000
 30
0.0
 10
-57.560026
 20
26.441667
 30
0.0
 10
-57.908631
 20
26.415113
 30
0.0
 10
-58.396313
 20
26.205262
 30
0.0
 10
-58.815996
 20
25.885996
 30
0.0
 10
-59.135262
 20
25.466313
 30
0.0
 10
-59.345113
 20
24.978631
 30
0.0
 10
-59.371667
 20
24.630026
 30
0.0
 10
-59.385000
 20
24.455000
 30
0.0
 11
-57.385000
 21
26.455000
 31
0.0
 11
-57.904046
 21
26.386479
 31
0.0
 11
-58.383741
 21
26.187783
 31
0.0
 11
-58.799213
 21
25.869214
 31
0.0
 11
-59.117783
 21
25.453741
 31
0.0
 11
-59.316479
 21
24.974046
 31
0.0
 11
-59.385000
 21
24.455000
 31
0.0
  0
LINE
  5
13d
100
AcDbEntity
  8
0
 62
7
100
AcDbLine
 10
-51.330000
 20
31.455000
 30
0.0
 11
-51.330000
 21
32.510000
 31
0.0
  0
SPLINE
  5
13e
100
AcDbEntity
  8
0
 62
7
100
AcDbSpline
 70
0
 71
3
 72
13
 73
9
 74
7
 40
0.000000
 40
0.000000
 40
0.000000
 40
0.000000
 40
1.308874
 40
2.606917
 40
3.915792
 40
5.224666
 40
6.522709
 40
7.831584
 40
7.831584
 40
7.831584
 40
7.831584
 10
-56.330000
 20
26.455000
 30
0.0
 10
-55.892434
 20
26.488331
 30
0.0
 10
-55.020922
 20
26.554718
 30
0.0
 10
-53.801717
 20
27.079344
 30
0.0
 10
-52.752510
 20
27.877510
 30
0.0
 10
-51.954344
 20
28.926717
 30
0.0
 10
-51.429718
 20
30.145922
 30
0.0
 10
-51.363331
 20
31.017434
 30
0.0
 10
-51.330000
 20
31.455000
 30
0.0
 11
-56.330000
 21
26.455000
 31
0.0
 11
-55.032384
 21
26.626303
 31
0.0
 11
-53.833148
 21
27.123042
 31
0.0
 11
-52.794466
 21
27.919466
 31
0.0
 11
-51.998042
 21
28.958149
 31
0.0
 11
-51.501303
 21
30.157384
 31
0.0
 11
-51.330000
 21
31.455000
 31
0.0
  0
LINE
  5
13f
100
AcDbEntity
  8
0
 62
7
100
AcDbLine
 10
49.330000
 20
34.510000
 30
0.0
 11
-49.330000
 21
34.510000
 31
0.0
  0
SPLINE
  5
140
100
AcDbEntity
  8
0
 62
7
100
AcDbSpline
 70
0
 71
3
 72
13
 73
9
 74
7
 40
0.000000
 40
0.000000
 40
0.000000
 40
0.000000
 40
0.523550
 40
1.042767
 40
1.566317
 40
2.089866
 40
2.609084
 40
3.132633
 40
3.132633
 40
3.132633
 40
3.132633
 10
-49.330000
 20
34.510000
 30
0.0
 10
-49.505027
 20
34.496668
 30
0.0
 10
-49.853631
 20
34.470113
 30
0.0
 10
-50.341313
 20
34.260263
 30
0.0
 10
-50.760996
 20
33.940996
 30
0.0
 10
-51.080263
 20
33.521313
 30
0.0
 10
-51.290113
 20
33.033631
 30
0.0
 10
-51.316668
 20
32.685027
 30
0.0
 10
-51.330000
 20
32.510000
 30
0.0
 11
-49.330000
 21
34.510000
 31
0.0
 11
-49.849047
 21
34.441479
 31
0.0
 11
-50.328741
 21
34.242783
 31
0.0
 11
-50.744214
 21
33.924214
 31
0.0
 11
-51.062783
 21
33.508741
 31
0.0
 11
-51.261479
 21
33.029047
 31
0.0
 11
-51.330000
 21
32.510000
 31
0.0
  0
LINE
  5
141
100
AcDbEntity
  8
0
 62
7
100
AcDbLine
 10
51.330000
 20
32.510000
 30
0.0
 11
51.330000
 21
31.455000
 31
0.0
  0
SPLINE
  5
142
100
AcDbEntity
  8
0
 62
7
100
AcDbSpline
 70
0
 71
3
 72
13
 73
9
 74
7
 40
0.000000
 40
0.000000
 40
0.000000
 40
0.000000
 40
0.523550
 40
1.042767
 40
1.566317
 40
2.089866
 40
2.609084
 40
3.132633
 40
3.132633
 40
3.132633
 40
3.132633
 10
51.330000
 20
32.510000
 30
0.0
 10
51.316668
 20
32.685027
 30
0.0
 10
51.290113
 20
33.033631
 30
0.0
 10
51.080263
 20
33.521313
 30
0.0
 10
50.760996
 20
33.940996
 30
0.0
 10
50.341313
 20
34.260263
 30
0.0
 10
49.853631
 20
34.470113
 30
0.0
 10
49.505027
 20
34.496668
 30
0.0
 10
49.330000
 20
34.510000
 30
0.0
 11
51.330000
 21
32.510000
 31
0.0
 11
51.261479
 21
33.029047
 31
0.0
 11
51.062783
 21
33.508741
 31
0.0
 11
50.744214
 21
33.924214
 31
0.0
 11
50.328741
 21
34.242783
 31
0.0
 11
49.849047
 21
34.441479
 31
0.0
 11
49.330000
 21
34.510000
 31
0.0
  0
LINE
  5
143
100
AcDbEntity
  8
0
 62
7
100
AcDbLine
 10
56.330000
 20
26.455000
 30
0.0
 11
57.385000
 21
26.455000
 31
0.0
  0
SPLINE
  5
144
100
AcDbEntity
  8
0
 62
7
100
AcDbSpline
 70
0
 71
3
 72
13
 73
9
 74
7
 40
0.000000
 40
0.000000
 40
0.000000
 40
0.000000
 40
1.308874
 40
2.606917
 40
3.915792
 40
5.224666
 40
6.522709
 40
7.831584
 40
7.831584
 40
7.831584
 40
7.831584
 10
51.330000
 20
31.455000
 30
0.0
 10
51.363331
 20
31.017434
 30
0.0
 10
51.429718
 20
30.145922
 30
0.0
 10
51.954344
 20
28.926717
 30
0.0
 10
52.752510
 20
27.877510
 30
0.0
 10
53.801717
 20
27.079344
 30
0.0
 10
55.020922
 20
26.554718
 30
0.0
 10
55.892434
 20
26.488331
 30
0.0
 10
56.330000
 20
26.455000
 30
0.0
 11
51.330000
 21
31.455000
 31
0.0
 11
51.501303
 21
30.157384
 31
0.0
 11
51.998042
 21
28.958149
 31
0.0
 11
52.794466
 21
27.919466
 31
0.0
 11
53.833148
 21
27.123042
 31
0.0
 11
55.032384
 21
26.626303
 31
0.0
 11
56.330000
 21
26.455000
 31
0.0
  0
LINE
  5
145
100
AcDbEntity
  8
0
 62
7
100
AcDbLine
 10
59.385000
 20
-24.455000
 30
0.0
 11
59.385000
 21
24.455000
 31
0.0
  0
SPLINE
  5
146
100
AcDbEntity
  8
0
 62
7
100
AcDbSpline
 70
0
 71
3
 72
13
 73
9
 74
7
 40
0.000000
 40
0.000000
 40
0.000000
 40
0.000000
 40
0.523550
 40
1.042767
 40
1.566317
 40
2.089866
 40
2.609084
 40
3.132633
 40
3.132633
 40
3.132633
 40
3.132633
 10
59.385000
 20
24.455000
 30
0.0
 10
59.371667
 20
24.630026
 30
0.0
 10
59.345113
 20
24.978631
 30
0.0
 10
59.135262
 20
25.466313
 30
0.0
 10
58.815996
 20
25.885996
 30
0.0
 10
58.396313
 20
26.205262
 30
0.0
 10
57.908631
 20
26.415113
 30
0.0
 10
57.560026
 20
26.441667
 30
0.0
 10
57.385000
 20
26.455000
 30
0.0
 11
59.385000
 21
24.455000
 31
0.0
 11
59.316479
 21
24.974046
 31
0.0
 11
59.117783
 21
25.453741
 31
0.0
 11
58.799213
 21
25.869214
 31
0.0
 11
58.383741
 21
26.187783
 31
0.0
 11
57.904046
 21
26.386479
 31
0.0
 11
57.385000
 21
26.455000
 31
0.0
  0
LINE
  5
147
100
AcDbEntity
  8
0
 62
7
100
AcDbLine
 10
57.385000
 20
-26.455000
 30
0.0
 11
56.330000
 21
-26.455000
 31
0.0
  0
SPLINE
  5
148
100
AcDbEntity
  8
0
 62
7
100
AcDbSpline
 70
0
 71
3
 72
13
 73
9
 74
7
 40
0.000000
 40
0.000000
 40
0.000000
 40
0.000000
 40
0.523550
 40
1.042767
 40
1.566317
 40
2.089866
 40
2.609084
 40
3.132633
 40
3.132633
 40
3.132633
 40
3.132633
 10
57.385000
 20
-26.455000
 30
0.0
 10
57.560026
 20
-26.441668
 30
0.0
 10
57.908631
 20
-26.415113
 30
0.0
 10
58.396313
 20
-26.205263
 30
0.0
 10
58.815996
 20
-25.885996
 30
0.0
 10
59.135262
 20
-25.466313
 30
0.0
 10
59.345113
 20
-24.978631
 30
0.0
 10
59.371667
 20
-24.630027
 30
0.0
 10
59.385000
 20
-24.455000
 30
0.0
 11
57.385000
 21
-26.455000
 31
0.0
 11
57.904046
 21
-26.386479
 31
0.0
 11
58.383741
 21
-26.187783
 31
0.0
 11
58.799213
 21
-25.869214
 31
0.0
 11
59.117783
 21
-25.453741
 31
0.0
 11
59.316479
 21
-24.974047
 31
0.0
 11
59.385000
 21
-24.455000
 31
0.0
  0
LINE
  5
149
100
AcDbEntity
  8
0
 62
7
100
AcDbLine
 10
51.330000
 20
-31.455000
 30
0.0
 11
51.330000
 21
-32.510000
 31
0.0
  0
SPLINE
  5
14a
100
AcDbEntity
  8
0
 62
7
100
AcDbSpline
 70
0
 71
3
 72
13
 73
9
 74
7
 40
0.000000
 40
0.000000
 40
0.000000
 40
0.000000
 40
1.308874
 40
2.606917
 40
3.915792
 40
5.224666
 40
6.522709
 40
7.831583
 40
7.831583
 40
7.831583
 40
7.831583
 10
56.330000
 20
-26.455000
 30
0.0
 10
55.892434
 20
-26.488331
 30
0.0
 10
55.020922
 20
-26.554718
 30
0.0
 10
53.801717
 20
-27.079344
 30
0.0
 10
52.752510
 20
-27.877510
 30
0.0
 10
51.954344
 20
-28.926717
 30
0.0
 10
51.429718
 20
-30.145922
 30
0.0
 10
51.363331
 20
-31.017434
 30
0.0
 10
51.330000
 20
-31.455000
 30
0.0
 11
56.330000
 21
-26.455000
 31
0.0
 11
55.032384
 21
-26.626303
 31
0.0
 11
53.833149
 21
-27.123042
 31
0.0
 11
52.794466
 21
-27.919466
 31
0.0
 11
51.998042
 21
-28.958149
 31
0.0
 11
51.501303
 21
-30.157384
 31
0.0
 11
51.330000
 21
-31.455000
 31
0.0
  0
SPLINE
  5
14b
100
AcDbEntity
  8
0
 62
7
100
AcDbSpline
 70
0
 71
3
 72
13
 73
9
 74
7
 40
0.000000
 40
0.000000
 40
0.000000
 40
0.000000
 40
0.523550
 40
1.042767
 40
1.566317
 40
2.089866
 40
2.609084
 40
3.132633
 40
3.132633
 40
3.132633
 40
3.132633
 10
49.330000
 20
-34.510000
 30
0.0
 10
49.505027
 20
-34.496667
 30
0.0
 10
49.853631
 20
-34.470113
 30
0.0
 10
50.341313
 20
-34.260262
 30
0.0
 10
50.760996
 20
-33.940996
 30
0.0
 10
51.080263
 20
-33.521313
 30
0.0
 10
51.290113
 20
-33.033631
 30
0.0
 10
51.316668
 20
-32.685026
 30
0.0
 10
51.330000
 20
-32.510000
 30
0.0
 11
49.330000
 21
-34.510000
 31
0.0
 11
49.849047
 21
-34.441479
 31
0.0
 11
50.328741
 21
-34.242783
 31
0.0
 11
50.744214
 21
-33.924213
 31
0.0
 11
51.062783
 21
-33.508741
 31
0.0
 11
51.261479
 21
-33.029046
 31
0.0
 11
51.330000
 21
-32.510000
 31
0.0
  0
LINE
  5
14c
100
AcDbEntity
  8
0
 62
7
100
AcDbLine
 10
-54.830000
 20
-31.455000
 30
0.0
 11
-54.830000
 21
-31.455000
 31
0.0
  0
SPLINE
  5
14d
100
AcDbEntity
  8
0
 62
7
100
AcDbSpline
 70
0
 71
3
 72
25
 73
21
 74
19
 40
0.000000
 40
0.000000
 40
0.000000
 40
0.000000
 40
0.523591
 40
1.039684
 40
1.563274
 40
2.086865
 40
2.602958
 40
3.126549
 40
3.650140
 40
4.166233
 40
4.689823
 40
5.213414
 40
5.729507
 40
6.253098
 40
6.776689
 40
7.292782
 40
7.816372
 40
8.339963
 40
8.856056
 40
9.379647
 40
9.379647
 40
9.379647
 40
9.379647
 10
-54.830000
 20
-31.455000
 30
0.0
 10
-54.847856
 20
-31.279571
 30
0.0
 10
-54.883312
 20
-30.931226
 30
0.0
 10
-55.159360
 20
-30.470817
 30
0.0
 10
-55.563666
 20
-30.128498
 30
0.0
 10
-56.064388
 20
-29.946936
 30
0.0
 10
-56.595727
 20
-29.946936
 30
0.0
 10
-57.095750
 20
-30.128498
 30
0.0
 10
-57.502845
 20
-30.470817
 30
0.0
 10
-57.768530
 20
-30.931226
 30
0.0
 10
-57.860957
 20
-31.455000
 30
0.0
 10
-57.768530
 20
-31.978774
 30
0.0
 10
-57.502845
 20
-32.439183
 30
0.0
 10
-57.095750
 20
-32.781502
 30
0.0
 10
-56.595727
 20
-32.963063
 30
0.0
 10
-56.064388
 20
-32.963063
 30
0.0
 10
-55.563666
 20
-32.781502
 30
0.0
 10
-55.159360
 20
-32.439183
 30
0.0
 10
-54.883312
 20
-31.978774
 30
0.0
 10
-54.847856
 20
-31.630429
 30
0.0
 10
-54.830000
 20
-31.455000
 30
0.0
 11
-54.830000
 21
-31.455000
 31
0.0
 11
-54.921138
 21
-30.939402
 31
0.0
 11
-55.179055
 21
-30.492378
 31
0.0
 11
-55.579812
 21
-30.155420
 31
0.0
 11
-56.071953
 21
-29.976690
 31
0.0
 11
-56.588047
 21
-29.976690
 31
0.0
 11
-57.080188
 21
-30.155420
 31
0.0
 11
-57.480945
 21
-30.492378
 31
0.0
 11
-57.738863
 21
-30.939402
 31
0.0
 11
-57.830000
 21
-31.455000
 31
0.0
 11
-57.738863
 21
-31.970598
 31
0.0
 11
-57.480945
 21
-32.417622
 31
0.0
 11
-57.080188
 21
-32.754580
 31
0.0
 11
-56.588047
 21
-32.933310
 31
0.0
 11
-56.071953
 21
-32.933310
 31
0.0
 11
-55.579812
 21
-32.754580
 31
0.0
 11
-55.179055
 21
-32.417622
 31
0.0
 11
-54.921138
 21
-31.970598
 31
0.0
 11
-54.830000
 21
-31.455000
 31
0.0
  0
LINE
  5
14e
100
AcDbEntity
  8
0
 62
7
100
AcDbLine
 10
-54.830000
 20
31.455000
 30
0.0
 11
-54.830000
 21
31.455000
 31
0.0
  0
SPLINE
  5
14f
100
AcDbEntity
  8
0
 62
7
100
AcDbSpline
 70
0
 71
3
 72
25
 73
21
 74
19
 40
0.000000
 40
0.000000
 40
0.000000
 40
0.000000
 40
0.523591
 40
1.039684
 40
1.563274
 40
2.086865
 40
2.602958
 40
3.126549
 40
3.650140
 40
4.166233
 40
4.689823
 40
5.213414
 40
5.729507
 40
6.253098
 40
6.776689
 40
7.292782
 40
7.816372
 40
8.339963
 40
8.856056
 40
9.379647
 40
9.379647
 40
9.379647
 40
9.379647
 10
-54.830000
 20
31.455000
 30
0.0
 10
-54.847856
 20
31.630429
 30
0.0
 10
-54.883312
 20
31.978774
 30
0.0
 10
-55.159360
 20
32.439183
 30
0.0
 10
-55.563666
 20
32.781502
 30
0.0
 10
-56.064388
 20
32.963064
 30
0.0
 10
-56.595727
 20
32.963064
 30
0.0
 10
-57.095750
 20
32.781502
 30
0.0
 10
-57.502845
 20
32.439183
 30
0.0
 10
-57.768530
 20
31.978774
 30
0.0
 10
-57.860957
 20
31.455000
 30
0.0
 10
-57.768530
 20
30.931226
 30
0.0
 10
-57.502845
 20
30.470817
 30
0.0
 10
-57.095750
 20
30.128498
 30
0.0
 10
-56.595727
 20
29.946937
 30
0.0
 10
-56.064388
 20
29.946937
 30
0.0
 10
-55.563666
 20
30.128498
 30
0.0
 10
-55.159360
 20
30.470817
 30
0.0
 10
-54.883312
 20
30.931226
 30
0.0
 10
-54.847856
 20
31.279571
 30
0.0
 10
-54.830000
 20
31.455000
 30
0.0
 11
-54.830000
 21
31.455000
 31
0.0
 11
-54.921138
 21
31.970598
 31
0.0
 11
-55.179055
 21
32.417622
 31
0.0
 11
-55.579812
 21
32.754580
 31
0.0
 11
-56.071953
 21
32.933310
 31
0.0
 11
-56.588047
 21
32.933310
 31
0.0
 11
-57.080188
 21
32.754580
 31
0.0
 11
-57.480945
 21
32.417622
 31
0.0
 11
-57.738863
 21
31.970598
 31
0.0
 11
-57.830000
 21
31.455000
 31
0.0
 11
-57.738863
 21
30.939402
 31
0.0
 11
-57.480945
 21
30.492378
 31
0.0
 11
-57.080188
 21
30.155420
 31
0.0
 11
-56.588047
 21
29.976690
 31
0.0
 11
-56.071953
 21
29.976690
 31
0.0
 11
-55.579812
 21
30.155420
 31
0.0
 11
-55.179055
 21
30.492378
 31
0.0
 11
-54.921138
 21
30.939402
 31
0.0
 11
-54.830000
 21
31.455000
 31
0.0
  0
LINE
  5
150
100
AcDbEntity
  8
0
 62
7
100
AcDbLine
 10
57.830000
 20
31.455000
 30
0.0
 11
57.830000
 21
31.455000
 31
0.0
  0
SPLINE
  5
151
100
AcDbEntity
  8
0
 62
7
100
AcDbSpline
 70
0
 71
3
 72
25
 73
21
 74
19
 40
0.000000
 40
0.000000
 40
0.000000
 40
0.000000
 40
0.523591
 40
1.039684
 40
1.563274
 40
2.086865
 40
2.602958
 40
3.126549
 40
3.650140
 40
4.166233
 40
4.689823
 40
5.213414
 40
5.729507
 40
6.253098
 40
6.776689
 40
7.292782
 40
7.816372
 40
8.339963
 40
8.856056
 40
9.379647
 40
9.379647
 40
9.379647
 40
9.379647
 10
57.830000
 20
31.455000
 30
0.0
 10
57.812144
 20
31.630429
 30
0.0
 10
57.776688
 20
31.978774
 30
0.0
 10
57.500640
 20
32.439183
 30
0.0
 10
57.096334
 20
32.781502
 30
0.0
 10
56.595612
 20
32.963064
 30
0.0
 10
56.064273
 20
32.963064
 30
0.0
 10
55.564250
 20
32.781502
 30
0.0
 10
55.157155
 20
32.439183
 30
0.0
 10
54.891470
 20
31.978774
 30
0.0
 10
54.799043
 20
31.455000
 30
0.0
 10
54.891470
 20
30.931226
 30
0.0
 10
55.157155
 20
30.470817
 30
0.0
 10
55.564250
 20
30.128498
 30
0.0
 10
56.064273
 20
29.946937
 30
0.0
 10
56.595612
 20
29.946937
 30
0.0
 10
57.096334
 20
30.128498
 30
0.0
 10
57.500640
 20
30.470817
 30
0.0
 10
57.776688
 20
30.931226
 30
0.0
 10
57.812144
 20
31.279571
 30
0.0
 10
57.830000
 20
31.455000
 30
0.0
 11
57.830000
 21
31.455000
 31
0.0
 11
57.738863
 21
31.970598
 31
0.0
 11
57.480945
 21
32.417622
 31
0.0
 11
57.080188
 21
32.754580
 31
0.0
 11
56.588047
 21
32.933310
 31
0.0
 11
56.071953
 21
32.933310
 31
0.0
 11
55.579812
 21
32.754580
 31
0.0
 11
55.179055
 21
32.417622
 31
0.0
 11
54.921138
 21
31.970598
 31
0.0
 11
54.830000
 21
31.455000
 31
0.0
 11
54.921138
 21
30.939402
 31
0.0
 11
55.179055
 21
30.492378
 31
0.0
 11
55.579812
 21
30.155420
 31
0.0
 11
56.071953
 21
29.976690
 31
0.0
 11
56.588047
 21
29.976690
 31
0.0
 11
57.080188
 21
30.155420
 31
0.0
 11
57.480945
 21
30.492378
 31
0.0
 11
57.738863
 21
30.939402
 31
0.0
 11
57.830000
 21
31.455000
 31
0.0
  0
LINE
  5
152
100
AcDbEntity
  8
0
 62
7
100
AcDbLine
 10
57.830000
 20
-31.455000
 30
0.0
 11
57.830000
 21
-31.455000
 31
0.0
  0
SPLINE
  5
153
100
AcDbEntity
  8
0
 62
7
100
AcDbSpline
 70
0
 71
3
 72
25
 73
21
 74
19
 40
0.000000
 40
0.000000
 40
0.000000
 40
0.000000
 40
0.523591
 40
1.039684
 40
1.563274
 40
2.086865
 40
2.602958
 40
3.126549
 40
3.650140
 40
4.166233
 40
4.689823
 40
5.213414
 40
5.729507
 40
6.253098
 40
6.776689
 40
7.292782
 40
7.816372
 40
8.339963
 40
8.856056
 40
9.379647
 40
9.379647
 40
9.379647
 40
9.379647
 10
57.830000
 20
-31.455000
 30
0.0
 10
57.812144
 20
-31.279571
 30
0.0
 10
57.776688
 20
-30.931226
 30
0.0
 10
57.500640
 20
-30.470817
 30
0.0
 10
57.096334
 20
-30.128498
 30
0.0
 10
56.595612
 20
-29.946936
 30
0.0
 10
56.064273
 20
-29.946936
 30
0.0
 10
55.564250
 20
-30.128498
 30
0.0
 10
55.157155
 20
-30.470817
 30
0.0
 10
54.891470
 20
-30.931226
 30
0.0
 10
54.799043
 20
-31.455000
 30
0.0
 10
54.891470
 20
-31.978774
 30
0.0
 10
55.157155
 20
-32.439183
 30
0.0
 10
55.564250
 20
-32.781502
 30
0.0
 10
56.064273
 20
-32.963063
 30
0.0
 10
56.595612
 20
-32.963063
 30
0.0
 10
57.096334
 20
-32.781502
 30
0.0
 10
57.500640
 20
-32.439183
 30
0.0
 10
57.776688
 20
-31.978774
 30
0.0
 10
57.812144
 20
-31.630429
 30
0.0
 10
57.830000
 20
-31.455000
 30
0.0
 11
57.830000
 21
-31.455000
 31
0.0
 11
57.738863
 21
-30.939402
 31
0.0
 11
57.480945
 21
-30.492378
 31
0.0
 11
57.080188
 21
-30.155420
 31
0.0
 11
56.588047
 21
-29.976690
 31
0.0
 11
56.071953
 21
-29.976690
 31
0.0
 11
55.579812
 21
-30.155420
 31
0.0
 11
55.179055
 21
-30.492378
 31
0.0
 11
54.921138
 21
-30.939402
 31
0.0
 11
54.830000
 21
-31.455000
 31
0.0
 11
54.921138
 21
-31.970598
 31
0.0
 11
55.179055
 21
-32.417622
 31
0.0
 11
55.579812
 21
-32.754580
 31
0.0
 11
56.071953
 21
-32.933310
 31
0.0
 11
56.588047
 21
-32.933310
 31
0.0
 11
57.080188
 21
-32.754580
 31
0.0
 11
57.480945
 21
-32.417622
 31
0.0
 11
57.738863
 21
-31.970598
 31
0.0
 11
57.830000
 21
-31.455000
 31
0.0
  0
ENDSEC
  0
SECTION
  2
OBJECTS
  0
DICTIONARY
  5
C
330
0
100
AcDbDictionary
  3
ACAD_GROUP
350
D
  3
ACAD_MLINESTYLE
350
17
  0
DICTIONARY
  5
D
330
C
100
AcDbDictionary
  0
DICTIONARY
  5
1A
330
C
100
AcDbDictionary
  0
DICTIONARY
  5
17
330
C
100
AcDbDictionary
  3
STANDARD
350
18
  0
DICTIONARY
  5
19
330
C
100
AcDbDictionary
  0
ENDSEC
  0
EOF
