  0
SECTION
  2
HEADER
  9
$ACADVER
  1
AC1014
  9
$HANDSEED
  5
FFFF
  9
$MEASUREMENT
 70
     1
  0
ENDSEC
  0
SECTION
  2
TABLES
  0
TABLE
  2
VPORT
  5
8
330
0
100
AcDbSymbolTable
 70
     4
  0
VPORT
  5
2E
330
8
100
AcDbSymbolTableRecord
100
AcDbViewportTableRecord
  2
*ACTIVE
 70
     0
 10
0.0
 20
0.0
 11
1.0
 21
1.0
 12
210.0
 22
148.5
 13
0.0
 23
0.0
 14
10.0
 24
10.0
 15
10.0
 25
10.0
 16
0.0
 26
0.0
 36
1.0
 17
0.0
 27
0.0
 37
0.0
 40
341.0
 41
1.24
 42
50.0
 43
0.0
 44
0.0
 50
0.0
 51
0.0
 71
     0
 72
   100
 73
     1
 74
     3
 75
     0
 76
     0
 77
     0
 78
     0
  0
ENDTAB
  0
TABLE
  2
LTYPE
  5
5
330
0
100
AcDbSymbolTable
 70
     1
  0
LTYPE
  5
14
330
5
100
AcDbSymbolTableRecord
100
AcDbLinetypeTableRecord
  2
BYBLOCK
 70
     0
  3

 72
    65
 73
     0
 40
0.0
  0
LTYPE
  5
15
330
5
100
AcDbSymbolTableRecord
100
AcDbLinetypeTableRecord
  2
BYLAYER
 70
     0
  3

 72
    65
 73
     0
 40
0.0
  0
LTYPE
  5
16
330
5
100
AcDbSymbolTableRecord
100
AcDbLinetypeTableRecord
  2
CONTINUOUS
 70
     0
  3
Solid line
 72
    65
 73
     0
 40
0.0
  0
ENDTAB
  0
TABLE
  2
LAYER
  5
2
100
AcDbSymbolTable
 70
1
  0
LAYER
  5
50
100
AcDbSymbolTableRecord
100
AcDbLayerTableRecord
  2
0
 70
0
  6
CONTINUOUS
  0
ENDTAB
  0
TABLE
  2
STYLE
  5
3
330
0
100
AcDbSymbolTable
 70
     1
  0
STYLE
  5
11
330
3
100
AcDbSymbolTableRecord
100
AcDbTextStyleTableRecord
  2
STANDARD
 70
     0
 40
0.0
 41
1.0
 50
0.0
 71
     0
 42
2.5
  3
txt
  4

  0
ENDTAB
  0
TABLE
  2
VIEW
  5
6
330
0
100
AcDbSymbolTable
 70
     0
  0
ENDTAB
  0
TABLE
  2
UCS
  5
7
330
0
100
AcDbSymbolTable
 70
     0
  0
ENDTAB
  0
TABLE
  2
APPID
  5
9
330
0
100
AcDbSymbolTable
 70
     2
  0
APPID
  5
12
330
9
100
AcDbSymbolTableRecord
100
AcDbRegAppTableRecord
  2
ACAD
 70
     0
  0
ENDTAB
  0
TABLE
  2
DIMSTYLE
  5
A
330
0
100
AcDbSymbolTable
 70
     1
  0
DIMSTYLE
105
27
330
A
100
AcDbSymbolTableRecord
100
AcDbDimStyleTableRecord
  2
ISO-25
 70
     0
  3

  4

  5

  6

  7

 40
1.0
 41
2.5
 42
0.625
 43
3.75
 44
1.25
 45
0.0
 46
0.0
 47
0.0
 48
0.0
140
2.5
141
2.5
142
0.0
143
0.03937007874016
144
1.0
145
0.0
146
1.0
147
0.625
 71
     0
 72
     0
 73
     0
 74
     0
 75
     0
 76
     0
 77
     1
 78
     8
170
     0
171
     3
172
     1
173
     0
174
     0
175
     0
176
     0
177
     0
178
     0
270
     2
271
     2
272
     2
273
     2
274
     3
340
11
275
     0
280
     0
281
     0
282
     0
283
     0
284
     8
285
     0
286
     0
287
     3
288
     0
  0
ENDTAB
  0
TABLE
  2
BLOCK_RECORD
  5
1
330
0
100
AcDbSymbolTable
 70
     1
  0
BLOCK_RECORD
  5
1F
330
1
100
AcDbSymbolTableRecord
100
AcDbBlockTableRecord
  2
*MODEL_SPACE
  0
BLOCK_RECORD
  5
1B
330
1
100
AcDbSymbolTableRecord
100
AcDbBlockTableRecord
  2
*PAPER_SPACE
  0
ENDTAB
  0
ENDSEC
  0
SECTION
  2
BLOCKS
  0
BLOCK
  5
20
330
1F
100
AcDbEntity
  8
0
100
AcDbBlockBegin
  2
*MODEL_SPACE
 70
     0
 10
0.0
 20
0.0
 30
0.0
  3
*MODEL_SPACE
  1

  0
ENDBLK
  5
21
330
1F
100
AcDbEntity
  8
0
100
AcDbBlockEnd
  0
BLOCK
  5
1C
330
1B
100
AcDbEntity
 67
     1
  8
0
100
AcDbBlockBegin
  2
*PAPER_SPACE
  1

  0
ENDBLK
  5
1D
330
1B
100
AcDbEntity
 67
     1
  8
0
100
AcDbBlockEnd
  0
ENDSEC
  0
SECTION
  2
ENTITIES
  0
LINE
  5
100
100
AcDbEntity
  8
0
 62
7
100
AcDbLine
 10
57.830000
 20
-31.455000
 30
0.0
 11
57.830000
 21
-31.455000
 31
0.0
  0
SPLINE
  5
101
100
AcDbEntity
  8
0
 62
7
100
AcDbSpline
 70
0
 71
3
 72
25
 73
21
 74
19
 40
0.000000
 40
0.000000
 40
0.000000
 40
0.000000
 40
0.523591
 40
1.039684
 40
1.563274
 40
2.086865
 40
2.602958
 40
3.126549
 40
3.650140
 40
4.166233
 40
4.689823
 40
5.213414
 40
5.729507
 40
6.253098
 40
6.776689
 40
7.292782
 40
7.816372
 40
8.339963
 40
8.856056
 40
9.379647
 40
9.379647
 40
9.379647
 40
9.379647
 10
57.830000
 20
-31.455000
 30
0.0
 10
57.812144
 20
-31.279571
 30
0.0
 10
57.776688
 20
-30.931226
 30
0.0
 10
57.500640
 20
-30.470817
 30
0.0
 10
57.096334
 20
-30.128498
 30
0.0
 10
56.595612
 20
-29.946936
 30
0.0
 10
56.064273
 20
-29.946936
 30
0.0
 10
55.564250
 20
-30.128498
 30
0.0
 10
55.157155
 20
-30.470817
 30
0.0
 10
54.891470
 20
-30.931226
 30
0.0
 10
54.799043
 20
-31.455000
 30
0.0
 10
54.891470
 20
-31.978774
 30
0.0
 10
55.157155
 20
-32.439183
 30
0.0
 10
55.564250
 20
-32.781502
 30
0.0
 10
56.064273
 20
-32.963063
 30
0.0
 10
56.595612
 20
-32.963063
 30
0.0
 10
57.096334
 20
-32.781502
 30
0.0
 10
57.500640
 20
-32.439183
 30
0.0
 10
57.776688
 20
-31.978774
 30
0.0
 10
57.812144
 20
-31.630429
 30
0.0
 10
57.830000
 20
-31.455000
 30
0.0
 11
57.830000
 21
-31.455000
 31
0.0
 11
57.738863
 21
-30.939402
 31
0.0
 11
57.480945
 21
-30.492378
 31
0.0
 11
57.080188
 21
-30.155420
 31
0.0
 11
56.588047
 21
-29.976690
 31
0.0
 11
56.071953
 21
-29.976690
 31
0.0
 11
55.579812
 21
-30.155420
 31
0.0
 11
55.179055
 21
-30.492378
 31
0.0
 11
54.921138
 21
-30.939402
 31
0.0
 11
54.830000
 21
-31.455000
 31
0.0
 11
54.921138
 21
-31.970598
 31
0.0
 11
55.179055
 21
-32.417622
 31
0.0
 11
55.579812
 21
-32.754580
 31
0.0
 11
56.071953
 21
-32.933310
 31
0.0
 11
56.588047
 21
-32.933310
 31
0.0
 11
57.080188
 21
-32.754580
 31
0.0
 11
57.480945
 21
-32.417622
 31
0.0
 11
57.738863
 21
-31.970598
 31
0.0
 11
57.830000
 21
-31.455000
 31
0.0
  0
LINE
  5
102
100
AcDbEntity
  8
0
 62
7
100
AcDbLine
 10
-54.830000
 20
-31.455000
 30
0.0
 11
-54.830000
 21
-31.455000
 31
0.0
  0
SPLINE
  5
103
100
AcDbEntity
  8
0
 62
7
100
AcDbSpline
 70
0
 71
3
 72
25
 73
21
 74
19
 40
0.000000
 40
0.000000
 40
0.000000
 40
0.000000
 40
0.523591
 40
1.039684
 40
1.563274
 40
2.086865
 40
2.602958
 40
3.126549
 40
3.650140
 40
4.166233
 40
4.689823
 40
5.213414
 40
5.729507
 40
6.253098
 40
6.776689
 40
7.292782
 40
7.816372
 40
8.339963
 40
8.856056
 40
9.379647
 40
9.379647
 40
9.379647
 40
9.379647
 10
-54.830000
 20
-31.455000
 30
0.0
 10
-54.847856
 20
-31.279571
 30
0.0
 10
-54.883312
 20
-30.931226
 30
0.0
 10
-55.159360
 20
-30.470817
 30
0.0
 10
-55.563666
 20
-30.128498
 30
0.0
 10
-56.064388
 20
-29.946936
 30
0.0
 10
-56.595727
 20
-29.946936
 30
0.0
 10
-57.095750
 20
-30.128498
 30
0.0
 10
-57.502845
 20
-30.470817
 30
0.0
 10
-57.768530
 20
-30.931226
 30
0.0
 10
-57.860957
 20
-31.455000
 30
0.0
 10
-57.768530
 20
-31.978774
 30
0.0
 10
-57.502845
 20
-32.439183
 30
0.0
 10
-57.095750
 20
-32.781502
 30
0.0
 10
-56.595727
 20
-32.963063
 30
0.0
 10
-56.064388
 20
-32.963063
 30
0.0
 10
-55.563666
 20
-32.781502
 30
0.0
 10
-55.159360
 20
-32.439183
 30
0.0
 10
-54.883312
 20
-31.978774
 30
0.0
 10
-54.847856
 20
-31.630429
 30
0.0
 10
-54.830000
 20
-31.455000
 30
0.0
 11
-54.830000
 21
-31.455000
 31
0.0
 11
-54.921138
 21
-30.939402
 31
0.0
 11
-55.179055
 21
-30.492378
 31
0.0
 11
-55.579812
 21
-30.155420
 31
0.0
 11
-56.071953
 21
-29.976690
 31
0.0
 11
-56.588047
 21
-29.976690
 31
0.0
 11
-57.080188
 21
-30.155420
 31
0.0
 11
-57.480945
 21
-30.492378
 31
0.0
 11
-57.738863
 21
-30.939402
 31
0.0
 11
-57.830000
 21
-31.455000
 31
0.0
 11
-57.738863
 21
-31.970598
 31
0.0
 11
-57.480945
 21
-32.417622
 31
0.0
 11
-57.080188
 21
-32.754580
 31
0.0
 11
-56.588047
 21
-32.933310
 31
0.0
 11
-56.071953
 21
-32.933310
 31
0.0
 11
-55.579812
 21
-32.754580
 31
0.0
 11
-55.179055
 21
-32.417622
 31
0.0
 11
-54.921138
 21
-31.970598
 31
0.0
 11
-54.830000
 21
-31.455000
 31
0.0
  0
LINE
  5
104
100
AcDbEntity
  8
0
 62
7
100
AcDbLine
 10
-54.830000
 20
31.455000
 30
0.0
 11
-54.830000
 21
31.455000
 31
0.0
  0
SPLINE
  5
105
100
AcDbEntity
  8
0
 62
7
100
AcDbSpline
 70
0
 71
3
 72
25
 73
21
 74
19
 40
0.000000
 40
0.000000
 40
0.000000
 40
0.000000
 40
0.523591
 40
1.039684
 40
1.563274
 40
2.086865
 40
2.602958
 40
3.126549
 40
3.650140
 40
4.166233
 40
4.689823
 40
5.213414
 40
5.729507
 40
6.253098
 40
6.776689
 40
7.292782
 40
7.816372
 40
8.339963
 40
8.856056
 40
9.379647
 40
9.379647
 40
9.379647
 40
9.379647
 10
-54.830000
 20
31.455000
 30
0.0
 10
-54.847856
 20
31.630429
 30
0.0
 10
-54.883312
 20
31.978774
 30
0.0
 10
-55.159360
 20
32.439183
 30
0.0
 10
-55.563666
 20
32.781502
 30
0.0
 10
-56.064388
 20
32.963064
 30
0.0
 10
-56.595727
 20
32.963064
 30
0.0
 10
-57.095750
 20
32.781502
 30
0.0
 10
-57.502845
 20
32.439183
 30
0.0
 10
-57.768530
 20
31.978774
 30
0.0
 10
-57.860957
 20
31.455000
 30
0.0
 10
-57.768530
 20
30.931226
 30
0.0
 10
-57.502845
 20
30.470817
 30
0.0
 10
-57.095750
 20
30.128498
 30
0.0
 10
-56.595727
 20
29.946937
 30
0.0
 10
-56.064388
 20
29.946937
 30
0.0
 10
-55.563666
 20
30.128498
 30
0.0
 10
-55.159360
 20
30.470817
 30
0.0
 10
-54.883312
 20
30.931226
 30
0.0
 10
-54.847856
 20
31.279571
 30
0.0
 10
-54.830000
 20
31.455000
 30
0.0
 11
-54.830000
 21
31.455000
 31
0.0
 11
-54.921138
 21
31.970598
 31
0.0
 11
-55.179055
 21
32.417622
 31
0.0
 11
-55.579812
 21
32.754580
 31
0.0
 11
-56.071953
 21
32.933310
 31
0.0
 11
-56.588047
 21
32.933310
 31
0.0
 11
-57.080188
 21
32.754580
 31
0.0
 11
-57.480945
 21
32.417622
 31
0.0
 11
-57.738863
 21
31.970598
 31
0.0
 11
-57.830000
 21
31.455000
 31
0.0
 11
-57.738863
 21
30.939402
 31
0.0
 11
-57.480945
 21
30.492378
 31
0.0
 11
-57.080188
 21
30.155420
 31
0.0
 11
-56.588047
 21
29.976690
 31
0.0
 11
-56.071953
 21
29.976690
 31
0.0
 11
-55.579812
 21
30.155420
 31
0.0
 11
-55.179055
 21
30.492378
 31
0.0
 11
-54.921138
 21
30.939402
 31
0.0
 11
-54.830000
 21
31.455000
 31
0.0
  0
LINE
  5
106
100
AcDbEntity
  8
0
 62
7
100
AcDbLine
 10
57.830000
 20
31.455000
 30
0.0
 11
57.830000
 21
31.455000
 31
0.0
  0
SPLINE
  5
107
100
AcDbEntity
  8
0
 62
7
100
AcDbSpline
 70
0
 71
3
 72
25
 73
21
 74
19
 40
0.000000
 40
0.000000
 40
0.000000
 40
0.000000
 40
0.523591
 40
1.039684
 40
1.563274
 40
2.086865
 40
2.602958
 40
3.126549
 40
3.650140
 40
4.166233
 40
4.689823
 40
5.213414
 40
5.729507
 40
6.253098
 40
6.776689
 40
7.292782
 40
7.816372
 40
8.339963
 40
8.856056
 40
9.379647
 40
9.379647
 40
9.379647
 40
9.379647
 10
57.830000
 20
31.455000
 30
0.0
 10
57.812144
 20
31.630429
 30
0.0
 10
57.776688
 20
31.978774
 30
0.0
 10
57.500640
 20
32.439183
 30
0.0
 10
57.096334
 20
32.781502
 30
0.0
 10
56.595612
 20
32.963064
 30
0.0
 10
56.064273
 20
32.963064
 30
0.0
 10
55.564250
 20
32.781502
 30
0.0
 10
55.157155
 20
32.439183
 30
0.0
 10
54.891470
 20
31.978774
 30
0.0
 10
54.799043
 20
31.455000
 30
0.0
 10
54.891470
 20
30.931226
 30
0.0
 10
55.157155
 20
30.470817
 30
0.0
 10
55.564250
 20
30.128498
 30
0.0
 10
56.064273
 20
29.946937
 30
0.0
 10
56.595612
 20
29.946937
 30
0.0
 10
57.096334
 20
30.128498
 30
0.0
 10
57.500640
 20
30.470817
 30
0.0
 10
57.776688
 20
30.931226
 30
0.0
 10
57.812144
 20
31.279571
 30
0.0
 10
57.830000
 20
31.455000
 30
0.0
 11
57.830000
 21
31.455000
 31
0.0
 11
57.738863
 21
31.970598
 31
0.0
 11
57.480945
 21
32.417622
 31
0.0
 11
57.080188
 21
32.754580
 31
0.0
 11
56.588047
 21
32.933310
 31
0.0
 11
56.071953
 21
32.933310
 31
0.0
 11
55.579812
 21
32.754580
 31
0.0
 11
55.179055
 21
32.417622
 31
0.0
 11
54.921138
 21
31.970598
 31
0.0
 11
54.830000
 21
31.455000
 31
0.0
 11
54.921138
 21
30.939402
 31
0.0
 11
55.179055
 21
30.492378
 31
0.0
 11
55.579812
 21
30.155420
 31
0.0
 11
56.071953
 21
29.976690
 31
0.0
 11
56.588047
 21
29.976690
 31
0.0
 11
57.080188
 21
30.155420
 31
0.0
 11
57.480945
 21
30.492378
 31
0.0
 11
57.738863
 21
30.939402
 31
0.0
 11
57.830000
 21
31.455000
 31
0.0
  0
LINE
  5
108
100
AcDbEntity
  8
0
 62
7
100
AcDbLine
 10
-37.233330
 20
-23.024998
 30
0.0
 11
-37.500000
 21
-23.024998
 31
0.0
  0
SPLINE
  5
109
100
AcDbEntity
  8
0
 62
7
100
AcDbSpline
 70
0
 71
3
 72
10
 73
6
 74
4
 40
0.000000
 40
0.000000
 40
0.000000
 40
0.000000
 40
2.562010
 40
5.048031
 40
7.610040
 40
7.610040
 40
7.610040
 40
7.610040
 10
-32.333330
 20
-27.924997
 30
0.0
 10
-32.468106
 20
-27.066391
 30
0.0
 10
-32.733659
 20
-25.374644
 30
0.0
 10
-34.682976
 20
-23.425326
 30
0.0
 10
-36.374723
 20
-23.159773
 30
0.0
 10
-37.233330
 20
-23.024998
 30
0.0
 11
-32.333330
 21
-27.924997
 31
0.0
 11
-33.002324
 21
-25.451874
 31
0.0
 11
-34.760206
 21
-23.693991
 31
0.0
 11
-37.233330
 21
-23.024998
 31
0.0
  0
LINE
  5
10a
100
AcDbEntity
  8
0
 62
7
100
AcDbLine
 10
-39.500000
 20
21.024998
 30
0.0
 11
-39.500000
 21
-21.024998
 31
0.0
  0
SPLINE
  5
10b
100
AcDbEntity
  8
0
 62
7
100
AcDbSpline
 70
0
 71
3
 72
13
 73
9
 74
7
 40
0.000000
 40
0.000000
 40
0.000000
 40
0.000000
 40
0.523550
 40
1.042767
 40
1.566317
 40
2.089866
 40
2.609084
 40
3.132633
 40
3.132633
 40
3.132633
 40
3.132633
 10
-39.500000
 20
-21.024998
 30
0.0
 10
-39.486668
 20
-21.200024
 30
0.0
 10
-39.460113
 20
-21.548629
 30
0.0
 10
-39.250262
 20
-22.036311
 30
0.0
 10
-38.930996
 20
-22.455993
 30
0.0
 10
-38.511313
 20
-22.775260
 30
0.0
 10
-38.023631
 20
-22.985110
 30
0.0
 10
-37.675027
 20
-23.011665
 30
0.0
 10
-37.500000
 20
-23.024998
 30
0.0
 11
-39.500000
 21
-21.024998
 31
0.0
 11
-39.431479
 21
-21.544044
 31
0.0
 11
-39.232783
 21
-22.023738
 31
0.0
 11
-38.914214
 21
-22.439211
 31
0.0
 11
-38.498741
 21
-22.757781
 31
0.0
 11
-38.019047
 21
-22.956477
 31
0.0
 11
-37.500000
 21
-23.024998
 31
0.0
  0
LINE
  5
10c
100
AcDbEntity
  8
0
 62
7
100
AcDbLine
 10
-37.500000
 20
23.024997
 30
0.0
 11
-37.233330
 21
23.024997
 31
0.0
  0
SPLINE
  5
10d
100
AcDbEntity
  8
0
 62
7
100
AcDbSpline
 70
0
 71
3
 72
13
 73
9
 74
7
 40
0.000000
 40
0.000000
 40
0.000000
 40
0.000000
 40
0.523550
 40
1.042767
 40
1.566317
 40
2.089866
 40
2.609084
 40
3.132633
 40
3.132633
 40
3.132633
 40
3.132633
 10
-37.500000
 20
23.024997
 30
0.0
 10
-37.675027
 20
23.011665
 30
0.0
 10
-38.023631
 20
22.985110
 30
0.0
 10
-38.511313
 20
22.775260
 30
0.0
 10
-38.930996
 20
22.455993
 30
0.0
 10
-39.250262
 20
22.036311
 30
0.0
 10
-39.460113
 20
21.548629
 30
0.0
 10
-39.486668
 20
21.200024
 30
0.0
 10
-39.500000
 20
21.024998
 30
0.0
 11
-37.500000
 21
23.024997
 31
0.0
 11
-38.019047
 21
22.956476
 31
0.0
 11
-38.498741
 21
22.757781
 31
0.0
 11
-38.914214
 21
22.439211
 31
0.0
 11
-39.232783
 21
22.023738
 31
0.0
 11
-39.431479
 21
21.544044
 31
0.0
 11
-39.500000
 21
21.024998
 31
0.0
  0
LINE
  5
10e
100
AcDbEntity
  8
0
 62
7
100
AcDbLine
 10
-32.333330
 20
27.924998
 30
0.0
 11
-32.333330
 21
28.500000
 31
0.0
  0
SPLINE
  5
10f
100
AcDbEntity
  8
0
 62
7
100
AcDbSpline
 70
0
 71
3
 72
10
 73
6
 74
4
 40
0.000000
 40
0.000000
 40
0.000000
 40
0.000000
 40
2.562010
 40
5.048031
 40
7.610041
 40
7.610041
 40
7.610041
 40
7.610041
 10
-37.233330
 20
23.024997
 30
0.0
 10
-36.374723
 20
23.159773
 30
0.0
 10
-34.682976
 20
23.425326
 30
0.0
 10
-32.733659
 20
25.374644
 30
0.0
 10
-32.468105
 20
27.066391
 30
0.0
 10
-32.333330
 20
27.924998
 30
0.0
 11
-37.233330
 21
23.024997
 31
0.0
 11
-34.760206
 21
23.693991
 31
0.0
 11
-33.002324
 21
25.451874
 31
0.0
 11
-32.333330
 21
27.924998
 31
0.0
  0
LINE
  5
110
100
AcDbEntity
  8
0
 62
7
100
AcDbLine
 10
30.333330
 20
30.500000
 30
0.0
 11
-30.333330
 21
30.500000
 31
0.0
  0
SPLINE
  5
111
100
AcDbEntity
  8
0
 62
7
100
AcDbSpline
 70
0
 71
3
 72
13
 73
9
 74
7
 40
0.000000
 40
0.000000
 40
0.000000
 40
0.000000
 40
0.523550
 40
1.042767
 40
1.566317
 40
2.089867
 40
2.609084
 40
3.132634
 40
3.132634
 40
3.132634
 40
3.132634
 10
-30.333330
 20
30.500000
 30
0.0
 10
-30.508356
 20
30.486667
 30
0.0
 10
-30.856961
 20
30.460113
 30
0.0
 10
-31.344643
 20
30.250262
 30
0.0
 10
-31.764326
 20
29.930996
 30
0.0
 10
-32.083593
 20
29.511313
 30
0.0
 10
-32.293443
 20
29.023631
 30
0.0
 10
-32.319998
 20
28.675026
 30
0.0
 10
-32.333330
 20
28.500000
 30
0.0
 11
-30.333330
 21
30.500000
 31
0.0
 11
-30.852376
 21
30.431479
 31
0.0
 11
-31.332071
 21
30.232783
 31
0.0
 11
-31.747544
 21
29.914214
 31
0.0
 11
-32.066113
 21
29.498741
 31
0.0
 11
-32.264809
 21
29.019046
 31
0.0
 11
-32.333330
 21
28.500000
 31
0.0
  0
LINE
  5
112
100
AcDbEntity
  8
0
 62
7
100
AcDbLine
 10
32.333330
 20
28.500000
 30
0.0
 11
32.333330
 21
27.924998
 31
0.0
  0
SPLINE
  5
113
100
AcDbEntity
  8
0
 62
7
100
AcDbSpline
 70
0
 71
3
 72
13
 73
9
 74
7
 40
0.000000
 40
0.000000
 40
0.000000
 40
0.000000
 40
0.523550
 40
1.042767
 40
1.566317
 40
2.089867
 40
2.609084
 40
3.132634
 40
3.132634
 40
3.132634
 40
3.132634
 10
32.333330
 20
28.500000
 30
0.0
 10
32.319998
 20
28.675026
 30
0.0
 10
32.293443
 20
29.023631
 30
0.0
 10
32.083593
 20
29.511313
 30
0.0
 10
31.764326
 20
29.930996
 30
0.0
 10
31.344643
 20
30.250262
 30
0.0
 10
30.856961
 20
30.460113
 30
0.0
 10
30.508356
 20
30.486667
 30
0.0
 10
30.333330
 20
30.500000
 30
0.0
 11
32.333330
 21
28.500000
 31
0.0
 11
32.264809
 21
29.019046
 31
0.0
 11
32.066113
 21
29.498741
 31
0.0
 11
31.747544
 21
29.914214
 31
0.0
 11
31.332071
 21
30.232783
 31
0.0
 11
30.852376
 21
30.431479
 31
0.0
 11
30.333330
 21
30.500000
 31
0.0
  0
LINE
  5
114
100
AcDbEntity
  8
0
 62
7
100
AcDbLine
 10
37.233330
 20
23.024997
 30
0.0
 11
37.500000
 21
23.024997
 31
0.0
  0
SPLINE
  5
115
100
AcDbEntity
  8
0
 62
7
100
AcDbSpline
 70
0
 71
3
 72
10
 73
6
 74
4
 40
0.000000
 40
0.000000
 40
0.000000
 40
0.000000
 40
2.562010
 40
5.048031
 40
7.610041
 40
7.610041
 40
7.610041
 40
7.610041
 10
32.333330
 20
27.924998
 30
0.0
 10
32.468105
 20
27.066391
 30
0.0
 10
32.733659
 20
25.374644
 30
0.0
 10
34.682976
 20
23.425326
 30
0.0
 10
36.374723
 20
23.159773
 30
0.0
 10
37.233330
 20
23.024997
 30
0.0
 11
32.333330
 21
27.924998
 31
0.0
 11
33.002324
 21
25.451874
 31
0.0
 11
34.760206
 21
23.693991
 31
0.0
 11
37.233330
 21
23.024997
 31
0.0
  0
LINE
  5
116
100
AcDbEntity
  8
0
 62
7
100
AcDbLine
 10
39.500000
 20
-21.024998
 30
0.0
 11
39.500000
 21
21.024998
 31
0.0
  0
SPLINE
  5
117
100
AcDbEntity
  8
0
 62
7
100
AcDbSpline
 70
0
 71
3
 72
13
 73
9
 74
7
 40
0.000000
 40
0.000000
 40
0.000000
 40
0.000000
 40
0.523550
 40
1.042767
 40
1.566317
 40
2.089866
 40
2.609084
 40
3.132633
 40
3.132633
 40
3.132633
 40
3.132633
 10
39.500000
 20
21.024998
 30
0.0
 10
39.486668
 20
21.200024
 30
0.0
 10
39.460113
 20
21.548629
 30
0.0
 10
39.250262
 20
22.036311
 30
0.0
 10
38.930996
 20
22.455993
 30
0.0
 10
38.511313
 20
22.775260
 30
0.0
 10
38.023631
 20
22.985110
 30
0.0
 10
37.675027
 20
23.011665
 30
0.0
 10
37.500000
 20
23.024997
 30
0.0
 11
39.500000
 21
21.024998
 31
0.0
 11
39.431479
 21
21.544044
 31
0.0
 11
39.232783
 21
22.023738
 31
0.0
 11
38.914214
 21
22.439211
 31
0.0
 11
38.498741
 21
22.757781
 31
0.0
 11
38.019047
 21
22.956476
 31
0.0
 11
37.500000
 21
23.024997
 31
0.0
  0
LINE
  5
118
100
AcDbEntity
  8
0
 62
7
100
AcDbLine
 10
37.500000
 20
-23.024998
 30
0.0
 11
37.233330
 21
-23.024998
 31
0.0
  0
SPLINE
  5
119
100
AcDbEntity
  8
0
 62
7
100
AcDbSpline
 70
0
 71
3
 72
13
 73
9
 74
7
 40
0.000000
 40
0.000000
 40
0.000000
 40
0.000000
 40
0.523550
 40
1.042767
 40
1.566317
 40
2.089866
 40
2.609084
 40
3.132633
 40
3.132633
 40
3.132633
 40
3.132633
 10
37.500000
 20
-23.024998
 30
0.0
 10
37.675027
 20
-23.011665
 30
0.0
 10
38.023631
 20
-22.985110
 30
0.0
 10
38.511313
 20
-22.775260
 30
0.0
 10
38.930996
 20
-22.455993
 30
0.0
 10
39.250262
 20
-22.036311
 30
0.0
 10
39.460113
 20
-21.548629
 30
0.0
 10
39.486668
 20
-21.200024
 30
0.0
 10
39.500000
 20
-21.024998
 30
0.0
 11
37.500000
 21
-23.024998
 31
0.0
 11
38.019047
 21
-22.956477
 31
0.0
 11
38.498741
 21
-22.757781
 31
0.0
 11
38.914214
 21
-22.439211
 31
0.0
 11
39.232783
 21
-22.023738
 31
0.0
 11
39.431479
 21
-21.544044
 31
0.0
 11
39.500000
 21
-21.024998
 31
0.0
  0
LINE
  5
11a
100
AcDbEntity
  8
0
 62
7
100
AcDbLine
 10
32.333330
 20
-27.924997
 30
0.0
 11
32.333330
 21
-28.500000
 31
0.0
  0
SPLINE
  5
11b
100
AcDbEntity
  8
0
 62
7
100
AcDbSpline
 70
0
 71
3
 72
10
 73
6
 74
4
 40
0.000000
 40
0.000000
 40
0.000000
 40
0.000000
 40
2.562010
 40
5.048031
 40
7.610040
 40
7.610040
 40
7.610040
 40
7.610040
 10
37.233330
 20
-23.024998
 30
0.0
 10
36.374723
 20
-23.159773
 30
0.0
 10
34.682976
 20
-23.425326
 30
0.0
 10
32.733659
 20
-25.374644
 30
0.0
 10
32.468106
 20
-27.066391
 30
0.0
 10
32.333330
 20
-27.924997
 30
0.0
 11
37.233330
 21
-23.024998
 31
0.0
 11
34.760206
 21
-23.693991
 31
0.0
 11
33.002324
 21
-25.451874
 31
0.0
 11
32.333330
 21
-27.924997
 31
0.0
  0
LINE
  5
11c
100
AcDbEntity
  8
0
 62
7
100
AcDbLine
 10
-30.333330
 20
-30.500000
 30
0.0
 11
30.333330
 21
-30.500000
 31
0.0
  0
SPLINE
  5
11d
100
AcDbEntity
  8
0
 62
7
100
AcDbSpline
 70
0
 71
3
 72
13
 73
9
 74
7
 40
0.000000
 40
0.000000
 40
0.000000
 40
0.000000
 40
0.523550
 40
1.042767
 40
1.566317
 40
2.089867
 40
2.609084
 40
3.132634
 40
3.132634
 40
3.132634
 40
3.132634
 10
30.333330
 20
-30.500000
 30
0.0
 10
30.508356
 20
-30.486668
 30
0.0
 10
30.856961
 20
-30.460113
 30
0.0
 10
31.344643
 20
-30.250263
 30
0.0
 10
31.764326
 20
-29.930996
 30
0.0
 10
32.083593
 20
-29.511313
 30
0.0
 10
32.293443
 20
-29.023631
 30
0.0
 10
32.319998
 20
-28.675027
 30
0.0
 10
32.333330
 20
-28.500000
 30
0.0
 11
30.333330
 21
-30.500000
 31
0.0
 11
30.852376
 21
-30.431479
 31
0.0
 11
31.332071
 21
-30.232783
 31
0.0
 11
31.747544
 21
-29.914214
 31
0.0
 11
32.066113
 21
-29.498741
 31
0.0
 11
32.264809
 21
-29.019047
 31
0.0
 11
32.333330
 21
-28.500000
 31
0.0
  0
LINE
  5
11e
100
AcDbEntity
  8
0
 62
7
100
AcDbLine
 10
-32.333330
 20
-28.500000
 30
0.0
 11
-32.333330
 21
-27.924997
 31
0.0
  0
SPLINE
  5
11f
100
AcDbEntity
  8
0
 62
7
100
AcDbSpline
 70
0
 71
3
 72
13
 73
9
 74
7
 40
0.000000
 40
0.000000
 40
0.000000
 40
0.000000
 40
0.523550
 40
1.042767
 40
1.566317
 40
2.089867
 40
2.609084
 40
3.132634
 40
3.132634
 40
3.132634
 40
3.132634
 10
-32.333330
 20
-28.500000
 30
0.0
 10
-32.319998
 20
-28.675027
 30
0.0
 10
-32.293443
 20
-29.023631
 30
0.0
 10
-32.083593
 20
-29.511313
 30
0.0
 10
-31.764326
 20
-29.930996
 30
0.0
 10
-31.344643
 20
-30.250263
 30
0.0
 10
-30.856961
 20
-30.460113
 30
0.0
 10
-30.508356
 20
-30.486668
 30
0.0
 10
-30.333330
 20
-30.500000
 30
0.0
 11
-32.333330
 21
-28.500000
 31
0.0
 11
-32.264809
 21
-29.019047
 31
0.0
 11
-32.066113
 21
-29.498741
 31
0.0
 11
-31.747544
 21
-29.914214
 31
0.0
 11
-31.332071
 21
-30.232783
 31
0.0
 11
-30.852376
 21
-30.431479
 31
0.0
 11
-30.333330
 21
-30.500000
 31
0.0
  0
LINE
  5
120
100
AcDbEntity
  8
0
 62
7
100
AcDbLine
 10
-66.250000
 20
26.300000
 30
0.0
 11
-66.250000
 21
26.300000
 31
0.0
  0
SPLINE
  5
121
100
AcDbEntity
  8
0
 62
7
100
AcDbSpline
 70
0
 71
3
 72
25
 73
21
 74
19
 40
0.000000
 40
0.000000
 40
0.000000
 40
0.000000
 40
0.436205
 40
0.866168
 40
1.302373
 40
1.738578
 40
2.168540
 40
2.604745
 40
3.040951
 40
3.470913
 40
3.907118
 40
4.343323
 40
4.773286
 40
5.209491
 40
5.645696
 40
6.075658
 40
6.511863
 40
6.948069
 40
7.378031
 40
7.814236
 40
7.814236
 40
7.814236
 40
7.814236
 10
-66.250000
 20
26.300000
 30
0.0
 10
-66.264935
 20
26.446143
 30
0.0
 10
-66.294591
 20
26.736338
 30
0.0
 10
-66.524674
 20
27.119836
 30
0.0
 10
-66.861555
 20
27.404956
 30
0.0
 10
-67.278719
 20
27.556174
 30
0.0
 10
-67.721377
 20
27.556174
 30
0.0
 10
-68.137956
 20
27.404956
 30
0.0
 10
-68.477170
 20
27.119836
 30
0.0
 10
-68.698585
 20
26.736338
 30
0.0
 10
-68.775893
 20
26.300000
 30
0.0
 10
-68.698585
 20
25.863662
 30
0.0
 10
-68.477170
 20
25.480164
 30
0.0
 10
-68.137956
 20
25.195044
 30
0.0
 10
-67.721377
 20
25.043826
 30
0.0
 10
-67.278719
 20
25.043826
 30
0.0
 10
-66.861555
 20
25.195044
 30
0.0
 10
-66.524674
 20
25.480164
 30
0.0
 10
-66.294591
 20
25.863662
 30
0.0
 10
-66.264935
 20
26.153857
 30
0.0
 10
-66.250000
 20
26.300000
 30
0.0
 11
-66.250000
 21
26.300000
 31
0.0
 11
-66.326092
 21
26.729517
 31
0.0
 11
-66.541073
 21
27.101875
 31
0.0
 11
-66.875000
 21
27.382532
 31
0.0
 11
-67.285019
 21
27.531393
 31
0.0
 11
-67.714981
 21
27.531393
 31
0.0
 11
-68.125000
 21
27.382532
 31
0.0
 11
-68.458926
 21
27.101875
 31
0.0
 11
-68.673908
 21
26.729517
 31
0.0
 11
-68.750000
 21
26.300000
 31
0.0
 11
-68.673908
 21
25.870483
 31
0.0
 11
-68.458926
 21
25.498125
 31
0.0
 11
-68.125000
 21
25.217468
 31
0.0
 11
-67.714981
 21
25.068608
 31
0.0
 11
-67.285019
 21
25.068608
 31
0.0
 11
-66.875000
 21
25.217468
 31
0.0
 11
-66.541073
 21
25.498125
 31
0.0
 11
-66.326092
 21
25.870483
 31
0.0
 11
-66.250000
 21
26.300000
 31
0.0
  0
LINE
  5
122
100
AcDbEntity
  8
0
 62
7
100
AcDbLine
 10
-75.750000
 20
26.300000
 30
0.0
 11
-75.750000
 21
26.300000
 31
0.0
  0
SPLINE
  5
123
100
AcDbEntity
  8
0
 62
7
100
AcDbSpline
 70
0
 71
3
 72
25
 73
21
 74
19
 40
0.000000
 40
0.000000
 40
0.000000
 40
0.000000
 40
0.436205
 40
0.866168
 40
1.302373
 40
1.738578
 40
2.168540
 40
2.604745
 40
3.040951
 40
3.470913
 40
3.907118
 40
4.343323
 40
4.773286
 40
5.209491
 40
5.645696
 40
6.075658
 40
6.511863
 40
6.948069
 40
7.378031
 40
7.814236
 40
7.814236
 40
7.814236
 40
7.814236
 10
-75.750000
 20
26.300000
 30
0.0
 10
-75.764935
 20
26.446143
 30
0.0
 10
-75.794591
 20
26.736338
 30
0.0
 10
-76.024675
 20
27.119836
 30
0.0
 10
-76.361555
 20
27.404956
 30
0.0
 10
-76.778719
 20
27.556174
 30
0.0
 10
-77.221377
 20
27.556174
 30
0.0
 10
-77.637956
 20
27.404956
 30
0.0
 10
-77.977170
 20
27.119836
 30
0.0
 10
-78.198586
 20
26.736338
 30
0.0
 10
-78.275893
 20
26.300000
 30
0.0
 10
-78.198586
 20
25.863662
 30
0.0
 10
-77.977170
 20
25.480164
 30
0.0
 10
-77.637956
 20
25.195044
 30
0.0
 10
-77.221377
 20
25.043826
 30
0.0
 10
-76.778719
 20
25.043826
 30
0.0
 10
-76.361555
 20
25.195044
 30
0.0
 10
-76.024675
 20
25.480164
 30
0.0
 10
-75.794591
 20
25.863662
 30
0.0
 10
-75.764935
 20
26.153857
 30
0.0
 10
-75.750000
 20
26.300000
 30
0.0
 11
-75.750000
 21
26.300000
 31
0.0
 11
-75.826092
 21
26.729517
 31
0.0
 11
-76.041074
 21
27.101875
 31
0.0
 11
-76.375000
 21
27.382532
 31
0.0
 11
-76.785019
 21
27.531393
 31
0.0
 11
-77.214981
 21
27.531393
 31
0.0
 11
-77.625000
 21
27.382532
 31
0.0
 11
-77.958927
 21
27.101875
 31
0.0
 11
-78.173908
 21
26.729517
 31
0.0
 11
-78.250000
 21
26.300000
 31
0.0
 11
-78.173908
 21
25.870483
 31
0.0
 11
-77.958927
 21
25.498125
 31
0.0
 11
-77.625000
 21
25.217468
 31
0.0
 11
-77.214981
 21
25.068608
 31
0.0
 11
-76.785019
 21
25.068608
 31
0.0
 11
-76.375000
 21
25.217468
 31
0.0
 11
-76.041074
 21
25.498125
 31
0.0
 11
-75.826092
 21
25.870483
 31
0.0
 11
-75.750000
 21
26.300000
 31
0.0
  0
LINE
  5
124
100
AcDbEntity
  8
0
 62
7
100
AcDbLine
 10
70.500000
 20
-9.000000
 30
0.0
 11
70.500000
 21
-9.000000
 31
0.0
  0
SPLINE
  5
125
100
AcDbEntity
  8
0
 62
7
100
AcDbSpline
 70
0
 71
3
 72
25
 73
21
 74
19
 40
0.000000
 40
0.000000
 40
0.000000
 40
0.000000
 40
0.523446
 40
1.039401
 40
1.562847
 40
2.086294
 40
2.602249
 40
3.125695
 40
3.649141
 40
4.165096
 40
4.688542
 40
5.211988
 40
5.727943
 40
6.251390
 40
6.774836
 40
7.290791
 40
7.814237
 40
8.337683
 40
8.853638
 40
9.377084
 40
9.377084
 40
9.377084
 40
9.377084
 10
70.500000
 20
-9.000000
 30
0.0
 10
70.482078
 20
-8.824628
 30
0.0
 10
70.446491
 20
-8.476394
 30
0.0
 10
70.170391
 20
-8.016197
 30
0.0
 10
69.766134
 20
-7.674053
 30
0.0
 10
69.265537
 20
-7.492591
 30
0.0
 10
68.734348
 20
-7.492591
 30
0.0
 10
68.234453
 20
-7.674053
 30
0.0
 10
67.827396
 20
-8.016197
 30
0.0
 10
67.561697
 20
-8.476394
 30
0.0
 10
67.468929
 20
-9.000000
 30
0.0
 10
67.561697
 20
-9.523606
 30
0.0
 10
67.827396
 20
-9.983803
 30
0.0
 10
68.234453
 20
-10.325947
 30
0.0
 10
68.734348
 20
-10.507409
 30
0.0
 10
69.265537
 20
-10.507409
 30
0.0
 10
69.766134
 20
-10.325947
 30
0.0
 10
70.170391
 20
-9.983803
 30
0.0
 10
70.446491
 20
-9.523606
 30
0.0
 10
70.482078
 20
-9.175372
 30
0.0
 10
70.500000
 20
-9.000000
 30
0.0
 11
70.500000
 21
-9.000000
 31
0.0
 11
70.408689
 21
-8.484580
 31
0.0
 11
70.150712
 21
-8.037750
 31
0.0
 11
69.750000
 21
-7.700962
 31
0.0
 11
69.257977
 21
-7.522329
 31
0.0
 11
68.742023
 21
-7.522329
 31
0.0
 11
68.250000
 21
-7.700962
 31
0.0
 11
67.849288
 21
-8.037750
 31
0.0
 11
67.591311
 21
-8.484580
 31
0.0
 11
67.500000
 21
-9.000000
 31
0.0
 11
67.591311
 21
-9.515421
 31
0.0
 11
67.849288
 21
-9.962251
 31
0.0
 11
68.250000
 21
-10.299038
 31
0.0
 11
68.742023
 21
-10.477671
 31
0.0
 11
69.257977
 21
-10.477671
 31
0.0
 11
69.750000
 21
-10.299038
 31
0.0
 11
70.150712
 21
-9.962251
 31
0.0
 11
70.408689
 21
-9.515421
 31
0.0
 11
70.500000
 21
-9.000000
 31
0.0
  0
LINE
  5
126
100
AcDbEntity
  8
0
 62
7
100
AcDbLine
 10
70.500000
 20
9.000000
 30
0.0
 11
70.500000
 21
9.000000
 31
0.0
  0
SPLINE
  5
127
100
AcDbEntity
  8
0
 62
7
100
AcDbSpline
 70
0
 71
3
 72
25
 73
21
 74
19
 40
0.000000
 40
0.000000
 40
0.000000
 40
0.000000
 40
0.523446
 40
1.039401
 40
1.562847
 40
2.086294
 40
2.602249
 40
3.125695
 40
3.649141
 40
4.165096
 40
4.688542
 40
5.211988
 40
5.727943
 40
6.251390
 40
6.774836
 40
7.290791
 40
7.814237
 40
8.337683
 40
8.853638
 40
9.377084
 40
9.377084
 40
9.377084
 40
9.377084
 10
70.500000
 20
9.000000
 30
0.0
 10
70.482078
 20
9.175372
 30
0.0
 10
70.446491
 20
9.523606
 30
0.0
 10
70.170391
 20
9.983803
 30
0.0
 10
69.766134
 20
10.325947
 30
0.0
 10
69.265537
 20
10.507409
 30
0.0
 10
68.734348
 20
10.507409
 30
0.0
 10
68.234453
 20
10.325947
 30
0.0
 10
67.827396
 20
9.983803
 30
0.0
 10
67.561697
 20
9.523606
 30
0.0
 10
67.468929
 20
9.000000
 30
0.0
 10
67.561697
 20
8.476394
 30
0.0
 10
67.827396
 20
8.016197
 30
0.0
 10
68.234453
 20
7.674053
 30
0.0
 10
68.734348
 20
7.492591
 30
0.0
 10
69.265537
 20
7.492591
 30
0.0
 10
69.766134
 20
7.674053
 30
0.0
 10
70.170391
 20
8.016197
 30
0.0
 10
70.446491
 20
8.476394
 30
0.0
 10
70.482078
 20
8.824628
 30
0.0
 10
70.500000
 20
9.000000
 30
0.0
 11
70.500000
 21
9.000000
 31
0.0
 11
70.408689
 21
9.515421
 31
0.0
 11
70.150712
 21
9.962251
 31
0.0
 11
69.750000
 21
10.299038
 31
0.0
 11
69.257977
 21
10.477671
 31
0.0
 11
68.742023
 21
10.477671
 31
0.0
 11
68.250000
 21
10.299038
 31
0.0
 11
67.849288
 21
9.962251
 31
0.0
 11
67.591311
 21
9.515421
 31
0.0
 11
67.500000
 21
9.000000
 31
0.0
 11
67.591311
 21
8.484579
 31
0.0
 11
67.849288
 21
8.037749
 31
0.0
 11
68.250000
 21
7.700962
 31
0.0
 11
68.742023
 21
7.522329
 31
0.0
 11
69.257977
 21
7.522329
 31
0.0
 11
69.750000
 21
7.700962
 31
0.0
 11
70.150712
 21
8.037749
 31
0.0
 11
70.408689
 21
8.484579
 31
0.0
 11
70.500000
 21
9.000000
 31
0.0
  0
LINE
  5
128
100
AcDbEntity
  8
0
 62
7
100
AcDbLine
 10
-67.500000
 20
-9.000000
 30
0.0
 11
-67.500000
 21
-9.000000
 31
0.0
  0
SPLINE
  5
129
100
AcDbEntity
  8
0
 62
7
100
AcDbSpline
 70
0
 71
3
 72
25
 73
21
 74
19
 40
0.000000
 40
0.000000
 40
0.000000
 40
0.000000
 40
0.523446
 40
1.039401
 40
1.562847
 40
2.086294
 40
2.602249
 40
3.125695
 40
3.649141
 40
4.165096
 40
4.688542
 40
5.211988
 40
5.727943
 40
6.251390
 40
6.774836
 40
7.290791
 40
7.814237
 40
8.337683
 40
8.853638
 40
9.377084
 40
9.377084
 40
9.377084
 40
9.377084
 10
-67.500000
 20
-9.000000
 30
0.0
 10
-67.517922
 20
-8.824628
 30
0.0
 10
-67.553509
 20
-8.476394
 30
0.0
 10
-67.829609
 20
-8.016197
 30
0.0
 10
-68.233866
 20
-7.674053
 30
0.0
 10
-68.734463
 20
-7.492591
 30
0.0
 10
-69.265652
 20
-7.492591
 30
0.0
 10
-69.765547
 20
-7.674053
 30
0.0
 10
-70.172604
 20
-8.016197
 30
0.0
 10
-70.438303
 20
-8.476394
 30
0.0
 10
-70.531071
 20
-9.000000
 30
0.0
 10
-70.438303
 20
-9.523606
 30
0.0
 10
-70.172604
 20
-9.983803
 30
0.0
 10
-69.765547
 20
-10.325947
 30
0.0
 10
-69.265652
 20
-10.507409
 30
0.0
 10
-68.734463
 20
-10.507409
 30
0.0
 10
-68.233866
 20
-10.325947
 30
0.0
 10
-67.829609
 20
-9.983803
 30
0.0
 10
-67.553509
 20
-9.523606
 30
0.0
 10
-67.517922
 20
-9.175372
 30
0.0
 10
-67.500000
 20
-9.000000
 30
0.0
 11
-67.500000
 21
-9.000000
 31
0.0
 11
-67.591311
 21
-8.484580
 31
0.0
 11
-67.849288
 21
-8.037750
 31
0.0
 11
-68.250000
 21
-7.700962
 31
0.0
 11
-68.742023
 21
-7.522329
 31
0.0
 11
-69.257977
 21
-7.522329
 31
0.0
 11
-69.750000
 21
-7.700962
 31
0.0
 11
-70.150712
 21
-8.037750
 31
0.0
 11
-70.408689
 21
-8.484580
 31
0.0
 11
-70.500000
 21
-9.000000
 31
0.0
 11
-70.408689
 21
-9.515421
 31
0.0
 11
-70.150712
 21
-9.962251
 31
0.0
 11
-69.750000
 21
-10.299038
 31
0.0
 11
-69.257977
 21
-10.477671
 31
0.0
 11
-68.742023
 21
-10.477671
 31
0.0
 11
-68.250000
 21
-10.299038
 31
0.0
 11
-67.849288
 21
-9.962251
 31
0.0
 11
-67.591311
 21
-9.515421
 31
0.0
 11
-67.500000
 21
-9.000000
 31
0.0
  0
LINE
  5
12a
100
AcDbEntity
  8
0
 62
7
100
AcDbLine
 10
-67.500000
 20
9.000000
 30
0.0
 11
-67.500000
 21
9.000000
 31
0.0
  0
SPLINE
  5
12b
100
AcDbEntity
  8
0
 62
7
100
AcDbSpline
 70
0
 71
3
 72
25
 73
21
 74
19
 40
0.000000
 40
0.000000
 40
0.000000
 40
0.000000
 40
0.523446
 40
1.039401
 40
1.562847
 40
2.086294
 40
2.602249
 40
3.125695
 40
3.649141
 40
4.165096
 40
4.688542
 40
5.211988
 40
5.727943
 40
6.251390
 40
6.774836
 40
7.290791
 40
7.814237
 40
8.337683
 40
8.853638
 40
9.377084
 40
9.377084
 40
9.377084
 40
9.377084
 10
-67.500000
 20
9.000000
 30
0.0
 10
-67.517922
 20
9.175372
 30
0.0
 10
-67.553509
 20
9.523606
 30
0.0
 10
-67.829609
 20
9.983803
 30
0.0
 10
-68.233866
 20
10.325947
 30
0.0
 10
-68.734463
 20
10.507409
 30
0.0
 10
-69.265652
 20
10.507409
 30
0.0
 10
-69.765547
 20
10.325947
 30
0.0
 10
-70.172604
 20
9.983803
 30
0.0
 10
-70.438303
 20
9.523606
 30
0.0
 10
-70.531071
 20
9.000000
 30
0.0
 10
-70.438303
 20
8.476394
 30
0.0
 10
-70.172604
 20
8.016197
 30
0.0
 10
-69.765547
 20
7.674053
 30
0.0
 10
-69.265652
 20
7.492591
 30
0.0
 10
-68.734463
 20
7.492591
 30
0.0
 10
-68.233866
 20
7.674053
 30
0.0
 10
-67.829609
 20
8.016197
 30
0.0
 10
-67.553509
 20
8.476394
 30
0.0
 10
-67.517922
 20
8.824628
 30
0.0
 10
-67.500000
 20
9.000000
 30
0.0
 11
-67.500000
 21
9.000000
 31
0.0
 11
-67.591311
 21
9.515421
 31
0.0
 11
-67.849288
 21
9.962251
 31
0.0
 11
-68.250000
 21
10.299038
 31
0.0
 11
-68.742023
 21
10.477671
 31
0.0
 11
-69.257977
 21
10.477671
 31
0.0
 11
-69.750000
 21
10.299038
 31
0.0
 11
-70.150712
 21
9.962251
 31
0.0
 11
-70.408689
 21
9.515421
 31
0.0
 11
-70.500000
 21
9.000000
 31
0.0
 11
-70.408689
 21
8.484579
 31
0.0
 11
-70.150712
 21
8.037749
 31
0.0
 11
-69.750000
 21
7.700962
 31
0.0
 11
-69.257977
 21
7.522329
 31
0.0
 11
-68.742023
 21
7.522329
 31
0.0
 11
-68.250000
 21
7.700962
 31
0.0
 11
-67.849288
 21
8.037749
 31
0.0
 11
-67.591311
 21
8.484579
 31
0.0
 11
-67.500000
 21
9.000000
 31
0.0
  0
LINE
  5
12c
100
AcDbEntity
  8
0
 62
7
100
AcDbLine
 10
71.150000
 20
-0.000000
 30
0.0
 11
71.150000
 21
-0.000000
 31
0.0
  0
SPLINE
  5
12d
100
AcDbEntity
  8
0
 62
7
100
AcDbSpline
 70
0
 71
3
 72
25
 73
21
 74
19
 40
0.000000
 40
0.000000
 40
0.000000
 40
0.000000
 40
0.750273
 40
1.489808
 40
2.240081
 40
2.990354
 40
3.729889
 40
4.480162
 40
5.230435
 40
5.969970
 40
6.720243
 40
7.470516
 40
8.210051
 40
8.960324
 40
9.710597
 40
10.450132
 40
11.200405
 40
11.950678
 40
12.690213
 40
13.440486
 40
13.440486
 40
13.440486
 40
13.440486
 10
71.150000
 20
-0.000000
 30
0.0
 10
71.124312
 20
0.251366
 30
0.0
 10
71.073303
 20
0.750502
 30
0.0
 10
70.677560
 20
1.410117
 30
0.0
 10
70.098125
 20
1.900524
 30
0.0
 10
69.380603
 20
2.160619
 30
0.0
 10
68.619232
 20
2.160619
 30
0.0
 10
67.902716
 20
1.900524
 30
0.0
 10
67.319268
 20
1.410117
 30
0.0
 10
66.938433
 20
0.750502
 30
0.0
 10
66.805465
 20
-0.000000
 30
0.0
 10
66.938433
 20
-0.750502
 30
0.0
 10
67.319268
 20
-1.410117
 30
0.0
 10
67.902716
 20
-1.900524
 30
0.0
 10
68.619232
 20
-2.160619
 30
0.0
 10
69.380603
 20
-2.160619
 30
0.0
 10
70.098125
 20
-1.900524
 30
0.0
 10
70.677560
 20
-1.410117
 30
0.0
 10
71.073303
 20
-0.750502
 30
0.0
 10
71.124312
 20
-0.251367
 30
0.0
 10
71.150000
 20
-0.000000
 30
0.0
 11
71.150000
 21
-0.000000
 31
0.0
 11
71.019121
 21
0.738769
 31
0.0
 11
70.649354
 21
1.379226
 31
0.0
 11
70.075000
 21
1.861955
 31
0.0
 11
69.369768
 21
2.117995
 31
0.0
 11
68.630232
 21
2.117995
 31
0.0
 11
67.925000
 21
1.861955
 31
0.0
 11
67.350646
 21
1.379226
 31
0.0
 11
66.980879
 21
0.738769
 31
0.0
 11
66.850000
 21
-0.000000
 31
0.0
 11
66.980879
 21
-0.738769
 31
0.0
 11
67.350646
 21
-1.379226
 31
0.0
 11
67.925000
 21
-1.861955
 31
0.0
 11
68.630232
 21
-2.117995
 31
0.0
 11
69.369768
 21
-2.117995
 31
0.0
 11
70.075000
 21
-1.861955
 31
0.0
 11
70.649354
 21
-1.379226
 31
0.0
 11
71.019121
 21
-0.738769
 31
0.0
 11
71.150000
 21
-0.000000
 31
0.0
  0
LINE
  5
12e
100
AcDbEntity
  8
0
 62
7
100
AcDbLine
 10
-66.850000
 20
-0.000000
 30
0.0
 11
-66.850000
 21
-0.000000
 31
0.0
  0
SPLINE
  5
12f
100
AcDbEntity
  8
0
 62
7
100
AcDbSpline
 70
0
 71
3
 72
25
 73
21
 74
19
 40
0.000000
 40
0.000000
 40
0.000000
 40
0.000000
 40
0.750273
 40
1.489808
 40
2.240081
 40
2.990354
 40
3.729889
 40
4.480162
 40
5.230435
 40
5.969970
 40
6.720243
 40
7.470516
 40
8.210051
 40
8.960324
 40
9.710597
 40
10.450132
 40
11.200405
 40
11.950678
 40
12.690213
 40
13.440486
 40
13.440486
 40
13.440486
 40
13.440486
 10
-66.850000
 20
-0.000000
 30
0.0
 10
-66.875688
 20
0.251366
 30
0.0
 10
-66.926697
 20
0.750502
 30
0.0
 10
-67.322440
 20
1.410117
 30
0.0
 10
-67.901875
 20
1.900524
 30
0.0
 10
-68.619397
 20
2.160619
 30
0.0
 10
-69.380768
 20
2.160619
 30
0.0
 10
-70.097284
 20
1.900524
 30
0.0
 10
-70.680732
 20
1.410117
 30
0.0
 10
-71.061567
 20
0.750502
 30
0.0
 10
-71.194535
 20
-0.000000
 30
0.0
 10
-71.061567
 20
-0.750502
 30
0.0
 10
-70.680732
 20
-1.410117
 30
0.0
 10
-70.097284
 20
-1.900524
 30
0.0
 10
-69.380768
 20
-2.160619
 30
0.0
 10
-68.619397
 20
-2.160619
 30
0.0
 10
-67.901875
 20
-1.900524
 30
0.0
 10
-67.322440
 20
-1.410117
 30
0.0
 10
-66.926697
 20
-0.750502
 30
0.0
 10
-66.875688
 20
-0.251367
 30
0.0
 10
-66.850000
 20
-0.000000
 30
0.0
 11
-66.850000
 21
-0.000000
 31
0.0
 11
-66.980879
 21
0.738769
 31
0.0
 11
-67.350646
 21
1.379226
 31
0.0
 11
-67.925000
 21
1.861955
 31
0.0
 11
-68.630232
 21
2.117995
 31
0.0
 11
-69.369768
 21
2.117995
 31
0.0
 11
-70.075000
 21
1.861955
 31
0.0
 11
-70.649354
 21
1.379226
 31
0.0
 11
-71.019121
 21
0.738769
 31
0.0
 11
-71.150000
 21
-0.000000
 31
0.0
 11
-71.019121
 21
-0.738769
 31
0.0
 11
-70.649354
 21
-1.379226
 31
0.0
 11
-70.075000
 21
-1.861955
 31
0.0
 11
-69.369768
 21
-2.117995
 31
0.0
 11
-68.630232
 21
-2.117995
 31
0.0
 11
-67.925000
 21
-1.861955
 31
0.0
 11
-67.350646
 21
-1.379226
 31
0.0
 11
-66.980879
 21
-0.738769
 31
0.0
 11
-66.850000
 21
-0.000000
 31
0.0
  0
LINE
  5
130
100
AcDbEntity
  8
0
 62
7
100
AcDbLine
 10
-82.397006
 20
-33.020000
 30
0.0
 11
-82.397006
 21
-33.020000
 31
0.0
  0
SPLINE
  5
131
100
AcDbEntity
  8
0
 62
7
100
AcDbSpline
 70
0
 71
3
 72
25
 73
21
 74
19
 40
0.000000
 40
0.000000
 40
0.000000
 40
0.000000
 40
0.523591
 40
1.039684
 40
1.563274
 40
2.086865
 40
2.602958
 40
3.126549
 40
3.650140
 40
4.166233
 40
4.689823
 40
5.213414
 40
5.729507
 40
6.253098
 40
6.776689
 40
7.292782
 40
7.816372
 40
8.339963
 40
8.856056
 40
9.379647
 40
9.379647
 40
9.379647
 40
9.379647
 10
-82.397006
 20
-33.020000
 30
0.0
 10
-82.414862
 20
-32.844571
 30
0.0
 10
-82.450318
 20
-32.496226
 30
0.0
 10
-82.726366
 20
-32.035817
 30
0.0
 10
-83.130671
 20
-31.693498
 30
0.0
 10
-83.631393
 20
-31.511936
 30
0.0
 10
-84.162732
 20
-31.511936
 30
0.0
 10
-84.662756
 20
-31.693498
 30
0.0
 10
-85.069850
 20
-32.035817
 30
0.0
 10
-85.335535
 20
-32.496226
 30
0.0
 10
-85.427962
 20
-33.020000
 30
0.0
 10
-85.335535
 20
-33.543774
 30
0.0
 10
-85.069850
 20
-34.004182
 30
0.0
 10
-84.662756
 20
-34.346502
 30
0.0
 10
-84.162732
 20
-34.528063
 30
0.0
 10
-83.631393
 20
-34.528063
 30
0.0
 10
-83.130671
 20
-34.346502
 30
0.0
 10
-82.726366
 20
-34.004182
 30
0.0
 10
-82.450318
 20
-33.543774
 30
0.0
 10
-82.414862
 20
-33.195428
 30
0.0
 10
-82.397006
 20
-33.020000
 30
0.0
 11
-82.397006
 21
-33.020000
 31
0.0
 11
-82.488143
 21
-32.504402
 31
0.0
 11
-82.746061
 21
-32.057378
 31
0.0
 11
-83.146818
 21
-31.720419
 31
0.0
 11
-83.638959
 21
-31.541690
 31
0.0
 11
-84.155052
 21
-31.541690
 31
0.0
 11
-84.647193
 21
-31.720419
 31
0.0
 11
-85.047951
 21
-32.057378
 31
0.0
 11
-85.305868
 21
-32.504402
 31
0.0
 11
-85.397006
 21
-33.020000
 31
0.0
 11
-85.305868
 21
-33.535598
 31
0.0
 11
-85.047951
 21
-33.982622
 31
0.0
 11
-84.647193
 21
-34.319580
 31
0.0
 11
-84.155052
 21
-34.498309
 31
0.0
 11
-83.638959
 21
-34.498309
 31
0.0
 11
-83.146818
 21
-34.319580
 31
0.0
 11
-82.746061
 21
-33.982622
 31
0.0
 11
-82.488143
 21
-33.535598
 31
0.0
 11
-82.397006
 21
-33.020000
 31
0.0
  0
LINE
  5
132
100
AcDbEntity
  8
0
 62
7
100
AcDbLine
 10
1.500000
 20
59.020000
 30
0.0
 11
1.500000
 21
59.020000
 31
0.0
  0
SPLINE
  5
133
100
AcDbEntity
  8
0
 62
7
100
AcDbSpline
 70
0
 71
3
 72
25
 73
21
 74
19
 40
0.000000
 40
0.000000
 40
0.000000
 40
0.000000
 40
0.523446
 40
1.039401
 40
1.562847
 40
2.086294
 40
2.602248
 40
3.125695
 40
3.649141
 40
4.165096
 40
4.688542
 40
5.211988
 40
5.727943
 40
6.251389
 40
6.774835
 40
7.290790
 40
7.814237
 40
8.337683
 40
8.853638
 40
9.377084
 40
9.377084
 40
9.377084
 40
9.377084
 10
1.500000
 20
59.020000
 30
0.0
 10
1.482078
 20
59.195372
 30
0.0
 10
1.446491
 20
59.543606
 30
0.0
 10
1.170391
 20
60.003803
 30
0.0
 10
0.766134
 20
60.345947
 30
0.0
 10
0.265537
 20
60.527409
 30
0.0
 10
-0.265652
 20
60.527409
 30
0.0
 10
-0.765547
 20
60.345947
 30
0.0
 10
-1.172604
 20
60.003803
 30
0.0
 10
-1.438303
 20
59.543606
 30
0.0
 10
-1.531071
 20
59.020000
 30
0.0
 10
-1.438303
 20
58.496394
 30
0.0
 10
-1.172604
 20
58.036197
 30
0.0
 10
-0.765547
 20
57.694053
 30
0.0
 10
-0.265652
 20
57.512591
 30
0.0
 10
0.265537
 20
57.512591
 30
0.0
 10
0.766134
 20
57.694053
 30
0.0
 10
1.170391
 20
58.036197
 30
0.0
 10
1.446491
 20
58.496394
 30
0.0
 10
1.482078
 20
58.844628
 30
0.0
 10
1.500000
 20
59.020000
 30
0.0
 11
1.500000
 21
59.020000
 31
0.0
 11
1.408689
 21
59.535421
 31
0.0
 11
1.150712
 21
59.982251
 31
0.0
 11
0.750000
 21
60.319038
 31
0.0
 11
0.257977
 21
60.497671
 31
0.0
 11
-0.257977
 21
60.497671
 31
0.0
 11
-0.750000
 21
60.319038
 31
0.0
 11
-1.150712
 21
59.982251
 31
0.0
 11
-1.408689
 21
59.535421
 31
0.0
 11
-1.500000
 21
59.020000
 31
0.0
 11
-1.408689
 21
58.504580
 31
0.0
 11
-1.150712
 21
58.057750
 31
0.0
 11
-0.750000
 21
57.720962
 31
0.0
 11
-0.257977
 21
57.542329
 31
0.0
 11
0.257977
 21
57.542329
 31
0.0
 11
0.750000
 21
57.720962
 31
0.0
 11
1.150712
 21
58.057750
 31
0.0
 11
1.408689
 21
58.504580
 31
0.0
 11
1.500000
 21
59.020000
 31
0.0
  0
LINE
  5
134
100
AcDbEntity
  8
0
 62
7
100
AcDbLine
 10
85.402994
 20
-33.020000
 30
0.0
 11
85.402994
 21
-33.020000
 31
0.0
  0
LINE
  5
135
100
AcDbEntity
  8
0
 62
7
100
AcDbLine
 10
105.000000
 20
-60.800000
 30
0.0
 11
-105.000000
 21
-60.800000
 31
0.0
  0
SPLINE
  5
136
100
AcDbEntity
  8
0
 62
7
100
AcDbSpline
 70
0
 71
3
 72
25
 73
21
 74
19
 40
0.000000
 40
0.000000
 40
0.000000
 40
0.000000
 40
0.523591
 40
1.039684
 40
1.563274
 40
2.086865
 40
2.602958
 40
3.126549
 40
3.650140
 40
4.166233
 40
4.689823
 40
5.213414
 40
5.729507
 40
6.253098
 40
6.776689
 40
7.292782
 40
7.816372
 40
8.339963
 40
8.856056
 40
9.379647
 40
9.379647
 40
9.379647
 40
9.379647
 10
85.402994
 20
-33.020000
 30
0.0
 10
85.385138
 20
-32.844571
 30
0.0
 10
85.349682
 20
-32.496226
 30
0.0
 10
85.073634
 20
-32.035817
 30
0.0
 10
84.669329
 20
-31.693498
 30
0.0
 10
84.168607
 20
-31.511936
 30
0.0
 10
83.637268
 20
-31.511936
 30
0.0
 10
83.137244
 20
-31.693498
 30
0.0
 10
82.730150
 20
-32.035817
 30
0.0
 10
82.464464
 20
-32.496226
 30
0.0
 10
82.372038
 20
-33.020000
 30
0.0
 10
82.464464
 20
-33.543774
 30
0.0
 10
82.730150
 20
-34.004182
 30
0.0
 10
83.137244
 20
-34.346502
 30
0.0
 10
83.637268
 20
-34.528063
 30
0.0
 10
84.168607
 20
-34.528063
 30
0.0
 10
84.669329
 20
-34.346502
 30
0.0
 10
85.073634
 20
-34.004182
 30
0.0
 10
85.349682
 20
-33.543774
 30
0.0
 10
85.385138
 20
-33.195428
 30
0.0
 10
85.402994
 20
-33.020000
 30
0.0
 11
85.402994
 21
-33.020000
 31
0.0
 11
85.311857
 21
-32.504402
 31
0.0
 11
85.053939
 21
-32.057378
 31
0.0
 11
84.653182
 21
-31.720419
 31
0.0
 11
84.161041
 21
-31.541690
 31
0.0
 11
83.644948
 21
-31.541690
 31
0.0
 11
83.152806
 21
-31.720419
 31
0.0
 11
82.752049
 21
-32.057378
 31
0.0
 11
82.494132
 21
-32.504402
 31
0.0
 11
82.402994
 21
-33.020000
 31
0.0
 11
82.494132
 21
-33.535598
 31
0.0
 11
82.752049
 21
-33.982622
 31
0.0
 11
83.152806
 21
-34.319580
 31
0.0
 11
83.644948
 21
-34.498309
 31
0.0
 11
84.161041
 21
-34.498309
 31
0.0
 11
84.653182
 21
-34.319580
 31
0.0
 11
85.053939
 21
-33.982622
 31
0.0
 11
85.311857
 21
-33.535598
 31
0.0
 11
85.402994
 21
-33.020000
 31
0.0
  0
LINE
  5
137
100
AcDbEntity
  8
0
 62
7
100
AcDbLine
 10
110.000000
 20
-55.800000
 30
0.0
 11
110.000000
 21
83.800000
 31
0.0
  0
LINE
  5
138
100
AcDbEntity
  8
0
 62
7
100
AcDbLine
 10
110.000000
 20
83.800000
 30
0.0
 11
90.000000
 21
83.800000
 31
0.0
  0
LINE
  5
139
100
AcDbEntity
  8
0
 62
7
100
AcDbLine
 10
90.000000
 20
83.800000
 30
0.0
 11
90.000000
 21
103.800000
 31
0.0
  0
LINE
  5
13a
100
AcDbEntity
  8
0
 62
7
100
AcDbLine
 10
90.000000
 20
103.800000
 30
0.0
 11
-90.000000
 21
103.800000
 31
0.0
  0
LINE
  5
13b
100
AcDbEntity
  8
0
 62
7
100
AcDbLine
 10
-90.000000
 20
103.800000
 30
0.0
 11
-90.000000
 21
83.800000
 31
0.0
  0
LINE
  5
13c
100
AcDbEntity
  8
0
 62
7
100
AcDbLine
 10
-90.000000
 20
83.800000
 30
0.0
 11
-110.000000
 21
83.800000
 31
0.0
  0
LINE
  5
13d
100
AcDbEntity
  8
0
 62
7
100
AcDbLine
 10
-110.000000
 20
83.800000
 30
0.0
 11
-110.000000
 21
-55.800000
 31
0.0
  0
SPLINE
  5
13e
100
AcDbEntity
  8
0
 62
7
100
AcDbSpline
 70
0
 71
3
 72
13
 73
9
 74
7
 40
0.000000
 40
0.000000
 40
0.000000
 40
0.000000
 40
1.308874
 40
2.606918
 40
3.915792
 40
5.224666
 40
6.522710
 40
7.831584
 40
7.831584
 40
7.831584
 40
7.831584
 10
105.000000
 20
-60.800000
 30
0.0
 10
105.437566
 20
-60.766669
 30
0.0
 10
106.309078
 20
-60.700282
 30
0.0
 10
107.528283
 20
-60.175656
 30
0.0
 10
108.577490
 20
-59.377490
 30
0.0
 10
109.375656
 20
-58.328283
 30
0.0
 10
109.900282
 20
-57.109078
 30
0.0
 10
109.966669
 20
-56.237566
 30
0.0
 10
110.000000
 20
-55.800000
 30
0.0
 11
105.000000
 21
-60.800000
 31
0.0
 11
106.297616
 21
-60.628698
 31
0.0
 11
107.496852
 21
-60.131958
 31
0.0
 11
108.535534
 21
-59.335534
 31
0.0
 11
109.331958
 21
-58.296852
 31
0.0
 11
109.828698
 21
-57.097616
 31
0.0
 11
110.000000
 21
-55.800000
 31
0.0
  0
SPLINE
  5
13f
100
AcDbEntity
  8
0
 62
7
100
AcDbSpline
 70
0
 71
3
 72
13
 73
9
 74
7
 40
0.000000
 40
0.000000
 40
0.000000
 40
0.000000
 40
1.308874
 40
2.606918
 40
3.915792
 40
5.224666
 40
6.522710
 40
7.831584
 40
7.831584
 40
7.831584
 40
7.831584
 10
-110.000000
 20
-55.800000
 30
0.0
 10
-109.966669
 20
-56.237566
 30
0.0
 10
-109.900282
 20
-57.109078
 30
0.0
 10
-109.375656
 20
-58.328283
 30
0.0
 10
-108.577490
 20
-59.377490
 30
0.0
 10
-107.528283
 20
-60.175656
 30
0.0
 10
-106.309078
 20
-60.700282
 30
0.0
 10
-105.437566
 20
-60.766669
 30
0.0
 10
-105.000000
 20
-60.800000
 30
0.0
 11
-110.000000
 21
-55.800000
 31
0.0
 11
-109.828698
 21
-57.097616
 31
0.0
 11
-109.331958
 21
-58.296852
 31
0.0
 11
-108.535534
 21
-59.335534
 31
0.0
 11
-107.496852
 21
-60.131958
 31
0.0
 11
-106.297616
 21
-60.628698
 31
0.0
 11
-105.000000
 21
-60.800000
 31
0.0
  0
LINE
  5
140
100
AcDbEntity
  8
0
 62
7
100
AcDbLine
 10
85.561165
 20
8.838835
 30
0.0
 11
85.561165
 21
8.838835
 31
0.0
  0
SPLINE
  5
141
100
AcDbEntity
  8
0
 62
7
100
AcDbSpline
 70
0
 71
3
 72
25
 73
21
 74
19
 40
0.000000
 40
0.000000
 40
0.000000
 40
0.000000
 40
0.523591
 40
1.039684
 40
1.563274
 40
2.086865
 40
2.602958
 40
3.126549
 40
3.650140
 40
4.166233
 40
4.689823
 40
5.213414
 40
5.729507
 40
6.253098
 40
6.776689
 40
7.292782
 40
7.816372
 40
8.339963
 40
8.856056
 40
9.379647
 40
9.379647
 40
9.379647
 40
9.379647
 10
85.561165
 20
8.838835
 30
0.0
 10
85.543309
 20
9.014263
 30
0.0
 10
85.507853
 20
9.362609
 30
0.0
 10
85.231805
 20
9.823017
 30
0.0
 10
84.827500
 20
10.165337
 30
0.0
 10
84.326778
 20
10.346898
 30
0.0
 10
83.795438
 20
10.346898
 30
0.0
 10
83.295415
 20
10.165337
 30
0.0
 10
82.888321
 20
9.823017
 30
0.0
 10
82.622635
 20
9.362609
 30
0.0
 10
82.530209
 20
8.838835
 30
0.0
 10
82.622635
 20
8.315061
 30
0.0
 10
82.888321
 20
7.854652
 30
0.0
 10
83.295415
 20
7.512333
 30
0.0
 10
83.795438
 20
7.330771
 30
0.0
 10
84.326778
 20
7.330771
 30
0.0
 10
84.827500
 20
7.512333
 30
0.0
 10
85.231805
 20
7.854652
 30
0.0
 10
85.507853
 20
8.315061
 30
0.0
 10
85.543309
 20
8.663406
 30
0.0
 10
85.561165
 20
8.838835
 30
0.0
 11
85.561165
 21
8.838835
 31
0.0
 11
85.470028
 21
9.354432
 31
0.0
 11
85.212110
 21
9.801457
 31
0.0
 11
84.811353
 21
10.138415
 31
0.0
 11
84.319212
 21
10.317144
 31
0.0
 11
83.803119
 21
10.317144
 31
0.0
 11
83.310977
 21
10.138415
 31
0.0
 11
82.910220
 21
9.801457
 31
0.0
 11
82.652303
 21
9.354432
 31
0.0
 11
82.561165
 21
8.838835
 31
0.0
 11
82.652303
 21
8.323237
 31
0.0
 11
82.910220
 21
7.876212
 31
0.0
 11
83.310977
 21
7.539254
 31
0.0
 11
83.803119
 21
7.360525
 31
0.0
 11
84.319212
 21
7.360525
 31
0.0
 11
84.811353
 21
7.539254
 31
0.0
 11
85.212110
 21
7.876212
 31
0.0
 11
85.470028
 21
8.323237
 31
0.0
 11
85.561165
 21
8.838835
 31
0.0
  0
LINE
  5
142
100
AcDbEntity
  8
0
 62
7
100
AcDbLine
 10
96.400000
 20
-0.000000
 30
0.0
 11
96.400000
 21
-0.000000
 31
0.0
  0
SPLINE
  5
143
100
AcDbEntity
  8
0
 62
7
100
AcDbSpline
 70
0
 71
3
 72
25
 73
21
 74
19
 40
0.000000
 40
0.000000
 40
0.000000
 40
0.000000
 40
1.221595
 40
2.425701
 40
3.647296
 40
4.868891
 40
6.072997
 40
7.294592
 40
8.516187
 40
9.720293
 40
10.941888
 40
12.163483
 40
13.367589
 40
14.589184
 40
15.810779
 40
17.014885
 40
18.236480
 40
19.458075
 40
20.662181
 40
21.883776
 40
21.883776
 40
21.883776
 40
21.883776
 10
96.400000
 20
-0.000000
 30
0.0
 10
96.358283
 20
0.409288
 30
0.0
 10
96.275446
 20
1.222004
 30
0.0
 10
95.631292
 20
2.296120
 30
0.0
 10
94.687952
 20
3.094724
 30
0.0
 10
93.519702
 20
3.518287
 30
0.0
 10
92.280031
 20
3.518287
 30
0.0
 10
91.113413
 20
3.094724
 30
0.0
 10
90.163557
 20
2.296120
 30
0.0
 10
89.543614
 20
1.222004
 30
0.0
 10
89.327676
 20
-0.000000
 30
0.0
 10
89.543614
 20
-1.222004
 30
0.0
 10
90.163557
 20
-2.296120
 30
0.0
 10
91.113413
 20
-3.094724
 30
0.0
 10
92.280031
 20
-3.518287
 30
0.0
 10
93.519702
 20
-3.518287
 30
0.0
 10
94.687952
 20
-3.094724
 30
0.0
 10
95.631292
 20
-2.296120
 30
0.0
 10
96.275446
 20
-1.222004
 30
0.0
 10
96.358283
 20
-0.409288
 30
0.0
 10
96.400000
 20
-0.000000
 30
0.0
 11
96.400000
 21
-0.000000
 31
0.0
 11
96.187206
 21
1.202918
 31
0.0
 11
95.585351
 21
2.245819
 31
0.0
 11
94.650287
 21
3.031917
 31
0.0
 11
93.502053
 21
3.448874
 31
0.0
 11
92.297947
 21
3.448874
 31
0.0
 11
91.149713
 21
3.031917
 31
0.0
 11
90.214650
 21
2.245819
 31
0.0
 11
89.612794
 21
1.202918
 31
0.0
 11
89.400000
 21
-0.000000
 31
0.0
 11
89.612794
 21
-1.202919
 31
0.0
 11
90.214650
 21
-2.245819
 31
0.0
 11
91.149713
 21
-3.031917
 31
0.0
 11
92.297947
 21
-3.448874
 31
0.0
 11
93.502053
 21
-3.448874
 31
0.0
 11
94.650287
 21
-3.031917
 31
0.0
 11
95.585351
 21
-2.245819
 31
0.0
 11
96.187206
 21
-1.202919
 31
0.0
 11
96.400000
 21
-0.000000
 31
0.0
  0
LINE
  5
144
100
AcDbEntity
  8
0
 62
7
100
AcDbLine
 10
103.238835
 20
-8.838835
 30
0.0
 11
103.238835
 21
-8.838835
 31
0.0
  0
SPLINE
  5
145
100
AcDbEntity
  8
0
 62
7
100
AcDbSpline
 70
0
 71
3
 72
25
 73
21
 74
19
 40
0.000000
 40
0.000000
 40
0.000000
 40
0.000000
 40
0.523591
 40
1.039684
 40
1.563274
 40
2.086865
 40
2.602958
 40
3.126549
 40
3.650140
 40
4.166233
 40
4.689823
 40
5.213414
 40
5.729507
 40
6.253098
 40
6.776689
 40
7.292782
 40
7.816372
 40
8.339963
 40
8.856056
 40
9.379647
 40
9.379647
 40
9.379647
 40
9.379647
 10
103.238835
 20
-8.838835
 30
0.0
 10
103.220979
 20
-8.663406
 30
0.0
 10
103.185523
 20
-8.315061
 30
0.0
 10
102.909475
 20
-7.854652
 30
0.0
 10
102.505169
 20
-7.512333
 30
0.0
 10
102.004447
 20
-7.330771
 30
0.0
 10
101.473108
 20
-7.330771
 30
0.0
 10
100.973085
 20
-7.512333
 30
0.0
 10
100.565990
 20
-7.854652
 30
0.0
 10
100.300305
 20
-8.315061
 30
0.0
 10
100.207878
 20
-8.838835
 30
0.0
 10
100.300305
 20
-9.362609
 30
0.0
 10
100.565990
 20
-9.823017
 30
0.0
 10
100.973085
 20
-10.165337
 30
0.0
 10
101.473108
 20
-10.346898
 30
0.0
 10
102.004447
 20
-10.346898
 30
0.0
 10
102.505169
 20
-10.165337
 30
0.0
 10
102.909475
 20
-9.823017
 30
0.0
 10
103.185523
 20
-9.362609
 30
0.0
 10
103.220979
 20
-9.014263
 30
0.0
 10
103.238835
 20
-8.838835
 30
0.0
 11
103.238835
 21
-8.838835
 31
0.0
 11
103.147697
 21
-8.323237
 31
0.0
 11
102.889780
 21
-7.876213
 31
0.0
 11
102.489023
 21
-7.539255
 31
0.0
 11
101.996882
 21
-7.360525
 31
0.0
 11
101.480788
 21
-7.360525
 31
0.0
 11
100.988647
 21
-7.539255
 31
0.0
 11
100.587890
 21
-7.876213
 31
0.0
 11
100.329972
 21
-8.323237
 31
0.0
 11
100.238835
 21
-8.838835
 31
0.0
 11
100.329972
 21
-9.354433
 31
0.0
 11
100.587890
 21
-9.801457
 31
0.0
 11
100.988647
 21
-10.138415
 31
0.0
 11
101.480788
 21
-10.317144
 31
0.0
 11
101.996882
 21
-10.317144
 31
0.0
 11
102.489023
 21
-10.138415
 31
0.0
 11
102.889780
 21
-9.801457
 31
0.0
 11
103.147697
 21
-9.354433
 31
0.0
 11
103.238835
 21
-8.838835
 31
0.0
  0
LINE
  5
146
100
AcDbEntity
  8
0
 62
7
100
AcDbLine
 10
-100.238835
 20
-8.838835
 30
0.0
 11
-100.238835
 21
-8.838835
 31
0.0
  0
SPLINE
  5
147
100
AcDbEntity
  8
0
 62
7
100
AcDbSpline
 70
0
 71
3
 72
25
 73
21
 74
19
 40
0.000000
 40
0.000000
 40
0.000000
 40
0.000000
 40
0.523591
 40
1.039684
 40
1.563274
 40
2.086865
 40
2.602958
 40
3.126549
 40
3.650140
 40
4.166233
 40
4.689823
 40
5.213414
 40
5.729507
 40
6.253098
 40
6.776689
 40
7.292782
 40
7.816372
 40
8.339963
 40
8.856056
 40
9.379647
 40
9.379647
 40
9.379647
 40
9.379647
 10
-100.238835
 20
-8.838835
 30
0.0
 10
-100.256691
 20
-8.663406
 30
0.0
 10
-100.292147
 20
-8.315061
 30
0.0
 10
-100.568195
 20
-7.854652
 30
0.0
 10
-100.972500
 20
-7.512333
 30
0.0
 10
-101.473222
 20
-7.330771
 30
0.0
 10
-102.004562
 20
-7.330771
 30
0.0
 10
-102.504585
 20
-7.512333
 30
0.0
 10
-102.911680
 20
-7.854652
 30
0.0
 10
-103.177365
 20
-8.315061
 30
0.0
 10
-103.269791
 20
-8.838835
 30
0.0
 10
-103.177365
 20
-9.362609
 30
0.0
 10
-102.911680
 20
-9.823017
 30
0.0
 10
-102.504585
 20
-10.165337
 30
0.0
 10
-102.004562
 20
-10.346898
 30
0.0
 10
-101.473222
 20
-10.346898
 30
0.0
 10
-100.972500
 20
-10.165337
 30
0.0
 10
-100.568195
 20
-9.823017
 30
0.0
 10
-100.292147
 20
-9.362609
 30
0.0
 10
-100.256691
 20
-9.014263
 30
0.0
 10
-100.238835
 20
-8.838835
 30
0.0
 11
-100.238835
 21
-8.838835
 31
0.0
 11
-100.329972
 21
-8.323237
 31
0.0
 11
-100.587890
 21
-7.876213
 31
0.0
 11
-100.988647
 21
-7.539255
 31
0.0
 11
-101.480788
 21
-7.360525
 31
0.0
 11
-101.996882
 21
-7.360525
 31
0.0
 11
-102.489023
 21
-7.539255
 31
0.0
 11
-102.889780
 21
-7.876213
 31
0.0
 11
-103.147697
 21
-8.323237
 31
0.0
 11
-103.238835
 21
-8.838835
 31
0.0
 11
-103.147697
 21
-9.354433
 31
0.0
 11
-102.889780
 21
-9.801457
 31
0.0
 11
-102.489023
 21
-10.138415
 31
0.0
 11
-101.996882
 21
-10.317144
 31
0.0
 11
-101.480788
 21
-10.317144
 31
0.0
 11
-100.988647
 21
-10.138415
 31
0.0
 11
-100.587890
 21
-9.801457
 31
0.0
 11
-100.329972
 21
-9.354433
 31
0.0
 11
-100.238835
 21
-8.838835
 31
0.0
  0
LINE
  5
148
100
AcDbEntity
  8
0
 62
7
100
AcDbLine
 10
-89.400000
 20
-0.000000
 30
0.0
 11
-89.400000
 21
-0.000000
 31
0.0
  0
SPLINE
  5
149
100
AcDbEntity
  8
0
 62
7
100
AcDbSpline
 70
0
 71
3
 72
25
 73
21
 74
19
 40
0.000000
 40
0.000000
 40
0.000000
 40
0.000000
 40
1.221595
 40
2.425701
 40
3.647296
 40
4.868891
 40
6.072997
 40
7.294592
 40
8.516187
 40
9.720293
 40
10.941888
 40
12.163483
 40
13.367589
 40
14.589184
 40
15.810779
 40
17.014885
 40
18.236480
 40
19.458075
 40
20.662181
 40
21.883776
 40
21.883776
 40
21.883776
 40
21.883776
 10
-89.400000
 20
-0.000000
 30
0.0
 10
-89.441717
 20
0.409288
 30
0.0
 10
-89.524554
 20
1.222004
 30
0.0
 10
-90.168708
 20
2.296120
 30
0.0
 10
-91.112048
 20
3.094724
 30
0.0
 10
-92.280298
 20
3.518287
 30
0.0
 10
-93.519969
 20
3.518287
 30
0.0
 10
-94.686587
 20
3.094724
 30
0.0
 10
-95.636444
 20
2.296120
 30
0.0
 10
-96.256386
 20
1.222004
 30
0.0
 10
-96.472324
 20
-0.000000
 30
0.0
 10
-96.256386
 20
-1.222004
 30
0.0
 10
-95.636444
 20
-2.296120
 30
0.0
 10
-94.686587
 20
-3.094724
 30
0.0
 10
-93.519969
 20
-3.518287
 30
0.0
 10
-92.280298
 20
-3.518287
 30
0.0
 10
-91.112048
 20
-3.094724
 30
0.0
 10
-90.168708
 20
-2.296120
 30
0.0
 10
-89.524554
 20
-1.222004
 30
0.0
 10
-89.441717
 20
-0.409288
 30
0.0
 10
-89.400000
 20
-0.000000
 30
0.0
 11
-89.400000
 21
-0.000000
 31
0.0
 11
-89.612794
 21
1.202918
 31
0.0
 11
-90.214650
 21
2.245819
 31
0.0
 11
-91.149713
 21
3.031917
 31
0.0
 11
-92.297947
 21
3.448874
 31
0.0
 11
-93.502053
 21
3.448874
 31
0.0
 11
-94.650287
 21
3.031917
 31
0.0
 11
-95.585351
 21
2.245819
 31
0.0
 11
-96.187206
 21
1.202918
 31
0.0
 11
-96.400000
 21
-0.000000
 31
0.0
 11
-96.187206
 21
-1.202919
 31
0.0
 11
-95.585351
 21
-2.245819
 31
0.0
 11
-94.650287
 21
-3.031917
 31
0.0
 11
-93.502053
 21
-3.448874
 31
0.0
 11
-92.297947
 21
-3.448874
 31
0.0
 11
-91.149713
 21
-3.031917
 31
0.0
 11
-90.214650
 21
-2.245819
 31
0.0
 11
-89.612794
 21
-1.202919
 31
0.0
 11
-89.400000
 21
-0.000000
 31
0.0
  0
LINE
  5
14a
100
AcDbEntity
  8
0
 62
7
100
AcDbLine
 10
-82.561165
 20
8.838835
 30
0.0
 11
-82.561165
 21
8.838835
 31
0.0
  0
SPLINE
  5
14b
100
AcDbEntity
  8
0
 62
7
100
AcDbSpline
 70
0
 71
3
 72
25
 73
21
 74
19
 40
0.000000
 40
0.000000
 40
0.000000
 40
0.000000
 40
0.523591
 40
1.039684
 40
1.563274
 40
2.086865
 40
2.602958
 40
3.126549
 40
3.650140
 40
4.166233
 40
4.689823
 40
5.213414
 40
5.729507
 40
6.253098
 40
6.776689
 40
7.292782
 40
7.816372
 40
8.339963
 40
8.856056
 40
9.379647
 40
9.379647
 40
9.379647
 40
9.379647
 10
-82.561165
 20
8.838835
 30
0.0
 10
-82.579021
 20
9.014263
 30
0.0
 10
-82.614477
 20
9.362609
 30
0.0
 10
-82.890526
 20
9.823017
 30
0.0
 10
-83.294831
 20
10.165337
 30
0.0
 10
-83.795553
 20
10.346898
 30
0.0
 10
-84.326892
 20
10.346898
 30
0.0
 10
-84.826916
 20
10.165337
 30
0.0
 10
-85.234010
 20
9.823017
 30
0.0
 10
-85.499695
 20
9.362609
 30
0.0
 10
-85.592122
 20
8.838835
 30
0.0
 10
-85.499695
 20
8.315061
 30
0.0
 10
-85.234010
 20
7.854652
 30
0.0
 10
-84.826916
 20
7.512333
 30
0.0
 10
-84.326892
 20
7.330771
 30
0.0
 10
-83.795553
 20
7.330771
 30
0.0
 10
-83.294831
 20
7.512333
 30
0.0
 10
-82.890526
 20
7.854652
 30
0.0
 10
-82.614477
 20
8.315061
 30
0.0
 10
-82.579021
 20
8.663406
 30
0.0
 10
-82.561165
 20
8.838835
 30
0.0
 11
-82.561165
 21
8.838835
 31
0.0
 11
-82.652303
 21
9.354432
 31
0.0
 11
-82.910220
 21
9.801457
 31
0.0
 11
-83.310977
 21
10.138415
 31
0.0
 11
-83.803119
 21
10.317144
 31
0.0
 11
-84.319212
 21
10.317144
 31
0.0
 11
-84.811353
 21
10.138415
 31
0.0
 11
-85.212110
 21
9.801457
 31
0.0
 11
-85.470028
 21
9.354432
 31
0.0
 11
-85.561165
 21
8.838835
 31
0.0
 11
-85.470028
 21
8.323237
 31
0.0
 11
-85.212110
 21
7.876212
 31
0.0
 11
-84.811353
 21
7.539254
 31
0.0
 11
-84.319212
 21
7.360525
 31
0.0
 11
-83.803119
 21
7.360525
 31
0.0
 11
-83.310977
 21
7.539254
 31
0.0
 11
-82.910220
 21
7.876212
 31
0.0
 11
-82.652303
 21
8.323237
 31
0.0
 11
-82.561165
 21
8.838835
 31
0.0
  0
LINE
  5
14c
100
AcDbEntity
  8
0
 62
7
100
AcDbLine
 10
-53.925000
 20
23.750000
 30
0.0
 11
-53.925000
 21
23.750000
 31
0.0
  0
SPLINE
  5
14d
100
AcDbEntity
  8
0
 62
7
100
AcDbSpline
 70
0
 71
3
 72
25
 73
21
 74
19
 40
0.000000
 40
0.000000
 40
0.000000
 40
0.000000
 40
0.724101
 40
1.437838
 40
2.161939
 40
2.886039
 40
3.599777
 40
4.323877
 40
5.047978
 40
5.761715
 40
6.485816
 40
7.209916
 40
7.923654
 40
8.647754
 40
9.371855
 40
10.085592
 40
10.809693
 40
11.533793
 40
12.247531
 40
12.971631
 40
12.971631
 40
12.971631
 40
12.971631
 10
-53.925000
 20
23.750000
 30
0.0
 10
-53.949792
 20
23.992598
 30
0.0
 10
-53.999021
 20
24.474322
 30
0.0
 10
-54.380960
 20
25.110927
 30
0.0
 10
-54.940182
 20
25.584227
 30
0.0
 10
-55.632674
 20
25.835249
 30
0.0
 10
-56.367485
 20
25.835249
 30
0.0
 10
-57.059007
 20
25.584227
 30
0.0
 10
-57.622102
 20
25.110927
 30
0.0
 10
-57.989652
 20
24.474322
 30
0.0
 10
-58.117982
 20
23.750000
 30
0.0
 10
-57.989652
 20
23.025678
 30
0.0
 10
-57.622102
 20
22.389073
 30
0.0
 10
-57.059007
 20
21.915774
 30
0.0
 10
-56.367485
 20
21.664751
 30
0.0
 10
-55.632674
 20
21.664751
 30
0.0
 10
-54.940182
 20
21.915774
 30
0.0
 10
-54.380960
 20
22.389073
 30
0.0
 10
-53.999021
 20
23.025678
 30
0.0
 10
-53.949792
 20
23.507402
 30
0.0
 10
-53.925000
 20
23.750000
 30
0.0
 11
-53.925000
 21
23.750000
 31
0.0
 11
-54.051313
 21
24.462998
 31
0.0
 11
-54.408182
 21
25.081113
 31
0.0
 11
-54.962500
 21
25.547003
 31
0.0
 11
-55.643131
 21
25.794111
 31
0.0
 11
-56.356869
 21
25.794111
 31
0.0
 11
-57.037500
 21
25.547003
 31
0.0
 11
-57.591818
 21
25.081113
 31
0.0
 11
-57.948687
 21
24.462998
 31
0.0
 11
-58.075000
 21
23.750000
 31
0.0
 11
-57.948687
 21
23.037002
 31
0.0
 11
-57.591818
 21
22.418887
 31
0.0
 11
-57.037500
 21
21.952997
 31
0.0
 11
-56.356869
 21
21.705889
 31
0.0
 11
-55.643131
 21
21.705889
 31
0.0
 11
-54.962500
 21
21.952997
 31
0.0
 11
-54.408182
 21
22.418887
 31
0.0
 11
-54.051313
 21
23.037002
 31
0.0
 11
-53.925000
 21
23.750000
 31
0.0
  0
LINE
  5
14e
100
AcDbEntity
  8
0
 62
7
100
AcDbLine
 10
58.075000
 20
-23.750000
 30
0.0
 11
58.075000
 21
-23.750000
 31
0.0
  0
SPLINE
  5
14f
100
AcDbEntity
  8
0
 62
7
100
AcDbSpline
 70
0
 71
3
 72
25
 73
21
 74
19
 40
0.000000
 40
0.000000
 40
0.000000
 40
0.000000
 40
0.724101
 40
1.437838
 40
2.161939
 40
2.886039
 40
3.599777
 40
4.323877
 40
5.047978
 40
5.761715
 40
6.485816
 40
7.209916
 40
7.923654
 40
8.647754
 40
9.371855
 40
10.085592
 40
10.809693
 40
11.533793
 40
12.247531
 40
12.971631
 40
12.971631
 40
12.971631
 40
12.971631
 10
58.075000
 20
-23.750000
 30
0.0
 10
58.050208
 20
-23.507402
 30
0.0
 10
58.000979
 20
-23.025678
 30
0.0
 10
57.619040
 20
-22.389073
 30
0.0
 10
57.059818
 20
-21.915774
 30
0.0
 10
56.367326
 20
-21.664751
 30
0.0
 10
55.632515
 20
-21.664751
 30
0.0
 10
54.940993
 20
-21.915774
 30
0.0
 10
54.377898
 20
-22.389073
 30
0.0
 10
54.010348
 20
-23.025678
 30
0.0
 10
53.882018
 20
-23.750000
 30
0.0
 10
54.010348
 20
-24.474322
 30
0.0
 10
54.377898
 20
-25.110927
 30
0.0
 10
54.940993
 20
-25.584226
 30
0.0
 10
55.632515
 20
-25.835249
 30
0.0
 10
56.367326
 20
-25.835249
 30
0.0
 10
57.059818
 20
-25.584226
 30
0.0
 10
57.619040
 20
-25.110927
 30
0.0
 10
58.000979
 20
-24.474322
 30
0.0
 10
58.050208
 20
-23.992598
 30
0.0
 10
58.075000
 20
-23.750000
 30
0.0
 11
58.075000
 21
-23.750000
 31
0.0
 11
57.948687
 21
-23.037002
 31
0.0
 11
57.591818
 21
-22.418887
 31
0.0
 11
57.037500
 21
-21.952997
 31
0.0
 11
56.356869
 21
-21.705889
 31
0.0
 11
55.643131
 21
-21.705889
 31
0.0
 11
54.962500
 21
-21.952997
 31
0.0
 11
54.408182
 21
-22.418887
 31
0.0
 11
54.051313
 21
-23.037002
 31
0.0
 11
53.925000
 21
-23.750000
 31
0.0
 11
54.051313
 21
-24.462998
 31
0.0
 11
54.408182
 21
-25.081113
 31
0.0
 11
54.962500
 21
-25.547003
 31
0.0
 11
55.643131
 21
-25.794111
 31
0.0
 11
56.356869
 21
-25.794111
 31
0.0
 11
57.037500
 21
-25.547003
 31
0.0
 11
57.591818
 21
-25.081113
 31
0.0
 11
57.948687
 21
-24.462998
 31
0.0
 11
58.075000
 21
-23.750000
 31
0.0
  0
LINE
  5
150
100
AcDbEntity
  8
0
 62
7
100
AcDbLine
 10
58.075000
 20
23.750000
 30
0.0
 11
58.075000
 21
23.750000
 31
0.0
  0
SPLINE
  5
151
100
AcDbEntity
  8
0
 62
7
100
AcDbSpline
 70
0
 71
3
 72
25
 73
21
 74
19
 40
0.000000
 40
0.000000
 40
0.000000
 40
0.000000
 40
0.724101
 40
1.437838
 40
2.161939
 40
2.886039
 40
3.599777
 40
4.323877
 40
5.047978
 40
5.761715
 40
6.485816
 40
7.209916
 40
7.923654
 40
8.647754
 40
9.371855
 40
10.085592
 40
10.809693
 40
11.533793
 40
12.247531
 40
12.971631
 40
12.971631
 40
12.971631
 40
12.971631
 10
58.075000
 20
23.750000
 30
0.0
 10
58.050208
 20
23.992598
 30
0.0
 10
58.000979
 20
24.474322
 30
0.0
 10
57.619040
 20
25.110927
 30
0.0
 10
57.059818
 20
25.584227
 30
0.0
 10
56.367326
 20
25.835249
 30
0.0
 10
55.632515
 20
25.835249
 30
0.0
 10
54.940993
 20
25.584227
 30
0.0
 10
54.377898
 20
25.110927
 30
0.0
 10
54.010348
 20
24.474322
 30
0.0
 10
53.882018
 20
23.750000
 30
0.0
 10
54.010348
 20
23.025678
 30
0.0
 10
54.377898
 20
22.389073
 30
0.0
 10
54.940993
 20
21.915774
 30
0.0
 10
55.632515
 20
21.664751
 30
0.0
 10
56.367326
 20
21.664751
 30
0.0
 10
57.059818
 20
21.915774
 30
0.0
 10
57.619040
 20
22.389073
 30
0.0
 10
58.000979
 20
23.025678
 30
0.0
 10
58.050208
 20
23.507402
 30
0.0
 10
58.075000
 20
23.750000
 30
0.0
 11
58.075000
 21
23.750000
 31
0.0
 11
57.948687
 21
24.462998
 31
0.0
 11
57.591818
 21
25.081113
 31
0.0
 11
57.037500
 21
25.547003
 31
0.0
 11
56.356869
 21
25.794111
 31
0.0
 11
55.643131
 21
25.794111
 31
0.0
 11
54.962500
 21
25.547003
 31
0.0
 11
54.408182
 21
25.081113
 31
0.0
 11
54.051313
 21
24.462998
 31
0.0
 11
53.925000
 21
23.750000
 31
0.0
 11
54.051313
 21
23.037002
 31
0.0
 11
54.408182
 21
22.418887
 31
0.0
 11
54.962500
 21
21.952997
 31
0.0
 11
55.643131
 21
21.705889
 31
0.0
 11
56.356869
 21
21.705889
 31
0.0
 11
57.037500
 21
21.952997
 31
0.0
 11
57.591818
 21
22.418887
 31
0.0
 11
57.948687
 21
23.037002
 31
0.0
 11
58.075000
 21
23.750000
 31
0.0
  0
LINE
  5
152
100
AcDbEntity
  8
0
 62
7
100
AcDbLine
 10
-53.925000
 20
-23.750000
 30
0.0
 11
-53.925000
 21
-23.750000
 31
0.0
  0
SPLINE
  5
153
100
AcDbEntity
  8
0
 62
7
100
AcDbSpline
 70
0
 71
3
 72
25
 73
21
 74
19
 40
0.000000
 40
0.000000
 40
0.000000
 40
0.000000
 40
0.724101
 40
1.437838
 40
2.161939
 40
2.886039
 40
3.599777
 40
4.323877
 40
5.047978
 40
5.761715
 40
6.485816
 40
7.209916
 40
7.923654
 40
8.647754
 40
9.371855
 40
10.085592
 40
10.809693
 40
11.533793
 40
12.247531
 40
12.971631
 40
12.971631
 40
12.971631
 40
12.971631
 10
-53.925000
 20
-23.750000
 30
0.0
 10
-53.949792
 20
-23.507402
 30
0.0
 10
-53.999021
 20
-23.025678
 30
0.0
 10
-54.380960
 20
-22.389073
 30
0.0
 10
-54.940182
 20
-21.915774
 30
0.0
 10
-55.632674
 20
-21.664751
 30
0.0
 10
-56.367485
 20
-21.664751
 30
0.0
 10
-57.059007
 20
-21.915774
 30
0.0
 10
-57.622102
 20
-22.389073
 30
0.0
 10
-57.989652
 20
-23.025678
 30
0.0
 10
-58.117982
 20
-23.750000
 30
0.0
 10
-57.989652
 20
-24.474322
 30
0.0
 10
-57.622102
 20
-25.110927
 30
0.0
 10
-57.059007
 20
-25.584226
 30
0.0
 10
-56.367485
 20
-25.835249
 30
0.0
 10
-55.632674
 20
-25.835249
 30
0.0
 10
-54.940182
 20
-25.584226
 30
0.0
 10
-54.380960
 20
-25.110927
 30
0.0
 10
-53.999021
 20
-24.474322
 30
0.0
 10
-53.949792
 20
-23.992598
 30
0.0
 10
-53.925000
 20
-23.750000
 30
0.0
 11
-53.925000
 21
-23.750000
 31
0.0
 11
-54.051313
 21
-23.037002
 31
0.0
 11
-54.408182
 21
-22.418887
 31
0.0
 11
-54.962500
 21
-21.952997
 31
0.0
 11
-55.643131
 21
-21.705889
 31
0.0
 11
-56.356869
 21
-21.705889
 31
0.0
 11
-57.037500
 21
-21.952997
 31
0.0
 11
-57.591818
 21
-22.418887
 31
0.0
 11
-57.948687
 21
-23.037002
 31
0.0
 11
-58.075000
 21
-23.750000
 31
0.0
 11
-57.948687
 21
-24.462998
 31
0.0
 11
-57.591818
 21
-25.081113
 31
0.0
 11
-57.037500
 21
-25.547003
 31
0.0
 11
-56.356869
 21
-25.794111
 31
0.0
 11
-55.643131
 21
-25.794111
 31
0.0
 11
-54.962500
 21
-25.547003
 31
0.0
 11
-54.408182
 21
-25.081113
 31
0.0
 11
-54.051313
 21
-24.462998
 31
0.0
 11
-53.925000
 21
-23.750000
 31
0.0
  0
LINE
  5
154
100
AcDbEntity
  8
0
 62
7
100
AcDbLine
 10
-97.375000
 20
-23.800000
 30
0.0
 11
-97.375000
 21
-23.800000
 31
0.0
  0
SPLINE
  5
155
100
AcDbEntity
  8
0
 62
7
100
AcDbSpline
 70
0
 71
3
 72
25
 73
21
 74
19
 40
0.000000
 40
0.000000
 40
0.000000
 40
0.000000
 40
0.916031
 40
1.818952
 40
2.734983
 40
3.651013
 40
4.553934
 40
5.469965
 40
6.385996
 40
7.288917
 40
8.204948
 40
9.120978
 40
10.023899
 40
10.939930
 40
11.855961
 40
12.758882
 40
13.674913
 40
14.590943
 40
15.493864
 40
16.409895
 40
16.409895
 40
16.409895
 40
16.409895
 10
-97.375000
 20
-23.800000
 30
0.0
 10
-97.406364
 20
-23.493099
 30
0.0
 10
-97.468641
 20
-22.883689
 30
0.0
 10
-97.951816
 20
-22.078345
 30
0.0
 10
-98.659266
 20
-21.479593
 30
0.0
 10
-99.535310
 20
-21.162035
 30
0.0
 10
-100.464891
 20
-21.162035
 30
0.0
 10
-101.339708
 20
-21.479593
 30
0.0
 10
-102.052057
 20
-22.078345
 30
0.0
 10
-102.517029
 20
-22.883689
 30
0.0
 10
-102.679375
 20
-23.800000
 30
0.0
 10
-102.517029
 20
-24.716310
 30
0.0
 10
-102.052057
 20
-25.521655
 30
0.0
 10
-101.339708
 20
-26.120407
 30
0.0
 10
-100.464891
 20
-26.437965
 30
0.0
 10
-99.535310
 20
-26.437965
 30
0.0
 10
-98.659266
 20
-26.120407
 30
0.0
 10
-97.951816
 20
-25.521655
 30
0.0
 10
-97.468641
 20
-24.716310
 30
0.0
 10
-97.406364
 20
-24.106901
 30
0.0
 10
-97.375000
 20
-23.800000
 30
0.0
 11
-97.375000
 21
-23.800000
 31
0.0
 11
-97.534794
 21
-22.898014
 31
0.0
 11
-97.986254
 21
-22.116062
 31
0.0
 11
-98.687500
 21
-21.526683
 31
0.0
 11
-99.548540
 21
-21.214076
 31
0.0
 11
-100.451461
 21
-21.214076
 31
0.0
 11
-101.312500
 21
-21.526683
 31
0.0
 11
-102.013746
 21
-22.116062
 31
0.0
 11
-102.465206
 21
-22.898014
 31
0.0
 11
-102.625000
 21
-23.800000
 31
0.0
 11
-102.465206
 21
-24.701986
 31
0.0
 11
-102.013746
 21
-25.483938
 31
0.0
 11
-101.312500
 21
-26.073317
 31
0.0
 11
-100.451461
 21
-26.385924
 31
0.0
 11
-99.548540
 21
-26.385924
 31
0.0
 11
-98.687500
 21
-26.073317
 31
0.0
 11
-97.986254
 21
-25.483938
 31
0.0
 11
-97.534794
 21
-24.701986
 31
0.0
 11
-97.375000
 21
-23.800000
 31
0.0
  0
LINE
  5
156
100
AcDbEntity
  8
0
 62
7
100
AcDbLine
 10
-97.375000
 20
73.800000
 30
0.0
 11
-97.375000
 21
73.800000
 31
0.0
  0
SPLINE
  5
157
100
AcDbEntity
  8
0
 62
7
100
AcDbSpline
 70
0
 71
3
 72
25
 73
21
 74
19
 40
0.000000
 40
0.000000
 40
0.000000
 40
0.000000
 40
0.916031
 40
1.818952
 40
2.734983
 40
3.651013
 40
4.553934
 40
5.469965
 40
6.385996
 40
7.288917
 40
8.204948
 40
9.120978
 40
10.023899
 40
10.939930
 40
11.855961
 40
12.758882
 40
13.674913
 40
14.590943
 40
15.493864
 40
16.409895
 40
16.409895
 40
16.409895
 40
16.409895
 10
-97.375000
 20
73.800000
 30
0.0
 10
-97.406364
 20
74.106901
 30
0.0
 10
-97.468641
 20
74.716310
 30
0.0
 10
-97.951816
 20
75.521655
 30
0.0
 10
-98.659266
 20
76.120407
 30
0.0
 10
-99.535310
 20
76.437965
 30
0.0
 10
-100.464891
 20
76.437965
 30
0.0
 10
-101.339708
 20
76.120407
 30
0.0
 10
-102.052057
 20
75.521655
 30
0.0
 10
-102.517029
 20
74.716310
 30
0.0
 10
-102.679375
 20
73.800000
 30
0.0
 10
-102.517029
 20
72.883689
 30
0.0
 10
-102.052057
 20
72.078345
 30
0.0
 10
-101.339708
 20
71.479593
 30
0.0
 10
-100.464891
 20
71.162035
 30
0.0
 10
-99.535310
 20
71.162035
 30
0.0
 10
-98.659266
 20
71.479593
 30
0.0
 10
-97.951816
 20
72.078345
 30
0.0
 10
-97.468641
 20
72.883689
 30
0.0
 10
-97.406364
 20
73.493099
 30
0.0
 10
-97.375000
 20
73.800000
 30
0.0
 11
-97.375000
 21
73.800000
 31
0.0
 11
-97.534794
 21
74.701986
 31
0.0
 11
-97.986254
 21
75.483938
 31
0.0
 11
-98.687500
 21
76.073317
 31
0.0
 11
-99.548540
 21
76.385924
 31
0.0
 11
-100.451461
 21
76.385924
 31
0.0
 11
-101.312500
 21
76.073317
 31
0.0
 11
-102.013746
 21
75.483938
 31
0.0
 11
-102.465206
 21
74.701986
 31
0.0
 11
-102.625000
 21
73.800000
 31
0.0
 11
-102.465206
 21
72.898014
 31
0.0
 11
-102.013746
 21
72.116062
 31
0.0
 11
-101.312500
 21
71.526683
 31
0.0
 11
-100.451461
 21
71.214076
 31
0.0
 11
-99.548540
 21
71.214076
 31
0.0
 11
-98.687500
 21
71.526683
 31
0.0
 11
-97.986254
 21
72.116062
 31
0.0
 11
-97.534794
 21
72.898014
 31
0.0
 11
-97.375000
 21
73.800000
 31
0.0
  0
LINE
  5
158
100
AcDbEntity
  8
0
 62
7
100
AcDbLine
 10
102.625000
 20
73.800000
 30
0.0
 11
102.625000
 21
73.800000
 31
0.0
  0
SPLINE
  5
159
100
AcDbEntity
  8
0
 62
7
100
AcDbSpline
 70
0
 71
3
 72
25
 73
21
 74
19
 40
0.000000
 40
0.000000
 40
0.000000
 40
0.000000
 40
0.916031
 40
1.818952
 40
2.734983
 40
3.651013
 40
4.553934
 40
5.469965
 40
6.385996
 40
7.288917
 40
8.204948
 40
9.120978
 40
10.023899
 40
10.939930
 40
11.855961
 40
12.758882
 40
13.674913
 40
14.590943
 40
15.493864
 40
16.409895
 40
16.409895
 40
16.409895
 40
16.409895
 10
102.625000
 20
73.800000
 30
0.0
 10
102.593637
 20
74.106901
 30
0.0
 10
102.531359
 20
74.716310
 30
0.0
 10
102.048184
 20
75.521655
 30
0.0
 10
101.340734
 20
76.120407
 30
0.0
 10
100.464690
 20
76.437965
 30
0.0
 10
99.535109
 20
76.437965
 30
0.0
 10
98.660292
 20
76.120407
 30
0.0
 10
97.947943
 20
75.521655
 30
0.0
 10
97.482971
 20
74.716310
 30
0.0
 10
97.320626
 20
73.800000
 30
0.0
 10
97.482971
 20
72.883689
 30
0.0
 10
97.947943
 20
72.078345
 30
0.0
 10
98.660292
 20
71.479593
 30
0.0
 10
99.535109
 20
71.162035
 30
0.0
 10
100.464690
 20
71.162035
 30
0.0
 10
101.340734
 20
71.479593
 30
0.0
 10
102.048184
 20
72.078345
 30
0.0
 10
102.531359
 20
72.883689
 30
0.0
 10
102.593637
 20
73.493099
 30
0.0
 10
102.625000
 20
73.800000
 30
0.0
 11
102.625000
 21
73.800000
 31
0.0
 11
102.465206
 21
74.701986
 31
0.0
 11
102.013746
 21
75.483938
 31
0.0
 11
101.312500
 21
76.073317
 31
0.0
 11
100.451461
 21
76.385924
 31
0.0
 11
99.548540
 21
76.385924
 31
0.0
 11
98.687500
 21
76.073317
 31
0.0
 11
97.986254
 21
75.483938
 31
0.0
 11
97.534794
 21
74.701986
 31
0.0
 11
97.375000
 21
73.800000
 31
0.0
 11
97.534794
 21
72.898014
 31
0.0
 11
97.986254
 21
72.116062
 31
0.0
 11
98.687500
 21
71.526683
 31
0.0
 11
99.548540
 21
71.214076
 31
0.0
 11
100.451461
 21
71.214076
 31
0.0
 11
101.312500
 21
71.526683
 31
0.0
 11
102.013746
 21
72.116062
 31
0.0
 11
102.465206
 21
72.898014
 31
0.0
 11
102.625000
 21
73.800000
 31
0.0
  0
LINE
  5
15a
100
AcDbEntity
  8
0
 62
7
100
AcDbLine
 10
102.625000
 20
-23.800000
 30
0.0
 11
102.625000
 21
-23.800000
 31
0.0
  0
SPLINE
  5
15b
100
AcDbEntity
  8
0
 62
7
100
AcDbSpline
 70
0
 71
3
 72
25
 73
21
 74
19
 40
0.000000
 40
0.000000
 40
0.000000
 40
0.000000
 40
0.916031
 40
1.818952
 40
2.734983
 40
3.651013
 40
4.553934
 40
5.469965
 40
6.385996
 40
7.288917
 40
8.204948
 40
9.120978
 40
10.023899
 40
10.939930
 40
11.855961
 40
12.758882
 40
13.674913
 40
14.590943
 40
15.493864
 40
16.409895
 40
16.409895
 40
16.409895
 40
16.409895
 10
102.625000
 20
-23.800000
 30
0.0
 10
102.593637
 20
-23.493099
 30
0.0
 10
102.531359
 20
-22.883689
 30
0.0
 10
102.048184
 20
-22.078345
 30
0.0
 10
101.340734
 20
-21.479593
 30
0.0
 10
100.464690
 20
-21.162035
 30
0.0
 10
99.535109
 20
-21.162035
 30
0.0
 10
98.660292
 20
-21.479593
 30
0.0
 10
97.947943
 20
-22.078345
 30
0.0
 10
97.482971
 20
-22.883689
 30
0.0
 10
97.320626
 20
-23.800000
 30
0.0
 10
97.482971
 20
-24.716310
 30
0.0
 10
97.947943
 20
-25.521655
 30
0.0
 10
98.660292
 20
-26.120407
 30
0.0
 10
99.535109
 20
-26.437965
 30
0.0
 10
100.464690
 20
-26.437965
 30
0.0
 10
101.340734
 20
-26.120407
 30
0.0
 10
102.048184
 20
-25.521655
 30
0.0
 10
102.531359
 20
-24.716310
 30
0.0
 10
102.593637
 20
-24.106901
 30
0.0
 10
102.625000
 20
-23.800000
 30
0.0
 11
102.625000
 21
-23.800000
 31
0.0
 11
102.465206
 21
-22.898014
 31
0.0
 11
102.013746
 21
-22.116062
 31
0.0
 11
101.312500
 21
-21.526683
 31
0.0
 11
100.451461
 21
-21.214076
 31
0.0
 11
99.548540
 21
-21.214076
 31
0.0
 11
98.687500
 21
-21.526683
 31
0.0
 11
97.986254
 21
-22.116062
 31
0.0
 11
97.534794
 21
-22.898014
 31
0.0
 11
97.375000
 21
-23.800000
 31
0.0
 11
97.534794
 21
-24.701986
 31
0.0
 11
97.986254
 21
-25.483938
 31
0.0
 11
98.687500
 21
-26.073317
 31
0.0
 11
99.548540
 21
-26.385924
 31
0.0
 11
100.451461
 21
-26.385924
 31
0.0
 11
101.312500
 21
-26.073317
 31
0.0
 11
102.013746
 21
-25.483938
 31
0.0
 11
102.465206
 21
-24.701986
 31
0.0
 11
102.625000
 21
-23.800000
 31
0.0
  0
LINE
  5
15c
100
AcDbEntity
  8
0
 62
7
100
AcDbLine
 10
38.733330
 20
27.924998
 30
0.0
 11
38.733330
 21
27.924998
 31
0.0
  0
SPLINE
  5
15d
100
AcDbEntity
  8
0
 62
7
100
AcDbSpline
 70
0
 71
3
 72
25
 73
21
 74
19
 40
0.000000
 40
0.000000
 40
0.000000
 40
0.000000
 40
0.523591
 40
1.039684
 40
1.563274
 40
2.086865
 40
2.602958
 40
3.126549
 40
3.650140
 40
4.166233
 40
4.689823
 40
5.213414
 40
5.729507
 40
6.253098
 40
6.776689
 40
7.292782
 40
7.816372
 40
8.339963
 40
8.856056
 40
9.379647
 40
9.379647
 40
9.379647
 40
9.379647
 10
38.733330
 20
27.924998
 30
0.0
 10
38.715474
 20
28.100426
 30
0.0
 10
38.680018
 20
28.448771
 30
0.0
 10
38.403970
 20
28.909180
 30
0.0
 10
37.999665
 20
29.251499
 30
0.0
 10
37.498942
 20
29.433061
 30
0.0
 10
36.967603
 20
29.433061
 30
0.0
 10
36.467580
 20
29.251499
 30
0.0
 10
36.060485
 20
28.909180
 30
0.0
 10
35.794800
 20
28.448771
 30
0.0
 10
35.702373
 20
27.924998
 30
0.0
 10
35.794800
 20
27.401224
 30
0.0
 10
36.060485
 20
26.940815
 30
0.0
 10
36.467580
 20
26.598496
 30
0.0
 10
36.967603
 20
26.416934
 30
0.0
 10
37.498942
 20
26.416934
 30
0.0
 10
37.999665
 20
26.598496
 30
0.0
 10
38.403970
 20
26.940815
 30
0.0
 10
38.680018
 20
27.401224
 30
0.0
 10
38.715474
 20
27.749569
 30
0.0
 10
38.733330
 20
27.924998
 30
0.0
 11
38.733330
 21
27.924998
 31
0.0
 11
38.642193
 21
28.440595
 31
0.0
 11
38.384275
 21
28.887620
 31
0.0
 11
37.983518
 21
29.224578
 31
0.0
 11
37.491377
 21
29.403307
 31
0.0
 11
36.975283
 21
29.403307
 31
0.0
 11
36.483142
 21
29.224578
 31
0.0
 11
36.082385
 21
28.887620
 31
0.0
 11
35.824468
 21
28.440595
 31
0.0
 11
35.733330
 21
27.924998
 31
0.0
 11
35.824468
 21
27.409400
 31
0.0
 11
36.082385
 21
26.962375
 31
0.0
 11
36.483142
 21
26.625417
 31
0.0
 11
36.975283
 21
26.446688
 31
0.0
 11
37.491377
 21
26.446688
 31
0.0
 11
37.983518
 21
26.625417
 31
0.0
 11
38.384275
 21
26.962375
 31
0.0
 11
38.642193
 21
27.409400
 31
0.0
 11
38.733330
 21
27.924998
 31
0.0
  0
LINE
  5
15e
100
AcDbEntity
  8
0
 62
7
100
AcDbLine
 10
38.733330
 20
-27.924997
 30
0.0
 11
38.733330
 21
-27.924997
 31
0.0
  0
SPLINE
  5
15f
100
AcDbEntity
  8
0
 62
7
100
AcDbSpline
 70
0
 71
3
 72
25
 73
21
 74
19
 40
0.000000
 40
0.000000
 40
0.000000
 40
0.000000
 40
0.523591
 40
1.039684
 40
1.563274
 40
2.086865
 40
2.602958
 40
3.126549
 40
3.650140
 40
4.166233
 40
4.689823
 40
5.213414
 40
5.729507
 40
6.253098
 40
6.776689
 40
7.292782
 40
7.816372
 40
8.339963
 40
8.856056
 40
9.379647
 40
9.379647
 40
9.379647
 40
9.379647
 10
38.733330
 20
-27.924997
 30
0.0
 10
38.715474
 20
-27.749569
 30
0.0
 10
38.680018
 20
-27.401224
 30
0.0
 10
38.403970
 20
-26.940815
 30
0.0
 10
37.999665
 20
-26.598496
 30
0.0
 10
37.498942
 20
-26.416934
 30
0.0
 10
36.967603
 20
-26.416934
 30
0.0
 10
36.467580
 20
-26.598496
 30
0.0
 10
36.060485
 20
-26.940815
 30
0.0
 10
35.794800
 20
-27.401224
 30
0.0
 10
35.702373
 20
-27.924997
 30
0.0
 10
35.794800
 20
-28.448771
 30
0.0
 10
36.060485
 20
-28.909180
 30
0.0
 10
36.467580
 20
-29.251499
 30
0.0
 10
36.967603
 20
-29.433061
 30
0.0
 10
37.498942
 20
-29.433061
 30
0.0
 10
37.999665
 20
-29.251499
 30
0.0
 10
38.403970
 20
-28.909180
 30
0.0
 10
38.680018
 20
-28.448771
 30
0.0
 10
38.715474
 20
-28.100426
 30
0.0
 10
38.733330
 20
-27.924997
 30
0.0
 11
38.733330
 21
-27.924997
 31
0.0
 11
38.642193
 21
-27.409400
 31
0.0
 11
38.384275
 21
-26.962375
 31
0.0
 11
37.983518
 21
-26.625417
 31
0.0
 11
37.491377
 21
-26.446688
 31
0.0
 11
36.975283
 21
-26.446688
 31
0.0
 11
36.483142
 21
-26.625417
 31
0.0
 11
36.082385
 21
-26.962375
 31
0.0
 11
35.824468
 21
-27.409400
 31
0.0
 11
35.733330
 21
-27.924997
 31
0.0
 11
35.824468
 21
-28.440595
 31
0.0
 11
36.082385
 21
-28.887620
 31
0.0
 11
36.483142
 21
-29.224578
 31
0.0
 11
36.975283
 21
-29.403307
 31
0.0
 11
37.491377
 21
-29.403307
 31
0.0
 11
37.983518
 21
-29.224578
 31
0.0
 11
38.384275
 21
-28.887620
 31
0.0
 11
38.642193
 21
-28.440595
 31
0.0
 11
38.733330
 21
-27.924997
 31
0.0
  0
LINE
  5
160
100
AcDbEntity
  8
0
 62
7
100
AcDbLine
 10
-35.733330
 20
-27.924997
 30
0.0
 11
-35.733330
 21
-27.924997
 31
0.0
  0
SPLINE
  5
161
100
AcDbEntity
  8
0
 62
7
100
AcDbSpline
 70
0
 71
3
 72
25
 73
21
 74
19
 40
0.000000
 40
0.000000
 40
0.000000
 40
0.000000
 40
0.523591
 40
1.039684
 40
1.563274
 40
2.086865
 40
2.602958
 40
3.126549
 40
3.650140
 40
4.166233
 40
4.689823
 40
5.213414
 40
5.729507
 40
6.253098
 40
6.776689
 40
7.292782
 40
7.816372
 40
8.339963
 40
8.856056
 40
9.379647
 40
9.379647
 40
9.379647
 40
9.379647
 10
-35.733330
 20
-27.924997
 30
0.0
 10
-35.751186
 20
-27.749569
 30
0.0
 10
-35.786642
 20
-27.401224
 30
0.0
 10
-36.062690
 20
-26.940815
 30
0.0
 10
-36.466996
 20
-26.598496
 30
0.0
 10
-36.967718
 20
-26.416934
 30
0.0
 10
-37.499057
 20
-26.416934
 30
0.0
 10
-37.999080
 20
-26.598496
 30
0.0
 10
-38.406175
 20
-26.940815
 30
0.0
 10
-38.671860
 20
-27.401224
 30
0.0
 10
-38.764287
 20
-27.924997
 30
0.0
 10
-38.671860
 20
-28.448771
 30
0.0
 10
-38.406175
 20
-28.909180
 30
0.0
 10
-37.999080
 20
-29.251499
 30
0.0
 10
-37.499057
 20
-29.433061
 30
0.0
 10
-36.967718
 20
-29.433061
 30
0.0
 10
-36.466996
 20
-29.251499
 30
0.0
 10
-36.062690
 20
-28.909180
 30
0.0
 10
-35.786642
 20
-28.448771
 30
0.0
 10
-35.751186
 20
-28.100426
 30
0.0
 10
-35.733330
 20
-27.924997
 30
0.0
 11
-35.733330
 21
-27.924997
 31
0.0
 11
-35.824468
 21
-27.409400
 31
0.0
 11
-36.082385
 21
-26.962375
 31
0.0
 11
-36.483142
 21
-26.625417
 31
0.0
 11
-36.975283
 21
-26.446688
 31
0.0
 11
-37.491377
 21
-26.446688
 31
0.0
 11
-37.983518
 21
-26.625417
 31
0.0
 11
-38.384275
 21
-26.962375
 31
0.0
 11
-38.642193
 21
-27.409400
 31
0.0
 11
-38.733330
 21
-27.924997
 31
0.0
 11
-38.642193
 21
-28.440595
 31
0.0
 11
-38.384275
 21
-28.887620
 31
0.0
 11
-37.983518
 21
-29.224578
 31
0.0
 11
-37.491377
 21
-29.403307
 31
0.0
 11
-36.975283
 21
-29.403307
 31
0.0
 11
-36.483142
 21
-29.224578
 31
0.0
 11
-36.082385
 21
-28.887620
 31
0.0
 11
-35.824468
 21
-28.440595
 31
0.0
 11
-35.733330
 21
-27.924997
 31
0.0
  0
LINE
  5
162
100
AcDbEntity
  8
0
 62
7
100
AcDbLine
 10
-35.733330
 20
27.924998
 30
0.0
 11
-35.733330
 21
27.924998
 31
0.0
  0
SPLINE
  5
163
100
AcDbEntity
  8
0
 62
7
100
AcDbSpline
 70
0
 71
3
 72
25
 73
21
 74
19
 40
0.000000
 40
0.000000
 40
0.000000
 40
0.000000
 40
0.523591
 40
1.039684
 40
1.563274
 40
2.086865
 40
2.602958
 40
3.126549
 40
3.650140
 40
4.166233
 40
4.689823
 40
5.213414
 40
5.729507
 40
6.253098
 40
6.776689
 40
7.292782
 40
7.816372
 40
8.339963
 40
8.856056
 40
9.379647
 40
9.379647
 40
9.379647
 40
9.379647
 10
-35.733330
 20
27.924998
 30
0.0
 10
-35.751186
 20
28.100426
 30
0.0
 10
-35.786642
 20
28.448771
 30
0.0
 10
-36.062690
 20
28.909180
 30
0.0
 10
-36.466996
 20
29.251499
 30
0.0
 10
-36.967718
 20
29.433061
 30
0.0
 10
-37.499057
 20
29.433061
 30
0.0
 10
-37.999080
 20
29.251499
 30
0.0
 10
-38.406175
 20
28.909180
 30
0.0
 10
-38.671860
 20
28.448771
 30
0.0
 10
-38.764287
 20
27.924998
 30
0.0
 10
-38.671860
 20
27.401224
 30
0.0
 10
-38.406175
 20
26.940815
 30
0.0
 10
-37.999080
 20
26.598496
 30
0.0
 10
-37.499057
 20
26.416934
 30
0.0
 10
-36.967718
 20
26.416934
 30
0.0
 10
-36.466996
 20
26.598496
 30
0.0
 10
-36.062690
 20
26.940815
 30
0.0
 10
-35.786642
 20
27.401224
 30
0.0
 10
-35.751186
 20
27.749569
 30
0.0
 10
-35.733330
 20
27.924998
 30
0.0
 11
-35.733330
 21
27.924998
 31
0.0
 11
-35.824468
 21
28.440595
 31
0.0
 11
-36.082385
 21
28.887620
 31
0.0
 11
-36.483142
 21
29.224578
 31
0.0
 11
-36.975283
 21
29.403307
 31
0.0
 11
-37.491377
 21
29.403307
 31
0.0
 11
-37.983518
 21
29.224578
 31
0.0
 11
-38.384275
 21
28.887620
 31
0.0
 11
-38.642193
 21
28.440595
 31
0.0
 11
-38.733330
 21
27.924998
 31
0.0
 11
-38.642193
 21
27.409400
 31
0.0
 11
-38.384275
 21
26.962375
 31
0.0
 11
-37.983518
 21
26.625417
 31
0.0
 11
-37.491377
 21
26.446688
 31
0.0
 11
-36.975283
 21
26.446688
 31
0.0
 11
-36.483142
 21
26.625417
 31
0.0
 11
-36.082385
 21
26.962375
 31
0.0
 11
-35.824468
 21
27.409400
 31
0.0
 11
-35.733330
 21
27.924998
 31
0.0
  0
ENDSEC
  0
SECTION
  2
OBJECTS
  0
DICTIONARY
  5
C
330
0
100
AcDbDictionary
  3
ACAD_GROUP
350
D
  3
ACAD_MLINESTYLE
350
17
  0
DICTIONARY
  5
D
330
C
100
AcDbDictionary
  0
DICTIONARY
  5
1A
330
C
100
AcDbDictionary
  0
DICTIONARY
  5
17
330
C
100
AcDbDictionary
  3
STANDARD
350
18
  0
DICTIONARY
  5
19
330
C
100
AcDbDictionary
  0
ENDSEC
  0
EOF
