  0
SECTION
  2
HEADER
  9
$ACADVER
  1
AC1014
  9
$HANDSEED
  5
FFFF
  9
$MEASUREMENT
 70
     1
  0
ENDSEC
  0
SECTION
  2
TABLES
  0
TABLE
  2
VPORT
  5
8
330
0
100
AcDbSymbolTable
 70
     4
  0
VPORT
  5
2E
330
8
100
AcDbSymbolTableRecord
100
AcDbViewportTableRecord
  2
*ACTIVE
 70
     0
 10
0.0
 20
0.0
 11
1.0
 21
1.0
 12
210.0
 22
148.5
 13
0.0
 23
0.0
 14
10.0
 24
10.0
 15
10.0
 25
10.0
 16
0.0
 26
0.0
 36
1.0
 17
0.0
 27
0.0
 37
0.0
 40
341.0
 41
1.24
 42
50.0
 43
0.0
 44
0.0
 50
0.0
 51
0.0
 71
     0
 72
   100
 73
     1
 74
     3
 75
     0
 76
     0
 77
     0
 78
     0
  0
ENDTAB
  0
TABLE
  2
LTYPE
  5
5
330
0
100
AcDbSymbolTable
 70
     1
  0
LTYPE
  5
14
330
5
100
AcDbSymbolTableRecord
100
AcDbLinetypeTableRecord
  2
BYBLOCK
 70
     0
  3

 72
    65
 73
     0
 40
0.0
  0
LTYPE
  5
15
330
5
100
AcDbSymbolTableRecord
100
AcDbLinetypeTableRecord
  2
BYLAYER
 70
     0
  3

 72
    65
 73
     0
 40
0.0
  0
LTYPE
  5
16
330
5
100
AcDbSymbolTableRecord
100
AcDbLinetypeTableRecord
  2
CONTINUOUS
 70
     0
  3
Solid line
 72
    65
 73
     0
 40
0.0
  0
ENDTAB
  0
TABLE
  2
LAYER
  5
2
100
AcDbSymbolTable
 70
1
  0
LAYER
  5
50
100
AcDbSymbolTableRecord
100
AcDbLayerTableRecord
  2
0
 70
0
  6
CONTINUOUS
  0
ENDTAB
  0
TABLE
  2
STYLE
  5
3
330
0
100
AcDbSymbolTable
 70
     1
  0
STYLE
  5
11
330
3
100
AcDbSymbolTableRecord
100
AcDbTextStyleTableRecord
  2
STANDARD
 70
     0
 40
0.0
 41
1.0
 50
0.0
 71
     0
 42
2.5
  3
txt
  4

  0
ENDTAB
  0
TABLE
  2
VIEW
  5
6
330
0
100
AcDbSymbolTable
 70
     0
  0
ENDTAB
  0
TABLE
  2
UCS
  5
7
330
0
100
AcDbSymbolTable
 70
     0
  0
ENDTAB
  0
TABLE
  2
APPID
  5
9
330
0
100
AcDbSymbolTable
 70
     2
  0
APPID
  5
12
330
9
100
AcDbSymbolTableRecord
100
AcDbRegAppTableRecord
  2
ACAD
 70
     0
  0
ENDTAB
  0
TABLE
  2
DIMSTYLE
  5
A
330
0
100
AcDbSymbolTable
 70
     1
  0
DIMSTYLE
105
27
330
A
100
AcDbSymbolTableRecord
100
AcDbDimStyleTableRecord
  2
ISO-25
 70
     0
  3

  4

  5

  6

  7

 40
1.0
 41
2.5
 42
0.625
 43
3.75
 44
1.25
 45
0.0
 46
0.0
 47
0.0
 48
0.0
140
2.5
141
2.5
142
0.0
143
0.03937007874016
144
1.0
145
0.0
146
1.0
147
0.625
 71
     0
 72
     0
 73
     0
 74
     0
 75
     0
 76
     0
 77
     1
 78
     8
170
     0
171
     3
172
     1
173
     0
174
     0
175
     0
176
     0
177
     0
178
     0
270
     2
271
     2
272
     2
273
     2
274
     3
340
11
275
     0
280
     0
281
     0
282
     0
283
     0
284
     8
285
     0
286
     0
287
     3
288
     0
  0
ENDTAB
  0
TABLE
  2
BLOCK_RECORD
  5
1
330
0
100
AcDbSymbolTable
 70
     1
  0
BLOCK_RECORD
  5
1F
330
1
100
AcDbSymbolTableRecord
100
AcDbBlockTableRecord
  2
*MODEL_SPACE
  0
BLOCK_RECORD
  5
1B
330
1
100
AcDbSymbolTableRecord
100
AcDbBlockTableRecord
  2
*PAPER_SPACE
  0
ENDTAB
  0
ENDSEC
  0
SECTION
  2
BLOCKS
  0
BLOCK
  5
20
330
1F
100
AcDbEntity
  8
0
100
AcDbBlockBegin
  2
*MODEL_SPACE
 70
     0
 10
0.0
 20
0.0
 30
0.0
  3
*MODEL_SPACE
  1

  0
ENDBLK
  5
21
330
1F
100
AcDbEntity
  8
0
100
AcDbBlockEnd
  0
BLOCK
  5
1C
330
1B
100
AcDbEntity
 67
     1
  8
0
100
AcDbBlockBegin
  2
*PAPER_SPACE
  1

  0
ENDBLK
  5
1D
330
1B
100
AcDbEntity
 67
     1
  8
0
100
AcDbBlockEnd
  0
ENDSEC
  0
SECTION
  2
ENTITIES
  0
LINE
  5
100
100
AcDbEntity
  8
0
 62
7
100
AcDbLine
 10
8.000000
 20
-0.000000
 30
0.0
 11
8.000000
 21
-0.000000
 31
0.0
  0
SPLINE
  5
101
100
AcDbEntity
  8
0
 62
7
100
AcDbSpline
 70
0
 71
3
 72
25
 73
21
 74
19
 40
0.000000
 40
0.000000
 40
0.000000
 40
0.000000
 40
2.791713
 40
5.543472
 40
8.335185
 40
11.126898
 40
13.878657
 40
16.670370
 40
19.462083
 40
22.213842
 40
25.005555
 40
27.797268
 40
30.549027
 40
33.340740
 40
36.132453
 40
38.884212
 40
41.675925
 40
44.467638
 40
47.219397
 40
50.011110
 40
50.011110
 40
50.011110
 40
50.011110
 10
8.000000
 20
-0.000000
 30
0.0
 10
7.904416
 20
0.935317
 30
0.0
 10
7.714617
 20
2.792565
 30
0.0
 10
6.242084
 20
5.246948
 30
0.0
 10
4.086045
 20
7.071717
 30
0.0
 10
1.416198
 20
8.039513
 30
0.0
 10
-1.416811
 20
8.039513
 30
0.0
 10
-4.082919
 20
7.071717
 30
0.0
 10
-6.253887
 20
5.246948
 30
0.0
 10
-7.670947
 20
2.792565
 30
0.0
 10
-8.165713
 20
-0.000000
 30
0.0
 10
-7.670947
 20
-2.792566
 30
0.0
 10
-6.253887
 20
-5.246948
 30
0.0
 10
-4.082919
 20
-7.071717
 30
0.0
 10
-1.416811
 20
-8.039513
 30
0.0
 10
1.416198
 20
-8.039513
 30
0.0
 10
4.086045
 20
-7.071717
 30
0.0
 10
6.242084
 20
-5.246948
 30
0.0
 10
7.714617
 20
-2.792566
 30
0.0
 10
7.904416
 20
-0.935317
 30
0.0
 10
8.000000
 20
-0.000000
 30
0.0
 11
8.000000
 21
-0.000000
 31
0.0
 11
7.513009
 21
2.748909
 31
0.0
 11
6.137130
 21
5.132002
 31
0.0
 11
4.000000
 21
6.928203
 31
0.0
 11
1.375880
 21
7.880911
 31
0.0
 11
-1.375880
 21
7.880911
 31
0.0
 11
-4.000000
 21
6.928203
 31
0.0
 11
-6.137130
 21
5.132002
 31
0.0
 11
-7.513009
 21
2.748909
 31
0.0
 11
-8.000000
 21
-0.000000
 31
0.0
 11
-7.513009
 21
-2.748909
 31
0.0
 11
-6.137130
 21
-5.132003
 31
0.0
 11
-4.000000
 21
-6.928203
 31
0.0
 11
-1.375880
 21
-7.880912
 31
0.0
 11
1.375880
 21
-7.880912
 31
0.0
 11
4.000000
 21
-6.928203
 31
0.0
 11
6.137130
 21
-5.132003
 31
0.0
 11
7.513009
 21
-2.748909
 31
0.0
 11
8.000000
 21
-0.000000
 31
0.0
  0
LINE
  5
102
100
AcDbEntity
  8
0
 62
7
100
AcDbLine
 10
1.550000
 20
-0.000000
 30
0.0
 11
1.550000
 21
-0.000000
 31
0.0
  0
SPLINE
  5
103
100
AcDbEntity
  8
0
 62
7
100
AcDbSpline
 70
0
 71
3
 72
25
 73
21
 74
19
 40
0.000000
 40
0.000000
 40
0.000000
 40
0.000000
 40
0.540894
 40
1.074048
 40
1.614942
 40
2.155836
 40
2.688990
 40
3.229884
 40
3.770779
 40
4.303932
 40
4.844826
 40
5.385721
 40
5.918874
 40
6.459768
 40
7.000663
 40
7.533816
 40
8.074710
 40
8.615605
 40
9.148758
 40
9.689653
 40
9.689653
 40
9.689653
 40
9.689653
 10
1.550000
 20
-0.000000
 30
0.0
 10
1.531481
 20
0.181218
 30
0.0
 10
1.494707
 20
0.541059
 30
0.0
 10
1.209404
 20
1.016596
 30
0.0
 10
0.791671
 20
1.370145
 30
0.0
 10
0.274388
 20
1.557656
 30
0.0
 10
-0.274507
 20
1.557656
 30
0.0
 10
-0.791066
 20
1.370145
 30
0.0
 10
-1.211691
 20
1.016596
 30
0.0
 10
-1.486246
 20
0.541059
 30
0.0
 10
-1.582107
 20
-0.000000
 30
0.0
 10
-1.486246
 20
-0.541060
 30
0.0
 10
-1.211691
 20
-1.016596
 30
0.0
 10
-0.791066
 20
-1.370145
 30
0.0
 10
-0.274507
 20
-1.557656
 30
0.0
 10
0.274388
 20
-1.557656
 30
0.0
 10
0.791671
 20
-1.370145
 30
0.0
 10
1.209404
 20
-1.016596
 30
0.0
 10
1.494707
 20
-0.541060
 30
0.0
 10
1.531481
 20
-0.181218
 30
0.0
 10
1.550000
 20
-0.000000
 30
0.0
 11
1.550000
 21
-0.000000
 31
0.0
 11
1.455646
 21
0.532601
 31
0.0
 11
1.189069
 21
0.994325
 31
0.0
 11
0.775000
 21
1.342339
 31
0.0
 11
0.266577
 21
1.526927
 31
0.0
 11
-0.266577
 21
1.526927
 31
0.0
 11
-0.775000
 21
1.342339
 31
0.0
 11
-1.189069
 21
0.994325
 31
0.0
 11
-1.455646
 21
0.532601
 31
0.0
 11
-1.550000
 21
-0.000000
 31
0.0
 11
-1.455646
 21
-0.532601
 31
0.0
 11
-1.189069
 21
-0.994326
 31
0.0
 11
-0.775000
 21
-1.342339
 31
0.0
 11
-0.266577
 21
-1.526927
 31
0.0
 11
0.266577
 21
-1.526927
 31
0.0
 11
0.775000
 21
-1.342339
 31
0.0
 11
1.189069
 21
-0.994326
 31
0.0
 11
1.455646
 21
-0.532601
 31
0.0
 11
1.550000
 21
-0.000000
 31
0.0
  0
LINE
  5
104
100
AcDbEntity
  8
0
 62
7
100
AcDbLine
 10
8.000000
 20
-30.000000
 30
0.0
 11
8.000000
 21
-30.000000
 31
0.0
  0
SPLINE
  5
105
100
AcDbEntity
  8
0
 62
7
100
AcDbSpline
 70
0
 71
3
 72
25
 73
21
 74
19
 40
0.000000
 40
0.000000
 40
0.000000
 40
0.000000
 40
2.791713
 40
5.543472
 40
8.335185
 40
11.126898
 40
13.878657
 40
16.670370
 40
19.462083
 40
22.213842
 40
25.005555
 40
27.797268
 40
30.549027
 40
33.340740
 40
36.132453
 40
38.884212
 40
41.675925
 40
44.467638
 40
47.219397
 40
50.011110
 40
50.011110
 40
50.011110
 40
50.011110
 10
8.000000
 20
-30.000000
 30
0.0
 10
7.904416
 20
-29.064683
 30
0.0
 10
7.714617
 20
-27.207434
 30
0.0
 10
6.242084
 20
-24.753052
 30
0.0
 10
4.086045
 20
-22.928283
 30
0.0
 10
1.416198
 20
-21.960487
 30
0.0
 10
-1.416811
 20
-21.960487
 30
0.0
 10
-4.082919
 20
-22.928283
 30
0.0
 10
-6.253887
 20
-24.753052
 30
0.0
 10
-7.670947
 20
-27.207434
 30
0.0
 10
-8.165713
 20
-30.000000
 30
0.0
 10
-7.670947
 20
-32.792565
 30
0.0
 10
-6.253887
 20
-35.246948
 30
0.0
 10
-4.082919
 20
-37.071717
 30
0.0
 10
-1.416811
 20
-38.039513
 30
0.0
 10
1.416198
 20
-38.039513
 30
0.0
 10
4.086045
 20
-37.071717
 30
0.0
 10
6.242084
 20
-35.246948
 30
0.0
 10
7.714617
 20
-32.792565
 30
0.0
 10
7.904416
 20
-30.935317
 30
0.0
 10
8.000000
 20
-30.000000
 30
0.0
 11
8.000000
 21
-30.000000
 31
0.0
 11
7.513009
 21
-27.251091
 31
0.0
 11
6.137130
 21
-24.867997
 31
0.0
 11
4.000000
 21
-23.071797
 31
0.0
 11
1.375880
 21
-22.119088
 31
0.0
 11
-1.375880
 21
-22.119088
 31
0.0
 11
-4.000000
 21
-23.071797
 31
0.0
 11
-6.137130
 21
-24.867997
 31
0.0
 11
-7.513009
 21
-27.251091
 31
0.0
 11
-8.000000
 21
-30.000000
 31
0.0
 11
-7.513009
 21
-32.748909
 31
0.0
 11
-6.137130
 21
-35.132002
 31
0.0
 11
-4.000000
 21
-36.928203
 31
0.0
 11
-1.375880
 21
-37.880911
 31
0.0
 11
1.375880
 21
-37.880911
 31
0.0
 11
4.000000
 21
-36.928203
 31
0.0
 11
6.137130
 21
-35.132002
 31
0.0
 11
7.513009
 21
-32.748909
 31
0.0
 11
8.000000
 21
-30.000000
 31
0.0
  0
LINE
  5
106
100
AcDbEntity
  8
0
 62
7
100
AcDbLine
 10
2.100000
 20
-30.000000
 30
0.0
 11
2.100000
 21
-30.000000
 31
0.0
  0
SPLINE
  5
107
100
AcDbEntity
  8
0
 62
7
100
AcDbSpline
 70
0
 71
3
 72
25
 73
21
 74
19
 40
0.000000
 40
0.000000
 40
0.000000
 40
0.000000
 40
0.732825
 40
1.455161
 40
2.187986
 40
2.920811
 40
3.643148
 40
4.375972
 40
5.108797
 40
5.831134
 40
6.563958
 40
7.296783
 40
8.019120
 40
8.751944
 40
9.484769
 40
10.207106
 40
10.939930
 40
11.672755
 40
12.395092
 40
13.127917
 40
13.127917
 40
13.127917
 40
13.127917
 10
2.100000
 20
-30.000000
 30
0.0
 10
2.074909
 20
-29.754479
 30
0.0
 10
2.025087
 20
-29.266951
 30
0.0
 10
1.638547
 20
-28.622676
 30
0.0
 10
1.072587
 20
-28.143674
 30
0.0
 10
0.371752
 20
-27.889628
 30
0.0
 10
-0.371913
 20
-27.889628
 30
0.0
 10
-1.071766
 20
-28.143674
 30
0.0
 10
-1.641645
 20
-28.622676
 30
0.0
 10
-2.013623
 20
-29.266951
 30
0.0
 10
-2.143500
 20
-30.000000
 30
0.0
 10
-2.013623
 20
-30.733048
 30
0.0
 10
-1.641645
 20
-31.377324
 30
0.0
 10
-1.071766
 20
-31.856326
 30
0.0
 10
-0.371913
 20
-32.110372
 30
0.0
 10
0.371752
 20
-32.110372
 30
0.0
 10
1.072587
 20
-31.856326
 30
0.0
 10
1.638547
 20
-31.377324
 30
0.0
 10
2.025087
 20
-30.733048
 30
0.0
 10
2.074909
 20
-30.245521
 30
0.0
 10
2.100000
 20
-30.000000
 30
0.0
 11
2.100000
 21
-30.000000
 31
0.0
 11
1.972165
 21
-29.278411
 31
0.0
 11
1.610997
 21
-28.652849
 31
0.0
 11
1.050000
 21
-28.181347
 31
0.0
 11
0.361168
 21
-27.931261
 31
0.0
 11
-0.361168
 21
-27.931261
 31
0.0
 11
-1.050000
 21
-28.181347
 31
0.0
 11
-1.610997
 21
-28.652849
 31
0.0
 11
-1.972165
 21
-29.278411
 31
0.0
 11
-2.100000
 21
-30.000000
 31
0.0
 11
-1.972165
 21
-30.721589
 31
0.0
 11
-1.610997
 21
-31.347151
 31
0.0
 11
-1.050000
 21
-31.818653
 31
0.0
 11
-0.361168
 21
-32.068739
 31
0.0
 11
0.361168
 21
-32.068739
 31
0.0
 11
1.050000
 21
-31.818653
 31
0.0
 11
1.610997
 21
-31.347151
 31
0.0
 11
1.972165
 21
-30.721589
 31
0.0
 11
2.100000
 21
-30.000000
 31
0.0
  0
ENDSEC
  0
SECTION
  2
OBJECTS
  0
DICTIONARY
  5
C
330
0
100
AcDbDictionary
  3
ACAD_GROUP
350
D
  3
ACAD_MLINESTYLE
350
17
  0
DICTIONARY
  5
D
330
C
100
AcDbDictionary
  0
DICTIONARY
  5
1A
330
C
100
AcDbDictionary
  0
DICTIONARY
  5
17
330
C
100
AcDbDictionary
  3
STANDARD
350
18
  0
DICTIONARY
  5
19
330
C
100
AcDbDictionary
  0
ENDSEC
  0
EOF
