  0
SECTION
  2
HEADER
  9
$ACADVER
  1
AC1014
  9
$HANDSEED
  5
FFFF
  9
$MEASUREMENT
 70
     1
  0
ENDSEC
  0
SECTION
  2
TABLES
  0
TABLE
  2
VPORT
  5
8
330
0
100
AcDbSymbolTable
 70
     4
  0
VPORT
  5
2E
330
8
100
AcDbSymbolTableRecord
100
AcDbViewportTableRecord
  2
*ACTIVE
 70
     0
 10
0.0
 20
0.0
 11
1.0
 21
1.0
 12
210.0
 22
148.5
 13
0.0
 23
0.0
 14
10.0
 24
10.0
 15
10.0
 25
10.0
 16
0.0
 26
0.0
 36
1.0
 17
0.0
 27
0.0
 37
0.0
 40
341.0
 41
1.24
 42
50.0
 43
0.0
 44
0.0
 50
0.0
 51
0.0
 71
     0
 72
   100
 73
     1
 74
     3
 75
     0
 76
     0
 77
     0
 78
     0
  0
ENDTAB
  0
TABLE
  2
LTYPE
  5
5
330
0
100
AcDbSymbolTable
 70
     1
  0
LTYPE
  5
14
330
5
100
AcDbSymbolTableRecord
100
AcDbLinetypeTableRecord
  2
BYBLOCK
 70
     0
  3

 72
    65
 73
     0
 40
0.0
  0
LTYPE
  5
15
330
5
100
AcDbSymbolTableRecord
100
AcDbLinetypeTableRecord
  2
BYLAYER
 70
     0
  3

 72
    65
 73
     0
 40
0.0
  0
LTYPE
  5
16
330
5
100
AcDbSymbolTableRecord
100
AcDbLinetypeTableRecord
  2
CONTINUOUS
 70
     0
  3
Solid line
 72
    65
 73
     0
 40
0.0
  0
ENDTAB
  0
TABLE
  2
LAYER
  5
2
100
AcDbSymbolTable
 70
1
  0
LAYER
  5
50
100
AcDbSymbolTableRecord
100
AcDbLayerTableRecord
  2
0
 70
0
  6
CONTINUOUS
  0
ENDTAB
  0
TABLE
  2
STYLE
  5
3
330
0
100
AcDbSymbolTable
 70
     1
  0
STYLE
  5
11
330
3
100
AcDbSymbolTableRecord
100
AcDbTextStyleTableRecord
  2
STANDARD
 70
     0
 40
0.0
 41
1.0
 50
0.0
 71
     0
 42
2.5
  3
txt
  4

  0
ENDTAB
  0
TABLE
  2
VIEW
  5
6
330
0
100
AcDbSymbolTable
 70
     0
  0
ENDTAB
  0
TABLE
  2
UCS
  5
7
330
0
100
AcDbSymbolTable
 70
     0
  0
ENDTAB
  0
TABLE
  2
APPID
  5
9
330
0
100
AcDbSymbolTable
 70
     2
  0
APPID
  5
12
330
9
100
AcDbSymbolTableRecord
100
AcDbRegAppTableRecord
  2
ACAD
 70
     0
  0
ENDTAB
  0
TABLE
  2
DIMSTYLE
  5
A
330
0
100
AcDbSymbolTable
 70
     1
  0
DIMSTYLE
105
27
330
A
100
AcDbSymbolTableRecord
100
AcDbDimStyleTableRecord
  2
ISO-25
 70
     0
  3

  4

  5

  6

  7

 40
1.0
 41
2.5
 42
0.625
 43
3.75
 44
1.25
 45
0.0
 46
0.0
 47
0.0
 48
0.0
140
2.5
141
2.5
142
0.0
143
0.03937007874016
144
1.0
145
0.0
146
1.0
147
0.625
 71
     0
 72
     0
 73
     0
 74
     0
 75
     0
 76
     0
 77
     1
 78
     8
170
     0
171
     3
172
     1
173
     0
174
     0
175
     0
176
     0
177
     0
178
     0
270
     2
271
     2
272
     2
273
     2
274
     3
340
11
275
     0
280
     0
281
     0
282
     0
283
     0
284
     8
285
     0
286
     0
287
     3
288
     0
  0
ENDTAB
  0
TABLE
  2
BLOCK_RECORD
  5
1
330
0
100
AcDbSymbolTable
 70
     1
  0
BLOCK_RECORD
  5
1F
330
1
100
AcDbSymbolTableRecord
100
AcDbBlockTableRecord
  2
*MODEL_SPACE
  0
BLOCK_RECORD
  5
1B
330
1
100
AcDbSymbolTableRecord
100
AcDbBlockTableRecord
  2
*PAPER_SPACE
  0
ENDTAB
  0
ENDSEC
  0
SECTION
  2
BLOCKS
  0
BLOCK
  5
20
330
1F
100
AcDbEntity
  8
0
100
AcDbBlockBegin
  2
*MODEL_SPACE
 70
     0
 10
0.0
 20
0.0
 30
0.0
  3
*MODEL_SPACE
  1

  0
ENDBLK
  5
21
330
1F
100
AcDbEntity
  8
0
100
AcDbBlockEnd
  0
BLOCK
  5
1C
330
1B
100
AcDbEntity
 67
     1
  8
0
100
AcDbBlockBegin
  2
*PAPER_SPACE
  1

  0
ENDBLK
  5
1D
330
1B
100
AcDbEntity
 67
     1
  8
0
100
AcDbBlockEnd
  0
ENDSEC
  0
SECTION
  2
ENTITIES
  0
LINE
  5
100
100
AcDbEntity
  8
0
 62
7
100
AcDbLine
 10
-7.141428
 20
59.500000
 30
0.0
 11
-52.500000
 21
59.500000
 31
0.0
  0
SPLINE
  5
101
100
AcDbEntity
  8
0
 62
7
100
AcDbSpline
 70
0
 71
3
 72
13
 73
9
 74
7
 40
0.000000
 40
0.000000
 40
0.000000
 40
0.000000
 40
2.651068
 40
5.279656
 40
7.930725
 40
10.581793
 40
13.210381
 40
15.861450
 40
15.861450
 40
15.861450
 40
15.861450
 10
-7.141428
 20
59.500000
 30
0.0
 10
-6.472152
 20
58.914902
 30
0.0
 10
-5.139274
 20
57.749668
 30
0.0
 10
-2.645720
 20
56.742392
 30
0.0
 10
0.000000
 20
56.378288
 30
0.0
 10
2.645720
 20
56.742392
 30
0.0
 10
5.139274
 20
57.749668
 30
0.0
 10
6.472152
 20
58.914902
 30
0.0
 10
7.141428
 20
59.500000
 30
0.0
 11
-7.141428
 21
59.500000
 31
0.0
 11
-5.051117
 21
57.869429
 31
0.0
 11
-2.627679
 21
56.851381
 31
0.0
 11
0.000000
 21
56.500000
 31
0.0
 11
2.627679
 21
56.851381
 31
0.0
 11
5.051117
 21
57.869429
 31
0.0
 11
7.141428
 21
59.500000
 31
0.0
  0
LINE
  5
102
100
AcDbEntity
  8
0
 62
7
100
AcDbLine
 10
-84.500000
 20
27.500000
 30
0.0
 11
-84.500000
 21
-27.500000
 31
0.0
  0
SPLINE
  5
103
100
AcDbEntity
  8
0
 62
7
100
AcDbSpline
 70
0
 71
3
 72
13
 73
9
 74
7
 40
0.000000
 40
0.000000
 40
0.000000
 40
0.000000
 40
8.376796
 40
16.684271
 40
25.061068
 40
33.437864
 40
41.745339
 40
50.122135
 40
50.122135
 40
50.122135
 40
50.122135
 10
-52.500000
 20
59.500000
 30
0.0
 10
-55.300424
 20
59.286680
 30
0.0
 10
-60.878097
 20
58.861806
 30
0.0
 10
-68.681013
 20
55.504199
 30
0.0
 10
-75.395933
 20
50.395933
 30
0.0
 10
-80.504199
 20
43.681013
 30
0.0
 10
-83.861806
 20
35.878097
 30
0.0
 10
-84.286680
 20
30.300424
 30
0.0
 10
-84.500000
 20
27.500000
 30
0.0
 11
-52.500000
 21
59.500000
 31
0.0
 11
-60.804743
 21
58.403663
 31
0.0
 11
-68.479850
 21
55.224530
 31
0.0
 11
-75.127417
 21
50.127417
 31
0.0
 11
-80.224530
 21
43.479849
 31
0.0
 11
-83.403663
 21
35.804743
 31
0.0
 11
-84.500000
 21
27.500000
 31
0.0
  0
LINE
  5
104
100
AcDbEntity
  8
0
 62
7
100
AcDbLine
 10
-52.500000
 20
-59.500000
 30
0.0
 11
52.500000
 21
-59.500000
 31
0.0
  0
SPLINE
  5
105
100
AcDbEntity
  8
0
 62
7
100
AcDbSpline
 70
0
 71
3
 72
13
 73
9
 74
7
 40
0.000000
 40
0.000000
 40
0.000000
 40
0.000000
 40
8.376796
 40
16.684271
 40
25.061068
 40
33.437864
 40
41.745339
 40
50.122135
 40
50.122135
 40
50.122135
 40
50.122135
 10
-84.500000
 20
-27.500000
 30
0.0
 10
-84.286680
 20
-30.300424
 30
0.0
 10
-83.861806
 20
-35.878096
 30
0.0
 10
-80.504199
 20
-43.681013
 30
0.0
 10
-75.395933
 20
-50.395933
 30
0.0
 10
-68.681013
 20
-55.504199
 30
0.0
 10
-60.878097
 20
-58.861806
 30
0.0
 10
-55.300424
 20
-59.286680
 30
0.0
 10
-52.500000
 20
-59.500000
 30
0.0
 11
-84.500000
 21
-27.500000
 31
0.0
 11
-83.403663
 21
-35.804743
 31
0.0
 11
-80.224530
 21
-43.479849
 31
0.0
 11
-75.127417
 21
-50.127417
 31
0.0
 11
-68.479850
 21
-55.224530
 31
0.0
 11
-60.804743
 21
-58.403663
 31
0.0
 11
-52.500000
 21
-59.500000
 31
0.0
  0
LINE
  5
106
100
AcDbEntity
  8
0
 62
7
100
AcDbLine
 10
84.500000
 20
-27.500000
 30
0.0
 11
84.500000
 21
27.500000
 31
0.0
  0
SPLINE
  5
107
100
AcDbEntity
  8
0
 62
7
100
AcDbSpline
 70
0
 71
3
 72
13
 73
9
 74
7
 40
0.000000
 40
0.000000
 40
0.000000
 40
0.000000
 40
8.376796
 40
16.684271
 40
25.061068
 40
33.437864
 40
41.745339
 40
50.122135
 40
50.122135
 40
50.122135
 40
50.122135
 10
52.500000
 20
-59.500000
 30
0.0
 10
55.300424
 20
-59.286680
 30
0.0
 10
60.878097
 20
-58.861806
 30
0.0
 10
68.681013
 20
-55.504199
 30
0.0
 10
75.395933
 20
-50.395933
 30
0.0
 10
80.504199
 20
-43.681013
 30
0.0
 10
83.861806
 20
-35.878096
 30
0.0
 10
84.286680
 20
-30.300424
 30
0.0
 10
84.500000
 20
-27.500000
 30
0.0
 11
52.500000
 21
-59.500000
 31
0.0
 11
60.804743
 21
-58.403663
 31
0.0
 11
68.479850
 21
-55.224530
 31
0.0
 11
75.127417
 21
-50.127417
 31
0.0
 11
80.224530
 21
-43.479849
 31
0.0
 11
83.403663
 21
-35.804743
 31
0.0
 11
84.500000
 21
-27.500000
 31
0.0
  0
LINE
  5
108
100
AcDbEntity
  8
0
 62
7
100
AcDbLine
 10
52.500000
 20
59.500000
 30
0.0
 11
7.141428
 21
59.500000
 31
0.0
  0
SPLINE
  5
109
100
AcDbEntity
  8
0
 62
7
100
AcDbSpline
 70
0
 71
3
 72
13
 73
9
 74
7
 40
0.000000
 40
0.000000
 40
0.000000
 40
0.000000
 40
8.376796
 40
16.684271
 40
25.061068
 40
33.437864
 40
41.745339
 40
50.122135
 40
50.122135
 40
50.122135
 40
50.122135
 10
84.500000
 20
27.500000
 30
0.0
 10
84.286680
 20
30.300424
 30
0.0
 10
83.861806
 20
35.878097
 30
0.0
 10
80.504199
 20
43.681013
 30
0.0
 10
75.395933
 20
50.395933
 30
0.0
 10
68.681013
 20
55.504199
 30
0.0
 10
60.878097
 20
58.861806
 30
0.0
 10
55.300424
 20
59.286680
 30
0.0
 10
52.500000
 20
59.500000
 30
0.0
 11
84.500000
 21
27.500000
 31
0.0
 11
83.403663
 21
35.804743
 31
0.0
 11
80.224530
 21
43.479849
 31
0.0
 11
75.127417
 21
50.127417
 31
0.0
 11
68.479850
 21
55.224530
 31
0.0
 11
60.804743
 21
58.403663
 31
0.0
 11
52.500000
 21
59.500000
 31
0.0
  0
LINE
  5
10a
100
AcDbEntity
  8
0
 62
7
100
AcDbLine
 10
65.000000
 20
-27.500000
 30
0.0
 11
65.000000
 21
27.500000
 31
0.0
  0
SPLINE
  5
10b
100
AcDbEntity
  8
0
 62
7
100
AcDbSpline
 70
0
 71
3
 72
13
 73
9
 74
7
 40
0.000000
 40
0.000000
 40
0.000000
 40
0.000000
 40
3.272186
 40
6.517294
 40
9.789480
 40
13.061666
 40
16.306773
 40
19.578959
 40
19.578959
 40
19.578959
 40
19.578959
 10
65.000000
 20
27.500000
 30
0.0
 10
64.916672
 20
28.593915
 30
0.0
 10
64.750705
 20
30.772694
 30
0.0
 10
63.439141
 20
33.820708
 30
0.0
 10
61.443724
 20
36.443724
 30
0.0
 10
58.820708
 20
38.439140
 30
0.0
 10
55.772694
 20
39.750705
 30
0.0
 10
53.593915
 20
39.916672
 30
0.0
 10
52.500000
 20
40.000000
 30
0.0
 11
65.000000
 21
27.500000
 31
0.0
 11
64.571743
 21
30.744040
 31
0.0
 11
63.329895
 21
33.742129
 31
0.0
 11
61.338835
 21
36.338835
 31
0.0
 11
58.742129
 21
38.329895
 31
0.0
 11
55.744040
 21
39.571743
 31
0.0
 11
52.500000
 21
40.000000
 31
0.0
  0
LINE
  5
10c
100
AcDbEntity
  8
0
 62
7
100
AcDbLine
 10
-52.500000
 20
-40.000000
 30
0.0
 11
52.500000
 21
-40.000000
 31
0.0
  0
SPLINE
  5
10d
100
AcDbEntity
  8
0
 62
7
100
AcDbSpline
 70
0
 71
3
 72
10
 73
6
 74
4
 40
0.000000
 40
0.000000
 40
0.000000
 40
0.000000
 40
6.535739
 40
12.877630
 40
19.413369
 40
19.413369
 40
19.413369
 40
19.413369
 10
52.500000
 20
-40.000000
 30
0.0
 10
54.690323
 20
-39.656185
 30
0.0
 10
59.006004
 20
-38.978754
 30
0.0
 10
63.978754
 20
-34.006004
 30
0.0
 10
64.656185
 20
-29.690323
 30
0.0
 10
65.000000
 20
-27.500000
 30
0.0
 11
52.500000
 21
-40.000000
 31
0.0
 11
58.808989
 21
-38.293384
 31
0.0
 11
63.293384
 21
-33.808989
 31
0.0
 11
65.000000
 21
-27.500000
 31
0.0
  0
LINE
  5
10e
100
AcDbEntity
  8
0
 62
7
100
AcDbLine
 10
-65.000000
 20
27.500000
 30
0.0
 11
-65.000000
 21
-27.500000
 31
0.0
  0
SPLINE
  5
10f
100
AcDbEntity
  8
0
 62
7
100
AcDbSpline
 70
0
 71
3
 72
10
 73
6
 74
4
 40
0.000000
 40
0.000000
 40
0.000000
 40
0.000000
 40
6.535739
 40
12.877630
 40
19.413369
 40
19.413369
 40
19.413369
 40
19.413369
 10
-65.000000
 20
-27.500000
 30
0.0
 10
-64.656185
 20
-29.690323
 30
0.0
 10
-63.978754
 20
-34.006004
 30
0.0
 10
-59.006004
 20
-38.978754
 30
0.0
 10
-54.690323
 20
-39.656185
 30
0.0
 10
-52.500000
 20
-40.000000
 30
0.0
 11
-65.000000
 21
-27.500000
 31
0.0
 11
-63.293384
 21
-33.808989
 31
0.0
 11
-58.808989
 21
-38.293384
 31
0.0
 11
-52.500000
 21
-40.000000
 31
0.0
  0
LINE
  5
110
100
AcDbEntity
  8
0
 62
7
100
AcDbLine
 10
52.500000
 20
40.000000
 30
0.0
 11
-52.500000
 21
40.000000
 31
0.0
  0
SPLINE
  5
111
100
AcDbEntity
  8
0
 62
7
100
AcDbSpline
 70
0
 71
3
 72
13
 73
9
 74
7
 40
0.000000
 40
0.000000
 40
0.000000
 40
0.000000
 40
3.272186
 40
6.517294
 40
9.789480
 40
13.061666
 40
16.306773
 40
19.578959
 40
19.578959
 40
19.578959
 40
19.578959
 10
-52.500000
 20
40.000000
 30
0.0
 10
-53.593915
 20
39.916672
 30
0.0
 10
-55.772694
 20
39.750705
 30
0.0
 10
-58.820708
 20
38.439140
 30
0.0
 10
-61.443724
 20
36.443724
 30
0.0
 10
-63.439141
 20
33.820708
 30
0.0
 10
-64.750705
 20
30.772694
 30
0.0
 10
-64.916672
 20
28.593915
 30
0.0
 10
-65.000000
 20
27.500000
 30
0.0
 11
-52.500000
 21
40.000000
 31
0.0
 11
-55.744040
 21
39.571743
 31
0.0
 11
-58.742129
 21
38.329895
 31
0.0
 11
-61.338835
 21
36.338835
 31
0.0
 11
-63.329895
 21
33.742129
 31
0.0
 11
-64.571743
 21
30.744040
 31
0.0
 11
-65.000000
 21
27.500000
 31
0.0
  0
LINE
  5
112
100
AcDbEntity
  8
0
 62
7
100
AcDbLine
 10
-73.350000
 20
19.000000
 30
0.0
 11
-73.350000
 21
19.000000
 31
0.0
  0
SPLINE
  5
113
100
AcDbEntity
  8
0
 62
7
100
AcDbSpline
 70
0
 71
3
 72
25
 73
21
 74
19
 40
0.000000
 40
0.000000
 40
0.000000
 40
0.000000
 40
0.575942
 40
1.143638
 40
1.719580
 40
2.295522
 40
2.863218
 40
3.439160
 40
4.015102
 40
4.582798
 40
5.158740
 40
5.734682
 40
6.302378
 40
6.878320
 40
7.454262
 40
8.021958
 40
8.597900
 40
9.173842
 40
9.741538
 40
10.317480
 40
10.317480
 40
10.317480
 40
10.317480
 10
-73.350000
 20
19.000000
 30
0.0
 10
-73.369645
 20
19.192969
 30
0.0
 10
-73.408653
 20
19.576143
 30
0.0
 10
-73.712309
 20
20.082581
 30
0.0
 10
-74.157042
 20
20.459124
 30
0.0
 10
-74.707830
 20
20.658836
 30
0.0
 10
-75.292296
 20
20.658836
 30
0.0
 10
-75.842315
 20
20.459124
 30
0.0
 10
-76.290117
 20
20.082581
 30
0.0
 10
-76.582371
 20
19.576143
 30
0.0
 10
-76.684058
 20
19.000000
 30
0.0
 10
-76.582371
 20
18.423857
 30
0.0
 10
-76.290117
 20
17.917419
 30
0.0
 10
-75.842315
 20
17.540876
 30
0.0
 10
-75.292296
 20
17.341164
 30
0.0
 10
-74.707830
 20
17.341164
 30
0.0
 10
-74.157042
 20
17.540876
 30
0.0
 10
-73.712309
 20
17.917419
 30
0.0
 10
-73.408653
 20
18.423857
 30
0.0
 10
-73.369645
 20
18.807031
 30
0.0
 10
-73.350000
 20
19.000000
 30
0.0
 11
-73.350000
 21
19.000000
 31
0.0
 11
-73.450260
 21
19.567148
 31
0.0
 11
-73.733972
 21
20.058865
 31
0.0
 11
-74.174803
 21
20.429511
 31
0.0
 11
-74.716152
 21
20.626108
 31
0.0
 11
-75.283848
 21
20.626108
 31
0.0
 11
-75.825197
 21
20.429511
 31
0.0
 11
-76.266028
 21
20.058865
 31
0.0
 11
-76.549740
 21
19.567148
 31
0.0
 11
-76.650000
 21
19.000000
 31
0.0
 11
-76.549740
 21
18.432852
 31
0.0
 11
-76.266028
 21
17.941135
 31
0.0
 11
-75.825197
 21
17.570489
 31
0.0
 11
-75.283848
 21
17.373892
 31
0.0
 11
-74.716152
 21
17.373892
 31
0.0
 11
-74.174803
 21
17.570489
 31
0.0
 11
-73.733972
 21
17.941135
 31
0.0
 11
-73.450260
 21
18.432852
 31
0.0
 11
-73.350000
 21
19.000000
 31
0.0
  0
LINE
  5
114
100
AcDbEntity
  8
0
 62
7
100
AcDbLine
 10
-73.350000
 20
-19.000000
 30
0.0
 11
-73.350000
 21
-19.000000
 31
0.0
  0
SPLINE
  5
115
100
AcDbEntity
  8
0
 62
7
100
AcDbSpline
 70
0
 71
3
 72
25
 73
21
 74
19
 40
0.000000
 40
0.000000
 40
0.000000
 40
0.000000
 40
0.575942
 40
1.143638
 40
1.719580
 40
2.295522
 40
2.863218
 40
3.439160
 40
4.015102
 40
4.582798
 40
5.158740
 40
5.734682
 40
6.302378
 40
6.878320
 40
7.454262
 40
8.021958
 40
8.597900
 40
9.173842
 40
9.741538
 40
10.317480
 40
10.317480
 40
10.317480
 40
10.317480
 10
-73.350000
 20
-19.000000
 30
0.0
 10
-73.369645
 20
-18.807031
 30
0.0
 10
-73.408653
 20
-18.423857
 30
0.0
 10
-73.712309
 20
-17.917418
 30
0.0
 10
-74.157042
 20
-17.540876
 30
0.0
 10
-74.707830
 20
-17.341164
 30
0.0
 10
-75.292296
 20
-17.341164
 30
0.0
 10
-75.842315
 20
-17.540876
 30
0.0
 10
-76.290117
 20
-17.917418
 30
0.0
 10
-76.582371
 20
-18.423857
 30
0.0
 10
-76.684058
 20
-19.000000
 30
0.0
 10
-76.582371
 20
-19.576143
 30
0.0
 10
-76.290117
 20
-20.082581
 30
0.0
 10
-75.842315
 20
-20.459123
 30
0.0
 10
-75.292296
 20
-20.658836
 30
0.0
 10
-74.707830
 20
-20.658836
 30
0.0
 10
-74.157042
 20
-20.459123
 30
0.0
 10
-73.712309
 20
-20.082581
 30
0.0
 10
-73.408653
 20
-19.576143
 30
0.0
 10
-73.369645
 20
-19.192968
 30
0.0
 10
-73.350000
 20
-19.000000
 30
0.0
 11
-73.350000
 21
-19.000000
 31
0.0
 11
-73.450260
 21
-18.432851
 31
0.0
 11
-73.733972
 21
-17.941134
 31
0.0
 11
-74.174803
 21
-17.570489
 31
0.0
 11
-74.716152
 21
-17.373892
 31
0.0
 11
-75.283848
 21
-17.373892
 31
0.0
 11
-75.825197
 21
-17.570489
 31
0.0
 11
-76.266028
 21
-17.941134
 31
0.0
 11
-76.549740
 21
-18.432851
 31
0.0
 11
-76.650000
 21
-19.000000
 31
0.0
 11
-76.549740
 21
-19.567148
 31
0.0
 11
-76.266028
 21
-20.058865
 31
0.0
 11
-75.825197
 21
-20.429511
 31
0.0
 11
-75.283848
 21
-20.626108
 31
0.0
 11
-74.716152
 21
-20.626108
 31
0.0
 11
-74.174803
 21
-20.429511
 31
0.0
 11
-73.733972
 21
-20.058865
 31
0.0
 11
-73.450260
 21
-19.567148
 31
0.0
 11
-73.350000
 21
-19.000000
 31
0.0
  0
LINE
  5
116
100
AcDbEntity
  8
0
 62
7
100
AcDbLine
 10
-38.350000
 20
-50.000000
 30
0.0
 11
-38.350000
 21
-50.000000
 31
0.0
  0
SPLINE
  5
117
100
AcDbEntity
  8
0
 62
7
100
AcDbSpline
 70
0
 71
3
 72
25
 73
21
 74
19
 40
0.000000
 40
0.000000
 40
0.000000
 40
0.000000
 40
0.575942
 40
1.143638
 40
1.719580
 40
2.295522
 40
2.863218
 40
3.439160
 40
4.015102
 40
4.582798
 40
5.158740
 40
5.734682
 40
6.302378
 40
6.878320
 40
7.454262
 40
8.021958
 40
8.597900
 40
9.173842
 40
9.741538
 40
10.317480
 40
10.317480
 40
10.317480
 40
10.317480
 10
-38.350000
 20
-50.000000
 30
0.0
 10
-38.369645
 20
-49.807031
 30
0.0
 10
-38.408653
 20
-49.423857
 30
0.0
 10
-38.712309
 20
-48.917419
 30
0.0
 10
-39.157042
 20
-48.540876
 30
0.0
 10
-39.707830
 20
-48.341164
 30
0.0
 10
-40.292296
 20
-48.341164
 30
0.0
 10
-40.842315
 20
-48.540876
 30
0.0
 10
-41.290117
 20
-48.917419
 30
0.0
 10
-41.582371
 20
-49.423857
 30
0.0
 10
-41.684058
 20
-50.000000
 30
0.0
 10
-41.582371
 20
-50.576143
 30
0.0
 10
-41.290117
 20
-51.082581
 30
0.0
 10
-40.842315
 20
-51.459124
 30
0.0
 10
-40.292296
 20
-51.658836
 30
0.0
 10
-39.707830
 20
-51.658836
 30
0.0
 10
-39.157042
 20
-51.459124
 30
0.0
 10
-38.712309
 20
-51.082581
 30
0.0
 10
-38.408653
 20
-50.576143
 30
0.0
 10
-38.369645
 20
-50.192969
 30
0.0
 10
-38.350000
 20
-50.000000
 30
0.0
 11
-38.350000
 21
-50.000000
 31
0.0
 11
-38.450260
 21
-49.432852
 31
0.0
 11
-38.733972
 21
-48.941135
 31
0.0
 11
-39.174803
 21
-48.570489
 31
0.0
 11
-39.716152
 21
-48.373892
 31
0.0
 11
-40.283848
 21
-48.373892
 31
0.0
 11
-40.825197
 21
-48.570489
 31
0.0
 11
-41.266028
 21
-48.941135
 31
0.0
 11
-41.549740
 21
-49.432852
 31
0.0
 11
-41.650000
 21
-50.000000
 31
0.0
 11
-41.549740
 21
-50.567148
 31
0.0
 11
-41.266028
 21
-51.058865
 31
0.0
 11
-40.825197
 21
-51.429511
 31
0.0
 11
-40.283848
 21
-51.626108
 31
0.0
 11
-39.716152
 21
-51.626108
 31
0.0
 11
-39.174803
 21
-51.429511
 31
0.0
 11
-38.733972
 21
-51.058865
 31
0.0
 11
-38.450260
 21
-50.567148
 31
0.0
 11
-38.350000
 21
-50.000000
 31
0.0
  0
LINE
  5
118
100
AcDbEntity
  8
0
 62
7
100
AcDbLine
 10
1.650000
 20
-50.000000
 30
0.0
 11
1.650000
 21
-50.000000
 31
0.0
  0
SPLINE
  5
119
100
AcDbEntity
  8
0
 62
7
100
AcDbSpline
 70
0
 71
3
 72
25
 73
21
 74
19
 40
0.000000
 40
0.000000
 40
0.000000
 40
0.000000
 40
0.575791
 40
1.143341
 40
1.719132
 40
2.294923
 40
2.862473
 40
3.438264
 40
4.014055
 40
4.581605
 40
5.157396
 40
5.733187
 40
6.300737
 40
6.876528
 40
7.452319
 40
8.019869
 40
8.595660
 40
9.171451
 40
9.739001
 40
10.314792
 40
10.314792
 40
10.314792
 40
10.314792
 10
1.650000
 20
-50.000000
 30
0.0
 10
1.630286
 20
-49.807091
 30
0.0
 10
1.591140
 20
-49.424033
 30
0.0
 10
1.287430
 20
-48.917817
 30
0.0
 10
0.842747
 20
-48.541458
 30
0.0
 10
0.292091
 20
-48.341850
 30
0.0
 10
-0.292217
 20
-48.341850
 30
0.0
 10
-0.842102
 20
-48.541458
 30
0.0
 10
-1.289864
 20
-48.917817
 30
0.0
 10
-1.582133
 20
-49.424033
 30
0.0
 10
-1.684178
 20
-50.000000
 30
0.0
 10
-1.582133
 20
-50.575967
 30
0.0
 10
-1.289864
 20
-51.082183
 30
0.0
 10
-0.842102
 20
-51.458542
 30
0.0
 10
-0.292217
 20
-51.658150
 30
0.0
 10
0.292091
 20
-51.658150
 30
0.0
 10
0.842747
 20
-51.458542
 30
0.0
 10
1.287430
 20
-51.082183
 30
0.0
 10
1.591140
 20
-50.575967
 30
0.0
 10
1.630286
 20
-50.192909
 30
0.0
 10
1.650000
 20
-50.000000
 30
0.0
 11
1.650000
 21
-50.000000
 31
0.0
 11
1.549558
 21
-49.433037
 31
0.0
 11
1.265783
 21
-48.941524
 31
0.0
 11
0.825000
 21
-48.571058
 31
0.0
 11
0.283775
 21
-48.374562
 31
0.0
 11
-0.283775
 21
-48.374562
 31
0.0
 11
-0.825000
 21
-48.571058
 31
0.0
 11
-1.265783
 21
-48.941524
 31
0.0
 11
-1.549558
 21
-49.433037
 31
0.0
 11
-1.650000
 21
-50.000000
 31
0.0
 11
-1.549558
 21
-50.566963
 31
0.0
 11
-1.265783
 21
-51.058476
 31
0.0
 11
-0.825000
 21
-51.428942
 31
0.0
 11
-0.283775
 21
-51.625438
 31
0.0
 11
0.283775
 21
-51.625438
 31
0.0
 11
0.825000
 21
-51.428942
 31
0.0
 11
1.265783
 21
-51.058476
 31
0.0
 11
1.549558
 21
-50.566963
 31
0.0
 11
1.650000
 21
-50.000000
 31
0.0
  0
LINE
  5
11a
100
AcDbEntity
  8
0
 62
7
100
AcDbLine
 10
41.650000
 20
-50.000000
 30
0.0
 11
41.650000
 21
-50.000000
 31
0.0
  0
SPLINE
  5
11b
100
AcDbEntity
  8
0
 62
7
100
AcDbSpline
 70
0
 71
3
 72
25
 73
21
 74
19
 40
0.000000
 40
0.000000
 40
0.000000
 40
0.000000
 40
0.575942
 40
1.143638
 40
1.719580
 40
2.295522
 40
2.863218
 40
3.439160
 40
4.015102
 40
4.582798
 40
5.158740
 40
5.734682
 40
6.302378
 40
6.878320
 40
7.454262
 40
8.021958
 40
8.597900
 40
9.173842
 40
9.741538
 40
10.317480
 40
10.317480
 40
10.317480
 40
10.317480
 10
41.650000
 20
-50.000000
 30
0.0
 10
41.630355
 20
-49.807031
 30
0.0
 10
41.591347
 20
-49.423857
 30
0.0
 10
41.287691
 20
-48.917419
 30
0.0
 10
40.842958
 20
-48.540876
 30
0.0
 10
40.292170
 20
-48.341164
 30
0.0
 10
39.707704
 20
-48.341164
 30
0.0
 10
39.157685
 20
-48.540876
 30
0.0
 10
38.709883
 20
-48.917419
 30
0.0
 10
38.417629
 20
-49.423857
 30
0.0
 10
38.315942
 20
-50.000000
 30
0.0
 10
38.417629
 20
-50.576143
 30
0.0
 10
38.709883
 20
-51.082581
 30
0.0
 10
39.157685
 20
-51.459124
 30
0.0
 10
39.707704
 20
-51.658836
 30
0.0
 10
40.292170
 20
-51.658836
 30
0.0
 10
40.842958
 20
-51.459124
 30
0.0
 10
41.287691
 20
-51.082581
 30
0.0
 10
41.591347
 20
-50.576143
 30
0.0
 10
41.630355
 20
-50.192969
 30
0.0
 10
41.650000
 20
-50.000000
 30
0.0
 11
41.650000
 21
-50.000000
 31
0.0
 11
41.549740
 21
-49.432852
 31
0.0
 11
41.266028
 21
-48.941135
 31
0.0
 11
40.825197
 21
-48.570489
 31
0.0
 11
40.283848
 21
-48.373892
 31
0.0
 11
39.716152
 21
-48.373892
 31
0.0
 11
39.174803
 21
-48.570489
 31
0.0
 11
38.733972
 21
-48.941135
 31
0.0
 11
38.450260
 21
-49.432852
 31
0.0
 11
38.350000
 21
-50.000000
 31
0.0
 11
38.450260
 21
-50.567148
 31
0.0
 11
38.733972
 21
-51.058865
 31
0.0
 11
39.174803
 21
-51.429511
 31
0.0
 11
39.716152
 21
-51.626108
 31
0.0
 11
40.283848
 21
-51.626108
 31
0.0
 11
40.825197
 21
-51.429511
 31
0.0
 11
41.266028
 21
-51.058865
 31
0.0
 11
41.549740
 21
-50.567148
 31
0.0
 11
41.650000
 21
-50.000000
 31
0.0
  0
LINE
  5
11c
100
AcDbEntity
  8
0
 62
7
100
AcDbLine
 10
76.650000
 20
-19.000000
 30
0.0
 11
76.650000
 21
-19.000000
 31
0.0
  0
SPLINE
  5
11d
100
AcDbEntity
  8
0
 62
7
100
AcDbSpline
 70
0
 71
3
 72
25
 73
21
 74
19
 40
0.000000
 40
0.000000
 40
0.000000
 40
0.000000
 40
0.575942
 40
1.143638
 40
1.719580
 40
2.295522
 40
2.863218
 40
3.439160
 40
4.015102
 40
4.582798
 40
5.158740
 40
5.734682
 40
6.302378
 40
6.878320
 40
7.454262
 40
8.021958
 40
8.597900
 40
9.173842
 40
9.741538
 40
10.317480
 40
10.317480
 40
10.317480
 40
10.317480
 10
76.650000
 20
-19.000000
 30
0.0
 10
76.630355
 20
-18.807031
 30
0.0
 10
76.591347
 20
-18.423857
 30
0.0
 10
76.287691
 20
-17.917418
 30
0.0
 10
75.842958
 20
-17.540876
 30
0.0
 10
75.292170
 20
-17.341164
 30
0.0
 10
74.707704
 20
-17.341164
 30
0.0
 10
74.157685
 20
-17.540876
 30
0.0
 10
73.709883
 20
-17.917418
 30
0.0
 10
73.417629
 20
-18.423857
 30
0.0
 10
73.315942
 20
-19.000000
 30
0.0
 10
73.417629
 20
-19.576143
 30
0.0
 10
73.709883
 20
-20.082581
 30
0.0
 10
74.157685
 20
-20.459123
 30
0.0
 10
74.707704
 20
-20.658836
 30
0.0
 10
75.292170
 20
-20.658836
 30
0.0
 10
75.842958
 20
-20.459123
 30
0.0
 10
76.287691
 20
-20.082581
 30
0.0
 10
76.591347
 20
-19.576143
 30
0.0
 10
76.630355
 20
-19.192968
 30
0.0
 10
76.650000
 20
-19.000000
 30
0.0
 11
76.650000
 21
-19.000000
 31
0.0
 11
76.549740
 21
-18.432851
 31
0.0
 11
76.266028
 21
-17.941134
 31
0.0
 11
75.825197
 21
-17.570489
 31
0.0
 11
75.283848
 21
-17.373892
 31
0.0
 11
74.716152
 21
-17.373892
 31
0.0
 11
74.174803
 21
-17.570489
 31
0.0
 11
73.733972
 21
-17.941134
 31
0.0
 11
73.450260
 21
-18.432851
 31
0.0
 11
73.350000
 21
-19.000000
 31
0.0
 11
73.450260
 21
-19.567148
 31
0.0
 11
73.733972
 21
-20.058865
 31
0.0
 11
74.174803
 21
-20.429511
 31
0.0
 11
74.716152
 21
-20.626108
 31
0.0
 11
75.283848
 21
-20.626108
 31
0.0
 11
75.825197
 21
-20.429511
 31
0.0
 11
76.266028
 21
-20.058865
 31
0.0
 11
76.549740
 21
-19.567148
 31
0.0
 11
76.650000
 21
-19.000000
 31
0.0
  0
LINE
  5
11e
100
AcDbEntity
  8
0
 62
7
100
AcDbLine
 10
76.650000
 20
19.000000
 30
0.0
 11
76.650000
 21
19.000000
 31
0.0
  0
SPLINE
  5
11f
100
AcDbEntity
  8
0
 62
7
100
AcDbSpline
 70
0
 71
3
 72
25
 73
21
 74
19
 40
0.000000
 40
0.000000
 40
0.000000
 40
0.000000
 40
0.575942
 40
1.143638
 40
1.719580
 40
2.295522
 40
2.863218
 40
3.439160
 40
4.015102
 40
4.582798
 40
5.158740
 40
5.734682
 40
6.302378
 40
6.878320
 40
7.454262
 40
8.021958
 40
8.597900
 40
9.173842
 40
9.741538
 40
10.317480
 40
10.317480
 40
10.317480
 40
10.317480
 10
76.650000
 20
19.000000
 30
0.0
 10
76.630355
 20
19.192969
 30
0.0
 10
76.591347
 20
19.576143
 30
0.0
 10
76.287691
 20
20.082581
 30
0.0
 10
75.842958
 20
20.459124
 30
0.0
 10
75.292170
 20
20.658836
 30
0.0
 10
74.707704
 20
20.658836
 30
0.0
 10
74.157685
 20
20.459124
 30
0.0
 10
73.709883
 20
20.082581
 30
0.0
 10
73.417629
 20
19.576143
 30
0.0
 10
73.315942
 20
19.000000
 30
0.0
 10
73.417629
 20
18.423857
 30
0.0
 10
73.709883
 20
17.917419
 30
0.0
 10
74.157685
 20
17.540876
 30
0.0
 10
74.707704
 20
17.341164
 30
0.0
 10
75.292170
 20
17.341164
 30
0.0
 10
75.842958
 20
17.540876
 30
0.0
 10
76.287691
 20
17.917419
 30
0.0
 10
76.591347
 20
18.423857
 30
0.0
 10
76.630355
 20
18.807031
 30
0.0
 10
76.650000
 20
19.000000
 30
0.0
 11
76.650000
 21
19.000000
 31
0.0
 11
76.549740
 21
19.567148
 31
0.0
 11
76.266028
 21
20.058865
 31
0.0
 11
75.825197
 21
20.429511
 31
0.0
 11
75.283848
 21
20.626108
 31
0.0
 11
74.716152
 21
20.626108
 31
0.0
 11
74.174803
 21
20.429511
 31
0.0
 11
73.733972
 21
20.058865
 31
0.0
 11
73.450260
 21
19.567148
 31
0.0
 11
73.350000
 21
19.000000
 31
0.0
 11
73.450260
 21
18.432852
 31
0.0
 11
73.733972
 21
17.941135
 31
0.0
 11
74.174803
 21
17.570489
 31
0.0
 11
74.716152
 21
17.373892
 31
0.0
 11
75.283848
 21
17.373892
 31
0.0
 11
75.825197
 21
17.570489
 31
0.0
 11
76.266028
 21
17.941135
 31
0.0
 11
76.549740
 21
18.432852
 31
0.0
 11
76.650000
 21
19.000000
 31
0.0
  0
LINE
  5
120
100
AcDbEntity
  8
0
 62
7
100
AcDbLine
 10
41.650000
 20
50.000000
 30
0.0
 11
41.650000
 21
50.000000
 31
0.0
  0
SPLINE
  5
121
100
AcDbEntity
  8
0
 62
7
100
AcDbSpline
 70
0
 71
3
 72
25
 73
21
 74
19
 40
0.000000
 40
0.000000
 40
0.000000
 40
0.000000
 40
0.575942
 40
1.143638
 40
1.719580
 40
2.295522
 40
2.863218
 40
3.439160
 40
4.015102
 40
4.582798
 40
5.158740
 40
5.734682
 40
6.302378
 40
6.878320
 40
7.454262
 40
8.021958
 40
8.597900
 40
9.173842
 40
9.741538
 40
10.317480
 40
10.317480
 40
10.317480
 40
10.317480
 10
41.650000
 20
50.000000
 30
0.0
 10
41.630355
 20
50.192969
 30
0.0
 10
41.591347
 20
50.576143
 30
0.0
 10
41.287691
 20
51.082582
 30
0.0
 10
40.842958
 20
51.459124
 30
0.0
 10
40.292170
 20
51.658836
 30
0.0
 10
39.707704
 20
51.658836
 30
0.0
 10
39.157685
 20
51.459124
 30
0.0
 10
38.709883
 20
51.082582
 30
0.0
 10
38.417629
 20
50.576143
 30
0.0
 10
38.315942
 20
50.000000
 30
0.0
 10
38.417629
 20
49.423857
 30
0.0
 10
38.709883
 20
48.917419
 30
0.0
 10
39.157685
 20
48.540877
 30
0.0
 10
39.707704
 20
48.341164
 30
0.0
 10
40.292170
 20
48.341164
 30
0.0
 10
40.842958
 20
48.540877
 30
0.0
 10
41.287691
 20
48.917419
 30
0.0
 10
41.591347
 20
49.423857
 30
0.0
 10
41.630355
 20
49.807032
 30
0.0
 10
41.650000
 20
50.000000
 30
0.0
 11
41.650000
 21
50.000000
 31
0.0
 11
41.549740
 21
50.567149
 31
0.0
 11
41.266028
 21
51.058866
 31
0.0
 11
40.825197
 21
51.429511
 31
0.0
 11
40.283848
 21
51.626108
 31
0.0
 11
39.716152
 21
51.626108
 31
0.0
 11
39.174803
 21
51.429511
 31
0.0
 11
38.733972
 21
51.058866
 31
0.0
 11
38.450260
 21
50.567149
 31
0.0
 11
38.350000
 21
50.000000
 31
0.0
 11
38.450260
 21
49.432852
 31
0.0
 11
38.733972
 21
48.941135
 31
0.0
 11
39.174803
 21
48.570489
 31
0.0
 11
39.716152
 21
48.373892
 31
0.0
 11
40.283848
 21
48.373892
 31
0.0
 11
40.825197
 21
48.570489
 31
0.0
 11
41.266028
 21
48.941135
 31
0.0
 11
41.549740
 21
49.432852
 31
0.0
 11
41.650000
 21
50.000000
 31
0.0
  0
LINE
  5
122
100
AcDbEntity
  8
0
 62
7
100
AcDbLine
 10
1.650000
 20
50.000000
 30
0.0
 11
1.650000
 21
50.000000
 31
0.0
  0
SPLINE
  5
123
100
AcDbEntity
  8
0
 62
7
100
AcDbSpline
 70
0
 71
3
 72
25
 73
21
 74
19
 40
0.000000
 40
0.000000
 40
0.000000
 40
0.000000
 40
0.575791
 40
1.143341
 40
1.719132
 40
2.294923
 40
2.862473
 40
3.438264
 40
4.014055
 40
4.581605
 40
5.157396
 40
5.733187
 40
6.300737
 40
6.876528
 40
7.452319
 40
8.019869
 40
8.595660
 40
9.171451
 40
9.739001
 40
10.314792
 40
10.314792
 40
10.314792
 40
10.314792
 10
1.650000
 20
50.000000
 30
0.0
 10
1.630286
 20
50.192909
 30
0.0
 10
1.591140
 20
50.575967
 30
0.0
 10
1.287430
 20
51.082183
 30
0.0
 10
0.842747
 20
51.458542
 30
0.0
 10
0.292091
 20
51.658150
 30
0.0
 10
-0.292217
 20
51.658150
 30
0.0
 10
-0.842102
 20
51.458542
 30
0.0
 10
-1.289864
 20
51.082183
 30
0.0
 10
-1.582133
 20
50.575967
 30
0.0
 10
-1.684178
 20
50.000000
 30
0.0
 10
-1.582133
 20
49.424033
 30
0.0
 10
-1.289864
 20
48.917817
 30
0.0
 10
-0.842102
 20
48.541458
 30
0.0
 10
-0.292217
 20
48.341850
 30
0.0
 10
0.292091
 20
48.341850
 30
0.0
 10
0.842747
 20
48.541458
 30
0.0
 10
1.287430
 20
48.917817
 30
0.0
 10
1.591140
 20
49.424033
 30
0.0
 10
1.630286
 20
49.807091
 30
0.0
 10
1.650000
 20
50.000000
 30
0.0
 11
1.650000
 21
50.000000
 31
0.0
 11
1.549558
 21
50.566963
 31
0.0
 11
1.265783
 21
51.058476
 31
0.0
 11
0.825000
 21
51.428942
 31
0.0
 11
0.283775
 21
51.625438
 31
0.0
 11
-0.283775
 21
51.625438
 31
0.0
 11
-0.825000
 21
51.428942
 31
0.0
 11
-1.265783
 21
51.058476
 31
0.0
 11
-1.549558
 21
50.566963
 31
0.0
 11
-1.650000
 21
50.000000
 31
0.0
 11
-1.549558
 21
49.433038
 31
0.0
 11
-1.265783
 21
48.941525
 31
0.0
 11
-0.825000
 21
48.571058
 31
0.0
 11
-0.283775
 21
48.374562
 31
0.0
 11
0.283775
 21
48.374562
 31
0.0
 11
0.825000
 21
48.571058
 31
0.0
 11
1.265783
 21
48.941525
 31
0.0
 11
1.549558
 21
49.433038
 31
0.0
 11
1.650000
 21
50.000000
 31
0.0
  0
LINE
  5
124
100
AcDbEntity
  8
0
 62
7
100
AcDbLine
 10
-38.350000
 20
50.000000
 30
0.0
 11
-38.350000
 21
50.000000
 31
0.0
  0
SPLINE
  5
125
100
AcDbEntity
  8
0
 62
7
100
AcDbSpline
 70
0
 71
3
 72
25
 73
21
 74
19
 40
0.000000
 40
0.000000
 40
0.000000
 40
0.000000
 40
0.575942
 40
1.143638
 40
1.719580
 40
2.295522
 40
2.863218
 40
3.439160
 40
4.015102
 40
4.582798
 40
5.158740
 40
5.734682
 40
6.302378
 40
6.878320
 40
7.454262
 40
8.021958
 40
8.597900
 40
9.173842
 40
9.741538
 40
10.317480
 40
10.317480
 40
10.317480
 40
10.317480
 10
-38.350000
 20
50.000000
 30
0.0
 10
-38.369645
 20
50.192969
 30
0.0
 10
-38.408653
 20
50.576143
 30
0.0
 10
-38.712309
 20
51.082582
 30
0.0
 10
-39.157042
 20
51.459124
 30
0.0
 10
-39.707830
 20
51.658836
 30
0.0
 10
-40.292296
 20
51.658836
 30
0.0
 10
-40.842315
 20
51.459124
 30
0.0
 10
-41.290117
 20
51.082582
 30
0.0
 10
-41.582371
 20
50.576143
 30
0.0
 10
-41.684058
 20
50.000000
 30
0.0
 10
-41.582371
 20
49.423857
 30
0.0
 10
-41.290117
 20
48.917419
 30
0.0
 10
-40.842315
 20
48.540877
 30
0.0
 10
-40.292296
 20
48.341164
 30
0.0
 10
-39.707830
 20
48.341164
 30
0.0
 10
-39.157042
 20
48.540877
 30
0.0
 10
-38.712309
 20
48.917419
 30
0.0
 10
-38.408653
 20
49.423857
 30
0.0
 10
-38.369645
 20
49.807032
 30
0.0
 10
-38.350000
 20
50.000000
 30
0.0
 11
-38.350000
 21
50.000000
 31
0.0
 11
-38.450260
 21
50.567149
 31
0.0
 11
-38.733972
 21
51.058866
 31
0.0
 11
-39.174803
 21
51.429511
 31
0.0
 11
-39.716152
 21
51.626108
 31
0.0
 11
-40.283848
 21
51.626108
 31
0.0
 11
-40.825197
 21
51.429511
 31
0.0
 11
-41.266028
 21
51.058866
 31
0.0
 11
-41.549740
 21
50.567149
 31
0.0
 11
-41.650000
 21
50.000000
 31
0.0
 11
-41.549740
 21
49.432852
 31
0.0
 11
-41.266028
 21
48.941135
 31
0.0
 11
-40.825197
 21
48.570489
 31
0.0
 11
-40.283848
 21
48.373892
 31
0.0
 11
-39.716152
 21
48.373892
 31
0.0
 11
-39.174803
 21
48.570489
 31
0.0
 11
-38.733972
 21
48.941135
 31
0.0
 11
-38.450260
 21
49.432852
 31
0.0
 11
-38.350000
 21
50.000000
 31
0.0
  0
LINE
  5
126
100
AcDbEntity
  8
0
 62
7
100
AcDbLine
 10
54.350000
 20
49.750000
 30
0.0
 11
54.350000
 21
49.750000
 31
0.0
  0
SPLINE
  5
127
100
AcDbEntity
  8
0
 62
7
100
AcDbSpline
 70
0
 71
3
 72
25
 73
21
 74
19
 40
0.000000
 40
0.000000
 40
0.000000
 40
0.000000
 40
1.169246
 40
2.321752
 40
3.490997
 40
4.660243
 40
5.812749
 40
6.981994
 40
8.151240
 40
9.303746
 40
10.472992
 40
11.642237
 40
12.794743
 40
13.963989
 40
15.133234
 40
16.285740
 40
17.454986
 40
18.624232
 40
19.776738
 40
20.945983
 40
20.945983
 40
20.945983
 40
20.945983
 10
54.350000
 20
49.750000
 30
0.0
 10
54.310073
 20
50.141749
 30
0.0
 10
54.230791
 20
50.919638
 30
0.0
 10
53.614245
 20
51.947727
 30
0.0
 10
52.711332
 20
52.712111
 30
0.0
 10
51.593145
 20
53.117525
 30
0.0
 10
50.406599
 20
53.117525
 30
0.0
 10
49.289974
 20
52.712111
 30
0.0
 10
48.380825
 20
51.947727
 30
0.0
 10
47.787451
 20
50.919638
 30
0.0
 10
47.580779
 20
49.750000
 30
0.0
 10
47.787451
 20
48.580363
 30
0.0
 10
48.380825
 20
47.552273
 30
0.0
 10
49.289974
 20
46.787889
 30
0.0
 10
50.406599
 20
46.382475
 30
0.0
 10
51.593145
 20
46.382475
 30
0.0
 10
52.711332
 20
46.787889
 30
0.0
 10
53.614245
 20
47.552273
 30
0.0
 10
54.230791
 20
48.580363
 30
0.0
 10
54.310073
 20
49.358251
 30
0.0
 10
54.350000
 20
49.750000
 30
0.0
 11
54.350000
 21
49.750000
 31
0.0
 11
54.146332
 21
50.901371
 31
0.0
 11
53.570272
 21
51.899582
 31
0.0
 11
52.675281
 21
52.651995
 31
0.0
 11
51.576253
 21
53.051086
 31
0.0
 11
50.423747
 21
53.051086
 31
0.0
 11
49.324719
 21
52.651995
 31
0.0
 11
48.429728
 21
51.899582
 31
0.0
 11
47.853669
 21
50.901371
 31
0.0
 11
47.650000
 21
49.750000
 31
0.0
 11
47.853669
 21
48.598629
 31
0.0
 11
48.429728
 21
47.600418
 31
0.0
 11
49.324719
 21
46.848005
 31
0.0
 11
50.423747
 21
46.448914
 31
0.0
 11
51.576253
 21
46.448914
 31
0.0
 11
52.675281
 21
46.848005
 31
0.0
 11
53.570272
 21
47.600418
 31
0.0
 11
54.146332
 21
48.598629
 31
0.0
 11
54.350000
 21
49.750000
 31
0.0
  0
LINE
  5
128
100
AcDbEntity
  8
0
 62
7
100
AcDbLine
 10
-71.113912
 20
-31.056556
 30
0.0
 11
-71.113912
 21
-31.056556
 31
0.0
  0
SPLINE
  5
129
100
AcDbEntity
  8
0
 62
7
100
AcDbSpline
 70
0
 71
3
 72
25
 73
21
 74
19
 40
0.000000
 40
0.000000
 40
0.000000
 40
0.000000
 40
1.169246
 40
2.321752
 40
3.490997
 40
4.660243
 40
5.812749
 40
6.981994
 40
8.151240
 40
9.303746
 40
10.472992
 40
11.642237
 40
12.794743
 40
13.963989
 40
15.133234
 40
16.285740
 40
17.454986
 40
18.624232
 40
19.776738
 40
20.945983
 40
20.945983
 40
20.945983
 40
20.945983
 10
-71.113912
 20
-31.056556
 30
0.0
 10
-71.153839
 20
-30.664807
 30
0.0
 10
-71.233121
 20
-29.886918
 30
0.0
 10
-71.849667
 20
-28.858829
 30
0.0
 10
-72.752580
 20
-28.094445
 30
0.0
 10
-73.870766
 20
-27.689031
 30
0.0
 10
-75.057313
 20
-27.689031
 30
0.0
 10
-76.173937
 20
-28.094445
 30
0.0
 10
-77.083087
 20
-28.858829
 30
0.0
 10
-77.676460
 20
-29.886918
 30
0.0
 10
-77.883133
 20
-31.056556
 30
0.0
 10
-77.676460
 20
-32.226193
 30
0.0
 10
-77.083087
 20
-33.254283
 30
0.0
 10
-76.173937
 20
-34.018666
 30
0.0
 10
-75.057313
 20
-34.424080
 30
0.0
 10
-73.870766
 20
-34.424080
 30
0.0
 10
-72.752580
 20
-34.018666
 30
0.0
 10
-71.849667
 20
-33.254283
 30
0.0
 10
-71.233121
 20
-32.226193
 30
0.0
 10
-71.153839
 20
-31.448304
 30
0.0
 10
-71.113912
 20
-31.056556
 30
0.0
 11
-71.113912
 21
-31.056556
 31
0.0
 11
-71.317580
 21
-29.905185
 31
0.0
 11
-71.893640
 21
-28.906974
 31
0.0
 11
-72.788631
 21
-28.154560
 31
0.0
 11
-73.887659
 21
-27.755470
 31
0.0
 11
-75.040165
 21
-27.755470
 31
0.0
 11
-76.139192
 21
-28.154560
 31
0.0
 11
-77.034183
 21
-28.906974
 31
0.0
 11
-77.610243
 21
-29.905185
 31
0.0
 11
-77.813911
 21
-31.056556
 31
0.0
 11
-77.610243
 21
-32.207926
 31
0.0
 11
-77.034183
 21
-33.206137
 31
0.0
 11
-76.139192
 21
-33.958551
 31
0.0
 11
-75.040165
 21
-34.357642
 31
0.0
 11
-73.887659
 21
-34.357642
 31
0.0
 11
-72.788631
 21
-33.958551
 31
0.0
 11
-71.893640
 21
-33.206137
 31
0.0
 11
-71.317580
 21
-32.207926
 31
0.0
 11
-71.113912
 21
-31.056556
 31
0.0
  0
LINE
  5
12a
100
AcDbEntity
  8
0
 62
7
100
AcDbLine
 10
-13.650000
 20
-49.750000
 30
0.0
 11
-13.650000
 21
-49.750000
 31
0.0
  0
SPLINE
  5
12b
100
AcDbEntity
  8
0
 62
7
100
AcDbSpline
 70
0
 71
3
 72
25
 73
21
 74
19
 40
0.000000
 40
0.000000
 40
0.000000
 40
0.000000
 40
1.169246
 40
2.321752
 40
3.490997
 40
4.660243
 40
5.812749
 40
6.981994
 40
8.151240
 40
9.303746
 40
10.472992
 40
11.642237
 40
12.794743
 40
13.963989
 40
15.133234
 40
16.285740
 40
17.454986
 40
18.624232
 40
19.776738
 40
20.945983
 40
20.945983
 40
20.945983
 40
20.945983
 10
-13.650000
 20
-49.750000
 30
0.0
 10
-13.689927
 20
-49.358251
 30
0.0
 10
-13.769210
 20
-48.580362
 30
0.0
 10
-14.385755
 20
-47.552273
 30
0.0
 10
-15.288668
 20
-46.787889
 30
0.0
 10
-16.406855
 20
-46.382475
 30
0.0
 10
-17.593401
 20
-46.382475
 30
0.0
 10
-18.710026
 20
-46.787889
 30
0.0
 10
-19.619175
 20
-47.552273
 30
0.0
 10
-20.212549
 20
-48.580362
 30
0.0
 10
-20.419221
 20
-49.750000
 30
0.0
 10
-20.212549
 20
-50.919637
 30
0.0
 10
-19.619175
 20
-51.947727
 30
0.0
 10
-18.710026
 20
-52.712110
 30
0.0
 10
-17.593401
 20
-53.117525
 30
0.0
 10
-16.406855
 20
-53.117525
 30
0.0
 10
-15.288668
 20
-52.712110
 30
0.0
 10
-14.385755
 20
-51.947727
 30
0.0
 10
-13.769210
 20
-50.919637
 30
0.0
 10
-13.689927
 20
-50.141749
 30
0.0
 10
-13.650000
 20
-49.750000
 30
0.0
 11
-13.650000
 21
-49.750000
 31
0.0
 11
-13.853668
 21
-48.598629
 31
0.0
 11
-14.429728
 21
-47.600418
 31
0.0
 11
-15.324719
 21
-46.848004
 31
0.0
 11
-16.423747
 21
-46.448914
 31
0.0
 11
-17.576253
 21
-46.448914
 31
0.0
 11
-18.675281
 21
-46.848004
 31
0.0
 11
-19.570272
 21
-47.600418
 31
0.0
 11
-20.146332
 21
-48.598629
 31
0.0
 11
-20.350000
 21
-49.750000
 31
0.0
 11
-20.146332
 21
-50.901371
 31
0.0
 11
-19.570272
 21
-51.899582
 31
0.0
 11
-18.675281
 21
-52.651995
 31
0.0
 11
-17.576253
 21
-53.051086
 31
0.0
 11
-16.423747
 21
-53.051086
 31
0.0
 11
-15.324719
 21
-52.651995
 31
0.0
 11
-14.429728
 21
-51.899582
 31
0.0
 11
-13.853668
 21
-50.901371
 31
0.0
 11
-13.650000
 21
-49.750000
 31
0.0
  0
LINE
  5
12c
100
AcDbEntity
  8
0
 62
7
100
AcDbLine
 10
54.350000
 20
-49.750000
 30
0.0
 11
54.350000
 21
-49.750000
 31
0.0
  0
SPLINE
  5
12d
100
AcDbEntity
  8
0
 62
7
100
AcDbSpline
 70
0
 71
3
 72
25
 73
21
 74
19
 40
0.000000
 40
0.000000
 40
0.000000
 40
0.000000
 40
1.169246
 40
2.321752
 40
3.490997
 40
4.660243
 40
5.812749
 40
6.981994
 40
8.151240
 40
9.303746
 40
10.472992
 40
11.642237
 40
12.794743
 40
13.963989
 40
15.133234
 40
16.285740
 40
17.454986
 40
18.624232
 40
19.776738
 40
20.945983
 40
20.945983
 40
20.945983
 40
20.945983
 10
54.350000
 20
-49.750000
 30
0.0
 10
54.310073
 20
-49.358251
 30
0.0
 10
54.230791
 20
-48.580362
 30
0.0
 10
53.614245
 20
-47.552273
 30
0.0
 10
52.711332
 20
-46.787889
 30
0.0
 10
51.593145
 20
-46.382475
 30
0.0
 10
50.406599
 20
-46.382475
 30
0.0
 10
49.289974
 20
-46.787889
 30
0.0
 10
48.380825
 20
-47.552273
 30
0.0
 10
47.787451
 20
-48.580362
 30
0.0
 10
47.580779
 20
-49.750000
 30
0.0
 10
47.787451
 20
-50.919637
 30
0.0
 10
48.380825
 20
-51.947727
 30
0.0
 10
49.289974
 20
-52.712110
 30
0.0
 10
50.406599
 20
-53.117525
 30
0.0
 10
51.593145
 20
-53.117525
 30
0.0
 10
52.711332
 20
-52.712110
 30
0.0
 10
53.614245
 20
-51.947727
 30
0.0
 10
54.230791
 20
-50.919637
 30
0.0
 10
54.310073
 20
-50.141749
 30
0.0
 10
54.350000
 20
-49.750000
 30
0.0
 11
54.350000
 21
-49.750000
 31
0.0
 11
54.146332
 21
-48.598629
 31
0.0
 11
53.570272
 21
-47.600418
 31
0.0
 11
52.675281
 21
-46.848004
 31
0.0
 11
51.576253
 21
-46.448914
 31
0.0
 11
50.423747
 21
-46.448914
 31
0.0
 11
49.324719
 21
-46.848004
 31
0.0
 11
48.429728
 21
-47.600418
 31
0.0
 11
47.853669
 21
-48.598629
 31
0.0
 11
47.650000
 21
-49.750000
 31
0.0
 11
47.853669
 21
-50.901371
 31
0.0
 11
48.429728
 21
-51.899582
 31
0.0
 11
49.324719
 21
-52.651995
 31
0.0
 11
50.423747
 21
-53.051086
 31
0.0
 11
51.576253
 21
-53.051086
 31
0.0
 11
52.675281
 21
-52.651995
 31
0.0
 11
53.570272
 21
-51.899582
 31
0.0
 11
54.146332
 21
-50.901371
 31
0.0
 11
54.350000
 21
-49.750000
 31
0.0
  0
LINE
  5
12e
100
AcDbEntity
  8
0
 62
7
100
AcDbLine
 10
77.813911
 20
31.056556
 30
0.0
 11
77.813911
 21
31.056556
 31
0.0
  0
SPLINE
  5
12f
100
AcDbEntity
  8
0
 62
7
100
AcDbSpline
 70
0
 71
3
 72
25
 73
21
 74
19
 40
0.000000
 40
0.000000
 40
0.000000
 40
0.000000
 40
1.169246
 40
2.321752
 40
3.490997
 40
4.660243
 40
5.812749
 40
6.981994
 40
8.151240
 40
9.303746
 40
10.472992
 40
11.642237
 40
12.794743
 40
13.963989
 40
15.133234
 40
16.285740
 40
17.454986
 40
18.624232
 40
19.776738
 40
20.945983
 40
20.945983
 40
20.945983
 40
20.945983
 10
77.813911
 20
31.056556
 30
0.0
 10
77.773984
 20
31.448305
 30
0.0
 10
77.694702
 20
32.226193
 30
0.0
 10
77.078156
 20
33.254283
 30
0.0
 10
76.175243
 20
34.018666
 30
0.0
 10
75.057057
 20
34.424081
 30
0.0
 10
73.870510
 20
34.424081
 30
0.0
 10
72.753886
 20
34.018666
 30
0.0
 10
71.844736
 20
33.254283
 30
0.0
 10
71.251363
 20
32.226193
 30
0.0
 10
71.044690
 20
31.056556
 30
0.0
 10
71.251363
 20
29.886918
 30
0.0
 10
71.844736
 20
28.858829
 30
0.0
 10
72.753886
 20
28.094445
 30
0.0
 10
73.870510
 20
27.689031
 30
0.0
 10
75.057057
 20
27.689031
 30
0.0
 10
76.175243
 20
28.094445
 30
0.0
 10
77.078156
 20
28.858829
 30
0.0
 10
77.694702
 20
29.886918
 30
0.0
 10
77.773984
 20
30.664807
 30
0.0
 10
77.813911
 20
31.056556
 30
0.0
 11
77.813911
 21
31.056556
 31
0.0
 11
77.610243
 21
32.207927
 31
0.0
 11
77.034183
 21
33.206138
 31
0.0
 11
76.139192
 21
33.958551
 31
0.0
 11
75.040165
 21
34.357642
 31
0.0
 11
73.887659
 21
34.357642
 31
0.0
 11
72.788631
 21
33.958551
 31
0.0
 11
71.893640
 21
33.206138
 31
0.0
 11
71.317580
 21
32.207927
 31
0.0
 11
71.113912
 21
31.056556
 31
0.0
 11
71.317580
 21
29.905185
 31
0.0
 11
71.893640
 21
28.906974
 31
0.0
 11
72.788631
 21
28.154560
 31
0.0
 11
73.887659
 21
27.755470
 31
0.0
 11
75.040165
 21
27.755470
 31
0.0
 11
76.139192
 21
28.154560
 31
0.0
 11
77.034183
 21
28.906974
 31
0.0
 11
77.610243
 21
29.905185
 31
0.0
 11
77.813911
 21
31.056556
 31
0.0
  0
LINE
  5
130
100
AcDbEntity
  8
0
 62
7
100
AcDbLine
 10
20.350000
 20
49.750000
 30
0.0
 11
20.350000
 21
49.750000
 31
0.0
  0
SPLINE
  5
131
100
AcDbEntity
  8
0
 62
7
100
AcDbSpline
 70
0
 71
3
 72
25
 73
21
 74
19
 40
0.000000
 40
0.000000
 40
0.000000
 40
0.000000
 40
1.169246
 40
2.321752
 40
3.490997
 40
4.660243
 40
5.812749
 40
6.981994
 40
8.151240
 40
9.303746
 40
10.472992
 40
11.642237
 40
12.794743
 40
13.963989
 40
15.133234
 40
16.285740
 40
17.454986
 40
18.624232
 40
19.776738
 40
20.945983
 40
20.945983
 40
20.945983
 40
20.945983
 10
20.350000
 20
49.750000
 30
0.0
 10
20.310073
 20
50.141749
 30
0.0
 10
20.230790
 20
50.919638
 30
0.0
 10
19.614245
 20
51.947727
 30
0.0
 10
18.711332
 20
52.712111
 30
0.0
 10
17.593145
 20
53.117525
 30
0.0
 10
16.406599
 20
53.117525
 30
0.0
 10
15.289974
 20
52.712111
 30
0.0
 10
14.380825
 20
51.947727
 30
0.0
 10
13.787451
 20
50.919638
 30
0.0
 10
13.580779
 20
49.750000
 30
0.0
 10
13.787451
 20
48.580363
 30
0.0
 10
14.380825
 20
47.552273
 30
0.0
 10
15.289974
 20
46.787889
 30
0.0
 10
16.406599
 20
46.382475
 30
0.0
 10
17.593145
 20
46.382475
 30
0.0
 10
18.711332
 20
46.787889
 30
0.0
 10
19.614245
 20
47.552273
 30
0.0
 10
20.230790
 20
48.580363
 30
0.0
 10
20.310073
 20
49.358251
 30
0.0
 10
20.350000
 20
49.750000
 30
0.0
 11
20.350000
 21
49.750000
 31
0.0
 11
20.146332
 21
50.901371
 31
0.0
 11
19.570272
 21
51.899582
 31
0.0
 11
18.675281
 21
52.651995
 31
0.0
 11
17.576253
 21
53.051086
 31
0.0
 11
16.423747
 21
53.051086
 31
0.0
 11
15.324719
 21
52.651995
 31
0.0
 11
14.429728
 21
51.899582
 31
0.0
 11
13.853668
 21
50.901371
 31
0.0
 11
13.650000
 21
49.750000
 31
0.0
 11
13.853668
 21
48.598629
 31
0.0
 11
14.429728
 21
47.600418
 31
0.0
 11
15.324719
 21
46.848005
 31
0.0
 11
16.423747
 21
46.448914
 31
0.0
 11
17.576253
 21
46.448914
 31
0.0
 11
18.675281
 21
46.848005
 31
0.0
 11
19.570272
 21
47.600418
 31
0.0
 11
20.146332
 21
48.598629
 31
0.0
 11
20.350000
 21
49.750000
 31
0.0
  0
LINE
  5
132
100
AcDbEntity
  8
0
 62
7
100
AcDbLine
 10
78.100000
 20
-0.000000
 30
0.0
 11
78.100000
 21
-0.000000
 31
0.0
  0
SPLINE
  5
133
100
AcDbEntity
  8
0
 62
7
100
AcDbSpline
 70
0
 71
3
 72
25
 73
21
 74
19
 40
0.000000
 40
0.000000
 40
0.000000
 40
0.000000
 40
1.169246
 40
2.321752
 40
3.490997
 40
4.660243
 40
5.812749
 40
6.981994
 40
8.151240
 40
9.303746
 40
10.472992
 40
11.642237
 40
12.794743
 40
13.963989
 40
15.133234
 40
16.285740
 40
17.454986
 40
18.624232
 40
19.776738
 40
20.945983
 40
20.945983
 40
20.945983
 40
20.945983
 10
78.100000
 20
-0.000000
 30
0.0
 10
78.060073
 20
0.391749
 30
0.0
 10
77.980790
 20
1.169637
 30
0.0
 10
77.364244
 20
2.197727
 30
0.0
 10
76.461332
 20
2.962110
 30
0.0
 10
75.343145
 20
3.367525
 30
0.0
 10
74.156599
 20
3.367525
 30
0.0
 10
73.039974
 20
2.962110
 30
0.0
 10
72.130825
 20
2.197727
 30
0.0
 10
71.537451
 20
1.169637
 30
0.0
 10
71.330779
 20
-0.000000
 30
0.0
 10
71.537451
 20
-1.169638
 30
0.0
 10
72.130825
 20
-2.197727
 30
0.0
 10
73.039974
 20
-2.962111
 30
0.0
 10
74.156599
 20
-3.367525
 30
0.0
 10
75.343145
 20
-3.367525
 30
0.0
 10
76.461332
 20
-2.962111
 30
0.0
 10
77.364244
 20
-2.197727
 30
0.0
 10
77.980790
 20
-1.169638
 30
0.0
 10
78.060073
 20
-0.391749
 30
0.0
 10
78.100000
 20
-0.000000
 30
0.0
 11
78.100000
 21
-0.000000
 31
0.0
 11
77.896331
 21
1.151371
 31
0.0
 11
77.320272
 21
2.149582
 31
0.0
 11
76.425281
 21
2.901995
 31
0.0
 11
75.326253
 21
3.301086
 31
0.0
 11
74.173747
 21
3.301086
 31
0.0
 11
73.074719
 21
2.901995
 31
0.0
 11
72.179728
 21
2.149582
 31
0.0
 11
71.603668
 21
1.151371
 31
0.0
 11
71.400000
 21
-0.000000
 31
0.0
 11
71.603668
 21
-1.151371
 31
0.0
 11
72.179728
 21
-2.149582
 31
0.0
 11
73.074719
 21
-2.901996
 31
0.0
 11
74.173747
 21
-3.301086
 31
0.0
 11
75.326253
 21
-3.301086
 31
0.0
 11
76.425281
 21
-2.901996
 31
0.0
 11
77.320272
 21
-2.149582
 31
0.0
 11
77.896331
 21
-1.151371
 31
0.0
 11
78.100000
 21
-0.000000
 31
0.0
  0
LINE
  5
134
100
AcDbEntity
  8
0
 62
7
100
AcDbLine
 10
-71.400000
 20
-0.000000
 30
0.0
 11
-71.400000
 21
-0.000000
 31
0.0
  0
SPLINE
  5
135
100
AcDbEntity
  8
0
 62
7
100
AcDbSpline
 70
0
 71
3
 72
25
 73
21
 74
19
 40
0.000000
 40
0.000000
 40
0.000000
 40
0.000000
 40
1.169246
 40
2.321752
 40
3.490997
 40
4.660243
 40
5.812749
 40
6.981994
 40
8.151240
 40
9.303746
 40
10.472992
 40
11.642237
 40
12.794743
 40
13.963989
 40
15.133234
 40
16.285740
 40
17.454986
 40
18.624232
 40
19.776738
 40
20.945983
 40
20.945983
 40
20.945983
 40
20.945983
 10
-71.400000
 20
-0.000000
 30
0.0
 10
-71.439927
 20
0.391749
 30
0.0
 10
-71.519209
 20
1.169637
 30
0.0
 10
-72.135755
 20
2.197727
 30
0.0
 10
-73.038668
 20
2.962110
 30
0.0
 10
-74.156855
 20
3.367525
 30
0.0
 10
-75.343401
 20
3.367525
 30
0.0
 10
-76.460026
 20
2.962110
 30
0.0
 10
-77.369175
 20
2.197727
 30
0.0
 10
-77.962549
 20
1.169637
 30
0.0
 10
-78.169221
 20
-0.000000
 30
0.0
 10
-77.962549
 20
-1.169638
 30
0.0
 10
-77.369175
 20
-2.197727
 30
0.0
 10
-76.460026
 20
-2.962111
 30
0.0
 10
-75.343401
 20
-3.367525
 30
0.0
 10
-74.156855
 20
-3.367525
 30
0.0
 10
-73.038668
 20
-2.962111
 30
0.0
 10
-72.135755
 20
-2.197727
 30
0.0
 10
-71.519209
 20
-1.169638
 30
0.0
 10
-71.439927
 20
-0.391749
 30
0.0
 10
-71.400000
 20
-0.000000
 30
0.0
 11
-71.400000
 21
-0.000000
 31
0.0
 11
-71.603668
 21
1.151371
 31
0.0
 11
-72.179728
 21
2.149582
 31
0.0
 11
-73.074719
 21
2.901995
 31
0.0
 11
-74.173747
 21
3.301086
 31
0.0
 11
-75.326253
 21
3.301086
 31
0.0
 11
-76.425281
 21
2.901995
 31
0.0
 11
-77.320272
 21
2.149582
 31
0.0
 11
-77.896331
 21
1.151371
 31
0.0
 11
-78.100000
 21
-0.000000
 31
0.0
 11
-77.896331
 21
-1.151371
 31
0.0
 11
-77.320272
 21
-2.149582
 31
0.0
 11
-76.425281
 21
-2.901996
 31
0.0
 11
-75.326253
 21
-3.301086
 31
0.0
 11
-74.173747
 21
-3.301086
 31
0.0
 11
-73.074719
 21
-2.901996
 31
0.0
 11
-72.179728
 21
-2.149582
 31
0.0
 11
-71.603668
 21
-1.151371
 31
0.0
 11
-71.400000
 21
-0.000000
 31
0.0
  0
LINE
  5
136
100
AcDbEntity
  8
0
 62
7
100
AcDbLine
 10
-13.650000
 20
49.750000
 30
0.0
 11
-13.650000
 21
49.750000
 31
0.0
  0
SPLINE
  5
137
100
AcDbEntity
  8
0
 62
7
100
AcDbSpline
 70
0
 71
3
 72
25
 73
21
 74
19
 40
0.000000
 40
0.000000
 40
0.000000
 40
0.000000
 40
1.169246
 40
2.321752
 40
3.490997
 40
4.660243
 40
5.812749
 40
6.981994
 40
8.151240
 40
9.303746
 40
10.472992
 40
11.642237
 40
12.794743
 40
13.963989
 40
15.133234
 40
16.285740
 40
17.454986
 40
18.624232
 40
19.776738
 40
20.945983
 40
20.945983
 40
20.945983
 40
20.945983
 10
-13.650000
 20
49.750000
 30
0.0
 10
-13.689927
 20
50.141749
 30
0.0
 10
-13.769210
 20
50.919638
 30
0.0
 10
-14.385755
 20
51.947727
 30
0.0
 10
-15.288668
 20
52.712111
 30
0.0
 10
-16.406855
 20
53.117525
 30
0.0
 10
-17.593401
 20
53.117525
 30
0.0
 10
-18.710026
 20
52.712111
 30
0.0
 10
-19.619175
 20
51.947727
 30
0.0
 10
-20.212549
 20
50.919638
 30
0.0
 10
-20.419221
 20
49.750000
 30
0.0
 10
-20.212549
 20
48.580363
 30
0.0
 10
-19.619175
 20
47.552273
 30
0.0
 10
-18.710026
 20
46.787889
 30
0.0
 10
-17.593401
 20
46.382475
 30
0.0
 10
-16.406855
 20
46.382475
 30
0.0
 10
-15.288668
 20
46.787889
 30
0.0
 10
-14.385755
 20
47.552273
 30
0.0
 10
-13.769210
 20
48.580363
 30
0.0
 10
-13.689927
 20
49.358251
 30
0.0
 10
-13.650000
 20
49.750000
 30
0.0
 11
-13.650000
 21
49.750000
 31
0.0
 11
-13.853668
 21
50.901371
 31
0.0
 11
-14.429728
 21
51.899582
 31
0.0
 11
-15.324719
 21
52.651995
 31
0.0
 11
-16.423747
 21
53.051086
 31
0.0
 11
-17.576253
 21
53.051086
 31
0.0
 11
-18.675281
 21
52.651995
 31
0.0
 11
-19.570272
 21
51.899582
 31
0.0
 11
-20.146332
 21
50.901371
 31
0.0
 11
-20.350000
 21
49.750000
 31
0.0
 11
-20.146332
 21
48.598629
 31
0.0
 11
-19.570272
 21
47.600418
 31
0.0
 11
-18.675281
 21
46.848005
 31
0.0
 11
-17.576253
 21
46.448914
 31
0.0
 11
-16.423747
 21
46.448914
 31
0.0
 11
-15.324719
 21
46.848005
 31
0.0
 11
-14.429728
 21
47.600418
 31
0.0
 11
-13.853668
 21
48.598629
 31
0.0
 11
-13.650000
 21
49.750000
 31
0.0
  0
LINE
  5
138
100
AcDbEntity
  8
0
 62
7
100
AcDbLine
 10
77.813911
 20
-31.056556
 30
0.0
 11
77.813911
 21
-31.056556
 31
0.0
  0
SPLINE
  5
139
100
AcDbEntity
  8
0
 62
7
100
AcDbSpline
 70
0
 71
3
 72
25
 73
21
 74
19
 40
0.000000
 40
0.000000
 40
0.000000
 40
0.000000
 40
1.169246
 40
2.321752
 40
3.490997
 40
4.660243
 40
5.812749
 40
6.981994
 40
8.151240
 40
9.303746
 40
10.472992
 40
11.642237
 40
12.794743
 40
13.963989
 40
15.133234
 40
16.285740
 40
17.454986
 40
18.624232
 40
19.776738
 40
20.945983
 40
20.945983
 40
20.945983
 40
20.945983
 10
77.813911
 20
-31.056556
 30
0.0
 10
77.773984
 20
-30.664807
 30
0.0
 10
77.694702
 20
-29.886918
 30
0.0
 10
77.078156
 20
-28.858829
 30
0.0
 10
76.175243
 20
-28.094445
 30
0.0
 10
75.057057
 20
-27.689031
 30
0.0
 10
73.870510
 20
-27.689031
 30
0.0
 10
72.753886
 20
-28.094445
 30
0.0
 10
71.844736
 20
-28.858829
 30
0.0
 10
71.251363
 20
-29.886918
 30
0.0
 10
71.044690
 20
-31.056556
 30
0.0
 10
71.251363
 20
-32.226193
 30
0.0
 10
71.844736
 20
-33.254283
 30
0.0
 10
72.753886
 20
-34.018666
 30
0.0
 10
73.870510
 20
-34.424080
 30
0.0
 10
75.057057
 20
-34.424080
 30
0.0
 10
76.175243
 20
-34.018666
 30
0.0
 10
77.078156
 20
-33.254283
 30
0.0
 10
77.694702
 20
-32.226193
 30
0.0
 10
77.773984
 20
-31.448304
 30
0.0
 10
77.813911
 20
-31.056556
 30
0.0
 11
77.813911
 21
-31.056556
 31
0.0
 11
77.610243
 21
-29.905185
 31
0.0
 11
77.034183
 21
-28.906974
 31
0.0
 11
76.139192
 21
-28.154560
 31
0.0
 11
75.040165
 21
-27.755470
 31
0.0
 11
73.887659
 21
-27.755470
 31
0.0
 11
72.788631
 21
-28.154560
 31
0.0
 11
71.893640
 21
-28.906974
 31
0.0
 11
71.317580
 21
-29.905185
 31
0.0
 11
71.113912
 21
-31.056556
 31
0.0
 11
71.317580
 21
-32.207926
 31
0.0
 11
71.893640
 21
-33.206137
 31
0.0
 11
72.788631
 21
-33.958551
 31
0.0
 11
73.887659
 21
-34.357642
 31
0.0
 11
75.040165
 21
-34.357642
 31
0.0
 11
76.139192
 21
-33.958551
 31
0.0
 11
77.034183
 21
-33.206137
 31
0.0
 11
77.610243
 21
-32.207926
 31
0.0
 11
77.813911
 21
-31.056556
 31
0.0
  0
LINE
  5
13a
100
AcDbEntity
  8
0
 62
7
100
AcDbLine
 10
20.350000
 20
-49.750000
 30
0.0
 11
20.350000
 21
-49.750000
 31
0.0
  0
SPLINE
  5
13b
100
AcDbEntity
  8
0
 62
7
100
AcDbSpline
 70
0
 71
3
 72
25
 73
21
 74
19
 40
0.000000
 40
0.000000
 40
0.000000
 40
0.000000
 40
1.169246
 40
2.321752
 40
3.490997
 40
4.660243
 40
5.812749
 40
6.981994
 40
8.151240
 40
9.303746
 40
10.472992
 40
11.642237
 40
12.794743
 40
13.963989
 40
15.133234
 40
16.285740
 40
17.454986
 40
18.624232
 40
19.776738
 40
20.945983
 40
20.945983
 40
20.945983
 40
20.945983
 10
20.350000
 20
-49.750000
 30
0.0
 10
20.310073
 20
-49.358251
 30
0.0
 10
20.230790
 20
-48.580362
 30
0.0
 10
19.614245
 20
-47.552273
 30
0.0
 10
18.711332
 20
-46.787889
 30
0.0
 10
17.593145
 20
-46.382475
 30
0.0
 10
16.406599
 20
-46.382475
 30
0.0
 10
15.289974
 20
-46.787889
 30
0.0
 10
14.380825
 20
-47.552273
 30
0.0
 10
13.787451
 20
-48.580362
 30
0.0
 10
13.580779
 20
-49.750000
 30
0.0
 10
13.787451
 20
-50.919637
 30
0.0
 10
14.380825
 20
-51.947727
 30
0.0
 10
15.289974
 20
-52.712110
 30
0.0
 10
16.406599
 20
-53.117525
 30
0.0
 10
17.593145
 20
-53.117525
 30
0.0
 10
18.711332
 20
-52.712110
 30
0.0
 10
19.614245
 20
-51.947727
 30
0.0
 10
20.230790
 20
-50.919637
 30
0.0
 10
20.310073
 20
-50.141749
 30
0.0
 10
20.350000
 20
-49.750000
 30
0.0
 11
20.350000
 21
-49.750000
 31
0.0
 11
20.146332
 21
-48.598629
 31
0.0
 11
19.570272
 21
-47.600418
 31
0.0
 11
18.675281
 21
-46.848004
 31
0.0
 11
17.576253
 21
-46.448914
 31
0.0
 11
16.423747
 21
-46.448914
 31
0.0
 11
15.324719
 21
-46.848004
 31
0.0
 11
14.429728
 21
-47.600418
 31
0.0
 11
13.853668
 21
-48.598629
 31
0.0
 11
13.650000
 21
-49.750000
 31
0.0
 11
13.853668
 21
-50.901371
 31
0.0
 11
14.429728
 21
-51.899582
 31
0.0
 11
15.324719
 21
-52.651995
 31
0.0
 11
16.423747
 21
-53.051086
 31
0.0
 11
17.576253
 21
-53.051086
 31
0.0
 11
18.675281
 21
-52.651995
 31
0.0
 11
19.570272
 21
-51.899582
 31
0.0
 11
20.146332
 21
-50.901371
 31
0.0
 11
20.350000
 21
-49.750000
 31
0.0
  0
LINE
  5
13c
100
AcDbEntity
  8
0
 62
7
100
AcDbLine
 10
-47.650000
 20
-49.750000
 30
0.0
 11
-47.650000
 21
-49.750000
 31
0.0
  0
SPLINE
  5
13d
100
AcDbEntity
  8
0
 62
7
100
AcDbSpline
 70
0
 71
3
 72
25
 73
21
 74
19
 40
0.000000
 40
0.000000
 40
0.000000
 40
0.000000
 40
1.169246
 40
2.321752
 40
3.490997
 40
4.660243
 40
5.812749
 40
6.981994
 40
8.151240
 40
9.303746
 40
10.472992
 40
11.642237
 40
12.794743
 40
13.963989
 40
15.133234
 40
16.285740
 40
17.454986
 40
18.624232
 40
19.776738
 40
20.945983
 40
20.945983
 40
20.945983
 40
20.945983
 10
-47.650000
 20
-49.750000
 30
0.0
 10
-47.689927
 20
-49.358251
 30
0.0
 10
-47.769210
 20
-48.580362
 30
0.0
 10
-48.385755
 20
-47.552273
 30
0.0
 10
-49.288668
 20
-46.787889
 30
0.0
 10
-50.406855
 20
-46.382475
 30
0.0
 10
-51.593401
 20
-46.382475
 30
0.0
 10
-52.710026
 20
-46.787889
 30
0.0
 10
-53.619175
 20
-47.552273
 30
0.0
 10
-54.212549
 20
-48.580362
 30
0.0
 10
-54.419221
 20
-49.750000
 30
0.0
 10
-54.212549
 20
-50.919637
 30
0.0
 10
-53.619175
 20
-51.947727
 30
0.0
 10
-52.710026
 20
-52.712110
 30
0.0
 10
-51.593401
 20
-53.117525
 30
0.0
 10
-50.406855
 20
-53.117525
 30
0.0
 10
-49.288668
 20
-52.712110
 30
0.0
 10
-48.385755
 20
-51.947727
 30
0.0
 10
-47.769210
 20
-50.919637
 30
0.0
 10
-47.689927
 20
-50.141749
 30
0.0
 10
-47.650000
 20
-49.750000
 30
0.0
 11
-47.650000
 21
-49.750000
 31
0.0
 11
-47.853669
 21
-48.598629
 31
0.0
 11
-48.429728
 21
-47.600418
 31
0.0
 11
-49.324719
 21
-46.848004
 31
0.0
 11
-50.423747
 21
-46.448914
 31
0.0
 11
-51.576253
 21
-46.448914
 31
0.0
 11
-52.675281
 21
-46.848004
 31
0.0
 11
-53.570272
 21
-47.600418
 31
0.0
 11
-54.146332
 21
-48.598629
 31
0.0
 11
-54.350000
 21
-49.750000
 31
0.0
 11
-54.146332
 21
-50.901371
 31
0.0
 11
-53.570272
 21
-51.899582
 31
0.0
 11
-52.675281
 21
-52.651995
 31
0.0
 11
-51.576253
 21
-53.051086
 31
0.0
 11
-50.423747
 21
-53.051086
 31
0.0
 11
-49.324719
 21
-52.651995
 31
0.0
 11
-48.429728
 21
-51.899582
 31
0.0
 11
-47.853669
 21
-50.901371
 31
0.0
 11
-47.650000
 21
-49.750000
 31
0.0
  0
LINE
  5
13e
100
AcDbEntity
  8
0
 62
7
100
AcDbLine
 10
-47.650000
 20
49.750000
 30
0.0
 11
-47.650000
 21
49.750000
 31
0.0
  0
SPLINE
  5
13f
100
AcDbEntity
  8
0
 62
7
100
AcDbSpline
 70
0
 71
3
 72
25
 73
21
 74
19
 40
0.000000
 40
0.000000
 40
0.000000
 40
0.000000
 40
1.169246
 40
2.321752
 40
3.490997
 40
4.660243
 40
5.812749
 40
6.981994
 40
8.151240
 40
9.303746
 40
10.472992
 40
11.642237
 40
12.794743
 40
13.963989
 40
15.133234
 40
16.285740
 40
17.454986
 40
18.624232
 40
19.776738
 40
20.945983
 40
20.945983
 40
20.945983
 40
20.945983
 10
-47.650000
 20
49.750000
 30
0.0
 10
-47.689927
 20
50.141749
 30
0.0
 10
-47.769210
 20
50.919638
 30
0.0
 10
-48.385755
 20
51.947727
 30
0.0
 10
-49.288668
 20
52.712111
 30
0.0
 10
-50.406855
 20
53.117525
 30
0.0
 10
-51.593401
 20
53.117525
 30
0.0
 10
-52.710026
 20
52.712111
 30
0.0
 10
-53.619175
 20
51.947727
 30
0.0
 10
-54.212549
 20
50.919638
 30
0.0
 10
-54.419221
 20
49.750000
 30
0.0
 10
-54.212549
 20
48.580363
 30
0.0
 10
-53.619175
 20
47.552273
 30
0.0
 10
-52.710026
 20
46.787889
 30
0.0
 10
-51.593401
 20
46.382475
 30
0.0
 10
-50.406855
 20
46.382475
 30
0.0
 10
-49.288668
 20
46.787889
 30
0.0
 10
-48.385755
 20
47.552273
 30
0.0
 10
-47.769210
 20
48.580363
 30
0.0
 10
-47.689927
 20
49.358251
 30
0.0
 10
-47.650000
 20
49.750000
 30
0.0
 11
-47.650000
 21
49.750000
 31
0.0
 11
-47.853669
 21
50.901371
 31
0.0
 11
-48.429728
 21
51.899582
 31
0.0
 11
-49.324719
 21
52.651995
 31
0.0
 11
-50.423747
 21
53.051086
 31
0.0
 11
-51.576253
 21
53.051086
 31
0.0
 11
-52.675281
 21
52.651995
 31
0.0
 11
-53.570272
 21
51.899582
 31
0.0
 11
-54.146332
 21
50.901371
 31
0.0
 11
-54.350000
 21
49.750000
 31
0.0
 11
-54.146332
 21
48.598629
 31
0.0
 11
-53.570272
 21
47.600418
 31
0.0
 11
-52.675281
 21
46.848005
 31
0.0
 11
-51.576253
 21
46.448914
 31
0.0
 11
-50.423747
 21
46.448914
 31
0.0
 11
-49.324719
 21
46.848005
 31
0.0
 11
-48.429728
 21
47.600418
 31
0.0
 11
-47.853669
 21
48.598629
 31
0.0
 11
-47.650000
 21
49.750000
 31
0.0
  0
LINE
  5
140
100
AcDbEntity
  8
0
 62
7
100
AcDbLine
 10
-71.113912
 20
31.056556
 30
0.0
 11
-71.113912
 21
31.056556
 31
0.0
  0
SPLINE
  5
141
100
AcDbEntity
  8
0
 62
7
100
AcDbSpline
 70
0
 71
3
 72
25
 73
21
 74
19
 40
0.000000
 40
0.000000
 40
0.000000
 40
0.000000
 40
1.169246
 40
2.321752
 40
3.490997
 40
4.660243
 40
5.812749
 40
6.981994
 40
8.151240
 40
9.303746
 40
10.472992
 40
11.642237
 40
12.794743
 40
13.963989
 40
15.133234
 40
16.285740
 40
17.454986
 40
18.624232
 40
19.776738
 40
20.945983
 40
20.945983
 40
20.945983
 40
20.945983
 10
-71.113912
 20
31.056556
 30
0.0
 10
-71.153839
 20
31.448305
 30
0.0
 10
-71.233121
 20
32.226193
 30
0.0
 10
-71.849667
 20
33.254283
 30
0.0
 10
-72.752580
 20
34.018666
 30
0.0
 10
-73.870766
 20
34.424081
 30
0.0
 10
-75.057313
 20
34.424081
 30
0.0
 10
-76.173937
 20
34.018666
 30
0.0
 10
-77.083087
 20
33.254283
 30
0.0
 10
-77.676460
 20
32.226193
 30
0.0
 10
-77.883133
 20
31.056556
 30
0.0
 10
-77.676460
 20
29.886918
 30
0.0
 10
-77.083087
 20
28.858829
 30
0.0
 10
-76.173937
 20
28.094445
 30
0.0
 10
-75.057313
 20
27.689031
 30
0.0
 10
-73.870766
 20
27.689031
 30
0.0
 10
-72.752580
 20
28.094445
 30
0.0
 10
-71.849667
 20
28.858829
 30
0.0
 10
-71.233121
 20
29.886918
 30
0.0
 10
-71.153839
 20
30.664807
 30
0.0
 10
-71.113912
 20
31.056556
 30
0.0
 11
-71.113912
 21
31.056556
 31
0.0
 11
-71.317580
 21
32.207927
 31
0.0
 11
-71.893640
 21
33.206138
 31
0.0
 11
-72.788631
 21
33.958551
 31
0.0
 11
-73.887659
 21
34.357642
 31
0.0
 11
-75.040165
 21
34.357642
 31
0.0
 11
-76.139192
 21
33.958551
 31
0.0
 11
-77.034183
 21
33.206138
 31
0.0
 11
-77.610243
 21
32.207927
 31
0.0
 11
-77.813911
 21
31.056556
 31
0.0
 11
-77.610243
 21
29.905185
 31
0.0
 11
-77.034183
 21
28.906974
 31
0.0
 11
-76.139192
 21
28.154560
 31
0.0
 11
-75.040165
 21
27.755470
 31
0.0
 11
-73.887659
 21
27.755470
 31
0.0
 11
-72.788631
 21
28.154560
 31
0.0
 11
-71.893640
 21
28.906974
 31
0.0
 11
-71.317580
 21
29.905185
 31
0.0
 11
-71.113912
 21
31.056556
 31
0.0
  0
ENDSEC
  0
SECTION
  2
OBJECTS
  0
DICTIONARY
  5
C
330
0
100
AcDbDictionary
  3
ACAD_GROUP
350
D
  3
ACAD_MLINESTYLE
350
17
  0
DICTIONARY
  5
D
330
C
100
AcDbDictionary
  0
DICTIONARY
  5
1A
330
C
100
AcDbDictionary
  0
DICTIONARY
  5
17
330
C
100
AcDbDictionary
  3
STANDARD
350
18
  0
DICTIONARY
  5
19
330
C
100
AcDbDictionary
  0
ENDSEC
  0
EOF
