  0
SECTION
  2
HEADER
  9
$ACADVER
  1
AC1014
  9
$HANDSEED
  5
FFFF
  9
$MEASUREMENT
 70
     1
  0
ENDSEC
  0
SECTION
  2
TABLES
  0
TABLE
  2
VPORT
  5
8
330
0
100
AcDbSymbolTable
 70
     4
  0
VPORT
  5
2E
330
8
100
AcDbSymbolTableRecord
100
AcDbViewportTableRecord
  2
*ACTIVE
 70
     0
 10
0.0
 20
0.0
 11
1.0
 21
1.0
 12
210.0
 22
148.5
 13
0.0
 23
0.0
 14
10.0
 24
10.0
 15
10.0
 25
10.0
 16
0.0
 26
0.0
 36
1.0
 17
0.0
 27
0.0
 37
0.0
 40
341.0
 41
1.24
 42
50.0
 43
0.0
 44
0.0
 50
0.0
 51
0.0
 71
     0
 72
   100
 73
     1
 74
     3
 75
     0
 76
     0
 77
     0
 78
     0
  0
ENDTAB
  0
TABLE
  2
LTYPE
  5
5
330
0
100
AcDbSymbolTable
 70
     1
  0
LTYPE
  5
14
330
5
100
AcDbSymbolTableRecord
100
AcDbLinetypeTableRecord
  2
BYBLOCK
 70
     0
  3

 72
    65
 73
     0
 40
0.0
  0
LTYPE
  5
15
330
5
100
AcDbSymbolTableRecord
100
AcDbLinetypeTableRecord
  2
BYLAYER
 70
     0
  3

 72
    65
 73
     0
 40
0.0
  0
LTYPE
  5
16
330
5
100
AcDbSymbolTableRecord
100
AcDbLinetypeTableRecord
  2
CONTINUOUS
 70
     0
  3
Solid line
 72
    65
 73
     0
 40
0.0
  0
ENDTAB
  0
TABLE
  2
LAYER
  5
2
100
AcDbSymbolTable
 70
1
  0
LAYER
  5
50
100
AcDbSymbolTableRecord
100
AcDbLayerTableRecord
  2
0
 70
0
  6
CONTINUOUS
  0
ENDTAB
  0
TABLE
  2
STYLE
  5
3
330
0
100
AcDbSymbolTable
 70
     1
  0
STYLE
  5
11
330
3
100
AcDbSymbolTableRecord
100
AcDbTextStyleTableRecord
  2
STANDARD
 70
     0
 40
0.0
 41
1.0
 50
0.0
 71
     0
 42
2.5
  3
txt
  4

  0
ENDTAB
  0
TABLE
  2
VIEW
  5
6
330
0
100
AcDbSymbolTable
 70
     0
  0
ENDTAB
  0
TABLE
  2
UCS
  5
7
330
0
100
AcDbSymbolTable
 70
     0
  0
ENDTAB
  0
TABLE
  2
APPID
  5
9
330
0
100
AcDbSymbolTable
 70
     2
  0
APPID
  5
12
330
9
100
AcDbSymbolTableRecord
100
AcDbRegAppTableRecord
  2
ACAD
 70
     0
  0
ENDTAB
  0
TABLE
  2
DIMSTYLE
  5
A
330
0
100
AcDbSymbolTable
 70
     1
  0
DIMSTYLE
105
27
330
A
100
AcDbSymbolTableRecord
100
AcDbDimStyleTableRecord
  2
ISO-25
 70
     0
  3

  4

  5

  6

  7

 40
1.0
 41
2.5
 42
0.625
 43
3.75
 44
1.25
 45
0.0
 46
0.0
 47
0.0
 48
0.0
140
2.5
141
2.5
142
0.0
143
0.03937007874016
144
1.0
145
0.0
146
1.0
147
0.625
 71
     0
 72
     0
 73
     0
 74
     0
 75
     0
 76
     0
 77
     1
 78
     8
170
     0
171
     3
172
     1
173
     0
174
     0
175
     0
176
     0
177
     0
178
     0
270
     2
271
     2
272
     2
273
     2
274
     3
340
11
275
     0
280
     0
281
     0
282
     0
283
     0
284
     8
285
     0
286
     0
287
     3
288
     0
  0
ENDTAB
  0
TABLE
  2
BLOCK_RECORD
  5
1
330
0
100
AcDbSymbolTable
 70
     1
  0
BLOCK_RECORD
  5
1F
330
1
100
AcDbSymbolTableRecord
100
AcDbBlockTableRecord
  2
*MODEL_SPACE
  0
BLOCK_RECORD
  5
1B
330
1
100
AcDbSymbolTableRecord
100
AcDbBlockTableRecord
  2
*PAPER_SPACE
  0
ENDTAB
  0
ENDSEC
  0
SECTION
  2
BLOCKS
  0
BLOCK
  5
20
330
1F
100
AcDbEntity
  8
0
100
AcDbBlockBegin
  2
*MODEL_SPACE
 70
     0
 10
0.0
 20
0.0
 30
0.0
  3
*MODEL_SPACE
  1

  0
ENDBLK
  5
21
330
1F
100
AcDbEntity
  8
0
100
AcDbBlockEnd
  0
BLOCK
  5
1C
330
1B
100
AcDbEntity
 67
     1
  8
0
100
AcDbBlockBegin
  2
*PAPER_SPACE
  1

  0
ENDBLK
  5
1D
330
1B
100
AcDbEntity
 67
     1
  8
0
100
AcDbBlockEnd
  0
ENDSEC
  0
SECTION
  2
ENTITIES
  0
LINE
  5
100
100
AcDbEntity
  8
0
 62
7
100
AcDbLine
 10
-35.733330
 20
27.924998
 30
0.0
 11
-35.733330
 21
27.924998
 31
0.0
  0
SPLINE
  5
101
100
AcDbEntity
  8
0
 62
7
100
AcDbSpline
 70
0
 71
3
 72
25
 73
21
 74
19
 40
0.000000
 40
0.000000
 40
0.000000
 40
0.000000
 40
0.523591
 40
1.039684
 40
1.563274
 40
2.086865
 40
2.602958
 40
3.126549
 40
3.650140
 40
4.166233
 40
4.689823
 40
5.213414
 40
5.729507
 40
6.253098
 40
6.776689
 40
7.292782
 40
7.816372
 40
8.339963
 40
8.856056
 40
9.379647
 40
9.379647
 40
9.379647
 40
9.379647
 10
-35.733330
 20
27.924998
 30
0.0
 10
-35.751186
 20
28.100426
 30
0.0
 10
-35.786642
 20
28.448771
 30
0.0
 10
-36.062690
 20
28.909180
 30
0.0
 10
-36.466996
 20
29.251499
 30
0.0
 10
-36.967718
 20
29.433061
 30
0.0
 10
-37.499057
 20
29.433061
 30
0.0
 10
-37.999080
 20
29.251499
 30
0.0
 10
-38.406175
 20
28.909180
 30
0.0
 10
-38.671860
 20
28.448771
 30
0.0
 10
-38.764287
 20
27.924998
 30
0.0
 10
-38.671860
 20
27.401224
 30
0.0
 10
-38.406175
 20
26.940815
 30
0.0
 10
-37.999080
 20
26.598496
 30
0.0
 10
-37.499057
 20
26.416934
 30
0.0
 10
-36.967718
 20
26.416934
 30
0.0
 10
-36.466996
 20
26.598496
 30
0.0
 10
-36.062690
 20
26.940815
 30
0.0
 10
-35.786642
 20
27.401224
 30
0.0
 10
-35.751186
 20
27.749569
 30
0.0
 10
-35.733330
 20
27.924998
 30
0.0
 11
-35.733330
 21
27.924998
 31
0.0
 11
-35.824468
 21
28.440595
 31
0.0
 11
-36.082385
 21
28.887620
 31
0.0
 11
-36.483142
 21
29.224578
 31
0.0
 11
-36.975283
 21
29.403307
 31
0.0
 11
-37.491377
 21
29.403307
 31
0.0
 11
-37.983518
 21
29.224578
 31
0.0
 11
-38.384275
 21
28.887620
 31
0.0
 11
-38.642193
 21
28.440595
 31
0.0
 11
-38.733330
 21
27.924998
 31
0.0
 11
-38.642193
 21
27.409400
 31
0.0
 11
-38.384275
 21
26.962375
 31
0.0
 11
-37.983518
 21
26.625417
 31
0.0
 11
-37.491377
 21
26.446688
 31
0.0
 11
-36.975283
 21
26.446688
 31
0.0
 11
-36.483142
 21
26.625417
 31
0.0
 11
-36.082385
 21
26.962375
 31
0.0
 11
-35.824468
 21
27.409400
 31
0.0
 11
-35.733330
 21
27.924998
 31
0.0
  0
LINE
  5
102
100
AcDbEntity
  8
0
 62
7
100
AcDbLine
 10
38.733330
 20
27.924998
 30
0.0
 11
38.733330
 21
27.924998
 31
0.0
  0
LINE
  5
103
100
AcDbEntity
  8
0
 62
7
100
AcDbLine
 10
43.640000
 20
10.000000
 30
0.0
 11
41.500000
 21
10.000000
 31
0.0
  0
LINE
  5
104
100
AcDbEntity
  8
0
 62
7
100
AcDbLine
 10
43.640000
 20
10.000000
 30
0.0
 11
43.640000
 21
25.295000
 31
0.0
  0
SPLINE
  5
105
100
AcDbEntity
  8
0
 62
7
100
AcDbSpline
 70
0
 71
3
 72
25
 73
21
 74
19
 40
0.000000
 40
0.000000
 40
0.000000
 40
0.000000
 40
0.523591
 40
1.039684
 40
1.563274
 40
2.086865
 40
2.602958
 40
3.126549
 40
3.650140
 40
4.166233
 40
4.689823
 40
5.213414
 40
5.729507
 40
6.253098
 40
6.776689
 40
7.292782
 40
7.816372
 40
8.339963
 40
8.856056
 40
9.379647
 40
9.379647
 40
9.379647
 40
9.379647
 10
38.733330
 20
27.924998
 30
0.0
 10
38.715474
 20
28.100426
 30
0.0
 10
38.680018
 20
28.448771
 30
0.0
 10
38.403970
 20
28.909180
 30
0.0
 10
37.999665
 20
29.251499
 30
0.0
 10
37.498942
 20
29.433061
 30
0.0
 10
36.967603
 20
29.433061
 30
0.0
 10
36.467580
 20
29.251499
 30
0.0
 10
36.060485
 20
28.909180
 30
0.0
 10
35.794800
 20
28.448771
 30
0.0
 10
35.702373
 20
27.924998
 30
0.0
 10
35.794800
 20
27.401224
 30
0.0
 10
36.060485
 20
26.940815
 30
0.0
 10
36.467580
 20
26.598496
 30
0.0
 10
36.967603
 20
26.416934
 30
0.0
 10
37.498942
 20
26.416934
 30
0.0
 10
37.999665
 20
26.598496
 30
0.0
 10
38.403970
 20
26.940815
 30
0.0
 10
38.680018
 20
27.401224
 30
0.0
 10
38.715474
 20
27.749569
 30
0.0
 10
38.733330
 20
27.924998
 30
0.0
 11
38.733330
 21
27.924998
 31
0.0
 11
38.642193
 21
28.440595
 31
0.0
 11
38.384275
 21
28.887620
 31
0.0
 11
37.983518
 21
29.224578
 31
0.0
 11
37.491377
 21
29.403307
 31
0.0
 11
36.975283
 21
29.403307
 31
0.0
 11
36.483142
 21
29.224578
 31
0.0
 11
36.082385
 21
28.887620
 31
0.0
 11
35.824468
 21
28.440595
 31
0.0
 11
35.733330
 21
27.924998
 31
0.0
 11
35.824468
 21
27.409400
 31
0.0
 11
36.082385
 21
26.962375
 31
0.0
 11
36.483142
 21
26.625417
 31
0.0
 11
36.975283
 21
26.446688
 31
0.0
 11
37.491377
 21
26.446688
 31
0.0
 11
37.983518
 21
26.625417
 31
0.0
 11
38.384275
 21
26.962375
 31
0.0
 11
38.642193
 21
27.409400
 31
0.0
 11
38.733330
 21
27.924998
 31
0.0
  0
LINE
  5
106
100
AcDbEntity
  8
0
 62
7
100
AcDbLine
 10
34.720000
 20
34.215000
 30
0.0
 11
-34.720000
 21
34.215000
 31
0.0
  0
SPLINE
  5
107
100
AcDbEntity
  8
0
 62
7
100
AcDbSpline
 70
0
 71
3
 72
13
 73
9
 74
7
 40
0.000000
 40
0.000000
 40
0.000000
 40
0.000000
 40
2.335032
 40
4.650741
 40
6.985773
 40
9.320804
 40
11.636513
 40
13.971545
 40
13.971545
 40
13.971545
 40
13.971545
 10
43.640000
 20
25.295000
 30
0.0
 10
43.580537
 20
26.075618
 30
0.0
 10
43.462103
 20
27.630394
 30
0.0
 10
42.526171
 20
29.805457
 30
0.0
 10
41.102241
 20
31.677241
 30
0.0
 10
39.230457
 20
33.101171
 30
0.0
 10
37.055394
 20
34.037103
 30
0.0
 10
35.500618
 20
34.155537
 30
0.0
 10
34.720000
 20
34.215000
 30
0.0
 11
43.640000
 21
25.295000
 31
0.0
 11
43.334396
 21
27.609947
 31
0.0
 11
42.448213
 21
29.749383
 31
0.0
 11
41.027392
 21
31.602392
 31
0.0
 11
39.174383
 21
33.023213
 31
0.0
 11
37.034947
 21
33.909396
 31
0.0
 11
34.720000
 21
34.215000
 31
0.0
  0
LINE
  5
108
100
AcDbEntity
  8
0
 62
7
100
AcDbLine
 10
-43.640000
 20
25.295000
 30
0.0
 11
-43.640000
 21
10.000000
 31
0.0
  0
LINE
  5
109
100
AcDbEntity
  8
0
 62
7
100
AcDbLine
 10
-41.500000
 20
10.000000
 30
0.0
 11
-43.640000
 21
10.000000
 31
0.0
  0
SPLINE
  5
10a
100
AcDbEntity
  8
0
 62
7
100
AcDbSpline
 70
0
 71
3
 72
13
 73
9
 74
7
 40
0.000000
 40
0.000000
 40
0.000000
 40
0.000000
 40
2.335032
 40
4.650741
 40
6.985773
 40
9.320804
 40
11.636513
 40
13.971545
 40
13.971545
 40
13.971545
 40
13.971545
 10
-34.720000
 20
34.215000
 30
0.0
 10
-35.500618
 20
34.155537
 30
0.0
 10
-37.055394
 20
34.037103
 30
0.0
 10
-39.230457
 20
33.101171
 30
0.0
 10
-41.102241
 20
31.677241
 30
0.0
 10
-42.526171
 20
29.805457
 30
0.0
 10
-43.462103
 20
27.630394
 30
0.0
 10
-43.580537
 20
26.075618
 30
0.0
 10
-43.640000
 20
25.295000
 30
0.0
 11
-34.720000
 21
34.215000
 31
0.0
 11
-37.034947
 21
33.909396
 31
0.0
 11
-39.174383
 21
33.023213
 31
0.0
 11
-41.027392
 21
31.602392
 31
0.0
 11
-42.448213
 21
29.749383
 31
0.0
 11
-43.334396
 21
27.609947
 31
0.0
 11
-43.640000
 21
25.295000
 31
0.0
  0
LINE
  5
10b
100
AcDbEntity
  8
0
 62
7
100
AcDbLine
 10
-39.500000
 20
21.024998
 30
0.0
 11
-39.500000
 21
12.000000
 31
0.0
  0
SPLINE
  5
10c
100
AcDbEntity
  8
0
 62
7
100
AcDbSpline
 70
0
 71
3
 72
13
 73
9
 74
7
 40
0.000000
 40
0.000000
 40
0.000000
 40
0.000000
 40
0.523550
 40
1.042767
 40
1.566317
 40
2.089866
 40
2.609084
 40
3.132633
 40
3.132633
 40
3.132633
 40
3.132633
 10
-41.500000
 20
10.000000
 30
0.0
 10
-41.324973
 20
10.013332
 30
0.0
 10
-40.976369
 20
10.039887
 30
0.0
 10
-40.488687
 20
10.249737
 30
0.0
 10
-40.069004
 20
10.569004
 30
0.0
 10
-39.749738
 20
10.988687
 30
0.0
 10
-39.539887
 20
11.476369
 30
0.0
 10
-39.513333
 20
11.824973
 30
0.0
 10
-39.500000
 20
12.000000
 30
0.0
 11
-41.500000
 21
10.000000
 31
0.0
 11
-40.980954
 21
10.068521
 31
0.0
 11
-40.501259
 21
10.267217
 31
0.0
 11
-40.085786
 21
10.585786
 31
0.0
 11
-39.767217
 21
11.001259
 31
0.0
 11
-39.568521
 21
11.480953
 31
0.0
 11
-39.500000
 21
12.000000
 31
0.0
  0
LINE
  5
10d
100
AcDbEntity
  8
0
 62
7
100
AcDbLine
 10
-37.233330
 20
23.024997
 30
0.0
 11
-37.500000
 21
23.024997
 31
0.0
  0
SPLINE
  5
10e
100
AcDbEntity
  8
0
 62
7
100
AcDbSpline
 70
0
 71
3
 72
13
 73
9
 74
7
 40
0.000000
 40
0.000000
 40
0.000000
 40
0.000000
 40
0.523550
 40
1.042767
 40
1.566317
 40
2.089866
 40
2.609084
 40
3.132633
 40
3.132633
 40
3.132633
 40
3.132633
 10
-37.500000
 20
23.024997
 30
0.0
 10
-37.675027
 20
23.011665
 30
0.0
 10
-38.023631
 20
22.985110
 30
0.0
 10
-38.511313
 20
22.775260
 30
0.0
 10
-38.930996
 20
22.455993
 30
0.0
 10
-39.250262
 20
22.036311
 30
0.0
 10
-39.460113
 20
21.548629
 30
0.0
 10
-39.486668
 20
21.200024
 30
0.0
 10
-39.500000
 20
21.024998
 30
0.0
 11
-37.500000
 21
23.024997
 31
0.0
 11
-38.019047
 21
22.956476
 31
0.0
 11
-38.498741
 21
22.757781
 31
0.0
 11
-38.914214
 21
22.439211
 31
0.0
 11
-39.232783
 21
22.023738
 31
0.0
 11
-39.431479
 21
21.544044
 31
0.0
 11
-39.500000
 21
21.024998
 31
0.0
  0
LINE
  5
10f
100
AcDbEntity
  8
0
 62
7
100
AcDbLine
 10
-32.333330
 20
28.500000
 30
0.0
 11
-32.333330
 21
27.924998
 31
0.0
  0
SPLINE
  5
110
100
AcDbEntity
  8
0
 62
7
100
AcDbSpline
 70
0
 71
3
 72
10
 73
6
 74
4
 40
0.000000
 40
0.000000
 40
0.000000
 40
0.000000
 40
2.562010
 40
5.048031
 40
7.610041
 40
7.610041
 40
7.610041
 40
7.610041
 10
-37.233330
 20
23.024997
 30
0.0
 10
-36.374723
 20
23.159773
 30
0.0
 10
-34.682976
 20
23.425326
 30
0.0
 10
-32.733659
 20
25.374644
 30
0.0
 10
-32.468105
 20
27.066391
 30
0.0
 10
-32.333330
 20
27.924998
 30
0.0
 11
-37.233330
 21
23.024997
 31
0.0
 11
-34.760206
 21
23.693991
 31
0.0
 11
-33.002324
 21
25.451874
 31
0.0
 11
-32.333330
 21
27.924998
 31
0.0
  0
LINE
  5
111
100
AcDbEntity
  8
0
 62
7
100
AcDbLine
 10
30.333330
 20
30.500000
 30
0.0
 11
-30.333330
 21
30.500000
 31
0.0
  0
SPLINE
  5
112
100
AcDbEntity
  8
0
 62
7
100
AcDbSpline
 70
0
 71
3
 72
13
 73
9
 74
7
 40
0.000000
 40
0.000000
 40
0.000000
 40
0.000000
 40
0.523550
 40
1.042767
 40
1.566317
 40
2.089867
 40
2.609084
 40
3.132634
 40
3.132634
 40
3.132634
 40
3.132634
 10
-30.333330
 20
30.500000
 30
0.0
 10
-30.508356
 20
30.486667
 30
0.0
 10
-30.856961
 20
30.460113
 30
0.0
 10
-31.344643
 20
30.250262
 30
0.0
 10
-31.764326
 20
29.930996
 30
0.0
 10
-32.083593
 20
29.511313
 30
0.0
 10
-32.293443
 20
29.023631
 30
0.0
 10
-32.319998
 20
28.675026
 30
0.0
 10
-32.333330
 20
28.500000
 30
0.0
 11
-30.333330
 21
30.500000
 31
0.0
 11
-30.852376
 21
30.431479
 31
0.0
 11
-31.332071
 21
30.232783
 31
0.0
 11
-31.747544
 21
29.914214
 31
0.0
 11
-32.066113
 21
29.498741
 31
0.0
 11
-32.264809
 21
29.019046
 31
0.0
 11
-32.333330
 21
28.500000
 31
0.0
  0
LINE
  5
113
100
AcDbEntity
  8
0
 62
7
100
AcDbLine
 10
32.333330
 20
27.924998
 30
0.0
 11
32.333330
 21
28.500000
 31
0.0
  0
SPLINE
  5
114
100
AcDbEntity
  8
0
 62
7
100
AcDbSpline
 70
0
 71
3
 72
13
 73
9
 74
7
 40
0.000000
 40
0.000000
 40
0.000000
 40
0.000000
 40
0.523550
 40
1.042767
 40
1.566317
 40
2.089867
 40
2.609084
 40
3.132634
 40
3.132634
 40
3.132634
 40
3.132634
 10
32.333330
 20
28.500000
 30
0.0
 10
32.319998
 20
28.675026
 30
0.0
 10
32.293443
 20
29.023631
 30
0.0
 10
32.083593
 20
29.511313
 30
0.0
 10
31.764326
 20
29.930996
 30
0.0
 10
31.344643
 20
30.250262
 30
0.0
 10
30.856961
 20
30.460113
 30
0.0
 10
30.508356
 20
30.486667
 30
0.0
 10
30.333330
 20
30.500000
 30
0.0
 11
32.333330
 21
28.500000
 31
0.0
 11
32.264809
 21
29.019046
 31
0.0
 11
32.066113
 21
29.498741
 31
0.0
 11
31.747544
 21
29.914214
 31
0.0
 11
31.332071
 21
30.232783
 31
0.0
 11
30.852376
 21
30.431479
 31
0.0
 11
30.333330
 21
30.500000
 31
0.0
  0
LINE
  5
115
100
AcDbEntity
  8
0
 62
7
100
AcDbLine
 10
37.500000
 20
23.024997
 30
0.0
 11
37.233330
 21
23.024997
 31
0.0
  0
SPLINE
  5
116
100
AcDbEntity
  8
0
 62
7
100
AcDbSpline
 70
0
 71
3
 72
10
 73
6
 74
4
 40
0.000000
 40
0.000000
 40
0.000000
 40
0.000000
 40
2.562010
 40
5.048031
 40
7.610041
 40
7.610041
 40
7.610041
 40
7.610041
 10
32.333330
 20
27.924998
 30
0.0
 10
32.468105
 20
27.066391
 30
0.0
 10
32.733659
 20
25.374644
 30
0.0
 10
34.682976
 20
23.425326
 30
0.0
 10
36.374723
 20
23.159773
 30
0.0
 10
37.233330
 20
23.024997
 30
0.0
 11
32.333330
 21
27.924998
 31
0.0
 11
33.002324
 21
25.451874
 31
0.0
 11
34.760206
 21
23.693991
 31
0.0
 11
37.233330
 21
23.024997
 31
0.0
  0
LINE
  5
117
100
AcDbEntity
  8
0
 62
7
100
AcDbLine
 10
39.500000
 20
12.000000
 30
0.0
 11
39.500000
 21
21.024998
 31
0.0
  0
SPLINE
  5
118
100
AcDbEntity
  8
0
 62
7
100
AcDbSpline
 70
0
 71
3
 72
13
 73
9
 74
7
 40
0.000000
 40
0.000000
 40
0.000000
 40
0.000000
 40
0.523550
 40
1.042767
 40
1.566317
 40
2.089866
 40
2.609084
 40
3.132633
 40
3.132633
 40
3.132633
 40
3.132633
 10
39.500000
 20
21.024998
 30
0.0
 10
39.486668
 20
21.200024
 30
0.0
 10
39.460113
 20
21.548629
 30
0.0
 10
39.250262
 20
22.036311
 30
0.0
 10
38.930996
 20
22.455993
 30
0.0
 10
38.511313
 20
22.775260
 30
0.0
 10
38.023631
 20
22.985110
 30
0.0
 10
37.675027
 20
23.011665
 30
0.0
 10
37.500000
 20
23.024997
 30
0.0
 11
39.500000
 21
21.024998
 31
0.0
 11
39.431479
 21
21.544044
 31
0.0
 11
39.232783
 21
22.023738
 31
0.0
 11
38.914214
 21
22.439211
 31
0.0
 11
38.498741
 21
22.757781
 31
0.0
 11
38.019047
 21
22.956476
 31
0.0
 11
37.500000
 21
23.024997
 31
0.0
  0
SPLINE
  5
119
100
AcDbEntity
  8
0
 62
7
100
AcDbSpline
 70
0
 71
3
 72
13
 73
9
 74
7
 40
0.000000
 40
0.000000
 40
0.000000
 40
0.000000
 40
0.523550
 40
1.042767
 40
1.566317
 40
2.089866
 40
2.609084
 40
3.132633
 40
3.132633
 40
3.132633
 40
3.132633
 10
39.500000
 20
12.000000
 30
0.0
 10
39.513333
 20
11.824973
 30
0.0
 10
39.539887
 20
11.476369
 30
0.0
 10
39.749738
 20
10.988687
 30
0.0
 10
40.069004
 20
10.569004
 30
0.0
 10
40.488687
 20
10.249737
 30
0.0
 10
40.976369
 20
10.039887
 30
0.0
 10
41.324973
 20
10.013332
 30
0.0
 10
41.500000
 20
10.000000
 30
0.0
 11
39.500000
 21
12.000000
 31
0.0
 11
39.568521
 21
11.480953
 31
0.0
 11
39.767217
 21
11.001259
 31
0.0
 11
40.085786
 21
10.585786
 31
0.0
 11
40.501259
 21
10.267217
 31
0.0
 11
40.980954
 21
10.068521
 31
0.0
 11
41.500000
 21
10.000000
 31
0.0
  0
LINE
  5
11a
100
AcDbEntity
  8
0
 62
7
100
AcDbLine
 10
38.733330
 20
-27.924997
 30
0.0
 11
38.733330
 21
-27.924997
 31
0.0
  0
SPLINE
  5
11b
100
AcDbEntity
  8
0
 62
7
100
AcDbSpline
 70
0
 71
3
 72
25
 73
21
 74
19
 40
0.000000
 40
0.000000
 40
0.000000
 40
0.000000
 40
0.523591
 40
1.039684
 40
1.563274
 40
2.086865
 40
2.602958
 40
3.126549
 40
3.650140
 40
4.166233
 40
4.689823
 40
5.213414
 40
5.729507
 40
6.253098
 40
6.776689
 40
7.292782
 40
7.816372
 40
8.339963
 40
8.856056
 40
9.379647
 40
9.379647
 40
9.379647
 40
9.379647
 10
38.733330
 20
-27.924997
 30
0.0
 10
38.715474
 20
-27.749569
 30
0.0
 10
38.680018
 20
-27.401224
 30
0.0
 10
38.403970
 20
-26.940815
 30
0.0
 10
37.999665
 20
-26.598496
 30
0.0
 10
37.498942
 20
-26.416934
 30
0.0
 10
36.967603
 20
-26.416934
 30
0.0
 10
36.467580
 20
-26.598496
 30
0.0
 10
36.060485
 20
-26.940815
 30
0.0
 10
35.794800
 20
-27.401224
 30
0.0
 10
35.702373
 20
-27.924997
 30
0.0
 10
35.794800
 20
-28.448771
 30
0.0
 10
36.060485
 20
-28.909180
 30
0.0
 10
36.467580
 20
-29.251499
 30
0.0
 10
36.967603
 20
-29.433061
 30
0.0
 10
37.498942
 20
-29.433061
 30
0.0
 10
37.999665
 20
-29.251499
 30
0.0
 10
38.403970
 20
-28.909180
 30
0.0
 10
38.680018
 20
-28.448771
 30
0.0
 10
38.715474
 20
-28.100426
 30
0.0
 10
38.733330
 20
-27.924997
 30
0.0
 11
38.733330
 21
-27.924997
 31
0.0
 11
38.642193
 21
-27.409400
 31
0.0
 11
38.384275
 21
-26.962375
 31
0.0
 11
37.983518
 21
-26.625417
 31
0.0
 11
37.491377
 21
-26.446688
 31
0.0
 11
36.975283
 21
-26.446688
 31
0.0
 11
36.483142
 21
-26.625417
 31
0.0
 11
36.082385
 21
-26.962375
 31
0.0
 11
35.824468
 21
-27.409400
 31
0.0
 11
35.733330
 21
-27.924997
 31
0.0
 11
35.824468
 21
-28.440595
 31
0.0
 11
36.082385
 21
-28.887620
 31
0.0
 11
36.483142
 21
-29.224578
 31
0.0
 11
36.975283
 21
-29.403307
 31
0.0
 11
37.491377
 21
-29.403307
 31
0.0
 11
37.983518
 21
-29.224578
 31
0.0
 11
38.384275
 21
-28.887620
 31
0.0
 11
38.642193
 21
-28.440595
 31
0.0
 11
38.733330
 21
-27.924997
 31
0.0
  0
LINE
  5
11c
100
AcDbEntity
  8
0
 62
7
100
AcDbLine
 10
-35.733330
 20
-27.924997
 30
0.0
 11
-35.733330
 21
-27.924997
 31
0.0
  0
SPLINE
  5
11d
100
AcDbEntity
  8
0
 62
7
100
AcDbSpline
 70
0
 71
3
 72
25
 73
21
 74
19
 40
0.000000
 40
0.000000
 40
0.000000
 40
0.000000
 40
0.523591
 40
1.039684
 40
1.563274
 40
2.086865
 40
2.602958
 40
3.126549
 40
3.650140
 40
4.166233
 40
4.689823
 40
5.213414
 40
5.729507
 40
6.253098
 40
6.776689
 40
7.292782
 40
7.816372
 40
8.339963
 40
8.856056
 40
9.379647
 40
9.379647
 40
9.379647
 40
9.379647
 10
-35.733330
 20
-27.924997
 30
0.0
 10
-35.751186
 20
-27.749569
 30
0.0
 10
-35.786642
 20
-27.401224
 30
0.0
 10
-36.062690
 20
-26.940815
 30
0.0
 10
-36.466996
 20
-26.598496
 30
0.0
 10
-36.967718
 20
-26.416934
 30
0.0
 10
-37.499057
 20
-26.416934
 30
0.0
 10
-37.999080
 20
-26.598496
 30
0.0
 10
-38.406175
 20
-26.940815
 30
0.0
 10
-38.671860
 20
-27.401224
 30
0.0
 10
-38.764287
 20
-27.924997
 30
0.0
 10
-38.671860
 20
-28.448771
 30
0.0
 10
-38.406175
 20
-28.909180
 30
0.0
 10
-37.999080
 20
-29.251499
 30
0.0
 10
-37.499057
 20
-29.433061
 30
0.0
 10
-36.967718
 20
-29.433061
 30
0.0
 10
-36.466996
 20
-29.251499
 30
0.0
 10
-36.062690
 20
-28.909180
 30
0.0
 10
-35.786642
 20
-28.448771
 30
0.0
 10
-35.751186
 20
-28.100426
 30
0.0
 10
-35.733330
 20
-27.924997
 30
0.0
 11
-35.733330
 21
-27.924997
 31
0.0
 11
-35.824468
 21
-27.409400
 31
0.0
 11
-36.082385
 21
-26.962375
 31
0.0
 11
-36.483142
 21
-26.625417
 31
0.0
 11
-36.975283
 21
-26.446688
 31
0.0
 11
-37.491377
 21
-26.446688
 31
0.0
 11
-37.983518
 21
-26.625417
 31
0.0
 11
-38.384275
 21
-26.962375
 31
0.0
 11
-38.642193
 21
-27.409400
 31
0.0
 11
-38.733330
 21
-27.924997
 31
0.0
 11
-38.642193
 21
-28.440595
 31
0.0
 11
-38.384275
 21
-28.887620
 31
0.0
 11
-37.983518
 21
-29.224578
 31
0.0
 11
-37.491377
 21
-29.403307
 31
0.0
 11
-36.975283
 21
-29.403307
 31
0.0
 11
-36.483142
 21
-29.224578
 31
0.0
 11
-36.082385
 21
-28.887620
 31
0.0
 11
-35.824468
 21
-28.440595
 31
0.0
 11
-35.733330
 21
-27.924997
 31
0.0
  0
LINE
  5
11e
100
AcDbEntity
  8
0
 62
7
100
AcDbLine
 10
43.640000
 20
-25.295000
 30
0.0
 11
43.640000
 21
-10.000000
 31
0.0
  0
LINE
  5
11f
100
AcDbEntity
  8
0
 62
7
100
AcDbLine
 10
41.500000
 20
-10.000000
 30
0.0
 11
43.640000
 21
-10.000000
 31
0.0
  0
SPLINE
  5
120
100
AcDbEntity
  8
0
 62
7
100
AcDbSpline
 70
0
 71
3
 72
13
 73
9
 74
7
 40
0.000000
 40
0.000000
 40
0.000000
 40
0.000000
 40
2.335032
 40
4.650741
 40
6.985773
 40
9.320805
 40
11.636513
 40
13.971545
 40
13.971545
 40
13.971545
 40
13.971545
 10
34.720000
 20
-34.215000
 30
0.0
 10
35.500618
 20
-34.155537
 30
0.0
 10
37.055394
 20
-34.037103
 30
0.0
 10
39.230458
 20
-33.101171
 30
0.0
 10
41.102241
 20
-31.677241
 30
0.0
 10
42.526171
 20
-29.805457
 30
0.0
 10
43.462103
 20
-27.630394
 30
0.0
 10
43.580537
 20
-26.075618
 30
0.0
 10
43.640000
 20
-25.295000
 30
0.0
 11
34.720000
 21
-34.215000
 31
0.0
 11
37.034947
 21
-33.909396
 31
0.0
 11
39.174383
 21
-33.023213
 31
0.0
 11
41.027393
 21
-31.602392
 31
0.0
 11
42.448213
 21
-29.749383
 31
0.0
 11
43.334396
 21
-27.609947
 31
0.0
 11
43.640000
 21
-25.295000
 31
0.0
  0
LINE
  5
121
100
AcDbEntity
  8
0
 62
7
100
AcDbLine
 10
39.500000
 20
-21.024998
 30
0.0
 11
39.500000
 21
-12.000000
 31
0.0
  0
SPLINE
  5
122
100
AcDbEntity
  8
0
 62
7
100
AcDbSpline
 70
0
 71
3
 72
13
 73
9
 74
7
 40
0.000000
 40
0.000000
 40
0.000000
 40
0.000000
 40
0.523550
 40
1.042767
 40
1.566317
 40
2.089866
 40
2.609084
 40
3.132633
 40
3.132633
 40
3.132633
 40
3.132633
 10
41.500000
 20
-10.000000
 30
0.0
 10
41.324973
 20
-10.013333
 30
0.0
 10
40.976369
 20
-10.039887
 30
0.0
 10
40.488687
 20
-10.249738
 30
0.0
 10
40.069004
 20
-10.569004
 30
0.0
 10
39.749738
 20
-10.988687
 30
0.0
 10
39.539887
 20
-11.476369
 30
0.0
 10
39.513333
 20
-11.824974
 30
0.0
 10
39.500000
 20
-12.000000
 30
0.0
 11
41.500000
 21
-10.000000
 31
0.0
 11
40.980954
 21
-10.068521
 31
0.0
 11
40.501259
 21
-10.267217
 31
0.0
 11
40.085786
 21
-10.585787
 31
0.0
 11
39.767217
 21
-11.001259
 31
0.0
 11
39.568521
 21
-11.480954
 31
0.0
 11
39.500000
 21
-12.000000
 31
0.0
  0
LINE
  5
123
100
AcDbEntity
  8
0
 62
7
100
AcDbLine
 10
37.233330
 20
-23.024998
 30
0.0
 11
37.500000
 21
-23.024998
 31
0.0
  0
SPLINE
  5
124
100
AcDbEntity
  8
0
 62
7
100
AcDbSpline
 70
0
 71
3
 72
13
 73
9
 74
7
 40
0.000000
 40
0.000000
 40
0.000000
 40
0.000000
 40
0.523550
 40
1.042767
 40
1.566317
 40
2.089866
 40
2.609084
 40
3.132633
 40
3.132633
 40
3.132633
 40
3.132633
 10
37.500000
 20
-23.024998
 30
0.0
 10
37.675027
 20
-23.011665
 30
0.0
 10
38.023631
 20
-22.985110
 30
0.0
 10
38.511313
 20
-22.775260
 30
0.0
 10
38.930996
 20
-22.455993
 30
0.0
 10
39.250262
 20
-22.036311
 30
0.0
 10
39.460113
 20
-21.548629
 30
0.0
 10
39.486668
 20
-21.200024
 30
0.0
 10
39.500000
 20
-21.024998
 30
0.0
 11
37.500000
 21
-23.024998
 31
0.0
 11
38.019047
 21
-22.956477
 31
0.0
 11
38.498741
 21
-22.757781
 31
0.0
 11
38.914214
 21
-22.439211
 31
0.0
 11
39.232783
 21
-22.023738
 31
0.0
 11
39.431479
 21
-21.544044
 31
0.0
 11
39.500000
 21
-21.024998
 31
0.0
  0
LINE
  5
125
100
AcDbEntity
  8
0
 62
7
100
AcDbLine
 10
32.333330
 20
-28.500000
 30
0.0
 11
32.333330
 21
-27.924997
 31
0.0
  0
SPLINE
  5
126
100
AcDbEntity
  8
0
 62
7
100
AcDbSpline
 70
0
 71
3
 72
10
 73
6
 74
4
 40
0.000000
 40
0.000000
 40
0.000000
 40
0.000000
 40
2.562010
 40
5.048031
 40
7.610040
 40
7.610040
 40
7.610040
 40
7.610040
 10
37.233330
 20
-23.024998
 30
0.0
 10
36.374723
 20
-23.159773
 30
0.0
 10
34.682976
 20
-23.425326
 30
0.0
 10
32.733659
 20
-25.374644
 30
0.0
 10
32.468106
 20
-27.066391
 30
0.0
 10
32.333330
 20
-27.924997
 30
0.0
 11
37.233330
 21
-23.024998
 31
0.0
 11
34.760206
 21
-23.693991
 31
0.0
 11
33.002324
 21
-25.451874
 31
0.0
 11
32.333330
 21
-27.924997
 31
0.0
  0
LINE
  5
127
100
AcDbEntity
  8
0
 62
7
100
AcDbLine
 10
-30.333330
 20
-30.500000
 30
0.0
 11
30.333330
 21
-30.500000
 31
0.0
  0
SPLINE
  5
128
100
AcDbEntity
  8
0
 62
7
100
AcDbSpline
 70
0
 71
3
 72
13
 73
9
 74
7
 40
0.000000
 40
0.000000
 40
0.000000
 40
0.000000
 40
0.523550
 40
1.042767
 40
1.566317
 40
2.089867
 40
2.609084
 40
3.132634
 40
3.132634
 40
3.132634
 40
3.132634
 10
30.333330
 20
-30.500000
 30
0.0
 10
30.508356
 20
-30.486668
 30
0.0
 10
30.856961
 20
-30.460113
 30
0.0
 10
31.344643
 20
-30.250263
 30
0.0
 10
31.764326
 20
-29.930996
 30
0.0
 10
32.083593
 20
-29.511313
 30
0.0
 10
32.293443
 20
-29.023631
 30
0.0
 10
32.319998
 20
-28.675027
 30
0.0
 10
32.333330
 20
-28.500000
 30
0.0
 11
30.333330
 21
-30.500000
 31
0.0
 11
30.852376
 21
-30.431479
 31
0.0
 11
31.332071
 21
-30.232783
 31
0.0
 11
31.747544
 21
-29.914214
 31
0.0
 11
32.066113
 21
-29.498741
 31
0.0
 11
32.264809
 21
-29.019047
 31
0.0
 11
32.333330
 21
-28.500000
 31
0.0
  0
LINE
  5
129
100
AcDbEntity
  8
0
 62
7
100
AcDbLine
 10
-32.333330
 20
-27.924997
 30
0.0
 11
-32.333330
 21
-28.500000
 31
0.0
  0
SPLINE
  5
12a
100
AcDbEntity
  8
0
 62
7
100
AcDbSpline
 70
0
 71
3
 72
13
 73
9
 74
7
 40
0.000000
 40
0.000000
 40
0.000000
 40
0.000000
 40
0.523550
 40
1.042767
 40
1.566317
 40
2.089867
 40
2.609084
 40
3.132634
 40
3.132634
 40
3.132634
 40
3.132634
 10
-32.333330
 20
-28.500000
 30
0.0
 10
-32.319998
 20
-28.675027
 30
0.0
 10
-32.293443
 20
-29.023631
 30
0.0
 10
-32.083593
 20
-29.511313
 30
0.0
 10
-31.764326
 20
-29.930996
 30
0.0
 10
-31.344643
 20
-30.250263
 30
0.0
 10
-30.856961
 20
-30.460113
 30
0.0
 10
-30.508356
 20
-30.486668
 30
0.0
 10
-30.333330
 20
-30.500000
 30
0.0
 11
-32.333330
 21
-28.500000
 31
0.0
 11
-32.264809
 21
-29.019047
 31
0.0
 11
-32.066113
 21
-29.498741
 31
0.0
 11
-31.747544
 21
-29.914214
 31
0.0
 11
-31.332071
 21
-30.232783
 31
0.0
 11
-30.852376
 21
-30.431479
 31
0.0
 11
-30.333330
 21
-30.500000
 31
0.0
  0
LINE
  5
12b
100
AcDbEntity
  8
0
 62
7
100
AcDbLine
 10
-37.500000
 20
-23.024998
 30
0.0
 11
-37.233330
 21
-23.024998
 31
0.0
  0
SPLINE
  5
12c
100
AcDbEntity
  8
0
 62
7
100
AcDbSpline
 70
0
 71
3
 72
10
 73
6
 74
4
 40
0.000000
 40
0.000000
 40
0.000000
 40
0.000000
 40
2.562010
 40
5.048031
 40
7.610040
 40
7.610040
 40
7.610040
 40
7.610040
 10
-32.333330
 20
-27.924997
 30
0.0
 10
-32.468106
 20
-27.066391
 30
0.0
 10
-32.733659
 20
-25.374644
 30
0.0
 10
-34.682976
 20
-23.425326
 30
0.0
 10
-36.374723
 20
-23.159773
 30
0.0
 10
-37.233330
 20
-23.024998
 30
0.0
 11
-32.333330
 21
-27.924997
 31
0.0
 11
-33.002324
 21
-25.451874
 31
0.0
 11
-34.760206
 21
-23.693991
 31
0.0
 11
-37.233330
 21
-23.024998
 31
0.0
  0
LINE
  5
12d
100
AcDbEntity
  8
0
 62
7
100
AcDbLine
 10
-39.500000
 20
-12.000000
 30
0.0
 11
-39.500000
 21
-21.024998
 31
0.0
  0
SPLINE
  5
12e
100
AcDbEntity
  8
0
 62
7
100
AcDbSpline
 70
0
 71
3
 72
13
 73
9
 74
7
 40
0.000000
 40
0.000000
 40
0.000000
 40
0.000000
 40
0.523550
 40
1.042767
 40
1.566317
 40
2.089866
 40
2.609084
 40
3.132633
 40
3.132633
 40
3.132633
 40
3.132633
 10
-39.500000
 20
-21.024998
 30
0.0
 10
-39.486668
 20
-21.200024
 30
0.0
 10
-39.460113
 20
-21.548629
 30
0.0
 10
-39.250262
 20
-22.036311
 30
0.0
 10
-38.930996
 20
-22.455993
 30
0.0
 10
-38.511313
 20
-22.775260
 30
0.0
 10
-38.023631
 20
-22.985110
 30
0.0
 10
-37.675027
 20
-23.011665
 30
0.0
 10
-37.500000
 20
-23.024998
 30
0.0
 11
-39.500000
 21
-21.024998
 31
0.0
 11
-39.431479
 21
-21.544044
 31
0.0
 11
-39.232783
 21
-22.023738
 31
0.0
 11
-38.914214
 21
-22.439211
 31
0.0
 11
-38.498741
 21
-22.757781
 31
0.0
 11
-38.019047
 21
-22.956477
 31
0.0
 11
-37.500000
 21
-23.024998
 31
0.0
  0
LINE
  5
12f
100
AcDbEntity
  8
0
 62
7
100
AcDbLine
 10
-43.640000
 20
-10.000000
 30
0.0
 11
-41.500000
 21
-10.000000
 31
0.0
  0
LINE
  5
130
100
AcDbEntity
  8
0
 62
7
100
AcDbLine
 10
-43.640000
 20
-10.000000
 30
0.0
 11
-43.640000
 21
-25.295000
 31
0.0
  0
SPLINE
  5
131
100
AcDbEntity
  8
0
 62
7
100
AcDbSpline
 70
0
 71
3
 72
13
 73
9
 74
7
 40
0.000000
 40
0.000000
 40
0.000000
 40
0.000000
 40
0.523550
 40
1.042767
 40
1.566317
 40
2.089866
 40
2.609084
 40
3.132633
 40
3.132633
 40
3.132633
 40
3.132633
 10
-39.500000
 20
-12.000000
 30
0.0
 10
-39.513333
 20
-11.824974
 30
0.0
 10
-39.539887
 20
-11.476369
 30
0.0
 10
-39.749738
 20
-10.988687
 30
0.0
 10
-40.069004
 20
-10.569004
 30
0.0
 10
-40.488687
 20
-10.249738
 30
0.0
 10
-40.976369
 20
-10.039887
 30
0.0
 10
-41.324973
 20
-10.013333
 30
0.0
 10
-41.500000
 20
-10.000000
 30
0.0
 11
-39.500000
 21
-12.000000
 31
0.0
 11
-39.568521
 21
-11.480954
 31
0.0
 11
-39.767217
 21
-11.001259
 31
0.0
 11
-40.085786
 21
-10.585787
 31
0.0
 11
-40.501259
 21
-10.267217
 31
0.0
 11
-40.980954
 21
-10.068521
 31
0.0
 11
-41.500000
 21
-10.000000
 31
0.0
  0
LINE
  5
132
100
AcDbEntity
  8
0
 62
7
100
AcDbLine
 10
-34.720000
 20
-34.215000
 30
0.0
 11
34.720000
 21
-34.215000
 31
0.0
  0
SPLINE
  5
133
100
AcDbEntity
  8
0
 62
7
100
AcDbSpline
 70
0
 71
3
 72
13
 73
9
 74
7
 40
0.000000
 40
0.000000
 40
0.000000
 40
0.000000
 40
2.335032
 40
4.650741
 40
6.985773
 40
9.320805
 40
11.636513
 40
13.971545
 40
13.971545
 40
13.971545
 40
13.971545
 10
-43.640000
 20
-25.295000
 30
0.0
 10
-43.580537
 20
-26.075618
 30
0.0
 10
-43.462103
 20
-27.630394
 30
0.0
 10
-42.526171
 20
-29.805457
 30
0.0
 10
-41.102241
 20
-31.677241
 30
0.0
 10
-39.230458
 20
-33.101171
 30
0.0
 10
-37.055394
 20
-34.037103
 30
0.0
 10
-35.500618
 20
-34.155537
 30
0.0
 10
-34.720000
 20
-34.215000
 30
0.0
 11
-43.640000
 21
-25.295000
 31
0.0
 11
-43.334396
 21
-27.609947
 31
0.0
 11
-42.448213
 21
-29.749383
 31
0.0
 11
-41.027393
 21
-31.602392
 31
0.0
 11
-39.174383
 21
-33.023213
 31
0.0
 11
-37.034947
 21
-33.909396
 31
0.0
 11
-34.720000
 21
-34.215000
 31
0.0
  0
ENDSEC
  0
SECTION
  2
OBJECTS
  0
DICTIONARY
  5
C
330
0
100
AcDbDictionary
  3
ACAD_GROUP
350
D
  3
ACAD_MLINESTYLE
350
17
  0
DICTIONARY
  5
D
330
C
100
AcDbDictionary
  0
DICTIONARY
  5
1A
330
C
100
AcDbDictionary
  0
DICTIONARY
  5
17
330
C
100
AcDbDictionary
  3
STANDARD
350
18
  0
DICTIONARY
  5
19
330
C
100
AcDbDictionary
  0
ENDSEC
  0
EOF
