  0
SECTION
  2
HEADER
  9
$ACADVER
  1
AC1014
  9
$HANDSEED
  5
FFFF
  9
$MEASUREMENT
 70
     1
  0
ENDSEC
  0
SECTION
  2
TABLES
  0
TABLE
  2
VPORT
  5
8
330
0
100
AcDbSymbolTable
 70
     4
  0
VPORT
  5
2E
330
8
100
AcDbSymbolTableRecord
100
AcDbViewportTableRecord
  2
*ACTIVE
 70
     0
 10
0.0
 20
0.0
 11
1.0
 21
1.0
 12
210.0
 22
148.5
 13
0.0
 23
0.0
 14
10.0
 24
10.0
 15
10.0
 25
10.0
 16
0.0
 26
0.0
 36
1.0
 17
0.0
 27
0.0
 37
0.0
 40
341.0
 41
1.24
 42
50.0
 43
0.0
 44
0.0
 50
0.0
 51
0.0
 71
     0
 72
   100
 73
     1
 74
     3
 75
     0
 76
     0
 77
     0
 78
     0
  0
ENDTAB
  0
TABLE
  2
LTYPE
  5
5
330
0
100
AcDbSymbolTable
 70
     1
  0
LTYPE
  5
14
330
5
100
AcDbSymbolTableRecord
100
AcDbLinetypeTableRecord
  2
BYBLOCK
 70
     0
  3

 72
    65
 73
     0
 40
0.0
  0
LTYPE
  5
15
330
5
100
AcDbSymbolTableRecord
100
AcDbLinetypeTableRecord
  2
BYLAYER
 70
     0
  3

 72
    65
 73
     0
 40
0.0
  0
LTYPE
  5
16
330
5
100
AcDbSymbolTableRecord
100
AcDbLinetypeTableRecord
  2
CONTINUOUS
 70
     0
  3
Solid line
 72
    65
 73
     0
 40
0.0
  0
ENDTAB
  0
TABLE
  2
LAYER
  5
2
100
AcDbSymbolTable
 70
1
  0
LAYER
  5
50
100
AcDbSymbolTableRecord
100
AcDbLayerTableRecord
  2
0
 70
0
  6
CONTINUOUS
  0
ENDTAB
  0
TABLE
  2
STYLE
  5
3
330
0
100
AcDbSymbolTable
 70
     1
  0
STYLE
  5
11
330
3
100
AcDbSymbolTableRecord
100
AcDbTextStyleTableRecord
  2
STANDARD
 70
     0
 40
0.0
 41
1.0
 50
0.0
 71
     0
 42
2.5
  3
txt
  4

  0
ENDTAB
  0
TABLE
  2
VIEW
  5
6
330
0
100
AcDbSymbolTable
 70
     0
  0
ENDTAB
  0
TABLE
  2
UCS
  5
7
330
0
100
AcDbSymbolTable
 70
     0
  0
ENDTAB
  0
TABLE
  2
APPID
  5
9
330
0
100
AcDbSymbolTable
 70
     2
  0
APPID
  5
12
330
9
100
AcDbSymbolTableRecord
100
AcDbRegAppTableRecord
  2
ACAD
 70
     0
  0
ENDTAB
  0
TABLE
  2
DIMSTYLE
  5
A
330
0
100
AcDbSymbolTable
 70
     1
  0
DIMSTYLE
105
27
330
A
100
AcDbSymbolTableRecord
100
AcDbDimStyleTableRecord
  2
ISO-25
 70
     0
  3

  4

  5

  6

  7

 40
1.0
 41
2.5
 42
0.625
 43
3.75
 44
1.25
 45
0.0
 46
0.0
 47
0.0
 48
0.0
140
2.5
141
2.5
142
0.0
143
0.03937007874016
144
1.0
145
0.0
146
1.0
147
0.625
 71
     0
 72
     0
 73
     0
 74
     0
 75
     0
 76
     0
 77
     1
 78
     8
170
     0
171
     3
172
     1
173
     0
174
     0
175
     0
176
     0
177
     0
178
     0
270
     2
271
     2
272
     2
273
     2
274
     3
340
11
275
     0
280
     0
281
     0
282
     0
283
     0
284
     8
285
     0
286
     0
287
     3
288
     0
  0
ENDTAB
  0
TABLE
  2
BLOCK_RECORD
  5
1
330
0
100
AcDbSymbolTable
 70
     1
  0
BLOCK_RECORD
  5
1F
330
1
100
AcDbSymbolTableRecord
100
AcDbBlockTableRecord
  2
*MODEL_SPACE
  0
BLOCK_RECORD
  5
1B
330
1
100
AcDbSymbolTableRecord
100
AcDbBlockTableRecord
  2
*PAPER_SPACE
  0
ENDTAB
  0
ENDSEC
  0
SECTION
  2
BLOCKS
  0
BLOCK
  5
20
330
1F
100
AcDbEntity
  8
0
100
AcDbBlockBegin
  2
*MODEL_SPACE
 70
     0
 10
0.0
 20
0.0
 30
0.0
  3
*MODEL_SPACE
  1

  0
ENDBLK
  5
21
330
1F
100
AcDbEntity
  8
0
100
AcDbBlockEnd
  0
BLOCK
  5
1C
330
1B
100
AcDbEntity
 67
     1
  8
0
100
AcDbBlockBegin
  2
*PAPER_SPACE
  1

  0
ENDBLK
  5
1D
330
1B
100
AcDbEntity
 67
     1
  8
0
100
AcDbBlockEnd
  0
ENDSEC
  0
SECTION
  2
ENTITIES
  0
LINE
  5
100
100
AcDbEntity
  8
0
 62
7
100
AcDbLine
 10
57.980000
 20
31.455000
 30
0.0
 11
57.980000
 21
31.455000
 31
0.0
  0
SPLINE
  5
101
100
AcDbEntity
  8
0
 62
7
100
AcDbSpline
 70
0
 71
3
 72
25
 73
21
 74
19
 40
0.000000
 40
0.000000
 40
0.000000
 40
0.000000
 40
0.575791
 40
1.143341
 40
1.719132
 40
2.294923
 40
2.862473
 40
3.438264
 40
4.014055
 40
4.581605
 40
5.157396
 40
5.733187
 40
6.300737
 40
6.876528
 40
7.452319
 40
8.019869
 40
8.595660
 40
9.171451
 40
9.739001
 40
10.314792
 40
10.314792
 40
10.314792
 40
10.314792
 10
57.980000
 20
31.455000
 30
0.0
 10
57.960286
 20
31.647909
 30
0.0
 10
57.921140
 20
32.030967
 30
0.0
 10
57.617430
 20
32.537183
 30
0.0
 10
57.172747
 20
32.913542
 30
0.0
 10
56.622091
 20
33.113150
 30
0.0
 10
56.037783
 20
33.113150
 30
0.0
 10
55.487898
 20
32.913542
 30
0.0
 10
55.040136
 20
32.537183
 30
0.0
 10
54.747867
 20
32.030967
 30
0.0
 10
54.645822
 20
31.455000
 30
0.0
 10
54.747867
 20
30.879033
 30
0.0
 10
55.040136
 20
30.372817
 30
0.0
 10
55.487898
 20
29.996458
 30
0.0
 10
56.037783
 20
29.796850
 30
0.0
 10
56.622091
 20
29.796850
 30
0.0
 10
57.172747
 20
29.996458
 30
0.0
 10
57.617430
 20
30.372817
 30
0.0
 10
57.921140
 20
30.879033
 30
0.0
 10
57.960286
 20
31.262091
 30
0.0
 10
57.980000
 20
31.455000
 30
0.0
 11
57.980000
 21
31.455000
 31
0.0
 11
57.879558
 21
32.021963
 31
0.0
 11
57.595783
 21
32.513476
 31
0.0
 11
57.155000
 21
32.883942
 31
0.0
 11
56.613775
 21
33.080438
 31
0.0
 11
56.046225
 21
33.080438
 31
0.0
 11
55.505000
 21
32.883942
 31
0.0
 11
55.064217
 21
32.513476
 31
0.0
 11
54.780442
 21
32.021963
 31
0.0
 11
54.680000
 21
31.455000
 31
0.0
 11
54.780442
 21
30.888038
 31
0.0
 11
55.064217
 21
30.396525
 31
0.0
 11
55.505000
 21
30.026058
 31
0.0
 11
56.046225
 21
29.829562
 31
0.0
 11
56.613775
 21
29.829562
 31
0.0
 11
57.155000
 21
30.026058
 31
0.0
 11
57.595783
 21
30.396525
 31
0.0
 11
57.879558
 21
30.888038
 31
0.0
 11
57.980000
 21
31.455000
 31
0.0
  0
LINE
  5
102
100
AcDbEntity
  8
0
 62
7
100
AcDbLine
 10
-54.680000
 20
31.455000
 30
0.0
 11
-54.680000
 21
31.455000
 31
0.0
  0
SPLINE
  5
103
100
AcDbEntity
  8
0
 62
7
100
AcDbSpline
 70
0
 71
3
 72
25
 73
21
 74
19
 40
0.000000
 40
0.000000
 40
0.000000
 40
0.000000
 40
0.575791
 40
1.143341
 40
1.719132
 40
2.294923
 40
2.862473
 40
3.438264
 40
4.014055
 40
4.581605
 40
5.157396
 40
5.733187
 40
6.300737
 40
6.876528
 40
7.452319
 40
8.019869
 40
8.595660
 40
9.171451
 40
9.739001
 40
10.314792
 40
10.314792
 40
10.314792
 40
10.314792
 10
-54.680000
 20
31.455000
 30
0.0
 10
-54.699714
 20
31.647909
 30
0.0
 10
-54.738860
 20
32.030967
 30
0.0
 10
-55.042570
 20
32.537183
 30
0.0
 10
-55.487253
 20
32.913542
 30
0.0
 10
-56.037909
 20
33.113150
 30
0.0
 10
-56.622217
 20
33.113150
 30
0.0
 10
-57.172102
 20
32.913542
 30
0.0
 10
-57.619864
 20
32.537183
 30
0.0
 10
-57.912133
 20
32.030967
 30
0.0
 10
-58.014178
 20
31.455000
 30
0.0
 10
-57.912133
 20
30.879033
 30
0.0
 10
-57.619864
 20
30.372817
 30
0.0
 10
-57.172102
 20
29.996458
 30
0.0
 10
-56.622217
 20
29.796850
 30
0.0
 10
-56.037909
 20
29.796850
 30
0.0
 10
-55.487253
 20
29.996458
 30
0.0
 10
-55.042570
 20
30.372817
 30
0.0
 10
-54.738860
 20
30.879033
 30
0.0
 10
-54.699714
 20
31.262091
 30
0.0
 10
-54.680000
 20
31.455000
 30
0.0
 11
-54.680000
 21
31.455000
 31
0.0
 11
-54.780442
 21
32.021963
 31
0.0
 11
-55.064217
 21
32.513476
 31
0.0
 11
-55.505000
 21
32.883942
 31
0.0
 11
-56.046225
 21
33.080438
 31
0.0
 11
-56.613775
 21
33.080438
 31
0.0
 11
-57.155000
 21
32.883942
 31
0.0
 11
-57.595783
 21
32.513476
 31
0.0
 11
-57.879558
 21
32.021963
 31
0.0
 11
-57.980000
 21
31.455000
 31
0.0
 11
-57.879558
 21
30.888038
 31
0.0
 11
-57.595783
 21
30.396525
 31
0.0
 11
-57.155000
 21
30.026058
 31
0.0
 11
-56.613775
 21
29.829562
 31
0.0
 11
-56.046225
 21
29.829562
 31
0.0
 11
-55.505000
 21
30.026058
 31
0.0
 11
-55.064217
 21
30.396525
 31
0.0
 11
-54.780442
 21
30.888038
 31
0.0
 11
-54.680000
 21
31.455000
 31
0.0
  0
LINE
  5
104
100
AcDbEntity
  8
0
 62
7
100
AcDbLine
 10
64.000000
 20
10.267949
 30
0.0
 11
64.000000
 21
27.500000
 31
0.0
  0
SPLINE
  5
105
100
AcDbEntity
  8
0
 62
7
100
AcDbSpline
 70
0
 71
3
 72
10
 73
6
 74
4
 40
0.000000
 40
0.000000
 40
0.000000
 40
0.000000
 40
0.349059
 40
0.696810
 40
1.045869
 40
1.045869
 40
1.045869
 40
1.045869
 10
63.000000
 20
10.000000
 30
0.0
 10
63.116388
 20
10.006091
 30
0.0
 10
63.348727
 20
10.018251
 30
0.0
 10
63.688868
 20
10.109392
 30
0.0
 10
63.896160
 20
10.215030
 30
0.0
 10
64.000000
 20
10.267949
 30
0.0
 11
63.000000
 21
10.000000
 31
0.0
 11
63.347728
 21
10.030460
 31
0.0
 11
63.683629
 21
10.120464
 31
0.0
 11
64.000000
 21
10.267949
 31
0.0
  0
LINE
  5
106
100
AcDbEntity
  8
0
 62
7
100
AcDbLine
 10
52.500000
 20
39.000000
 30
0.0
 11
-52.500000
 21
39.000000
 31
0.0
  0
SPLINE
  5
107
100
AcDbEntity
  8
0
 62
7
100
AcDbSpline
 70
0
 71
3
 72
13
 73
9
 74
7
 40
0.000000
 40
0.000000
 40
0.000000
 40
0.000000
 40
3.010411
 40
5.995910
 40
9.006321
 40
12.016732
 40
15.002231
 40
18.012643
 40
18.012643
 40
18.012643
 40
18.012643
 10
64.000000
 20
27.500000
 30
0.0
 10
63.923338
 20
28.506402
 30
0.0
 10
63.770649
 20
30.510878
 30
0.0
 10
62.564009
 20
33.315052
 30
0.0
 10
60.728226
 20
35.728226
 30
0.0
 10
58.315052
 20
37.564009
 30
0.0
 10
55.510878
 20
38.770649
 30
0.0
 10
53.506402
 20
38.923338
 30
0.0
 10
52.500000
 20
39.000000
 30
0.0
 11
64.000000
 21
27.500000
 31
0.0
 11
63.606004
 21
30.484517
 31
0.0
 11
62.463503
 21
33.242759
 31
0.0
 11
60.631728
 21
35.631728
 31
0.0
 11
58.242759
 21
37.463503
 31
0.0
 11
55.484517
 21
38.606004
 31
0.0
 11
52.500000
 21
39.000000
 31
0.0
  0
LINE
  5
108
100
AcDbEntity
  8
0
 62
7
100
AcDbLine
 10
-64.000000
 20
27.500000
 30
0.0
 11
-64.000000
 21
10.267949
 31
0.0
  0
SPLINE
  5
109
100
AcDbEntity
  8
0
 62
7
100
AcDbSpline
 70
0
 71
3
 72
13
 73
9
 74
7
 40
0.000000
 40
0.000000
 40
0.000000
 40
0.000000
 40
3.010411
 40
5.995910
 40
9.006321
 40
12.016732
 40
15.002231
 40
18.012643
 40
18.012643
 40
18.012643
 40
18.012643
 10
-52.500000
 20
39.000000
 30
0.0
 10
-53.506402
 20
38.923338
 30
0.0
 10
-55.510878
 20
38.770649
 30
0.0
 10
-58.315052
 20
37.564009
 30
0.0
 10
-60.728226
 20
35.728226
 30
0.0
 10
-62.564009
 20
33.315052
 30
0.0
 10
-63.770649
 20
30.510878
 30
0.0
 10
-63.923338
 20
28.506402
 30
0.0
 10
-64.000000
 20
27.500000
 30
0.0
 11
-52.500000
 21
39.000000
 31
0.0
 11
-55.484517
 21
38.606004
 31
0.0
 11
-58.242759
 21
37.463503
 31
0.0
 11
-60.631728
 21
35.631728
 31
0.0
 11
-62.463503
 21
33.242759
 31
0.0
 11
-63.606004
 21
30.484517
 31
0.0
 11
-64.000000
 21
27.500000
 31
0.0
  0
LINE
  5
10a
100
AcDbEntity
  8
0
 62
7
100
AcDbLine
 10
-62.635000
 20
10.000000
 30
0.0
 11
-63.000000
 21
10.000000
 31
0.0
  0
SPLINE
  5
10b
100
AcDbEntity
  8
0
 62
7
100
AcDbSpline
 70
0
 71
3
 72
10
 73
6
 74
4
 40
0.000000
 40
0.000000
 40
0.000000
 40
0.000000
 40
0.349059
 40
0.696810
 40
1.045869
 40
1.045869
 40
1.045869
 40
1.045869
 10
-64.000000
 20
10.267949
 30
0.0
 10
-63.896160
 20
10.215030
 30
0.0
 10
-63.688868
 20
10.109392
 30
0.0
 10
-63.348727
 20
10.018251
 30
0.0
 10
-63.116388
 20
10.006091
 30
0.0
 10
-63.000000
 20
10.000000
 30
0.0
 11
-64.000000
 21
10.267949
 31
0.0
 11
-63.683629
 21
10.120464
 31
0.0
 11
-63.347728
 21
10.030460
 31
0.0
 11
-63.000000
 21
10.000000
 31
0.0
  0
LINE
  5
10c
100
AcDbEntity
  8
0
 62
7
100
AcDbLine
 10
-60.635000
 20
24.455000
 30
0.0
 11
-60.635000
 21
12.000000
 31
0.0
  0
SPLINE
  5
10d
100
AcDbEntity
  8
0
 62
7
100
AcDbSpline
 70
0
 71
3
 72
13
 73
9
 74
7
 40
0.000000
 40
0.000000
 40
0.000000
 40
0.000000
 40
0.523550
 40
1.042767
 40
1.566317
 40
2.089866
 40
2.609084
 40
3.132633
 40
3.132633
 40
3.132633
 40
3.132633
 10
-62.635000
 20
10.000000
 30
0.0
 10
-62.459973
 20
10.013332
 30
0.0
 10
-62.111369
 20
10.039887
 30
0.0
 10
-61.623687
 20
10.249737
 30
0.0
 10
-61.204004
 20
10.569004
 30
0.0
 10
-60.884737
 20
10.988687
 30
0.0
 10
-60.674887
 20
11.476369
 30
0.0
 10
-60.648332
 20
11.824973
 30
0.0
 10
-60.635000
 20
12.000000
 30
0.0
 11
-62.635000
 21
10.000000
 31
0.0
 11
-62.115953
 21
10.068521
 31
0.0
 11
-61.636259
 21
10.267217
 31
0.0
 11
-61.220786
 21
10.585786
 31
0.0
 11
-60.902217
 21
11.001259
 31
0.0
 11
-60.703521
 21
11.480953
 31
0.0
 11
-60.635000
 21
12.000000
 31
0.0
  0
LINE
  5
10e
100
AcDbEntity
  8
0
 62
7
100
AcDbLine
 10
-56.330000
 20
26.455000
 30
0.0
 11
-58.635000
 21
26.455000
 31
0.0
  0
SPLINE
  5
10f
100
AcDbEntity
  8
0
 62
7
100
AcDbSpline
 70
0
 71
3
 72
13
 73
9
 74
7
 40
0.000000
 40
0.000000
 40
0.000000
 40
0.000000
 40
0.523550
 40
1.042767
 40
1.566317
 40
2.089866
 40
2.609084
 40
3.132633
 40
3.132633
 40
3.132633
 40
3.132633
 10
-58.635000
 20
26.455000
 30
0.0
 10
-58.810026
 20
26.441667
 30
0.0
 10
-59.158631
 20
26.415113
 30
0.0
 10
-59.646313
 20
26.205262
 30
0.0
 10
-60.065996
 20
25.885996
 30
0.0
 10
-60.385262
 20
25.466313
 30
0.0
 10
-60.595113
 20
24.978631
 30
0.0
 10
-60.621667
 20
24.630026
 30
0.0
 10
-60.635000
 20
24.455000
 30
0.0
 11
-58.635000
 21
26.455000
 31
0.0
 11
-59.154046
 21
26.386479
 31
0.0
 11
-59.633741
 21
26.187783
 31
0.0
 11
-60.049214
 21
25.869214
 31
0.0
 11
-60.367783
 21
25.453741
 31
0.0
 11
-60.566479
 21
24.974046
 31
0.0
 11
-60.635000
 21
24.455000
 31
0.0
  0
LINE
  5
110
100
AcDbEntity
  8
0
 62
7
100
AcDbLine
 10
-51.330000
 20
33.760000
 30
0.0
 11
-51.330000
 21
31.455000
 31
0.0
  0
SPLINE
  5
111
100
AcDbEntity
  8
0
 62
7
100
AcDbSpline
 70
0
 71
3
 72
13
 73
9
 74
7
 40
0.000000
 40
0.000000
 40
0.000000
 40
0.000000
 40
1.308874
 40
2.606917
 40
3.915792
 40
5.224666
 40
6.522709
 40
7.831584
 40
7.831584
 40
7.831584
 40
7.831584
 10
-56.330000
 20
26.455000
 30
0.0
 10
-55.892434
 20
26.488331
 30
0.0
 10
-55.020922
 20
26.554718
 30
0.0
 10
-53.801717
 20
27.079344
 30
0.0
 10
-52.752510
 20
27.877510
 30
0.0
 10
-51.954344
 20
28.926717
 30
0.0
 10
-51.429718
 20
30.145922
 30
0.0
 10
-51.363331
 20
31.017434
 30
0.0
 10
-51.330000
 20
31.455000
 30
0.0
 11
-56.330000
 21
26.455000
 31
0.0
 11
-55.032384
 21
26.626303
 31
0.0
 11
-53.833148
 21
27.123042
 31
0.0
 11
-52.794466
 21
27.919466
 31
0.0
 11
-51.998042
 21
28.958149
 31
0.0
 11
-51.501303
 21
30.157384
 31
0.0
 11
-51.330000
 21
31.455000
 31
0.0
  0
LINE
  5
112
100
AcDbEntity
  8
0
 62
7
100
AcDbLine
 10
49.330000
 20
35.760000
 30
0.0
 11
-49.330000
 21
35.760000
 31
0.0
  0
SPLINE
  5
113
100
AcDbEntity
  8
0
 62
7
100
AcDbSpline
 70
0
 71
3
 72
13
 73
9
 74
7
 40
0.000000
 40
0.000000
 40
0.000000
 40
0.000000
 40
0.523550
 40
1.042767
 40
1.566317
 40
2.089866
 40
2.609084
 40
3.132633
 40
3.132633
 40
3.132633
 40
3.132633
 10
-49.330000
 20
35.760000
 30
0.0
 10
-49.505027
 20
35.746668
 30
0.0
 10
-49.853631
 20
35.720113
 30
0.0
 10
-50.341313
 20
35.510263
 30
0.0
 10
-50.760996
 20
35.190996
 30
0.0
 10
-51.080263
 20
34.771313
 30
0.0
 10
-51.290113
 20
34.283631
 30
0.0
 10
-51.316668
 20
33.935027
 30
0.0
 10
-51.330000
 20
33.760000
 30
0.0
 11
-49.330000
 21
35.760000
 31
0.0
 11
-49.849047
 21
35.691479
 31
0.0
 11
-50.328741
 21
35.492783
 31
0.0
 11
-50.744214
 21
35.174214
 31
0.0
 11
-51.062783
 21
34.758741
 31
0.0
 11
-51.261479
 21
34.279047
 31
0.0
 11
-51.330000
 21
33.760000
 31
0.0
  0
LINE
  5
114
100
AcDbEntity
  8
0
 62
7
100
AcDbLine
 10
51.330000
 20
31.455000
 30
0.0
 11
51.330000
 21
33.760000
 31
0.0
  0
SPLINE
  5
115
100
AcDbEntity
  8
0
 62
7
100
AcDbSpline
 70
0
 71
3
 72
13
 73
9
 74
7
 40
0.000000
 40
0.000000
 40
0.000000
 40
0.000000
 40
0.523550
 40
1.042767
 40
1.566317
 40
2.089866
 40
2.609084
 40
3.132633
 40
3.132633
 40
3.132633
 40
3.132633
 10
51.330000
 20
33.760000
 30
0.0
 10
51.316668
 20
33.935027
 30
0.0
 10
51.290113
 20
34.283631
 30
0.0
 10
51.080263
 20
34.771313
 30
0.0
 10
50.760996
 20
35.190996
 30
0.0
 10
50.341313
 20
35.510263
 30
0.0
 10
49.853631
 20
35.720113
 30
0.0
 10
49.505027
 20
35.746668
 30
0.0
 10
49.330000
 20
35.760000
 30
0.0
 11
51.330000
 21
33.760000
 31
0.0
 11
51.261479
 21
34.279047
 31
0.0
 11
51.062783
 21
34.758741
 31
0.0
 11
50.744214
 21
35.174214
 31
0.0
 11
50.328741
 21
35.492783
 31
0.0
 11
49.849047
 21
35.691479
 31
0.0
 11
49.330000
 21
35.760000
 31
0.0
  0
LINE
  5
116
100
AcDbEntity
  8
0
 62
7
100
AcDbLine
 10
58.635000
 20
26.455000
 30
0.0
 11
56.330000
 21
26.455000
 31
0.0
  0
SPLINE
  5
117
100
AcDbEntity
  8
0
 62
7
100
AcDbSpline
 70
0
 71
3
 72
13
 73
9
 74
7
 40
0.000000
 40
0.000000
 40
0.000000
 40
0.000000
 40
1.308874
 40
2.606917
 40
3.915792
 40
5.224666
 40
6.522709
 40
7.831584
 40
7.831584
 40
7.831584
 40
7.831584
 10
51.330000
 20
31.455000
 30
0.0
 10
51.363331
 20
31.017434
 30
0.0
 10
51.429718
 20
30.145922
 30
0.0
 10
51.954344
 20
28.926717
 30
0.0
 10
52.752510
 20
27.877510
 30
0.0
 10
53.801717
 20
27.079344
 30
0.0
 10
55.020922
 20
26.554718
 30
0.0
 10
55.892434
 20
26.488331
 30
0.0
 10
56.330000
 20
26.455000
 30
0.0
 11
51.330000
 21
31.455000
 31
0.0
 11
51.501303
 21
30.157384
 31
0.0
 11
51.998042
 21
28.958149
 31
0.0
 11
52.794466
 21
27.919466
 31
0.0
 11
53.833148
 21
27.123042
 31
0.0
 11
55.032384
 21
26.626303
 31
0.0
 11
56.330000
 21
26.455000
 31
0.0
  0
LINE
  5
118
100
AcDbEntity
  8
0
 62
7
100
AcDbLine
 10
60.635000
 20
12.000000
 30
0.0
 11
60.635000
 21
24.455000
 31
0.0
  0
SPLINE
  5
119
100
AcDbEntity
  8
0
 62
7
100
AcDbSpline
 70
0
 71
3
 72
13
 73
9
 74
7
 40
0.000000
 40
0.000000
 40
0.000000
 40
0.000000
 40
0.523550
 40
1.042767
 40
1.566317
 40
2.089866
 40
2.609084
 40
3.132633
 40
3.132633
 40
3.132633
 40
3.132633
 10
60.635000
 20
24.455000
 30
0.0
 10
60.621667
 20
24.630026
 30
0.0
 10
60.595113
 20
24.978631
 30
0.0
 10
60.385262
 20
25.466313
 30
0.0
 10
60.065996
 20
25.885996
 30
0.0
 10
59.646313
 20
26.205262
 30
0.0
 10
59.158631
 20
26.415113
 30
0.0
 10
58.810026
 20
26.441667
 30
0.0
 10
58.635000
 20
26.455000
 30
0.0
 11
60.635000
 21
24.455000
 31
0.0
 11
60.566479
 21
24.974046
 31
0.0
 11
60.367783
 21
25.453741
 31
0.0
 11
60.049214
 21
25.869214
 31
0.0
 11
59.633741
 21
26.187783
 31
0.0
 11
59.154046
 21
26.386479
 31
0.0
 11
58.635000
 21
26.455000
 31
0.0
  0
LINE
  5
11a
100
AcDbEntity
  8
0
 62
7
100
AcDbLine
 10
63.000000
 20
10.000000
 30
0.0
 11
62.635000
 21
10.000000
 31
0.0
  0
SPLINE
  5
11b
100
AcDbEntity
  8
0
 62
7
100
AcDbSpline
 70
0
 71
3
 72
13
 73
9
 74
7
 40
0.000000
 40
0.000000
 40
0.000000
 40
0.000000
 40
0.523550
 40
1.042767
 40
1.566317
 40
2.089866
 40
2.609084
 40
3.132633
 40
3.132633
 40
3.132633
 40
3.132633
 10
60.635000
 20
12.000000
 30
0.0
 10
60.648332
 20
11.824973
 30
0.0
 10
60.674887
 20
11.476369
 30
0.0
 10
60.884737
 20
10.988687
 30
0.0
 10
61.204004
 20
10.569004
 30
0.0
 10
61.623687
 20
10.249737
 30
0.0
 10
62.111369
 20
10.039887
 30
0.0
 10
62.459973
 20
10.013332
 30
0.0
 10
62.635000
 20
10.000000
 30
0.0
 11
60.635000
 21
12.000000
 31
0.0
 11
60.703521
 21
11.480953
 31
0.0
 11
60.902217
 21
11.001259
 31
0.0
 11
61.220786
 21
10.585786
 31
0.0
 11
61.636259
 21
10.267217
 31
0.0
 11
62.115953
 21
10.068521
 31
0.0
 11
62.635000
 21
10.000000
 31
0.0
  0
LINE
  5
11c
100
AcDbEntity
  8
0
 62
7
100
AcDbLine
 10
-54.680000
 20
-31.455000
 30
0.0
 11
-54.680000
 21
-31.455000
 31
0.0
  0
SPLINE
  5
11d
100
AcDbEntity
  8
0
 62
7
100
AcDbSpline
 70
0
 71
3
 72
25
 73
21
 74
19
 40
0.000000
 40
0.000000
 40
0.000000
 40
0.000000
 40
0.575791
 40
1.143341
 40
1.719132
 40
2.294923
 40
2.862473
 40
3.438264
 40
4.014055
 40
4.581605
 40
5.157396
 40
5.733187
 40
6.300737
 40
6.876528
 40
7.452319
 40
8.019869
 40
8.595660
 40
9.171451
 40
9.739001
 40
10.314792
 40
10.314792
 40
10.314792
 40
10.314792
 10
-54.680000
 20
-31.455000
 30
0.0
 10
-54.699714
 20
-31.262091
 30
0.0
 10
-54.738860
 20
-30.879033
 30
0.0
 10
-55.042570
 20
-30.372817
 30
0.0
 10
-55.487253
 20
-29.996458
 30
0.0
 10
-56.037909
 20
-29.796850
 30
0.0
 10
-56.622217
 20
-29.796850
 30
0.0
 10
-57.172102
 20
-29.996458
 30
0.0
 10
-57.619864
 20
-30.372817
 30
0.0
 10
-57.912133
 20
-30.879033
 30
0.0
 10
-58.014178
 20
-31.455000
 30
0.0
 10
-57.912133
 20
-32.030967
 30
0.0
 10
-57.619864
 20
-32.537183
 30
0.0
 10
-57.172102
 20
-32.913542
 30
0.0
 10
-56.622217
 20
-33.113150
 30
0.0
 10
-56.037909
 20
-33.113150
 30
0.0
 10
-55.487253
 20
-32.913542
 30
0.0
 10
-55.042570
 20
-32.537183
 30
0.0
 10
-54.738860
 20
-32.030967
 30
0.0
 10
-54.699714
 20
-31.647909
 30
0.0
 10
-54.680000
 20
-31.455000
 30
0.0
 11
-54.680000
 21
-31.455000
 31
0.0
 11
-54.780442
 21
-30.888037
 31
0.0
 11
-55.064217
 21
-30.396524
 31
0.0
 11
-55.505000
 21
-30.026058
 31
0.0
 11
-56.046225
 21
-29.829562
 31
0.0
 11
-56.613775
 21
-29.829562
 31
0.0
 11
-57.155000
 21
-30.026058
 31
0.0
 11
-57.595783
 21
-30.396524
 31
0.0
 11
-57.879558
 21
-30.888037
 31
0.0
 11
-57.980000
 21
-31.455000
 31
0.0
 11
-57.879558
 21
-32.021962
 31
0.0
 11
-57.595783
 21
-32.513476
 31
0.0
 11
-57.155000
 21
-32.883942
 31
0.0
 11
-56.613775
 21
-33.080438
 31
0.0
 11
-56.046225
 21
-33.080438
 31
0.0
 11
-55.505000
 21
-32.883942
 31
0.0
 11
-55.064217
 21
-32.513476
 31
0.0
 11
-54.780442
 21
-32.021962
 31
0.0
 11
-54.680000
 21
-31.455000
 31
0.0
  0
LINE
  5
11e
100
AcDbEntity
  8
0
 62
7
100
AcDbLine
 10
57.980000
 20
-31.455000
 30
0.0
 11
57.980000
 21
-31.455000
 31
0.0
  0
SPLINE
  5
11f
100
AcDbEntity
  8
0
 62
7
100
AcDbSpline
 70
0
 71
3
 72
25
 73
21
 74
19
 40
0.000000
 40
0.000000
 40
0.000000
 40
0.000000
 40
0.575791
 40
1.143341
 40
1.719132
 40
2.294923
 40
2.862473
 40
3.438264
 40
4.014055
 40
4.581605
 40
5.157396
 40
5.733187
 40
6.300737
 40
6.876528
 40
7.452319
 40
8.019869
 40
8.595660
 40
9.171451
 40
9.739001
 40
10.314792
 40
10.314792
 40
10.314792
 40
10.314792
 10
57.980000
 20
-31.455000
 30
0.0
 10
57.960286
 20
-31.262091
 30
0.0
 10
57.921140
 20
-30.879033
 30
0.0
 10
57.617430
 20
-30.372817
 30
0.0
 10
57.172747
 20
-29.996458
 30
0.0
 10
56.622091
 20
-29.796850
 30
0.0
 10
56.037783
 20
-29.796850
 30
0.0
 10
55.487898
 20
-29.996458
 30
0.0
 10
55.040136
 20
-30.372817
 30
0.0
 10
54.747867
 20
-30.879033
 30
0.0
 10
54.645822
 20
-31.455000
 30
0.0
 10
54.747867
 20
-32.030967
 30
0.0
 10
55.040136
 20
-32.537183
 30
0.0
 10
55.487898
 20
-32.913542
 30
0.0
 10
56.037783
 20
-33.113150
 30
0.0
 10
56.622091
 20
-33.113150
 30
0.0
 10
57.172747
 20
-32.913542
 30
0.0
 10
57.617430
 20
-32.537183
 30
0.0
 10
57.921140
 20
-32.030967
 30
0.0
 10
57.960286
 20
-31.647909
 30
0.0
 10
57.980000
 20
-31.455000
 30
0.0
 11
57.980000
 21
-31.455000
 31
0.0
 11
57.879558
 21
-30.888037
 31
0.0
 11
57.595783
 21
-30.396524
 31
0.0
 11
57.155000
 21
-30.026058
 31
0.0
 11
56.613775
 21
-29.829562
 31
0.0
 11
56.046225
 21
-29.829562
 31
0.0
 11
55.505000
 21
-30.026058
 31
0.0
 11
55.064217
 21
-30.396524
 31
0.0
 11
54.780442
 21
-30.888037
 31
0.0
 11
54.680000
 21
-31.455000
 31
0.0
 11
54.780442
 21
-32.021962
 31
0.0
 11
55.064217
 21
-32.513476
 31
0.0
 11
55.505000
 21
-32.883942
 31
0.0
 11
56.046225
 21
-33.080438
 31
0.0
 11
56.613775
 21
-33.080438
 31
0.0
 11
57.155000
 21
-32.883942
 31
0.0
 11
57.595783
 21
-32.513476
 31
0.0
 11
57.879558
 21
-32.021962
 31
0.0
 11
57.980000
 21
-31.455000
 31
0.0
  0
LINE
  5
120
100
AcDbEntity
  8
0
 62
7
100
AcDbLine
 10
64.000000
 20
-27.500000
 30
0.0
 11
64.000000
 21
-10.267949
 31
0.0
  0
SPLINE
  5
121
100
AcDbEntity
  8
0
 62
7
100
AcDbSpline
 70
0
 71
3
 72
13
 73
9
 74
7
 40
0.000000
 40
0.000000
 40
0.000000
 40
0.000000
 40
3.010411
 40
5.995910
 40
9.006321
 40
12.016732
 40
15.002231
 40
18.012642
 40
18.012642
 40
18.012642
 40
18.012642
 10
52.500000
 20
-39.000000
 30
0.0
 10
53.506402
 20
-38.923338
 30
0.0
 10
55.510878
 20
-38.770649
 30
0.0
 10
58.315052
 20
-37.564009
 30
0.0
 10
60.728226
 20
-35.728226
 30
0.0
 10
62.564009
 20
-33.315052
 30
0.0
 10
63.770649
 20
-30.510879
 30
0.0
 10
63.923338
 20
-28.506402
 30
0.0
 10
64.000000
 20
-27.500000
 30
0.0
 11
52.500000
 21
-39.000000
 31
0.0
 11
55.484517
 21
-38.606004
 31
0.0
 11
58.242758
 21
-37.463503
 31
0.0
 11
60.631728
 21
-35.631728
 31
0.0
 11
62.463503
 21
-33.242759
 31
0.0
 11
63.606004
 21
-30.484517
 31
0.0
 11
64.000000
 21
-27.500000
 31
0.0
  0
LINE
  5
122
100
AcDbEntity
  8
0
 62
7
100
AcDbLine
 10
62.635000
 20
-10.000000
 30
0.0
 11
63.000000
 21
-10.000000
 31
0.0
  0
SPLINE
  5
123
100
AcDbEntity
  8
0
 62
7
100
AcDbSpline
 70
0
 71
3
 72
10
 73
6
 74
4
 40
0.000000
 40
0.000000
 40
0.000000
 40
0.000000
 40
0.349059
 40
0.696810
 40
1.045869
 40
1.045869
 40
1.045869
 40
1.045869
 10
64.000000
 20
-10.267949
 30
0.0
 10
63.896160
 20
-10.215031
 30
0.0
 10
63.688868
 20
-10.109392
 30
0.0
 10
63.348727
 20
-10.018251
 30
0.0
 10
63.116388
 20
-10.006091
 30
0.0
 10
63.000000
 20
-10.000000
 30
0.0
 11
64.000000
 21
-10.267949
 31
0.0
 11
63.683629
 21
-10.120465
 31
0.0
 11
63.347728
 21
-10.030460
 31
0.0
 11
63.000000
 21
-10.000000
 31
0.0
  0
LINE
  5
124
100
AcDbEntity
  8
0
 62
7
100
AcDbLine
 10
60.635000
 20
-24.455000
 30
0.0
 11
60.635000
 21
-12.000000
 31
0.0
  0
SPLINE
  5
125
100
AcDbEntity
  8
0
 62
7
100
AcDbSpline
 70
0
 71
3
 72
13
 73
9
 74
7
 40
0.000000
 40
0.000000
 40
0.000000
 40
0.000000
 40
0.523550
 40
1.042767
 40
1.566317
 40
2.089866
 40
2.609084
 40
3.132633
 40
3.132633
 40
3.132633
 40
3.132633
 10
62.635000
 20
-10.000000
 30
0.0
 10
62.459973
 20
-10.013333
 30
0.0
 10
62.111369
 20
-10.039887
 30
0.0
 10
61.623687
 20
-10.249738
 30
0.0
 10
61.204004
 20
-10.569004
 30
0.0
 10
60.884737
 20
-10.988687
 30
0.0
 10
60.674887
 20
-11.476369
 30
0.0
 10
60.648332
 20
-11.824974
 30
0.0
 10
60.635000
 20
-12.000000
 30
0.0
 11
62.635000
 21
-10.000000
 31
0.0
 11
62.115953
 21
-10.068521
 31
0.0
 11
61.636259
 21
-10.267217
 31
0.0
 11
61.220786
 21
-10.585787
 31
0.0
 11
60.902217
 21
-11.001259
 31
0.0
 11
60.703521
 21
-11.480954
 31
0.0
 11
60.635000
 21
-12.000000
 31
0.0
  0
LINE
  5
126
100
AcDbEntity
  8
0
 62
7
100
AcDbLine
 10
56.330000
 20
-26.455000
 30
0.0
 11
58.635000
 21
-26.455000
 31
0.0
  0
SPLINE
  5
127
100
AcDbEntity
  8
0
 62
7
100
AcDbSpline
 70
0
 71
3
 72
13
 73
9
 74
7
 40
0.000000
 40
0.000000
 40
0.000000
 40
0.000000
 40
0.523550
 40
1.042767
 40
1.566317
 40
2.089866
 40
2.609084
 40
3.132633
 40
3.132633
 40
3.132633
 40
3.132633
 10
58.635000
 20
-26.455000
 30
0.0
 10
58.810026
 20
-26.441668
 30
0.0
 10
59.158631
 20
-26.415113
 30
0.0
 10
59.646313
 20
-26.205263
 30
0.0
 10
60.065996
 20
-25.885996
 30
0.0
 10
60.385262
 20
-25.466313
 30
0.0
 10
60.595113
 20
-24.978631
 30
0.0
 10
60.621667
 20
-24.630027
 30
0.0
 10
60.635000
 20
-24.455000
 30
0.0
 11
58.635000
 21
-26.455000
 31
0.0
 11
59.154046
 21
-26.386479
 31
0.0
 11
59.633741
 21
-26.187783
 31
0.0
 11
60.049214
 21
-25.869214
 31
0.0
 11
60.367783
 21
-25.453741
 31
0.0
 11
60.566479
 21
-24.974047
 31
0.0
 11
60.635000
 21
-24.455000
 31
0.0
  0
LINE
  5
128
100
AcDbEntity
  8
0
 62
7
100
AcDbLine
 10
51.330000
 20
-33.760000
 30
0.0
 11
51.330000
 21
-31.455000
 31
0.0
  0
SPLINE
  5
129
100
AcDbEntity
  8
0
 62
7
100
AcDbSpline
 70
0
 71
3
 72
13
 73
9
 74
7
 40
0.000000
 40
0.000000
 40
0.000000
 40
0.000000
 40
1.308874
 40
2.606917
 40
3.915792
 40
5.224666
 40
6.522709
 40
7.831583
 40
7.831583
 40
7.831583
 40
7.831583
 10
56.330000
 20
-26.455000
 30
0.0
 10
55.892434
 20
-26.488331
 30
0.0
 10
55.020922
 20
-26.554718
 30
0.0
 10
53.801717
 20
-27.079344
 30
0.0
 10
52.752510
 20
-27.877510
 30
0.0
 10
51.954344
 20
-28.926717
 30
0.0
 10
51.429718
 20
-30.145922
 30
0.0
 10
51.363331
 20
-31.017434
 30
0.0
 10
51.330000
 20
-31.455000
 30
0.0
 11
56.330000
 21
-26.455000
 31
0.0
 11
55.032384
 21
-26.626303
 31
0.0
 11
53.833149
 21
-27.123042
 31
0.0
 11
52.794466
 21
-27.919466
 31
0.0
 11
51.998042
 21
-28.958149
 31
0.0
 11
51.501303
 21
-30.157384
 31
0.0
 11
51.330000
 21
-31.455000
 31
0.0
  0
LINE
  5
12a
100
AcDbEntity
  8
0
 62
7
100
AcDbLine
 10
-49.330000
 20
-35.760000
 30
0.0
 11
49.330000
 21
-35.760000
 31
0.0
  0
SPLINE
  5
12b
100
AcDbEntity
  8
0
 62
7
100
AcDbSpline
 70
0
 71
3
 72
13
 73
9
 74
7
 40
0.000000
 40
0.000000
 40
0.000000
 40
0.000000
 40
0.523550
 40
1.042767
 40
1.566317
 40
2.089866
 40
2.609084
 40
3.132633
 40
3.132633
 40
3.132633
 40
3.132633
 10
49.330000
 20
-35.760000
 30
0.0
 10
49.505027
 20
-35.746667
 30
0.0
 10
49.853631
 20
-35.720113
 30
0.0
 10
50.341313
 20
-35.510262
 30
0.0
 10
50.760996
 20
-35.190996
 30
0.0
 10
51.080263
 20
-34.771313
 30
0.0
 10
51.290113
 20
-34.283631
 30
0.0
 10
51.316668
 20
-33.935026
 30
0.0
 10
51.330000
 20
-33.760000
 30
0.0
 11
49.330000
 21
-35.760000
 31
0.0
 11
49.849047
 21
-35.691479
 31
0.0
 11
50.328741
 21
-35.492783
 31
0.0
 11
50.744214
 21
-35.174214
 31
0.0
 11
51.062783
 21
-34.758741
 31
0.0
 11
51.261479
 21
-34.279046
 31
0.0
 11
51.330000
 21
-33.760000
 31
0.0
  0
LINE
  5
12c
100
AcDbEntity
  8
0
 62
7
100
AcDbLine
 10
-51.330000
 20
-31.455000
 30
0.0
 11
-51.330000
 21
-33.760000
 31
0.0
  0
SPLINE
  5
12d
100
AcDbEntity
  8
0
 62
7
100
AcDbSpline
 70
0
 71
3
 72
13
 73
9
 74
7
 40
0.000000
 40
0.000000
 40
0.000000
 40
0.000000
 40
0.523550
 40
1.042767
 40
1.566317
 40
2.089866
 40
2.609084
 40
3.132633
 40
3.132633
 40
3.132633
 40
3.132633
 10
-51.330000
 20
-33.760000
 30
0.0
 10
-51.316668
 20
-33.935026
 30
0.0
 10
-51.290113
 20
-34.283631
 30
0.0
 10
-51.080263
 20
-34.771313
 30
0.0
 10
-50.760996
 20
-35.190996
 30
0.0
 10
-50.341313
 20
-35.510262
 30
0.0
 10
-49.853631
 20
-35.720113
 30
0.0
 10
-49.505027
 20
-35.746667
 30
0.0
 10
-49.330000
 20
-35.760000
 30
0.0
 11
-51.330000
 21
-33.760000
 31
0.0
 11
-51.261479
 21
-34.279046
 31
0.0
 11
-51.062783
 21
-34.758741
 31
0.0
 11
-50.744214
 21
-35.174214
 31
0.0
 11
-50.328741
 21
-35.492783
 31
0.0
 11
-49.849047
 21
-35.691479
 31
0.0
 11
-49.330000
 21
-35.760000
 31
0.0
  0
LINE
  5
12e
100
AcDbEntity
  8
0
 62
7
100
AcDbLine
 10
-58.635000
 20
-26.455000
 30
0.0
 11
-56.330000
 21
-26.455000
 31
0.0
  0
SPLINE
  5
12f
100
AcDbEntity
  8
0
 62
7
100
AcDbSpline
 70
0
 71
3
 72
13
 73
9
 74
7
 40
0.000000
 40
0.000000
 40
0.000000
 40
0.000000
 40
1.308874
 40
2.606917
 40
3.915792
 40
5.224666
 40
6.522709
 40
7.831583
 40
7.831583
 40
7.831583
 40
7.831583
 10
-51.330000
 20
-31.455000
 30
0.0
 10
-51.363331
 20
-31.017434
 30
0.0
 10
-51.429718
 20
-30.145922
 30
0.0
 10
-51.954344
 20
-28.926717
 30
0.0
 10
-52.752510
 20
-27.877510
 30
0.0
 10
-53.801717
 20
-27.079344
 30
0.0
 10
-55.020922
 20
-26.554718
 30
0.0
 10
-55.892434
 20
-26.488331
 30
0.0
 10
-56.330000
 20
-26.455000
 30
0.0
 11
-51.330000
 21
-31.455000
 31
0.0
 11
-51.501303
 21
-30.157384
 31
0.0
 11
-51.998042
 21
-28.958149
 31
0.0
 11
-52.794466
 21
-27.919466
 31
0.0
 11
-53.833149
 21
-27.123042
 31
0.0
 11
-55.032384
 21
-26.626303
 31
0.0
 11
-56.330000
 21
-26.455000
 31
0.0
  0
LINE
  5
130
100
AcDbEntity
  8
0
 62
7
100
AcDbLine
 10
-60.635000
 20
-12.000000
 30
0.0
 11
-60.635000
 21
-24.455000
 31
0.0
  0
SPLINE
  5
131
100
AcDbEntity
  8
0
 62
7
100
AcDbSpline
 70
0
 71
3
 72
13
 73
9
 74
7
 40
0.000000
 40
0.000000
 40
0.000000
 40
0.000000
 40
0.523550
 40
1.042767
 40
1.566317
 40
2.089866
 40
2.609084
 40
3.132633
 40
3.132633
 40
3.132633
 40
3.132633
 10
-60.635000
 20
-24.455000
 30
0.0
 10
-60.621667
 20
-24.630027
 30
0.0
 10
-60.595113
 20
-24.978631
 30
0.0
 10
-60.385262
 20
-25.466313
 30
0.0
 10
-60.065996
 20
-25.885996
 30
0.0
 10
-59.646313
 20
-26.205263
 30
0.0
 10
-59.158631
 20
-26.415113
 30
0.0
 10
-58.810026
 20
-26.441668
 30
0.0
 10
-58.635000
 20
-26.455000
 30
0.0
 11
-60.635000
 21
-24.455000
 31
0.0
 11
-60.566479
 21
-24.974047
 31
0.0
 11
-60.367783
 21
-25.453741
 31
0.0
 11
-60.049214
 21
-25.869214
 31
0.0
 11
-59.633741
 21
-26.187783
 31
0.0
 11
-59.154046
 21
-26.386479
 31
0.0
 11
-58.635000
 21
-26.455000
 31
0.0
  0
LINE
  5
132
100
AcDbEntity
  8
0
 62
7
100
AcDbLine
 10
-63.000000
 20
-10.000000
 30
0.0
 11
-62.635000
 21
-10.000000
 31
0.0
  0
SPLINE
  5
133
100
AcDbEntity
  8
0
 62
7
100
AcDbSpline
 70
0
 71
3
 72
13
 73
9
 74
7
 40
0.000000
 40
0.000000
 40
0.000000
 40
0.000000
 40
0.523550
 40
1.042767
 40
1.566317
 40
2.089866
 40
2.609084
 40
3.132633
 40
3.132633
 40
3.132633
 40
3.132633
 10
-60.635000
 20
-12.000000
 30
0.0
 10
-60.648332
 20
-11.824974
 30
0.0
 10
-60.674887
 20
-11.476369
 30
0.0
 10
-60.884737
 20
-10.988687
 30
0.0
 10
-61.204004
 20
-10.569004
 30
0.0
 10
-61.623687
 20
-10.249738
 30
0.0
 10
-62.111369
 20
-10.039887
 30
0.0
 10
-62.459973
 20
-10.013333
 30
0.0
 10
-62.635000
 20
-10.000000
 30
0.0
 11
-60.635000
 21
-12.000000
 31
0.0
 11
-60.703521
 21
-11.480954
 31
0.0
 11
-60.902217
 21
-11.001259
 31
0.0
 11
-61.220786
 21
-10.585787
 31
0.0
 11
-61.636259
 21
-10.267217
 31
0.0
 11
-62.115953
 21
-10.068521
 31
0.0
 11
-62.635000
 21
-10.000000
 31
0.0
  0
LINE
  5
134
100
AcDbEntity
  8
0
 62
7
100
AcDbLine
 10
-64.000000
 20
-10.267949
 30
0.0
 11
-64.000000
 21
-27.500000
 31
0.0
  0
SPLINE
  5
135
100
AcDbEntity
  8
0
 62
7
100
AcDbSpline
 70
0
 71
3
 72
10
 73
6
 74
4
 40
0.000000
 40
0.000000
 40
0.000000
 40
0.000000
 40
0.349059
 40
0.696810
 40
1.045869
 40
1.045869
 40
1.045869
 40
1.045869
 10
-63.000000
 20
-10.000000
 30
0.0
 10
-63.116388
 20
-10.006091
 30
0.0
 10
-63.348727
 20
-10.018251
 30
0.0
 10
-63.688868
 20
-10.109392
 30
0.0
 10
-63.896160
 20
-10.215031
 30
0.0
 10
-64.000000
 20
-10.267949
 30
0.0
 11
-63.000000
 21
-10.000000
 31
0.0
 11
-63.347728
 21
-10.030460
 31
0.0
 11
-63.683629
 21
-10.120465
 31
0.0
 11
-64.000000
 21
-10.267949
 31
0.0
  0
LINE
  5
136
100
AcDbEntity
  8
0
 62
7
100
AcDbLine
 10
-52.500000
 20
-39.000000
 30
0.0
 11
52.500000
 21
-39.000000
 31
0.0
  0
SPLINE
  5
137
100
AcDbEntity
  8
0
 62
7
100
AcDbSpline
 70
0
 71
3
 72
13
 73
9
 74
7
 40
0.000000
 40
0.000000
 40
0.000000
 40
0.000000
 40
3.010411
 40
5.995910
 40
9.006321
 40
12.016732
 40
15.002231
 40
18.012642
 40
18.012642
 40
18.012642
 40
18.012642
 10
-64.000000
 20
-27.500000
 30
0.0
 10
-63.923338
 20
-28.506402
 30
0.0
 10
-63.770649
 20
-30.510879
 30
0.0
 10
-62.564009
 20
-33.315052
 30
0.0
 10
-60.728226
 20
-35.728226
 30
0.0
 10
-58.315052
 20
-37.564009
 30
0.0
 10
-55.510878
 20
-38.770649
 30
0.0
 10
-53.506402
 20
-38.923338
 30
0.0
 10
-52.500000
 20
-39.000000
 30
0.0
 11
-64.000000
 21
-27.500000
 31
0.0
 11
-63.606004
 21
-30.484517
 31
0.0
 11
-62.463503
 21
-33.242759
 31
0.0
 11
-60.631728
 21
-35.631728
 31
0.0
 11
-58.242758
 21
-37.463503
 31
0.0
 11
-55.484517
 21
-38.606004
 31
0.0
 11
-52.500000
 21
-39.000000
 31
0.0
  0
ENDSEC
  0
SECTION
  2
OBJECTS
  0
DICTIONARY
  5
C
330
0
100
AcDbDictionary
  3
ACAD_GROUP
350
D
  3
ACAD_MLINESTYLE
350
17
  0
DICTIONARY
  5
D
330
C
100
AcDbDictionary
  0
DICTIONARY
  5
1A
330
C
100
AcDbDictionary
  0
DICTIONARY
  5
17
330
C
100
AcDbDictionary
  3
STANDARD
350
18
  0
DICTIONARY
  5
19
330
C
100
AcDbDictionary
  0
ENDSEC
  0
EOF
