  0
SECTION
  2
HEADER
  9
$ACADVER
  1
AC1014
  9
$HANDSEED
  5
FFFF
  9
$MEASUREMENT
 70
     1
  0
ENDSEC
  0
SECTION
  2
TABLES
  0
TABLE
  2
VPORT
  5
8
330
0
100
AcDbSymbolTable
 70
     4
  0
VPORT
  5
2E
330
8
100
AcDbSymbolTableRecord
100
AcDbViewportTableRecord
  2
*ACTIVE
 70
     0
 10
0.0
 20
0.0
 11
1.0
 21
1.0
 12
210.0
 22
148.5
 13
0.0
 23
0.0
 14
10.0
 24
10.0
 15
10.0
 25
10.0
 16
0.0
 26
0.0
 36
1.0
 17
0.0
 27
0.0
 37
0.0
 40
341.0
 41
1.24
 42
50.0
 43
0.0
 44
0.0
 50
0.0
 51
0.0
 71
     0
 72
   100
 73
     1
 74
     3
 75
     0
 76
     0
 77
     0
 78
     0
  0
ENDTAB
  0
TABLE
  2
LTYPE
  5
5
330
0
100
AcDbSymbolTable
 70
     1
  0
LTYPE
  5
14
330
5
100
AcDbSymbolTableRecord
100
AcDbLinetypeTableRecord
  2
BYBLOCK
 70
     0
  3

 72
    65
 73
     0
 40
0.0
  0
LTYPE
  5
15
330
5
100
AcDbSymbolTableRecord
100
AcDbLinetypeTableRecord
  2
BYLAYER
 70
     0
  3

 72
    65
 73
     0
 40
0.0
  0
LTYPE
  5
16
330
5
100
AcDbSymbolTableRecord
100
AcDbLinetypeTableRecord
  2
CONTINUOUS
 70
     0
  3
Solid line
 72
    65
 73
     0
 40
0.0
  0
ENDTAB
  0
TABLE
  2
LAYER
  5
2
100
AcDbSymbolTable
 70
1
  0
LAYER
  5
50
100
AcDbSymbolTableRecord
100
AcDbLayerTableRecord
  2
0
 70
0
  6
CONTINUOUS
  0
ENDTAB
  0
TABLE
  2
STYLE
  5
3
330
0
100
AcDbSymbolTable
 70
     1
  0
STYLE
  5
11
330
3
100
AcDbSymbolTableRecord
100
AcDbTextStyleTableRecord
  2
STANDARD
 70
     0
 40
0.0
 41
1.0
 50
0.0
 71
     0
 42
2.5
  3
txt
  4

  0
ENDTAB
  0
TABLE
  2
VIEW
  5
6
330
0
100
AcDbSymbolTable
 70
     0
  0
ENDTAB
  0
TABLE
  2
UCS
  5
7
330
0
100
AcDbSymbolTable
 70
     0
  0
ENDTAB
  0
TABLE
  2
APPID
  5
9
330
0
100
AcDbSymbolTable
 70
     2
  0
APPID
  5
12
330
9
100
AcDbSymbolTableRecord
100
AcDbRegAppTableRecord
  2
ACAD
 70
     0
  0
ENDTAB
  0
TABLE
  2
DIMSTYLE
  5
A
330
0
100
AcDbSymbolTable
 70
     1
  0
DIMSTYLE
105
27
330
A
100
AcDbSymbolTableRecord
100
AcDbDimStyleTableRecord
  2
ISO-25
 70
     0
  3

  4

  5

  6

  7

 40
1.0
 41
2.5
 42
0.625
 43
3.75
 44
1.25
 45
0.0
 46
0.0
 47
0.0
 48
0.0
140
2.5
141
2.5
142
0.0
143
0.03937007874016
144
1.0
145
0.0
146
1.0
147
0.625
 71
     0
 72
     0
 73
     0
 74
     0
 75
     0
 76
     0
 77
     1
 78
     8
170
     0
171
     3
172
     1
173
     0
174
     0
175
     0
176
     0
177
     0
178
     0
270
     2
271
     2
272
     2
273
     2
274
     3
340
11
275
     0
280
     0
281
     0
282
     0
283
     0
284
     8
285
     0
286
     0
287
     3
288
     0
  0
ENDTAB
  0
TABLE
  2
BLOCK_RECORD
  5
1
330
0
100
AcDbSymbolTable
 70
     1
  0
BLOCK_RECORD
  5
1F
330
1
100
AcDbSymbolTableRecord
100
AcDbBlockTableRecord
  2
*MODEL_SPACE
  0
BLOCK_RECORD
  5
1B
330
1
100
AcDbSymbolTableRecord
100
AcDbBlockTableRecord
  2
*PAPER_SPACE
  0
ENDTAB
  0
ENDSEC
  0
SECTION
  2
BLOCKS
  0
BLOCK
  5
20
330
1F
100
AcDbEntity
  8
0
100
AcDbBlockBegin
  2
*MODEL_SPACE
 70
     0
 10
0.0
 20
0.0
 30
0.0
  3
*MODEL_SPACE
  1

  0
ENDBLK
  5
21
330
1F
100
AcDbEntity
  8
0
100
AcDbBlockEnd
  0
BLOCK
  5
1C
330
1B
100
AcDbEntity
 67
     1
  8
0
100
AcDbBlockBegin
  2
*PAPER_SPACE
  1

  0
ENDBLK
  5
1D
330
1B
100
AcDbEntity
 67
     1
  8
0
100
AcDbBlockEnd
  0
ENDSEC
  0
SECTION
  2
ENTITIES
  0
LINE
  5
100
100
AcDbEntity
  8
0
 62
7
100
AcDbLine
 10
-7.141428
 20
59.500000
 30
0.0
 11
-52.500000
 21
59.500000
 31
0.0
  0
SPLINE
  5
101
100
AcDbEntity
  8
0
 62
7
100
AcDbSpline
 70
0
 71
3
 72
13
 73
9
 74
7
 40
0.000000
 40
0.000000
 40
0.000000
 40
0.000000
 40
2.651068
 40
5.279656
 40
7.930725
 40
10.581793
 40
13.210381
 40
15.861450
 40
15.861450
 40
15.861450
 40
15.861450
 10
-7.141428
 20
59.500000
 30
0.0
 10
-6.472152
 20
58.914902
 30
0.0
 10
-5.139274
 20
57.749668
 30
0.0
 10
-2.645720
 20
56.742392
 30
0.0
 10
0.000000
 20
56.378288
 30
0.0
 10
2.645720
 20
56.742392
 30
0.0
 10
5.139274
 20
57.749668
 30
0.0
 10
6.472152
 20
58.914902
 30
0.0
 10
7.141428
 20
59.500000
 30
0.0
 11
-7.141428
 21
59.500000
 31
0.0
 11
-5.051117
 21
57.869429
 31
0.0
 11
-2.627679
 21
56.851381
 31
0.0
 11
0.000000
 21
56.500000
 31
0.0
 11
2.627679
 21
56.851381
 31
0.0
 11
5.051117
 21
57.869429
 31
0.0
 11
7.141428
 21
59.500000
 31
0.0
  0
LINE
  5
102
100
AcDbEntity
  8
0
 62
7
100
AcDbLine
 10
-84.500000
 20
27.500000
 30
0.0
 11
-84.500000
 21
22.017123
 31
0.0
  0
SPLINE
  5
103
100
AcDbEntity
  8
0
 62
7
100
AcDbSpline
 70
0
 71
3
 72
13
 73
9
 74
7
 40
0.000000
 40
0.000000
 40
0.000000
 40
0.000000
 40
8.376796
 40
16.684271
 40
25.061068
 40
33.437864
 40
41.745339
 40
50.122135
 40
50.122135
 40
50.122135
 40
50.122135
 10
-52.500000
 20
59.500000
 30
0.0
 10
-55.300424
 20
59.286680
 30
0.0
 10
-60.878097
 20
58.861806
 30
0.0
 10
-68.681013
 20
55.504199
 30
0.0
 10
-75.395933
 20
50.395933
 30
0.0
 10
-80.504199
 20
43.681013
 30
0.0
 10
-83.861806
 20
35.878097
 30
0.0
 10
-84.286680
 20
30.300424
 30
0.0
 10
-84.500000
 20
27.500000
 30
0.0
 11
-52.500000
 21
59.500000
 31
0.0
 11
-60.804743
 21
58.403663
 31
0.0
 11
-68.479850
 21
55.224530
 31
0.0
 11
-75.127417
 21
50.127417
 31
0.0
 11
-80.224530
 21
43.479849
 31
0.0
 11
-83.403663
 21
35.804743
 31
0.0
 11
-84.500000
 21
27.500000
 31
0.0
  0
LINE
  5
104
100
AcDbEntity
  8
0
 62
7
100
AcDbLine
 10
-89.500000
 20
17.017123
 30
0.0
 11
-93.300000
 21
17.017123
 31
0.0
  0
SPLINE
  5
105
100
AcDbEntity
  8
0
 62
7
100
AcDbSpline
 70
0
 71
3
 72
13
 73
9
 74
7
 40
0.000000
 40
0.000000
 40
0.000000
 40
0.000000
 40
1.308874
 40
2.606917
 40
3.915792
 40
5.224666
 40
6.522709
 40
7.831583
 40
7.831583
 40
7.831583
 40
7.831583
 10
-89.500000
 20
17.017123
 30
0.0
 10
-89.062434
 20
17.050454
 30
0.0
 10
-88.190922
 20
17.116841
 30
0.0
 10
-86.971717
 20
17.641467
 30
0.0
 10
-85.922510
 20
18.439633
 30
0.0
 10
-85.124344
 20
19.488839
 30
0.0
 10
-84.599718
 20
20.708045
 30
0.0
 10
-84.533331
 20
21.579556
 30
0.0
 10
-84.500000
 20
22.017123
 30
0.0
 11
-89.500000
 21
17.017123
 31
0.0
 11
-88.202384
 21
17.188425
 31
0.0
 11
-87.003149
 21
17.685165
 31
0.0
 11
-85.964466
 21
18.481589
 31
0.0
 11
-85.168042
 21
19.520271
 31
0.0
 11
-84.671303
 21
20.719507
 31
0.0
 11
-84.500000
 21
22.017123
 31
0.0
  0
LINE
  5
106
100
AcDbEntity
  8
0
 62
7
100
AcDbLine
 10
-101.300000
 20
9.017123
 30
0.0
 11
-101.300000
 21
2.500000
 31
0.0
  0
SPLINE
  5
107
100
AcDbEntity
  8
0
 62
7
100
AcDbSpline
 70
0
 71
3
 72
10
 73
6
 74
4
 40
0.000000
 40
0.000000
 40
0.000000
 40
0.000000
 40
4.182873
 40
8.241683
 40
12.424557
 40
12.424557
 40
12.424557
 40
12.424557
 10
-93.300000
 20
17.017123
 30
0.0
 10
-94.701807
 20
16.797081
 30
0.0
 10
-97.463843
 20
16.363525
 30
0.0
 10
-100.646402
 20
13.180965
 30
0.0
 10
-101.079959
 20
10.418929
 30
0.0
 10
-101.300000
 20
9.017123
 30
0.0
 11
-93.300000
 21
17.017123
 31
0.0
 11
-97.337753
 21
15.924888
 31
0.0
 11
-100.207766
 21
13.054876
 31
0.0
 11
-101.300000
 21
9.017123
 31
0.0
  0
LINE
  5
108
100
AcDbEntity
  8
0
 62
7
100
AcDbLine
 10
-98.354356
 20
0.500000
 30
0.0
 11
-99.300000
 21
0.500000
 31
0.0
  0
SPLINE
  5
109
100
AcDbEntity
  8
0
 62
7
100
AcDbSpline
 70
0
 71
3
 72
13
 73
9
 74
7
 40
0.000000
 40
0.000000
 40
0.000000
 40
0.000000
 40
0.523550
 40
1.042767
 40
1.566317
 40
2.089866
 40
2.609084
 40
3.132633
 40
3.132633
 40
3.132633
 40
3.132633
 10
-101.300000
 20
2.500000
 30
0.0
 10
-101.286668
 20
2.324974
 30
0.0
 10
-101.260113
 20
1.976369
 30
0.0
 10
-101.050263
 20
1.488687
 30
0.0
 10
-100.730996
 20
1.069004
 30
0.0
 10
-100.311313
 20
0.749738
 30
0.0
 10
-99.823631
 20
0.539887
 30
0.0
 10
-99.475027
 20
0.513333
 30
0.0
 10
-99.300000
 20
0.500000
 30
0.0
 11
-101.300000
 21
2.500000
 31
0.0
 11
-101.231479
 21
1.980954
 31
0.0
 11
-101.032783
 21
1.501259
 31
0.0
 11
-100.714214
 21
1.085786
 31
0.0
 11
-100.298741
 21
0.767217
 31
0.0
 11
-99.819047
 21
0.568521
 31
0.0
 11
-99.300000
 21
0.500000
 31
0.0
  0
SPLINE
  5
10a
100
AcDbEntity
  8
0
 62
7
100
AcDbSpline
 70
0
 71
3
 72
10
 73
6
 74
4
 40
0.000000
 40
0.000000
 40
0.000000
 40
0.000000
 40
0.760370
 40
1.507975
 40
2.268345
 40
2.268345
 40
2.268345
 40
2.268345
 10
-98.354356
 20
0.500000
 30
0.0
 10
-98.100360
 20
0.528945
 30
0.0
 10
-97.596633
 20
0.586348
 30
0.0
 10
-96.930451
 20
1.013830
 30
0.0
 10
-96.668381
 20
1.447830
 30
0.0
 10
-96.536237
 20
1.666667
 30
0.0
 11
-98.354356
 21
0.500000
 31
0.0
 11
-97.607841
 21
0.644493
 31
0.0
 11
-96.978638
 21
1.048246
 31
0.0
 11
-96.536237
 21
1.666667
 31
0.0
  0
SPLINE
  5
10b
100
AcDbEntity
  8
0
 62
7
100
AcDbSpline
 70
0
 71
3
 72
13
 73
9
 74
7
 40
0.000000
 40
0.000000
 40
0.000000
 40
0.000000
 40
1.520740
 40
3.015949
 40
4.536690
 40
6.057430
 40
7.552639
 40
9.073379
 40
9.073379
 40
9.073379
 40
9.073379
 10
-89.263763
 20
1.666667
 30
0.0
 10
-89.528050
 20
2.106567
 30
0.0
 10
-90.052189
 20
2.978982
 30
0.0
 10
-91.384554
 20
3.801072
 30
0.0
 10
-92.900000
 20
4.100306
 30
0.0
 10
-94.415446
 20
3.801072
 30
0.0
 10
-95.747811
 20
2.978982
 30
0.0
 10
-96.271950
 20
2.106567
 30
0.0
 10
-96.536237
 20
1.666667
 30
0.0
 11
-89.263763
 21
1.666667
 31
0.0
 11
-90.148564
 21
2.903508
 31
0.0
 11
-91.406970
 21
3.711013
 31
0.0
 11
-92.900000
 21
4.000000
 31
0.0
 11
-94.393030
 21
3.711013
 31
0.0
 11
-95.651436
 21
2.903508
 31
0.0
 11
-96.536237
 21
1.666667
 31
0.0
  0
LINE
  5
10c
100
AcDbEntity
  8
0
 62
7
100
AcDbLine
 10
-81.821068
 20
0.500000
 30
0.0
 11
-87.445644
 21
0.500000
 31
0.0
  0
SPLINE
  5
10d
100
AcDbEntity
  8
0
 62
7
100
AcDbSpline
 70
0
 71
3
 72
10
 73
6
 74
4
 40
0.000000
 40
0.000000
 40
0.000000
 40
0.000000
 40
0.760370
 40
1.507975
 40
2.268345
 40
2.268345
 40
2.268345
 40
2.268345
 10
-89.263763
 20
1.666667
 30
0.0
 10
-89.131619
 20
1.447830
 30
0.0
 10
-88.869550
 20
1.013830
 30
0.0
 10
-88.203367
 20
0.586348
 30
0.0
 10
-87.699640
 20
0.528945
 30
0.0
 10
-87.445644
 20
0.500000
 30
0.0
 11
-89.263763
 21
1.666667
 31
0.0
 11
-88.821362
 21
1.048246
 31
0.0
 11
-88.192159
 21
0.644493
 31
0.0
 11
-87.445644
 21
0.500000
 31
0.0
  0
SPLINE
  5
10e
100
AcDbEntity
  8
0
 62
7
100
AcDbSpline
 70
0
 71
3
 72
10
 73
6
 74
4
 40
0.000000
 40
0.000000
 40
0.000000
 40
0.000000
 40
0.820189
 40
1.624552
 40
2.444741
 40
2.444741
 40
2.444741
 40
2.444741
 10
-81.821068
 20
0.500000
 30
0.0
 10
-81.546951
 20
0.533700
 30
0.0
 10
-81.004006
 20
0.600448
 30
0.0
 10
-80.302507
 20
1.096482
 30
0.0
 10
-80.058594
 20
1.586126
 30
0.0
 10
-79.935450
 20
1.833333
 30
0.0
 11
-81.821068
 21
0.500000
 31
0.0
 11
-81.018290
 21
0.668103
 31
0.0
 11
-80.361531
 21
1.132502
 31
0.0
 11
-79.935450
 21
1.833333
 31
0.0
  0
SPLINE
  5
10f
100
AcDbEntity
  8
0
 62
7
100
AcDbSpline
 70
0
 71
3
 72
13
 73
9
 74
7
 40
0.000000
 40
0.000000
 40
0.000000
 40
0.000000
 40
2.255520
 40
4.467517
 40
6.723037
 40
8.978556
 40
11.190554
 40
13.446074
 40
13.446074
 40
13.446074
 40
13.446074
 10
-69.564550
 20
1.833333
 30
0.0
 10
-69.903198
 20
2.516716
 30
0.0
 10
-70.573959
 20
3.870296
 30
0.0
 10
-72.503079
 20
5.181888
 30
0.0
 10
-74.750000
 20
5.660605
 30
0.0
 10
-76.996921
 20
5.181888
 30
0.0
 10
-78.926041
 20
3.870296
 30
0.0
 10
-79.596802
 20
2.516716
 30
0.0
 10
-79.935450
 20
1.833333
 30
0.0
 11
-69.564550
 21
1.833333
 31
0.0
 11
-70.736274
 21
3.760619
 31
0.0
 11
-72.542363
 21
5.037717
 31
0.0
 11
-74.750000
 21
5.500000
 31
0.0
 11
-76.957637
 21
5.037717
 31
0.0
 11
-78.763726
 21
3.760619
 31
0.0
 11
-79.935450
 21
1.833333
 31
0.0
  0
LINE
  5
110
100
AcDbEntity
  8
0
 62
7
100
AcDbLine
 10
-67.000000
 20
0.500000
 30
0.0
 11
-67.678932
 21
0.500000
 31
0.0
  0
SPLINE
  5
111
100
AcDbEntity
  8
0
 62
7
100
AcDbSpline
 70
0
 71
3
 72
10
 73
6
 74
4
 40
0.000000
 40
0.000000
 40
0.000000
 40
0.000000
 40
0.820189
 40
1.624552
 40
2.444741
 40
2.444741
 40
2.444741
 40
2.444741
 10
-69.564550
 20
1.833333
 30
0.0
 10
-69.441406
 20
1.586126
 30
0.0
 10
-69.197493
 20
1.096482
 30
0.0
 10
-68.495994
 20
0.600448
 30
0.0
 10
-67.953049
 20
0.533700
 30
0.0
 10
-67.678932
 20
0.500000
 30
0.0
 11
-69.564550
 21
1.833333
 31
0.0
 11
-69.138469
 21
1.132502
 31
0.0
 11
-68.481709
 21
0.668103
 31
0.0
 11
-67.678932
 21
0.500000
 31
0.0
  0
LINE
  5
112
100
AcDbEntity
  8
0
 62
7
100
AcDbLine
 10
-65.000000
 20
27.500000
 30
0.0
 11
-65.000000
 21
2.500000
 31
0.0
  0
SPLINE
  5
113
100
AcDbEntity
  8
0
 62
7
100
AcDbSpline
 70
0
 71
3
 72
13
 73
9
 74
7
 40
0.000000
 40
0.000000
 40
0.000000
 40
0.000000
 40
0.523550
 40
1.042767
 40
1.566317
 40
2.089866
 40
2.609084
 40
3.132633
 40
3.132633
 40
3.132633
 40
3.132633
 10
-67.000000
 20
0.500000
 30
0.0
 10
-66.824974
 20
0.513333
 30
0.0
 10
-66.476369
 20
0.539887
 30
0.0
 10
-65.988687
 20
0.749738
 30
0.0
 10
-65.569004
 20
1.069004
 30
0.0
 10
-65.249738
 20
1.488687
 30
0.0
 10
-65.039887
 20
1.976369
 30
0.0
 10
-65.013333
 20
2.324974
 30
0.0
 10
-65.000000
 20
2.500000
 30
0.0
 11
-67.000000
 21
0.500000
 31
0.0
 11
-66.480954
 21
0.568521
 31
0.0
 11
-66.001259
 21
0.767217
 31
0.0
 11
-65.585787
 21
1.085786
 31
0.0
 11
-65.267217
 21
1.501259
 31
0.0
 11
-65.068521
 21
1.980954
 31
0.0
 11
-65.000000
 21
2.500000
 31
0.0
  0
LINE
  5
114
100
AcDbEntity
  8
0
 62
7
100
AcDbLine
 10
52.500000
 20
40.000000
 30
0.0
 11
-52.500000
 21
40.000000
 31
0.0
  0
SPLINE
  5
115
100
AcDbEntity
  8
0
 62
7
100
AcDbSpline
 70
0
 71
3
 72
13
 73
9
 74
7
 40
0.000000
 40
0.000000
 40
0.000000
 40
0.000000
 40
3.272186
 40
6.517294
 40
9.789480
 40
13.061666
 40
16.306773
 40
19.578959
 40
19.578959
 40
19.578959
 40
19.578959
 10
-52.500000
 20
40.000000
 30
0.0
 10
-53.593915
 20
39.916672
 30
0.0
 10
-55.772694
 20
39.750705
 30
0.0
 10
-58.820708
 20
38.439140
 30
0.0
 10
-61.443724
 20
36.443724
 30
0.0
 10
-63.439141
 20
33.820708
 30
0.0
 10
-64.750705
 20
30.772694
 30
0.0
 10
-64.916672
 20
28.593915
 30
0.0
 10
-65.000000
 20
27.500000
 30
0.0
 11
-52.500000
 21
40.000000
 31
0.0
 11
-55.744040
 21
39.571743
 31
0.0
 11
-58.742129
 21
38.329895
 31
0.0
 11
-61.338835
 21
36.338835
 31
0.0
 11
-63.329895
 21
33.742129
 31
0.0
 11
-64.571743
 21
30.744040
 31
0.0
 11
-65.000000
 21
27.500000
 31
0.0
  0
LINE
  5
116
100
AcDbEntity
  8
0
 62
7
100
AcDbLine
 10
65.000000
 20
2.500000
 30
0.0
 11
65.000000
 21
27.500000
 31
0.0
  0
SPLINE
  5
117
100
AcDbEntity
  8
0
 62
7
100
AcDbSpline
 70
0
 71
3
 72
13
 73
9
 74
7
 40
0.000000
 40
0.000000
 40
0.000000
 40
0.000000
 40
3.272186
 40
6.517294
 40
9.789480
 40
13.061666
 40
16.306773
 40
19.578959
 40
19.578959
 40
19.578959
 40
19.578959
 10
65.000000
 20
27.500000
 30
0.0
 10
64.916672
 20
28.593915
 30
0.0
 10
64.750705
 20
30.772694
 30
0.0
 10
63.439141
 20
33.820708
 30
0.0
 10
61.443724
 20
36.443724
 30
0.0
 10
58.820708
 20
38.439140
 30
0.0
 10
55.772694
 20
39.750705
 30
0.0
 10
53.593915
 20
39.916672
 30
0.0
 10
52.500000
 20
40.000000
 30
0.0
 11
65.000000
 21
27.500000
 31
0.0
 11
64.571743
 21
30.744040
 31
0.0
 11
63.329895
 21
33.742129
 31
0.0
 11
61.338835
 21
36.338835
 31
0.0
 11
58.742129
 21
38.329895
 31
0.0
 11
55.744040
 21
39.571743
 31
0.0
 11
52.500000
 21
40.000000
 31
0.0
  0
LINE
  5
118
100
AcDbEntity
  8
0
 62
7
100
AcDbLine
 10
67.678932
 20
0.500000
 30
0.0
 11
67.000000
 21
0.500000
 31
0.0
  0
SPLINE
  5
119
100
AcDbEntity
  8
0
 62
7
100
AcDbSpline
 70
0
 71
3
 72
13
 73
9
 74
7
 40
0.000000
 40
0.000000
 40
0.000000
 40
0.000000
 40
0.523550
 40
1.042767
 40
1.566317
 40
2.089866
 40
2.609084
 40
3.132633
 40
3.132633
 40
3.132633
 40
3.132633
 10
65.000000
 20
2.500000
 30
0.0
 10
65.013333
 20
2.324974
 30
0.0
 10
65.039887
 20
1.976369
 30
0.0
 10
65.249738
 20
1.488687
 30
0.0
 10
65.569004
 20
1.069004
 30
0.0
 10
65.988687
 20
0.749738
 30
0.0
 10
66.476369
 20
0.539887
 30
0.0
 10
66.824974
 20
0.513333
 30
0.0
 10
67.000000
 20
0.500000
 30
0.0
 11
65.000000
 21
2.500000
 31
0.0
 11
65.068521
 21
1.980954
 31
0.0
 11
65.267217
 21
1.501259
 31
0.0
 11
65.585787
 21
1.085786
 31
0.0
 11
66.001259
 21
0.767217
 31
0.0
 11
66.480954
 21
0.568521
 31
0.0
 11
67.000000
 21
0.500000
 31
0.0
  0
SPLINE
  5
11a
100
AcDbEntity
  8
0
 62
7
100
AcDbSpline
 70
0
 71
3
 72
10
 73
6
 74
4
 40
0.000000
 40
0.000000
 40
0.000000
 40
0.000000
 40
0.820189
 40
1.624552
 40
2.444741
 40
2.444741
 40
2.444741
 40
2.444741
 10
67.678932
 20
0.500000
 30
0.0
 10
67.953049
 20
0.533700
 30
0.0
 10
68.495994
 20
0.600448
 30
0.0
 10
69.197493
 20
1.096482
 30
0.0
 10
69.441406
 20
1.586126
 30
0.0
 10
69.564550
 20
1.833333
 30
0.0
 11
67.678932
 21
0.500000
 31
0.0
 11
68.481709
 21
0.668103
 31
0.0
 11
69.138469
 21
1.132502
 31
0.0
 11
69.564550
 21
1.833333
 31
0.0
  0
SPLINE
  5
11b
100
AcDbEntity
  8
0
 62
7
100
AcDbSpline
 70
0
 71
3
 72
13
 73
9
 74
7
 40
0.000000
 40
0.000000
 40
0.000000
 40
0.000000
 40
2.255520
 40
4.467517
 40
6.723037
 40
8.978556
 40
11.190554
 40
13.446074
 40
13.446074
 40
13.446074
 40
13.446074
 10
79.935450
 20
1.833333
 30
0.0
 10
79.596802
 20
2.516716
 30
0.0
 10
78.926041
 20
3.870296
 30
0.0
 10
76.996921
 20
5.181888
 30
0.0
 10
74.750000
 20
5.660605
 30
0.0
 10
72.503079
 20
5.181888
 30
0.0
 10
70.573959
 20
3.870296
 30
0.0
 10
69.903198
 20
2.516716
 30
0.0
 10
69.564550
 20
1.833333
 30
0.0
 11
79.935450
 21
1.833333
 31
0.0
 11
78.763726
 21
3.760619
 31
0.0
 11
76.957637
 21
5.037717
 31
0.0
 11
74.750000
 21
5.500000
 31
0.0
 11
72.542363
 21
5.037717
 31
0.0
 11
70.736274
 21
3.760619
 31
0.0
 11
69.564550
 21
1.833333
 31
0.0
  0
LINE
  5
11c
100
AcDbEntity
  8
0
 62
7
100
AcDbLine
 10
87.445644
 20
0.500000
 30
0.0
 11
81.821068
 21
0.500000
 31
0.0
  0
SPLINE
  5
11d
100
AcDbEntity
  8
0
 62
7
100
AcDbSpline
 70
0
 71
3
 72
10
 73
6
 74
4
 40
0.000000
 40
0.000000
 40
0.000000
 40
0.000000
 40
0.820189
 40
1.624552
 40
2.444741
 40
2.444741
 40
2.444741
 40
2.444741
 10
79.935450
 20
1.833333
 30
0.0
 10
80.058594
 20
1.586126
 30
0.0
 10
80.302507
 20
1.096482
 30
0.0
 10
81.004006
 20
0.600448
 30
0.0
 10
81.546951
 20
0.533700
 30
0.0
 10
81.821068
 20
0.500000
 30
0.0
 11
79.935450
 21
1.833333
 31
0.0
 11
80.361531
 21
1.132502
 31
0.0
 11
81.018290
 21
0.668103
 31
0.0
 11
81.821068
 21
0.500000
 31
0.0
  0
SPLINE
  5
11e
100
AcDbEntity
  8
0
 62
7
100
AcDbSpline
 70
0
 71
3
 72
10
 73
6
 74
4
 40
0.000000
 40
0.000000
 40
0.000000
 40
0.000000
 40
0.760370
 40
1.507975
 40
2.268345
 40
2.268345
 40
2.268345
 40
2.268345
 10
87.445644
 20
0.500000
 30
0.0
 10
87.699640
 20
0.528945
 30
0.0
 10
88.203367
 20
0.586348
 30
0.0
 10
88.869550
 20
1.013830
 30
0.0
 10
89.131619
 20
1.447830
 30
0.0
 10
89.263763
 20
1.666667
 30
0.0
 11
87.445644
 21
0.500000
 31
0.0
 11
88.192159
 21
0.644493
 31
0.0
 11
88.821362
 21
1.048246
 31
0.0
 11
89.263763
 21
1.666667
 31
0.0
  0
SPLINE
  5
11f
100
AcDbEntity
  8
0
 62
7
100
AcDbSpline
 70
0
 71
3
 72
13
 73
9
 74
7
 40
0.000000
 40
0.000000
 40
0.000000
 40
0.000000
 40
1.520740
 40
3.015949
 40
4.536690
 40
6.057430
 40
7.552639
 40
9.073379
 40
9.073379
 40
9.073379
 40
9.073379
 10
96.536237
 20
1.666667
 30
0.0
 10
96.271950
 20
2.106567
 30
0.0
 10
95.747811
 20
2.978982
 30
0.0
 10
94.415446
 20
3.801072
 30
0.0
 10
92.900000
 20
4.100306
 30
0.0
 10
91.384554
 20
3.801072
 30
0.0
 10
90.052189
 20
2.978982
 30
0.0
 10
89.528050
 20
2.106567
 30
0.0
 10
89.263763
 20
1.666667
 30
0.0
 11
96.536237
 21
1.666667
 31
0.0
 11
95.651436
 21
2.903508
 31
0.0
 11
94.393030
 21
3.711013
 31
0.0
 11
92.900000
 21
4.000000
 31
0.0
 11
91.406970
 21
3.711013
 31
0.0
 11
90.148564
 21
2.903508
 31
0.0
 11
89.263763
 21
1.666667
 31
0.0
  0
LINE
  5
120
100
AcDbEntity
  8
0
 62
7
100
AcDbLine
 10
99.300000
 20
0.500000
 30
0.0
 11
98.354356
 21
0.500000
 31
0.0
  0
SPLINE
  5
121
100
AcDbEntity
  8
0
 62
7
100
AcDbSpline
 70
0
 71
3
 72
10
 73
6
 74
4
 40
0.000000
 40
0.000000
 40
0.000000
 40
0.000000
 40
0.760370
 40
1.507975
 40
2.268345
 40
2.268345
 40
2.268345
 40
2.268345
 10
96.536237
 20
1.666667
 30
0.0
 10
96.668381
 20
1.447830
 30
0.0
 10
96.930451
 20
1.013830
 30
0.0
 10
97.596633
 20
0.586348
 30
0.0
 10
98.100360
 20
0.528945
 30
0.0
 10
98.354356
 20
0.500000
 30
0.0
 11
96.536237
 21
1.666667
 31
0.0
 11
96.978638
 21
1.048246
 31
0.0
 11
97.607841
 21
0.644493
 31
0.0
 11
98.354356
 21
0.500000
 31
0.0
  0
LINE
  5
122
100
AcDbEntity
  8
0
 62
7
100
AcDbLine
 10
101.300000
 20
2.500000
 30
0.0
 11
101.300000
 21
9.017123
 31
0.0
  0
SPLINE
  5
123
100
AcDbEntity
  8
0
 62
7
100
AcDbSpline
 70
0
 71
3
 72
13
 73
9
 74
7
 40
0.000000
 40
0.000000
 40
0.000000
 40
0.000000
 40
0.523550
 40
1.042767
 40
1.566317
 40
2.089866
 40
2.609084
 40
3.132633
 40
3.132633
 40
3.132633
 40
3.132633
 10
99.300000
 20
0.500000
 30
0.0
 10
99.475027
 20
0.513333
 30
0.0
 10
99.823631
 20
0.539887
 30
0.0
 10
100.311313
 20
0.749738
 30
0.0
 10
100.730996
 20
1.069004
 30
0.0
 10
101.050263
 20
1.488687
 30
0.0
 10
101.260113
 20
1.976369
 30
0.0
 10
101.286668
 20
2.324974
 30
0.0
 10
101.300000
 20
2.500000
 30
0.0
 11
99.300000
 21
0.500000
 31
0.0
 11
99.819047
 21
0.568521
 31
0.0
 11
100.298741
 21
0.767217
 31
0.0
 11
100.714214
 21
1.085786
 31
0.0
 11
101.032783
 21
1.501259
 31
0.0
 11
101.231479
 21
1.980954
 31
0.0
 11
101.300000
 21
2.500000
 31
0.0
  0
LINE
  5
124
100
AcDbEntity
  8
0
 62
7
100
AcDbLine
 10
93.300000
 20
17.017123
 30
0.0
 11
89.500000
 21
17.017123
 31
0.0
  0
SPLINE
  5
125
100
AcDbEntity
  8
0
 62
7
100
AcDbSpline
 70
0
 71
3
 72
10
 73
6
 74
4
 40
0.000000
 40
0.000000
 40
0.000000
 40
0.000000
 40
4.182873
 40
8.241683
 40
12.424557
 40
12.424557
 40
12.424557
 40
12.424557
 10
101.300000
 20
9.017123
 30
0.0
 10
101.079959
 20
10.418929
 30
0.0
 10
100.646402
 20
13.180965
 30
0.0
 10
97.463843
 20
16.363525
 30
0.0
 10
94.701807
 20
16.797081
 30
0.0
 10
93.300000
 20
17.017123
 30
0.0
 11
101.300000
 21
9.017123
 31
0.0
 11
100.207766
 21
13.054876
 31
0.0
 11
97.337753
 21
15.924888
 31
0.0
 11
93.300000
 21
17.017123
 31
0.0
  0
LINE
  5
126
100
AcDbEntity
  8
0
 62
7
100
AcDbLine
 10
84.500000
 20
22.017123
 30
0.0
 11
84.500000
 21
27.500000
 31
0.0
  0
SPLINE
  5
127
100
AcDbEntity
  8
0
 62
7
100
AcDbSpline
 70
0
 71
3
 72
13
 73
9
 74
7
 40
0.000000
 40
0.000000
 40
0.000000
 40
0.000000
 40
1.308874
 40
2.606917
 40
3.915792
 40
5.224666
 40
6.522709
 40
7.831583
 40
7.831583
 40
7.831583
 40
7.831583
 10
84.500000
 20
22.017123
 30
0.0
 10
84.533331
 20
21.579556
 30
0.0
 10
84.599718
 20
20.708045
 30
0.0
 10
85.124344
 20
19.488839
 30
0.0
 10
85.922510
 20
18.439633
 30
0.0
 10
86.971717
 20
17.641467
 30
0.0
 10
88.190922
 20
17.116841
 30
0.0
 10
89.062434
 20
17.050454
 30
0.0
 10
89.500000
 20
17.017123
 30
0.0
 11
84.500000
 21
22.017123
 31
0.0
 11
84.671303
 21
20.719507
 31
0.0
 11
85.168042
 21
19.520271
 31
0.0
 11
85.964466
 21
18.481589
 31
0.0
 11
87.003149
 21
17.685165
 31
0.0
 11
88.202384
 21
17.188425
 31
0.0
 11
89.500000
 21
17.017123
 31
0.0
  0
LINE
  5
128
100
AcDbEntity
  8
0
 62
7
100
AcDbLine
 10
52.500000
 20
59.500000
 30
0.0
 11
7.141428
 21
59.500000
 31
0.0
  0
SPLINE
  5
129
100
AcDbEntity
  8
0
 62
7
100
AcDbSpline
 70
0
 71
3
 72
13
 73
9
 74
7
 40
0.000000
 40
0.000000
 40
0.000000
 40
0.000000
 40
8.376796
 40
16.684271
 40
25.061068
 40
33.437864
 40
41.745339
 40
50.122135
 40
50.122135
 40
50.122135
 40
50.122135
 10
84.500000
 20
27.500000
 30
0.0
 10
84.286680
 20
30.300424
 30
0.0
 10
83.861806
 20
35.878097
 30
0.0
 10
80.504199
 20
43.681013
 30
0.0
 10
75.395933
 20
50.395933
 30
0.0
 10
68.681013
 20
55.504199
 30
0.0
 10
60.878097
 20
58.861806
 30
0.0
 10
55.300424
 20
59.286680
 30
0.0
 10
52.500000
 20
59.500000
 30
0.0
 11
84.500000
 21
27.500000
 31
0.0
 11
83.403663
 21
35.804743
 31
0.0
 11
80.224530
 21
43.479849
 31
0.0
 11
75.127417
 21
50.127417
 31
0.0
 11
68.479850
 21
55.224530
 31
0.0
 11
60.804743
 21
58.403663
 31
0.0
 11
52.500000
 21
59.500000
 31
0.0
  0
LINE
  5
12a
100
AcDbEntity
  8
0
 62
7
100
AcDbLine
 10
-38.350000
 20
50.000000
 30
0.0
 11
-38.350000
 21
50.000000
 31
0.0
  0
SPLINE
  5
12b
100
AcDbEntity
  8
0
 62
7
100
AcDbSpline
 70
0
 71
3
 72
25
 73
21
 74
19
 40
0.000000
 40
0.000000
 40
0.000000
 40
0.000000
 40
0.575942
 40
1.143638
 40
1.719580
 40
2.295522
 40
2.863218
 40
3.439160
 40
4.015102
 40
4.582798
 40
5.158740
 40
5.734682
 40
6.302378
 40
6.878320
 40
7.454262
 40
8.021958
 40
8.597900
 40
9.173842
 40
9.741538
 40
10.317480
 40
10.317480
 40
10.317480
 40
10.317480
 10
-38.350000
 20
50.000000
 30
0.0
 10
-38.369645
 20
50.192969
 30
0.0
 10
-38.408653
 20
50.576143
 30
0.0
 10
-38.712309
 20
51.082582
 30
0.0
 10
-39.157042
 20
51.459124
 30
0.0
 10
-39.707830
 20
51.658836
 30
0.0
 10
-40.292296
 20
51.658836
 30
0.0
 10
-40.842315
 20
51.459124
 30
0.0
 10
-41.290117
 20
51.082582
 30
0.0
 10
-41.582371
 20
50.576143
 30
0.0
 10
-41.684058
 20
50.000000
 30
0.0
 10
-41.582371
 20
49.423857
 30
0.0
 10
-41.290117
 20
48.917419
 30
0.0
 10
-40.842315
 20
48.540877
 30
0.0
 10
-40.292296
 20
48.341164
 30
0.0
 10
-39.707830
 20
48.341164
 30
0.0
 10
-39.157042
 20
48.540877
 30
0.0
 10
-38.712309
 20
48.917419
 30
0.0
 10
-38.408653
 20
49.423857
 30
0.0
 10
-38.369645
 20
49.807032
 30
0.0
 10
-38.350000
 20
50.000000
 30
0.0
 11
-38.350000
 21
50.000000
 31
0.0
 11
-38.450260
 21
50.567149
 31
0.0
 11
-38.733972
 21
51.058866
 31
0.0
 11
-39.174803
 21
51.429511
 31
0.0
 11
-39.716152
 21
51.626108
 31
0.0
 11
-40.283848
 21
51.626108
 31
0.0
 11
-40.825197
 21
51.429511
 31
0.0
 11
-41.266028
 21
51.058866
 31
0.0
 11
-41.549740
 21
50.567149
 31
0.0
 11
-41.650000
 21
50.000000
 31
0.0
 11
-41.549740
 21
49.432852
 31
0.0
 11
-41.266028
 21
48.941135
 31
0.0
 11
-40.825197
 21
48.570489
 31
0.0
 11
-40.283848
 21
48.373892
 31
0.0
 11
-39.716152
 21
48.373892
 31
0.0
 11
-39.174803
 21
48.570489
 31
0.0
 11
-38.733972
 21
48.941135
 31
0.0
 11
-38.450260
 21
49.432852
 31
0.0
 11
-38.350000
 21
50.000000
 31
0.0
  0
LINE
  5
12c
100
AcDbEntity
  8
0
 62
7
100
AcDbLine
 10
1.650000
 20
50.000000
 30
0.0
 11
1.650000
 21
50.000000
 31
0.0
  0
SPLINE
  5
12d
100
AcDbEntity
  8
0
 62
7
100
AcDbSpline
 70
0
 71
3
 72
25
 73
21
 74
19
 40
0.000000
 40
0.000000
 40
0.000000
 40
0.000000
 40
0.575791
 40
1.143341
 40
1.719132
 40
2.294923
 40
2.862473
 40
3.438264
 40
4.014055
 40
4.581605
 40
5.157396
 40
5.733187
 40
6.300737
 40
6.876528
 40
7.452319
 40
8.019869
 40
8.595660
 40
9.171451
 40
9.739001
 40
10.314792
 40
10.314792
 40
10.314792
 40
10.314792
 10
1.650000
 20
50.000000
 30
0.0
 10
1.630286
 20
50.192909
 30
0.0
 10
1.591140
 20
50.575967
 30
0.0
 10
1.287430
 20
51.082183
 30
0.0
 10
0.842747
 20
51.458542
 30
0.0
 10
0.292091
 20
51.658150
 30
0.0
 10
-0.292217
 20
51.658150
 30
0.0
 10
-0.842102
 20
51.458542
 30
0.0
 10
-1.289864
 20
51.082183
 30
0.0
 10
-1.582133
 20
50.575967
 30
0.0
 10
-1.684178
 20
50.000000
 30
0.0
 10
-1.582133
 20
49.424033
 30
0.0
 10
-1.289864
 20
48.917817
 30
0.0
 10
-0.842102
 20
48.541458
 30
0.0
 10
-0.292217
 20
48.341850
 30
0.0
 10
0.292091
 20
48.341850
 30
0.0
 10
0.842747
 20
48.541458
 30
0.0
 10
1.287430
 20
48.917817
 30
0.0
 10
1.591140
 20
49.424033
 30
0.0
 10
1.630286
 20
49.807091
 30
0.0
 10
1.650000
 20
50.000000
 30
0.0
 11
1.650000
 21
50.000000
 31
0.0
 11
1.549558
 21
50.566963
 31
0.0
 11
1.265783
 21
51.058476
 31
0.0
 11
0.825000
 21
51.428942
 31
0.0
 11
0.283775
 21
51.625438
 31
0.0
 11
-0.283775
 21
51.625438
 31
0.0
 11
-0.825000
 21
51.428942
 31
0.0
 11
-1.265783
 21
51.058476
 31
0.0
 11
-1.549558
 21
50.566963
 31
0.0
 11
-1.650000
 21
50.000000
 31
0.0
 11
-1.549558
 21
49.433038
 31
0.0
 11
-1.265783
 21
48.941525
 31
0.0
 11
-0.825000
 21
48.571058
 31
0.0
 11
-0.283775
 21
48.374562
 31
0.0
 11
0.283775
 21
48.374562
 31
0.0
 11
0.825000
 21
48.571058
 31
0.0
 11
1.265783
 21
48.941525
 31
0.0
 11
1.549558
 21
49.433038
 31
0.0
 11
1.650000
 21
50.000000
 31
0.0
  0
LINE
  5
12e
100
AcDbEntity
  8
0
 62
7
100
AcDbLine
 10
41.650000
 20
50.000000
 30
0.0
 11
41.650000
 21
50.000000
 31
0.0
  0
SPLINE
  5
12f
100
AcDbEntity
  8
0
 62
7
100
AcDbSpline
 70
0
 71
3
 72
25
 73
21
 74
19
 40
0.000000
 40
0.000000
 40
0.000000
 40
0.000000
 40
0.575942
 40
1.143638
 40
1.719580
 40
2.295522
 40
2.863218
 40
3.439160
 40
4.015102
 40
4.582798
 40
5.158740
 40
5.734682
 40
6.302378
 40
6.878320
 40
7.454262
 40
8.021958
 40
8.597900
 40
9.173842
 40
9.741538
 40
10.317480
 40
10.317480
 40
10.317480
 40
10.317480
 10
41.650000
 20
50.000000
 30
0.0
 10
41.630355
 20
50.192969
 30
0.0
 10
41.591347
 20
50.576143
 30
0.0
 10
41.287691
 20
51.082582
 30
0.0
 10
40.842958
 20
51.459124
 30
0.0
 10
40.292170
 20
51.658836
 30
0.0
 10
39.707704
 20
51.658836
 30
0.0
 10
39.157685
 20
51.459124
 30
0.0
 10
38.709883
 20
51.082582
 30
0.0
 10
38.417629
 20
50.576143
 30
0.0
 10
38.315942
 20
50.000000
 30
0.0
 10
38.417629
 20
49.423857
 30
0.0
 10
38.709883
 20
48.917419
 30
0.0
 10
39.157685
 20
48.540877
 30
0.0
 10
39.707704
 20
48.341164
 30
0.0
 10
40.292170
 20
48.341164
 30
0.0
 10
40.842958
 20
48.540877
 30
0.0
 10
41.287691
 20
48.917419
 30
0.0
 10
41.591347
 20
49.423857
 30
0.0
 10
41.630355
 20
49.807032
 30
0.0
 10
41.650000
 20
50.000000
 30
0.0
 11
41.650000
 21
50.000000
 31
0.0
 11
41.549740
 21
50.567149
 31
0.0
 11
41.266028
 21
51.058866
 31
0.0
 11
40.825197
 21
51.429511
 31
0.0
 11
40.283848
 21
51.626108
 31
0.0
 11
39.716152
 21
51.626108
 31
0.0
 11
39.174803
 21
51.429511
 31
0.0
 11
38.733972
 21
51.058866
 31
0.0
 11
38.450260
 21
50.567149
 31
0.0
 11
38.350000
 21
50.000000
 31
0.0
 11
38.450260
 21
49.432852
 31
0.0
 11
38.733972
 21
48.941135
 31
0.0
 11
39.174803
 21
48.570489
 31
0.0
 11
39.716152
 21
48.373892
 31
0.0
 11
40.283848
 21
48.373892
 31
0.0
 11
40.825197
 21
48.570489
 31
0.0
 11
41.266028
 21
48.941135
 31
0.0
 11
41.549740
 21
49.432852
 31
0.0
 11
41.650000
 21
50.000000
 31
0.0
  0
LINE
  5
130
100
AcDbEntity
  8
0
 62
7
100
AcDbLine
 10
76.650000
 20
19.000000
 30
0.0
 11
76.650000
 21
19.000000
 31
0.0
  0
SPLINE
  5
131
100
AcDbEntity
  8
0
 62
7
100
AcDbSpline
 70
0
 71
3
 72
25
 73
21
 74
19
 40
0.000000
 40
0.000000
 40
0.000000
 40
0.000000
 40
0.575942
 40
1.143638
 40
1.719580
 40
2.295522
 40
2.863218
 40
3.439160
 40
4.015102
 40
4.582798
 40
5.158740
 40
5.734682
 40
6.302378
 40
6.878320
 40
7.454262
 40
8.021958
 40
8.597900
 40
9.173842
 40
9.741538
 40
10.317480
 40
10.317480
 40
10.317480
 40
10.317480
 10
76.650000
 20
19.000000
 30
0.0
 10
76.630355
 20
19.192969
 30
0.0
 10
76.591347
 20
19.576143
 30
0.0
 10
76.287691
 20
20.082581
 30
0.0
 10
75.842958
 20
20.459124
 30
0.0
 10
75.292170
 20
20.658836
 30
0.0
 10
74.707704
 20
20.658836
 30
0.0
 10
74.157685
 20
20.459124
 30
0.0
 10
73.709883
 20
20.082581
 30
0.0
 10
73.417629
 20
19.576143
 30
0.0
 10
73.315942
 20
19.000000
 30
0.0
 10
73.417629
 20
18.423857
 30
0.0
 10
73.709883
 20
17.917419
 30
0.0
 10
74.157685
 20
17.540876
 30
0.0
 10
74.707704
 20
17.341164
 30
0.0
 10
75.292170
 20
17.341164
 30
0.0
 10
75.842958
 20
17.540876
 30
0.0
 10
76.287691
 20
17.917419
 30
0.0
 10
76.591347
 20
18.423857
 30
0.0
 10
76.630355
 20
18.807031
 30
0.0
 10
76.650000
 20
19.000000
 30
0.0
 11
76.650000
 21
19.000000
 31
0.0
 11
76.549740
 21
19.567148
 31
0.0
 11
76.266028
 21
20.058865
 31
0.0
 11
75.825197
 21
20.429511
 31
0.0
 11
75.283848
 21
20.626108
 31
0.0
 11
74.716152
 21
20.626108
 31
0.0
 11
74.174803
 21
20.429511
 31
0.0
 11
73.733972
 21
20.058865
 31
0.0
 11
73.450260
 21
19.567148
 31
0.0
 11
73.350000
 21
19.000000
 31
0.0
 11
73.450260
 21
18.432852
 31
0.0
 11
73.733972
 21
17.941135
 31
0.0
 11
74.174803
 21
17.570489
 31
0.0
 11
74.716152
 21
17.373892
 31
0.0
 11
75.283848
 21
17.373892
 31
0.0
 11
75.825197
 21
17.570489
 31
0.0
 11
76.266028
 21
17.941135
 31
0.0
 11
76.549740
 21
18.432852
 31
0.0
 11
76.650000
 21
19.000000
 31
0.0
  0
LINE
  5
132
100
AcDbEntity
  8
0
 62
7
100
AcDbLine
 10
-73.350000
 20
19.000000
 30
0.0
 11
-73.350000
 21
19.000000
 31
0.0
  0
SPLINE
  5
133
100
AcDbEntity
  8
0
 62
7
100
AcDbSpline
 70
0
 71
3
 72
25
 73
21
 74
19
 40
0.000000
 40
0.000000
 40
0.000000
 40
0.000000
 40
0.575942
 40
1.143638
 40
1.719580
 40
2.295522
 40
2.863218
 40
3.439160
 40
4.015102
 40
4.582798
 40
5.158740
 40
5.734682
 40
6.302378
 40
6.878320
 40
7.454262
 40
8.021958
 40
8.597900
 40
9.173842
 40
9.741538
 40
10.317480
 40
10.317480
 40
10.317480
 40
10.317480
 10
-73.350000
 20
19.000000
 30
0.0
 10
-73.369645
 20
19.192969
 30
0.0
 10
-73.408653
 20
19.576143
 30
0.0
 10
-73.712309
 20
20.082581
 30
0.0
 10
-74.157042
 20
20.459124
 30
0.0
 10
-74.707830
 20
20.658836
 30
0.0
 10
-75.292296
 20
20.658836
 30
0.0
 10
-75.842315
 20
20.459124
 30
0.0
 10
-76.290117
 20
20.082581
 30
0.0
 10
-76.582371
 20
19.576143
 30
0.0
 10
-76.684058
 20
19.000000
 30
0.0
 10
-76.582371
 20
18.423857
 30
0.0
 10
-76.290117
 20
17.917419
 30
0.0
 10
-75.842315
 20
17.540876
 30
0.0
 10
-75.292296
 20
17.341164
 30
0.0
 10
-74.707830
 20
17.341164
 30
0.0
 10
-74.157042
 20
17.540876
 30
0.0
 10
-73.712309
 20
17.917419
 30
0.0
 10
-73.408653
 20
18.423857
 30
0.0
 10
-73.369645
 20
18.807031
 30
0.0
 10
-73.350000
 20
19.000000
 30
0.0
 11
-73.350000
 21
19.000000
 31
0.0
 11
-73.450260
 21
19.567148
 31
0.0
 11
-73.733972
 21
20.058865
 31
0.0
 11
-74.174803
 21
20.429511
 31
0.0
 11
-74.716152
 21
20.626108
 31
0.0
 11
-75.283848
 21
20.626108
 31
0.0
 11
-75.825197
 21
20.429511
 31
0.0
 11
-76.266028
 21
20.058865
 31
0.0
 11
-76.549740
 21
19.567148
 31
0.0
 11
-76.650000
 21
19.000000
 31
0.0
 11
-76.549740
 21
18.432852
 31
0.0
 11
-76.266028
 21
17.941135
 31
0.0
 11
-75.825197
 21
17.570489
 31
0.0
 11
-75.283848
 21
17.373892
 31
0.0
 11
-74.716152
 21
17.373892
 31
0.0
 11
-74.174803
 21
17.570489
 31
0.0
 11
-73.733972
 21
17.941135
 31
0.0
 11
-73.450260
 21
18.432852
 31
0.0
 11
-73.350000
 21
19.000000
 31
0.0
  0
LINE
  5
134
100
AcDbEntity
  8
0
 62
7
100
AcDbLine
 10
-45.500000
 20
49.750000
 30
0.0
 11
-45.500000
 21
49.750000
 31
0.0
  0
SPLINE
  5
135
100
AcDbEntity
  8
0
 62
7
100
AcDbSpline
 70
0
 71
3
 72
25
 73
21
 74
19
 40
0.000000
 40
0.000000
 40
0.000000
 40
0.000000
 40
1.919303
 40
3.811137
 40
5.730440
 40
7.649742
 40
9.541577
 40
11.460879
 40
13.380182
 40
15.272016
 40
17.191319
 40
19.110622
 40
21.002456
 40
22.921759
 40
24.841061
 40
26.732896
 40
28.652198
 40
30.571501
 40
32.463335
 40
34.382638
 40
34.382638
 40
34.382638
 40
34.382638
 10
-45.500000
 20
49.750000
 30
0.0
 10
-45.565714
 20
50.393031
 30
0.0
 10
-45.696201
 20
51.669889
 30
0.0
 10
-46.708567
 20
53.357277
 30
0.0
 10
-48.190844
 20
54.611805
 30
0.0
 10
-50.026364
 20
55.277165
 30
0.0
 10
-51.974057
 20
55.277165
 30
0.0
 10
-53.807007
 20
54.611805
 30
0.0
 10
-55.299547
 20
53.357277
 30
0.0
 10
-56.273776
 20
51.669889
 30
0.0
 10
-56.613927
 20
49.750000
 30
0.0
 10
-56.273776
 20
47.830111
 30
0.0
 10
-55.299547
 20
46.142723
 30
0.0
 10
-53.807007
 20
44.888195
 30
0.0
 10
-51.974057
 20
44.222835
 30
0.0
 10
-50.026364
 20
44.222835
 30
0.0
 10
-48.190844
 20
44.888195
 30
0.0
 10
-46.708567
 20
46.142723
 30
0.0
 10
-45.696201
 20
47.830111
 30
0.0
 10
-45.565714
 20
49.106970
 30
0.0
 10
-45.500000
 20
49.750000
 30
0.0
 11
-45.500000
 21
49.750000
 31
0.0
 11
-45.834806
 21
51.639875
 31
0.0
 11
-46.780723
 21
53.278252
 31
0.0
 11
-48.250000
 21
54.513140
 31
0.0
 11
-50.054083
 21
55.168127
 31
0.0
 11
-51.945917
 21
55.168127
 31
0.0
 11
-53.750000
 21
54.513140
 31
0.0
 11
-55.219277
 21
53.278252
 31
0.0
 11
-56.165194
 21
51.639875
 31
0.0
 11
-56.500000
 21
49.750000
 31
0.0
 11
-56.165194
 21
47.860125
 31
0.0
 11
-55.219277
 21
46.221748
 31
0.0
 11
-53.750000
 21
44.986860
 31
0.0
 11
-51.945917
 21
44.331873
 31
0.0
 11
-50.054083
 21
44.331873
 31
0.0
 11
-48.250000
 21
44.986860
 31
0.0
 11
-46.780723
 21
46.221748
 31
0.0
 11
-45.834806
 21
47.860125
 31
0.0
 11
-45.500000
 21
49.750000
 31
0.0
  0
LINE
  5
136
100
AcDbEntity
  8
0
 62
7
100
AcDbLine
 10
-11.500000
 20
49.750000
 30
0.0
 11
-11.500000
 21
49.750000
 31
0.0
  0
SPLINE
  5
137
100
AcDbEntity
  8
0
 62
7
100
AcDbSpline
 70
0
 71
3
 72
25
 73
21
 74
19
 40
0.000000
 40
0.000000
 40
0.000000
 40
0.000000
 40
1.919303
 40
3.811137
 40
5.730440
 40
7.649742
 40
9.541577
 40
11.460879
 40
13.380182
 40
15.272016
 40
17.191319
 40
19.110622
 40
21.002456
 40
22.921759
 40
24.841061
 40
26.732896
 40
28.652198
 40
30.571501
 40
32.463335
 40
34.382638
 40
34.382638
 40
34.382638
 40
34.382638
 10
-11.500000
 20
49.750000
 30
0.0
 10
-11.565714
 20
50.393031
 30
0.0
 10
-11.696201
 20
51.669889
 30
0.0
 10
-12.708567
 20
53.357277
 30
0.0
 10
-14.190844
 20
54.611805
 30
0.0
 10
-16.026364
 20
55.277165
 30
0.0
 10
-17.974057
 20
55.277165
 30
0.0
 10
-19.807007
 20
54.611805
 30
0.0
 10
-21.299547
 20
53.357277
 30
0.0
 10
-22.273776
 20
51.669889
 30
0.0
 10
-22.613927
 20
49.750000
 30
0.0
 10
-22.273776
 20
47.830111
 30
0.0
 10
-21.299547
 20
46.142723
 30
0.0
 10
-19.807007
 20
44.888195
 30
0.0
 10
-17.974057
 20
44.222835
 30
0.0
 10
-16.026364
 20
44.222835
 30
0.0
 10
-14.190844
 20
44.888195
 30
0.0
 10
-12.708567
 20
46.142723
 30
0.0
 10
-11.696201
 20
47.830111
 30
0.0
 10
-11.565714
 20
49.106970
 30
0.0
 10
-11.500000
 20
49.750000
 30
0.0
 11
-11.500000
 21
49.750000
 31
0.0
 11
-11.834806
 21
51.639875
 31
0.0
 11
-12.780723
 21
53.278252
 31
0.0
 11
-14.250000
 21
54.513140
 31
0.0
 11
-16.054083
 21
55.168127
 31
0.0
 11
-17.945917
 21
55.168127
 31
0.0
 11
-19.750000
 21
54.513140
 31
0.0
 11
-21.219277
 21
53.278252
 31
0.0
 11
-22.165194
 21
51.639875
 31
0.0
 11
-22.500000
 21
49.750000
 31
0.0
 11
-22.165194
 21
47.860125
 31
0.0
 11
-21.219277
 21
46.221748
 31
0.0
 11
-19.750000
 21
44.986860
 31
0.0
 11
-17.945917
 21
44.331873
 31
0.0
 11
-16.054083
 21
44.331873
 31
0.0
 11
-14.250000
 21
44.986860
 31
0.0
 11
-12.780723
 21
46.221748
 31
0.0
 11
-11.834806
 21
47.860125
 31
0.0
 11
-11.500000
 21
49.750000
 31
0.0
  0
LINE
  5
138
100
AcDbEntity
  8
0
 62
7
100
AcDbLine
 10
22.500000
 20
49.750000
 30
0.0
 11
22.500000
 21
49.750000
 31
0.0
  0
SPLINE
  5
139
100
AcDbEntity
  8
0
 62
7
100
AcDbSpline
 70
0
 71
3
 72
25
 73
21
 74
19
 40
0.000000
 40
0.000000
 40
0.000000
 40
0.000000
 40
1.919303
 40
3.811137
 40
5.730440
 40
7.649742
 40
9.541577
 40
11.460879
 40
13.380182
 40
15.272016
 40
17.191319
 40
19.110622
 40
21.002456
 40
22.921759
 40
24.841061
 40
26.732896
 40
28.652198
 40
30.571501
 40
32.463335
 40
34.382638
 40
34.382638
 40
34.382638
 40
34.382638
 10
22.500000
 20
49.750000
 30
0.0
 10
22.434286
 20
50.393031
 30
0.0
 10
22.303799
 20
51.669889
 30
0.0
 10
21.291432
 20
53.357277
 30
0.0
 10
19.809156
 20
54.611805
 30
0.0
 10
17.973636
 20
55.277165
 30
0.0
 10
16.025942
 20
55.277165
 30
0.0
 10
14.192993
 20
54.611805
 30
0.0
 10
12.700452
 20
53.357277
 30
0.0
 10
11.726224
 20
51.669889
 30
0.0
 10
11.386072
 20
49.750000
 30
0.0
 10
11.726224
 20
47.830111
 30
0.0
 10
12.700452
 20
46.142723
 30
0.0
 10
14.192993
 20
44.888195
 30
0.0
 10
16.025942
 20
44.222835
 30
0.0
 10
17.973636
 20
44.222835
 30
0.0
 10
19.809156
 20
44.888195
 30
0.0
 10
21.291432
 20
46.142723
 30
0.0
 10
22.303799
 20
47.830111
 30
0.0
 10
22.434286
 20
49.106970
 30
0.0
 10
22.500000
 20
49.750000
 30
0.0
 11
22.500000
 21
49.750000
 31
0.0
 11
22.165194
 21
51.639875
 31
0.0
 11
21.219277
 21
53.278252
 31
0.0
 11
19.750000
 21
54.513140
 31
0.0
 11
17.945917
 21
55.168127
 31
0.0
 11
16.054083
 21
55.168127
 31
0.0
 11
14.250000
 21
54.513140
 31
0.0
 11
12.780723
 21
53.278252
 31
0.0
 11
11.834806
 21
51.639875
 31
0.0
 11
11.500000
 21
49.750000
 31
0.0
 11
11.834806
 21
47.860125
 31
0.0
 11
12.780723
 21
46.221748
 31
0.0
 11
14.250000
 21
44.986860
 31
0.0
 11
16.054083
 21
44.331873
 31
0.0
 11
17.945917
 21
44.331873
 31
0.0
 11
19.750000
 21
44.986860
 31
0.0
 11
21.219277
 21
46.221748
 31
0.0
 11
22.165194
 21
47.860125
 31
0.0
 11
22.500000
 21
49.750000
 31
0.0
  0
LINE
  5
13a
100
AcDbEntity
  8
0
 62
7
100
AcDbLine
 10
56.500000
 20
49.750000
 30
0.0
 11
56.500000
 21
49.750000
 31
0.0
  0
SPLINE
  5
13b
100
AcDbEntity
  8
0
 62
7
100
AcDbSpline
 70
0
 71
3
 72
25
 73
21
 74
19
 40
0.000000
 40
0.000000
 40
0.000000
 40
0.000000
 40
1.919303
 40
3.811137
 40
5.730440
 40
7.649742
 40
9.541577
 40
11.460879
 40
13.380182
 40
15.272016
 40
17.191319
 40
19.110622
 40
21.002456
 40
22.921759
 40
24.841061
 40
26.732896
 40
28.652198
 40
30.571501
 40
32.463335
 40
34.382638
 40
34.382638
 40
34.382638
 40
34.382638
 10
56.500000
 20
49.750000
 30
0.0
 10
56.434286
 20
50.393031
 30
0.0
 10
56.303799
 20
51.669889
 30
0.0
 10
55.291432
 20
53.357277
 30
0.0
 10
53.809156
 20
54.611805
 30
0.0
 10
51.973636
 20
55.277165
 30
0.0
 10
50.025942
 20
55.277165
 30
0.0
 10
48.192993
 20
54.611805
 30
0.0
 10
46.700452
 20
53.357277
 30
0.0
 10
45.726224
 20
51.669889
 30
0.0
 10
45.386072
 20
49.750000
 30
0.0
 10
45.726224
 20
47.830111
 30
0.0
 10
46.700452
 20
46.142723
 30
0.0
 10
48.192993
 20
44.888195
 30
0.0
 10
50.025942
 20
44.222835
 30
0.0
 10
51.973636
 20
44.222835
 30
0.0
 10
53.809156
 20
44.888195
 30
0.0
 10
55.291432
 20
46.142723
 30
0.0
 10
56.303799
 20
47.830111
 30
0.0
 10
56.434286
 20
49.106970
 30
0.0
 10
56.500000
 20
49.750000
 30
0.0
 11
56.500000
 21
49.750000
 31
0.0
 11
56.165194
 21
51.639875
 31
0.0
 11
55.219277
 21
53.278252
 31
0.0
 11
53.750000
 21
54.513140
 31
0.0
 11
51.945917
 21
55.168127
 31
0.0
 11
50.054083
 21
55.168127
 31
0.0
 11
48.250000
 21
54.513140
 31
0.0
 11
46.780723
 21
53.278252
 31
0.0
 11
45.834806
 21
51.639875
 31
0.0
 11
45.500000
 21
49.750000
 31
0.0
 11
45.834806
 21
47.860125
 31
0.0
 11
46.780723
 21
46.221748
 31
0.0
 11
48.250000
 21
44.986860
 31
0.0
 11
50.054083
 21
44.331873
 31
0.0
 11
51.945917
 21
44.331873
 31
0.0
 11
53.750000
 21
44.986860
 31
0.0
 11
55.219277
 21
46.221748
 31
0.0
 11
56.165194
 21
47.860125
 31
0.0
 11
56.500000
 21
49.750000
 31
0.0
  0
SPLINE
  5
13c
100
AcDbEntity
  8
0
 62
7
100
AcDbSpline
 70
0
 71
3
 72
16
 73
12
 74
10
 40
0.000000
 40
0.000000
 40
0.000000
 40
0.000000
 40
1.919579
 40
3.811679
 40
5.731258
 40
7.650837
 40
9.542936
 40
11.462515
 40
13.382094
 40
15.274194
 40
17.193773
 40
17.193773
 40
17.193773
 40
17.193773
 10
79.963911
 20
31.056556
 30
0.0
 10
79.898325
 20
31.699695
 30
0.0
 10
79.768091
 20
32.976766
 30
0.0
 10
78.755810
 20
34.664560
 30
0.0
 10
77.273494
 20
35.919424
 30
0.0
 10
75.437536
 20
36.584975
 30
0.0
 10
73.490287
 20
36.584975
 30
0.0
 10
71.654329
 20
35.919424
 30
0.0
 10
70.172013
 20
34.664560
 30
0.0
 10
69.159732
 20
32.976766
 30
0.0
 10
69.029498
 20
31.699695
 30
0.0
 10
68.963912
 20
31.056556
 30
0.0
 11
79.963911
 21
31.056556
 31
0.0
 11
79.629437
 21
32.946770
 31
0.0
 11
78.683635
 21
34.585520
 31
0.0
 11
77.214271
 21
35.820734
 31
0.0
 11
75.409961
 21
36.475905
 31
0.0
 11
73.517862
 21
36.475905
 31
0.0
 11
71.713552
 21
35.820734
 31
0.0
 11
70.244188
 21
34.585520
 31
0.0
 11
69.298386
 21
32.946770
 31
0.0
 11
68.963912
 21
31.056556
 31
0.0
  0
LINE
  5
13d
100
AcDbEntity
  8
0
 62
7
100
AcDbLine
 10
79.963911
 20
31.056556
 30
0.0
 11
79.963911
 21
31.056556
 31
0.0
  0
SPLINE
  5
13e
100
AcDbEntity
  8
0
 62
7
100
AcDbSpline
 70
0
 71
3
 72
16
 73
12
 74
10
 40
0.000000
 40
0.000000
 40
0.000000
 40
0.000000
 40
1.919579
 40
3.811679
 40
5.731258
 40
7.650837
 40
9.542936
 40
11.462515
 40
13.382094
 40
15.274194
 40
17.193773
 40
17.193773
 40
17.193773
 40
17.193773
 10
68.963912
 20
31.056556
 30
0.0
 10
69.029498
 20
30.413417
 30
0.0
 10
69.159732
 20
29.136346
 30
0.0
 10
70.172013
 20
27.448552
 30
0.0
 10
71.654329
 20
26.193688
 30
0.0
 10
73.490287
 20
25.528137
 30
0.0
 10
75.437536
 20
25.528137
 30
0.0
 10
77.273494
 20
26.193688
 30
0.0
 10
78.755810
 20
27.448552
 30
0.0
 10
79.768091
 20
29.136346
 30
0.0
 10
79.898325
 20
30.413417
 30
0.0
 10
79.963911
 20
31.056556
 30
0.0
 11
68.963912
 21
31.056556
 31
0.0
 11
69.298386
 21
29.166341
 31
0.0
 11
70.244188
 21
27.527592
 31
0.0
 11
71.713552
 21
26.292378
 31
0.0
 11
73.517862
 21
25.637206
 31
0.0
 11
75.409961
 21
25.637206
 31
0.0
 11
77.214271
 21
26.292378
 31
0.0
 11
78.683635
 21
27.527592
 31
0.0
 11
79.629437
 21
29.166341
 31
0.0
 11
79.963911
 21
31.056556
 31
0.0
  0
SPLINE
  5
13f
100
AcDbEntity
  8
0
 62
7
100
AcDbSpline
 70
0
 71
3
 72
16
 73
12
 74
10
 40
0.000000
 40
0.000000
 40
0.000000
 40
0.000000
 40
1.919579
 40
3.811679
 40
5.731258
 40
7.650837
 40
9.542936
 40
11.462515
 40
13.382094
 40
15.274194
 40
17.193773
 40
17.193773
 40
17.193773
 40
17.193773
 10
-68.963912
 20
31.056556
 30
0.0
 10
-69.029498
 20
31.699695
 30
0.0
 10
-69.159732
 20
32.976766
 30
0.0
 10
-70.172013
 20
34.664560
 30
0.0
 10
-71.654329
 20
35.919424
 30
0.0
 10
-73.490287
 20
36.584975
 30
0.0
 10
-75.437536
 20
36.584975
 30
0.0
 10
-77.273494
 20
35.919424
 30
0.0
 10
-78.755810
 20
34.664560
 30
0.0
 10
-79.768091
 20
32.976766
 30
0.0
 10
-79.898325
 20
31.699695
 30
0.0
 10
-79.963911
 20
31.056556
 30
0.0
 11
-68.963912
 21
31.056556
 31
0.0
 11
-69.298386
 21
32.946770
 31
0.0
 11
-70.244188
 21
34.585520
 31
0.0
 11
-71.713552
 21
35.820734
 31
0.0
 11
-73.517862
 21
36.475905
 31
0.0
 11
-75.409961
 21
36.475905
 31
0.0
 11
-77.214271
 21
35.820734
 31
0.0
 11
-78.683635
 21
34.585520
 31
0.0
 11
-79.629437
 21
32.946770
 31
0.0
 11
-79.963911
 21
31.056556
 31
0.0
  0
LINE
  5
140
100
AcDbEntity
  8
0
 62
7
100
AcDbLine
 10
-68.963912
 20
31.056556
 30
0.0
 11
-68.963912
 21
31.056556
 31
0.0
  0
SPLINE
  5
141
100
AcDbEntity
  8
0
 62
7
100
AcDbSpline
 70
0
 71
3
 72
16
 73
12
 74
10
 40
0.000000
 40
0.000000
 40
0.000000
 40
0.000000
 40
1.919579
 40
3.811679
 40
5.731258
 40
7.650837
 40
9.542936
 40
11.462515
 40
13.382094
 40
15.274194
 40
17.193773
 40
17.193773
 40
17.193773
 40
17.193773
 10
-79.963911
 20
31.056556
 30
0.0
 10
-79.898325
 20
30.413417
 30
0.0
 10
-79.768091
 20
29.136346
 30
0.0
 10
-78.755810
 20
27.448552
 30
0.0
 10
-77.273494
 20
26.193688
 30
0.0
 10
-75.437536
 20
25.528137
 30
0.0
 10
-73.490287
 20
25.528137
 30
0.0
 10
-71.654329
 20
26.193688
 30
0.0
 10
-70.172013
 20
27.448552
 30
0.0
 10
-69.159732
 20
29.136346
 30
0.0
 10
-69.029498
 20
30.413417
 30
0.0
 10
-68.963912
 20
31.056556
 30
0.0
 11
-79.963911
 21
31.056556
 31
0.0
 11
-79.629437
 21
29.166341
 31
0.0
 11
-78.683635
 21
27.527592
 31
0.0
 11
-77.214271
 21
26.292378
 31
0.0
 11
-75.409961
 21
25.637206
 31
0.0
 11
-73.517862
 21
25.637206
 31
0.0
 11
-71.713552
 21
26.292378
 31
0.0
 11
-70.244188
 21
27.527592
 31
0.0
 11
-69.298386
 21
29.166341
 31
0.0
 11
-68.963912
 21
31.056556
 31
0.0
  0
LINE
  5
142
100
AcDbEntity
  8
0
 62
7
100
AcDbLine
 10
7.141428
 20
-59.500000
 30
0.0
 11
52.500000
 21
-59.500000
 31
0.0
  0
SPLINE
  5
143
100
AcDbEntity
  8
0
 62
7
100
AcDbSpline
 70
0
 71
3
 72
13
 73
9
 74
7
 40
0.000000
 40
0.000000
 40
0.000000
 40
0.000000
 40
2.651068
 40
5.279656
 40
7.930725
 40
10.581793
 40
13.210381
 40
15.861450
 40
15.861450
 40
15.861450
 40
15.861450
 10
7.141428
 20
-59.500000
 30
0.0
 10
6.472152
 20
-58.914902
 30
0.0
 10
5.139274
 20
-57.749668
 30
0.0
 10
2.645720
 20
-56.742392
 30
0.0
 10
-0.000000
 20
-56.378288
 30
0.0
 10
-2.645720
 20
-56.742392
 30
0.0
 10
-5.139274
 20
-57.749668
 30
0.0
 10
-6.472152
 20
-58.914902
 30
0.0
 10
-7.141428
 20
-59.500000
 30
0.0
 11
7.141428
 21
-59.500000
 31
0.0
 11
5.051117
 21
-57.869429
 31
0.0
 11
2.627679
 21
-56.851381
 31
0.0
 11
0.000000
 21
-56.500000
 31
0.0
 11
-2.627679
 21
-56.851381
 31
0.0
 11
-5.051117
 21
-57.869429
 31
0.0
 11
-7.141428
 21
-59.500000
 31
0.0
  0
LINE
  5
144
100
AcDbEntity
  8
0
 62
7
100
AcDbLine
 10
84.500000
 20
-27.500000
 30
0.0
 11
84.500000
 21
-22.017123
 31
0.0
  0
SPLINE
  5
145
100
AcDbEntity
  8
0
 62
7
100
AcDbSpline
 70
0
 71
3
 72
13
 73
9
 74
7
 40
0.000000
 40
0.000000
 40
0.000000
 40
0.000000
 40
8.376796
 40
16.684271
 40
25.061068
 40
33.437864
 40
41.745339
 40
50.122135
 40
50.122135
 40
50.122135
 40
50.122135
 10
52.500000
 20
-59.500000
 30
0.0
 10
55.300424
 20
-59.286680
 30
0.0
 10
60.878097
 20
-58.861806
 30
0.0
 10
68.681013
 20
-55.504199
 30
0.0
 10
75.395933
 20
-50.395933
 30
0.0
 10
80.504199
 20
-43.681013
 30
0.0
 10
83.861806
 20
-35.878096
 30
0.0
 10
84.286680
 20
-30.300424
 30
0.0
 10
84.500000
 20
-27.500000
 30
0.0
 11
52.500000
 21
-59.500000
 31
0.0
 11
60.804743
 21
-58.403663
 31
0.0
 11
68.479850
 21
-55.224530
 31
0.0
 11
75.127417
 21
-50.127417
 31
0.0
 11
80.224530
 21
-43.479849
 31
0.0
 11
83.403663
 21
-35.804743
 31
0.0
 11
84.500000
 21
-27.500000
 31
0.0
  0
LINE
  5
146
100
AcDbEntity
  8
0
 62
7
100
AcDbLine
 10
89.500000
 20
-17.017123
 30
0.0
 11
93.300000
 21
-17.017123
 31
0.0
  0
SPLINE
  5
147
100
AcDbEntity
  8
0
 62
7
100
AcDbSpline
 70
0
 71
3
 72
13
 73
9
 74
7
 40
0.000000
 40
0.000000
 40
0.000000
 40
0.000000
 40
1.308874
 40
2.606917
 40
3.915792
 40
5.224666
 40
6.522709
 40
7.831583
 40
7.831583
 40
7.831583
 40
7.831583
 10
89.500000
 20
-17.017123
 30
0.0
 10
89.062434
 20
-17.050454
 30
0.0
 10
88.190922
 20
-17.116841
 30
0.0
 10
86.971717
 20
-17.641467
 30
0.0
 10
85.922510
 20
-18.439633
 30
0.0
 10
85.124344
 20
-19.488840
 30
0.0
 10
84.599718
 20
-20.708045
 30
0.0
 10
84.533331
 20
-21.579557
 30
0.0
 10
84.500000
 20
-22.017123
 30
0.0
 11
89.500000
 21
-17.017123
 31
0.0
 11
88.202384
 21
-17.188426
 31
0.0
 11
87.003149
 21
-17.685165
 31
0.0
 11
85.964466
 21
-18.481589
 31
0.0
 11
85.168042
 21
-19.520271
 31
0.0
 11
84.671303
 21
-20.719507
 31
0.0
 11
84.500000
 21
-22.017123
 31
0.0
  0
LINE
  5
148
100
AcDbEntity
  8
0
 62
7
100
AcDbLine
 10
101.300000
 20
-9.017123
 30
0.0
 11
101.300000
 21
-2.500000
 31
0.0
  0
SPLINE
  5
149
100
AcDbEntity
  8
0
 62
7
100
AcDbSpline
 70
0
 71
3
 72
10
 73
6
 74
4
 40
0.000000
 40
0.000000
 40
0.000000
 40
0.000000
 40
4.182873
 40
8.241683
 40
12.424557
 40
12.424557
 40
12.424557
 40
12.424557
 10
93.300000
 20
-17.017123
 30
0.0
 10
94.701807
 20
-16.797082
 30
0.0
 10
97.463843
 20
-16.363525
 30
0.0
 10
100.646402
 20
-13.180966
 30
0.0
 10
101.079959
 20
-10.418929
 30
0.0
 10
101.300000
 20
-9.017123
 30
0.0
 11
93.300000
 21
-17.017123
 31
0.0
 11
97.337753
 21
-15.924888
 31
0.0
 11
100.207766
 21
-13.054876
 31
0.0
 11
101.300000
 21
-9.017123
 31
0.0
  0
LINE
  5
14a
100
AcDbEntity
  8
0
 62
7
100
AcDbLine
 10
98.354356
 20
-0.500000
 30
0.0
 11
99.300000
 21
-0.500000
 31
0.0
  0
SPLINE
  5
14b
100
AcDbEntity
  8
0
 62
7
100
AcDbSpline
 70
0
 71
3
 72
13
 73
9
 74
7
 40
0.000000
 40
0.000000
 40
0.000000
 40
0.000000
 40
0.523550
 40
1.042767
 40
1.566317
 40
2.089866
 40
2.609084
 40
3.132633
 40
3.132633
 40
3.132633
 40
3.132633
 10
101.300000
 20
-2.500000
 30
0.0
 10
101.286668
 20
-2.324973
 30
0.0
 10
101.260113
 20
-1.976369
 30
0.0
 10
101.050263
 20
-1.488687
 30
0.0
 10
100.730996
 20
-1.069004
 30
0.0
 10
100.311313
 20
-0.749737
 30
0.0
 10
99.823631
 20
-0.539887
 30
0.0
 10
99.475027
 20
-0.513332
 30
0.0
 10
99.300000
 20
-0.500000
 30
0.0
 11
101.300000
 21
-2.500000
 31
0.0
 11
101.231479
 21
-1.980953
 31
0.0
 11
101.032783
 21
-1.501259
 31
0.0
 11
100.714214
 21
-1.085786
 31
0.0
 11
100.298741
 21
-0.767217
 31
0.0
 11
99.819047
 21
-0.568521
 31
0.0
 11
99.300000
 21
-0.500000
 31
0.0
  0
SPLINE
  5
14c
100
AcDbEntity
  8
0
 62
7
100
AcDbSpline
 70
0
 71
3
 72
10
 73
6
 74
4
 40
0.000000
 40
0.000000
 40
0.000000
 40
0.000000
 40
0.760370
 40
1.507975
 40
2.268345
 40
2.268345
 40
2.268345
 40
2.268345
 10
98.354356
 20
-0.500000
 30
0.0
 10
98.100360
 20
-0.528944
 30
0.0
 10
97.596633
 20
-0.586348
 30
0.0
 10
96.930451
 20
-1.013830
 30
0.0
 10
96.668381
 20
-1.447830
 30
0.0
 10
96.536237
 20
-1.666667
 30
0.0
 11
98.354356
 21
-0.500000
 31
0.0
 11
97.607841
 21
-0.644493
 31
0.0
 11
96.978638
 21
-1.048246
 31
0.0
 11
96.536237
 21
-1.666667
 31
0.0
  0
SPLINE
  5
14d
100
AcDbEntity
  8
0
 62
7
100
AcDbSpline
 70
0
 71
3
 72
13
 73
9
 74
7
 40
0.000000
 40
0.000000
 40
0.000000
 40
0.000000
 40
1.520740
 40
3.015949
 40
4.536690
 40
6.057430
 40
7.552639
 40
9.073379
 40
9.073379
 40
9.073379
 40
9.073379
 10
89.263763
 20
-1.666667
 30
0.0
 10
89.528050
 20
-2.106567
 30
0.0
 10
90.052189
 20
-2.978983
 30
0.0
 10
91.384554
 20
-3.801072
 30
0.0
 10
92.900000
 20
-4.100306
 30
0.0
 10
94.415446
 20
-3.801072
 30
0.0
 10
95.747811
 20
-2.978983
 30
0.0
 10
96.271950
 20
-2.106567
 30
0.0
 10
96.536237
 20
-1.666667
 30
0.0
 11
89.263763
 21
-1.666667
 31
0.0
 11
90.148564
 21
-2.903508
 31
0.0
 11
91.406970
 21
-3.711013
 31
0.0
 11
92.900000
 21
-4.000000
 31
0.0
 11
94.393030
 21
-3.711013
 31
0.0
 11
95.651436
 21
-2.903508
 31
0.0
 11
96.536237
 21
-1.666667
 31
0.0
  0
LINE
  5
14e
100
AcDbEntity
  8
0
 62
7
100
AcDbLine
 10
81.821068
 20
-0.500000
 30
0.0
 11
87.445644
 21
-0.500000
 31
0.0
  0
SPLINE
  5
14f
100
AcDbEntity
  8
0
 62
7
100
AcDbSpline
 70
0
 71
3
 72
10
 73
6
 74
4
 40
0.000000
 40
0.000000
 40
0.000000
 40
0.000000
 40
0.760370
 40
1.507975
 40
2.268345
 40
2.268345
 40
2.268345
 40
2.268345
 10
89.263763
 20
-1.666667
 30
0.0
 10
89.131619
 20
-1.447830
 30
0.0
 10
88.869550
 20
-1.013830
 30
0.0
 10
88.203367
 20
-0.586348
 30
0.0
 10
87.699640
 20
-0.528944
 30
0.0
 10
87.445644
 20
-0.500000
 30
0.0
 11
89.263763
 21
-1.666667
 31
0.0
 11
88.821362
 21
-1.048246
 31
0.0
 11
88.192159
 21
-0.644493
 31
0.0
 11
87.445644
 21
-0.500000
 31
0.0
  0
SPLINE
  5
150
100
AcDbEntity
  8
0
 62
7
100
AcDbSpline
 70
0
 71
3
 72
10
 73
6
 74
4
 40
0.000000
 40
0.000000
 40
0.000000
 40
0.000000
 40
0.820189
 40
1.624552
 40
2.444741
 40
2.444741
 40
2.444741
 40
2.444741
 10
81.821068
 20
-0.500000
 30
0.0
 10
81.546951
 20
-0.533699
 30
0.0
 10
81.004005
 20
-0.600448
 30
0.0
 10
80.302507
 20
-1.096482
 30
0.0
 10
80.058594
 20
-1.586126
 30
0.0
 10
79.935450
 20
-1.833333
 30
0.0
 11
81.821068
 21
-0.500000
 31
0.0
 11
81.018290
 21
-0.668103
 31
0.0
 11
80.361531
 21
-1.132502
 31
0.0
 11
79.935450
 21
-1.833333
 31
0.0
  0
SPLINE
  5
151
100
AcDbEntity
  8
0
 62
7
100
AcDbSpline
 70
0
 71
3
 72
13
 73
9
 74
7
 40
0.000000
 40
0.000000
 40
0.000000
 40
0.000000
 40
2.255520
 40
4.467517
 40
6.723037
 40
8.978556
 40
11.190554
 40
13.446074
 40
13.446074
 40
13.446074
 40
13.446074
 10
69.564550
 20
-1.833333
 30
0.0
 10
69.903198
 20
-2.516717
 30
0.0
 10
70.573959
 20
-3.870297
 30
0.0
 10
72.503079
 20
-5.181888
 30
0.0
 10
74.750000
 20
-5.660605
 30
0.0
 10
76.996921
 20
-5.181888
 30
0.0
 10
78.926041
 20
-3.870297
 30
0.0
 10
79.596802
 20
-2.516717
 30
0.0
 10
79.935450
 20
-1.833333
 30
0.0
 11
69.564550
 21
-1.833333
 31
0.0
 11
70.736274
 21
-3.760620
 31
0.0
 11
72.542363
 21
-5.037717
 31
0.0
 11
74.750000
 21
-5.500000
 31
0.0
 11
76.957637
 21
-5.037717
 31
0.0
 11
78.763726
 21
-3.760620
 31
0.0
 11
79.935450
 21
-1.833333
 31
0.0
  0
LINE
  5
152
100
AcDbEntity
  8
0
 62
7
100
AcDbLine
 10
67.000000
 20
-0.500000
 30
0.0
 11
67.678932
 21
-0.500000
 31
0.0
  0
SPLINE
  5
153
100
AcDbEntity
  8
0
 62
7
100
AcDbSpline
 70
0
 71
3
 72
10
 73
6
 74
4
 40
0.000000
 40
0.000000
 40
0.000000
 40
0.000000
 40
0.820189
 40
1.624552
 40
2.444741
 40
2.444741
 40
2.444741
 40
2.444741
 10
69.564550
 20
-1.833333
 30
0.0
 10
69.441406
 20
-1.586126
 30
0.0
 10
69.197493
 20
-1.096482
 30
0.0
 10
68.495994
 20
-0.600448
 30
0.0
 10
67.953049
 20
-0.533699
 30
0.0
 10
67.678932
 20
-0.500000
 30
0.0
 11
69.564550
 21
-1.833333
 31
0.0
 11
69.138469
 21
-1.132502
 31
0.0
 11
68.481709
 21
-0.668103
 31
0.0
 11
67.678932
 21
-0.500000
 31
0.0
  0
LINE
  5
154
100
AcDbEntity
  8
0
 62
7
100
AcDbLine
 10
65.000000
 20
-27.500000
 30
0.0
 11
65.000000
 21
-2.500000
 31
0.0
  0
SPLINE
  5
155
100
AcDbEntity
  8
0
 62
7
100
AcDbSpline
 70
0
 71
3
 72
13
 73
9
 74
7
 40
0.000000
 40
0.000000
 40
0.000000
 40
0.000000
 40
0.523550
 40
1.042767
 40
1.566317
 40
2.089866
 40
2.609084
 40
3.132633
 40
3.132633
 40
3.132633
 40
3.132633
 10
67.000000
 20
-0.500000
 30
0.0
 10
66.824974
 20
-0.513332
 30
0.0
 10
66.476369
 20
-0.539887
 30
0.0
 10
65.988687
 20
-0.749737
 30
0.0
 10
65.569004
 20
-1.069004
 30
0.0
 10
65.249738
 20
-1.488687
 30
0.0
 10
65.039887
 20
-1.976369
 30
0.0
 10
65.013333
 20
-2.324973
 30
0.0
 10
65.000000
 20
-2.500000
 30
0.0
 11
67.000000
 21
-0.500000
 31
0.0
 11
66.480954
 21
-0.568521
 31
0.0
 11
66.001259
 21
-0.767217
 31
0.0
 11
65.585787
 21
-1.085786
 31
0.0
 11
65.267217
 21
-1.501259
 31
0.0
 11
65.068521
 21
-1.980953
 31
0.0
 11
65.000000
 21
-2.500000
 31
0.0
  0
LINE
  5
156
100
AcDbEntity
  8
0
 62
7
100
AcDbLine
 10
-52.500000
 20
-40.000000
 30
0.0
 11
52.500000
 21
-40.000000
 31
0.0
  0
SPLINE
  5
157
100
AcDbEntity
  8
0
 62
7
100
AcDbSpline
 70
0
 71
3
 72
10
 73
6
 74
4
 40
0.000000
 40
0.000000
 40
0.000000
 40
0.000000
 40
6.535739
 40
12.877630
 40
19.413369
 40
19.413369
 40
19.413369
 40
19.413369
 10
52.500000
 20
-40.000000
 30
0.0
 10
54.690323
 20
-39.656185
 30
0.0
 10
59.006004
 20
-38.978754
 30
0.0
 10
63.978754
 20
-34.006004
 30
0.0
 10
64.656185
 20
-29.690323
 30
0.0
 10
65.000000
 20
-27.500000
 30
0.0
 11
52.500000
 21
-40.000000
 31
0.0
 11
58.808989
 21
-38.293384
 31
0.0
 11
63.293384
 21
-33.808989
 31
0.0
 11
65.000000
 21
-27.500000
 31
0.0
  0
LINE
  5
158
100
AcDbEntity
  8
0
 62
7
100
AcDbLine
 10
-65.000000
 20
-2.500000
 30
0.0
 11
-65.000000
 21
-27.500000
 31
0.0
  0
SPLINE
  5
159
100
AcDbEntity
  8
0
 62
7
100
AcDbSpline
 70
0
 71
3
 72
10
 73
6
 74
4
 40
0.000000
 40
0.000000
 40
0.000000
 40
0.000000
 40
6.535739
 40
12.877630
 40
19.413369
 40
19.413369
 40
19.413369
 40
19.413369
 10
-65.000000
 20
-27.500000
 30
0.0
 10
-64.656185
 20
-29.690323
 30
0.0
 10
-63.978754
 20
-34.006004
 30
0.0
 10
-59.006004
 20
-38.978754
 30
0.0
 10
-54.690323
 20
-39.656185
 30
0.0
 10
-52.500000
 20
-40.000000
 30
0.0
 11
-65.000000
 21
-27.500000
 31
0.0
 11
-63.293384
 21
-33.808989
 31
0.0
 11
-58.808989
 21
-38.293384
 31
0.0
 11
-52.500000
 21
-40.000000
 31
0.0
  0
LINE
  5
15a
100
AcDbEntity
  8
0
 62
7
100
AcDbLine
 10
-67.678932
 20
-0.500000
 30
0.0
 11
-67.000000
 21
-0.500000
 31
0.0
  0
SPLINE
  5
15b
100
AcDbEntity
  8
0
 62
7
100
AcDbSpline
 70
0
 71
3
 72
13
 73
9
 74
7
 40
0.000000
 40
0.000000
 40
0.000000
 40
0.000000
 40
0.523550
 40
1.042767
 40
1.566317
 40
2.089866
 40
2.609084
 40
3.132633
 40
3.132633
 40
3.132633
 40
3.132633
 10
-65.000000
 20
-2.500000
 30
0.0
 10
-65.013333
 20
-2.324973
 30
0.0
 10
-65.039887
 20
-1.976369
 30
0.0
 10
-65.249738
 20
-1.488687
 30
0.0
 10
-65.569004
 20
-1.069004
 30
0.0
 10
-65.988687
 20
-0.749737
 30
0.0
 10
-66.476369
 20
-0.539887
 30
0.0
 10
-66.824974
 20
-0.513332
 30
0.0
 10
-67.000000
 20
-0.500000
 30
0.0
 11
-65.000000
 21
-2.500000
 31
0.0
 11
-65.068521
 21
-1.980953
 31
0.0
 11
-65.267217
 21
-1.501259
 31
0.0
 11
-65.585787
 21
-1.085786
 31
0.0
 11
-66.001259
 21
-0.767217
 31
0.0
 11
-66.480954
 21
-0.568521
 31
0.0
 11
-67.000000
 21
-0.500000
 31
0.0
  0
SPLINE
  5
15c
100
AcDbEntity
  8
0
 62
7
100
AcDbSpline
 70
0
 71
3
 72
10
 73
6
 74
4
 40
0.000000
 40
0.000000
 40
0.000000
 40
0.000000
 40
0.820189
 40
1.624552
 40
2.444741
 40
2.444741
 40
2.444741
 40
2.444741
 10
-67.678932
 20
-0.500000
 30
0.0
 10
-67.953049
 20
-0.533699
 30
0.0
 10
-68.495994
 20
-0.600448
 30
0.0
 10
-69.197493
 20
-1.096482
 30
0.0
 10
-69.441406
 20
-1.586126
 30
0.0
 10
-69.564550
 20
-1.833333
 30
0.0
 11
-67.678932
 21
-0.500000
 31
0.0
 11
-68.481709
 21
-0.668103
 31
0.0
 11
-69.138469
 21
-1.132502
 31
0.0
 11
-69.564550
 21
-1.833333
 31
0.0
  0
SPLINE
  5
15d
100
AcDbEntity
  8
0
 62
7
100
AcDbSpline
 70
0
 71
3
 72
13
 73
9
 74
7
 40
0.000000
 40
0.000000
 40
0.000000
 40
0.000000
 40
2.255520
 40
4.467517
 40
6.723037
 40
8.978556
 40
11.190554
 40
13.446074
 40
13.446074
 40
13.446074
 40
13.446074
 10
-79.935450
 20
-1.833333
 30
0.0
 10
-79.596802
 20
-2.516717
 30
0.0
 10
-78.926041
 20
-3.870297
 30
0.0
 10
-76.996921
 20
-5.181888
 30
0.0
 10
-74.750000
 20
-5.660605
 30
0.0
 10
-72.503079
 20
-5.181888
 30
0.0
 10
-70.573959
 20
-3.870297
 30
0.0
 10
-69.903198
 20
-2.516717
 30
0.0
 10
-69.564550
 20
-1.833333
 30
0.0
 11
-79.935450
 21
-1.833333
 31
0.0
 11
-78.763726
 21
-3.760620
 31
0.0
 11
-76.957637
 21
-5.037717
 31
0.0
 11
-74.750000
 21
-5.500000
 31
0.0
 11
-72.542363
 21
-5.037717
 31
0.0
 11
-70.736274
 21
-3.760620
 31
0.0
 11
-69.564550
 21
-1.833333
 31
0.0
  0
LINE
  5
15e
100
AcDbEntity
  8
0
 62
7
100
AcDbLine
 10
-87.445644
 20
-0.500000
 30
0.0
 11
-81.821068
 21
-0.500000
 31
0.0
  0
SPLINE
  5
15f
100
AcDbEntity
  8
0
 62
7
100
AcDbSpline
 70
0
 71
3
 72
10
 73
6
 74
4
 40
0.000000
 40
0.000000
 40
0.000000
 40
0.000000
 40
0.820189
 40
1.624552
 40
2.444741
 40
2.444741
 40
2.444741
 40
2.444741
 10
-79.935450
 20
-1.833333
 30
0.0
 10
-80.058594
 20
-1.586126
 30
0.0
 10
-80.302507
 20
-1.096482
 30
0.0
 10
-81.004005
 20
-0.600448
 30
0.0
 10
-81.546951
 20
-0.533699
 30
0.0
 10
-81.821068
 20
-0.500000
 30
0.0
 11
-79.935450
 21
-1.833333
 31
0.0
 11
-80.361531
 21
-1.132502
 31
0.0
 11
-81.018290
 21
-0.668103
 31
0.0
 11
-81.821068
 21
-0.500000
 31
0.0
  0
SPLINE
  5
160
100
AcDbEntity
  8
0
 62
7
100
AcDbSpline
 70
0
 71
3
 72
10
 73
6
 74
4
 40
0.000000
 40
0.000000
 40
0.000000
 40
0.000000
 40
0.760370
 40
1.507975
 40
2.268345
 40
2.268345
 40
2.268345
 40
2.268345
 10
-87.445644
 20
-0.500000
 30
0.0
 10
-87.699640
 20
-0.528944
 30
0.0
 10
-88.203367
 20
-0.586348
 30
0.0
 10
-88.869550
 20
-1.013830
 30
0.0
 10
-89.131619
 20
-1.447830
 30
0.0
 10
-89.263763
 20
-1.666667
 30
0.0
 11
-87.445644
 21
-0.500000
 31
0.0
 11
-88.192159
 21
-0.644493
 31
0.0
 11
-88.821362
 21
-1.048246
 31
0.0
 11
-89.263763
 21
-1.666667
 31
0.0
  0
SPLINE
  5
161
100
AcDbEntity
  8
0
 62
7
100
AcDbSpline
 70
0
 71
3
 72
13
 73
9
 74
7
 40
0.000000
 40
0.000000
 40
0.000000
 40
0.000000
 40
1.520740
 40
3.015949
 40
4.536690
 40
6.057430
 40
7.552639
 40
9.073379
 40
9.073379
 40
9.073379
 40
9.073379
 10
-96.536237
 20
-1.666667
 30
0.0
 10
-96.271950
 20
-2.106567
 30
0.0
 10
-95.747811
 20
-2.978983
 30
0.0
 10
-94.415446
 20
-3.801072
 30
0.0
 10
-92.900000
 20
-4.100306
 30
0.0
 10
-91.384554
 20
-3.801072
 30
0.0
 10
-90.052189
 20
-2.978983
 30
0.0
 10
-89.528050
 20
-2.106567
 30
0.0
 10
-89.263763
 20
-1.666667
 30
0.0
 11
-96.536237
 21
-1.666667
 31
0.0
 11
-95.651436
 21
-2.903508
 31
0.0
 11
-94.393030
 21
-3.711013
 31
0.0
 11
-92.900000
 21
-4.000000
 31
0.0
 11
-91.406970
 21
-3.711013
 31
0.0
 11
-90.148564
 21
-2.903508
 31
0.0
 11
-89.263763
 21
-1.666667
 31
0.0
  0
LINE
  5
162
100
AcDbEntity
  8
0
 62
7
100
AcDbLine
 10
-99.300000
 20
-0.500000
 30
0.0
 11
-98.354356
 21
-0.500000
 31
0.0
  0
SPLINE
  5
163
100
AcDbEntity
  8
0
 62
7
100
AcDbSpline
 70
0
 71
3
 72
10
 73
6
 74
4
 40
0.000000
 40
0.000000
 40
0.000000
 40
0.000000
 40
0.760370
 40
1.507975
 40
2.268345
 40
2.268345
 40
2.268345
 40
2.268345
 10
-96.536237
 20
-1.666667
 30
0.0
 10
-96.668381
 20
-1.447830
 30
0.0
 10
-96.930451
 20
-1.013830
 30
0.0
 10
-97.596633
 20
-0.586348
 30
0.0
 10
-98.100360
 20
-0.528944
 30
0.0
 10
-98.354356
 20
-0.500000
 30
0.0
 11
-96.536237
 21
-1.666667
 31
0.0
 11
-96.978638
 21
-1.048246
 31
0.0
 11
-97.607841
 21
-0.644493
 31
0.0
 11
-98.354356
 21
-0.500000
 31
0.0
  0
LINE
  5
164
100
AcDbEntity
  8
0
 62
7
100
AcDbLine
 10
-101.300000
 20
-2.500000
 30
0.0
 11
-101.300000
 21
-9.017123
 31
0.0
  0
SPLINE
  5
165
100
AcDbEntity
  8
0
 62
7
100
AcDbSpline
 70
0
 71
3
 72
13
 73
9
 74
7
 40
0.000000
 40
0.000000
 40
0.000000
 40
0.000000
 40
0.523550
 40
1.042767
 40
1.566317
 40
2.089866
 40
2.609084
 40
3.132633
 40
3.132633
 40
3.132633
 40
3.132633
 10
-99.300000
 20
-0.500000
 30
0.0
 10
-99.475027
 20
-0.513332
 30
0.0
 10
-99.823631
 20
-0.539887
 30
0.0
 10
-100.311313
 20
-0.749737
 30
0.0
 10
-100.730996
 20
-1.069004
 30
0.0
 10
-101.050263
 20
-1.488687
 30
0.0
 10
-101.260113
 20
-1.976369
 30
0.0
 10
-101.286668
 20
-2.324973
 30
0.0
 10
-101.300000
 20
-2.500000
 30
0.0
 11
-99.300000
 21
-0.500000
 31
0.0
 11
-99.819047
 21
-0.568521
 31
0.0
 11
-100.298741
 21
-0.767217
 31
0.0
 11
-100.714214
 21
-1.085786
 31
0.0
 11
-101.032783
 21
-1.501259
 31
0.0
 11
-101.231479
 21
-1.980953
 31
0.0
 11
-101.300000
 21
-2.500000
 31
0.0
  0
LINE
  5
166
100
AcDbEntity
  8
0
 62
7
100
AcDbLine
 10
-93.300000
 20
-17.017123
 30
0.0
 11
-89.500000
 21
-17.017123
 31
0.0
  0
SPLINE
  5
167
100
AcDbEntity
  8
0
 62
7
100
AcDbSpline
 70
0
 71
3
 72
10
 73
6
 74
4
 40
0.000000
 40
0.000000
 40
0.000000
 40
0.000000
 40
4.182873
 40
8.241683
 40
12.424557
 40
12.424557
 40
12.424557
 40
12.424557
 10
-101.300000
 20
-9.017123
 30
0.0
 10
-101.079959
 20
-10.418929
 30
0.0
 10
-100.646402
 20
-13.180966
 30
0.0
 10
-97.463843
 20
-16.363525
 30
0.0
 10
-94.701807
 20
-16.797082
 30
0.0
 10
-93.300000
 20
-17.017123
 30
0.0
 11
-101.300000
 21
-9.017123
 31
0.0
 11
-100.207766
 21
-13.054876
 31
0.0
 11
-97.337753
 21
-15.924888
 31
0.0
 11
-93.300000
 21
-17.017123
 31
0.0
  0
LINE
  5
168
100
AcDbEntity
  8
0
 62
7
100
AcDbLine
 10
-84.500000
 20
-22.017123
 30
0.0
 11
-84.500000
 21
-27.500000
 31
0.0
  0
SPLINE
  5
169
100
AcDbEntity
  8
0
 62
7
100
AcDbSpline
 70
0
 71
3
 72
13
 73
9
 74
7
 40
0.000000
 40
0.000000
 40
0.000000
 40
0.000000
 40
1.308874
 40
2.606917
 40
3.915792
 40
5.224666
 40
6.522709
 40
7.831583
 40
7.831583
 40
7.831583
 40
7.831583
 10
-84.500000
 20
-22.017123
 30
0.0
 10
-84.533331
 20
-21.579557
 30
0.0
 10
-84.599718
 20
-20.708045
 30
0.0
 10
-85.124344
 20
-19.488840
 30
0.0
 10
-85.922510
 20
-18.439633
 30
0.0
 10
-86.971717
 20
-17.641467
 30
0.0
 10
-88.190922
 20
-17.116841
 30
0.0
 10
-89.062434
 20
-17.050454
 30
0.0
 10
-89.500000
 20
-17.017123
 30
0.0
 11
-84.500000
 21
-22.017123
 31
0.0
 11
-84.671303
 21
-20.719507
 31
0.0
 11
-85.168042
 21
-19.520271
 31
0.0
 11
-85.964466
 21
-18.481589
 31
0.0
 11
-87.003149
 21
-17.685165
 31
0.0
 11
-88.202384
 21
-17.188426
 31
0.0
 11
-89.500000
 21
-17.017123
 31
0.0
  0
LINE
  5
16a
100
AcDbEntity
  8
0
 62
7
100
AcDbLine
 10
-52.500000
 20
-59.500000
 30
0.0
 11
-7.141428
 21
-59.500000
 31
0.0
  0
SPLINE
  5
16b
100
AcDbEntity
  8
0
 62
7
100
AcDbSpline
 70
0
 71
3
 72
13
 73
9
 74
7
 40
0.000000
 40
0.000000
 40
0.000000
 40
0.000000
 40
8.376796
 40
16.684271
 40
25.061068
 40
33.437864
 40
41.745339
 40
50.122135
 40
50.122135
 40
50.122135
 40
50.122135
 10
-84.500000
 20
-27.500000
 30
0.0
 10
-84.286680
 20
-30.300424
 30
0.0
 10
-83.861806
 20
-35.878096
 30
0.0
 10
-80.504199
 20
-43.681013
 30
0.0
 10
-75.395933
 20
-50.395933
 30
0.0
 10
-68.681013
 20
-55.504199
 30
0.0
 10
-60.878097
 20
-58.861806
 30
0.0
 10
-55.300424
 20
-59.286680
 30
0.0
 10
-52.500000
 20
-59.500000
 30
0.0
 11
-84.500000
 21
-27.500000
 31
0.0
 11
-83.403663
 21
-35.804743
 31
0.0
 11
-80.224530
 21
-43.479849
 31
0.0
 11
-75.127417
 21
-50.127417
 31
0.0
 11
-68.479850
 21
-55.224530
 31
0.0
 11
-60.804743
 21
-58.403663
 31
0.0
 11
-52.500000
 21
-59.500000
 31
0.0
  0
SPLINE
  5
16c
100
AcDbEntity
  8
0
 62
7
100
AcDbSpline
 70
0
 71
3
 72
16
 73
12
 74
10
 40
0.000000
 40
0.000000
 40
0.000000
 40
0.000000
 40
1.919579
 40
3.811679
 40
5.731258
 40
7.650837
 40
9.542936
 40
11.462515
 40
13.382094
 40
15.274194
 40
17.193773
 40
17.193773
 40
17.193773
 40
17.193773
 10
-68.963912
 20
-31.056556
 30
0.0
 10
-69.029498
 20
-30.413417
 30
0.0
 10
-69.159732
 20
-29.136346
 30
0.0
 10
-70.172013
 20
-27.448552
 30
0.0
 10
-71.654329
 20
-26.193688
 30
0.0
 10
-73.490287
 20
-25.528137
 30
0.0
 10
-75.437536
 20
-25.528137
 30
0.0
 10
-77.273494
 20
-26.193688
 30
0.0
 10
-78.755810
 20
-27.448552
 30
0.0
 10
-79.768091
 20
-29.136346
 30
0.0
 10
-79.898325
 20
-30.413417
 30
0.0
 10
-79.963911
 20
-31.056556
 30
0.0
 11
-68.963912
 21
-31.056556
 31
0.0
 11
-69.298386
 21
-29.166341
 31
0.0
 11
-70.244188
 21
-27.527592
 31
0.0
 11
-71.713552
 21
-26.292378
 31
0.0
 11
-73.517862
 21
-25.637206
 31
0.0
 11
-75.409961
 21
-25.637206
 31
0.0
 11
-77.214271
 21
-26.292378
 31
0.0
 11
-78.683635
 21
-27.527592
 31
0.0
 11
-79.629437
 21
-29.166341
 31
0.0
 11
-79.963911
 21
-31.056556
 31
0.0
  0
LINE
  5
16d
100
AcDbEntity
  8
0
 62
7
100
AcDbLine
 10
-68.963912
 20
-31.056556
 30
0.0
 11
-68.963912
 21
-31.056556
 31
0.0
  0
SPLINE
  5
16e
100
AcDbEntity
  8
0
 62
7
100
AcDbSpline
 70
0
 71
3
 72
16
 73
12
 74
10
 40
0.000000
 40
0.000000
 40
0.000000
 40
0.000000
 40
1.919579
 40
3.811679
 40
5.731258
 40
7.650837
 40
9.542936
 40
11.462515
 40
13.382094
 40
15.274194
 40
17.193773
 40
17.193773
 40
17.193773
 40
17.193773
 10
-79.963911
 20
-31.056556
 30
0.0
 10
-79.898325
 20
-31.699695
 30
0.0
 10
-79.768091
 20
-32.976766
 30
0.0
 10
-78.755810
 20
-34.664560
 30
0.0
 10
-77.273494
 20
-35.919423
 30
0.0
 10
-75.437536
 20
-36.584975
 30
0.0
 10
-73.490287
 20
-36.584975
 30
0.0
 10
-71.654329
 20
-35.919423
 30
0.0
 10
-70.172013
 20
-34.664560
 30
0.0
 10
-69.159732
 20
-32.976766
 30
0.0
 10
-69.029498
 20
-31.699695
 30
0.0
 10
-68.963912
 20
-31.056556
 30
0.0
 11
-79.963911
 21
-31.056556
 31
0.0
 11
-79.629437
 21
-32.946770
 31
0.0
 11
-78.683635
 21
-34.585519
 31
0.0
 11
-77.214271
 21
-35.820734
 31
0.0
 11
-75.409961
 21
-36.475905
 31
0.0
 11
-73.517862
 21
-36.475905
 31
0.0
 11
-71.713552
 21
-35.820734
 31
0.0
 11
-70.244188
 21
-34.585519
 31
0.0
 11
-69.298386
 21
-32.946770
 31
0.0
 11
-68.963912
 21
-31.056556
 31
0.0
  0
LINE
  5
16f
100
AcDbEntity
  8
0
 62
7
100
AcDbLine
 10
-45.500000
 20
-49.750000
 30
0.0
 11
-45.500000
 21
-49.750000
 31
0.0
  0
SPLINE
  5
170
100
AcDbEntity
  8
0
 62
7
100
AcDbSpline
 70
0
 71
3
 72
25
 73
21
 74
19
 40
0.000000
 40
0.000000
 40
0.000000
 40
0.000000
 40
1.919303
 40
3.811137
 40
5.730440
 40
7.649742
 40
9.541577
 40
11.460879
 40
13.380182
 40
15.272016
 40
17.191319
 40
19.110622
 40
21.002456
 40
22.921759
 40
24.841061
 40
26.732896
 40
28.652198
 40
30.571501
 40
32.463335
 40
34.382638
 40
34.382638
 40
34.382638
 40
34.382638
 10
-45.500000
 20
-49.750000
 30
0.0
 10
-45.565714
 20
-49.106969
 30
0.0
 10
-45.696201
 20
-47.830111
 30
0.0
 10
-46.708567
 20
-46.142723
 30
0.0
 10
-48.190844
 20
-44.888195
 30
0.0
 10
-50.026364
 20
-44.222835
 30
0.0
 10
-51.974057
 20
-44.222835
 30
0.0
 10
-53.807007
 20
-44.888195
 30
0.0
 10
-55.299547
 20
-46.142723
 30
0.0
 10
-56.273776
 20
-47.830111
 30
0.0
 10
-56.613927
 20
-49.750000
 30
0.0
 10
-56.273776
 20
-51.669889
 30
0.0
 10
-55.299547
 20
-53.357276
 30
0.0
 10
-53.807007
 20
-54.611805
 30
0.0
 10
-51.974057
 20
-55.277165
 30
0.0
 10
-50.026364
 20
-55.277165
 30
0.0
 10
-48.190844
 20
-54.611805
 30
0.0
 10
-46.708567
 20
-53.357276
 30
0.0
 10
-45.696201
 20
-51.669889
 30
0.0
 10
-45.565714
 20
-50.393030
 30
0.0
 10
-45.500000
 20
-49.750000
 30
0.0
 11
-45.500000
 21
-49.750000
 31
0.0
 11
-45.834806
 21
-47.860125
 31
0.0
 11
-46.780723
 21
-46.221748
 31
0.0
 11
-48.250000
 21
-44.986860
 31
0.0
 11
-50.054083
 21
-44.331873
 31
0.0
 11
-51.945917
 21
-44.331873
 31
0.0
 11
-53.750000
 21
-44.986860
 31
0.0
 11
-55.219277
 21
-46.221748
 31
0.0
 11
-56.165194
 21
-47.860125
 31
0.0
 11
-56.500000
 21
-49.750000
 31
0.0
 11
-56.165194
 21
-51.639875
 31
0.0
 11
-55.219277
 21
-53.278252
 31
0.0
 11
-53.750000
 21
-54.513140
 31
0.0
 11
-51.945917
 21
-55.168127
 31
0.0
 11
-50.054083
 21
-55.168127
 31
0.0
 11
-48.250000
 21
-54.513140
 31
0.0
 11
-46.780723
 21
-53.278252
 31
0.0
 11
-45.834806
 21
-51.639875
 31
0.0
 11
-45.500000
 21
-49.750000
 31
0.0
  0
LINE
  5
171
100
AcDbEntity
  8
0
 62
7
100
AcDbLine
 10
-11.500000
 20
-49.750000
 30
0.0
 11
-11.500000
 21
-49.750000
 31
0.0
  0
SPLINE
  5
172
100
AcDbEntity
  8
0
 62
7
100
AcDbSpline
 70
0
 71
3
 72
25
 73
21
 74
19
 40
0.000000
 40
0.000000
 40
0.000000
 40
0.000000
 40
1.919303
 40
3.811137
 40
5.730440
 40
7.649742
 40
9.541577
 40
11.460879
 40
13.380182
 40
15.272016
 40
17.191319
 40
19.110622
 40
21.002456
 40
22.921759
 40
24.841061
 40
26.732896
 40
28.652198
 40
30.571501
 40
32.463335
 40
34.382638
 40
34.382638
 40
34.382638
 40
34.382638
 10
-11.500000
 20
-49.750000
 30
0.0
 10
-11.565714
 20
-49.106969
 30
0.0
 10
-11.696201
 20
-47.830111
 30
0.0
 10
-12.708567
 20
-46.142723
 30
0.0
 10
-14.190844
 20
-44.888195
 30
0.0
 10
-16.026364
 20
-44.222835
 30
0.0
 10
-17.974057
 20
-44.222835
 30
0.0
 10
-19.807007
 20
-44.888195
 30
0.0
 10
-21.299547
 20
-46.142723
 30
0.0
 10
-22.273776
 20
-47.830111
 30
0.0
 10
-22.613927
 20
-49.750000
 30
0.0
 10
-22.273776
 20
-51.669889
 30
0.0
 10
-21.299547
 20
-53.357276
 30
0.0
 10
-19.807007
 20
-54.611805
 30
0.0
 10
-17.974057
 20
-55.277165
 30
0.0
 10
-16.026364
 20
-55.277165
 30
0.0
 10
-14.190844
 20
-54.611805
 30
0.0
 10
-12.708567
 20
-53.357276
 30
0.0
 10
-11.696201
 20
-51.669889
 30
0.0
 10
-11.565714
 20
-50.393030
 30
0.0
 10
-11.500000
 20
-49.750000
 30
0.0
 11
-11.500000
 21
-49.750000
 31
0.0
 11
-11.834806
 21
-47.860125
 31
0.0
 11
-12.780723
 21
-46.221748
 31
0.0
 11
-14.250000
 21
-44.986860
 31
0.0
 11
-16.054083
 21
-44.331873
 31
0.0
 11
-17.945917
 21
-44.331873
 31
0.0
 11
-19.750000
 21
-44.986860
 31
0.0
 11
-21.219277
 21
-46.221748
 31
0.0
 11
-22.165194
 21
-47.860125
 31
0.0
 11
-22.500000
 21
-49.750000
 31
0.0
 11
-22.165194
 21
-51.639875
 31
0.0
 11
-21.219277
 21
-53.278252
 31
0.0
 11
-19.750000
 21
-54.513140
 31
0.0
 11
-17.945917
 21
-55.168127
 31
0.0
 11
-16.054083
 21
-55.168127
 31
0.0
 11
-14.250000
 21
-54.513140
 31
0.0
 11
-12.780723
 21
-53.278252
 31
0.0
 11
-11.834806
 21
-51.639875
 31
0.0
 11
-11.500000
 21
-49.750000
 31
0.0
  0
LINE
  5
173
100
AcDbEntity
  8
0
 62
7
100
AcDbLine
 10
22.500000
 20
-49.750000
 30
0.0
 11
22.500000
 21
-49.750000
 31
0.0
  0
SPLINE
  5
174
100
AcDbEntity
  8
0
 62
7
100
AcDbSpline
 70
0
 71
3
 72
25
 73
21
 74
19
 40
0.000000
 40
0.000000
 40
0.000000
 40
0.000000
 40
1.919303
 40
3.811137
 40
5.730440
 40
7.649742
 40
9.541577
 40
11.460879
 40
13.380182
 40
15.272016
 40
17.191319
 40
19.110622
 40
21.002456
 40
22.921759
 40
24.841061
 40
26.732896
 40
28.652198
 40
30.571501
 40
32.463335
 40
34.382638
 40
34.382638
 40
34.382638
 40
34.382638
 10
22.500000
 20
-49.750000
 30
0.0
 10
22.434286
 20
-49.106969
 30
0.0
 10
22.303799
 20
-47.830111
 30
0.0
 10
21.291432
 20
-46.142723
 30
0.0
 10
19.809156
 20
-44.888195
 30
0.0
 10
17.973636
 20
-44.222835
 30
0.0
 10
16.025942
 20
-44.222835
 30
0.0
 10
14.192993
 20
-44.888195
 30
0.0
 10
12.700452
 20
-46.142723
 30
0.0
 10
11.726224
 20
-47.830111
 30
0.0
 10
11.386072
 20
-49.750000
 30
0.0
 10
11.726224
 20
-51.669889
 30
0.0
 10
12.700452
 20
-53.357276
 30
0.0
 10
14.192993
 20
-54.611805
 30
0.0
 10
16.025942
 20
-55.277165
 30
0.0
 10
17.973636
 20
-55.277165
 30
0.0
 10
19.809156
 20
-54.611805
 30
0.0
 10
21.291432
 20
-53.357276
 30
0.0
 10
22.303799
 20
-51.669889
 30
0.0
 10
22.434286
 20
-50.393030
 30
0.0
 10
22.500000
 20
-49.750000
 30
0.0
 11
22.500000
 21
-49.750000
 31
0.0
 11
22.165194
 21
-47.860125
 31
0.0
 11
21.219277
 21
-46.221748
 31
0.0
 11
19.750000
 21
-44.986860
 31
0.0
 11
17.945917
 21
-44.331873
 31
0.0
 11
16.054083
 21
-44.331873
 31
0.0
 11
14.250000
 21
-44.986860
 31
0.0
 11
12.780723
 21
-46.221748
 31
0.0
 11
11.834806
 21
-47.860125
 31
0.0
 11
11.500000
 21
-49.750000
 31
0.0
 11
11.834806
 21
-51.639875
 31
0.0
 11
12.780723
 21
-53.278252
 31
0.0
 11
14.250000
 21
-54.513140
 31
0.0
 11
16.054083
 21
-55.168127
 31
0.0
 11
17.945917
 21
-55.168127
 31
0.0
 11
19.750000
 21
-54.513140
 31
0.0
 11
21.219277
 21
-53.278252
 31
0.0
 11
22.165194
 21
-51.639875
 31
0.0
 11
22.500000
 21
-49.750000
 31
0.0
  0
LINE
  5
175
100
AcDbEntity
  8
0
 62
7
100
AcDbLine
 10
56.500000
 20
-49.750000
 30
0.0
 11
56.500000
 21
-49.750000
 31
0.0
  0
SPLINE
  5
176
100
AcDbEntity
  8
0
 62
7
100
AcDbSpline
 70
0
 71
3
 72
25
 73
21
 74
19
 40
0.000000
 40
0.000000
 40
0.000000
 40
0.000000
 40
1.919303
 40
3.811137
 40
5.730440
 40
7.649742
 40
9.541577
 40
11.460879
 40
13.380182
 40
15.272016
 40
17.191319
 40
19.110622
 40
21.002456
 40
22.921759
 40
24.841061
 40
26.732896
 40
28.652198
 40
30.571501
 40
32.463335
 40
34.382638
 40
34.382638
 40
34.382638
 40
34.382638
 10
56.500000
 20
-49.750000
 30
0.0
 10
56.434286
 20
-49.106969
 30
0.0
 10
56.303799
 20
-47.830111
 30
0.0
 10
55.291432
 20
-46.142723
 30
0.0
 10
53.809156
 20
-44.888195
 30
0.0
 10
51.973636
 20
-44.222835
 30
0.0
 10
50.025942
 20
-44.222835
 30
0.0
 10
48.192993
 20
-44.888195
 30
0.0
 10
46.700452
 20
-46.142723
 30
0.0
 10
45.726224
 20
-47.830111
 30
0.0
 10
45.386072
 20
-49.750000
 30
0.0
 10
45.726224
 20
-51.669889
 30
0.0
 10
46.700452
 20
-53.357276
 30
0.0
 10
48.192993
 20
-54.611805
 30
0.0
 10
50.025942
 20
-55.277165
 30
0.0
 10
51.973636
 20
-55.277165
 30
0.0
 10
53.809156
 20
-54.611805
 30
0.0
 10
55.291432
 20
-53.357276
 30
0.0
 10
56.303799
 20
-51.669889
 30
0.0
 10
56.434286
 20
-50.393030
 30
0.0
 10
56.500000
 20
-49.750000
 30
0.0
 11
56.500000
 21
-49.750000
 31
0.0
 11
56.165194
 21
-47.860125
 31
0.0
 11
55.219277
 21
-46.221748
 31
0.0
 11
53.750000
 21
-44.986860
 31
0.0
 11
51.945917
 21
-44.331873
 31
0.0
 11
50.054083
 21
-44.331873
 31
0.0
 11
48.250000
 21
-44.986860
 31
0.0
 11
46.780723
 21
-46.221748
 31
0.0
 11
45.834806
 21
-47.860125
 31
0.0
 11
45.500000
 21
-49.750000
 31
0.0
 11
45.834806
 21
-51.639875
 31
0.0
 11
46.780723
 21
-53.278252
 31
0.0
 11
48.250000
 21
-54.513140
 31
0.0
 11
50.054083
 21
-55.168127
 31
0.0
 11
51.945917
 21
-55.168127
 31
0.0
 11
53.750000
 21
-54.513140
 31
0.0
 11
55.219277
 21
-53.278252
 31
0.0
 11
56.165194
 21
-51.639875
 31
0.0
 11
56.500000
 21
-49.750000
 31
0.0
  0
SPLINE
  5
177
100
AcDbEntity
  8
0
 62
7
100
AcDbSpline
 70
0
 71
3
 72
16
 73
12
 74
10
 40
0.000000
 40
0.000000
 40
0.000000
 40
0.000000
 40
1.919579
 40
3.811679
 40
5.731258
 40
7.650837
 40
9.542936
 40
11.462515
 40
13.382094
 40
15.274194
 40
17.193773
 40
17.193773
 40
17.193773
 40
17.193773
 10
79.963911
 20
-31.056556
 30
0.0
 10
79.898325
 20
-30.413417
 30
0.0
 10
79.768091
 20
-29.136346
 30
0.0
 10
78.755810
 20
-27.448552
 30
0.0
 10
77.273494
 20
-26.193688
 30
0.0
 10
75.437536
 20
-25.528137
 30
0.0
 10
73.490287
 20
-25.528137
 30
0.0
 10
71.654329
 20
-26.193688
 30
0.0
 10
70.172013
 20
-27.448552
 30
0.0
 10
69.159732
 20
-29.136346
 30
0.0
 10
69.029498
 20
-30.413417
 30
0.0
 10
68.963912
 20
-31.056556
 30
0.0
 11
79.963911
 21
-31.056556
 31
0.0
 11
79.629437
 21
-29.166341
 31
0.0
 11
78.683635
 21
-27.527592
 31
0.0
 11
77.214271
 21
-26.292378
 31
0.0
 11
75.409961
 21
-25.637206
 31
0.0
 11
73.517862
 21
-25.637206
 31
0.0
 11
71.713552
 21
-26.292378
 31
0.0
 11
70.244188
 21
-27.527592
 31
0.0
 11
69.298386
 21
-29.166341
 31
0.0
 11
68.963912
 21
-31.056556
 31
0.0
  0
LINE
  5
178
100
AcDbEntity
  8
0
 62
7
100
AcDbLine
 10
79.963911
 20
-31.056556
 30
0.0
 11
79.963911
 21
-31.056556
 31
0.0
  0
SPLINE
  5
179
100
AcDbEntity
  8
0
 62
7
100
AcDbSpline
 70
0
 71
3
 72
16
 73
12
 74
10
 40
0.000000
 40
0.000000
 40
0.000000
 40
0.000000
 40
1.919579
 40
3.811679
 40
5.731258
 40
7.650837
 40
9.542936
 40
11.462515
 40
13.382094
 40
15.274194
 40
17.193773
 40
17.193773
 40
17.193773
 40
17.193773
 10
68.963912
 20
-31.056556
 30
0.0
 10
69.029498
 20
-31.699695
 30
0.0
 10
69.159732
 20
-32.976766
 30
0.0
 10
70.172013
 20
-34.664560
 30
0.0
 10
71.654329
 20
-35.919423
 30
0.0
 10
73.490287
 20
-36.584975
 30
0.0
 10
75.437536
 20
-36.584975
 30
0.0
 10
77.273494
 20
-35.919423
 30
0.0
 10
78.755810
 20
-34.664560
 30
0.0
 10
79.768091
 20
-32.976766
 30
0.0
 10
79.898325
 20
-31.699695
 30
0.0
 10
79.963911
 20
-31.056556
 30
0.0
 11
68.963912
 21
-31.056556
 31
0.0
 11
69.298386
 21
-32.946770
 31
0.0
 11
70.244188
 21
-34.585519
 31
0.0
 11
71.713552
 21
-35.820734
 31
0.0
 11
73.517862
 21
-36.475905
 31
0.0
 11
75.409961
 21
-36.475905
 31
0.0
 11
77.214271
 21
-35.820734
 31
0.0
 11
78.683635
 21
-34.585519
 31
0.0
 11
79.629437
 21
-32.946770
 31
0.0
 11
79.963911
 21
-31.056556
 31
0.0
  0
LINE
  5
17a
100
AcDbEntity
  8
0
 62
7
100
AcDbLine
 10
-73.350000
 20
-19.000000
 30
0.0
 11
-73.350000
 21
-19.000000
 31
0.0
  0
SPLINE
  5
17b
100
AcDbEntity
  8
0
 62
7
100
AcDbSpline
 70
0
 71
3
 72
25
 73
21
 74
19
 40
0.000000
 40
0.000000
 40
0.000000
 40
0.000000
 40
0.575942
 40
1.143638
 40
1.719580
 40
2.295522
 40
2.863218
 40
3.439160
 40
4.015102
 40
4.582798
 40
5.158740
 40
5.734682
 40
6.302378
 40
6.878320
 40
7.454262
 40
8.021958
 40
8.597900
 40
9.173842
 40
9.741538
 40
10.317480
 40
10.317480
 40
10.317480
 40
10.317480
 10
-73.350000
 20
-19.000000
 30
0.0
 10
-73.369645
 20
-18.807031
 30
0.0
 10
-73.408653
 20
-18.423857
 30
0.0
 10
-73.712309
 20
-17.917418
 30
0.0
 10
-74.157042
 20
-17.540876
 30
0.0
 10
-74.707830
 20
-17.341164
 30
0.0
 10
-75.292296
 20
-17.341164
 30
0.0
 10
-75.842315
 20
-17.540876
 30
0.0
 10
-76.290117
 20
-17.917418
 30
0.0
 10
-76.582371
 20
-18.423857
 30
0.0
 10
-76.684058
 20
-19.000000
 30
0.0
 10
-76.582371
 20
-19.576143
 30
0.0
 10
-76.290117
 20
-20.082581
 30
0.0
 10
-75.842315
 20
-20.459123
 30
0.0
 10
-75.292296
 20
-20.658836
 30
0.0
 10
-74.707830
 20
-20.658836
 30
0.0
 10
-74.157042
 20
-20.459123
 30
0.0
 10
-73.712309
 20
-20.082581
 30
0.0
 10
-73.408653
 20
-19.576143
 30
0.0
 10
-73.369645
 20
-19.192968
 30
0.0
 10
-73.350000
 20
-19.000000
 30
0.0
 11
-73.350000
 21
-19.000000
 31
0.0
 11
-73.450260
 21
-18.432851
 31
0.0
 11
-73.733972
 21
-17.941134
 31
0.0
 11
-74.174803
 21
-17.570489
 31
0.0
 11
-74.716152
 21
-17.373892
 31
0.0
 11
-75.283848
 21
-17.373892
 31
0.0
 11
-75.825197
 21
-17.570489
 31
0.0
 11
-76.266028
 21
-17.941134
 31
0.0
 11
-76.549740
 21
-18.432851
 31
0.0
 11
-76.650000
 21
-19.000000
 31
0.0
 11
-76.549740
 21
-19.567148
 31
0.0
 11
-76.266028
 21
-20.058865
 31
0.0
 11
-75.825197
 21
-20.429511
 31
0.0
 11
-75.283848
 21
-20.626108
 31
0.0
 11
-74.716152
 21
-20.626108
 31
0.0
 11
-74.174803
 21
-20.429511
 31
0.0
 11
-73.733972
 21
-20.058865
 31
0.0
 11
-73.450260
 21
-19.567148
 31
0.0
 11
-73.350000
 21
-19.000000
 31
0.0
  0
LINE
  5
17c
100
AcDbEntity
  8
0
 62
7
100
AcDbLine
 10
-38.350000
 20
-50.000000
 30
0.0
 11
-38.350000
 21
-50.000000
 31
0.0
  0
SPLINE
  5
17d
100
AcDbEntity
  8
0
 62
7
100
AcDbSpline
 70
0
 71
3
 72
25
 73
21
 74
19
 40
0.000000
 40
0.000000
 40
0.000000
 40
0.000000
 40
0.575942
 40
1.143638
 40
1.719580
 40
2.295522
 40
2.863218
 40
3.439160
 40
4.015102
 40
4.582798
 40
5.158740
 40
5.734682
 40
6.302378
 40
6.878320
 40
7.454262
 40
8.021958
 40
8.597900
 40
9.173842
 40
9.741538
 40
10.317480
 40
10.317480
 40
10.317480
 40
10.317480
 10
-38.350000
 20
-50.000000
 30
0.0
 10
-38.369645
 20
-49.807031
 30
0.0
 10
-38.408653
 20
-49.423857
 30
0.0
 10
-38.712309
 20
-48.917419
 30
0.0
 10
-39.157042
 20
-48.540876
 30
0.0
 10
-39.707830
 20
-48.341164
 30
0.0
 10
-40.292296
 20
-48.341164
 30
0.0
 10
-40.842315
 20
-48.540876
 30
0.0
 10
-41.290117
 20
-48.917419
 30
0.0
 10
-41.582371
 20
-49.423857
 30
0.0
 10
-41.684058
 20
-50.000000
 30
0.0
 10
-41.582371
 20
-50.576143
 30
0.0
 10
-41.290117
 20
-51.082581
 30
0.0
 10
-40.842315
 20
-51.459124
 30
0.0
 10
-40.292296
 20
-51.658836
 30
0.0
 10
-39.707830
 20
-51.658836
 30
0.0
 10
-39.157042
 20
-51.459124
 30
0.0
 10
-38.712309
 20
-51.082581
 30
0.0
 10
-38.408653
 20
-50.576143
 30
0.0
 10
-38.369645
 20
-50.192969
 30
0.0
 10
-38.350000
 20
-50.000000
 30
0.0
 11
-38.350000
 21
-50.000000
 31
0.0
 11
-38.450260
 21
-49.432852
 31
0.0
 11
-38.733972
 21
-48.941135
 31
0.0
 11
-39.174803
 21
-48.570489
 31
0.0
 11
-39.716152
 21
-48.373892
 31
0.0
 11
-40.283848
 21
-48.373892
 31
0.0
 11
-40.825197
 21
-48.570489
 31
0.0
 11
-41.266028
 21
-48.941135
 31
0.0
 11
-41.549740
 21
-49.432852
 31
0.0
 11
-41.650000
 21
-50.000000
 31
0.0
 11
-41.549740
 21
-50.567148
 31
0.0
 11
-41.266028
 21
-51.058865
 31
0.0
 11
-40.825197
 21
-51.429511
 31
0.0
 11
-40.283848
 21
-51.626108
 31
0.0
 11
-39.716152
 21
-51.626108
 31
0.0
 11
-39.174803
 21
-51.429511
 31
0.0
 11
-38.733972
 21
-51.058865
 31
0.0
 11
-38.450260
 21
-50.567148
 31
0.0
 11
-38.350000
 21
-50.000000
 31
0.0
  0
LINE
  5
17e
100
AcDbEntity
  8
0
 62
7
100
AcDbLine
 10
1.650000
 20
-50.000000
 30
0.0
 11
1.650000
 21
-50.000000
 31
0.0
  0
SPLINE
  5
17f
100
AcDbEntity
  8
0
 62
7
100
AcDbSpline
 70
0
 71
3
 72
25
 73
21
 74
19
 40
0.000000
 40
0.000000
 40
0.000000
 40
0.000000
 40
0.575791
 40
1.143341
 40
1.719132
 40
2.294923
 40
2.862473
 40
3.438264
 40
4.014055
 40
4.581605
 40
5.157396
 40
5.733187
 40
6.300737
 40
6.876528
 40
7.452319
 40
8.019869
 40
8.595660
 40
9.171451
 40
9.739001
 40
10.314792
 40
10.314792
 40
10.314792
 40
10.314792
 10
1.650000
 20
-50.000000
 30
0.0
 10
1.630286
 20
-49.807091
 30
0.0
 10
1.591140
 20
-49.424033
 30
0.0
 10
1.287430
 20
-48.917817
 30
0.0
 10
0.842747
 20
-48.541458
 30
0.0
 10
0.292091
 20
-48.341850
 30
0.0
 10
-0.292217
 20
-48.341850
 30
0.0
 10
-0.842102
 20
-48.541458
 30
0.0
 10
-1.289864
 20
-48.917817
 30
0.0
 10
-1.582133
 20
-49.424033
 30
0.0
 10
-1.684178
 20
-50.000000
 30
0.0
 10
-1.582133
 20
-50.575967
 30
0.0
 10
-1.289864
 20
-51.082183
 30
0.0
 10
-0.842102
 20
-51.458542
 30
0.0
 10
-0.292217
 20
-51.658150
 30
0.0
 10
0.292091
 20
-51.658150
 30
0.0
 10
0.842747
 20
-51.458542
 30
0.0
 10
1.287430
 20
-51.082183
 30
0.0
 10
1.591140
 20
-50.575967
 30
0.0
 10
1.630286
 20
-50.192909
 30
0.0
 10
1.650000
 20
-50.000000
 30
0.0
 11
1.650000
 21
-50.000000
 31
0.0
 11
1.549558
 21
-49.433037
 31
0.0
 11
1.265783
 21
-48.941524
 31
0.0
 11
0.825000
 21
-48.571058
 31
0.0
 11
0.283775
 21
-48.374562
 31
0.0
 11
-0.283775
 21
-48.374562
 31
0.0
 11
-0.825000
 21
-48.571058
 31
0.0
 11
-1.265783
 21
-48.941524
 31
0.0
 11
-1.549558
 21
-49.433037
 31
0.0
 11
-1.650000
 21
-50.000000
 31
0.0
 11
-1.549558
 21
-50.566963
 31
0.0
 11
-1.265783
 21
-51.058476
 31
0.0
 11
-0.825000
 21
-51.428942
 31
0.0
 11
-0.283775
 21
-51.625438
 31
0.0
 11
0.283775
 21
-51.625438
 31
0.0
 11
0.825000
 21
-51.428942
 31
0.0
 11
1.265783
 21
-51.058476
 31
0.0
 11
1.549558
 21
-50.566963
 31
0.0
 11
1.650000
 21
-50.000000
 31
0.0
  0
LINE
  5
180
100
AcDbEntity
  8
0
 62
7
100
AcDbLine
 10
41.650000
 20
-50.000000
 30
0.0
 11
41.650000
 21
-50.000000
 31
0.0
  0
SPLINE
  5
181
100
AcDbEntity
  8
0
 62
7
100
AcDbSpline
 70
0
 71
3
 72
25
 73
21
 74
19
 40
0.000000
 40
0.000000
 40
0.000000
 40
0.000000
 40
0.575942
 40
1.143638
 40
1.719580
 40
2.295522
 40
2.863218
 40
3.439160
 40
4.015102
 40
4.582798
 40
5.158740
 40
5.734682
 40
6.302378
 40
6.878320
 40
7.454262
 40
8.021958
 40
8.597900
 40
9.173842
 40
9.741538
 40
10.317480
 40
10.317480
 40
10.317480
 40
10.317480
 10
41.650000
 20
-50.000000
 30
0.0
 10
41.630355
 20
-49.807031
 30
0.0
 10
41.591347
 20
-49.423857
 30
0.0
 10
41.287691
 20
-48.917419
 30
0.0
 10
40.842958
 20
-48.540876
 30
0.0
 10
40.292170
 20
-48.341164
 30
0.0
 10
39.707704
 20
-48.341164
 30
0.0
 10
39.157685
 20
-48.540876
 30
0.0
 10
38.709883
 20
-48.917419
 30
0.0
 10
38.417629
 20
-49.423857
 30
0.0
 10
38.315942
 20
-50.000000
 30
0.0
 10
38.417629
 20
-50.576143
 30
0.0
 10
38.709883
 20
-51.082581
 30
0.0
 10
39.157685
 20
-51.459124
 30
0.0
 10
39.707704
 20
-51.658836
 30
0.0
 10
40.292170
 20
-51.658836
 30
0.0
 10
40.842958
 20
-51.459124
 30
0.0
 10
41.287691
 20
-51.082581
 30
0.0
 10
41.591347
 20
-50.576143
 30
0.0
 10
41.630355
 20
-50.192969
 30
0.0
 10
41.650000
 20
-50.000000
 30
0.0
 11
41.650000
 21
-50.000000
 31
0.0
 11
41.549740
 21
-49.432852
 31
0.0
 11
41.266028
 21
-48.941135
 31
0.0
 11
40.825197
 21
-48.570489
 31
0.0
 11
40.283848
 21
-48.373892
 31
0.0
 11
39.716152
 21
-48.373892
 31
0.0
 11
39.174803
 21
-48.570489
 31
0.0
 11
38.733972
 21
-48.941135
 31
0.0
 11
38.450260
 21
-49.432852
 31
0.0
 11
38.350000
 21
-50.000000
 31
0.0
 11
38.450260
 21
-50.567148
 31
0.0
 11
38.733972
 21
-51.058865
 31
0.0
 11
39.174803
 21
-51.429511
 31
0.0
 11
39.716152
 21
-51.626108
 31
0.0
 11
40.283848
 21
-51.626108
 31
0.0
 11
40.825197
 21
-51.429511
 31
0.0
 11
41.266028
 21
-51.058865
 31
0.0
 11
41.549740
 21
-50.567148
 31
0.0
 11
41.650000
 21
-50.000000
 31
0.0
  0
LINE
  5
182
100
AcDbEntity
  8
0
 62
7
100
AcDbLine
 10
76.650000
 20
-19.000000
 30
0.0
 11
76.650000
 21
-19.000000
 31
0.0
  0
SPLINE
  5
183
100
AcDbEntity
  8
0
 62
7
100
AcDbSpline
 70
0
 71
3
 72
25
 73
21
 74
19
 40
0.000000
 40
0.000000
 40
0.000000
 40
0.000000
 40
0.575942
 40
1.143638
 40
1.719580
 40
2.295522
 40
2.863218
 40
3.439160
 40
4.015102
 40
4.582798
 40
5.158740
 40
5.734682
 40
6.302378
 40
6.878320
 40
7.454262
 40
8.021958
 40
8.597900
 40
9.173842
 40
9.741538
 40
10.317480
 40
10.317480
 40
10.317480
 40
10.317480
 10
76.650000
 20
-19.000000
 30
0.0
 10
76.630355
 20
-18.807031
 30
0.0
 10
76.591347
 20
-18.423857
 30
0.0
 10
76.287691
 20
-17.917418
 30
0.0
 10
75.842958
 20
-17.540876
 30
0.0
 10
75.292170
 20
-17.341164
 30
0.0
 10
74.707704
 20
-17.341164
 30
0.0
 10
74.157685
 20
-17.540876
 30
0.0
 10
73.709883
 20
-17.917418
 30
0.0
 10
73.417629
 20
-18.423857
 30
0.0
 10
73.315942
 20
-19.000000
 30
0.0
 10
73.417629
 20
-19.576143
 30
0.0
 10
73.709883
 20
-20.082581
 30
0.0
 10
74.157685
 20
-20.459123
 30
0.0
 10
74.707704
 20
-20.658836
 30
0.0
 10
75.292170
 20
-20.658836
 30
0.0
 10
75.842958
 20
-20.459123
 30
0.0
 10
76.287691
 20
-20.082581
 30
0.0
 10
76.591347
 20
-19.576143
 30
0.0
 10
76.630355
 20
-19.192968
 30
0.0
 10
76.650000
 20
-19.000000
 30
0.0
 11
76.650000
 21
-19.000000
 31
0.0
 11
76.549740
 21
-18.432851
 31
0.0
 11
76.266028
 21
-17.941134
 31
0.0
 11
75.825197
 21
-17.570489
 31
0.0
 11
75.283848
 21
-17.373892
 31
0.0
 11
74.716152
 21
-17.373892
 31
0.0
 11
74.174803
 21
-17.570489
 31
0.0
 11
73.733972
 21
-17.941134
 31
0.0
 11
73.450260
 21
-18.432851
 31
0.0
 11
73.350000
 21
-19.000000
 31
0.0
 11
73.450260
 21
-19.567148
 31
0.0
 11
73.733972
 21
-20.058865
 31
0.0
 11
74.174803
 21
-20.429511
 31
0.0
 11
74.716152
 21
-20.626108
 31
0.0
 11
75.283848
 21
-20.626108
 31
0.0
 11
75.825197
 21
-20.429511
 31
0.0
 11
76.266028
 21
-20.058865
 31
0.0
 11
76.549740
 21
-19.567148
 31
0.0
 11
76.650000
 21
-19.000000
 31
0.0
  0
ENDSEC
  0
SECTION
  2
OBJECTS
  0
DICTIONARY
  5
C
330
0
100
AcDbDictionary
  3
ACAD_GROUP
350
D
  3
ACAD_MLINESTYLE
350
17
  0
DICTIONARY
  5
D
330
C
100
AcDbDictionary
  0
DICTIONARY
  5
1A
330
C
100
AcDbDictionary
  0
DICTIONARY
  5
17
330
C
100
AcDbDictionary
  3
STANDARD
350
18
  0
DICTIONARY
  5
19
330
C
100
AcDbDictionary
  0
ENDSEC
  0
EOF
