  0
SECTION
  2
HEADER
  9
$ACADVER
  1
AC1014
  9
$HANDSEED
  5
FFFF
  9
$MEASUREMENT
 70
     1
  0
ENDSEC
  0
SECTION
  2
TABLES
  0
TABLE
  2
VPORT
  5
8
330
0
100
AcDbSymbolTable
 70
     4
  0
VPORT
  5
2E
330
8
100
AcDbSymbolTableRecord
100
AcDbViewportTableRecord
  2
*ACTIVE
 70
     0
 10
0.0
 20
0.0
 11
1.0
 21
1.0
 12
210.0
 22
148.5
 13
0.0
 23
0.0
 14
10.0
 24
10.0
 15
10.0
 25
10.0
 16
0.0
 26
0.0
 36
1.0
 17
0.0
 27
0.0
 37
0.0
 40
341.0
 41
1.24
 42
50.0
 43
0.0
 44
0.0
 50
0.0
 51
0.0
 71
     0
 72
   100
 73
     1
 74
     3
 75
     0
 76
     0
 77
     0
 78
     0
  0
ENDTAB
  0
TABLE
  2
LTYPE
  5
5
330
0
100
AcDbSymbolTable
 70
     1
  0
LTYPE
  5
14
330
5
100
AcDbSymbolTableRecord
100
AcDbLinetypeTableRecord
  2
BYBLOCK
 70
     0
  3

 72
    65
 73
     0
 40
0.0
  0
LTYPE
  5
15
330
5
100
AcDbSymbolTableRecord
100
AcDbLinetypeTableRecord
  2
BYLAYER
 70
     0
  3

 72
    65
 73
     0
 40
0.0
  0
LTYPE
  5
16
330
5
100
AcDbSymbolTableRecord
100
AcDbLinetypeTableRecord
  2
CONTINUOUS
 70
     0
  3
Solid line
 72
    65
 73
     0
 40
0.0
  0
ENDTAB
  0
TABLE
  2
LAYER
  5
2
100
AcDbSymbolTable
 70
1
  0
LAYER
  5
50
100
AcDbSymbolTableRecord
100
AcDbLayerTableRecord
  2
0
 70
0
  6
CONTINUOUS
  0
ENDTAB
  0
TABLE
  2
STYLE
  5
3
330
0
100
AcDbSymbolTable
 70
     1
  0
STYLE
  5
11
330
3
100
AcDbSymbolTableRecord
100
AcDbTextStyleTableRecord
  2
STANDARD
 70
     0
 40
0.0
 41
1.0
 50
0.0
 71
     0
 42
2.5
  3
txt
  4

  0
ENDTAB
  0
TABLE
  2
VIEW
  5
6
330
0
100
AcDbSymbolTable
 70
     0
  0
ENDTAB
  0
TABLE
  2
UCS
  5
7
330
0
100
AcDbSymbolTable
 70
     0
  0
ENDTAB
  0
TABLE
  2
APPID
  5
9
330
0
100
AcDbSymbolTable
 70
     2
  0
APPID
  5
12
330
9
100
AcDbSymbolTableRecord
100
AcDbRegAppTableRecord
  2
ACAD
 70
     0
  0
ENDTAB
  0
TABLE
  2
DIMSTYLE
  5
A
330
0
100
AcDbSymbolTable
 70
     1
  0
DIMSTYLE
105
27
330
A
100
AcDbSymbolTableRecord
100
AcDbDimStyleTableRecord
  2
ISO-25
 70
     0
  3

  4

  5

  6

  7

 40
1.0
 41
2.5
 42
0.625
 43
3.75
 44
1.25
 45
0.0
 46
0.0
 47
0.0
 48
0.0
140
2.5
141
2.5
142
0.0
143
0.03937007874016
144
1.0
145
0.0
146
1.0
147
0.625
 71
     0
 72
     0
 73
     0
 74
     0
 75
     0
 76
     0
 77
     1
 78
     8
170
     0
171
     3
172
     1
173
     0
174
     0
175
     0
176
     0
177
     0
178
     0
270
     2
271
     2
272
     2
273
     2
274
     3
340
11
275
     0
280
     0
281
     0
282
     0
283
     0
284
     8
285
     0
286
     0
287
     3
288
     0
  0
ENDTAB
  0
TABLE
  2
BLOCK_RECORD
  5
1
330
0
100
AcDbSymbolTable
 70
     1
  0
BLOCK_RECORD
  5
1F
330
1
100
AcDbSymbolTableRecord
100
AcDbBlockTableRecord
  2
*MODEL_SPACE
  0
BLOCK_RECORD
  5
1B
330
1
100
AcDbSymbolTableRecord
100
AcDbBlockTableRecord
  2
*PAPER_SPACE
  0
ENDTAB
  0
ENDSEC
  0
SECTION
  2
BLOCKS
  0
BLOCK
  5
20
330
1F
100
AcDbEntity
  8
0
100
AcDbBlockBegin
  2
*MODEL_SPACE
 70
     0
 10
0.0
 20
0.0
 30
0.0
  3
*MODEL_SPACE
  1

  0
ENDBLK
  5
21
330
1F
100
AcDbEntity
  8
0
100
AcDbBlockEnd
  0
BLOCK
  5
1C
330
1B
100
AcDbEntity
 67
     1
  8
0
100
AcDbBlockBegin
  2
*PAPER_SPACE
  1

  0
ENDBLK
  5
1D
330
1B
100
AcDbEntity
 67
     1
  8
0
100
AcDbBlockEnd
  0
ENDSEC
  0
SECTION
  2
ENTITIES
  0
LINE
  5
100
100
AcDbEntity
  8
0
 62
7
100
AcDbLine
 10
-7.141428
 20
59.500000
 30
0.0
 11
-52.500000
 21
59.500000
 31
0.0
  0
SPLINE
  5
101
100
AcDbEntity
  8
0
 62
7
100
AcDbSpline
 70
0
 71
3
 72
13
 73
9
 74
7
 40
0.000000
 40
0.000000
 40
0.000000
 40
0.000000
 40
2.651068
 40
5.279656
 40
7.930725
 40
10.581793
 40
13.210381
 40
15.861450
 40
15.861450
 40
15.861450
 40
15.861450
 10
-7.141428
 20
59.500000
 30
0.0
 10
-6.472152
 20
58.914902
 30
0.0
 10
-5.139274
 20
57.749668
 30
0.0
 10
-2.645720
 20
56.742392
 30
0.0
 10
0.000000
 20
56.378288
 30
0.0
 10
2.645720
 20
56.742392
 30
0.0
 10
5.139274
 20
57.749668
 30
0.0
 10
6.472152
 20
58.914902
 30
0.0
 10
7.141428
 20
59.500000
 30
0.0
 11
-7.141428
 21
59.500000
 31
0.0
 11
-5.051117
 21
57.869429
 31
0.0
 11
-2.627679
 21
56.851381
 31
0.0
 11
0.000000
 21
56.500000
 31
0.0
 11
2.627679
 21
56.851381
 31
0.0
 11
5.051117
 21
57.869429
 31
0.0
 11
7.141428
 21
59.500000
 31
0.0
  0
LINE
  5
102
100
AcDbEntity
  8
0
 62
7
100
AcDbLine
 10
-84.500000
 20
27.500000
 30
0.0
 11
-84.500000
 21
22.017123
 31
0.0
  0
SPLINE
  5
103
100
AcDbEntity
  8
0
 62
7
100
AcDbSpline
 70
0
 71
3
 72
13
 73
9
 74
7
 40
0.000000
 40
0.000000
 40
0.000000
 40
0.000000
 40
8.376796
 40
16.684271
 40
25.061068
 40
33.437864
 40
41.745339
 40
50.122135
 40
50.122135
 40
50.122135
 40
50.122135
 10
-52.500000
 20
59.500000
 30
0.0
 10
-55.300424
 20
59.286680
 30
0.0
 10
-60.878097
 20
58.861806
 30
0.0
 10
-68.681013
 20
55.504199
 30
0.0
 10
-75.395933
 20
50.395933
 30
0.0
 10
-80.504199
 20
43.681013
 30
0.0
 10
-83.861806
 20
35.878097
 30
0.0
 10
-84.286680
 20
30.300424
 30
0.0
 10
-84.500000
 20
27.500000
 30
0.0
 11
-52.500000
 21
59.500000
 31
0.0
 11
-60.804743
 21
58.403663
 31
0.0
 11
-68.479850
 21
55.224530
 31
0.0
 11
-75.127417
 21
50.127417
 31
0.0
 11
-80.224530
 21
43.479849
 31
0.0
 11
-83.403663
 21
35.804743
 31
0.0
 11
-84.500000
 21
27.500000
 31
0.0
  0
LINE
  5
104
100
AcDbEntity
  8
0
 62
7
100
AcDbLine
 10
-89.500000
 20
17.017123
 30
0.0
 11
-93.300000
 21
17.017123
 31
0.0
  0
SPLINE
  5
105
100
AcDbEntity
  8
0
 62
7
100
AcDbSpline
 70
0
 71
3
 72
13
 73
9
 74
7
 40
0.000000
 40
0.000000
 40
0.000000
 40
0.000000
 40
1.308874
 40
2.606917
 40
3.915792
 40
5.224666
 40
6.522709
 40
7.831583
 40
7.831583
 40
7.831583
 40
7.831583
 10
-89.500000
 20
17.017123
 30
0.0
 10
-89.062434
 20
17.050454
 30
0.0
 10
-88.190922
 20
17.116841
 30
0.0
 10
-86.971717
 20
17.641467
 30
0.0
 10
-85.922510
 20
18.439633
 30
0.0
 10
-85.124344
 20
19.488839
 30
0.0
 10
-84.599718
 20
20.708045
 30
0.0
 10
-84.533331
 20
21.579556
 30
0.0
 10
-84.500000
 20
22.017123
 30
0.0
 11
-89.500000
 21
17.017123
 31
0.0
 11
-88.202384
 21
17.188425
 31
0.0
 11
-87.003149
 21
17.685165
 31
0.0
 11
-85.964466
 21
18.481589
 31
0.0
 11
-85.168042
 21
19.520271
 31
0.0
 11
-84.671303
 21
20.719507
 31
0.0
 11
-84.500000
 21
22.017123
 31
0.0
  0
LINE
  5
106
100
AcDbEntity
  8
0
 62
7
100
AcDbLine
 10
-101.300000
 20
9.017123
 30
0.0
 11
-101.300000
 21
-9.017123
 31
0.0
  0
SPLINE
  5
107
100
AcDbEntity
  8
0
 62
7
100
AcDbSpline
 70
0
 71
3
 72
10
 73
6
 74
4
 40
0.000000
 40
0.000000
 40
0.000000
 40
0.000000
 40
4.182873
 40
8.241683
 40
12.424557
 40
12.424557
 40
12.424557
 40
12.424557
 10
-93.300000
 20
17.017123
 30
0.0
 10
-94.701807
 20
16.797081
 30
0.0
 10
-97.463843
 20
16.363525
 30
0.0
 10
-100.646402
 20
13.180965
 30
0.0
 10
-101.079959
 20
10.418929
 30
0.0
 10
-101.300000
 20
9.017123
 30
0.0
 11
-93.300000
 21
17.017123
 31
0.0
 11
-97.337753
 21
15.924888
 31
0.0
 11
-100.207766
 21
13.054876
 31
0.0
 11
-101.300000
 21
9.017123
 31
0.0
  0
LINE
  5
108
100
AcDbEntity
  8
0
 62
7
100
AcDbLine
 10
-93.300000
 20
-17.017123
 30
0.0
 11
-89.500000
 21
-17.017123
 31
0.0
  0
SPLINE
  5
109
100
AcDbEntity
  8
0
 62
7
100
AcDbSpline
 70
0
 71
3
 72
10
 73
6
 74
4
 40
0.000000
 40
0.000000
 40
0.000000
 40
0.000000
 40
4.182873
 40
8.241683
 40
12.424557
 40
12.424557
 40
12.424557
 40
12.424557
 10
-101.300000
 20
-9.017123
 30
0.0
 10
-101.079959
 20
-10.418929
 30
0.0
 10
-100.646402
 20
-13.180966
 30
0.0
 10
-97.463843
 20
-16.363525
 30
0.0
 10
-94.701807
 20
-16.797082
 30
0.0
 10
-93.300000
 20
-17.017123
 30
0.0
 11
-101.300000
 21
-9.017123
 31
0.0
 11
-100.207766
 21
-13.054876
 31
0.0
 11
-97.337753
 21
-15.924888
 31
0.0
 11
-93.300000
 21
-17.017123
 31
0.0
  0
LINE
  5
10a
100
AcDbEntity
  8
0
 62
7
100
AcDbLine
 10
-84.500000
 20
-22.017123
 30
0.0
 11
-84.500000
 21
-27.500000
 31
0.0
  0
SPLINE
  5
10b
100
AcDbEntity
  8
0
 62
7
100
AcDbSpline
 70
0
 71
3
 72
13
 73
9
 74
7
 40
0.000000
 40
0.000000
 40
0.000000
 40
0.000000
 40
1.308874
 40
2.606917
 40
3.915792
 40
5.224666
 40
6.522709
 40
7.831583
 40
7.831583
 40
7.831583
 40
7.831583
 10
-84.500000
 20
-22.017123
 30
0.0
 10
-84.533331
 20
-21.579557
 30
0.0
 10
-84.599718
 20
-20.708045
 30
0.0
 10
-85.124344
 20
-19.488840
 30
0.0
 10
-85.922510
 20
-18.439633
 30
0.0
 10
-86.971717
 20
-17.641467
 30
0.0
 10
-88.190922
 20
-17.116841
 30
0.0
 10
-89.062434
 20
-17.050454
 30
0.0
 10
-89.500000
 20
-17.017123
 30
0.0
 11
-84.500000
 21
-22.017123
 31
0.0
 11
-84.671303
 21
-20.719507
 31
0.0
 11
-85.168042
 21
-19.520271
 31
0.0
 11
-85.964466
 21
-18.481589
 31
0.0
 11
-87.003149
 21
-17.685165
 31
0.0
 11
-88.202384
 21
-17.188426
 31
0.0
 11
-89.500000
 21
-17.017123
 31
0.0
  0
LINE
  5
10c
100
AcDbEntity
  8
0
 62
7
100
AcDbLine
 10
-52.500000
 20
-59.500000
 30
0.0
 11
52.500000
 21
-59.500000
 31
0.0
  0
SPLINE
  5
10d
100
AcDbEntity
  8
0
 62
7
100
AcDbSpline
 70
0
 71
3
 72
13
 73
9
 74
7
 40
0.000000
 40
0.000000
 40
0.000000
 40
0.000000
 40
8.376796
 40
16.684271
 40
25.061068
 40
33.437864
 40
41.745339
 40
50.122135
 40
50.122135
 40
50.122135
 40
50.122135
 10
-84.500000
 20
-27.500000
 30
0.0
 10
-84.286680
 20
-30.300424
 30
0.0
 10
-83.861806
 20
-35.878096
 30
0.0
 10
-80.504199
 20
-43.681013
 30
0.0
 10
-75.395933
 20
-50.395933
 30
0.0
 10
-68.681013
 20
-55.504199
 30
0.0
 10
-60.878097
 20
-58.861806
 30
0.0
 10
-55.300424
 20
-59.286680
 30
0.0
 10
-52.500000
 20
-59.500000
 30
0.0
 11
-84.500000
 21
-27.500000
 31
0.0
 11
-83.403663
 21
-35.804743
 31
0.0
 11
-80.224530
 21
-43.479849
 31
0.0
 11
-75.127417
 21
-50.127417
 31
0.0
 11
-68.479850
 21
-55.224530
 31
0.0
 11
-60.804743
 21
-58.403663
 31
0.0
 11
-52.500000
 21
-59.500000
 31
0.0
  0
LINE
  5
10e
100
AcDbEntity
  8
0
 62
7
100
AcDbLine
 10
84.500000
 20
-27.500000
 30
0.0
 11
84.500000
 21
-22.017123
 31
0.0
  0
SPLINE
  5
10f
100
AcDbEntity
  8
0
 62
7
100
AcDbSpline
 70
0
 71
3
 72
13
 73
9
 74
7
 40
0.000000
 40
0.000000
 40
0.000000
 40
0.000000
 40
8.376796
 40
16.684271
 40
25.061068
 40
33.437864
 40
41.745339
 40
50.122135
 40
50.122135
 40
50.122135
 40
50.122135
 10
52.500000
 20
-59.500000
 30
0.0
 10
55.300424
 20
-59.286680
 30
0.0
 10
60.878097
 20
-58.861806
 30
0.0
 10
68.681013
 20
-55.504199
 30
0.0
 10
75.395933
 20
-50.395933
 30
0.0
 10
80.504199
 20
-43.681013
 30
0.0
 10
83.861806
 20
-35.878096
 30
0.0
 10
84.286680
 20
-30.300424
 30
0.0
 10
84.500000
 20
-27.500000
 30
0.0
 11
52.500000
 21
-59.500000
 31
0.0
 11
60.804743
 21
-58.403663
 31
0.0
 11
68.479850
 21
-55.224530
 31
0.0
 11
75.127417
 21
-50.127417
 31
0.0
 11
80.224530
 21
-43.479849
 31
0.0
 11
83.403663
 21
-35.804743
 31
0.0
 11
84.500000
 21
-27.500000
 31
0.0
  0
LINE
  5
110
100
AcDbEntity
  8
0
 62
7
100
AcDbLine
 10
89.500000
 20
-17.017123
 30
0.0
 11
93.300000
 21
-17.017123
 31
0.0
  0
SPLINE
  5
111
100
AcDbEntity
  8
0
 62
7
100
AcDbSpline
 70
0
 71
3
 72
13
 73
9
 74
7
 40
0.000000
 40
0.000000
 40
0.000000
 40
0.000000
 40
1.308874
 40
2.606917
 40
3.915792
 40
5.224666
 40
6.522709
 40
7.831583
 40
7.831583
 40
7.831583
 40
7.831583
 10
89.500000
 20
-17.017123
 30
0.0
 10
89.062434
 20
-17.050454
 30
0.0
 10
88.190922
 20
-17.116841
 30
0.0
 10
86.971717
 20
-17.641467
 30
0.0
 10
85.922510
 20
-18.439633
 30
0.0
 10
85.124344
 20
-19.488840
 30
0.0
 10
84.599718
 20
-20.708045
 30
0.0
 10
84.533331
 20
-21.579557
 30
0.0
 10
84.500000
 20
-22.017123
 30
0.0
 11
89.500000
 21
-17.017123
 31
0.0
 11
88.202384
 21
-17.188426
 31
0.0
 11
87.003149
 21
-17.685165
 31
0.0
 11
85.964466
 21
-18.481589
 31
0.0
 11
85.168042
 21
-19.520271
 31
0.0
 11
84.671303
 21
-20.719507
 31
0.0
 11
84.500000
 21
-22.017123
 31
0.0
  0
LINE
  5
112
100
AcDbEntity
  8
0
 62
7
100
AcDbLine
 10
101.300000
 20
-9.017123
 30
0.0
 11
101.300000
 21
9.017123
 31
0.0
  0
SPLINE
  5
113
100
AcDbEntity
  8
0
 62
7
100
AcDbSpline
 70
0
 71
3
 72
10
 73
6
 74
4
 40
0.000000
 40
0.000000
 40
0.000000
 40
0.000000
 40
4.182873
 40
8.241683
 40
12.424557
 40
12.424557
 40
12.424557
 40
12.424557
 10
93.300000
 20
-17.017123
 30
0.0
 10
94.701807
 20
-16.797082
 30
0.0
 10
97.463843
 20
-16.363525
 30
0.0
 10
100.646402
 20
-13.180966
 30
0.0
 10
101.079959
 20
-10.418929
 30
0.0
 10
101.300000
 20
-9.017123
 30
0.0
 11
93.300000
 21
-17.017123
 31
0.0
 11
97.337753
 21
-15.924888
 31
0.0
 11
100.207766
 21
-13.054876
 31
0.0
 11
101.300000
 21
-9.017123
 31
0.0
  0
LINE
  5
114
100
AcDbEntity
  8
0
 62
7
100
AcDbLine
 10
93.300000
 20
17.017123
 30
0.0
 11
89.500000
 21
17.017123
 31
0.0
  0
SPLINE
  5
115
100
AcDbEntity
  8
0
 62
7
100
AcDbSpline
 70
0
 71
3
 72
10
 73
6
 74
4
 40
0.000000
 40
0.000000
 40
0.000000
 40
0.000000
 40
4.182873
 40
8.241683
 40
12.424557
 40
12.424557
 40
12.424557
 40
12.424557
 10
101.300000
 20
9.017123
 30
0.0
 10
101.079959
 20
10.418929
 30
0.0
 10
100.646402
 20
13.180965
 30
0.0
 10
97.463843
 20
16.363525
 30
0.0
 10
94.701807
 20
16.797081
 30
0.0
 10
93.300000
 20
17.017123
 30
0.0
 11
101.300000
 21
9.017123
 31
0.0
 11
100.207766
 21
13.054876
 31
0.0
 11
97.337753
 21
15.924888
 31
0.0
 11
93.300000
 21
17.017123
 31
0.0
  0
LINE
  5
116
100
AcDbEntity
  8
0
 62
7
100
AcDbLine
 10
84.500000
 20
22.017123
 30
0.0
 11
84.500000
 21
27.500000
 31
0.0
  0
SPLINE
  5
117
100
AcDbEntity
  8
0
 62
7
100
AcDbSpline
 70
0
 71
3
 72
13
 73
9
 74
7
 40
0.000000
 40
0.000000
 40
0.000000
 40
0.000000
 40
1.308874
 40
2.606917
 40
3.915792
 40
5.224666
 40
6.522709
 40
7.831583
 40
7.831583
 40
7.831583
 40
7.831583
 10
84.500000
 20
22.017123
 30
0.0
 10
84.533331
 20
21.579556
 30
0.0
 10
84.599718
 20
20.708045
 30
0.0
 10
85.124344
 20
19.488839
 30
0.0
 10
85.922510
 20
18.439633
 30
0.0
 10
86.971717
 20
17.641467
 30
0.0
 10
88.190922
 20
17.116841
 30
0.0
 10
89.062434
 20
17.050454
 30
0.0
 10
89.500000
 20
17.017123
 30
0.0
 11
84.500000
 21
22.017123
 31
0.0
 11
84.671303
 21
20.719507
 31
0.0
 11
85.168042
 21
19.520271
 31
0.0
 11
85.964466
 21
18.481589
 31
0.0
 11
87.003149
 21
17.685165
 31
0.0
 11
88.202384
 21
17.188425
 31
0.0
 11
89.500000
 21
17.017123
 31
0.0
  0
LINE
  5
118
100
AcDbEntity
  8
0
 62
7
100
AcDbLine
 10
52.500000
 20
59.500000
 30
0.0
 11
7.141428
 21
59.500000
 31
0.0
  0
SPLINE
  5
119
100
AcDbEntity
  8
0
 62
7
100
AcDbSpline
 70
0
 71
3
 72
13
 73
9
 74
7
 40
0.000000
 40
0.000000
 40
0.000000
 40
0.000000
 40
8.376796
 40
16.684271
 40
25.061068
 40
33.437864
 40
41.745339
 40
50.122135
 40
50.122135
 40
50.122135
 40
50.122135
 10
84.500000
 20
27.500000
 30
0.0
 10
84.286680
 20
30.300424
 30
0.0
 10
83.861806
 20
35.878097
 30
0.0
 10
80.504199
 20
43.681013
 30
0.0
 10
75.395933
 20
50.395933
 30
0.0
 10
68.681013
 20
55.504199
 30
0.0
 10
60.878097
 20
58.861806
 30
0.0
 10
55.300424
 20
59.286680
 30
0.0
 10
52.500000
 20
59.500000
 30
0.0
 11
84.500000
 21
27.500000
 31
0.0
 11
83.403663
 21
35.804743
 31
0.0
 11
80.224530
 21
43.479849
 31
0.0
 11
75.127417
 21
50.127417
 31
0.0
 11
68.479850
 21
55.224530
 31
0.0
 11
60.804743
 21
58.403663
 31
0.0
 11
52.500000
 21
59.500000
 31
0.0
  0
LINE
  5
11a
100
AcDbEntity
  8
0
 62
7
100
AcDbLine
 10
-73.350000
 20
19.000000
 30
0.0
 11
-73.350000
 21
19.000000
 31
0.0
  0
SPLINE
  5
11b
100
AcDbEntity
  8
0
 62
7
100
AcDbSpline
 70
0
 71
3
 72
25
 73
21
 74
19
 40
0.000000
 40
0.000000
 40
0.000000
 40
0.000000
 40
0.575942
 40
1.143638
 40
1.719580
 40
2.295522
 40
2.863218
 40
3.439160
 40
4.015102
 40
4.582798
 40
5.158740
 40
5.734682
 40
6.302378
 40
6.878320
 40
7.454262
 40
8.021958
 40
8.597900
 40
9.173842
 40
9.741538
 40
10.317480
 40
10.317480
 40
10.317480
 40
10.317480
 10
-73.350000
 20
19.000000
 30
0.0
 10
-73.369645
 20
19.192969
 30
0.0
 10
-73.408653
 20
19.576143
 30
0.0
 10
-73.712309
 20
20.082581
 30
0.0
 10
-74.157042
 20
20.459124
 30
0.0
 10
-74.707830
 20
20.658836
 30
0.0
 10
-75.292296
 20
20.658836
 30
0.0
 10
-75.842315
 20
20.459124
 30
0.0
 10
-76.290117
 20
20.082581
 30
0.0
 10
-76.582371
 20
19.576143
 30
0.0
 10
-76.684058
 20
19.000000
 30
0.0
 10
-76.582371
 20
18.423857
 30
0.0
 10
-76.290117
 20
17.917419
 30
0.0
 10
-75.842315
 20
17.540876
 30
0.0
 10
-75.292296
 20
17.341164
 30
0.0
 10
-74.707830
 20
17.341164
 30
0.0
 10
-74.157042
 20
17.540876
 30
0.0
 10
-73.712309
 20
17.917419
 30
0.0
 10
-73.408653
 20
18.423857
 30
0.0
 10
-73.369645
 20
18.807031
 30
0.0
 10
-73.350000
 20
19.000000
 30
0.0
 11
-73.350000
 21
19.000000
 31
0.0
 11
-73.450260
 21
19.567148
 31
0.0
 11
-73.733972
 21
20.058865
 31
0.0
 11
-74.174803
 21
20.429511
 31
0.0
 11
-74.716152
 21
20.626108
 31
0.0
 11
-75.283848
 21
20.626108
 31
0.0
 11
-75.825197
 21
20.429511
 31
0.0
 11
-76.266028
 21
20.058865
 31
0.0
 11
-76.549740
 21
19.567148
 31
0.0
 11
-76.650000
 21
19.000000
 31
0.0
 11
-76.549740
 21
18.432852
 31
0.0
 11
-76.266028
 21
17.941135
 31
0.0
 11
-75.825197
 21
17.570489
 31
0.0
 11
-75.283848
 21
17.373892
 31
0.0
 11
-74.716152
 21
17.373892
 31
0.0
 11
-74.174803
 21
17.570489
 31
0.0
 11
-73.733972
 21
17.941135
 31
0.0
 11
-73.450260
 21
18.432852
 31
0.0
 11
-73.350000
 21
19.000000
 31
0.0
  0
LINE
  5
11c
100
AcDbEntity
  8
0
 62
7
100
AcDbLine
 10
-73.350000
 20
-19.000000
 30
0.0
 11
-73.350000
 21
-19.000000
 31
0.0
  0
SPLINE
  5
11d
100
AcDbEntity
  8
0
 62
7
100
AcDbSpline
 70
0
 71
3
 72
25
 73
21
 74
19
 40
0.000000
 40
0.000000
 40
0.000000
 40
0.000000
 40
0.575942
 40
1.143638
 40
1.719580
 40
2.295522
 40
2.863218
 40
3.439160
 40
4.015102
 40
4.582798
 40
5.158740
 40
5.734682
 40
6.302378
 40
6.878320
 40
7.454262
 40
8.021958
 40
8.597900
 40
9.173842
 40
9.741538
 40
10.317480
 40
10.317480
 40
10.317480
 40
10.317480
 10
-73.350000
 20
-19.000000
 30
0.0
 10
-73.369645
 20
-18.807031
 30
0.0
 10
-73.408653
 20
-18.423857
 30
0.0
 10
-73.712309
 20
-17.917418
 30
0.0
 10
-74.157042
 20
-17.540876
 30
0.0
 10
-74.707830
 20
-17.341164
 30
0.0
 10
-75.292296
 20
-17.341164
 30
0.0
 10
-75.842315
 20
-17.540876
 30
0.0
 10
-76.290117
 20
-17.917418
 30
0.0
 10
-76.582371
 20
-18.423857
 30
0.0
 10
-76.684058
 20
-19.000000
 30
0.0
 10
-76.582371
 20
-19.576143
 30
0.0
 10
-76.290117
 20
-20.082581
 30
0.0
 10
-75.842315
 20
-20.459123
 30
0.0
 10
-75.292296
 20
-20.658836
 30
0.0
 10
-74.707830
 20
-20.658836
 30
0.0
 10
-74.157042
 20
-20.459123
 30
0.0
 10
-73.712309
 20
-20.082581
 30
0.0
 10
-73.408653
 20
-19.576143
 30
0.0
 10
-73.369645
 20
-19.192968
 30
0.0
 10
-73.350000
 20
-19.000000
 30
0.0
 11
-73.350000
 21
-19.000000
 31
0.0
 11
-73.450260
 21
-18.432851
 31
0.0
 11
-73.733972
 21
-17.941134
 31
0.0
 11
-74.174803
 21
-17.570489
 31
0.0
 11
-74.716152
 21
-17.373892
 31
0.0
 11
-75.283848
 21
-17.373892
 31
0.0
 11
-75.825197
 21
-17.570489
 31
0.0
 11
-76.266028
 21
-17.941134
 31
0.0
 11
-76.549740
 21
-18.432851
 31
0.0
 11
-76.650000
 21
-19.000000
 31
0.0
 11
-76.549740
 21
-19.567148
 31
0.0
 11
-76.266028
 21
-20.058865
 31
0.0
 11
-75.825197
 21
-20.429511
 31
0.0
 11
-75.283848
 21
-20.626108
 31
0.0
 11
-74.716152
 21
-20.626108
 31
0.0
 11
-74.174803
 21
-20.429511
 31
0.0
 11
-73.733972
 21
-20.058865
 31
0.0
 11
-73.450260
 21
-19.567148
 31
0.0
 11
-73.350000
 21
-19.000000
 31
0.0
  0
LINE
  5
11e
100
AcDbEntity
  8
0
 62
7
100
AcDbLine
 10
-38.350000
 20
-50.000000
 30
0.0
 11
-38.350000
 21
-50.000000
 31
0.0
  0
SPLINE
  5
11f
100
AcDbEntity
  8
0
 62
7
100
AcDbSpline
 70
0
 71
3
 72
25
 73
21
 74
19
 40
0.000000
 40
0.000000
 40
0.000000
 40
0.000000
 40
0.575942
 40
1.143638
 40
1.719580
 40
2.295522
 40
2.863218
 40
3.439160
 40
4.015102
 40
4.582798
 40
5.158740
 40
5.734682
 40
6.302378
 40
6.878320
 40
7.454262
 40
8.021958
 40
8.597900
 40
9.173842
 40
9.741538
 40
10.317480
 40
10.317480
 40
10.317480
 40
10.317480
 10
-38.350000
 20
-50.000000
 30
0.0
 10
-38.369645
 20
-49.807031
 30
0.0
 10
-38.408653
 20
-49.423857
 30
0.0
 10
-38.712309
 20
-48.917419
 30
0.0
 10
-39.157042
 20
-48.540876
 30
0.0
 10
-39.707830
 20
-48.341164
 30
0.0
 10
-40.292296
 20
-48.341164
 30
0.0
 10
-40.842315
 20
-48.540876
 30
0.0
 10
-41.290117
 20
-48.917419
 30
0.0
 10
-41.582371
 20
-49.423857
 30
0.0
 10
-41.684058
 20
-50.000000
 30
0.0
 10
-41.582371
 20
-50.576143
 30
0.0
 10
-41.290117
 20
-51.082581
 30
0.0
 10
-40.842315
 20
-51.459124
 30
0.0
 10
-40.292296
 20
-51.658836
 30
0.0
 10
-39.707830
 20
-51.658836
 30
0.0
 10
-39.157042
 20
-51.459124
 30
0.0
 10
-38.712309
 20
-51.082581
 30
0.0
 10
-38.408653
 20
-50.576143
 30
0.0
 10
-38.369645
 20
-50.192969
 30
0.0
 10
-38.350000
 20
-50.000000
 30
0.0
 11
-38.350000
 21
-50.000000
 31
0.0
 11
-38.450260
 21
-49.432852
 31
0.0
 11
-38.733972
 21
-48.941135
 31
0.0
 11
-39.174803
 21
-48.570489
 31
0.0
 11
-39.716152
 21
-48.373892
 31
0.0
 11
-40.283848
 21
-48.373892
 31
0.0
 11
-40.825197
 21
-48.570489
 31
0.0
 11
-41.266028
 21
-48.941135
 31
0.0
 11
-41.549740
 21
-49.432852
 31
0.0
 11
-41.650000
 21
-50.000000
 31
0.0
 11
-41.549740
 21
-50.567148
 31
0.0
 11
-41.266028
 21
-51.058865
 31
0.0
 11
-40.825197
 21
-51.429511
 31
0.0
 11
-40.283848
 21
-51.626108
 31
0.0
 11
-39.716152
 21
-51.626108
 31
0.0
 11
-39.174803
 21
-51.429511
 31
0.0
 11
-38.733972
 21
-51.058865
 31
0.0
 11
-38.450260
 21
-50.567148
 31
0.0
 11
-38.350000
 21
-50.000000
 31
0.0
  0
LINE
  5
120
100
AcDbEntity
  8
0
 62
7
100
AcDbLine
 10
1.650000
 20
-50.000000
 30
0.0
 11
1.650000
 21
-50.000000
 31
0.0
  0
SPLINE
  5
121
100
AcDbEntity
  8
0
 62
7
100
AcDbSpline
 70
0
 71
3
 72
25
 73
21
 74
19
 40
0.000000
 40
0.000000
 40
0.000000
 40
0.000000
 40
0.575791
 40
1.143341
 40
1.719132
 40
2.294923
 40
2.862473
 40
3.438264
 40
4.014055
 40
4.581605
 40
5.157396
 40
5.733187
 40
6.300737
 40
6.876528
 40
7.452319
 40
8.019869
 40
8.595660
 40
9.171451
 40
9.739001
 40
10.314792
 40
10.314792
 40
10.314792
 40
10.314792
 10
1.650000
 20
-50.000000
 30
0.0
 10
1.630286
 20
-49.807091
 30
0.0
 10
1.591140
 20
-49.424033
 30
0.0
 10
1.287430
 20
-48.917817
 30
0.0
 10
0.842747
 20
-48.541458
 30
0.0
 10
0.292091
 20
-48.341850
 30
0.0
 10
-0.292217
 20
-48.341850
 30
0.0
 10
-0.842102
 20
-48.541458
 30
0.0
 10
-1.289864
 20
-48.917817
 30
0.0
 10
-1.582133
 20
-49.424033
 30
0.0
 10
-1.684178
 20
-50.000000
 30
0.0
 10
-1.582133
 20
-50.575967
 30
0.0
 10
-1.289864
 20
-51.082183
 30
0.0
 10
-0.842102
 20
-51.458542
 30
0.0
 10
-0.292217
 20
-51.658150
 30
0.0
 10
0.292091
 20
-51.658150
 30
0.0
 10
0.842747
 20
-51.458542
 30
0.0
 10
1.287430
 20
-51.082183
 30
0.0
 10
1.591140
 20
-50.575967
 30
0.0
 10
1.630286
 20
-50.192909
 30
0.0
 10
1.650000
 20
-50.000000
 30
0.0
 11
1.650000
 21
-50.000000
 31
0.0
 11
1.549558
 21
-49.433037
 31
0.0
 11
1.265783
 21
-48.941524
 31
0.0
 11
0.825000
 21
-48.571058
 31
0.0
 11
0.283775
 21
-48.374562
 31
0.0
 11
-0.283775
 21
-48.374562
 31
0.0
 11
-0.825000
 21
-48.571058
 31
0.0
 11
-1.265783
 21
-48.941524
 31
0.0
 11
-1.549558
 21
-49.433037
 31
0.0
 11
-1.650000
 21
-50.000000
 31
0.0
 11
-1.549558
 21
-50.566963
 31
0.0
 11
-1.265783
 21
-51.058476
 31
0.0
 11
-0.825000
 21
-51.428942
 31
0.0
 11
-0.283775
 21
-51.625438
 31
0.0
 11
0.283775
 21
-51.625438
 31
0.0
 11
0.825000
 21
-51.428942
 31
0.0
 11
1.265783
 21
-51.058476
 31
0.0
 11
1.549558
 21
-50.566963
 31
0.0
 11
1.650000
 21
-50.000000
 31
0.0
  0
LINE
  5
122
100
AcDbEntity
  8
0
 62
7
100
AcDbLine
 10
41.650000
 20
-50.000000
 30
0.0
 11
41.650000
 21
-50.000000
 31
0.0
  0
SPLINE
  5
123
100
AcDbEntity
  8
0
 62
7
100
AcDbSpline
 70
0
 71
3
 72
25
 73
21
 74
19
 40
0.000000
 40
0.000000
 40
0.000000
 40
0.000000
 40
0.575942
 40
1.143638
 40
1.719580
 40
2.295522
 40
2.863218
 40
3.439160
 40
4.015102
 40
4.582798
 40
5.158740
 40
5.734682
 40
6.302378
 40
6.878320
 40
7.454262
 40
8.021958
 40
8.597900
 40
9.173842
 40
9.741538
 40
10.317480
 40
10.317480
 40
10.317480
 40
10.317480
 10
41.650000
 20
-50.000000
 30
0.0
 10
41.630355
 20
-49.807031
 30
0.0
 10
41.591347
 20
-49.423857
 30
0.0
 10
41.287691
 20
-48.917419
 30
0.0
 10
40.842958
 20
-48.540876
 30
0.0
 10
40.292170
 20
-48.341164
 30
0.0
 10
39.707704
 20
-48.341164
 30
0.0
 10
39.157685
 20
-48.540876
 30
0.0
 10
38.709883
 20
-48.917419
 30
0.0
 10
38.417629
 20
-49.423857
 30
0.0
 10
38.315942
 20
-50.000000
 30
0.0
 10
38.417629
 20
-50.576143
 30
0.0
 10
38.709883
 20
-51.082581
 30
0.0
 10
39.157685
 20
-51.459124
 30
0.0
 10
39.707704
 20
-51.658836
 30
0.0
 10
40.292170
 20
-51.658836
 30
0.0
 10
40.842958
 20
-51.459124
 30
0.0
 10
41.287691
 20
-51.082581
 30
0.0
 10
41.591347
 20
-50.576143
 30
0.0
 10
41.630355
 20
-50.192969
 30
0.0
 10
41.650000
 20
-50.000000
 30
0.0
 11
41.650000
 21
-50.000000
 31
0.0
 11
41.549740
 21
-49.432852
 31
0.0
 11
41.266028
 21
-48.941135
 31
0.0
 11
40.825197
 21
-48.570489
 31
0.0
 11
40.283848
 21
-48.373892
 31
0.0
 11
39.716152
 21
-48.373892
 31
0.0
 11
39.174803
 21
-48.570489
 31
0.0
 11
38.733972
 21
-48.941135
 31
0.0
 11
38.450260
 21
-49.432852
 31
0.0
 11
38.350000
 21
-50.000000
 31
0.0
 11
38.450260
 21
-50.567148
 31
0.0
 11
38.733972
 21
-51.058865
 31
0.0
 11
39.174803
 21
-51.429511
 31
0.0
 11
39.716152
 21
-51.626108
 31
0.0
 11
40.283848
 21
-51.626108
 31
0.0
 11
40.825197
 21
-51.429511
 31
0.0
 11
41.266028
 21
-51.058865
 31
0.0
 11
41.549740
 21
-50.567148
 31
0.0
 11
41.650000
 21
-50.000000
 31
0.0
  0
LINE
  5
124
100
AcDbEntity
  8
0
 62
7
100
AcDbLine
 10
76.650000
 20
-19.000000
 30
0.0
 11
76.650000
 21
-19.000000
 31
0.0
  0
SPLINE
  5
125
100
AcDbEntity
  8
0
 62
7
100
AcDbSpline
 70
0
 71
3
 72
25
 73
21
 74
19
 40
0.000000
 40
0.000000
 40
0.000000
 40
0.000000
 40
0.575942
 40
1.143638
 40
1.719580
 40
2.295522
 40
2.863218
 40
3.439160
 40
4.015102
 40
4.582798
 40
5.158740
 40
5.734682
 40
6.302378
 40
6.878320
 40
7.454262
 40
8.021958
 40
8.597900
 40
9.173842
 40
9.741538
 40
10.317480
 40
10.317480
 40
10.317480
 40
10.317480
 10
76.650000
 20
-19.000000
 30
0.0
 10
76.630355
 20
-18.807031
 30
0.0
 10
76.591347
 20
-18.423857
 30
0.0
 10
76.287691
 20
-17.917418
 30
0.0
 10
75.842958
 20
-17.540876
 30
0.0
 10
75.292170
 20
-17.341164
 30
0.0
 10
74.707704
 20
-17.341164
 30
0.0
 10
74.157685
 20
-17.540876
 30
0.0
 10
73.709883
 20
-17.917418
 30
0.0
 10
73.417629
 20
-18.423857
 30
0.0
 10
73.315942
 20
-19.000000
 30
0.0
 10
73.417629
 20
-19.576143
 30
0.0
 10
73.709883
 20
-20.082581
 30
0.0
 10
74.157685
 20
-20.459123
 30
0.0
 10
74.707704
 20
-20.658836
 30
0.0
 10
75.292170
 20
-20.658836
 30
0.0
 10
75.842958
 20
-20.459123
 30
0.0
 10
76.287691
 20
-20.082581
 30
0.0
 10
76.591347
 20
-19.576143
 30
0.0
 10
76.630355
 20
-19.192968
 30
0.0
 10
76.650000
 20
-19.000000
 30
0.0
 11
76.650000
 21
-19.000000
 31
0.0
 11
76.549740
 21
-18.432851
 31
0.0
 11
76.266028
 21
-17.941134
 31
0.0
 11
75.825197
 21
-17.570489
 31
0.0
 11
75.283848
 21
-17.373892
 31
0.0
 11
74.716152
 21
-17.373892
 31
0.0
 11
74.174803
 21
-17.570489
 31
0.0
 11
73.733972
 21
-17.941134
 31
0.0
 11
73.450260
 21
-18.432851
 31
0.0
 11
73.350000
 21
-19.000000
 31
0.0
 11
73.450260
 21
-19.567148
 31
0.0
 11
73.733972
 21
-20.058865
 31
0.0
 11
74.174803
 21
-20.429511
 31
0.0
 11
74.716152
 21
-20.626108
 31
0.0
 11
75.283848
 21
-20.626108
 31
0.0
 11
75.825197
 21
-20.429511
 31
0.0
 11
76.266028
 21
-20.058865
 31
0.0
 11
76.549740
 21
-19.567148
 31
0.0
 11
76.650000
 21
-19.000000
 31
0.0
  0
LINE
  5
126
100
AcDbEntity
  8
0
 62
7
100
AcDbLine
 10
76.650000
 20
19.000000
 30
0.0
 11
76.650000
 21
19.000000
 31
0.0
  0
SPLINE
  5
127
100
AcDbEntity
  8
0
 62
7
100
AcDbSpline
 70
0
 71
3
 72
25
 73
21
 74
19
 40
0.000000
 40
0.000000
 40
0.000000
 40
0.000000
 40
0.575942
 40
1.143638
 40
1.719580
 40
2.295522
 40
2.863218
 40
3.439160
 40
4.015102
 40
4.582798
 40
5.158740
 40
5.734682
 40
6.302378
 40
6.878320
 40
7.454262
 40
8.021958
 40
8.597900
 40
9.173842
 40
9.741538
 40
10.317480
 40
10.317480
 40
10.317480
 40
10.317480
 10
76.650000
 20
19.000000
 30
0.0
 10
76.630355
 20
19.192969
 30
0.0
 10
76.591347
 20
19.576143
 30
0.0
 10
76.287691
 20
20.082581
 30
0.0
 10
75.842958
 20
20.459124
 30
0.0
 10
75.292170
 20
20.658836
 30
0.0
 10
74.707704
 20
20.658836
 30
0.0
 10
74.157685
 20
20.459124
 30
0.0
 10
73.709883
 20
20.082581
 30
0.0
 10
73.417629
 20
19.576143
 30
0.0
 10
73.315942
 20
19.000000
 30
0.0
 10
73.417629
 20
18.423857
 30
0.0
 10
73.709883
 20
17.917419
 30
0.0
 10
74.157685
 20
17.540876
 30
0.0
 10
74.707704
 20
17.341164
 30
0.0
 10
75.292170
 20
17.341164
 30
0.0
 10
75.842958
 20
17.540876
 30
0.0
 10
76.287691
 20
17.917419
 30
0.0
 10
76.591347
 20
18.423857
 30
0.0
 10
76.630355
 20
18.807031
 30
0.0
 10
76.650000
 20
19.000000
 30
0.0
 11
76.650000
 21
19.000000
 31
0.0
 11
76.549740
 21
19.567148
 31
0.0
 11
76.266028
 21
20.058865
 31
0.0
 11
75.825197
 21
20.429511
 31
0.0
 11
75.283848
 21
20.626108
 31
0.0
 11
74.716152
 21
20.626108
 31
0.0
 11
74.174803
 21
20.429511
 31
0.0
 11
73.733972
 21
20.058865
 31
0.0
 11
73.450260
 21
19.567148
 31
0.0
 11
73.350000
 21
19.000000
 31
0.0
 11
73.450260
 21
18.432852
 31
0.0
 11
73.733972
 21
17.941135
 31
0.0
 11
74.174803
 21
17.570489
 31
0.0
 11
74.716152
 21
17.373892
 31
0.0
 11
75.283848
 21
17.373892
 31
0.0
 11
75.825197
 21
17.570489
 31
0.0
 11
76.266028
 21
17.941135
 31
0.0
 11
76.549740
 21
18.432852
 31
0.0
 11
76.650000
 21
19.000000
 31
0.0
  0
LINE
  5
128
100
AcDbEntity
  8
0
 62
7
100
AcDbLine
 10
41.650000
 20
50.000000
 30
0.0
 11
41.650000
 21
50.000000
 31
0.0
  0
SPLINE
  5
129
100
AcDbEntity
  8
0
 62
7
100
AcDbSpline
 70
0
 71
3
 72
25
 73
21
 74
19
 40
0.000000
 40
0.000000
 40
0.000000
 40
0.000000
 40
0.575942
 40
1.143638
 40
1.719580
 40
2.295522
 40
2.863218
 40
3.439160
 40
4.015102
 40
4.582798
 40
5.158740
 40
5.734682
 40
6.302378
 40
6.878320
 40
7.454262
 40
8.021958
 40
8.597900
 40
9.173842
 40
9.741538
 40
10.317480
 40
10.317480
 40
10.317480
 40
10.317480
 10
41.650000
 20
50.000000
 30
0.0
 10
41.630355
 20
50.192969
 30
0.0
 10
41.591347
 20
50.576143
 30
0.0
 10
41.287691
 20
51.082582
 30
0.0
 10
40.842958
 20
51.459124
 30
0.0
 10
40.292170
 20
51.658836
 30
0.0
 10
39.707704
 20
51.658836
 30
0.0
 10
39.157685
 20
51.459124
 30
0.0
 10
38.709883
 20
51.082582
 30
0.0
 10
38.417629
 20
50.576143
 30
0.0
 10
38.315942
 20
50.000000
 30
0.0
 10
38.417629
 20
49.423857
 30
0.0
 10
38.709883
 20
48.917419
 30
0.0
 10
39.157685
 20
48.540877
 30
0.0
 10
39.707704
 20
48.341164
 30
0.0
 10
40.292170
 20
48.341164
 30
0.0
 10
40.842958
 20
48.540877
 30
0.0
 10
41.287691
 20
48.917419
 30
0.0
 10
41.591347
 20
49.423857
 30
0.0
 10
41.630355
 20
49.807032
 30
0.0
 10
41.650000
 20
50.000000
 30
0.0
 11
41.650000
 21
50.000000
 31
0.0
 11
41.549740
 21
50.567149
 31
0.0
 11
41.266028
 21
51.058866
 31
0.0
 11
40.825197
 21
51.429511
 31
0.0
 11
40.283848
 21
51.626108
 31
0.0
 11
39.716152
 21
51.626108
 31
0.0
 11
39.174803
 21
51.429511
 31
0.0
 11
38.733972
 21
51.058866
 31
0.0
 11
38.450260
 21
50.567149
 31
0.0
 11
38.350000
 21
50.000000
 31
0.0
 11
38.450260
 21
49.432852
 31
0.0
 11
38.733972
 21
48.941135
 31
0.0
 11
39.174803
 21
48.570489
 31
0.0
 11
39.716152
 21
48.373892
 31
0.0
 11
40.283848
 21
48.373892
 31
0.0
 11
40.825197
 21
48.570489
 31
0.0
 11
41.266028
 21
48.941135
 31
0.0
 11
41.549740
 21
49.432852
 31
0.0
 11
41.650000
 21
50.000000
 31
0.0
  0
LINE
  5
12a
100
AcDbEntity
  8
0
 62
7
100
AcDbLine
 10
1.650000
 20
50.000000
 30
0.0
 11
1.650000
 21
50.000000
 31
0.0
  0
SPLINE
  5
12b
100
AcDbEntity
  8
0
 62
7
100
AcDbSpline
 70
0
 71
3
 72
25
 73
21
 74
19
 40
0.000000
 40
0.000000
 40
0.000000
 40
0.000000
 40
0.575791
 40
1.143341
 40
1.719132
 40
2.294923
 40
2.862473
 40
3.438264
 40
4.014055
 40
4.581605
 40
5.157396
 40
5.733187
 40
6.300737
 40
6.876528
 40
7.452319
 40
8.019869
 40
8.595660
 40
9.171451
 40
9.739001
 40
10.314792
 40
10.314792
 40
10.314792
 40
10.314792
 10
1.650000
 20
50.000000
 30
0.0
 10
1.630286
 20
50.192909
 30
0.0
 10
1.591140
 20
50.575967
 30
0.0
 10
1.287430
 20
51.082183
 30
0.0
 10
0.842747
 20
51.458542
 30
0.0
 10
0.292091
 20
51.658150
 30
0.0
 10
-0.292217
 20
51.658150
 30
0.0
 10
-0.842102
 20
51.458542
 30
0.0
 10
-1.289864
 20
51.082183
 30
0.0
 10
-1.582133
 20
50.575967
 30
0.0
 10
-1.684178
 20
50.000000
 30
0.0
 10
-1.582133
 20
49.424033
 30
0.0
 10
-1.289864
 20
48.917817
 30
0.0
 10
-0.842102
 20
48.541458
 30
0.0
 10
-0.292217
 20
48.341850
 30
0.0
 10
0.292091
 20
48.341850
 30
0.0
 10
0.842747
 20
48.541458
 30
0.0
 10
1.287430
 20
48.917817
 30
0.0
 10
1.591140
 20
49.424033
 30
0.0
 10
1.630286
 20
49.807091
 30
0.0
 10
1.650000
 20
50.000000
 30
0.0
 11
1.650000
 21
50.000000
 31
0.0
 11
1.549558
 21
50.566963
 31
0.0
 11
1.265783
 21
51.058476
 31
0.0
 11
0.825000
 21
51.428942
 31
0.0
 11
0.283775
 21
51.625438
 31
0.0
 11
-0.283775
 21
51.625438
 31
0.0
 11
-0.825000
 21
51.428942
 31
0.0
 11
-1.265783
 21
51.058476
 31
0.0
 11
-1.549558
 21
50.566963
 31
0.0
 11
-1.650000
 21
50.000000
 31
0.0
 11
-1.549558
 21
49.433038
 31
0.0
 11
-1.265783
 21
48.941525
 31
0.0
 11
-0.825000
 21
48.571058
 31
0.0
 11
-0.283775
 21
48.374562
 31
0.0
 11
0.283775
 21
48.374562
 31
0.0
 11
0.825000
 21
48.571058
 31
0.0
 11
1.265783
 21
48.941525
 31
0.0
 11
1.549558
 21
49.433038
 31
0.0
 11
1.650000
 21
50.000000
 31
0.0
  0
LINE
  5
12c
100
AcDbEntity
  8
0
 62
7
100
AcDbLine
 10
-38.350000
 20
50.000000
 30
0.0
 11
-38.350000
 21
50.000000
 31
0.0
  0
SPLINE
  5
12d
100
AcDbEntity
  8
0
 62
7
100
AcDbSpline
 70
0
 71
3
 72
25
 73
21
 74
19
 40
0.000000
 40
0.000000
 40
0.000000
 40
0.000000
 40
0.575942
 40
1.143638
 40
1.719580
 40
2.295522
 40
2.863218
 40
3.439160
 40
4.015102
 40
4.582798
 40
5.158740
 40
5.734682
 40
6.302378
 40
6.878320
 40
7.454262
 40
8.021958
 40
8.597900
 40
9.173842
 40
9.741538
 40
10.317480
 40
10.317480
 40
10.317480
 40
10.317480
 10
-38.350000
 20
50.000000
 30
0.0
 10
-38.369645
 20
50.192969
 30
0.0
 10
-38.408653
 20
50.576143
 30
0.0
 10
-38.712309
 20
51.082582
 30
0.0
 10
-39.157042
 20
51.459124
 30
0.0
 10
-39.707830
 20
51.658836
 30
0.0
 10
-40.292296
 20
51.658836
 30
0.0
 10
-40.842315
 20
51.459124
 30
0.0
 10
-41.290117
 20
51.082582
 30
0.0
 10
-41.582371
 20
50.576143
 30
0.0
 10
-41.684058
 20
50.000000
 30
0.0
 10
-41.582371
 20
49.423857
 30
0.0
 10
-41.290117
 20
48.917419
 30
0.0
 10
-40.842315
 20
48.540877
 30
0.0
 10
-40.292296
 20
48.341164
 30
0.0
 10
-39.707830
 20
48.341164
 30
0.0
 10
-39.157042
 20
48.540877
 30
0.0
 10
-38.712309
 20
48.917419
 30
0.0
 10
-38.408653
 20
49.423857
 30
0.0
 10
-38.369645
 20
49.807032
 30
0.0
 10
-38.350000
 20
50.000000
 30
0.0
 11
-38.350000
 21
50.000000
 31
0.0
 11
-38.450260
 21
50.567149
 31
0.0
 11
-38.733972
 21
51.058866
 31
0.0
 11
-39.174803
 21
51.429511
 31
0.0
 11
-39.716152
 21
51.626108
 31
0.0
 11
-40.283848
 21
51.626108
 31
0.0
 11
-40.825197
 21
51.429511
 31
0.0
 11
-41.266028
 21
51.058866
 31
0.0
 11
-41.549740
 21
50.567149
 31
0.0
 11
-41.650000
 21
50.000000
 31
0.0
 11
-41.549740
 21
49.432852
 31
0.0
 11
-41.266028
 21
48.941135
 31
0.0
 11
-40.825197
 21
48.570489
 31
0.0
 11
-40.283848
 21
48.373892
 31
0.0
 11
-39.716152
 21
48.373892
 31
0.0
 11
-39.174803
 21
48.570489
 31
0.0
 11
-38.733972
 21
48.941135
 31
0.0
 11
-38.450260
 21
49.432852
 31
0.0
 11
-38.350000
 21
50.000000
 31
0.0
  0
LINE
  5
12e
100
AcDbEntity
  8
0
 62
7
100
AcDbLine
 10
95.900000
 20
-0.000000
 30
0.0
 11
95.900000
 21
-0.000000
 31
0.0
  0
SPLINE
  5
12f
100
AcDbEntity
  8
0
 62
7
100
AcDbSpline
 70
0
 71
3
 72
25
 73
21
 74
19
 40
0.000000
 40
0.000000
 40
0.000000
 40
0.000000
 40
1.046892
 40
2.078802
 40
3.125694
 40
4.172587
 40
5.204496
 40
6.251389
 40
7.298281
 40
8.330191
 40
9.377083
 40
10.423975
 40
11.455885
 40
12.502777
 40
13.549669
 40
14.581579
 40
15.628471
 40
16.675364
 40
17.707273
 40
18.754166
 40
18.754166
 40
18.754166
 40
18.754166
 10
95.900000
 20
-0.000000
 30
0.0
 10
95.864156
 20
0.350744
 30
0.0
 10
95.792981
 20
1.047212
 30
0.0
 10
95.240781
 20
1.967605
 30
0.0
 10
94.432267
 20
2.651894
 30
0.0
 10
93.431074
 20
3.014817
 30
0.0
 10
92.368696
 20
3.014817
 30
0.0
 10
91.368906
 20
2.651894
 30
0.0
 10
90.554792
 20
1.967605
 30
0.0
 10
90.023395
 20
1.047212
 30
0.0
 10
89.837858
 20
-0.000000
 30
0.0
 10
90.023395
 20
-1.047212
 30
0.0
 10
90.554792
 20
-1.967605
 30
0.0
 10
91.368906
 20
-2.651894
 30
0.0
 10
92.368696
 20
-3.014817
 30
0.0
 10
93.431074
 20
-3.014817
 30
0.0
 10
94.432267
 20
-2.651894
 30
0.0
 10
95.240781
 20
-1.967605
 30
0.0
 10
95.792981
 20
-1.047212
 30
0.0
 10
95.864156
 20
-0.350744
 30
0.0
 10
95.900000
 20
-0.000000
 30
0.0
 11
95.900000
 21
-0.000000
 31
0.0
 11
95.717378
 21
1.030841
 31
0.0
 11
95.201424
 21
1.924501
 31
0.0
 11
94.400000
 21
2.598076
 31
0.0
 11
93.415955
 21
2.955342
 31
0.0
 11
92.384045
 21
2.955342
 31
0.0
 11
91.400000
 21
2.598076
 31
0.0
 11
90.598576
 21
1.924501
 31
0.0
 11
90.082622
 21
1.030841
 31
0.0
 11
89.900000
 21
-0.000000
 31
0.0
 11
90.082622
 21
-1.030841
 31
0.0
 11
90.598577
 21
-1.924501
 31
0.0
 11
91.400000
 21
-2.598076
 31
0.0
 11
92.384045
 21
-2.955342
 31
0.0
 11
93.415955
 21
-2.955342
 31
0.0
 11
94.400000
 21
-2.598076
 31
0.0
 11
95.201424
 21
-1.924501
 31
0.0
 11
95.717379
 21
-1.030841
 31
0.0
 11
95.900000
 21
-0.000000
 31
0.0
  0
LINE
  5
130
100
AcDbEntity
  8
0
 62
7
100
AcDbLine
 10
-89.900000
 20
-0.000000
 30
0.0
 11
-89.900000
 21
-0.000000
 31
0.0
  0
LINE
  5
131
100
AcDbEntity
  8
0
 62
7
100
AcDbLine
 10
49.330000
 20
35.760000
 30
0.0
 11
-49.330000
 21
35.760000
 31
0.0
  0
SPLINE
  5
132
100
AcDbEntity
  8
0
 62
7
100
AcDbSpline
 70
0
 71
3
 72
25
 73
21
 74
19
 40
0.000000
 40
0.000000
 40
0.000000
 40
0.000000
 40
1.046892
 40
2.078802
 40
3.125694
 40
4.172587
 40
5.204496
 40
6.251389
 40
7.298281
 40
8.330191
 40
9.377083
 40
10.423975
 40
11.455885
 40
12.502777
 40
13.549669
 40
14.581579
 40
15.628471
 40
16.675364
 40
17.707273
 40
18.754166
 40
18.754166
 40
18.754166
 40
18.754166
 10
-89.900000
 20
-0.000000
 30
0.0
 10
-89.935844
 20
0.350744
 30
0.0
 10
-90.007019
 20
1.047212
 30
0.0
 10
-90.559219
 20
1.967605
 30
0.0
 10
-91.367733
 20
2.651894
 30
0.0
 10
-92.368926
 20
3.014817
 30
0.0
 10
-93.431304
 20
3.014817
 30
0.0
 10
-94.431095
 20
2.651894
 30
0.0
 10
-95.245208
 20
1.967605
 30
0.0
 10
-95.776605
 20
1.047212
 30
0.0
 10
-95.962142
 20
-0.000000
 30
0.0
 10
-95.776605
 20
-1.047212
 30
0.0
 10
-95.245208
 20
-1.967605
 30
0.0
 10
-94.431094
 20
-2.651894
 30
0.0
 10
-93.431304
 20
-3.014817
 30
0.0
 10
-92.368926
 20
-3.014817
 30
0.0
 10
-91.367733
 20
-2.651894
 30
0.0
 10
-90.559219
 20
-1.967605
 30
0.0
 10
-90.007019
 20
-1.047212
 30
0.0
 10
-89.935844
 20
-0.350744
 30
0.0
 10
-89.900000
 20
-0.000000
 30
0.0
 11
-89.900000
 21
-0.000000
 31
0.0
 11
-90.082622
 21
1.030841
 31
0.0
 11
-90.598576
 21
1.924501
 31
0.0
 11
-91.400000
 21
2.598076
 31
0.0
 11
-92.384045
 21
2.955342
 31
0.0
 11
-93.415955
 21
2.955342
 31
0.0
 11
-94.400000
 21
2.598076
 31
0.0
 11
-95.201424
 21
1.924501
 31
0.0
 11
-95.717378
 21
1.030841
 31
0.0
 11
-95.900000
 21
-0.000000
 31
0.0
 11
-95.717378
 21
-1.030841
 31
0.0
 11
-95.201424
 21
-1.924501
 31
0.0
 11
-94.400000
 21
-2.598076
 31
0.0
 11
-93.415955
 21
-2.955342
 31
0.0
 11
-92.384045
 21
-2.955342
 31
0.0
 11
-91.400000
 21
-2.598076
 31
0.0
 11
-90.598576
 21
-1.924501
 31
0.0
 11
-90.082622
 21
-1.030841
 31
0.0
 11
-89.900000
 21
-0.000000
 31
0.0
  0
LINE
  5
133
100
AcDbEntity
  8
0
 62
7
100
AcDbLine
 10
51.330000
 20
31.455000
 30
0.0
 11
51.330000
 21
33.760000
 31
0.0
  0
SPLINE
  5
134
100
AcDbEntity
  8
0
 62
7
100
AcDbSpline
 70
0
 71
3
 72
13
 73
9
 74
7
 40
0.000000
 40
0.000000
 40
0.000000
 40
0.000000
 40
0.523550
 40
1.042767
 40
1.566317
 40
2.089866
 40
2.609084
 40
3.132633
 40
3.132633
 40
3.132633
 40
3.132633
 10
51.330000
 20
33.760000
 30
0.0
 10
51.316668
 20
33.935027
 30
0.0
 10
51.290113
 20
34.283631
 30
0.0
 10
51.080263
 20
34.771313
 30
0.0
 10
50.760996
 20
35.190996
 30
0.0
 10
50.341313
 20
35.510263
 30
0.0
 10
49.853631
 20
35.720113
 30
0.0
 10
49.505027
 20
35.746668
 30
0.0
 10
49.330000
 20
35.760000
 30
0.0
 11
51.330000
 21
33.760000
 31
0.0
 11
51.261479
 21
34.279047
 31
0.0
 11
51.062783
 21
34.758741
 31
0.0
 11
50.744214
 21
35.174214
 31
0.0
 11
50.328741
 21
35.492783
 31
0.0
 11
49.849047
 21
35.691479
 31
0.0
 11
49.330000
 21
35.760000
 31
0.0
  0
LINE
  5
135
100
AcDbEntity
  8
0
 62
7
100
AcDbLine
 10
58.635000
 20
26.455000
 30
0.0
 11
56.330000
 21
26.455000
 31
0.0
  0
SPLINE
  5
136
100
AcDbEntity
  8
0
 62
7
100
AcDbSpline
 70
0
 71
3
 72
13
 73
9
 74
7
 40
0.000000
 40
0.000000
 40
0.000000
 40
0.000000
 40
1.308874
 40
2.606917
 40
3.915792
 40
5.224666
 40
6.522709
 40
7.831584
 40
7.831584
 40
7.831584
 40
7.831584
 10
51.330000
 20
31.455000
 30
0.0
 10
51.363331
 20
31.017434
 30
0.0
 10
51.429718
 20
30.145922
 30
0.0
 10
51.954344
 20
28.926717
 30
0.0
 10
52.752510
 20
27.877510
 30
0.0
 10
53.801717
 20
27.079344
 30
0.0
 10
55.020922
 20
26.554718
 30
0.0
 10
55.892434
 20
26.488331
 30
0.0
 10
56.330000
 20
26.455000
 30
0.0
 11
51.330000
 21
31.455000
 31
0.0
 11
51.501303
 21
30.157384
 31
0.0
 11
51.998042
 21
28.958149
 31
0.0
 11
52.794466
 21
27.919466
 31
0.0
 11
53.833148
 21
27.123042
 31
0.0
 11
55.032384
 21
26.626303
 31
0.0
 11
56.330000
 21
26.455000
 31
0.0
  0
LINE
  5
137
100
AcDbEntity
  8
0
 62
7
100
AcDbLine
 10
60.635000
 20
-24.455000
 30
0.0
 11
60.635000
 21
24.455000
 31
0.0
  0
SPLINE
  5
138
100
AcDbEntity
  8
0
 62
7
100
AcDbSpline
 70
0
 71
3
 72
13
 73
9
 74
7
 40
0.000000
 40
0.000000
 40
0.000000
 40
0.000000
 40
0.523550
 40
1.042767
 40
1.566317
 40
2.089866
 40
2.609084
 40
3.132633
 40
3.132633
 40
3.132633
 40
3.132633
 10
60.635000
 20
24.455000
 30
0.0
 10
60.621667
 20
24.630026
 30
0.0
 10
60.595113
 20
24.978631
 30
0.0
 10
60.385262
 20
25.466313
 30
0.0
 10
60.065996
 20
25.885996
 30
0.0
 10
59.646313
 20
26.205262
 30
0.0
 10
59.158631
 20
26.415113
 30
0.0
 10
58.810026
 20
26.441667
 30
0.0
 10
58.635000
 20
26.455000
 30
0.0
 11
60.635000
 21
24.455000
 31
0.0
 11
60.566479
 21
24.974046
 31
0.0
 11
60.367783
 21
25.453741
 31
0.0
 11
60.049214
 21
25.869214
 31
0.0
 11
59.633741
 21
26.187783
 31
0.0
 11
59.154046
 21
26.386479
 31
0.0
 11
58.635000
 21
26.455000
 31
0.0
  0
LINE
  5
139
100
AcDbEntity
  8
0
 62
7
100
AcDbLine
 10
56.330000
 20
-26.455000
 30
0.0
 11
58.635000
 21
-26.455000
 31
0.0
  0
SPLINE
  5
13a
100
AcDbEntity
  8
0
 62
7
100
AcDbSpline
 70
0
 71
3
 72
13
 73
9
 74
7
 40
0.000000
 40
0.000000
 40
0.000000
 40
0.000000
 40
0.523550
 40
1.042767
 40
1.566317
 40
2.089866
 40
2.609084
 40
3.132633
 40
3.132633
 40
3.132633
 40
3.132633
 10
58.635000
 20
-26.455000
 30
0.0
 10
58.810026
 20
-26.441668
 30
0.0
 10
59.158631
 20
-26.415113
 30
0.0
 10
59.646313
 20
-26.205263
 30
0.0
 10
60.065996
 20
-25.885996
 30
0.0
 10
60.385262
 20
-25.466313
 30
0.0
 10
60.595113
 20
-24.978631
 30
0.0
 10
60.621667
 20
-24.630027
 30
0.0
 10
60.635000
 20
-24.455000
 30
0.0
 11
58.635000
 21
-26.455000
 31
0.0
 11
59.154046
 21
-26.386479
 31
0.0
 11
59.633741
 21
-26.187783
 31
0.0
 11
60.049214
 21
-25.869214
 31
0.0
 11
60.367783
 21
-25.453741
 31
0.0
 11
60.566479
 21
-24.974047
 31
0.0
 11
60.635000
 21
-24.455000
 31
0.0
  0
LINE
  5
13b
100
AcDbEntity
  8
0
 62
7
100
AcDbLine
 10
51.330000
 20
-33.760000
 30
0.0
 11
51.330000
 21
-31.455000
 31
0.0
  0
SPLINE
  5
13c
100
AcDbEntity
  8
0
 62
7
100
AcDbSpline
 70
0
 71
3
 72
13
 73
9
 74
7
 40
0.000000
 40
0.000000
 40
0.000000
 40
0.000000
 40
1.308874
 40
2.606917
 40
3.915792
 40
5.224666
 40
6.522709
 40
7.831583
 40
7.831583
 40
7.831583
 40
7.831583
 10
56.330000
 20
-26.455000
 30
0.0
 10
55.892434
 20
-26.488331
 30
0.0
 10
55.020922
 20
-26.554718
 30
0.0
 10
53.801717
 20
-27.079344
 30
0.0
 10
52.752510
 20
-27.877510
 30
0.0
 10
51.954344
 20
-28.926717
 30
0.0
 10
51.429718
 20
-30.145922
 30
0.0
 10
51.363331
 20
-31.017434
 30
0.0
 10
51.330000
 20
-31.455000
 30
0.0
 11
56.330000
 21
-26.455000
 31
0.0
 11
55.032384
 21
-26.626303
 31
0.0
 11
53.833149
 21
-27.123042
 31
0.0
 11
52.794466
 21
-27.919466
 31
0.0
 11
51.998042
 21
-28.958149
 31
0.0
 11
51.501303
 21
-30.157384
 31
0.0
 11
51.330000
 21
-31.455000
 31
0.0
  0
LINE
  5
13d
100
AcDbEntity
  8
0
 62
7
100
AcDbLine
 10
-49.330000
 20
-35.760000
 30
0.0
 11
49.330000
 21
-35.760000
 31
0.0
  0
SPLINE
  5
13e
100
AcDbEntity
  8
0
 62
7
100
AcDbSpline
 70
0
 71
3
 72
13
 73
9
 74
7
 40
0.000000
 40
0.000000
 40
0.000000
 40
0.000000
 40
0.523550
 40
1.042767
 40
1.566317
 40
2.089866
 40
2.609084
 40
3.132633
 40
3.132633
 40
3.132633
 40
3.132633
 10
49.330000
 20
-35.760000
 30
0.0
 10
49.505027
 20
-35.746667
 30
0.0
 10
49.853631
 20
-35.720113
 30
0.0
 10
50.341313
 20
-35.510262
 30
0.0
 10
50.760996
 20
-35.190996
 30
0.0
 10
51.080263
 20
-34.771313
 30
0.0
 10
51.290113
 20
-34.283631
 30
0.0
 10
51.316668
 20
-33.935026
 30
0.0
 10
51.330000
 20
-33.760000
 30
0.0
 11
49.330000
 21
-35.760000
 31
0.0
 11
49.849047
 21
-35.691479
 31
0.0
 11
50.328741
 21
-35.492783
 31
0.0
 11
50.744214
 21
-35.174214
 31
0.0
 11
51.062783
 21
-34.758741
 31
0.0
 11
51.261479
 21
-34.279046
 31
0.0
 11
51.330000
 21
-33.760000
 31
0.0
  0
LINE
  5
13f
100
AcDbEntity
  8
0
 62
7
100
AcDbLine
 10
-51.330000
 20
-31.455000
 30
0.0
 11
-51.330000
 21
-33.760000
 31
0.0
  0
SPLINE
  5
140
100
AcDbEntity
  8
0
 62
7
100
AcDbSpline
 70
0
 71
3
 72
13
 73
9
 74
7
 40
0.000000
 40
0.000000
 40
0.000000
 40
0.000000
 40
0.523550
 40
1.042767
 40
1.566317
 40
2.089866
 40
2.609084
 40
3.132633
 40
3.132633
 40
3.132633
 40
3.132633
 10
-51.330000
 20
-33.760000
 30
0.0
 10
-51.316668
 20
-33.935026
 30
0.0
 10
-51.290113
 20
-34.283631
 30
0.0
 10
-51.080263
 20
-34.771313
 30
0.0
 10
-50.760996
 20
-35.190996
 30
0.0
 10
-50.341313
 20
-35.510262
 30
0.0
 10
-49.853631
 20
-35.720113
 30
0.0
 10
-49.505027
 20
-35.746667
 30
0.0
 10
-49.330000
 20
-35.760000
 30
0.0
 11
-51.330000
 21
-33.760000
 31
0.0
 11
-51.261479
 21
-34.279046
 31
0.0
 11
-51.062783
 21
-34.758741
 31
0.0
 11
-50.744214
 21
-35.174214
 31
0.0
 11
-50.328741
 21
-35.492783
 31
0.0
 11
-49.849047
 21
-35.691479
 31
0.0
 11
-49.330000
 21
-35.760000
 31
0.0
  0
LINE
  5
141
100
AcDbEntity
  8
0
 62
7
100
AcDbLine
 10
-58.635000
 20
-26.455000
 30
0.0
 11
-56.330000
 21
-26.455000
 31
0.0
  0
SPLINE
  5
142
100
AcDbEntity
  8
0
 62
7
100
AcDbSpline
 70
0
 71
3
 72
13
 73
9
 74
7
 40
0.000000
 40
0.000000
 40
0.000000
 40
0.000000
 40
1.308874
 40
2.606917
 40
3.915792
 40
5.224666
 40
6.522709
 40
7.831583
 40
7.831583
 40
7.831583
 40
7.831583
 10
-51.330000
 20
-31.455000
 30
0.0
 10
-51.363331
 20
-31.017434
 30
0.0
 10
-51.429718
 20
-30.145922
 30
0.0
 10
-51.954344
 20
-28.926717
 30
0.0
 10
-52.752510
 20
-27.877510
 30
0.0
 10
-53.801717
 20
-27.079344
 30
0.0
 10
-55.020922
 20
-26.554718
 30
0.0
 10
-55.892434
 20
-26.488331
 30
0.0
 10
-56.330000
 20
-26.455000
 30
0.0
 11
-51.330000
 21
-31.455000
 31
0.0
 11
-51.501303
 21
-30.157384
 31
0.0
 11
-51.998042
 21
-28.958149
 31
0.0
 11
-52.794466
 21
-27.919466
 31
0.0
 11
-53.833149
 21
-27.123042
 31
0.0
 11
-55.032384
 21
-26.626303
 31
0.0
 11
-56.330000
 21
-26.455000
 31
0.0
  0
LINE
  5
143
100
AcDbEntity
  8
0
 62
7
100
AcDbLine
 10
-60.635000
 20
24.455000
 30
0.0
 11
-60.635000
 21
-24.455000
 31
0.0
  0
SPLINE
  5
144
100
AcDbEntity
  8
0
 62
7
100
AcDbSpline
 70
0
 71
3
 72
13
 73
9
 74
7
 40
0.000000
 40
0.000000
 40
0.000000
 40
0.000000
 40
0.523550
 40
1.042767
 40
1.566317
 40
2.089866
 40
2.609084
 40
3.132633
 40
3.132633
 40
3.132633
 40
3.132633
 10
-60.635000
 20
-24.455000
 30
0.0
 10
-60.621667
 20
-24.630027
 30
0.0
 10
-60.595113
 20
-24.978631
 30
0.0
 10
-60.385262
 20
-25.466313
 30
0.0
 10
-60.065996
 20
-25.885996
 30
0.0
 10
-59.646313
 20
-26.205263
 30
0.0
 10
-59.158631
 20
-26.415113
 30
0.0
 10
-58.810026
 20
-26.441668
 30
0.0
 10
-58.635000
 20
-26.455000
 30
0.0
 11
-60.635000
 21
-24.455000
 31
0.0
 11
-60.566479
 21
-24.974047
 31
0.0
 11
-60.367783
 21
-25.453741
 31
0.0
 11
-60.049214
 21
-25.869214
 31
0.0
 11
-59.633741
 21
-26.187783
 31
0.0
 11
-59.154046
 21
-26.386479
 31
0.0
 11
-58.635000
 21
-26.455000
 31
0.0
  0
LINE
  5
145
100
AcDbEntity
  8
0
 62
7
100
AcDbLine
 10
-56.330000
 20
26.455000
 30
0.0
 11
-58.635000
 21
26.455000
 31
0.0
  0
SPLINE
  5
146
100
AcDbEntity
  8
0
 62
7
100
AcDbSpline
 70
0
 71
3
 72
13
 73
9
 74
7
 40
0.000000
 40
0.000000
 40
0.000000
 40
0.000000
 40
0.523550
 40
1.042767
 40
1.566317
 40
2.089866
 40
2.609084
 40
3.132633
 40
3.132633
 40
3.132633
 40
3.132633
 10
-58.635000
 20
26.455000
 30
0.0
 10
-58.810026
 20
26.441667
 30
0.0
 10
-59.158631
 20
26.415113
 30
0.0
 10
-59.646313
 20
26.205262
 30
0.0
 10
-60.065996
 20
25.885996
 30
0.0
 10
-60.385262
 20
25.466313
 30
0.0
 10
-60.595113
 20
24.978631
 30
0.0
 10
-60.621667
 20
24.630026
 30
0.0
 10
-60.635000
 20
24.455000
 30
0.0
 11
-58.635000
 21
26.455000
 31
0.0
 11
-59.154046
 21
26.386479
 31
0.0
 11
-59.633741
 21
26.187783
 31
0.0
 11
-60.049214
 21
25.869214
 31
0.0
 11
-60.367783
 21
25.453741
 31
0.0
 11
-60.566479
 21
24.974046
 31
0.0
 11
-60.635000
 21
24.455000
 31
0.0
  0
LINE
  5
147
100
AcDbEntity
  8
0
 62
7
100
AcDbLine
 10
-51.330000
 20
33.760000
 30
0.0
 11
-51.330000
 21
31.455000
 31
0.0
  0
SPLINE
  5
148
100
AcDbEntity
  8
0
 62
7
100
AcDbSpline
 70
0
 71
3
 72
13
 73
9
 74
7
 40
0.000000
 40
0.000000
 40
0.000000
 40
0.000000
 40
1.308874
 40
2.606917
 40
3.915792
 40
5.224666
 40
6.522709
 40
7.831584
 40
7.831584
 40
7.831584
 40
7.831584
 10
-56.330000
 20
26.455000
 30
0.0
 10
-55.892434
 20
26.488331
 30
0.0
 10
-55.020922
 20
26.554718
 30
0.0
 10
-53.801717
 20
27.079344
 30
0.0
 10
-52.752510
 20
27.877510
 30
0.0
 10
-51.954344
 20
28.926717
 30
0.0
 10
-51.429718
 20
30.145922
 30
0.0
 10
-51.363331
 20
31.017434
 30
0.0
 10
-51.330000
 20
31.455000
 30
0.0
 11
-56.330000
 21
26.455000
 31
0.0
 11
-55.032384
 21
26.626303
 31
0.0
 11
-53.833148
 21
27.123042
 31
0.0
 11
-52.794466
 21
27.919466
 31
0.0
 11
-51.998042
 21
28.958149
 31
0.0
 11
-51.501303
 21
30.157384
 31
0.0
 11
-51.330000
 21
31.455000
 31
0.0
  0
SPLINE
  5
149
100
AcDbEntity
  8
0
 62
7
100
AcDbSpline
 70
0
 71
3
 72
13
 73
9
 74
7
 40
0.000000
 40
0.000000
 40
0.000000
 40
0.000000
 40
0.523550
 40
1.042767
 40
1.566317
 40
2.089866
 40
2.609084
 40
3.132633
 40
3.132633
 40
3.132633
 40
3.132633
 10
-49.330000
 20
35.760000
 30
0.0
 10
-49.505027
 20
35.746668
 30
0.0
 10
-49.853631
 20
35.720113
 30
0.0
 10
-50.341313
 20
35.510263
 30
0.0
 10
-50.760996
 20
35.190996
 30
0.0
 10
-51.080263
 20
34.771313
 30
0.0
 10
-51.290113
 20
34.283631
 30
0.0
 10
-51.316668
 20
33.935027
 30
0.0
 10
-51.330000
 20
33.760000
 30
0.0
 11
-49.330000
 21
35.760000
 31
0.0
 11
-49.849047
 21
35.691479
 31
0.0
 11
-50.328741
 21
35.492783
 31
0.0
 11
-50.744214
 21
35.174214
 31
0.0
 11
-51.062783
 21
34.758741
 31
0.0
 11
-51.261479
 21
34.279047
 31
0.0
 11
-51.330000
 21
33.760000
 31
0.0
  0
LINE
  5
14a
100
AcDbEntity
  8
0
 62
7
100
AcDbLine
 10
-54.680000
 20
-31.455000
 30
0.0
 11
-54.680000
 21
-31.455000
 31
0.0
  0
SPLINE
  5
14b
100
AcDbEntity
  8
0
 62
7
100
AcDbSpline
 70
0
 71
3
 72
25
 73
21
 74
19
 40
0.000000
 40
0.000000
 40
0.000000
 40
0.000000
 40
0.575791
 40
1.143341
 40
1.719132
 40
2.294923
 40
2.862473
 40
3.438264
 40
4.014055
 40
4.581605
 40
5.157396
 40
5.733187
 40
6.300737
 40
6.876528
 40
7.452319
 40
8.019869
 40
8.595660
 40
9.171451
 40
9.739001
 40
10.314792
 40
10.314792
 40
10.314792
 40
10.314792
 10
-54.680000
 20
-31.455000
 30
0.0
 10
-54.699714
 20
-31.262091
 30
0.0
 10
-54.738860
 20
-30.879033
 30
0.0
 10
-55.042570
 20
-30.372817
 30
0.0
 10
-55.487253
 20
-29.996458
 30
0.0
 10
-56.037909
 20
-29.796850
 30
0.0
 10
-56.622217
 20
-29.796850
 30
0.0
 10
-57.172102
 20
-29.996458
 30
0.0
 10
-57.619864
 20
-30.372817
 30
0.0
 10
-57.912133
 20
-30.879033
 30
0.0
 10
-58.014178
 20
-31.455000
 30
0.0
 10
-57.912133
 20
-32.030967
 30
0.0
 10
-57.619864
 20
-32.537183
 30
0.0
 10
-57.172102
 20
-32.913542
 30
0.0
 10
-56.622217
 20
-33.113150
 30
0.0
 10
-56.037909
 20
-33.113150
 30
0.0
 10
-55.487253
 20
-32.913542
 30
0.0
 10
-55.042570
 20
-32.537183
 30
0.0
 10
-54.738860
 20
-32.030967
 30
0.0
 10
-54.699714
 20
-31.647909
 30
0.0
 10
-54.680000
 20
-31.455000
 30
0.0
 11
-54.680000
 21
-31.455000
 31
0.0
 11
-54.780442
 21
-30.888037
 31
0.0
 11
-55.064217
 21
-30.396524
 31
0.0
 11
-55.505000
 21
-30.026058
 31
0.0
 11
-56.046225
 21
-29.829562
 31
0.0
 11
-56.613775
 21
-29.829562
 31
0.0
 11
-57.155000
 21
-30.026058
 31
0.0
 11
-57.595783
 21
-30.396524
 31
0.0
 11
-57.879558
 21
-30.888037
 31
0.0
 11
-57.980000
 21
-31.455000
 31
0.0
 11
-57.879558
 21
-32.021962
 31
0.0
 11
-57.595783
 21
-32.513476
 31
0.0
 11
-57.155000
 21
-32.883942
 31
0.0
 11
-56.613775
 21
-33.080438
 31
0.0
 11
-56.046225
 21
-33.080438
 31
0.0
 11
-55.505000
 21
-32.883942
 31
0.0
 11
-55.064217
 21
-32.513476
 31
0.0
 11
-54.780442
 21
-32.021962
 31
0.0
 11
-54.680000
 21
-31.455000
 31
0.0
  0
LINE
  5
14c
100
AcDbEntity
  8
0
 62
7
100
AcDbLine
 10
-54.680000
 20
31.455000
 30
0.0
 11
-54.680000
 21
31.455000
 31
0.0
  0
SPLINE
  5
14d
100
AcDbEntity
  8
0
 62
7
100
AcDbSpline
 70
0
 71
3
 72
25
 73
21
 74
19
 40
0.000000
 40
0.000000
 40
0.000000
 40
0.000000
 40
0.575791
 40
1.143341
 40
1.719132
 40
2.294923
 40
2.862473
 40
3.438264
 40
4.014055
 40
4.581605
 40
5.157396
 40
5.733187
 40
6.300737
 40
6.876528
 40
7.452319
 40
8.019869
 40
8.595660
 40
9.171451
 40
9.739001
 40
10.314792
 40
10.314792
 40
10.314792
 40
10.314792
 10
-54.680000
 20
31.455000
 30
0.0
 10
-54.699714
 20
31.647909
 30
0.0
 10
-54.738860
 20
32.030967
 30
0.0
 10
-55.042570
 20
32.537183
 30
0.0
 10
-55.487253
 20
32.913542
 30
0.0
 10
-56.037909
 20
33.113150
 30
0.0
 10
-56.622217
 20
33.113150
 30
0.0
 10
-57.172102
 20
32.913542
 30
0.0
 10
-57.619864
 20
32.537183
 30
0.0
 10
-57.912133
 20
32.030967
 30
0.0
 10
-58.014178
 20
31.455000
 30
0.0
 10
-57.912133
 20
30.879033
 30
0.0
 10
-57.619864
 20
30.372817
 30
0.0
 10
-57.172102
 20
29.996458
 30
0.0
 10
-56.622217
 20
29.796850
 30
0.0
 10
-56.037909
 20
29.796850
 30
0.0
 10
-55.487253
 20
29.996458
 30
0.0
 10
-55.042570
 20
30.372817
 30
0.0
 10
-54.738860
 20
30.879033
 30
0.0
 10
-54.699714
 20
31.262091
 30
0.0
 10
-54.680000
 20
31.455000
 30
0.0
 11
-54.680000
 21
31.455000
 31
0.0
 11
-54.780442
 21
32.021963
 31
0.0
 11
-55.064217
 21
32.513476
 31
0.0
 11
-55.505000
 21
32.883942
 31
0.0
 11
-56.046225
 21
33.080438
 31
0.0
 11
-56.613775
 21
33.080438
 31
0.0
 11
-57.155000
 21
32.883942
 31
0.0
 11
-57.595783
 21
32.513476
 31
0.0
 11
-57.879558
 21
32.021963
 31
0.0
 11
-57.980000
 21
31.455000
 31
0.0
 11
-57.879558
 21
30.888038
 31
0.0
 11
-57.595783
 21
30.396525
 31
0.0
 11
-57.155000
 21
30.026058
 31
0.0
 11
-56.613775
 21
29.829562
 31
0.0
 11
-56.046225
 21
29.829562
 31
0.0
 11
-55.505000
 21
30.026058
 31
0.0
 11
-55.064217
 21
30.396525
 31
0.0
 11
-54.780442
 21
30.888038
 31
0.0
 11
-54.680000
 21
31.455000
 31
0.0
  0
LINE
  5
14e
100
AcDbEntity
  8
0
 62
7
100
AcDbLine
 10
57.980000
 20
31.455000
 30
0.0
 11
57.980000
 21
31.455000
 31
0.0
  0
SPLINE
  5
14f
100
AcDbEntity
  8
0
 62
7
100
AcDbSpline
 70
0
 71
3
 72
25
 73
21
 74
19
 40
0.000000
 40
0.000000
 40
0.000000
 40
0.000000
 40
0.575791
 40
1.143341
 40
1.719132
 40
2.294923
 40
2.862473
 40
3.438264
 40
4.014055
 40
4.581605
 40
5.157396
 40
5.733187
 40
6.300737
 40
6.876528
 40
7.452319
 40
8.019869
 40
8.595660
 40
9.171451
 40
9.739001
 40
10.314792
 40
10.314792
 40
10.314792
 40
10.314792
 10
57.980000
 20
31.455000
 30
0.0
 10
57.960286
 20
31.647909
 30
0.0
 10
57.921140
 20
32.030967
 30
0.0
 10
57.617430
 20
32.537183
 30
0.0
 10
57.172747
 20
32.913542
 30
0.0
 10
56.622091
 20
33.113150
 30
0.0
 10
56.037783
 20
33.113150
 30
0.0
 10
55.487898
 20
32.913542
 30
0.0
 10
55.040136
 20
32.537183
 30
0.0
 10
54.747867
 20
32.030967
 30
0.0
 10
54.645822
 20
31.455000
 30
0.0
 10
54.747867
 20
30.879033
 30
0.0
 10
55.040136
 20
30.372817
 30
0.0
 10
55.487898
 20
29.996458
 30
0.0
 10
56.037783
 20
29.796850
 30
0.0
 10
56.622091
 20
29.796850
 30
0.0
 10
57.172747
 20
29.996458
 30
0.0
 10
57.617430
 20
30.372817
 30
0.0
 10
57.921140
 20
30.879033
 30
0.0
 10
57.960286
 20
31.262091
 30
0.0
 10
57.980000
 20
31.455000
 30
0.0
 11
57.980000
 21
31.455000
 31
0.0
 11
57.879558
 21
32.021963
 31
0.0
 11
57.595783
 21
32.513476
 31
0.0
 11
57.155000
 21
32.883942
 31
0.0
 11
56.613775
 21
33.080438
 31
0.0
 11
56.046225
 21
33.080438
 31
0.0
 11
55.505000
 21
32.883942
 31
0.0
 11
55.064217
 21
32.513476
 31
0.0
 11
54.780442
 21
32.021963
 31
0.0
 11
54.680000
 21
31.455000
 31
0.0
 11
54.780442
 21
30.888038
 31
0.0
 11
55.064217
 21
30.396525
 31
0.0
 11
55.505000
 21
30.026058
 31
0.0
 11
56.046225
 21
29.829562
 31
0.0
 11
56.613775
 21
29.829562
 31
0.0
 11
57.155000
 21
30.026058
 31
0.0
 11
57.595783
 21
30.396525
 31
0.0
 11
57.879558
 21
30.888038
 31
0.0
 11
57.980000
 21
31.455000
 31
0.0
  0
LINE
  5
150
100
AcDbEntity
  8
0
 62
7
100
AcDbLine
 10
57.980000
 20
-31.455000
 30
0.0
 11
57.980000
 21
-31.455000
 31
0.0
  0
SPLINE
  5
151
100
AcDbEntity
  8
0
 62
7
100
AcDbSpline
 70
0
 71
3
 72
25
 73
21
 74
19
 40
0.000000
 40
0.000000
 40
0.000000
 40
0.000000
 40
0.575791
 40
1.143341
 40
1.719132
 40
2.294923
 40
2.862473
 40
3.438264
 40
4.014055
 40
4.581605
 40
5.157396
 40
5.733187
 40
6.300737
 40
6.876528
 40
7.452319
 40
8.019869
 40
8.595660
 40
9.171451
 40
9.739001
 40
10.314792
 40
10.314792
 40
10.314792
 40
10.314792
 10
57.980000
 20
-31.455000
 30
0.0
 10
57.960286
 20
-31.262091
 30
0.0
 10
57.921140
 20
-30.879033
 30
0.0
 10
57.617430
 20
-30.372817
 30
0.0
 10
57.172747
 20
-29.996458
 30
0.0
 10
56.622091
 20
-29.796850
 30
0.0
 10
56.037783
 20
-29.796850
 30
0.0
 10
55.487898
 20
-29.996458
 30
0.0
 10
55.040136
 20
-30.372817
 30
0.0
 10
54.747867
 20
-30.879033
 30
0.0
 10
54.645822
 20
-31.455000
 30
0.0
 10
54.747867
 20
-32.030967
 30
0.0
 10
55.040136
 20
-32.537183
 30
0.0
 10
55.487898
 20
-32.913542
 30
0.0
 10
56.037783
 20
-33.113150
 30
0.0
 10
56.622091
 20
-33.113150
 30
0.0
 10
57.172747
 20
-32.913542
 30
0.0
 10
57.617430
 20
-32.537183
 30
0.0
 10
57.921140
 20
-32.030967
 30
0.0
 10
57.960286
 20
-31.647909
 30
0.0
 10
57.980000
 20
-31.455000
 30
0.0
 11
57.980000
 21
-31.455000
 31
0.0
 11
57.879558
 21
-30.888037
 31
0.0
 11
57.595783
 21
-30.396524
 31
0.0
 11
57.155000
 21
-30.026058
 31
0.0
 11
56.613775
 21
-29.829562
 31
0.0
 11
56.046225
 21
-29.829562
 31
0.0
 11
55.505000
 21
-30.026058
 31
0.0
 11
55.064217
 21
-30.396524
 31
0.0
 11
54.780442
 21
-30.888037
 31
0.0
 11
54.680000
 21
-31.455000
 31
0.0
 11
54.780442
 21
-32.021962
 31
0.0
 11
55.064217
 21
-32.513476
 31
0.0
 11
55.505000
 21
-32.883942
 31
0.0
 11
56.046225
 21
-33.080438
 31
0.0
 11
56.613775
 21
-33.080438
 31
0.0
 11
57.155000
 21
-32.883942
 31
0.0
 11
57.595783
 21
-32.513476
 31
0.0
 11
57.879558
 21
-32.021962
 31
0.0
 11
57.980000
 21
-31.455000
 31
0.0
  0
ENDSEC
  0
SECTION
  2
OBJECTS
  0
DICTIONARY
  5
C
330
0
100
AcDbDictionary
  3
ACAD_GROUP
350
D
  3
ACAD_MLINESTYLE
350
17
  0
DICTIONARY
  5
D
330
C
100
AcDbDictionary
  0
DICTIONARY
  5
1A
330
C
100
AcDbDictionary
  0
DICTIONARY
  5
17
330
C
100
AcDbDictionary
  3
STANDARD
350
18
  0
DICTIONARY
  5
19
330
C
100
AcDbDictionary
  0
ENDSEC
  0
EOF
