  0
SECTION
  2
HEADER
  9
$ACADVER
  1
AC1014
  9
$HANDSEED
  5
FFFF
  9
$MEASUREMENT
 70
     1
  0
ENDSEC
  0
SECTION
  2
TABLES
  0
TABLE
  2
VPORT
  5
8
330
0
100
AcDbSymbolTable
 70
     4
  0
VPORT
  5
2E
330
8
100
AcDbSymbolTableRecord
100
AcDbViewportTableRecord
  2
*ACTIVE
 70
     0
 10
0.0
 20
0.0
 11
1.0
 21
1.0
 12
210.0
 22
148.5
 13
0.0
 23
0.0
 14
10.0
 24
10.0
 15
10.0
 25
10.0
 16
0.0
 26
0.0
 36
1.0
 17
0.0
 27
0.0
 37
0.0
 40
341.0
 41
1.24
 42
50.0
 43
0.0
 44
0.0
 50
0.0
 51
0.0
 71
     0
 72
   100
 73
     1
 74
     3
 75
     0
 76
     0
 77
     0
 78
     0
  0
ENDTAB
  0
TABLE
  2
LTYPE
  5
5
330
0
100
AcDbSymbolTable
 70
     1
  0
LTYPE
  5
14
330
5
100
AcDbSymbolTableRecord
100
AcDbLinetypeTableRecord
  2
BYBLOCK
 70
     0
  3

 72
    65
 73
     0
 40
0.0
  0
LTYPE
  5
15
330
5
100
AcDbSymbolTableRecord
100
AcDbLinetypeTableRecord
  2
BYLAYER
 70
     0
  3

 72
    65
 73
     0
 40
0.0
  0
LTYPE
  5
16
330
5
100
AcDbSymbolTableRecord
100
AcDbLinetypeTableRecord
  2
CONTINUOUS
 70
     0
  3
Solid line
 72
    65
 73
     0
 40
0.0
  0
ENDTAB
  0
TABLE
  2
LAYER
  5
2
100
AcDbSymbolTable
 70
1
  0
LAYER
  5
50
100
AcDbSymbolTableRecord
100
AcDbLayerTableRecord
  2
0
 70
0
  6
CONTINUOUS
  0
ENDTAB
  0
TABLE
  2
STYLE
  5
3
330
0
100
AcDbSymbolTable
 70
     1
  0
STYLE
  5
11
330
3
100
AcDbSymbolTableRecord
100
AcDbTextStyleTableRecord
  2
STANDARD
 70
     0
 40
0.0
 41
1.0
 50
0.0
 71
     0
 42
2.5
  3
txt
  4

  0
ENDTAB
  0
TABLE
  2
VIEW
  5
6
330
0
100
AcDbSymbolTable
 70
     0
  0
ENDTAB
  0
TABLE
  2
UCS
  5
7
330
0
100
AcDbSymbolTable
 70
     0
  0
ENDTAB
  0
TABLE
  2
APPID
  5
9
330
0
100
AcDbSymbolTable
 70
     2
  0
APPID
  5
12
330
9
100
AcDbSymbolTableRecord
100
AcDbRegAppTableRecord
  2
ACAD
 70
     0
  0
ENDTAB
  0
TABLE
  2
DIMSTYLE
  5
A
330
0
100
AcDbSymbolTable
 70
     1
  0
DIMSTYLE
105
27
330
A
100
AcDbSymbolTableRecord
100
AcDbDimStyleTableRecord
  2
ISO-25
 70
     0
  3

  4

  5

  6

  7

 40
1.0
 41
2.5
 42
0.625
 43
3.75
 44
1.25
 45
0.0
 46
0.0
 47
0.0
 48
0.0
140
2.5
141
2.5
142
0.0
143
0.03937007874016
144
1.0
145
0.0
146
1.0
147
0.625
 71
     0
 72
     0
 73
     0
 74
     0
 75
     0
 76
     0
 77
     1
 78
     8
170
     0
171
     3
172
     1
173
     0
174
     0
175
     0
176
     0
177
     0
178
     0
270
     2
271
     2
272
     2
273
     2
274
     3
340
11
275
     0
280
     0
281
     0
282
     0
283
     0
284
     8
285
     0
286
     0
287
     3
288
     0
  0
ENDTAB
  0
TABLE
  2
BLOCK_RECORD
  5
1
330
0
100
AcDbSymbolTable
 70
     1
  0
BLOCK_RECORD
  5
1F
330
1
100
AcDbSymbolTableRecord
100
AcDbBlockTableRecord
  2
*MODEL_SPACE
  0
BLOCK_RECORD
  5
1B
330
1
100
AcDbSymbolTableRecord
100
AcDbBlockTableRecord
  2
*PAPER_SPACE
  0
ENDTAB
  0
ENDSEC
  0
SECTION
  2
BLOCKS
  0
BLOCK
  5
20
330
1F
100
AcDbEntity
  8
0
100
AcDbBlockBegin
  2
*MODEL_SPACE
 70
     0
 10
0.0
 20
0.0
 30
0.0
  3
*MODEL_SPACE
  1

  0
ENDBLK
  5
21
330
1F
100
AcDbEntity
  8
0
100
AcDbBlockEnd
  0
BLOCK
  5
1C
330
1B
100
AcDbEntity
 67
     1
  8
0
100
AcDbBlockBegin
  2
*PAPER_SPACE
  1

  0
ENDBLK
  5
1D
330
1B
100
AcDbEntity
 67
     1
  8
0
100
AcDbBlockEnd
  0
ENDSEC
  0
SECTION
  2
ENTITIES
  0
LINE
  5
100
100
AcDbEntity
  8
0
 62
7
100
AcDbLine
 10
39.833330
 20
-27.924997
 30
0.0
 11
39.833330
 21
-27.924997
 31
0.0
  0
SPLINE
  5
101
100
AcDbEntity
  8
0
 62
7
100
AcDbSpline
 70
0
 71
3
 72
25
 73
21
 74
19
 40
0.000000
 40
0.000000
 40
0.000000
 40
0.000000
 40
0.907307
 40
1.801628
 40
2.708935
 40
3.616242
 40
4.510563
 40
5.417870
 40
6.325177
 40
7.219498
 40
8.126805
 40
9.034112
 40
9.928433
 40
10.835740
 40
11.743047
 40
12.637368
 40
13.544675
 40
14.451982
 40
15.346303
 40
16.253610
 40
16.253610
 40
16.253610
 40
16.253610
 10
39.833330
 20
-27.924997
 30
0.0
 10
39.802265
 20
-27.621019
 30
0.0
 10
39.740581
 20
-27.017414
 30
0.0
 10
39.262007
 20
-26.219739
 30
0.0
 10
38.561295
 20
-25.626690
 30
0.0
 10
37.693594
 20
-25.312156
 30
0.0
 10
36.772867
 20
-25.312156
 30
0.0
 10
35.906382
 20
-25.626690
 30
0.0
 10
35.200817
 20
-26.219739
 30
0.0
 10
34.740273
 20
-27.017414
 30
0.0
 10
34.579474
 20
-27.924997
 30
0.0
 10
34.740273
 20
-28.832581
 30
0.0
 10
35.200817
 20
-29.630255
 30
0.0
 10
35.906382
 20
-30.223305
 30
0.0
 10
36.772867
 20
-30.537839
 30
0.0
 10
37.693595
 20
-30.537839
 30
0.0
 10
38.561295
 20
-30.223305
 30
0.0
 10
39.262007
 20
-29.630255
 30
0.0
 10
39.740581
 20
-28.832581
 30
0.0
 10
39.802265
 20
-28.228975
 30
0.0
 10
39.833330
 20
-27.924997
 30
0.0
 11
39.833330
 21
-27.924997
 31
0.0
 11
39.675058
 21
-27.031602
 31
0.0
 11
39.227897
 21
-26.257097
 31
0.0
 11
38.533330
 21
-25.673331
 31
0.0
 11
37.680491
 21
-25.363701
 31
0.0
 11
36.786169
 21
-25.363701
 31
0.0
 11
35.933330
 21
-25.673331
 31
0.0
 11
35.238763
 21
-26.257097
 31
0.0
 11
34.791602
 21
-27.031602
 31
0.0
 11
34.633330
 21
-27.924997
 31
0.0
 11
34.791602
 21
-28.818393
 31
0.0
 11
35.238763
 21
-29.592898
 31
0.0
 11
35.933330
 21
-30.176663
 31
0.0
 11
36.786169
 21
-30.486294
 31
0.0
 11
37.680491
 21
-30.486294
 31
0.0
 11
38.533330
 21
-30.176663
 31
0.0
 11
39.227897
 21
-29.592898
 31
0.0
 11
39.675058
 21
-28.818393
 31
0.0
 11
39.833330
 21
-27.924997
 31
0.0
  0
LINE
  5
102
100
AcDbEntity
  8
0
 62
7
100
AcDbLine
 10
-34.633330
 20
27.924998
 30
0.0
 11
-34.633330
 21
27.924998
 31
0.0
  0
SPLINE
  5
103
100
AcDbEntity
  8
0
 62
7
100
AcDbSpline
 70
0
 71
3
 72
25
 73
21
 74
19
 40
0.000000
 40
0.000000
 40
0.000000
 40
0.000000
 40
0.907307
 40
1.801628
 40
2.708935
 40
3.616242
 40
4.510563
 40
5.417870
 40
6.325177
 40
7.219498
 40
8.126805
 40
9.034112
 40
9.928433
 40
10.835740
 40
11.743047
 40
12.637368
 40
13.544675
 40
14.451982
 40
15.346303
 40
16.253610
 40
16.253610
 40
16.253610
 40
16.253610
 10
-34.633330
 20
27.924998
 30
0.0
 10
-34.664395
 20
28.228976
 30
0.0
 10
-34.726080
 20
28.832581
 30
0.0
 10
-35.204653
 20
29.630255
 30
0.0
 10
-35.905365
 20
30.223305
 30
0.0
 10
-36.773066
 20
30.537839
 30
0.0
 10
-37.693794
 20
30.537839
 30
0.0
 10
-38.560279
 20
30.223305
 30
0.0
 10
-39.265843
 20
29.630255
 30
0.0
 10
-39.726388
 20
28.832581
 30
0.0
 10
-39.887187
 20
27.924998
 30
0.0
 10
-39.726388
 20
27.017414
 30
0.0
 10
-39.265843
 20
26.219740
 30
0.0
 10
-38.560279
 20
25.626690
 30
0.0
 10
-37.693794
 20
25.312156
 30
0.0
 10
-36.773066
 20
25.312156
 30
0.0
 10
-35.905365
 20
25.626690
 30
0.0
 10
-35.204653
 20
26.219740
 30
0.0
 10
-34.726080
 20
27.017414
 30
0.0
 10
-34.664395
 20
27.621020
 30
0.0
 10
-34.633330
 20
27.924998
 30
0.0
 11
-34.633330
 21
27.924998
 31
0.0
 11
-34.791602
 21
28.818393
 31
0.0
 11
-35.238763
 21
29.592898
 31
0.0
 11
-35.933330
 21
30.176663
 31
0.0
 11
-36.786169
 21
30.486294
 31
0.0
 11
-37.680491
 21
30.486294
 31
0.0
 11
-38.533330
 21
30.176663
 31
0.0
 11
-39.227897
 21
29.592898
 31
0.0
 11
-39.675058
 21
28.818393
 31
0.0
 11
-39.833330
 21
27.924998
 31
0.0
 11
-39.675058
 21
27.031602
 31
0.0
 11
-39.227897
 21
26.257097
 31
0.0
 11
-38.533330
 21
25.673332
 31
0.0
 11
-37.680491
 21
25.363701
 31
0.0
 11
-36.786169
 21
25.363701
 31
0.0
 11
-35.933330
 21
25.673332
 31
0.0
 11
-35.238763
 21
26.257097
 31
0.0
 11
-34.791602
 21
27.031602
 31
0.0
 11
-34.633330
 21
27.924998
 31
0.0
  0
LINE
  5
104
100
AcDbEntity
  8
0
 62
7
100
AcDbLine
 10
-31.000000
 20
-34.000000
 30
0.0
 11
31.000000
 21
-34.000000
 31
0.0
  0
SPLINE
  5
105
100
AcDbEntity
  8
0
 62
7
100
AcDbSpline
 70
0
 71
3
 72
13
 73
9
 74
7
 40
0.000000
 40
0.000000
 40
0.000000
 40
0.000000
 40
3.141299
 40
6.256602
 40
9.397900
 40
12.539199
 40
15.654502
 40
18.795801
 40
18.795801
 40
18.795801
 40
18.795801
 10
-43.000000
 20
-22.000000
 30
0.0
 10
-42.920005
 20
-23.050159
 30
0.0
 10
-42.760677
 20
-25.141786
 30
0.0
 10
-41.501575
 20
-28.067880
 30
0.0
 10
-39.585975
 20
-30.585975
 30
0.0
 10
-37.067880
 20
-32.501575
 30
0.0
 10
-34.141786
 20
-33.760677
 30
0.0
 10
-32.050159
 20
-33.920005
 30
0.0
 10
-31.000000
 20
-34.000000
 30
0.0
 11
-43.000000
 21
-22.000000
 31
0.0
 11
-42.588874
 21
-25.114279
 31
0.0
 11
-41.396699
 21
-27.992444
 31
0.0
 11
-39.485281
 21
-30.485281
 31
0.0
 11
-36.992444
 21
-32.396699
 31
0.0
 11
-34.114279
 21
-33.588874
 31
0.0
 11
-31.000000
 21
-34.000000
 31
0.0
  0
LINE
  5
106
100
AcDbEntity
  8
0
 62
7
100
AcDbLine
 10
43.000000
 20
-22.000000
 30
0.0
 11
43.000000
 21
22.000000
 31
0.0
  0
SPLINE
  5
107
100
AcDbEntity
  8
0
 62
7
100
AcDbSpline
 70
0
 71
3
 72
13
 73
9
 74
7
 40
0.000000
 40
0.000000
 40
0.000000
 40
0.000000
 40
3.141299
 40
6.256602
 40
9.397900
 40
12.539199
 40
15.654502
 40
18.795801
 40
18.795801
 40
18.795801
 40
18.795801
 10
31.000000
 20
-34.000000
 30
0.0
 10
32.050159
 20
-33.920005
 30
0.0
 10
34.141786
 20
-33.760677
 30
0.0
 10
37.067880
 20
-32.501575
 30
0.0
 10
39.585975
 20
-30.585975
 30
0.0
 10
41.501575
 20
-28.067880
 30
0.0
 10
42.760677
 20
-25.141786
 30
0.0
 10
42.920005
 20
-23.050159
 30
0.0
 10
43.000000
 20
-22.000000
 30
0.0
 11
31.000000
 21
-34.000000
 31
0.0
 11
34.114279
 21
-33.588874
 31
0.0
 11
36.992444
 21
-32.396699
 31
0.0
 11
39.485281
 21
-30.485281
 31
0.0
 11
41.396699
 21
-27.992444
 31
0.0
 11
42.588874
 21
-25.114279
 31
0.0
 11
43.000000
 21
-22.000000
 31
0.0
  0
LINE
  5
108
100
AcDbEntity
  8
0
 62
7
100
AcDbLine
 10
31.000000
 20
34.000000
 30
0.0
 11
-31.000000
 21
34.000000
 31
0.0
  0
SPLINE
  5
109
100
AcDbEntity
  8
0
 62
7
100
AcDbSpline
 70
0
 71
3
 72
13
 73
9
 74
7
 40
0.000000
 40
0.000000
 40
0.000000
 40
0.000000
 40
3.141299
 40
6.256602
 40
9.397900
 40
12.539199
 40
15.654502
 40
18.795801
 40
18.795801
 40
18.795801
 40
18.795801
 10
43.000000
 20
22.000000
 30
0.0
 10
42.920005
 20
23.050159
 30
0.0
 10
42.760677
 20
25.141786
 30
0.0
 10
41.501575
 20
28.067880
 30
0.0
 10
39.585975
 20
30.585975
 30
0.0
 10
37.067880
 20
32.501575
 30
0.0
 10
34.141786
 20
33.760677
 30
0.0
 10
32.050159
 20
33.920005
 30
0.0
 10
31.000000
 20
34.000000
 30
0.0
 11
43.000000
 21
22.000000
 31
0.0
 11
42.588874
 21
25.114279
 31
0.0
 11
41.396699
 21
27.992444
 31
0.0
 11
39.485281
 21
30.485281
 31
0.0
 11
36.992444
 21
32.396699
 31
0.0
 11
34.114279
 21
33.588874
 31
0.0
 11
31.000000
 21
34.000000
 31
0.0
  0
LINE
  5
10a
100
AcDbEntity
  8
0
 62
7
100
AcDbLine
 10
-43.000000
 20
22.000000
 30
0.0
 11
-43.000000
 21
-22.000000
 31
0.0
  0
SPLINE
  5
10b
100
AcDbEntity
  8
0
 62
7
100
AcDbSpline
 70
0
 71
3
 72
13
 73
9
 74
7
 40
0.000000
 40
0.000000
 40
0.000000
 40
0.000000
 40
3.141299
 40
6.256602
 40
9.397900
 40
12.539199
 40
15.654502
 40
18.795801
 40
18.795801
 40
18.795801
 40
18.795801
 10
-31.000000
 20
34.000000
 30
0.0
 10
-32.050159
 20
33.920005
 30
0.0
 10
-34.141786
 20
33.760677
 30
0.0
 10
-37.067880
 20
32.501575
 30
0.0
 10
-39.585975
 20
30.585975
 30
0.0
 10
-41.501575
 20
28.067880
 30
0.0
 10
-42.760677
 20
25.141786
 30
0.0
 10
-42.920005
 20
23.050159
 30
0.0
 10
-43.000000
 20
22.000000
 30
0.0
 11
-31.000000
 21
34.000000
 31
0.0
 11
-34.114279
 21
33.588874
 31
0.0
 11
-36.992444
 21
32.396699
 31
0.0
 11
-39.485281
 21
30.485281
 31
0.0
 11
-41.396699
 21
27.992444
 31
0.0
 11
-42.588874
 21
25.114279
 31
0.0
 11
-43.000000
 21
22.000000
 31
0.0
  0
LINE
  5
10c
100
AcDbEntity
  8
0
 62
7
100
AcDbLine
 10
39.833330
 20
27.924998
 30
0.0
 11
39.833330
 21
27.924998
 31
0.0
  0
SPLINE
  5
10d
100
AcDbEntity
  8
0
 62
7
100
AcDbSpline
 70
0
 71
3
 72
25
 73
21
 74
19
 40
0.000000
 40
0.000000
 40
0.000000
 40
0.000000
 40
0.907307
 40
1.801628
 40
2.708935
 40
3.616242
 40
4.510563
 40
5.417870
 40
6.325177
 40
7.219498
 40
8.126805
 40
9.034112
 40
9.928433
 40
10.835740
 40
11.743047
 40
12.637368
 40
13.544675
 40
14.451982
 40
15.346303
 40
16.253610
 40
16.253610
 40
16.253610
 40
16.253610
 10
39.833330
 20
27.924998
 30
0.0
 10
39.802265
 20
28.228976
 30
0.0
 10
39.740581
 20
28.832581
 30
0.0
 10
39.262007
 20
29.630255
 30
0.0
 10
38.561295
 20
30.223305
 30
0.0
 10
37.693594
 20
30.537839
 30
0.0
 10
36.772867
 20
30.537839
 30
0.0
 10
35.906382
 20
30.223305
 30
0.0
 10
35.200817
 20
29.630255
 30
0.0
 10
34.740273
 20
28.832581
 30
0.0
 10
34.579474
 20
27.924998
 30
0.0
 10
34.740273
 20
27.017414
 30
0.0
 10
35.200817
 20
26.219740
 30
0.0
 10
35.906382
 20
25.626690
 30
0.0
 10
36.772867
 20
25.312156
 30
0.0
 10
37.693595
 20
25.312156
 30
0.0
 10
38.561295
 20
25.626690
 30
0.0
 10
39.262007
 20
26.219740
 30
0.0
 10
39.740581
 20
27.017414
 30
0.0
 10
39.802265
 20
27.621020
 30
0.0
 10
39.833330
 20
27.924998
 30
0.0
 11
39.833330
 21
27.924998
 31
0.0
 11
39.675058
 21
28.818393
 31
0.0
 11
39.227897
 21
29.592898
 31
0.0
 11
38.533330
 21
30.176663
 31
0.0
 11
37.680491
 21
30.486294
 31
0.0
 11
36.786169
 21
30.486294
 31
0.0
 11
35.933330
 21
30.176663
 31
0.0
 11
35.238763
 21
29.592898
 31
0.0
 11
34.791602
 21
28.818393
 31
0.0
 11
34.633330
 21
27.924998
 31
0.0
 11
34.791602
 21
27.031602
 31
0.0
 11
35.238763
 21
26.257097
 31
0.0
 11
35.933330
 21
25.673332
 31
0.0
 11
36.786169
 21
25.363701
 31
0.0
 11
37.680491
 21
25.363701
 31
0.0
 11
38.533330
 21
25.673332
 31
0.0
 11
39.227897
 21
26.257097
 31
0.0
 11
39.675058
 21
27.031602
 31
0.0
 11
39.833330
 21
27.924998
 31
0.0
  0
LINE
  5
10e
100
AcDbEntity
  8
0
 62
7
100
AcDbLine
 10
-34.633330
 20
-27.924997
 30
0.0
 11
-34.633330
 21
-27.924997
 31
0.0
  0
LINE
  5
10f
100
AcDbEntity
  8
0
 62
7
100
AcDbLine
 10
2.500000
 20
32.000000
 30
0.0
 11
-2.500000
 21
32.000000
 31
0.0
  0
LINE
  5
110
100
AcDbEntity
  8
0
 62
7
100
AcDbLine
 10
2.500000
 20
30.000000
 30
0.0
 11
2.500000
 21
32.000000
 31
0.0
  0
LINE
  5
111
100
AcDbEntity
  8
0
 62
7
100
AcDbLine
 10
-2.500000
 20
30.000000
 30
0.0
 11
2.500000
 21
30.000000
 31
0.0
  0
LINE
  5
112
100
AcDbEntity
  8
0
 62
7
100
AcDbLine
 10
-2.500000
 20
32.000000
 30
0.0
 11
-2.500000
 21
30.000000
 31
0.0
  0
LINE
  5
113
100
AcDbEntity
  8
0
 62
7
100
AcDbLine
 10
-7.500000
 20
30.000000
 30
0.0
 11
-7.500000
 21
32.000000
 31
0.0
  0
LINE
  5
114
100
AcDbEntity
  8
0
 62
7
100
AcDbLine
 10
-12.500000
 20
30.000000
 30
0.0
 11
-7.500000
 21
30.000000
 31
0.0
  0
LINE
  5
115
100
AcDbEntity
  8
0
 62
7
100
AcDbLine
 10
-12.500000
 20
32.000000
 30
0.0
 11
-12.500000
 21
30.000000
 31
0.0
  0
LINE
  5
116
100
AcDbEntity
  8
0
 62
7
100
AcDbLine
 10
-7.500000
 20
32.000000
 30
0.0
 11
-12.500000
 21
32.000000
 31
0.0
  0
LINE
  5
117
100
AcDbEntity
  8
0
 62
7
100
AcDbLine
 10
12.500000
 20
30.000000
 30
0.0
 11
12.500000
 21
32.000000
 31
0.0
  0
LINE
  5
118
100
AcDbEntity
  8
0
 62
7
100
AcDbLine
 10
7.500000
 20
30.000000
 30
0.0
 11
12.500000
 21
30.000000
 31
0.0
  0
LINE
  5
119
100
AcDbEntity
  8
0
 62
7
100
AcDbLine
 10
7.500000
 20
32.000000
 30
0.0
 11
7.500000
 21
30.000000
 31
0.0
  0
LINE
  5
11a
100
AcDbEntity
  8
0
 62
7
100
AcDbLine
 10
12.500000
 20
32.000000
 30
0.0
 11
7.500000
 21
32.000000
 31
0.0
  0
LINE
  5
11b
100
AcDbEntity
  8
0
 62
7
100
AcDbLine
 10
22.500000
 20
30.000000
 30
0.0
 11
22.500000
 21
32.000000
 31
0.0
  0
LINE
  5
11c
100
AcDbEntity
  8
0
 62
7
100
AcDbLine
 10
17.500000
 20
30.000000
 30
0.0
 11
22.500000
 21
30.000000
 31
0.0
  0
LINE
  5
11d
100
AcDbEntity
  8
0
 62
7
100
AcDbLine
 10
17.500000
 20
32.000000
 30
0.0
 11
17.500000
 21
30.000000
 31
0.0
  0
LINE
  5
11e
100
AcDbEntity
  8
0
 62
7
100
AcDbLine
 10
22.500000
 20
32.000000
 30
0.0
 11
17.500000
 21
32.000000
 31
0.0
  0
LINE
  5
11f
100
AcDbEntity
  8
0
 62
7
100
AcDbLine
 10
32.500000
 20
30.000000
 30
0.0
 11
32.500000
 21
32.000000
 31
0.0
  0
LINE
  5
120
100
AcDbEntity
  8
0
 62
7
100
AcDbLine
 10
27.500000
 20
30.000000
 30
0.0
 11
32.500000
 21
30.000000
 31
0.0
  0
LINE
  5
121
100
AcDbEntity
  8
0
 62
7
100
AcDbLine
 10
27.500000
 20
32.000000
 30
0.0
 11
27.500000
 21
30.000000
 31
0.0
  0
LINE
  5
122
100
AcDbEntity
  8
0
 62
7
100
AcDbLine
 10
32.500000
 20
32.000000
 30
0.0
 11
27.500000
 21
32.000000
 31
0.0
  0
LINE
  5
123
100
AcDbEntity
  8
0
 62
7
100
AcDbLine
 10
-17.500000
 20
30.000000
 30
0.0
 11
-17.500000
 21
32.000000
 31
0.0
  0
LINE
  5
124
100
AcDbEntity
  8
0
 62
7
100
AcDbLine
 10
-22.500000
 20
30.000000
 30
0.0
 11
-17.500000
 21
30.000000
 31
0.0
  0
LINE
  5
125
100
AcDbEntity
  8
0
 62
7
100
AcDbLine
 10
-22.500000
 20
32.000000
 30
0.0
 11
-22.500000
 21
30.000000
 31
0.0
  0
LINE
  5
126
100
AcDbEntity
  8
0
 62
7
100
AcDbLine
 10
-17.500000
 20
32.000000
 30
0.0
 11
-22.500000
 21
32.000000
 31
0.0
  0
LINE
  5
127
100
AcDbEntity
  8
0
 62
7
100
AcDbLine
 10
-27.500000
 20
30.000000
 30
0.0
 11
-27.500000
 21
32.000000
 31
0.0
  0
LINE
  5
128
100
AcDbEntity
  8
0
 62
7
100
AcDbLine
 10
-32.500000
 20
30.000000
 30
0.0
 11
-27.500000
 21
30.000000
 31
0.0
  0
LINE
  5
129
100
AcDbEntity
  8
0
 62
7
100
AcDbLine
 10
-32.500000
 20
32.000000
 30
0.0
 11
-32.500000
 21
30.000000
 31
0.0
  0
LINE
  5
12a
100
AcDbEntity
  8
0
 62
7
100
AcDbLine
 10
-27.500000
 20
32.000000
 30
0.0
 11
-32.500000
 21
32.000000
 31
0.0
  0
LINE
  5
12b
100
AcDbEntity
  8
0
 62
7
100
AcDbLine
 10
-32.500000
 20
-32.000000
 30
0.0
 11
-27.500000
 21
-32.000000
 31
0.0
  0
LINE
  5
12c
100
AcDbEntity
  8
0
 62
7
100
AcDbLine
 10
-32.500000
 20
-30.000000
 30
0.0
 11
-32.500000
 21
-32.000000
 31
0.0
  0
LINE
  5
12d
100
AcDbEntity
  8
0
 62
7
100
AcDbLine
 10
-27.500000
 20
-30.000000
 30
0.0
 11
-32.500000
 21
-30.000000
 31
0.0
  0
LINE
  5
12e
100
AcDbEntity
  8
0
 62
7
100
AcDbLine
 10
-27.500000
 20
-32.000000
 30
0.0
 11
-27.500000
 21
-30.000000
 31
0.0
  0
LINE
  5
12f
100
AcDbEntity
  8
0
 62
7
100
AcDbLine
 10
-22.500000
 20
-32.000000
 30
0.0
 11
-17.500000
 21
-32.000000
 31
0.0
  0
LINE
  5
130
100
AcDbEntity
  8
0
 62
7
100
AcDbLine
 10
-22.500000
 20
-30.000000
 30
0.0
 11
-22.500000
 21
-32.000000
 31
0.0
  0
LINE
  5
131
100
AcDbEntity
  8
0
 62
7
100
AcDbLine
 10
-17.500000
 20
-30.000000
 30
0.0
 11
-22.500000
 21
-30.000000
 31
0.0
  0
LINE
  5
132
100
AcDbEntity
  8
0
 62
7
100
AcDbLine
 10
-17.500000
 20
-32.000000
 30
0.0
 11
-17.500000
 21
-30.000000
 31
0.0
  0
LINE
  5
133
100
AcDbEntity
  8
0
 62
7
100
AcDbLine
 10
-12.500000
 20
-32.000000
 30
0.0
 11
-7.500000
 21
-32.000000
 31
0.0
  0
LINE
  5
134
100
AcDbEntity
  8
0
 62
7
100
AcDbLine
 10
-12.500000
 20
-30.000000
 30
0.0
 11
-12.500000
 21
-32.000000
 31
0.0
  0
LINE
  5
135
100
AcDbEntity
  8
0
 62
7
100
AcDbLine
 10
-7.500000
 20
-30.000000
 30
0.0
 11
-12.500000
 21
-30.000000
 31
0.0
  0
LINE
  5
136
100
AcDbEntity
  8
0
 62
7
100
AcDbLine
 10
-7.500000
 20
-32.000000
 30
0.0
 11
-7.500000
 21
-30.000000
 31
0.0
  0
LINE
  5
137
100
AcDbEntity
  8
0
 62
7
100
AcDbLine
 10
27.500000
 20
-32.000000
 30
0.0
 11
32.500000
 21
-32.000000
 31
0.0
  0
LINE
  5
138
100
AcDbEntity
  8
0
 62
7
100
AcDbLine
 10
27.500000
 20
-30.000000
 30
0.0
 11
27.500000
 21
-32.000000
 31
0.0
  0
LINE
  5
139
100
AcDbEntity
  8
0
 62
7
100
AcDbLine
 10
32.500000
 20
-30.000000
 30
0.0
 11
27.500000
 21
-30.000000
 31
0.0
  0
LINE
  5
13a
100
AcDbEntity
  8
0
 62
7
100
AcDbLine
 10
32.500000
 20
-32.000000
 30
0.0
 11
32.500000
 21
-30.000000
 31
0.0
  0
LINE
  5
13b
100
AcDbEntity
  8
0
 62
7
100
AcDbLine
 10
17.500000
 20
-32.000000
 30
0.0
 11
22.500000
 21
-32.000000
 31
0.0
  0
LINE
  5
13c
100
AcDbEntity
  8
0
 62
7
100
AcDbLine
 10
17.500000
 20
-30.000000
 30
0.0
 11
17.500000
 21
-32.000000
 31
0.0
  0
LINE
  5
13d
100
AcDbEntity
  8
0
 62
7
100
AcDbLine
 10
22.500000
 20
-30.000000
 30
0.0
 11
17.500000
 21
-30.000000
 31
0.0
  0
LINE
  5
13e
100
AcDbEntity
  8
0
 62
7
100
AcDbLine
 10
22.500000
 20
-32.000000
 30
0.0
 11
22.500000
 21
-30.000000
 31
0.0
  0
LINE
  5
13f
100
AcDbEntity
  8
0
 62
7
100
AcDbLine
 10
7.500000
 20
-32.000000
 30
0.0
 11
12.500000
 21
-32.000000
 31
0.0
  0
LINE
  5
140
100
AcDbEntity
  8
0
 62
7
100
AcDbLine
 10
7.500000
 20
-30.000000
 30
0.0
 11
7.500000
 21
-32.000000
 31
0.0
  0
LINE
  5
141
100
AcDbEntity
  8
0
 62
7
100
AcDbLine
 10
12.500000
 20
-30.000000
 30
0.0
 11
7.500000
 21
-30.000000
 31
0.0
  0
LINE
  5
142
100
AcDbEntity
  8
0
 62
7
100
AcDbLine
 10
12.500000
 20
-32.000000
 30
0.0
 11
12.500000
 21
-30.000000
 31
0.0
  0
LINE
  5
143
100
AcDbEntity
  8
0
 62
7
100
AcDbLine
 10
2.500000
 20
-32.000000
 30
0.0
 11
2.500000
 21
-30.000000
 31
0.0
  0
LINE
  5
144
100
AcDbEntity
  8
0
 62
7
100
AcDbLine
 10
-2.500000
 20
-32.000000
 30
0.0
 11
2.500000
 21
-32.000000
 31
0.0
  0
LINE
  5
145
100
AcDbEntity
  8
0
 62
7
100
AcDbLine
 10
-2.500000
 20
-30.000000
 30
0.0
 11
-2.500000
 21
-32.000000
 31
0.0
  0
LINE
  5
146
100
AcDbEntity
  8
0
 62
7
100
AcDbLine
 10
2.500000
 20
-30.000000
 30
0.0
 11
-2.500000
 21
-30.000000
 31
0.0
  0
SPLINE
  5
147
100
AcDbEntity
  8
0
 62
7
100
AcDbSpline
 70
0
 71
3
 72
25
 73
21
 74
19
 40
0.000000
 40
0.000000
 40
0.000000
 40
0.000000
 40
0.907307
 40
1.801628
 40
2.708935
 40
3.616242
 40
4.510563
 40
5.417870
 40
6.325177
 40
7.219498
 40
8.126805
 40
9.034112
 40
9.928433
 40
10.835740
 40
11.743047
 40
12.637368
 40
13.544675
 40
14.451982
 40
15.346303
 40
16.253610
 40
16.253610
 40
16.253610
 40
16.253610
 10
-34.633330
 20
-27.924997
 30
0.0
 10
-34.664395
 20
-27.621019
 30
0.0
 10
-34.726080
 20
-27.017414
 30
0.0
 10
-35.204653
 20
-26.219739
 30
0.0
 10
-35.905365
 20
-25.626690
 30
0.0
 10
-36.773066
 20
-25.312156
 30
0.0
 10
-37.693794
 20
-25.312156
 30
0.0
 10
-38.560279
 20
-25.626690
 30
0.0
 10
-39.265843
 20
-26.219739
 30
0.0
 10
-39.726388
 20
-27.017414
 30
0.0
 10
-39.887187
 20
-27.924997
 30
0.0
 10
-39.726388
 20
-28.832581
 30
0.0
 10
-39.265843
 20
-29.630255
 30
0.0
 10
-38.560279
 20
-30.223305
 30
0.0
 10
-37.693794
 20
-30.537839
 30
0.0
 10
-36.773066
 20
-30.537839
 30
0.0
 10
-35.905365
 20
-30.223305
 30
0.0
 10
-35.204653
 20
-29.630255
 30
0.0
 10
-34.726080
 20
-28.832581
 30
0.0
 10
-34.664395
 20
-28.228975
 30
0.0
 10
-34.633330
 20
-27.924997
 30
0.0
 11
-34.633330
 21
-27.924997
 31
0.0
 11
-34.791602
 21
-27.031602
 31
0.0
 11
-35.238763
 21
-26.257097
 31
0.0
 11
-35.933330
 21
-25.673331
 31
0.0
 11
-36.786169
 21
-25.363701
 31
0.0
 11
-37.680491
 21
-25.363701
 31
0.0
 11
-38.533330
 21
-25.673331
 31
0.0
 11
-39.227897
 21
-26.257097
 31
0.0
 11
-39.675058
 21
-27.031602
 31
0.0
 11
-39.833330
 21
-27.924997
 31
0.0
 11
-39.675058
 21
-28.818393
 31
0.0
 11
-39.227897
 21
-29.592898
 31
0.0
 11
-38.533330
 21
-30.176663
 31
0.0
 11
-37.680491
 21
-30.486294
 31
0.0
 11
-36.786169
 21
-30.486294
 31
0.0
 11
-35.933330
 21
-30.176663
 31
0.0
 11
-35.238763
 21
-29.592898
 31
0.0
 11
-34.791602
 21
-28.818393
 31
0.0
 11
-34.633330
 21
-27.924997
 31
0.0
  0
ENDSEC
  0
SECTION
  2
OBJECTS
  0
DICTIONARY
  5
C
330
0
100
AcDbDictionary
  3
ACAD_GROUP
350
D
  3
ACAD_MLINESTYLE
350
17
  0
DICTIONARY
  5
D
330
C
100
AcDbDictionary
  0
DICTIONARY
  5
1A
330
C
100
AcDbDictionary
  0
DICTIONARY
  5
17
330
C
100
AcDbDictionary
  3
STANDARD
350
18
  0
DICTIONARY
  5
19
330
C
100
AcDbDictionary
  0
ENDSEC
  0
EOF
