  0
SECTION
  2
HEADER
  9
$ACADVER
  1
AC1014
  9
$HANDSEED
  5
FFFF
  9
$MEASUREMENT
 70
     1
  0
ENDSEC
  0
SECTION
  2
TABLES
  0
TABLE
  2
VPORT
  5
8
330
0
100
AcDbSymbolTable
 70
     4
  0
VPORT
  5
2E
330
8
100
AcDbSymbolTableRecord
100
AcDbViewportTableRecord
  2
*ACTIVE
 70
     0
 10
0.0
 20
0.0
 11
1.0
 21
1.0
 12
210.0
 22
148.5
 13
0.0
 23
0.0
 14
10.0
 24
10.0
 15
10.0
 25
10.0
 16
0.0
 26
0.0
 36
1.0
 17
0.0
 27
0.0
 37
0.0
 40
341.0
 41
1.24
 42
50.0
 43
0.0
 44
0.0
 50
0.0
 51
0.0
 71
     0
 72
   100
 73
     1
 74
     3
 75
     0
 76
     0
 77
     0
 78
     0
  0
ENDTAB
  0
TABLE
  2
LTYPE
  5
5
330
0
100
AcDbSymbolTable
 70
     1
  0
LTYPE
  5
14
330
5
100
AcDbSymbolTableRecord
100
AcDbLinetypeTableRecord
  2
BYBLOCK
 70
     0
  3

 72
    65
 73
     0
 40
0.0
  0
LTYPE
  5
15
330
5
100
AcDbSymbolTableRecord
100
AcDbLinetypeTableRecord
  2
BYLAYER
 70
     0
  3

 72
    65
 73
     0
 40
0.0
  0
LTYPE
  5
16
330
5
100
AcDbSymbolTableRecord
100
AcDbLinetypeTableRecord
  2
CONTINUOUS
 70
     0
  3
Solid line
 72
    65
 73
     0
 40
0.0
  0
ENDTAB
  0
TABLE
  2
LAYER
  5
2
100
AcDbSymbolTable
 70
1
  0
LAYER
  5
50
100
AcDbSymbolTableRecord
100
AcDbLayerTableRecord
  2
0
 70
0
  6
CONTINUOUS
  0
ENDTAB
  0
TABLE
  2
STYLE
  5
3
330
0
100
AcDbSymbolTable
 70
     1
  0
STYLE
  5
11
330
3
100
AcDbSymbolTableRecord
100
AcDbTextStyleTableRecord
  2
STANDARD
 70
     0
 40
0.0
 41
1.0
 50
0.0
 71
     0
 42
2.5
  3
txt
  4

  0
ENDTAB
  0
TABLE
  2
VIEW
  5
6
330
0
100
AcDbSymbolTable
 70
     0
  0
ENDTAB
  0
TABLE
  2
UCS
  5
7
330
0
100
AcDbSymbolTable
 70
     0
  0
ENDTAB
  0
TABLE
  2
APPID
  5
9
330
0
100
AcDbSymbolTable
 70
     2
  0
APPID
  5
12
330
9
100
AcDbSymbolTableRecord
100
AcDbRegAppTableRecord
  2
ACAD
 70
     0
  0
ENDTAB
  0
TABLE
  2
DIMSTYLE
  5
A
330
0
100
AcDbSymbolTable
 70
     1
  0
DIMSTYLE
105
27
330
A
100
AcDbSymbolTableRecord
100
AcDbDimStyleTableRecord
  2
ISO-25
 70
     0
  3

  4

  5

  6

  7

 40
1.0
 41
2.5
 42
0.625
 43
3.75
 44
1.25
 45
0.0
 46
0.0
 47
0.0
 48
0.0
140
2.5
141
2.5
142
0.0
143
0.03937007874016
144
1.0
145
0.0
146
1.0
147
0.625
 71
     0
 72
     0
 73
     0
 74
     0
 75
     0
 76
     0
 77
     1
 78
     8
170
     0
171
     3
172
     1
173
     0
174
     0
175
     0
176
     0
177
     0
178
     0
270
     2
271
     2
272
     2
273
     2
274
     3
340
11
275
     0
280
     0
281
     0
282
     0
283
     0
284
     8
285
     0
286
     0
287
     3
288
     0
  0
ENDTAB
  0
TABLE
  2
BLOCK_RECORD
  5
1
330
0
100
AcDbSymbolTable
 70
     1
  0
BLOCK_RECORD
  5
1F
330
1
100
AcDbSymbolTableRecord
100
AcDbBlockTableRecord
  2
*MODEL_SPACE
  0
BLOCK_RECORD
  5
1B
330
1
100
AcDbSymbolTableRecord
100
AcDbBlockTableRecord
  2
*PAPER_SPACE
  0
ENDTAB
  0
ENDSEC
  0
SECTION
  2
BLOCKS
  0
BLOCK
  5
20
330
1F
100
AcDbEntity
  8
0
100
AcDbBlockBegin
  2
*MODEL_SPACE
 70
     0
 10
0.0
 20
0.0
 30
0.0
  3
*MODEL_SPACE
  1

  0
ENDBLK
  5
21
330
1F
100
AcDbEntity
  8
0
100
AcDbBlockEnd
  0
BLOCK
  5
1C
330
1B
100
AcDbEntity
 67
     1
  8
0
100
AcDbBlockBegin
  2
*PAPER_SPACE
  1

  0
ENDBLK
  5
1D
330
1B
100
AcDbEntity
 67
     1
  8
0
100
AcDbBlockEnd
  0
ENDSEC
  0
SECTION
  2
ENTITIES
  0
LINE
  5
100
100
AcDbEntity
  8
0
 62
7
100
AcDbLine
 10
56.290000
 20
20.000000
 30
0.0
 11
56.290000
 21
20.000000
 31
0.0
  0
SPLINE
  5
101
100
AcDbEntity
  8
0
 62
7
100
AcDbSpline
 70
0
 71
3
 72
25
 73
21
 74
19
 40
0.000000
 40
0.000000
 40
0.000000
 40
0.000000
 40
0.575942
 40
1.143638
 40
1.719580
 40
2.295522
 40
2.863218
 40
3.439160
 40
4.015102
 40
4.582798
 40
5.158740
 40
5.734682
 40
6.302378
 40
6.878320
 40
7.454262
 40
8.021958
 40
8.597900
 40
9.173842
 40
9.741538
 40
10.317480
 40
10.317480
 40
10.317480
 40
10.317480
 10
56.290000
 20
20.000000
 30
0.0
 10
56.270355
 20
20.192969
 30
0.0
 10
56.231347
 20
20.576143
 30
0.0
 10
55.927691
 20
21.082581
 30
0.0
 10
55.482958
 20
21.459124
 30
0.0
 10
54.932170
 20
21.658836
 30
0.0
 10
54.347704
 20
21.658836
 30
0.0
 10
53.797685
 20
21.459124
 30
0.0
 10
53.349883
 20
21.082581
 30
0.0
 10
53.057629
 20
20.576143
 30
0.0
 10
52.955942
 20
20.000000
 30
0.0
 10
53.057629
 20
19.423857
 30
0.0
 10
53.349883
 20
18.917419
 30
0.0
 10
53.797685
 20
18.540876
 30
0.0
 10
54.347704
 20
18.341164
 30
0.0
 10
54.932170
 20
18.341164
 30
0.0
 10
55.482958
 20
18.540876
 30
0.0
 10
55.927691
 20
18.917419
 30
0.0
 10
56.231347
 20
19.423857
 30
0.0
 10
56.270355
 20
19.807031
 30
0.0
 10
56.290000
 20
20.000000
 30
0.0
 11
56.290000
 21
20.000000
 31
0.0
 11
56.189740
 21
20.567148
 31
0.0
 11
55.906028
 21
21.058865
 31
0.0
 11
55.465197
 21
21.429511
 31
0.0
 11
54.923848
 21
21.626108
 31
0.0
 11
54.356152
 21
21.626108
 31
0.0
 11
53.814803
 21
21.429511
 31
0.0
 11
53.373972
 21
21.058865
 31
0.0
 11
53.090260
 21
20.567148
 31
0.0
 11
52.990000
 21
20.000000
 31
0.0
 11
53.090260
 21
19.432852
 31
0.0
 11
53.373972
 21
18.941135
 31
0.0
 11
53.814803
 21
18.570489
 31
0.0
 11
54.356152
 21
18.373892
 31
0.0
 11
54.923848
 21
18.373892
 31
0.0
 11
55.465197
 21
18.570489
 31
0.0
 11
55.906028
 21
18.941135
 31
0.0
 11
56.189740
 21
19.432852
 31
0.0
 11
56.290000
 21
20.000000
 31
0.0
  0
LINE
  5
102
100
AcDbEntity
  8
0
 62
7
100
AcDbLine
 10
56.290000
 20
-20.000000
 30
0.0
 11
56.290000
 21
-20.000000
 31
0.0
  0
SPLINE
  5
103
100
AcDbEntity
  8
0
 62
7
100
AcDbSpline
 70
0
 71
3
 72
25
 73
21
 74
19
 40
0.000000
 40
0.000000
 40
0.000000
 40
0.000000
 40
0.575942
 40
1.143638
 40
1.719580
 40
2.295522
 40
2.863218
 40
3.439160
 40
4.015102
 40
4.582798
 40
5.158740
 40
5.734682
 40
6.302378
 40
6.878320
 40
7.454262
 40
8.021958
 40
8.597900
 40
9.173842
 40
9.741538
 40
10.317480
 40
10.317480
 40
10.317480
 40
10.317480
 10
56.290000
 20
-20.000000
 30
0.0
 10
56.270355
 20
-19.807031
 30
0.0
 10
56.231347
 20
-19.423857
 30
0.0
 10
55.927691
 20
-18.917418
 30
0.0
 10
55.482958
 20
-18.540876
 30
0.0
 10
54.932170
 20
-18.341164
 30
0.0
 10
54.347704
 20
-18.341164
 30
0.0
 10
53.797685
 20
-18.540876
 30
0.0
 10
53.349883
 20
-18.917418
 30
0.0
 10
53.057629
 20
-19.423857
 30
0.0
 10
52.955942
 20
-20.000000
 30
0.0
 10
53.057629
 20
-20.576142
 30
0.0
 10
53.349883
 20
-21.082581
 30
0.0
 10
53.797685
 20
-21.459123
 30
0.0
 10
54.347704
 20
-21.658836
 30
0.0
 10
54.932170
 20
-21.658836
 30
0.0
 10
55.482958
 20
-21.459123
 30
0.0
 10
55.927691
 20
-21.082581
 30
0.0
 10
56.231347
 20
-20.576142
 30
0.0
 10
56.270355
 20
-20.192968
 30
0.0
 10
56.290000
 20
-20.000000
 30
0.0
 11
56.290000
 21
-20.000000
 31
0.0
 11
56.189740
 21
-19.432851
 31
0.0
 11
55.906028
 21
-18.941134
 31
0.0
 11
55.465197
 21
-18.570489
 31
0.0
 11
54.923848
 21
-18.373892
 31
0.0
 11
54.356152
 21
-18.373892
 31
0.0
 11
53.814803
 21
-18.570489
 31
0.0
 11
53.373972
 21
-18.941134
 31
0.0
 11
53.090260
 21
-19.432851
 31
0.0
 11
52.990000
 21
-20.000000
 31
0.0
 11
53.090260
 21
-20.567148
 31
0.0
 11
53.373972
 21
-21.058865
 31
0.0
 11
53.814803
 21
-21.429511
 31
0.0
 11
54.356152
 21
-21.626108
 31
0.0
 11
54.923848
 21
-21.626108
 31
0.0
 11
55.465197
 21
-21.429511
 31
0.0
 11
55.906028
 21
-21.058865
 31
0.0
 11
56.189740
 21
-20.567148
 31
0.0
 11
56.290000
 21
-20.000000
 31
0.0
  0
LINE
  5
104
100
AcDbEntity
  8
0
 62
7
100
AcDbLine
 10
21.650000
 20
-45.215000
 30
0.0
 11
21.650000
 21
-45.215000
 31
0.0
  0
SPLINE
  5
105
100
AcDbEntity
  8
0
 62
7
100
AcDbSpline
 70
0
 71
3
 72
25
 73
21
 74
19
 40
0.000000
 40
0.000000
 40
0.000000
 40
0.000000
 40
0.575942
 40
1.143638
 40
1.719580
 40
2.295522
 40
2.863218
 40
3.439160
 40
4.015102
 40
4.582798
 40
5.158740
 40
5.734682
 40
6.302378
 40
6.878320
 40
7.454262
 40
8.021958
 40
8.597900
 40
9.173842
 40
9.741538
 40
10.317480
 40
10.317480
 40
10.317480
 40
10.317480
 10
21.650000
 20
-45.215000
 30
0.0
 10
21.630355
 20
-45.022032
 30
0.0
 10
21.591346
 20
-44.638857
 30
0.0
 10
21.287691
 20
-44.132419
 30
0.0
 10
20.842957
 20
-43.755877
 30
0.0
 10
20.292170
 20
-43.556164
 30
0.0
 10
19.707704
 20
-43.556164
 30
0.0
 10
19.157685
 20
-43.755877
 30
0.0
 10
18.709883
 20
-44.132419
 30
0.0
 10
18.417629
 20
-44.638857
 30
0.0
 10
18.315942
 20
-45.215000
 30
0.0
 10
18.417629
 20
-45.791143
 30
0.0
 10
18.709883
 20
-46.297582
 30
0.0
 10
19.157685
 20
-46.674124
 30
0.0
 10
19.707704
 20
-46.873836
 30
0.0
 10
20.292170
 20
-46.873836
 30
0.0
 10
20.842957
 20
-46.674124
 30
0.0
 10
21.287691
 20
-46.297582
 30
0.0
 10
21.591346
 20
-45.791143
 30
0.0
 10
21.630355
 20
-45.407969
 30
0.0
 10
21.650000
 20
-45.215000
 30
0.0
 11
21.650000
 21
-45.215000
 31
0.0
 11
21.549740
 21
-44.647852
 31
0.0
 11
21.266028
 21
-44.156135
 31
0.0
 11
20.825197
 21
-43.785489
 31
0.0
 11
20.283848
 21
-43.588892
 31
0.0
 11
19.716152
 21
-43.588892
 31
0.0
 11
19.174803
 21
-43.785489
 31
0.0
 11
18.733972
 21
-44.156135
 31
0.0
 11
18.450260
 21
-44.647852
 31
0.0
 11
18.350000
 21
-45.215000
 31
0.0
 11
18.450260
 21
-45.782149
 31
0.0
 11
18.733972
 21
-46.273866
 31
0.0
 11
19.174803
 21
-46.644511
 31
0.0
 11
19.716152
 21
-46.841108
 31
0.0
 11
20.283848
 21
-46.841108
 31
0.0
 11
20.825197
 21
-46.644511
 31
0.0
 11
21.266028
 21
-46.273866
 31
0.0
 11
21.549740
 21
-45.782149
 31
0.0
 11
21.650000
 21
-45.215000
 31
0.0
  0
LINE
  5
106
100
AcDbEntity
  8
0
 62
7
100
AcDbLine
 10
-18.350000
 20
-45.215000
 30
0.0
 11
-18.350000
 21
-45.215000
 31
0.0
  0
SPLINE
  5
107
100
AcDbEntity
  8
0
 62
7
100
AcDbSpline
 70
0
 71
3
 72
25
 73
21
 74
19
 40
0.000000
 40
0.000000
 40
0.000000
 40
0.000000
 40
0.575942
 40
1.143638
 40
1.719580
 40
2.295522
 40
2.863218
 40
3.439160
 40
4.015102
 40
4.582798
 40
5.158740
 40
5.734682
 40
6.302378
 40
6.878320
 40
7.454262
 40
8.021958
 40
8.597900
 40
9.173842
 40
9.741538
 40
10.317480
 40
10.317480
 40
10.317480
 40
10.317480
 10
-18.350000
 20
-45.215000
 30
0.0
 10
-18.369645
 20
-45.022032
 30
0.0
 10
-18.408653
 20
-44.638857
 30
0.0
 10
-18.712309
 20
-44.132419
 30
0.0
 10
-19.157042
 20
-43.755877
 30
0.0
 10
-19.707830
 20
-43.556164
 30
0.0
 10
-20.292296
 20
-43.556164
 30
0.0
 10
-20.842315
 20
-43.755877
 30
0.0
 10
-21.290117
 20
-44.132419
 30
0.0
 10
-21.582371
 20
-44.638857
 30
0.0
 10
-21.684058
 20
-45.215000
 30
0.0
 10
-21.582371
 20
-45.791143
 30
0.0
 10
-21.290117
 20
-46.297582
 30
0.0
 10
-20.842315
 20
-46.674124
 30
0.0
 10
-20.292296
 20
-46.873836
 30
0.0
 10
-19.707830
 20
-46.873836
 30
0.0
 10
-19.157042
 20
-46.674124
 30
0.0
 10
-18.712309
 20
-46.297582
 30
0.0
 10
-18.408653
 20
-45.791143
 30
0.0
 10
-18.369645
 20
-45.407969
 30
0.0
 10
-18.350000
 20
-45.215000
 30
0.0
 11
-18.350000
 21
-45.215000
 31
0.0
 11
-18.450260
 21
-44.647852
 31
0.0
 11
-18.733972
 21
-44.156135
 31
0.0
 11
-19.174803
 21
-43.785489
 31
0.0
 11
-19.716152
 21
-43.588892
 31
0.0
 11
-20.283848
 21
-43.588892
 31
0.0
 11
-20.825197
 21
-43.785489
 31
0.0
 11
-21.266028
 21
-44.156135
 31
0.0
 11
-21.549740
 21
-44.647852
 31
0.0
 11
-21.650000
 21
-45.215000
 31
0.0
 11
-21.549740
 21
-45.782149
 31
0.0
 11
-21.266028
 21
-46.273866
 31
0.0
 11
-20.825197
 21
-46.644511
 31
0.0
 11
-20.283848
 21
-46.841108
 31
0.0
 11
-19.716152
 21
-46.841108
 31
0.0
 11
-19.174803
 21
-46.644511
 31
0.0
 11
-18.733972
 21
-46.273866
 31
0.0
 11
-18.450260
 21
-45.782149
 31
0.0
 11
-18.350000
 21
-45.215000
 31
0.0
  0
LINE
  5
108
100
AcDbEntity
  8
0
 62
7
100
AcDbLine
 10
-52.990000
 20
-20.000000
 30
0.0
 11
-52.990000
 21
-20.000000
 31
0.0
  0
SPLINE
  5
109
100
AcDbEntity
  8
0
 62
7
100
AcDbSpline
 70
0
 71
3
 72
25
 73
21
 74
19
 40
0.000000
 40
0.000000
 40
0.000000
 40
0.000000
 40
0.575942
 40
1.143638
 40
1.719580
 40
2.295522
 40
2.863218
 40
3.439160
 40
4.015102
 40
4.582798
 40
5.158740
 40
5.734682
 40
6.302378
 40
6.878320
 40
7.454262
 40
8.021958
 40
8.597900
 40
9.173842
 40
9.741538
 40
10.317480
 40
10.317480
 40
10.317480
 40
10.317480
 10
-52.990000
 20
-20.000000
 30
0.0
 10
-53.009645
 20
-19.807031
 30
0.0
 10
-53.048654
 20
-19.423857
 30
0.0
 10
-53.352309
 20
-18.917418
 30
0.0
 10
-53.797043
 20
-18.540876
 30
0.0
 10
-54.347830
 20
-18.341164
 30
0.0
 10
-54.932296
 20
-18.341164
 30
0.0
 10
-55.482315
 20
-18.540876
 30
0.0
 10
-55.930117
 20
-18.917418
 30
0.0
 10
-56.222371
 20
-19.423857
 30
0.0
 10
-56.324058
 20
-20.000000
 30
0.0
 10
-56.222371
 20
-20.576142
 30
0.0
 10
-55.930117
 20
-21.082581
 30
0.0
 10
-55.482315
 20
-21.459123
 30
0.0
 10
-54.932296
 20
-21.658836
 30
0.0
 10
-54.347830
 20
-21.658836
 30
0.0
 10
-53.797043
 20
-21.459123
 30
0.0
 10
-53.352309
 20
-21.082581
 30
0.0
 10
-53.048654
 20
-20.576142
 30
0.0
 10
-53.009645
 20
-20.192968
 30
0.0
 10
-52.990000
 20
-20.000000
 30
0.0
 11
-52.990000
 21
-20.000000
 31
0.0
 11
-53.090260
 21
-19.432851
 31
0.0
 11
-53.373972
 21
-18.941134
 31
0.0
 11
-53.814803
 21
-18.570489
 31
0.0
 11
-54.356152
 21
-18.373892
 31
0.0
 11
-54.923848
 21
-18.373892
 31
0.0
 11
-55.465197
 21
-18.570489
 31
0.0
 11
-55.906028
 21
-18.941134
 31
0.0
 11
-56.189740
 21
-19.432851
 31
0.0
 11
-56.290000
 21
-20.000000
 31
0.0
 11
-56.189740
 21
-20.567148
 31
0.0
 11
-55.906028
 21
-21.058865
 31
0.0
 11
-55.465197
 21
-21.429511
 31
0.0
 11
-54.923848
 21
-21.626108
 31
0.0
 11
-54.356152
 21
-21.626108
 31
0.0
 11
-53.814803
 21
-21.429511
 31
0.0
 11
-53.373972
 21
-21.058865
 31
0.0
 11
-53.090260
 21
-20.567148
 31
0.0
 11
-52.990000
 21
-20.000000
 31
0.0
  0
LINE
  5
10a
100
AcDbEntity
  8
0
 62
7
100
AcDbLine
 10
-52.990000
 20
20.000000
 30
0.0
 11
-52.990000
 21
20.000000
 31
0.0
  0
SPLINE
  5
10b
100
AcDbEntity
  8
0
 62
7
100
AcDbSpline
 70
0
 71
3
 72
25
 73
21
 74
19
 40
0.000000
 40
0.000000
 40
0.000000
 40
0.000000
 40
0.575942
 40
1.143638
 40
1.719580
 40
2.295522
 40
2.863218
 40
3.439160
 40
4.015102
 40
4.582798
 40
5.158740
 40
5.734682
 40
6.302378
 40
6.878320
 40
7.454262
 40
8.021958
 40
8.597900
 40
9.173842
 40
9.741538
 40
10.317480
 40
10.317480
 40
10.317480
 40
10.317480
 10
-52.990000
 20
20.000000
 30
0.0
 10
-53.009645
 20
20.192969
 30
0.0
 10
-53.048654
 20
20.576143
 30
0.0
 10
-53.352309
 20
21.082581
 30
0.0
 10
-53.797043
 20
21.459124
 30
0.0
 10
-54.347830
 20
21.658836
 30
0.0
 10
-54.932296
 20
21.658836
 30
0.0
 10
-55.482315
 20
21.459124
 30
0.0
 10
-55.930117
 20
21.082581
 30
0.0
 10
-56.222371
 20
20.576143
 30
0.0
 10
-56.324058
 20
20.000000
 30
0.0
 10
-56.222371
 20
19.423857
 30
0.0
 10
-55.930117
 20
18.917419
 30
0.0
 10
-55.482315
 20
18.540876
 30
0.0
 10
-54.932296
 20
18.341164
 30
0.0
 10
-54.347830
 20
18.341164
 30
0.0
 10
-53.797043
 20
18.540876
 30
0.0
 10
-53.352309
 20
18.917419
 30
0.0
 10
-53.048654
 20
19.423857
 30
0.0
 10
-53.009645
 20
19.807031
 30
0.0
 10
-52.990000
 20
20.000000
 30
0.0
 11
-52.990000
 21
20.000000
 31
0.0
 11
-53.090260
 21
20.567148
 31
0.0
 11
-53.373972
 21
21.058865
 31
0.0
 11
-53.814803
 21
21.429511
 31
0.0
 11
-54.356152
 21
21.626108
 31
0.0
 11
-54.923848
 21
21.626108
 31
0.0
 11
-55.465197
 21
21.429511
 31
0.0
 11
-55.906028
 21
21.058865
 31
0.0
 11
-56.189740
 21
20.567148
 31
0.0
 11
-56.290000
 21
20.000000
 31
0.0
 11
-56.189740
 21
19.432852
 31
0.0
 11
-55.906028
 21
18.941135
 31
0.0
 11
-55.465197
 21
18.570489
 31
0.0
 11
-54.923848
 21
18.373892
 31
0.0
 11
-54.356152
 21
18.373892
 31
0.0
 11
-53.814803
 21
18.570489
 31
0.0
 11
-53.373972
 21
18.941135
 31
0.0
 11
-53.090260
 21
19.432852
 31
0.0
 11
-52.990000
 21
20.000000
 31
0.0
  0
LINE
  5
10c
100
AcDbEntity
  8
0
 62
7
100
AcDbLine
 10
21.650000
 20
45.215000
 30
0.0
 11
21.650000
 21
45.215000
 31
0.0
  0
SPLINE
  5
10d
100
AcDbEntity
  8
0
 62
7
100
AcDbSpline
 70
0
 71
3
 72
25
 73
21
 74
19
 40
0.000000
 40
0.000000
 40
0.000000
 40
0.000000
 40
0.575942
 40
1.143638
 40
1.719580
 40
2.295522
 40
2.863218
 40
3.439160
 40
4.015102
 40
4.582798
 40
5.158740
 40
5.734682
 40
6.302378
 40
6.878320
 40
7.454262
 40
8.021958
 40
8.597900
 40
9.173842
 40
9.741538
 40
10.317480
 40
10.317480
 40
10.317480
 40
10.317480
 10
21.650000
 20
45.215000
 30
0.0
 10
21.630355
 20
45.407968
 30
0.0
 10
21.591346
 20
45.791143
 30
0.0
 10
21.287691
 20
46.297581
 30
0.0
 10
20.842957
 20
46.674123
 30
0.0
 10
20.292170
 20
46.873836
 30
0.0
 10
19.707704
 20
46.873836
 30
0.0
 10
19.157685
 20
46.674123
 30
0.0
 10
18.709883
 20
46.297581
 30
0.0
 10
18.417629
 20
45.791143
 30
0.0
 10
18.315942
 20
45.215000
 30
0.0
 10
18.417629
 20
44.638857
 30
0.0
 10
18.709883
 20
44.132419
 30
0.0
 10
19.157685
 20
43.755876
 30
0.0
 10
19.707704
 20
43.556164
 30
0.0
 10
20.292170
 20
43.556164
 30
0.0
 10
20.842957
 20
43.755876
 30
0.0
 10
21.287691
 20
44.132419
 30
0.0
 10
21.591346
 20
44.638857
 30
0.0
 10
21.630355
 20
45.022031
 30
0.0
 10
21.650000
 20
45.215000
 30
0.0
 11
21.650000
 21
45.215000
 31
0.0
 11
21.549740
 21
45.782148
 31
0.0
 11
21.266028
 21
46.273865
 31
0.0
 11
20.825197
 21
46.644511
 31
0.0
 11
20.283848
 21
46.841108
 31
0.0
 11
19.716152
 21
46.841108
 31
0.0
 11
19.174803
 21
46.644511
 31
0.0
 11
18.733972
 21
46.273865
 31
0.0
 11
18.450260
 21
45.782148
 31
0.0
 11
18.350000
 21
45.215000
 31
0.0
 11
18.450260
 21
44.647851
 31
0.0
 11
18.733972
 21
44.156134
 31
0.0
 11
19.174803
 21
43.785489
 31
0.0
 11
19.716152
 21
43.588892
 31
0.0
 11
20.283848
 21
43.588892
 31
0.0
 11
20.825197
 21
43.785489
 31
0.0
 11
21.266028
 21
44.156134
 31
0.0
 11
21.549740
 21
44.647851
 31
0.0
 11
21.650000
 21
45.215000
 31
0.0
  0
LINE
  5
10e
100
AcDbEntity
  8
0
 62
7
100
AcDbLine
 10
-18.350000
 20
45.215000
 30
0.0
 11
-18.350000
 21
45.215000
 31
0.0
  0
SPLINE
  5
10f
100
AcDbEntity
  8
0
 62
7
100
AcDbSpline
 70
0
 71
3
 72
25
 73
21
 74
19
 40
0.000000
 40
0.000000
 40
0.000000
 40
0.000000
 40
0.575942
 40
1.143638
 40
1.719580
 40
2.295522
 40
2.863218
 40
3.439160
 40
4.015102
 40
4.582798
 40
5.158740
 40
5.734682
 40
6.302378
 40
6.878320
 40
7.454262
 40
8.021958
 40
8.597900
 40
9.173842
 40
9.741538
 40
10.317480
 40
10.317480
 40
10.317480
 40
10.317480
 10
-18.350000
 20
45.215000
 30
0.0
 10
-18.369645
 20
45.407968
 30
0.0
 10
-18.408653
 20
45.791143
 30
0.0
 10
-18.712309
 20
46.297581
 30
0.0
 10
-19.157042
 20
46.674123
 30
0.0
 10
-19.707830
 20
46.873836
 30
0.0
 10
-20.292296
 20
46.873836
 30
0.0
 10
-20.842315
 20
46.674123
 30
0.0
 10
-21.290117
 20
46.297581
 30
0.0
 10
-21.582371
 20
45.791143
 30
0.0
 10
-21.684058
 20
45.215000
 30
0.0
 10
-21.582371
 20
44.638857
 30
0.0
 10
-21.290117
 20
44.132419
 30
0.0
 10
-20.842315
 20
43.755876
 30
0.0
 10
-20.292296
 20
43.556164
 30
0.0
 10
-19.707830
 20
43.556164
 30
0.0
 10
-19.157042
 20
43.755876
 30
0.0
 10
-18.712309
 20
44.132419
 30
0.0
 10
-18.408653
 20
44.638857
 30
0.0
 10
-18.369645
 20
45.022031
 30
0.0
 10
-18.350000
 20
45.215000
 30
0.0
 11
-18.350000
 21
45.215000
 31
0.0
 11
-18.450260
 21
45.782148
 31
0.0
 11
-18.733972
 21
46.273865
 31
0.0
 11
-19.174803
 21
46.644511
 31
0.0
 11
-19.716152
 21
46.841108
 31
0.0
 11
-20.283848
 21
46.841108
 31
0.0
 11
-20.825197
 21
46.644511
 31
0.0
 11
-21.266028
 21
46.273865
 31
0.0
 11
-21.549740
 21
45.782148
 31
0.0
 11
-21.650000
 21
45.215000
 31
0.0
 11
-21.549740
 21
44.647851
 31
0.0
 11
-21.266028
 21
44.156134
 31
0.0
 11
-20.825197
 21
43.785489
 31
0.0
 11
-20.283848
 21
43.588892
 31
0.0
 11
-19.716152
 21
43.588892
 31
0.0
 11
-19.174803
 21
43.785489
 31
0.0
 11
-18.733972
 21
44.156134
 31
0.0
 11
-18.450260
 21
44.647851
 31
0.0
 11
-18.350000
 21
45.215000
 31
0.0
  0
LINE
  5
110
100
AcDbEntity
  8
0
 62
7
100
AcDbLine
 10
-66.850000
 20
-0.000000
 30
0.0
 11
-66.850000
 21
-0.000000
 31
0.0
  0
SPLINE
  5
111
100
AcDbEntity
  8
0
 62
7
100
AcDbSpline
 70
0
 71
3
 72
25
 73
21
 74
19
 40
0.000000
 40
0.000000
 40
0.000000
 40
0.000000
 40
0.750273
 40
1.489808
 40
2.240081
 40
2.990354
 40
3.729889
 40
4.480162
 40
5.230435
 40
5.969970
 40
6.720243
 40
7.470516
 40
8.210051
 40
8.960324
 40
9.710597
 40
10.450132
 40
11.200405
 40
11.950678
 40
12.690213
 40
13.440486
 40
13.440486
 40
13.440486
 40
13.440486
 10
-66.850000
 20
-0.000000
 30
0.0
 10
-66.875688
 20
0.251366
 30
0.0
 10
-66.926697
 20
0.750502
 30
0.0
 10
-67.322440
 20
1.410117
 30
0.0
 10
-67.901875
 20
1.900524
 30
0.0
 10
-68.619397
 20
2.160619
 30
0.0
 10
-69.380768
 20
2.160619
 30
0.0
 10
-70.097284
 20
1.900524
 30
0.0
 10
-70.680732
 20
1.410117
 30
0.0
 10
-71.061567
 20
0.750502
 30
0.0
 10
-71.194535
 20
-0.000000
 30
0.0
 10
-71.061567
 20
-0.750502
 30
0.0
 10
-70.680732
 20
-1.410117
 30
0.0
 10
-70.097284
 20
-1.900524
 30
0.0
 10
-69.380768
 20
-2.160619
 30
0.0
 10
-68.619397
 20
-2.160619
 30
0.0
 10
-67.901875
 20
-1.900524
 30
0.0
 10
-67.322440
 20
-1.410117
 30
0.0
 10
-66.926697
 20
-0.750502
 30
0.0
 10
-66.875688
 20
-0.251367
 30
0.0
 10
-66.850000
 20
-0.000000
 30
0.0
 11
-66.850000
 21
-0.000000
 31
0.0
 11
-66.980879
 21
0.738769
 31
0.0
 11
-67.350646
 21
1.379226
 31
0.0
 11
-67.925000
 21
1.861955
 31
0.0
 11
-68.630232
 21
2.117995
 31
0.0
 11
-69.369768
 21
2.117995
 31
0.0
 11
-70.075000
 21
1.861955
 31
0.0
 11
-70.649354
 21
1.379226
 31
0.0
 11
-71.019121
 21
0.738769
 31
0.0
 11
-71.150000
 21
-0.000000
 31
0.0
 11
-71.019121
 21
-0.738769
 31
0.0
 11
-70.649354
 21
-1.379226
 31
0.0
 11
-70.075000
 21
-1.861955
 31
0.0
 11
-69.369768
 21
-2.117995
 31
0.0
 11
-68.630232
 21
-2.117995
 31
0.0
 11
-67.925000
 21
-1.861955
 31
0.0
 11
-67.350646
 21
-1.379226
 31
0.0
 11
-66.980879
 21
-0.738769
 31
0.0
 11
-66.850000
 21
-0.000000
 31
0.0
  0
LINE
  5
112
100
AcDbEntity
  8
0
 62
7
100
AcDbLine
 10
-62.000000
 20
35.500000
 30
0.0
 11
-62.000000
 21
21.000000
 31
0.0
  0
SPLINE
  5
113
100
AcDbEntity
  8
0
 62
7
100
AcDbSpline
 70
0
 71
3
 72
10
 73
6
 74
4
 40
0.000000
 40
0.000000
 40
0.000000
 40
0.000000
 40
9.150035
 40
18.028682
 40
27.178717
 40
27.178717
 40
27.178717
 40
27.178717
 10
-44.500000
 20
53.000000
 30
0.0
 10
-47.566452
 20
52.518660
 30
0.0
 10
-53.608406
 20
51.570255
 30
0.0
 10
-60.570255
 20
44.608406
 30
0.0
 10
-61.518659
 20
38.566452
 30
0.0
 10
-62.000000
 20
35.500000
 30
0.0
 11
-44.500000
 21
53.000000
 31
0.0
 11
-53.332585
 21
50.610737
 31
0.0
 11
-59.610737
 21
44.332585
 31
0.0
 11
-62.000000
 21
35.500000
 31
0.0
  0
LINE
  5
114
100
AcDbEntity
  8
0
 62
7
100
AcDbLine
 10
-67.000000
 20
16.000000
 30
0.0
 11
-69.000000
 21
16.000000
 31
0.0
  0
SPLINE
  5
115
100
AcDbEntity
  8
0
 62
7
100
AcDbSpline
 70
0
 71
3
 72
13
 73
9
 74
7
 40
0.000000
 40
0.000000
 40
0.000000
 40
0.000000
 40
1.308874
 40
2.606917
 40
3.915792
 40
5.224666
 40
6.522709
 40
7.831584
 40
7.831584
 40
7.831584
 40
7.831584
 10
-67.000000
 20
16.000000
 30
0.0
 10
-66.562434
 20
16.033331
 30
0.0
 10
-65.690922
 20
16.099718
 30
0.0
 10
-64.471717
 20
16.624344
 30
0.0
 10
-63.422510
 20
17.422510
 30
0.0
 10
-62.624344
 20
18.471717
 30
0.0
 10
-62.099718
 20
19.690922
 30
0.0
 10
-62.033331
 20
20.562434
 30
0.0
 10
-62.000000
 20
21.000000
 30
0.0
 11
-67.000000
 21
16.000000
 31
0.0
 11
-65.702384
 21
16.171303
 31
0.0
 11
-64.503149
 21
16.668042
 31
0.0
 11
-63.464466
 21
17.464466
 31
0.0
 11
-62.668042
 21
18.503148
 31
0.0
 11
-62.171303
 21
19.702384
 31
0.0
 11
-62.000000
 21
21.000000
 31
0.0
  0
LINE
  5
116
100
AcDbEntity
  8
0
 62
7
100
AcDbLine
 10
-76.000000
 20
9.000000
 30
0.0
 11
-76.000000
 21
-9.000000
 31
0.0
  0
SPLINE
  5
117
100
AcDbEntity
  8
0
 62
7
100
AcDbSpline
 70
0
 71
3
 72
13
 73
9
 74
7
 40
0.000000
 40
0.000000
 40
0.000000
 40
0.000000
 40
1.832424
 40
3.649684
 40
5.482109
 40
7.314533
 40
9.131793
 40
10.964217
 40
10.964217
 40
10.964217
 40
10.964217
 10
-69.000000
 20
16.000000
 30
0.0
 10
-69.612593
 20
15.953336
 30
0.0
 10
-70.832709
 20
15.860395
 30
0.0
 10
-72.539597
 20
15.125919
 30
0.0
 10
-74.008485
 20
14.008485
 30
0.0
 10
-75.125919
 20
12.539597
 30
0.0
 10
-75.860395
 20
10.832709
 30
0.0
 10
-75.953336
 20
9.612593
 30
0.0
 10
-76.000000
 20
9.000000
 30
0.0
 11
-69.000000
 21
16.000000
 31
0.0
 11
-70.816663
 21
15.760176
 31
0.0
 11
-72.495592
 21
15.064741
 31
0.0
 11
-73.949748
 21
13.949748
 31
0.0
 11
-75.064741
 21
12.495592
 31
0.0
 11
-75.760176
 21
10.816663
 31
0.0
 11
-76.000000
 21
9.000000
 31
0.0
  0
LINE
  5
118
100
AcDbEntity
  8
0
 62
7
100
AcDbLine
 10
-69.000000
 20
-16.000000
 30
0.0
 11
-67.000000
 21
-16.000000
 31
0.0
  0
SPLINE
  5
119
100
AcDbEntity
  8
0
 62
7
100
AcDbSpline
 70
0
 71
3
 72
10
 73
6
 74
4
 40
0.000000
 40
0.000000
 40
0.000000
 40
0.000000
 40
3.660014
 40
7.211473
 40
10.871487
 40
10.871487
 40
10.871487
 40
10.871487
 10
-76.000000
 20
-9.000000
 30
0.0
 10
-75.807464
 20
-10.226581
 30
0.0
 10
-75.428102
 20
-12.643362
 30
0.0
 10
-72.643362
 20
-15.428102
 30
0.0
 10
-70.226581
 20
-15.807464
 30
0.0
 10
-69.000000
 20
-16.000000
 30
0.0
 11
-76.000000
 21
-9.000000
 31
0.0
 11
-75.044295
 21
-12.533034
 31
0.0
 11
-72.533034
 21
-15.044295
 31
0.0
 11
-69.000000
 21
-16.000000
 31
0.0
  0
LINE
  5
11a
100
AcDbEntity
  8
0
 62
7
100
AcDbLine
 10
-62.000000
 20
-21.000000
 30
0.0
 11
-62.000000
 21
-35.500000
 31
0.0
  0
SPLINE
  5
11b
100
AcDbEntity
  8
0
 62
7
100
AcDbSpline
 70
0
 71
3
 72
13
 73
9
 74
7
 40
0.000000
 40
0.000000
 40
0.000000
 40
0.000000
 40
1.308874
 40
2.606918
 40
3.915792
 40
5.224666
 40
6.522710
 40
7.831584
 40
7.831584
 40
7.831584
 40
7.831584
 10
-62.000000
 20
-21.000000
 30
0.0
 10
-62.033331
 20
-20.562434
 30
0.0
 10
-62.099718
 20
-19.690922
 30
0.0
 10
-62.624344
 20
-18.471717
 30
0.0
 10
-63.422510
 20
-17.422510
 30
0.0
 10
-64.471717
 20
-16.624344
 30
0.0
 10
-65.690922
 20
-16.099718
 30
0.0
 10
-66.562434
 20
-16.033331
 30
0.0
 10
-67.000000
 20
-16.000000
 30
0.0
 11
-62.000000
 21
-21.000000
 31
0.0
 11
-62.171302
 21
-19.702384
 31
0.0
 11
-62.668042
 21
-18.503149
 31
0.0
 11
-63.464466
 21
-17.464466
 31
0.0
 11
-64.503148
 21
-16.668042
 31
0.0
 11
-65.702384
 21
-16.171303
 31
0.0
 11
-67.000000
 21
-16.000000
 31
0.0
  0
LINE
  5
11c
100
AcDbEntity
  8
0
 62
7
100
AcDbLine
 10
-44.500000
 20
-53.000000
 30
0.0
 11
44.500000
 21
-53.000000
 31
0.0
  0
SPLINE
  5
11d
100
AcDbEntity
  8
0
 62
7
100
AcDbSpline
 70
0
 71
3
 72
10
 73
6
 74
4
 40
0.000000
 40
0.000000
 40
0.000000
 40
0.000000
 40
9.150035
 40
18.028682
 40
27.178717
 40
27.178717
 40
27.178717
 40
27.178717
 10
-62.000000
 20
-35.500000
 30
0.0
 10
-61.518659
 20
-38.566452
 30
0.0
 10
-60.570255
 20
-44.608406
 30
0.0
 10
-53.608406
 20
-51.570255
 30
0.0
 10
-47.566452
 20
-52.518660
 30
0.0
 10
-44.500000
 20
-53.000000
 30
0.0
 11
-62.000000
 21
-35.500000
 31
0.0
 11
-59.610737
 21
-44.332585
 31
0.0
 11
-53.332585
 21
-50.610737
 31
0.0
 11
-44.500000
 21
-53.000000
 31
0.0
  0
LINE
  5
11e
100
AcDbEntity
  8
0
 62
7
100
AcDbLine
 10
62.000000
 20
-35.500000
 30
0.0
 11
62.000000
 21
-21.000000
 31
0.0
  0
SPLINE
  5
11f
100
AcDbEntity
  8
0
 62
7
100
AcDbSpline
 70
0
 71
3
 72
10
 73
6
 74
4
 40
0.000000
 40
0.000000
 40
0.000000
 40
0.000000
 40
9.150035
 40
18.028682
 40
27.178717
 40
27.178717
 40
27.178717
 40
27.178717
 10
44.500000
 20
-53.000000
 30
0.0
 10
47.566452
 20
-52.518660
 30
0.0
 10
53.608406
 20
-51.570255
 30
0.0
 10
60.570255
 20
-44.608406
 30
0.0
 10
61.518659
 20
-38.566452
 30
0.0
 10
62.000000
 20
-35.500000
 30
0.0
 11
44.500000
 21
-53.000000
 31
0.0
 11
53.332585
 21
-50.610737
 31
0.0
 11
59.610737
 21
-44.332585
 31
0.0
 11
62.000000
 21
-35.500000
 31
0.0
  0
LINE
  5
120
100
AcDbEntity
  8
0
 62
7
100
AcDbLine
 10
67.000000
 20
-16.000000
 30
0.0
 11
69.000000
 21
-16.000000
 31
0.0
  0
SPLINE
  5
121
100
AcDbEntity
  8
0
 62
7
100
AcDbSpline
 70
0
 71
3
 72
13
 73
9
 74
7
 40
0.000000
 40
0.000000
 40
0.000000
 40
0.000000
 40
1.308874
 40
2.606918
 40
3.915792
 40
5.224666
 40
6.522710
 40
7.831584
 40
7.831584
 40
7.831584
 40
7.831584
 10
67.000000
 20
-16.000000
 30
0.0
 10
66.562434
 20
-16.033331
 30
0.0
 10
65.690922
 20
-16.099718
 30
0.0
 10
64.471717
 20
-16.624344
 30
0.0
 10
63.422510
 20
-17.422510
 30
0.0
 10
62.624344
 20
-18.471717
 30
0.0
 10
62.099718
 20
-19.690922
 30
0.0
 10
62.033331
 20
-20.562434
 30
0.0
 10
62.000000
 20
-21.000000
 30
0.0
 11
67.000000
 21
-16.000000
 31
0.0
 11
65.702384
 21
-16.171303
 31
0.0
 11
64.503148
 21
-16.668042
 31
0.0
 11
63.464466
 21
-17.464466
 31
0.0
 11
62.668042
 21
-18.503149
 31
0.0
 11
62.171302
 21
-19.702384
 31
0.0
 11
62.000000
 21
-21.000000
 31
0.0
  0
LINE
  5
122
100
AcDbEntity
  8
0
 62
7
100
AcDbLine
 10
76.000000
 20
-9.000000
 30
0.0
 11
76.000000
 21
9.000000
 31
0.0
  0
SPLINE
  5
123
100
AcDbEntity
  8
0
 62
7
100
AcDbSpline
 70
0
 71
3
 72
10
 73
6
 74
4
 40
0.000000
 40
0.000000
 40
0.000000
 40
0.000000
 40
3.660014
 40
7.211473
 40
10.871487
 40
10.871487
 40
10.871487
 40
10.871487
 10
69.000000
 20
-16.000000
 30
0.0
 10
70.226581
 20
-15.807464
 30
0.0
 10
72.643362
 20
-15.428102
 30
0.0
 10
75.428102
 20
-12.643362
 30
0.0
 10
75.807464
 20
-10.226581
 30
0.0
 10
76.000000
 20
-9.000000
 30
0.0
 11
69.000000
 21
-16.000000
 31
0.0
 11
72.533034
 21
-15.044295
 31
0.0
 11
75.044295
 21
-12.533034
 31
0.0
 11
76.000000
 21
-9.000000
 31
0.0
  0
LINE
  5
124
100
AcDbEntity
  8
0
 62
7
100
AcDbLine
 10
69.000000
 20
16.000000
 30
0.0
 11
67.000000
 21
16.000000
 31
0.0
  0
SPLINE
  5
125
100
AcDbEntity
  8
0
 62
7
100
AcDbSpline
 70
0
 71
3
 72
13
 73
9
 74
7
 40
0.000000
 40
0.000000
 40
0.000000
 40
0.000000
 40
1.832424
 40
3.649684
 40
5.482109
 40
7.314533
 40
9.131793
 40
10.964217
 40
10.964217
 40
10.964217
 40
10.964217
 10
76.000000
 20
9.000000
 30
0.0
 10
75.953336
 20
9.612593
 30
0.0
 10
75.860395
 20
10.832709
 30
0.0
 10
75.125919
 20
12.539597
 30
0.0
 10
74.008485
 20
14.008485
 30
0.0
 10
72.539597
 20
15.125919
 30
0.0
 10
70.832709
 20
15.860395
 30
0.0
 10
69.612593
 20
15.953336
 30
0.0
 10
69.000000
 20
16.000000
 30
0.0
 11
76.000000
 21
9.000000
 31
0.0
 11
75.760176
 21
10.816663
 31
0.0
 11
75.064741
 21
12.495592
 31
0.0
 11
73.949748
 21
13.949748
 31
0.0
 11
72.495592
 21
15.064741
 31
0.0
 11
70.816663
 21
15.760176
 31
0.0
 11
69.000000
 21
16.000000
 31
0.0
  0
LINE
  5
126
100
AcDbEntity
  8
0
 62
7
100
AcDbLine
 10
62.000000
 20
21.000000
 30
0.0
 11
62.000000
 21
35.500000
 31
0.0
  0
SPLINE
  5
127
100
AcDbEntity
  8
0
 62
7
100
AcDbSpline
 70
0
 71
3
 72
13
 73
9
 74
7
 40
0.000000
 40
0.000000
 40
0.000000
 40
0.000000
 40
1.308874
 40
2.606917
 40
3.915792
 40
5.224666
 40
6.522709
 40
7.831584
 40
7.831584
 40
7.831584
 40
7.831584
 10
62.000000
 20
21.000000
 30
0.0
 10
62.033331
 20
20.562434
 30
0.0
 10
62.099718
 20
19.690922
 30
0.0
 10
62.624344
 20
18.471717
 30
0.0
 10
63.422510
 20
17.422510
 30
0.0
 10
64.471717
 20
16.624344
 30
0.0
 10
65.690922
 20
16.099718
 30
0.0
 10
66.562434
 20
16.033331
 30
0.0
 10
67.000000
 20
16.000000
 30
0.0
 11
62.000000
 21
21.000000
 31
0.0
 11
62.171303
 21
19.702384
 31
0.0
 11
62.668042
 21
18.503148
 31
0.0
 11
63.464466
 21
17.464466
 31
0.0
 11
64.503149
 21
16.668042
 31
0.0
 11
65.702384
 21
16.171303
 31
0.0
 11
67.000000
 21
16.000000
 31
0.0
  0
LINE
  5
128
100
AcDbEntity
  8
0
 62
7
100
AcDbLine
 10
44.500000
 20
53.000000
 30
0.0
 11
-44.500000
 21
53.000000
 31
0.0
  0
SPLINE
  5
129
100
AcDbEntity
  8
0
 62
7
100
AcDbSpline
 70
0
 71
3
 72
10
 73
6
 74
4
 40
0.000000
 40
0.000000
 40
0.000000
 40
0.000000
 40
9.150035
 40
18.028682
 40
27.178717
 40
27.178717
 40
27.178717
 40
27.178717
 10
62.000000
 20
35.500000
 30
0.0
 10
61.518659
 20
38.566452
 30
0.0
 10
60.570255
 20
44.608406
 30
0.0
 10
53.608406
 20
51.570255
 30
0.0
 10
47.566452
 20
52.518660
 30
0.0
 10
44.500000
 20
53.000000
 30
0.0
 11
62.000000
 21
35.500000
 31
0.0
 11
59.610737
 21
44.332585
 31
0.0
 11
53.332585
 21
50.610737
 31
0.0
 11
44.500000
 21
53.000000
 31
0.0
  0
LINE
  5
12a
100
AcDbEntity
  8
0
 62
7
100
AcDbLine
 10
71.150000
 20
-0.000000
 30
0.0
 11
71.150000
 21
-0.000000
 31
0.0
  0
SPLINE
  5
12b
100
AcDbEntity
  8
0
 62
7
100
AcDbSpline
 70
0
 71
3
 72
25
 73
21
 74
19
 40
0.000000
 40
0.000000
 40
0.000000
 40
0.000000
 40
0.750273
 40
1.489808
 40
2.240081
 40
2.990354
 40
3.729889
 40
4.480162
 40
5.230435
 40
5.969970
 40
6.720243
 40
7.470516
 40
8.210051
 40
8.960324
 40
9.710597
 40
10.450132
 40
11.200405
 40
11.950678
 40
12.690213
 40
13.440486
 40
13.440486
 40
13.440486
 40
13.440486
 10
71.150000
 20
-0.000000
 30
0.0
 10
71.124312
 20
0.251366
 30
0.0
 10
71.073303
 20
0.750502
 30
0.0
 10
70.677560
 20
1.410117
 30
0.0
 10
70.098125
 20
1.900524
 30
0.0
 10
69.380603
 20
2.160619
 30
0.0
 10
68.619232
 20
2.160619
 30
0.0
 10
67.902716
 20
1.900524
 30
0.0
 10
67.319268
 20
1.410117
 30
0.0
 10
66.938433
 20
0.750502
 30
0.0
 10
66.805465
 20
-0.000000
 30
0.0
 10
66.938433
 20
-0.750502
 30
0.0
 10
67.319268
 20
-1.410117
 30
0.0
 10
67.902716
 20
-1.900524
 30
0.0
 10
68.619232
 20
-2.160619
 30
0.0
 10
69.380603
 20
-2.160619
 30
0.0
 10
70.098125
 20
-1.900524
 30
0.0
 10
70.677560
 20
-1.410117
 30
0.0
 10
71.073303
 20
-0.750502
 30
0.0
 10
71.124312
 20
-0.251367
 30
0.0
 10
71.150000
 20
-0.000000
 30
0.0
 11
71.150000
 21
-0.000000
 31
0.0
 11
71.019121
 21
0.738769
 31
0.0
 11
70.649354
 21
1.379226
 31
0.0
 11
70.075000
 21
1.861955
 31
0.0
 11
69.369768
 21
2.117995
 31
0.0
 11
68.630232
 21
2.117995
 31
0.0
 11
67.925000
 21
1.861955
 31
0.0
 11
67.350646
 21
1.379226
 31
0.0
 11
66.980879
 21
0.738769
 31
0.0
 11
66.850000
 21
-0.000000
 31
0.0
 11
66.980879
 21
-0.738769
 31
0.0
 11
67.350646
 21
-1.379226
 31
0.0
 11
67.925000
 21
-1.861955
 31
0.0
 11
68.630232
 21
-2.117995
 31
0.0
 11
69.369768
 21
-2.117995
 31
0.0
 11
70.075000
 21
-1.861955
 31
0.0
 11
70.649354
 21
-1.379226
 31
0.0
 11
71.019121
 21
-0.738769
 31
0.0
 11
71.150000
 21
-0.000000
 31
0.0
  0
LINE
  5
12c
100
AcDbEntity
  8
0
 62
7
100
AcDbLine
 10
32.333330
 20
-28.500000
 30
0.0
 11
32.333330
 21
-27.924997
 31
0.0
  0
SPLINE
  5
12d
100
AcDbEntity
  8
0
 62
7
100
AcDbSpline
 70
0
 71
3
 72
10
 73
6
 74
4
 40
0.000000
 40
0.000000
 40
0.000000
 40
0.000000
 40
2.562010
 40
5.048031
 40
7.610040
 40
7.610040
 40
7.610040
 40
7.610040
 10
37.233330
 20
-23.024998
 30
0.0
 10
36.374723
 20
-23.159773
 30
0.0
 10
34.682976
 20
-23.425326
 30
0.0
 10
32.733659
 20
-25.374644
 30
0.0
 10
32.468106
 20
-27.066391
 30
0.0
 10
32.333330
 20
-27.924997
 30
0.0
 11
37.233330
 21
-23.024998
 31
0.0
 11
34.760206
 21
-23.693991
 31
0.0
 11
33.002324
 21
-25.451874
 31
0.0
 11
32.333330
 21
-27.924997
 31
0.0
  0
LINE
  5
12e
100
AcDbEntity
  8
0
 62
7
100
AcDbLine
 10
-30.333330
 20
-30.500000
 30
0.0
 11
30.333330
 21
-30.500000
 31
0.0
  0
SPLINE
  5
12f
100
AcDbEntity
  8
0
 62
7
100
AcDbSpline
 70
0
 71
3
 72
13
 73
9
 74
7
 40
0.000000
 40
0.000000
 40
0.000000
 40
0.000000
 40
0.523550
 40
1.042767
 40
1.566317
 40
2.089867
 40
2.609084
 40
3.132634
 40
3.132634
 40
3.132634
 40
3.132634
 10
30.333330
 20
-30.500000
 30
0.0
 10
30.508356
 20
-30.486668
 30
0.0
 10
30.856961
 20
-30.460113
 30
0.0
 10
31.344643
 20
-30.250263
 30
0.0
 10
31.764326
 20
-29.930996
 30
0.0
 10
32.083593
 20
-29.511313
 30
0.0
 10
32.293443
 20
-29.023631
 30
0.0
 10
32.319998
 20
-28.675027
 30
0.0
 10
32.333330
 20
-28.500000
 30
0.0
 11
30.333330
 21
-30.500000
 31
0.0
 11
30.852376
 21
-30.431479
 31
0.0
 11
31.332071
 21
-30.232783
 31
0.0
 11
31.747544
 21
-29.914214
 31
0.0
 11
32.066113
 21
-29.498741
 31
0.0
 11
32.264809
 21
-29.019047
 31
0.0
 11
32.333330
 21
-28.500000
 31
0.0
  0
LINE
  5
130
100
AcDbEntity
  8
0
 62
7
100
AcDbLine
 10
-32.333330
 20
-27.924997
 30
0.0
 11
-32.333330
 21
-28.500000
 31
0.0
  0
SPLINE
  5
131
100
AcDbEntity
  8
0
 62
7
100
AcDbSpline
 70
0
 71
3
 72
13
 73
9
 74
7
 40
0.000000
 40
0.000000
 40
0.000000
 40
0.000000
 40
0.523550
 40
1.042767
 40
1.566317
 40
2.089867
 40
2.609084
 40
3.132634
 40
3.132634
 40
3.132634
 40
3.132634
 10
-32.333330
 20
-28.500000
 30
0.0
 10
-32.319998
 20
-28.675027
 30
0.0
 10
-32.293443
 20
-29.023631
 30
0.0
 10
-32.083593
 20
-29.511313
 30
0.0
 10
-31.764326
 20
-29.930996
 30
0.0
 10
-31.344643
 20
-30.250263
 30
0.0
 10
-30.856961
 20
-30.460113
 30
0.0
 10
-30.508356
 20
-30.486668
 30
0.0
 10
-30.333330
 20
-30.500000
 30
0.0
 11
-32.333330
 21
-28.500000
 31
0.0
 11
-32.264809
 21
-29.019047
 31
0.0
 11
-32.066113
 21
-29.498741
 31
0.0
 11
-31.747544
 21
-29.914214
 31
0.0
 11
-31.332071
 21
-30.232783
 31
0.0
 11
-30.852376
 21
-30.431479
 31
0.0
 11
-30.333330
 21
-30.500000
 31
0.0
  0
LINE
  5
132
100
AcDbEntity
  8
0
 62
7
100
AcDbLine
 10
-37.500000
 20
-23.024998
 30
0.0
 11
-37.233330
 21
-23.024998
 31
0.0
  0
SPLINE
  5
133
100
AcDbEntity
  8
0
 62
7
100
AcDbSpline
 70
0
 71
3
 72
10
 73
6
 74
4
 40
0.000000
 40
0.000000
 40
0.000000
 40
0.000000
 40
2.562010
 40
5.048031
 40
7.610040
 40
7.610040
 40
7.610040
 40
7.610040
 10
-32.333330
 20
-27.924997
 30
0.0
 10
-32.468106
 20
-27.066391
 30
0.0
 10
-32.733659
 20
-25.374644
 30
0.0
 10
-34.682976
 20
-23.425326
 30
0.0
 10
-36.374723
 20
-23.159773
 30
0.0
 10
-37.233330
 20
-23.024998
 30
0.0
 11
-32.333330
 21
-27.924997
 31
0.0
 11
-33.002324
 21
-25.451874
 31
0.0
 11
-34.760206
 21
-23.693991
 31
0.0
 11
-37.233330
 21
-23.024998
 31
0.0
  0
LINE
  5
134
100
AcDbEntity
  8
0
 62
7
100
AcDbLine
 10
-39.500000
 20
21.024998
 30
0.0
 11
-39.500000
 21
-21.024998
 31
0.0
  0
SPLINE
  5
135
100
AcDbEntity
  8
0
 62
7
100
AcDbSpline
 70
0
 71
3
 72
13
 73
9
 74
7
 40
0.000000
 40
0.000000
 40
0.000000
 40
0.000000
 40
0.523550
 40
1.042767
 40
1.566317
 40
2.089866
 40
2.609084
 40
3.132633
 40
3.132633
 40
3.132633
 40
3.132633
 10
-39.500000
 20
-21.024998
 30
0.0
 10
-39.486668
 20
-21.200024
 30
0.0
 10
-39.460113
 20
-21.548629
 30
0.0
 10
-39.250262
 20
-22.036311
 30
0.0
 10
-38.930996
 20
-22.455993
 30
0.0
 10
-38.511313
 20
-22.775260
 30
0.0
 10
-38.023631
 20
-22.985110
 30
0.0
 10
-37.675027
 20
-23.011665
 30
0.0
 10
-37.500000
 20
-23.024998
 30
0.0
 11
-39.500000
 21
-21.024998
 31
0.0
 11
-39.431479
 21
-21.544044
 31
0.0
 11
-39.232783
 21
-22.023738
 31
0.0
 11
-38.914214
 21
-22.439211
 31
0.0
 11
-38.498741
 21
-22.757781
 31
0.0
 11
-38.019047
 21
-22.956477
 31
0.0
 11
-37.500000
 21
-23.024998
 31
0.0
  0
LINE
  5
136
100
AcDbEntity
  8
0
 62
7
100
AcDbLine
 10
-37.233330
 20
23.024997
 30
0.0
 11
-37.500000
 21
23.024997
 31
0.0
  0
SPLINE
  5
137
100
AcDbEntity
  8
0
 62
7
100
AcDbSpline
 70
0
 71
3
 72
13
 73
9
 74
7
 40
0.000000
 40
0.000000
 40
0.000000
 40
0.000000
 40
0.523550
 40
1.042767
 40
1.566317
 40
2.089866
 40
2.609084
 40
3.132633
 40
3.132633
 40
3.132633
 40
3.132633
 10
-37.500000
 20
23.024997
 30
0.0
 10
-37.675027
 20
23.011665
 30
0.0
 10
-38.023631
 20
22.985110
 30
0.0
 10
-38.511313
 20
22.775260
 30
0.0
 10
-38.930996
 20
22.455993
 30
0.0
 10
-39.250262
 20
22.036311
 30
0.0
 10
-39.460113
 20
21.548629
 30
0.0
 10
-39.486668
 20
21.200024
 30
0.0
 10
-39.500000
 20
21.024998
 30
0.0
 11
-37.500000
 21
23.024997
 31
0.0
 11
-38.019047
 21
22.956476
 31
0.0
 11
-38.498741
 21
22.757781
 31
0.0
 11
-38.914214
 21
22.439211
 31
0.0
 11
-39.232783
 21
22.023738
 31
0.0
 11
-39.431479
 21
21.544044
 31
0.0
 11
-39.500000
 21
21.024998
 31
0.0
  0
LINE
  5
138
100
AcDbEntity
  8
0
 62
7
100
AcDbLine
 10
-32.333330
 20
28.500000
 30
0.0
 11
-32.333330
 21
27.924998
 31
0.0
  0
SPLINE
  5
139
100
AcDbEntity
  8
0
 62
7
100
AcDbSpline
 70
0
 71
3
 72
10
 73
6
 74
4
 40
0.000000
 40
0.000000
 40
0.000000
 40
0.000000
 40
2.562010
 40
5.048031
 40
7.610041
 40
7.610041
 40
7.610041
 40
7.610041
 10
-37.233330
 20
23.024997
 30
0.0
 10
-36.374723
 20
23.159773
 30
0.0
 10
-34.682976
 20
23.425326
 30
0.0
 10
-32.733659
 20
25.374644
 30
0.0
 10
-32.468105
 20
27.066391
 30
0.0
 10
-32.333330
 20
27.924998
 30
0.0
 11
-37.233330
 21
23.024997
 31
0.0
 11
-34.760206
 21
23.693991
 31
0.0
 11
-33.002324
 21
25.451874
 31
0.0
 11
-32.333330
 21
27.924998
 31
0.0
  0
LINE
  5
13a
100
AcDbEntity
  8
0
 62
7
100
AcDbLine
 10
30.333330
 20
30.500000
 30
0.0
 11
-30.333330
 21
30.500000
 31
0.0
  0
SPLINE
  5
13b
100
AcDbEntity
  8
0
 62
7
100
AcDbSpline
 70
0
 71
3
 72
13
 73
9
 74
7
 40
0.000000
 40
0.000000
 40
0.000000
 40
0.000000
 40
0.523550
 40
1.042767
 40
1.566317
 40
2.089867
 40
2.609084
 40
3.132634
 40
3.132634
 40
3.132634
 40
3.132634
 10
-30.333330
 20
30.500000
 30
0.0
 10
-30.508356
 20
30.486667
 30
0.0
 10
-30.856961
 20
30.460113
 30
0.0
 10
-31.344643
 20
30.250262
 30
0.0
 10
-31.764326
 20
29.930996
 30
0.0
 10
-32.083593
 20
29.511313
 30
0.0
 10
-32.293443
 20
29.023631
 30
0.0
 10
-32.319998
 20
28.675026
 30
0.0
 10
-32.333330
 20
28.500000
 30
0.0
 11
-30.333330
 21
30.500000
 31
0.0
 11
-30.852376
 21
30.431479
 31
0.0
 11
-31.332071
 21
30.232783
 31
0.0
 11
-31.747544
 21
29.914214
 31
0.0
 11
-32.066113
 21
29.498741
 31
0.0
 11
-32.264809
 21
29.019046
 31
0.0
 11
-32.333330
 21
28.500000
 31
0.0
  0
LINE
  5
13c
100
AcDbEntity
  8
0
 62
7
100
AcDbLine
 10
32.333330
 20
27.924998
 30
0.0
 11
32.333330
 21
28.500000
 31
0.0
  0
SPLINE
  5
13d
100
AcDbEntity
  8
0
 62
7
100
AcDbSpline
 70
0
 71
3
 72
13
 73
9
 74
7
 40
0.000000
 40
0.000000
 40
0.000000
 40
0.000000
 40
0.523550
 40
1.042767
 40
1.566317
 40
2.089867
 40
2.609084
 40
3.132634
 40
3.132634
 40
3.132634
 40
3.132634
 10
32.333330
 20
28.500000
 30
0.0
 10
32.319998
 20
28.675026
 30
0.0
 10
32.293443
 20
29.023631
 30
0.0
 10
32.083593
 20
29.511313
 30
0.0
 10
31.764326
 20
29.930996
 30
0.0
 10
31.344643
 20
30.250262
 30
0.0
 10
30.856961
 20
30.460113
 30
0.0
 10
30.508356
 20
30.486667
 30
0.0
 10
30.333330
 20
30.500000
 30
0.0
 11
32.333330
 21
28.500000
 31
0.0
 11
32.264809
 21
29.019046
 31
0.0
 11
32.066113
 21
29.498741
 31
0.0
 11
31.747544
 21
29.914214
 31
0.0
 11
31.332071
 21
30.232783
 31
0.0
 11
30.852376
 21
30.431479
 31
0.0
 11
30.333330
 21
30.500000
 31
0.0
  0
LINE
  5
13e
100
AcDbEntity
  8
0
 62
7
100
AcDbLine
 10
37.500000
 20
23.024997
 30
0.0
 11
37.233330
 21
23.024997
 31
0.0
  0
SPLINE
  5
13f
100
AcDbEntity
  8
0
 62
7
100
AcDbSpline
 70
0
 71
3
 72
10
 73
6
 74
4
 40
0.000000
 40
0.000000
 40
0.000000
 40
0.000000
 40
2.562010
 40
5.048031
 40
7.610041
 40
7.610041
 40
7.610041
 40
7.610041
 10
32.333330
 20
27.924998
 30
0.0
 10
32.468105
 20
27.066391
 30
0.0
 10
32.733659
 20
25.374644
 30
0.0
 10
34.682976
 20
23.425326
 30
0.0
 10
36.374723
 20
23.159773
 30
0.0
 10
37.233330
 20
23.024997
 30
0.0
 11
32.333330
 21
27.924998
 31
0.0
 11
33.002324
 21
25.451874
 31
0.0
 11
34.760206
 21
23.693991
 31
0.0
 11
37.233330
 21
23.024997
 31
0.0
  0
LINE
  5
140
100
AcDbEntity
  8
0
 62
7
100
AcDbLine
 10
39.500000
 20
-21.024998
 30
0.0
 11
39.500000
 21
21.024998
 31
0.0
  0
SPLINE
  5
141
100
AcDbEntity
  8
0
 62
7
100
AcDbSpline
 70
0
 71
3
 72
13
 73
9
 74
7
 40
0.000000
 40
0.000000
 40
0.000000
 40
0.000000
 40
0.523550
 40
1.042767
 40
1.566317
 40
2.089866
 40
2.609084
 40
3.132633
 40
3.132633
 40
3.132633
 40
3.132633
 10
39.500000
 20
21.024998
 30
0.0
 10
39.486668
 20
21.200024
 30
0.0
 10
39.460113
 20
21.548629
 30
0.0
 10
39.250262
 20
22.036311
 30
0.0
 10
38.930996
 20
22.455993
 30
0.0
 10
38.511313
 20
22.775260
 30
0.0
 10
38.023631
 20
22.985110
 30
0.0
 10
37.675027
 20
23.011665
 30
0.0
 10
37.500000
 20
23.024997
 30
0.0
 11
39.500000
 21
21.024998
 31
0.0
 11
39.431479
 21
21.544044
 31
0.0
 11
39.232783
 21
22.023738
 31
0.0
 11
38.914214
 21
22.439211
 31
0.0
 11
38.498741
 21
22.757781
 31
0.0
 11
38.019047
 21
22.956476
 31
0.0
 11
37.500000
 21
23.024997
 31
0.0
  0
LINE
  5
142
100
AcDbEntity
  8
0
 62
7
100
AcDbLine
 10
37.233330
 20
-23.024998
 30
0.0
 11
37.500000
 21
-23.024998
 31
0.0
  0
SPLINE
  5
143
100
AcDbEntity
  8
0
 62
7
100
AcDbSpline
 70
0
 71
3
 72
13
 73
9
 74
7
 40
0.000000
 40
0.000000
 40
0.000000
 40
0.000000
 40
0.523550
 40
1.042767
 40
1.566317
 40
2.089866
 40
2.609084
 40
3.132633
 40
3.132633
 40
3.132633
 40
3.132633
 10
37.500000
 20
-23.024998
 30
0.0
 10
37.675027
 20
-23.011665
 30
0.0
 10
38.023631
 20
-22.985110
 30
0.0
 10
38.511313
 20
-22.775260
 30
0.0
 10
38.930996
 20
-22.455993
 30
0.0
 10
39.250262
 20
-22.036311
 30
0.0
 10
39.460113
 20
-21.548629
 30
0.0
 10
39.486668
 20
-21.200024
 30
0.0
 10
39.500000
 20
-21.024998
 30
0.0
 11
37.500000
 21
-23.024998
 31
0.0
 11
38.019047
 21
-22.956477
 31
0.0
 11
38.498741
 21
-22.757781
 31
0.0
 11
38.914214
 21
-22.439211
 31
0.0
 11
39.232783
 21
-22.023738
 31
0.0
 11
39.431479
 21
-21.544044
 31
0.0
 11
39.500000
 21
-21.024998
 31
0.0
  0
LINE
  5
144
100
AcDbEntity
  8
0
 62
7
100
AcDbLine
 10
38.733330
 20
-27.924997
 30
0.0
 11
38.733330
 21
-27.924997
 31
0.0
  0
SPLINE
  5
145
100
AcDbEntity
  8
0
 62
7
100
AcDbSpline
 70
0
 71
3
 72
25
 73
21
 74
19
 40
0.000000
 40
0.000000
 40
0.000000
 40
0.000000
 40
0.523591
 40
1.039684
 40
1.563274
 40
2.086865
 40
2.602958
 40
3.126549
 40
3.650140
 40
4.166233
 40
4.689823
 40
5.213414
 40
5.729507
 40
6.253098
 40
6.776689
 40
7.292782
 40
7.816372
 40
8.339963
 40
8.856056
 40
9.379647
 40
9.379647
 40
9.379647
 40
9.379647
 10
38.733330
 20
-27.924997
 30
0.0
 10
38.715474
 20
-27.749569
 30
0.0
 10
38.680018
 20
-27.401224
 30
0.0
 10
38.403970
 20
-26.940815
 30
0.0
 10
37.999665
 20
-26.598496
 30
0.0
 10
37.498942
 20
-26.416934
 30
0.0
 10
36.967603
 20
-26.416934
 30
0.0
 10
36.467580
 20
-26.598496
 30
0.0
 10
36.060485
 20
-26.940815
 30
0.0
 10
35.794800
 20
-27.401224
 30
0.0
 10
35.702373
 20
-27.924997
 30
0.0
 10
35.794800
 20
-28.448771
 30
0.0
 10
36.060485
 20
-28.909180
 30
0.0
 10
36.467580
 20
-29.251499
 30
0.0
 10
36.967603
 20
-29.433061
 30
0.0
 10
37.498942
 20
-29.433061
 30
0.0
 10
37.999665
 20
-29.251499
 30
0.0
 10
38.403970
 20
-28.909180
 30
0.0
 10
38.680018
 20
-28.448771
 30
0.0
 10
38.715474
 20
-28.100426
 30
0.0
 10
38.733330
 20
-27.924997
 30
0.0
 11
38.733330
 21
-27.924997
 31
0.0
 11
38.642193
 21
-27.409400
 31
0.0
 11
38.384275
 21
-26.962375
 31
0.0
 11
37.983518
 21
-26.625417
 31
0.0
 11
37.491377
 21
-26.446688
 31
0.0
 11
36.975283
 21
-26.446688
 31
0.0
 11
36.483142
 21
-26.625417
 31
0.0
 11
36.082385
 21
-26.962375
 31
0.0
 11
35.824468
 21
-27.409400
 31
0.0
 11
35.733330
 21
-27.924997
 31
0.0
 11
35.824468
 21
-28.440595
 31
0.0
 11
36.082385
 21
-28.887620
 31
0.0
 11
36.483142
 21
-29.224578
 31
0.0
 11
36.975283
 21
-29.403307
 31
0.0
 11
37.491377
 21
-29.403307
 31
0.0
 11
37.983518
 21
-29.224578
 31
0.0
 11
38.384275
 21
-28.887620
 31
0.0
 11
38.642193
 21
-28.440595
 31
0.0
 11
38.733330
 21
-27.924997
 31
0.0
  0
LINE
  5
146
100
AcDbEntity
  8
0
 62
7
100
AcDbLine
 10
-35.733330
 20
-27.924997
 30
0.0
 11
-35.733330
 21
-27.924997
 31
0.0
  0
SPLINE
  5
147
100
AcDbEntity
  8
0
 62
7
100
AcDbSpline
 70
0
 71
3
 72
25
 73
21
 74
19
 40
0.000000
 40
0.000000
 40
0.000000
 40
0.000000
 40
0.523591
 40
1.039684
 40
1.563274
 40
2.086865
 40
2.602958
 40
3.126549
 40
3.650140
 40
4.166233
 40
4.689823
 40
5.213414
 40
5.729507
 40
6.253098
 40
6.776689
 40
7.292782
 40
7.816372
 40
8.339963
 40
8.856056
 40
9.379647
 40
9.379647
 40
9.379647
 40
9.379647
 10
-35.733330
 20
-27.924997
 30
0.0
 10
-35.751186
 20
-27.749569
 30
0.0
 10
-35.786642
 20
-27.401224
 30
0.0
 10
-36.062690
 20
-26.940815
 30
0.0
 10
-36.466996
 20
-26.598496
 30
0.0
 10
-36.967718
 20
-26.416934
 30
0.0
 10
-37.499057
 20
-26.416934
 30
0.0
 10
-37.999080
 20
-26.598496
 30
0.0
 10
-38.406175
 20
-26.940815
 30
0.0
 10
-38.671860
 20
-27.401224
 30
0.0
 10
-38.764287
 20
-27.924997
 30
0.0
 10
-38.671860
 20
-28.448771
 30
0.0
 10
-38.406175
 20
-28.909180
 30
0.0
 10
-37.999080
 20
-29.251499
 30
0.0
 10
-37.499057
 20
-29.433061
 30
0.0
 10
-36.967718
 20
-29.433061
 30
0.0
 10
-36.466996
 20
-29.251499
 30
0.0
 10
-36.062690
 20
-28.909180
 30
0.0
 10
-35.786642
 20
-28.448771
 30
0.0
 10
-35.751186
 20
-28.100426
 30
0.0
 10
-35.733330
 20
-27.924997
 30
0.0
 11
-35.733330
 21
-27.924997
 31
0.0
 11
-35.824468
 21
-27.409400
 31
0.0
 11
-36.082385
 21
-26.962375
 31
0.0
 11
-36.483142
 21
-26.625417
 31
0.0
 11
-36.975283
 21
-26.446688
 31
0.0
 11
-37.491377
 21
-26.446688
 31
0.0
 11
-37.983518
 21
-26.625417
 31
0.0
 11
-38.384275
 21
-26.962375
 31
0.0
 11
-38.642193
 21
-27.409400
 31
0.0
 11
-38.733330
 21
-27.924997
 31
0.0
 11
-38.642193
 21
-28.440595
 31
0.0
 11
-38.384275
 21
-28.887620
 31
0.0
 11
-37.983518
 21
-29.224578
 31
0.0
 11
-37.491377
 21
-29.403307
 31
0.0
 11
-36.975283
 21
-29.403307
 31
0.0
 11
-36.483142
 21
-29.224578
 31
0.0
 11
-36.082385
 21
-28.887620
 31
0.0
 11
-35.824468
 21
-28.440595
 31
0.0
 11
-35.733330
 21
-27.924997
 31
0.0
  0
LINE
  5
148
100
AcDbEntity
  8
0
 62
7
100
AcDbLine
 10
38.733330
 20
27.924998
 30
0.0
 11
38.733330
 21
27.924998
 31
0.0
  0
SPLINE
  5
149
100
AcDbEntity
  8
0
 62
7
100
AcDbSpline
 70
0
 71
3
 72
25
 73
21
 74
19
 40
0.000000
 40
0.000000
 40
0.000000
 40
0.000000
 40
0.523591
 40
1.039684
 40
1.563274
 40
2.086865
 40
2.602958
 40
3.126549
 40
3.650140
 40
4.166233
 40
4.689823
 40
5.213414
 40
5.729507
 40
6.253098
 40
6.776689
 40
7.292782
 40
7.816372
 40
8.339963
 40
8.856056
 40
9.379647
 40
9.379647
 40
9.379647
 40
9.379647
 10
38.733330
 20
27.924998
 30
0.0
 10
38.715474
 20
28.100426
 30
0.0
 10
38.680018
 20
28.448771
 30
0.0
 10
38.403970
 20
28.909180
 30
0.0
 10
37.999665
 20
29.251499
 30
0.0
 10
37.498942
 20
29.433061
 30
0.0
 10
36.967603
 20
29.433061
 30
0.0
 10
36.467580
 20
29.251499
 30
0.0
 10
36.060485
 20
28.909180
 30
0.0
 10
35.794800
 20
28.448771
 30
0.0
 10
35.702373
 20
27.924998
 30
0.0
 10
35.794800
 20
27.401224
 30
0.0
 10
36.060485
 20
26.940815
 30
0.0
 10
36.467580
 20
26.598496
 30
0.0
 10
36.967603
 20
26.416934
 30
0.0
 10
37.498942
 20
26.416934
 30
0.0
 10
37.999665
 20
26.598496
 30
0.0
 10
38.403970
 20
26.940815
 30
0.0
 10
38.680018
 20
27.401224
 30
0.0
 10
38.715474
 20
27.749569
 30
0.0
 10
38.733330
 20
27.924998
 30
0.0
 11
38.733330
 21
27.924998
 31
0.0
 11
38.642193
 21
28.440595
 31
0.0
 11
38.384275
 21
28.887620
 31
0.0
 11
37.983518
 21
29.224578
 31
0.0
 11
37.491377
 21
29.403307
 31
0.0
 11
36.975283
 21
29.403307
 31
0.0
 11
36.483142
 21
29.224578
 31
0.0
 11
36.082385
 21
28.887620
 31
0.0
 11
35.824468
 21
28.440595
 31
0.0
 11
35.733330
 21
27.924998
 31
0.0
 11
35.824468
 21
27.409400
 31
0.0
 11
36.082385
 21
26.962375
 31
0.0
 11
36.483142
 21
26.625417
 31
0.0
 11
36.975283
 21
26.446688
 31
0.0
 11
37.491377
 21
26.446688
 31
0.0
 11
37.983518
 21
26.625417
 31
0.0
 11
38.384275
 21
26.962375
 31
0.0
 11
38.642193
 21
27.409400
 31
0.0
 11
38.733330
 21
27.924998
 31
0.0
  0
LINE
  5
14a
100
AcDbEntity
  8
0
 62
7
100
AcDbLine
 10
-35.733330
 20
27.924998
 30
0.0
 11
-35.733330
 21
27.924998
 31
0.0
  0
SPLINE
  5
14b
100
AcDbEntity
  8
0
 62
7
100
AcDbSpline
 70
0
 71
3
 72
25
 73
21
 74
19
 40
0.000000
 40
0.000000
 40
0.000000
 40
0.000000
 40
0.523591
 40
1.039684
 40
1.563274
 40
2.086865
 40
2.602958
 40
3.126549
 40
3.650140
 40
4.166233
 40
4.689823
 40
5.213414
 40
5.729507
 40
6.253098
 40
6.776689
 40
7.292782
 40
7.816372
 40
8.339963
 40
8.856056
 40
9.379647
 40
9.379647
 40
9.379647
 40
9.379647
 10
-35.733330
 20
27.924998
 30
0.0
 10
-35.751186
 20
28.100426
 30
0.0
 10
-35.786642
 20
28.448771
 30
0.0
 10
-36.062690
 20
28.909180
 30
0.0
 10
-36.466996
 20
29.251499
 30
0.0
 10
-36.967718
 20
29.433061
 30
0.0
 10
-37.499057
 20
29.433061
 30
0.0
 10
-37.999080
 20
29.251499
 30
0.0
 10
-38.406175
 20
28.909180
 30
0.0
 10
-38.671860
 20
28.448771
 30
0.0
 10
-38.764287
 20
27.924998
 30
0.0
 10
-38.671860
 20
27.401224
 30
0.0
 10
-38.406175
 20
26.940815
 30
0.0
 10
-37.999080
 20
26.598496
 30
0.0
 10
-37.499057
 20
26.416934
 30
0.0
 10
-36.967718
 20
26.416934
 30
0.0
 10
-36.466996
 20
26.598496
 30
0.0
 10
-36.062690
 20
26.940815
 30
0.0
 10
-35.786642
 20
27.401224
 30
0.0
 10
-35.751186
 20
27.749569
 30
0.0
 10
-35.733330
 20
27.924998
 30
0.0
 11
-35.733330
 21
27.924998
 31
0.0
 11
-35.824468
 21
28.440595
 31
0.0
 11
-36.082385
 21
28.887620
 31
0.0
 11
-36.483142
 21
29.224578
 31
0.0
 11
-36.975283
 21
29.403307
 31
0.0
 11
-37.491377
 21
29.403307
 31
0.0
 11
-37.983518
 21
29.224578
 31
0.0
 11
-38.384275
 21
28.887620
 31
0.0
 11
-38.642193
 21
28.440595
 31
0.0
 11
-38.733330
 21
27.924998
 31
0.0
 11
-38.642193
 21
27.409400
 31
0.0
 11
-38.384275
 21
26.962375
 31
0.0
 11
-37.983518
 21
26.625417
 31
0.0
 11
-37.491377
 21
26.446688
 31
0.0
 11
-36.975283
 21
26.446688
 31
0.0
 11
-36.483142
 21
26.625417
 31
0.0
 11
-36.082385
 21
26.962375
 31
0.0
 11
-35.824468
 21
27.409400
 31
0.0
 11
-35.733330
 21
27.924998
 31
0.0
  0
ENDSEC
  0
SECTION
  2
OBJECTS
  0
DICTIONARY
  5
C
330
0
100
AcDbDictionary
  3
ACAD_GROUP
350
D
  3
ACAD_MLINESTYLE
350
17
  0
DICTIONARY
  5
D
330
C
100
AcDbDictionary
  0
DICTIONARY
  5
1A
330
C
100
AcDbDictionary
  0
DICTIONARY
  5
17
330
C
100
AcDbDictionary
  3
STANDARD
350
18
  0
DICTIONARY
  5
19
330
C
100
AcDbDictionary
  0
ENDSEC
  0
EOF
