  0
SECTION
  2
HEADER
  9
$ACADVER
  1
AC1014
  9
$HANDSEED
  5
FFFF
  9
$MEASUREMENT
 70
     1
  0
ENDSEC
  0
SECTION
  2
TABLES
  0
TABLE
  2
VPORT
  5
8
330
0
100
AcDbSymbolTable
 70
     4
  0
VPORT
  5
2E
330
8
100
AcDbSymbolTableRecord
100
AcDbViewportTableRecord
  2
*ACTIVE
 70
     0
 10
0.0
 20
0.0
 11
1.0
 21
1.0
 12
210.0
 22
148.5
 13
0.0
 23
0.0
 14
10.0
 24
10.0
 15
10.0
 25
10.0
 16
0.0
 26
0.0
 36
1.0
 17
0.0
 27
0.0
 37
0.0
 40
341.0
 41
1.24
 42
50.0
 43
0.0
 44
0.0
 50
0.0
 51
0.0
 71
     0
 72
   100
 73
     1
 74
     3
 75
     0
 76
     0
 77
     0
 78
     0
  0
ENDTAB
  0
TABLE
  2
LTYPE
  5
5
330
0
100
AcDbSymbolTable
 70
     1
  0
LTYPE
  5
14
330
5
100
AcDbSymbolTableRecord
100
AcDbLinetypeTableRecord
  2
BYBLOCK
 70
     0
  3

 72
    65
 73
     0
 40
0.0
  0
LTYPE
  5
15
330
5
100
AcDbSymbolTableRecord
100
AcDbLinetypeTableRecord
  2
BYLAYER
 70
     0
  3

 72
    65
 73
     0
 40
0.0
  0
LTYPE
  5
16
330
5
100
AcDbSymbolTableRecord
100
AcDbLinetypeTableRecord
  2
CONTINUOUS
 70
     0
  3
Solid line
 72
    65
 73
     0
 40
0.0
  0
ENDTAB
  0
TABLE
  2
LAYER
  5
2
100
AcDbSymbolTable
 70
1
  0
LAYER
  5
50
100
AcDbSymbolTableRecord
100
AcDbLayerTableRecord
  2
0
 70
0
  6
CONTINUOUS
  0
ENDTAB
  0
TABLE
  2
STYLE
  5
3
330
0
100
AcDbSymbolTable
 70
     1
  0
STYLE
  5
11
330
3
100
AcDbSymbolTableRecord
100
AcDbTextStyleTableRecord
  2
STANDARD
 70
     0
 40
0.0
 41
1.0
 50
0.0
 71
     0
 42
2.5
  3
txt
  4

  0
ENDTAB
  0
TABLE
  2
VIEW
  5
6
330
0
100
AcDbSymbolTable
 70
     0
  0
ENDTAB
  0
TABLE
  2
UCS
  5
7
330
0
100
AcDbSymbolTable
 70
     0
  0
ENDTAB
  0
TABLE
  2
APPID
  5
9
330
0
100
AcDbSymbolTable
 70
     2
  0
APPID
  5
12
330
9
100
AcDbSymbolTableRecord
100
AcDbRegAppTableRecord
  2
ACAD
 70
     0
  0
ENDTAB
  0
TABLE
  2
DIMSTYLE
  5
A
330
0
100
AcDbSymbolTable
 70
     1
  0
DIMSTYLE
105
27
330
A
100
AcDbSymbolTableRecord
100
AcDbDimStyleTableRecord
  2
ISO-25
 70
     0
  3

  4

  5

  6

  7

 40
1.0
 41
2.5
 42
0.625
 43
3.75
 44
1.25
 45
0.0
 46
0.0
 47
0.0
 48
0.0
140
2.5
141
2.5
142
0.0
143
0.03937007874016
144
1.0
145
0.0
146
1.0
147
0.625
 71
     0
 72
     0
 73
     0
 74
     0
 75
     0
 76
     0
 77
     1
 78
     8
170
     0
171
     3
172
     1
173
     0
174
     0
175
     0
176
     0
177
     0
178
     0
270
     2
271
     2
272
     2
273
     2
274
     3
340
11
275
     0
280
     0
281
     0
282
     0
283
     0
284
     8
285
     0
286
     0
287
     3
288
     0
  0
ENDTAB
  0
TABLE
  2
BLOCK_RECORD
  5
1
330
0
100
AcDbSymbolTable
 70
     1
  0
BLOCK_RECORD
  5
1F
330
1
100
AcDbSymbolTableRecord
100
AcDbBlockTableRecord
  2
*MODEL_SPACE
  0
BLOCK_RECORD
  5
1B
330
1
100
AcDbSymbolTableRecord
100
AcDbBlockTableRecord
  2
*PAPER_SPACE
  0
ENDTAB
  0
ENDSEC
  0
SECTION
  2
BLOCKS
  0
BLOCK
  5
20
330
1F
100
AcDbEntity
  8
0
100
AcDbBlockBegin
  2
*MODEL_SPACE
 70
     0
 10
0.0
 20
0.0
 30
0.0
  3
*MODEL_SPACE
  1

  0
ENDBLK
  5
21
330
1F
100
AcDbEntity
  8
0
100
AcDbBlockEnd
  0
BLOCK
  5
1C
330
1B
100
AcDbEntity
 67
     1
  8
0
100
AcDbBlockBegin
  2
*PAPER_SPACE
  1

  0
ENDBLK
  5
1D
330
1B
100
AcDbEntity
 67
     1
  8
0
100
AcDbBlockEnd
  0
ENDSEC
  0
SECTION
  2
ENTITIES
  0
LINE
  5
100
100
AcDbEntity
  8
0
 62
7
100
AcDbLine
 10
8.400000
 20
-0.000000
 30
0.0
 11
8.400000
 21
-0.000000
 31
0.0
  0
SPLINE
  5
101
100
AcDbEntity
  8
0
 62
7
100
AcDbSpline
 70
0
 71
3
 72
25
 73
21
 74
19
 40
0.000000
 40
0.000000
 40
0.000000
 40
0.000000
 40
2.931299
 40
5.820646
 40
8.751944
 40
11.683243
 40
14.572590
 40
17.503889
 40
20.435187
 40
23.324534
 40
26.255833
 40
29.187132
 40
32.076479
 40
35.007777
 40
37.939076
 40
40.828423
 40
43.759722
 40
46.691020
 40
49.580368
 40
52.511666
 40
52.511666
 40
52.511666
 40
52.511666
 10
8.400000
 20
-0.000000
 30
0.0
 10
8.299637
 20
0.982083
 30
0.0
 10
8.100348
 20
2.932194
 30
0.0
 10
6.554188
 20
5.509295
 30
0.0
 10
4.290348
 20
7.425302
 30
0.0
 10
1.487008
 20
8.441489
 30
0.0
 10
-1.487651
 20
8.441489
 30
0.0
 10
-4.287065
 20
7.425302
 30
0.0
 10
-6.566582
 20
5.509295
 30
0.0
 10
-8.054494
 20
2.932194
 30
0.0
 10
-8.573998
 20
-0.000000
 30
0.0
 10
-8.054494
 20
-2.932194
 30
0.0
 10
-6.566582
 20
-5.509295
 30
0.0
 10
-4.287065
 20
-7.425303
 30
0.0
 10
-1.487651
 20
-8.441489
 30
0.0
 10
1.487008
 20
-8.441489
 30
0.0
 10
4.290348
 20
-7.425303
 30
0.0
 10
6.554188
 20
-5.509295
 30
0.0
 10
8.100348
 20
-2.932194
 30
0.0
 10
8.299637
 20
-0.982083
 30
0.0
 10
8.400000
 20
-0.000000
 30
0.0
 11
8.400000
 21
-0.000000
 31
0.0
 11
7.888660
 21
2.886354
 31
0.0
 11
6.443986
 21
5.388603
 31
0.0
 11
4.200000
 21
7.274613
 31
0.0
 11
1.444674
 21
8.274957
 31
0.0
 11
-1.444674
 21
8.274957
 31
0.0
 11
-4.200000
 21
7.274613
 31
0.0
 11
-6.443986
 21
5.388603
 31
0.0
 11
-7.888660
 21
2.886354
 31
0.0
 11
-8.400000
 21
-0.000000
 31
0.0
 11
-7.888660
 21
-2.886355
 31
0.0
 11
-6.443986
 21
-5.388603
 31
0.0
 11
-4.200000
 21
-7.274614
 31
0.0
 11
-1.444674
 21
-8.274957
 31
0.0
 11
1.444674
 21
-8.274957
 31
0.0
 11
4.200000
 21
-7.274614
 31
0.0
 11
6.443986
 21
-5.388603
 31
0.0
 11
7.888660
 21
-2.886355
 31
0.0
 11
8.400000
 21
-0.000000
 31
0.0
  0
LINE
  5
102
100
AcDbEntity
  8
0
 62
7
100
AcDbLine
 10
3.000000
 20
-0.000000
 30
0.0
 11
3.000000
 21
-0.000000
 31
0.0
  0
SPLINE
  5
103
100
AcDbEntity
  8
0
 62
7
100
AcDbSpline
 70
0
 71
3
 72
25
 73
21
 74
19
 40
0.000000
 40
0.000000
 40
0.000000
 40
0.000000
 40
1.046892
 40
2.078802
 40
3.125694
 40
4.172587
 40
5.204496
 40
6.251389
 40
7.298281
 40
8.330191
 40
9.377083
 40
10.423975
 40
11.455885
 40
12.502777
 40
13.549669
 40
14.581579
 40
15.628471
 40
16.675364
 40
17.707273
 40
18.754166
 40
18.754166
 40
18.754166
 40
18.754166
 10
3.000000
 20
-0.000000
 30
0.0
 10
2.964156
 20
0.350744
 30
0.0
 10
2.892981
 20
1.047212
 30
0.0
 10
2.340781
 20
1.967605
 30
0.0
 10
1.532267
 20
2.651894
 30
0.0
 10
0.531074
 20
3.014817
 30
0.0
 10
-0.531304
 20
3.014817
 30
0.0
 10
-1.531095
 20
2.651894
 30
0.0
 10
-2.345208
 20
1.967605
 30
0.0
 10
-2.876605
 20
1.047212
 30
0.0
 10
-3.062142
 20
-0.000000
 30
0.0
 10
-2.876605
 20
-1.047212
 30
0.0
 10
-2.345208
 20
-1.967605
 30
0.0
 10
-1.531095
 20
-2.651894
 30
0.0
 10
-0.531304
 20
-3.014817
 30
0.0
 10
0.531074
 20
-3.014817
 30
0.0
 10
1.532267
 20
-2.651894
 30
0.0
 10
2.340781
 20
-1.967605
 30
0.0
 10
2.892981
 20
-1.047212
 30
0.0
 10
2.964156
 20
-0.350744
 30
0.0
 10
3.000000
 20
-0.000000
 30
0.0
 11
3.000000
 21
-0.000000
 31
0.0
 11
2.817378
 21
1.030841
 31
0.0
 11
2.301424
 21
1.924501
 31
0.0
 11
1.500000
 21
2.598076
 31
0.0
 11
0.515955
 21
2.955342
 31
0.0
 11
-0.515955
 21
2.955342
 31
0.0
 11
-1.500000
 21
2.598076
 31
0.0
 11
-2.301424
 21
1.924501
 31
0.0
 11
-2.817378
 21
1.030841
 31
0.0
 11
-3.000000
 21
-0.000000
 31
0.0
 11
-2.817378
 21
-1.030841
 31
0.0
 11
-2.301424
 21
-1.924501
 31
0.0
 11
-1.500000
 21
-2.598076
 31
0.0
 11
-0.515955
 21
-2.955342
 31
0.0
 11
0.515955
 21
-2.955342
 31
0.0
 11
1.500000
 21
-2.598076
 31
0.0
 11
2.301424
 21
-1.924501
 31
0.0
 11
2.817378
 21
-1.030841
 31
0.0
 11
3.000000
 21
-0.000000
 31
0.0
  0
ENDSEC
  0
SECTION
  2
OBJECTS
  0
DICTIONARY
  5
C
330
0
100
AcDbDictionary
  3
ACAD_GROUP
350
D
  3
ACAD_MLINESTYLE
350
17
  0
DICTIONARY
  5
D
330
C
100
AcDbDictionary
  0
DICTIONARY
  5
1A
330
C
100
AcDbDictionary
  0
DICTIONARY
  5
17
330
C
100
AcDbDictionary
  3
STANDARD
350
18
  0
DICTIONARY
  5
19
330
C
100
AcDbDictionary
  0
ENDSEC
  0
EOF
