  0
SECTION
  2
HEADER
  9
$ACADVER
  1
AC1014
  9
$HANDSEED
  5
FFFF
  9
$MEASUREMENT
 70
     1
  0
ENDSEC
  0
SECTION
  2
TABLES
  0
TABLE
  2
VPORT
  5
8
330
0
100
AcDbSymbolTable
 70
     4
  0
VPORT
  5
2E
330
8
100
AcDbSymbolTableRecord
100
AcDbViewportTableRecord
  2
*ACTIVE
 70
     0
 10
0.0
 20
0.0
 11
1.0
 21
1.0
 12
210.0
 22
148.5
 13
0.0
 23
0.0
 14
10.0
 24
10.0
 15
10.0
 25
10.0
 16
0.0
 26
0.0
 36
1.0
 17
0.0
 27
0.0
 37
0.0
 40
341.0
 41
1.24
 42
50.0
 43
0.0
 44
0.0
 50
0.0
 51
0.0
 71
     0
 72
   100
 73
     1
 74
     3
 75
     0
 76
     0
 77
     0
 78
     0
  0
ENDTAB
  0
TABLE
  2
LTYPE
  5
5
330
0
100
AcDbSymbolTable
 70
     1
  0
LTYPE
  5
14
330
5
100
AcDbSymbolTableRecord
100
AcDbLinetypeTableRecord
  2
BYBLOCK
 70
     0
  3

 72
    65
 73
     0
 40
0.0
  0
LTYPE
  5
15
330
5
100
AcDbSymbolTableRecord
100
AcDbLinetypeTableRecord
  2
BYLAYER
 70
     0
  3

 72
    65
 73
     0
 40
0.0
  0
LTYPE
  5
16
330
5
100
AcDbSymbolTableRecord
100
AcDbLinetypeTableRecord
  2
CONTINUOUS
 70
     0
  3
Solid line
 72
    65
 73
     0
 40
0.0
  0
ENDTAB
  0
TABLE
  2
LAYER
  5
2
100
AcDbSymbolTable
 70
1
  0
LAYER
  5
50
100
AcDbSymbolTableRecord
100
AcDbLayerTableRecord
  2
0
 70
0
  6
CONTINUOUS
  0
ENDTAB
  0
TABLE
  2
STYLE
  5
3
330
0
100
AcDbSymbolTable
 70
     1
  0
STYLE
  5
11
330
3
100
AcDbSymbolTableRecord
100
AcDbTextStyleTableRecord
  2
STANDARD
 70
     0
 40
0.0
 41
1.0
 50
0.0
 71
     0
 42
2.5
  3
txt
  4

  0
ENDTAB
  0
TABLE
  2
VIEW
  5
6
330
0
100
AcDbSymbolTable
 70
     0
  0
ENDTAB
  0
TABLE
  2
UCS
  5
7
330
0
100
AcDbSymbolTable
 70
     0
  0
ENDTAB
  0
TABLE
  2
APPID
  5
9
330
0
100
AcDbSymbolTable
 70
     2
  0
APPID
  5
12
330
9
100
AcDbSymbolTableRecord
100
AcDbRegAppTableRecord
  2
ACAD
 70
     0
  0
ENDTAB
  0
TABLE
  2
DIMSTYLE
  5
A
330
0
100
AcDbSymbolTable
 70
     1
  0
DIMSTYLE
105
27
330
A
100
AcDbSymbolTableRecord
100
AcDbDimStyleTableRecord
  2
ISO-25
 70
     0
  3

  4

  5

  6

  7

 40
1.0
 41
2.5
 42
0.625
 43
3.75
 44
1.25
 45
0.0
 46
0.0
 47
0.0
 48
0.0
140
2.5
141
2.5
142
0.0
143
0.03937007874016
144
1.0
145
0.0
146
1.0
147
0.625
 71
     0
 72
     0
 73
     0
 74
     0
 75
     0
 76
     0
 77
     1
 78
     8
170
     0
171
     3
172
     1
173
     0
174
     0
175
     0
176
     0
177
     0
178
     0
270
     2
271
     2
272
     2
273
     2
274
     3
340
11
275
     0
280
     0
281
     0
282
     0
283
     0
284
     8
285
     0
286
     0
287
     3
288
     0
  0
ENDTAB
  0
TABLE
  2
BLOCK_RECORD
  5
1
330
0
100
AcDbSymbolTable
 70
     1
  0
BLOCK_RECORD
  5
1F
330
1
100
AcDbSymbolTableRecord
100
AcDbBlockTableRecord
  2
*MODEL_SPACE
  0
BLOCK_RECORD
  5
1B
330
1
100
AcDbSymbolTableRecord
100
AcDbBlockTableRecord
  2
*PAPER_SPACE
  0
ENDTAB
  0
ENDSEC
  0
SECTION
  2
BLOCKS
  0
BLOCK
  5
20
330
1F
100
AcDbEntity
  8
0
100
AcDbBlockBegin
  2
*MODEL_SPACE
 70
     0
 10
0.0
 20
0.0
 30
0.0
  3
*MODEL_SPACE
  1

  0
ENDBLK
  5
21
330
1F
100
AcDbEntity
  8
0
100
AcDbBlockEnd
  0
BLOCK
  5
1C
330
1B
100
AcDbEntity
 67
     1
  8
0
100
AcDbBlockBegin
  2
*PAPER_SPACE
  1

  0
ENDBLK
  5
1D
330
1B
100
AcDbEntity
 67
     1
  8
0
100
AcDbBlockEnd
  0
ENDSEC
  0
SECTION
  2
ENTITIES
  0
SPLINE
  5
100
100
AcDbEntity
  8
0
 62
7
100
AcDbSpline
 70
8
 71
3
 72
8
 73
4
 74
0
 40
0
 40
0
 40
0
 40
0
 40
1
 40
1
 40
1
 40
1
 10
61.900000
 20
37.368154
 30
0.0
 10
60.945441
 20
46.258925
 30
0.0
 10
53.441867
 20
53.000000
 30
0.0
 10
44.500000
 20
53.000000
 30
0.0
  0
LWPOLYLINE
  5
101
100
AcDbEntity
  8
0
 62
7
100
AcDbPolyline
 90
2
 70
0
 10
61.900000
 20
-28.646110
 30
0.0
 10
62.000000
 20
-28.646110
 30
0.0
  0
SPLINE
  5
102
100
AcDbEntity
  8
0
 62
7
100
AcDbSpline
 70
8
 71
3
 72
8
 73
4
 74
0
 40
0
 40
0
 40
0
 40
0
 40
1
 40
1
 40
1
 40
1
 10
-44.500000
 20
53.000000
 30
0.0
 10
-49.141289
 20
53.000000
 30
0.0
 10
-53.592482
 20
51.156255
 30
0.0
 10
-56.874369
 20
47.874369
 30
0.0
  0
SPLINE
  5
103
100
AcDbEntity
  8
0
 62
7
100
AcDbSpline
 70
8
 71
3
 72
8
 73
4
 74
0
 40
0
 40
0
 40
0
 40
0
 40
1
 40
1
 40
1
 40
1
 10
-56.874369
 20
47.874369
 30
0.0
 10
-60.156255
 20
44.592482
 30
0.0
 10
-62.000000
 20
40.141289
 30
0.0
 10
-62.000000
 20
35.500000
 30
0.0
  0
LWPOLYLINE
  5
104
100
AcDbEntity
  8
0
 62
7
100
AcDbPolyline
 90
2
 70
0
 10
61.900000
 20
37.368154
 30
0.0
 10
61.900000
 20
-28.646110
 30
0.0
  0
LWPOLYLINE
  5
105
100
AcDbEntity
  8
0
 62
7
100
AcDbPolyline
 90
2
 70
0
 10
44.500000
 20
53.000000
 30
0.0
 10
-44.500000
 20
53.000000
 30
0.0
  0
LWPOLYLINE
  5
106
100
AcDbEntity
  8
0
 62
7
100
AcDbPolyline
 90
2
 70
0
 10
-62.000000
 20
35.500000
 30
0.0
 10
-62.000000
 20
35.041316
 30
0.0
  0
LWPOLYLINE
  5
107
100
AcDbEntity
  8
0
 62
7
100
AcDbPolyline
 90
2
 70
0
 10
-61.900000
 20
35.041316
 30
0.0
 10
-62.000000
 20
35.041316
 30
0.0
  0
LWPOLYLINE
  5
108
100
AcDbEntity
  8
0
 62
7
100
AcDbPolyline
 90
2
 70
0
 10
-61.900000
 20
-24.837560
 30
0.0
 10
-61.900000
 20
35.041316
 30
0.0
  0
SPLINE
  5
109
100
AcDbEntity
  8
0
 62
7
100
AcDbSpline
 70
8
 71
3
 72
8
 73
4
 74
0
 40
0
 40
0
 40
0
 40
0
 40
1
 40
1
 40
1
 40
1
 10
-62.000000
 20
-35.500000
 30
0.0
 10
-62.000000
 20
-40.141289
 30
0.0
 10
-60.156255
 20
-44.592482
 30
0.0
 10
-56.874369
 20
-47.874369
 30
0.0
  0
SPLINE
  5
10a
100
AcDbEntity
  8
0
 62
7
100
AcDbSpline
 70
8
 71
3
 72
8
 73
4
 74
0
 40
0
 40
0
 40
0
 40
0
 40
1
 40
1
 40
1
 40
1
 10
-56.874369
 20
-47.874369
 30
0.0
 10
-53.592482
 20
-51.156255
 30
0.0
 10
-49.141289
 20
-53.000000
 30
0.0
 10
-44.500000
 20
-53.000000
 30
0.0
  0
LWPOLYLINE
  5
10b
100
AcDbEntity
  8
0
 62
7
100
AcDbPolyline
 90
2
 70
0
 10
-62.000000
 20
-24.837560
 30
0.0
 10
-61.900000
 20
-24.837560
 30
0.0
  0
SPLINE
  5
10c
100
AcDbEntity
  8
0
 62
7
100
AcDbSpline
 70
8
 71
3
 72
8
 73
4
 74
0
 40
0
 40
0
 40
0
 40
0
 40
1
 40
1
 40
1
 40
1
 10
44.500000
 20
-53.000000
 30
0.0
 10
49.141289
 20
-53.000000
 30
0.0
 10
53.592482
 20
-51.156255
 30
0.0
 10
56.874369
 20
-47.874369
 30
0.0
  0
SPLINE
  5
10d
100
AcDbEntity
  8
0
 62
7
100
AcDbSpline
 70
8
 71
3
 72
8
 73
4
 74
0
 40
0
 40
0
 40
0
 40
0
 40
1
 40
1
 40
1
 40
1
 10
56.874369
 20
-47.874369
 30
0.0
 10
60.156255
 20
-44.592482
 30
0.0
 10
62.000000
 20
-40.141289
 30
0.0
 10
62.000000
 20
-35.500000
 30
0.0
  0
LWPOLYLINE
  5
10e
100
AcDbEntity
  8
0
 62
7
100
AcDbPolyline
 90
2
 70
0
 10
-62.000000
 20
-24.837560
 30
0.0
 10
-62.000000
 20
-35.500000
 30
0.0
  0
LWPOLYLINE
  5
10f
100
AcDbEntity
  8
0
 62
7
100
AcDbPolyline
 90
2
 70
0
 10
-44.500000
 20
-53.000000
 30
0.0
 10
44.500000
 20
-53.000000
 30
0.0
  0
SPLINE
  5
110
100
AcDbEntity
  8
0
 62
7
100
AcDbSpline
 70
8
 71
3
 72
8
 73
4
 74
0
 40
0
 40
0
 40
0
 40
0
 40
1
 40
1
 40
1
 40
1
 10
56.290000
 20
20.000000
 30
0.0
 10
56.290000
 20
20.589488
 30
0.0
 10
55.975512
 20
21.134198
 30
0.0
 10
55.465000
 20
21.428942
 30
0.0
  0
SPLINE
  5
111
100
AcDbEntity
  8
0
 62
7
100
AcDbSpline
 70
8
 71
3
 72
8
 73
4
 74
0
 40
0
 40
0
 40
0
 40
0
 40
1
 40
1
 40
1
 40
1
 10
55.465000
 20
21.428942
 30
0.0
 10
54.954488
 20
21.723686
 30
0.0
 10
54.325512
 20
21.723686
 30
0.0
 10
53.815000
 20
21.428942
 30
0.0
  0
SPLINE
  5
112
100
AcDbEntity
  8
0
 62
7
100
AcDbSpline
 70
8
 71
3
 72
8
 73
4
 74
0
 40
0
 40
0
 40
0
 40
0
 40
1
 40
1
 40
1
 40
1
 10
53.815000
 20
21.428942
 30
0.0
 10
53.304488
 20
21.134198
 30
0.0
 10
52.990000
 20
20.589488
 30
0.0
 10
52.990000
 20
20.000000
 30
0.0
  0
SPLINE
  5
113
100
AcDbEntity
  8
0
 62
7
100
AcDbSpline
 70
8
 71
3
 72
8
 73
4
 74
0
 40
0
 40
0
 40
0
 40
0
 40
1
 40
1
 40
1
 40
1
 10
52.990000
 20
20.000000
 30
0.0
 10
52.990000
 20
19.410512
 30
0.0
 10
53.304488
 20
18.865802
 30
0.0
 10
53.815000
 20
18.571058
 30
0.0
  0
SPLINE
  5
114
100
AcDbEntity
  8
0
 62
7
100
AcDbSpline
 70
8
 71
3
 72
8
 73
4
 74
0
 40
0
 40
0
 40
0
 40
0
 40
1
 40
1
 40
1
 40
1
 10
53.815000
 20
18.571058
 30
0.0
 10
54.325512
 20
18.276314
 30
0.0
 10
54.954488
 20
18.276314
 30
0.0
 10
55.465000
 20
18.571058
 30
0.0
  0
SPLINE
  5
115
100
AcDbEntity
  8
0
 62
7
100
AcDbSpline
 70
8
 71
3
 72
8
 73
4
 74
0
 40
0
 40
0
 40
0
 40
0
 40
1
 40
1
 40
1
 40
1
 10
55.465000
 20
18.571058
 30
0.0
 10
55.975512
 20
18.865802
 30
0.0
 10
56.290000
 20
19.410512
 30
0.0
 10
56.290000
 20
20.000000
 30
0.0
  0
SPLINE
  5
116
100
AcDbEntity
  8
0
 62
7
100
AcDbSpline
 70
8
 71
3
 72
8
 73
4
 74
0
 40
0
 40
0
 40
0
 40
0
 40
1
 40
1
 40
1
 40
1
 10
56.290000
 20
-20.000000
 30
0.0
 10
56.290000
 20
-19.410512
 30
0.0
 10
55.975512
 20
-18.865802
 30
0.0
 10
55.465000
 20
-18.571058
 30
0.0
  0
SPLINE
  5
117
100
AcDbEntity
  8
0
 62
7
100
AcDbSpline
 70
8
 71
3
 72
8
 73
4
 74
0
 40
0
 40
0
 40
0
 40
0
 40
1
 40
1
 40
1
 40
1
 10
55.465000
 20
-18.571058
 30
0.0
 10
54.954488
 20
-18.276314
 30
0.0
 10
54.325512
 20
-18.276314
 30
0.0
 10
53.815000
 20
-18.571058
 30
0.0
  0
SPLINE
  5
118
100
AcDbEntity
  8
0
 62
7
100
AcDbSpline
 70
8
 71
3
 72
8
 73
4
 74
0
 40
0
 40
0
 40
0
 40
0
 40
1
 40
1
 40
1
 40
1
 10
53.815000
 20
-18.571058
 30
0.0
 10
53.304488
 20
-18.865802
 30
0.0
 10
52.990000
 20
-19.410512
 30
0.0
 10
52.990000
 20
-20.000000
 30
0.0
  0
SPLINE
  5
119
100
AcDbEntity
  8
0
 62
7
100
AcDbSpline
 70
8
 71
3
 72
8
 73
4
 74
0
 40
0
 40
0
 40
0
 40
0
 40
1
 40
1
 40
1
 40
1
 10
52.990000
 20
-20.000000
 30
0.0
 10
52.990000
 20
-20.589488
 30
0.0
 10
53.304488
 20
-21.134198
 30
0.0
 10
53.815000
 20
-21.428942
 30
0.0
  0
SPLINE
  5
11a
100
AcDbEntity
  8
0
 62
7
100
AcDbSpline
 70
8
 71
3
 72
8
 73
4
 74
0
 40
0
 40
0
 40
0
 40
0
 40
1
 40
1
 40
1
 40
1
 10
53.815000
 20
-21.428942
 30
0.0
 10
54.325512
 20
-21.723686
 30
0.0
 10
54.954488
 20
-21.723686
 30
0.0
 10
55.465000
 20
-21.428942
 30
0.0
  0
SPLINE
  5
11b
100
AcDbEntity
  8
0
 62
7
100
AcDbSpline
 70
8
 71
3
 72
8
 73
4
 74
0
 40
0
 40
0
 40
0
 40
0
 40
1
 40
1
 40
1
 40
1
 10
55.465000
 20
-21.428942
 30
0.0
 10
55.975512
 20
-21.134198
 30
0.0
 10
56.290000
 20
-20.589488
 30
0.0
 10
56.290000
 20
-20.000000
 30
0.0
  0
SPLINE
  5
11c
100
AcDbEntity
  8
0
 62
7
100
AcDbSpline
 70
8
 71
3
 72
8
 73
4
 74
0
 40
0
 40
0
 40
0
 40
0
 40
1
 40
1
 40
1
 40
1
 10
21.650000
 20
-45.215000
 30
0.0
 10
21.650000
 20
-44.625512
 30
0.0
 10
21.335512
 20
-44.080802
 30
0.0
 10
20.825000
 20
-43.786058
 30
0.0
  0
SPLINE
  5
11d
100
AcDbEntity
  8
0
 62
7
100
AcDbSpline
 70
8
 71
3
 72
8
 73
4
 74
0
 40
0
 40
0
 40
0
 40
0
 40
1
 40
1
 40
1
 40
1
 10
20.825000
 20
-43.786058
 30
0.0
 10
20.314488
 20
-43.491314
 30
0.0
 10
19.685512
 20
-43.491314
 30
0.0
 10
19.175000
 20
-43.786058
 30
0.0
  0
SPLINE
  5
11e
100
AcDbEntity
  8
0
 62
7
100
AcDbSpline
 70
8
 71
3
 72
8
 73
4
 74
0
 40
0
 40
0
 40
0
 40
0
 40
1
 40
1
 40
1
 40
1
 10
19.175000
 20
-43.786058
 30
0.0
 10
18.664488
 20
-44.080802
 30
0.0
 10
18.350000
 20
-44.625512
 30
0.0
 10
18.350000
 20
-45.215000
 30
0.0
  0
SPLINE
  5
11f
100
AcDbEntity
  8
0
 62
7
100
AcDbSpline
 70
8
 71
3
 72
8
 73
4
 74
0
 40
0
 40
0
 40
0
 40
0
 40
1
 40
1
 40
1
 40
1
 10
18.350000
 20
-45.215000
 30
0.0
 10
18.350000
 20
-45.804488
 30
0.0
 10
18.664488
 20
-46.349198
 30
0.0
 10
19.175000
 20
-46.643942
 30
0.0
  0
SPLINE
  5
120
100
AcDbEntity
  8
0
 62
7
100
AcDbSpline
 70
8
 71
3
 72
8
 73
4
 74
0
 40
0
 40
0
 40
0
 40
0
 40
1
 40
1
 40
1
 40
1
 10
19.175000
 20
-46.643942
 30
0.0
 10
19.685512
 20
-46.938686
 30
0.0
 10
20.314488
 20
-46.938686
 30
0.0
 10
20.825000
 20
-46.643942
 30
0.0
  0
SPLINE
  5
121
100
AcDbEntity
  8
0
 62
7
100
AcDbSpline
 70
8
 71
3
 72
8
 73
4
 74
0
 40
0
 40
0
 40
0
 40
0
 40
1
 40
1
 40
1
 40
1
 10
20.825000
 20
-46.643942
 30
0.0
 10
21.335512
 20
-46.349198
 30
0.0
 10
21.650000
 20
-45.804488
 30
0.0
 10
21.650000
 20
-45.215000
 30
0.0
  0
SPLINE
  5
122
100
AcDbEntity
  8
0
 62
7
100
AcDbSpline
 70
8
 71
3
 72
8
 73
4
 74
0
 40
0
 40
0
 40
0
 40
0
 40
1
 40
1
 40
1
 40
1
 10
-18.350000
 20
-45.215000
 30
0.0
 10
-18.350000
 20
-44.625512
 30
0.0
 10
-18.664488
 20
-44.080802
 30
0.0
 10
-19.175000
 20
-43.786058
 30
0.0
  0
SPLINE
  5
123
100
AcDbEntity
  8
0
 62
7
100
AcDbSpline
 70
8
 71
3
 72
8
 73
4
 74
0
 40
0
 40
0
 40
0
 40
0
 40
1
 40
1
 40
1
 40
1
 10
-19.175000
 20
-43.786058
 30
0.0
 10
-19.685512
 20
-43.491314
 30
0.0
 10
-20.314488
 20
-43.491314
 30
0.0
 10
-20.825000
 20
-43.786058
 30
0.0
  0
SPLINE
  5
124
100
AcDbEntity
  8
0
 62
7
100
AcDbSpline
 70
8
 71
3
 72
8
 73
4
 74
0
 40
0
 40
0
 40
0
 40
0
 40
1
 40
1
 40
1
 40
1
 10
-20.825000
 20
-43.786058
 30
0.0
 10
-21.335512
 20
-44.080802
 30
0.0
 10
-21.650000
 20
-44.625512
 30
0.0
 10
-21.650000
 20
-45.215000
 30
0.0
  0
SPLINE
  5
125
100
AcDbEntity
  8
0
 62
7
100
AcDbSpline
 70
8
 71
3
 72
8
 73
4
 74
0
 40
0
 40
0
 40
0
 40
0
 40
1
 40
1
 40
1
 40
1
 10
-21.650000
 20
-45.215000
 30
0.0
 10
-21.650000
 20
-45.804488
 30
0.0
 10
-21.335512
 20
-46.349198
 30
0.0
 10
-20.825000
 20
-46.643942
 30
0.0
  0
SPLINE
  5
126
100
AcDbEntity
  8
0
 62
7
100
AcDbSpline
 70
8
 71
3
 72
8
 73
4
 74
0
 40
0
 40
0
 40
0
 40
0
 40
1
 40
1
 40
1
 40
1
 10
-20.825000
 20
-46.643942
 30
0.0
 10
-20.314488
 20
-46.938686
 30
0.0
 10
-19.685512
 20
-46.938686
 30
0.0
 10
-19.175000
 20
-46.643942
 30
0.0
  0
SPLINE
  5
127
100
AcDbEntity
  8
0
 62
7
100
AcDbSpline
 70
8
 71
3
 72
8
 73
4
 74
0
 40
0
 40
0
 40
0
 40
0
 40
1
 40
1
 40
1
 40
1
 10
-19.175000
 20
-46.643942
 30
0.0
 10
-18.664488
 20
-46.349198
 30
0.0
 10
-18.350000
 20
-45.804488
 30
0.0
 10
-18.350000
 20
-45.215000
 30
0.0
  0
SPLINE
  5
128
100
AcDbEntity
  8
0
 62
7
100
AcDbSpline
 70
8
 71
3
 72
8
 73
4
 74
0
 40
0
 40
0
 40
0
 40
0
 40
1
 40
1
 40
1
 40
1
 10
-52.990000
 20
-20.000000
 30
0.0
 10
-52.990000
 20
-19.410512
 30
0.0
 10
-53.304488
 20
-18.865802
 30
0.0
 10
-53.815000
 20
-18.571058
 30
0.0
  0
SPLINE
  5
129
100
AcDbEntity
  8
0
 62
7
100
AcDbSpline
 70
8
 71
3
 72
8
 73
4
 74
0
 40
0
 40
0
 40
0
 40
0
 40
1
 40
1
 40
1
 40
1
 10
-53.815000
 20
-18.571058
 30
0.0
 10
-54.325512
 20
-18.276314
 30
0.0
 10
-54.954488
 20
-18.276314
 30
0.0
 10
-55.465000
 20
-18.571058
 30
0.0
  0
SPLINE
  5
12a
100
AcDbEntity
  8
0
 62
7
100
AcDbSpline
 70
8
 71
3
 72
8
 73
4
 74
0
 40
0
 40
0
 40
0
 40
0
 40
1
 40
1
 40
1
 40
1
 10
-55.465000
 20
-18.571058
 30
0.0
 10
-55.975512
 20
-18.865802
 30
0.0
 10
-56.290000
 20
-19.410512
 30
0.0
 10
-56.290000
 20
-20.000000
 30
0.0
  0
SPLINE
  5
12b
100
AcDbEntity
  8
0
 62
7
100
AcDbSpline
 70
8
 71
3
 72
8
 73
4
 74
0
 40
0
 40
0
 40
0
 40
0
 40
1
 40
1
 40
1
 40
1
 10
-56.290000
 20
-20.000000
 30
0.0
 10
-56.290000
 20
-20.589488
 30
0.0
 10
-55.975512
 20
-21.134198
 30
0.0
 10
-55.465000
 20
-21.428942
 30
0.0
  0
SPLINE
  5
12c
100
AcDbEntity
  8
0
 62
7
100
AcDbSpline
 70
8
 71
3
 72
8
 73
4
 74
0
 40
0
 40
0
 40
0
 40
0
 40
1
 40
1
 40
1
 40
1
 10
-55.465000
 20
-21.428942
 30
0.0
 10
-54.954488
 20
-21.723686
 30
0.0
 10
-54.325512
 20
-21.723686
 30
0.0
 10
-53.815000
 20
-21.428942
 30
0.0
  0
SPLINE
  5
12d
100
AcDbEntity
  8
0
 62
7
100
AcDbSpline
 70
8
 71
3
 72
8
 73
4
 74
0
 40
0
 40
0
 40
0
 40
0
 40
1
 40
1
 40
1
 40
1
 10
-53.815000
 20
-21.428942
 30
0.0
 10
-53.304488
 20
-21.134198
 30
0.0
 10
-52.990000
 20
-20.589488
 30
0.0
 10
-52.990000
 20
-20.000000
 30
0.0
  0
SPLINE
  5
12e
100
AcDbEntity
  8
0
 62
7
100
AcDbSpline
 70
8
 71
3
 72
8
 73
4
 74
0
 40
0
 40
0
 40
0
 40
0
 40
1
 40
1
 40
1
 40
1
 10
-52.990000
 20
20.000000
 30
0.0
 10
-52.990000
 20
20.589488
 30
0.0
 10
-53.304488
 20
21.134198
 30
0.0
 10
-53.815000
 20
21.428942
 30
0.0
  0
SPLINE
  5
12f
100
AcDbEntity
  8
0
 62
7
100
AcDbSpline
 70
8
 71
3
 72
8
 73
4
 74
0
 40
0
 40
0
 40
0
 40
0
 40
1
 40
1
 40
1
 40
1
 10
-53.815000
 20
21.428942
 30
0.0
 10
-54.325512
 20
21.723686
 30
0.0
 10
-54.954488
 20
21.723686
 30
0.0
 10
-55.465000
 20
21.428942
 30
0.0
  0
SPLINE
  5
130
100
AcDbEntity
  8
0
 62
7
100
AcDbSpline
 70
8
 71
3
 72
8
 73
4
 74
0
 40
0
 40
0
 40
0
 40
0
 40
1
 40
1
 40
1
 40
1
 10
-55.465000
 20
21.428942
 30
0.0
 10
-55.975512
 20
21.134198
 30
0.0
 10
-56.290000
 20
20.589488
 30
0.0
 10
-56.290000
 20
20.000000
 30
0.0
  0
SPLINE
  5
131
100
AcDbEntity
  8
0
 62
7
100
AcDbSpline
 70
8
 71
3
 72
8
 73
4
 74
0
 40
0
 40
0
 40
0
 40
0
 40
1
 40
1
 40
1
 40
1
 10
-56.290000
 20
20.000000
 30
0.0
 10
-56.290000
 20
19.410512
 30
0.0
 10
-55.975512
 20
18.865802
 30
0.0
 10
-55.465000
 20
18.571058
 30
0.0
  0
SPLINE
  5
132
100
AcDbEntity
  8
0
 62
7
100
AcDbSpline
 70
8
 71
3
 72
8
 73
4
 74
0
 40
0
 40
0
 40
0
 40
0
 40
1
 40
1
 40
1
 40
1
 10
-55.465000
 20
18.571058
 30
0.0
 10
-54.954488
 20
18.276314
 30
0.0
 10
-54.325512
 20
18.276314
 30
0.0
 10
-53.815000
 20
18.571058
 30
0.0
  0
SPLINE
  5
133
100
AcDbEntity
  8
0
 62
7
100
AcDbSpline
 70
8
 71
3
 72
8
 73
4
 74
0
 40
0
 40
0
 40
0
 40
0
 40
1
 40
1
 40
1
 40
1
 10
-53.815000
 20
18.571058
 30
0.0
 10
-53.304488
 20
18.865802
 30
0.0
 10
-52.990000
 20
19.410512
 30
0.0
 10
-52.990000
 20
20.000000
 30
0.0
  0
SPLINE
  5
134
100
AcDbEntity
  8
0
 62
7
100
AcDbSpline
 70
8
 71
3
 72
8
 73
4
 74
0
 40
0
 40
0
 40
0
 40
0
 40
1
 40
1
 40
1
 40
1
 10
21.650000
 20
45.215000
 30
0.0
 10
21.650000
 20
45.804488
 30
0.0
 10
21.335512
 20
46.349198
 30
0.0
 10
20.825000
 20
46.643942
 30
0.0
  0
SPLINE
  5
135
100
AcDbEntity
  8
0
 62
7
100
AcDbSpline
 70
8
 71
3
 72
8
 73
4
 74
0
 40
0
 40
0
 40
0
 40
0
 40
1
 40
1
 40
1
 40
1
 10
20.825000
 20
46.643942
 30
0.0
 10
20.314488
 20
46.938686
 30
0.0
 10
19.685512
 20
46.938686
 30
0.0
 10
19.175000
 20
46.643942
 30
0.0
  0
SPLINE
  5
136
100
AcDbEntity
  8
0
 62
7
100
AcDbSpline
 70
8
 71
3
 72
8
 73
4
 74
0
 40
0
 40
0
 40
0
 40
0
 40
1
 40
1
 40
1
 40
1
 10
19.175000
 20
46.643942
 30
0.0
 10
18.664488
 20
46.349198
 30
0.0
 10
18.350000
 20
45.804488
 30
0.0
 10
18.350000
 20
45.215000
 30
0.0
  0
SPLINE
  5
137
100
AcDbEntity
  8
0
 62
7
100
AcDbSpline
 70
8
 71
3
 72
8
 73
4
 74
0
 40
0
 40
0
 40
0
 40
0
 40
1
 40
1
 40
1
 40
1
 10
18.350000
 20
45.215000
 30
0.0
 10
18.350000
 20
44.625512
 30
0.0
 10
18.664488
 20
44.080802
 30
0.0
 10
19.175000
 20
43.786058
 30
0.0
  0
SPLINE
  5
138
100
AcDbEntity
  8
0
 62
7
100
AcDbSpline
 70
8
 71
3
 72
8
 73
4
 74
0
 40
0
 40
0
 40
0
 40
0
 40
1
 40
1
 40
1
 40
1
 10
19.175000
 20
43.786058
 30
0.0
 10
19.685512
 20
43.491314
 30
0.0
 10
20.314488
 20
43.491314
 30
0.0
 10
20.825000
 20
43.786058
 30
0.0
  0
SPLINE
  5
139
100
AcDbEntity
  8
0
 62
7
100
AcDbSpline
 70
8
 71
3
 72
8
 73
4
 74
0
 40
0
 40
0
 40
0
 40
0
 40
1
 40
1
 40
1
 40
1
 10
20.825000
 20
43.786058
 30
0.0
 10
21.335512
 20
44.080802
 30
0.0
 10
21.650000
 20
44.625512
 30
0.0
 10
21.650000
 20
45.215000
 30
0.0
  0
SPLINE
  5
13a
100
AcDbEntity
  8
0
 62
7
100
AcDbSpline
 70
8
 71
3
 72
8
 73
4
 74
0
 40
0
 40
0
 40
0
 40
0
 40
1
 40
1
 40
1
 40
1
 10
-18.350000
 20
45.215000
 30
0.0
 10
-18.350000
 20
45.804488
 30
0.0
 10
-18.664488
 20
46.349198
 30
0.0
 10
-19.175000
 20
46.643942
 30
0.0
  0
SPLINE
  5
13b
100
AcDbEntity
  8
0
 62
7
100
AcDbSpline
 70
8
 71
3
 72
8
 73
4
 74
0
 40
0
 40
0
 40
0
 40
0
 40
1
 40
1
 40
1
 40
1
 10
-19.175000
 20
46.643942
 30
0.0
 10
-19.685512
 20
46.938686
 30
0.0
 10
-20.314488
 20
46.938686
 30
0.0
 10
-20.825000
 20
46.643942
 30
0.0
  0
SPLINE
  5
13c
100
AcDbEntity
  8
0
 62
7
100
AcDbSpline
 70
8
 71
3
 72
8
 73
4
 74
0
 40
0
 40
0
 40
0
 40
0
 40
1
 40
1
 40
1
 40
1
 10
-20.825000
 20
46.643942
 30
0.0
 10
-21.335512
 20
46.349198
 30
0.0
 10
-21.650000
 20
45.804488
 30
0.0
 10
-21.650000
 20
45.215000
 30
0.0
  0
SPLINE
  5
13d
100
AcDbEntity
  8
0
 62
7
100
AcDbSpline
 70
8
 71
3
 72
8
 73
4
 74
0
 40
0
 40
0
 40
0
 40
0
 40
1
 40
1
 40
1
 40
1
 10
-21.650000
 20
45.215000
 30
0.0
 10
-21.650000
 20
44.625512
 30
0.0
 10
-21.335512
 20
44.080802
 30
0.0
 10
-20.825000
 20
43.786058
 30
0.0
  0
SPLINE
  5
13e
100
AcDbEntity
  8
0
 62
7
100
AcDbSpline
 70
8
 71
3
 72
8
 73
4
 74
0
 40
0
 40
0
 40
0
 40
0
 40
1
 40
1
 40
1
 40
1
 10
-20.825000
 20
43.786058
 30
0.0
 10
-20.314488
 20
43.491314
 30
0.0
 10
-19.685512
 20
43.491314
 30
0.0
 10
-19.175000
 20
43.786058
 30
0.0
  0
SPLINE
  5
13f
100
AcDbEntity
  8
0
 62
7
100
AcDbSpline
 70
8
 71
3
 72
8
 73
4
 74
0
 40
0
 40
0
 40
0
 40
0
 40
1
 40
1
 40
1
 40
1
 10
-19.175000
 20
43.786058
 30
0.0
 10
-18.664488
 20
44.080802
 30
0.0
 10
-18.350000
 20
44.625512
 30
0.0
 10
-18.350000
 20
45.215000
 30
0.0
  0
SPLINE
  5
140
100
AcDbEntity
  8
0
 62
7
100
AcDbSpline
 70
8
 71
3
 72
8
 73
4
 74
0
 40
0
 40
0
 40
0
 40
0
 40
1
 40
1
 40
1
 40
1
 10
57.920000
 20
0.000000
 30
0.0
 10
57.920000
 20
1.196840
 30
0.0
 10
57.281494
 20
2.302765
 30
0.0
 10
56.245000
 20
2.901185
 30
0.0
  0
SPLINE
  5
141
100
AcDbEntity
  8
0
 62
7
100
AcDbSpline
 70
8
 71
3
 72
8
 73
4
 74
0
 40
0
 40
0
 40
0
 40
0
 40
1
 40
1
 40
1
 40
1
 10
56.245000
 20
2.901185
 30
0.0
 10
55.208506
 20
3.499605
 30
0.0
 10
53.931494
 20
3.499605
 30
0.0
 10
52.895000
 20
2.901185
 30
0.0
  0
SPLINE
  5
142
100
AcDbEntity
  8
0
 62
7
100
AcDbSpline
 70
8
 71
3
 72
8
 73
4
 74
0
 40
0
 40
0
 40
0
 40
0
 40
1
 40
1
 40
1
 40
1
 10
52.895000
 20
2.901185
 30
0.0
 10
51.858506
 20
2.302765
 30
0.0
 10
51.220000
 20
1.196840
 30
0.0
 10
51.220000
 20
0.000000
 30
0.0
  0
SPLINE
  5
143
100
AcDbEntity
  8
0
 62
7
100
AcDbSpline
 70
8
 71
3
 72
8
 73
4
 74
0
 40
0
 40
0
 40
0
 40
0
 40
1
 40
1
 40
1
 40
1
 10
51.220000
 20
0.000000
 30
0.0
 10
51.220000
 20
-1.196840
 30
0.0
 10
51.858506
 20
-2.302765
 30
0.0
 10
52.895000
 20
-2.901185
 30
0.0
  0
SPLINE
  5
144
100
AcDbEntity
  8
0
 62
7
100
AcDbSpline
 70
8
 71
3
 72
8
 73
4
 74
0
 40
0
 40
0
 40
0
 40
0
 40
1
 40
1
 40
1
 40
1
 10
52.895000
 20
-2.901185
 30
0.0
 10
53.931494
 20
-3.499605
 30
0.0
 10
55.208506
 20
-3.499605
 30
0.0
 10
56.245000
 20
-2.901185
 30
0.0
  0
SPLINE
  5
145
100
AcDbEntity
  8
0
 62
7
100
AcDbSpline
 70
8
 71
3
 72
8
 73
4
 74
0
 40
0
 40
0
 40
0
 40
0
 40
1
 40
1
 40
1
 40
1
 10
56.245000
 20
-2.901185
 30
0.0
 10
57.281494
 20
-2.302765
 30
0.0
 10
57.920000
 20
-1.196840
 30
0.0
 10
57.920000
 20
0.000000
 30
0.0
  0
SPLINE
  5
146
100
AcDbEntity
  8
0
 62
7
100
AcDbSpline
 70
8
 71
3
 72
8
 73
4
 74
0
 40
0
 40
0
 40
0
 40
0
 40
1
 40
1
 40
1
 40
1
 10
50.950000
 20
-39.610000
 30
0.0
 10
50.950000
 20
-38.413160
 30
0.0
 10
50.311493
 20
-37.307235
 30
0.0
 10
49.275000
 20
-36.708815
 30
0.0
  0
SPLINE
  5
147
100
AcDbEntity
  8
0
 62
7
100
AcDbSpline
 70
8
 71
3
 72
8
 73
4
 74
0
 40
0
 40
0
 40
0
 40
0
 40
1
 40
1
 40
1
 40
1
 10
49.275000
 20
-36.708815
 30
0.0
 10
48.238506
 20
-36.110395
 30
0.0
 10
46.961494
 20
-36.110395
 30
0.0
 10
45.925000
 20
-36.708815
 30
0.0
  0
SPLINE
  5
148
100
AcDbEntity
  8
0
 62
7
100
AcDbSpline
 70
8
 71
3
 72
8
 73
4
 74
0
 40
0
 40
0
 40
0
 40
0
 40
1
 40
1
 40
1
 40
1
 10
45.925000
 20
-36.708815
 30
0.0
 10
44.888506
 20
-37.307235
 30
0.0
 10
44.250000
 20
-38.413160
 30
0.0
 10
44.250000
 20
-39.610000
 30
0.0
  0
SPLINE
  5
149
100
AcDbEntity
  8
0
 62
7
100
AcDbSpline
 70
8
 71
3
 72
8
 73
4
 74
0
 40
0
 40
0
 40
0
 40
0
 40
1
 40
1
 40
1
 40
1
 10
44.250000
 20
-39.610000
 30
0.0
 10
44.250000
 20
-40.806840
 30
0.0
 10
44.888506
 20
-41.912765
 30
0.0
 10
45.925000
 20
-42.511185
 30
0.0
  0
SPLINE
  5
14a
100
AcDbEntity
  8
0
 62
7
100
AcDbSpline
 70
8
 71
3
 72
8
 73
4
 74
0
 40
0
 40
0
 40
0
 40
0
 40
1
 40
1
 40
1
 40
1
 10
45.925000
 20
-42.511185
 30
0.0
 10
46.961494
 20
-43.109605
 30
0.0
 10
48.238506
 20
-43.109605
 30
0.0
 10
49.275000
 20
-42.511185
 30
0.0
  0
SPLINE
  5
14b
100
AcDbEntity
  8
0
 62
7
100
AcDbSpline
 70
8
 71
3
 72
8
 73
4
 74
0
 40
0
 40
0
 40
0
 40
0
 40
1
 40
1
 40
1
 40
1
 10
49.275000
 20
-42.511185
 30
0.0
 10
50.311494
 20
-41.912765
 30
0.0
 10
50.950000
 20
-40.806840
 30
0.0
 10
50.950000
 20
-39.610000
 30
0.0
  0
SPLINE
  5
14c
100
AcDbEntity
  8
0
 62
7
100
AcDbSpline
 70
8
 71
3
 72
8
 73
4
 74
0
 40
0
 40
0
 40
0
 40
0
 40
1
 40
1
 40
1
 40
1
 10
50.950000
 20
39.610000
 30
0.0
 10
50.950000
 20
40.806840
 30
0.0
 10
50.311493
 20
41.912765
 30
0.0
 10
49.275000
 20
42.511185
 30
0.0
  0
SPLINE
  5
14d
100
AcDbEntity
  8
0
 62
7
100
AcDbSpline
 70
8
 71
3
 72
8
 73
4
 74
0
 40
0
 40
0
 40
0
 40
0
 40
1
 40
1
 40
1
 40
1
 10
49.275000
 20
42.511185
 30
0.0
 10
48.238506
 20
43.109605
 30
0.0
 10
46.961494
 20
43.109605
 30
0.0
 10
45.925000
 20
42.511185
 30
0.0
  0
SPLINE
  5
14e
100
AcDbEntity
  8
0
 62
7
100
AcDbSpline
 70
8
 71
3
 72
8
 73
4
 74
0
 40
0
 40
0
 40
0
 40
0
 40
1
 40
1
 40
1
 40
1
 10
45.925000
 20
42.511185
 30
0.0
 10
44.888506
 20
41.912765
 30
0.0
 10
44.250000
 20
40.806840
 30
0.0
 10
44.250000
 20
39.610000
 30
0.0
  0
SPLINE
  5
14f
100
AcDbEntity
  8
0
 62
7
100
AcDbSpline
 70
8
 71
3
 72
8
 73
4
 74
0
 40
0
 40
0
 40
0
 40
0
 40
1
 40
1
 40
1
 40
1
 10
44.250000
 20
39.610000
 30
0.0
 10
44.250000
 20
38.413160
 30
0.0
 10
44.888506
 20
37.307235
 30
0.0
 10
45.925000
 20
36.708815
 30
0.0
  0
SPLINE
  5
150
100
AcDbEntity
  8
0
 62
7
100
AcDbSpline
 70
8
 71
3
 72
8
 73
4
 74
0
 40
0
 40
0
 40
0
 40
0
 40
1
 40
1
 40
1
 40
1
 10
45.925000
 20
36.708815
 30
0.0
 10
46.961494
 20
36.110395
 30
0.0
 10
48.238506
 20
36.110395
 30
0.0
 10
49.275000
 20
36.708815
 30
0.0
  0
SPLINE
  5
151
100
AcDbEntity
  8
0
 62
7
100
AcDbSpline
 70
8
 71
3
 72
8
 73
4
 74
0
 40
0
 40
0
 40
0
 40
0
 40
1
 40
1
 40
1
 40
1
 10
49.275000
 20
36.708815
 30
0.0
 10
50.311494
 20
37.307235
 30
0.0
 10
50.950000
 20
38.413160
 30
0.0
 10
50.950000
 20
39.610000
 30
0.0
  0
SPLINE
  5
152
100
AcDbEntity
  8
0
 62
7
100
AcDbSpline
 70
8
 71
3
 72
8
 73
4
 74
0
 40
0
 40
0
 40
0
 40
0
 40
1
 40
1
 40
1
 40
1
 10
-44.250000
 20
39.610000
 30
0.0
 10
-44.250000
 20
40.806840
 30
0.0
 10
-44.888506
 20
41.912765
 30
0.0
 10
-45.925000
 20
42.511185
 30
0.0
  0
SPLINE
  5
153
100
AcDbEntity
  8
0
 62
7
100
AcDbSpline
 70
8
 71
3
 72
8
 73
4
 74
0
 40
0
 40
0
 40
0
 40
0
 40
1
 40
1
 40
1
 40
1
 10
-45.925000
 20
42.511185
 30
0.0
 10
-46.961494
 20
43.109605
 30
0.0
 10
-48.238506
 20
43.109605
 30
0.0
 10
-49.275000
 20
42.511185
 30
0.0
  0
SPLINE
  5
154
100
AcDbEntity
  8
0
 62
7
100
AcDbSpline
 70
8
 71
3
 72
8
 73
4
 74
0
 40
0
 40
0
 40
0
 40
0
 40
1
 40
1
 40
1
 40
1
 10
-49.275000
 20
42.511185
 30
0.0
 10
-50.311493
 20
41.912765
 30
0.0
 10
-50.950000
 20
40.806840
 30
0.0
 10
-50.950000
 20
39.610000
 30
0.0
  0
SPLINE
  5
155
100
AcDbEntity
  8
0
 62
7
100
AcDbSpline
 70
8
 71
3
 72
8
 73
4
 74
0
 40
0
 40
0
 40
0
 40
0
 40
1
 40
1
 40
1
 40
1
 10
-50.950000
 20
39.610000
 30
0.0
 10
-50.950000
 20
38.413160
 30
0.0
 10
-50.311493
 20
37.307235
 30
0.0
 10
-49.275000
 20
36.708815
 30
0.0
  0
SPLINE
  5
156
100
AcDbEntity
  8
0
 62
7
100
AcDbSpline
 70
8
 71
3
 72
8
 73
4
 74
0
 40
0
 40
0
 40
0
 40
0
 40
1
 40
1
 40
1
 40
1
 10
-49.275000
 20
36.708815
 30
0.0
 10
-48.238506
 20
36.110395
 30
0.0
 10
-46.961493
 20
36.110395
 30
0.0
 10
-45.925000
 20
36.708815
 30
0.0
  0
SPLINE
  5
157
100
AcDbEntity
  8
0
 62
7
100
AcDbSpline
 70
8
 71
3
 72
8
 73
4
 74
0
 40
0
 40
0
 40
0
 40
0
 40
1
 40
1
 40
1
 40
1
 10
-45.925000
 20
36.708815
 30
0.0
 10
-44.888506
 20
37.307235
 30
0.0
 10
-44.250000
 20
38.413160
 30
0.0
 10
-44.250000
 20
39.610000
 30
0.0
  0
SPLINE
  5
158
100
AcDbEntity
  8
0
 62
7
100
AcDbSpline
 70
8
 71
3
 72
8
 73
4
 74
0
 40
0
 40
0
 40
0
 40
0
 40
1
 40
1
 40
1
 40
1
 10
3.350000
 20
44.570000
 30
0.0
 10
3.350000
 20
45.766840
 30
0.0
 10
2.711494
 20
46.872765
 30
0.0
 10
1.675000
 20
47.471185
 30
0.0
  0
SPLINE
  5
159
100
AcDbEntity
  8
0
 62
7
100
AcDbSpline
 70
8
 71
3
 72
8
 73
4
 74
0
 40
0
 40
0
 40
0
 40
0
 40
1
 40
1
 40
1
 40
1
 10
1.675000
 20
47.471185
 30
0.0
 10
0.638506
 20
48.069605
 30
0.0
 10
-0.638506
 20
48.069605
 30
0.0
 10
-1.675000
 20
47.471185
 30
0.0
  0
SPLINE
  5
15a
100
AcDbEntity
  8
0
 62
7
100
AcDbSpline
 70
8
 71
3
 72
8
 73
4
 74
0
 40
0
 40
0
 40
0
 40
0
 40
1
 40
1
 40
1
 40
1
 10
-1.675000
 20
47.471185
 30
0.0
 10
-2.711494
 20
46.872765
 30
0.0
 10
-3.350000
 20
45.766840
 30
0.0
 10
-3.350000
 20
44.570000
 30
0.0
  0
SPLINE
  5
15b
100
AcDbEntity
  8
0
 62
7
100
AcDbSpline
 70
8
 71
3
 72
8
 73
4
 74
0
 40
0
 40
0
 40
0
 40
0
 40
1
 40
1
 40
1
 40
1
 10
-3.350000
 20
44.570000
 30
0.0
 10
-3.350000
 20
43.373160
 30
0.0
 10
-2.711494
 20
42.267235
 30
0.0
 10
-1.675000
 20
41.668815
 30
0.0
  0
SPLINE
  5
15c
100
AcDbEntity
  8
0
 62
7
100
AcDbSpline
 70
8
 71
3
 72
8
 73
4
 74
0
 40
0
 40
0
 40
0
 40
0
 40
1
 40
1
 40
1
 40
1
 10
-1.675000
 20
41.668815
 30
0.0
 10
-0.638506
 20
41.070395
 30
0.0
 10
0.638506
 20
41.070395
 30
0.0
 10
1.675000
 20
41.668815
 30
0.0
  0
SPLINE
  5
15d
100
AcDbEntity
  8
0
 62
7
100
AcDbSpline
 70
8
 71
3
 72
8
 73
4
 74
0
 40
0
 40
0
 40
0
 40
0
 40
1
 40
1
 40
1
 40
1
 10
1.675000
 20
41.668815
 30
0.0
 10
2.711494
 20
42.267235
 30
0.0
 10
3.350000
 20
43.373160
 30
0.0
 10
3.350000
 20
44.570000
 30
0.0
  0
SPLINE
  5
15e
100
AcDbEntity
  8
0
 62
7
100
AcDbSpline
 70
8
 71
3
 72
8
 73
4
 74
0
 40
0
 40
0
 40
0
 40
0
 40
1
 40
1
 40
1
 40
1
 10
3.350000
 20
-44.570000
 30
0.0
 10
3.350000
 20
-43.373160
 30
0.0
 10
2.711494
 20
-42.267235
 30
0.0
 10
1.675000
 20
-41.668815
 30
0.0
  0
SPLINE
  5
15f
100
AcDbEntity
  8
0
 62
7
100
AcDbSpline
 70
8
 71
3
 72
8
 73
4
 74
0
 40
0
 40
0
 40
0
 40
0
 40
1
 40
1
 40
1
 40
1
 10
1.675000
 20
-41.668815
 30
0.0
 10
0.638506
 20
-41.070395
 30
0.0
 10
-0.638506
 20
-41.070395
 30
0.0
 10
-1.675000
 20
-41.668815
 30
0.0
  0
SPLINE
  5
160
100
AcDbEntity
  8
0
 62
7
100
AcDbSpline
 70
8
 71
3
 72
8
 73
4
 74
0
 40
0
 40
0
 40
0
 40
0
 40
1
 40
1
 40
1
 40
1
 10
-1.675000
 20
-41.668815
 30
0.0
 10
-2.711494
 20
-42.267235
 30
0.0
 10
-3.350000
 20
-43.373160
 30
0.0
 10
-3.350000
 20
-44.570000
 30
0.0
  0
SPLINE
  5
161
100
AcDbEntity
  8
0
 62
7
100
AcDbSpline
 70
8
 71
3
 72
8
 73
4
 74
0
 40
0
 40
0
 40
0
 40
0
 40
1
 40
1
 40
1
 40
1
 10
-3.350000
 20
-44.570000
 30
0.0
 10
-3.350000
 20
-45.766840
 30
0.0
 10
-2.711494
 20
-46.872765
 30
0.0
 10
-1.675000
 20
-47.471185
 30
0.0
  0
SPLINE
  5
162
100
AcDbEntity
  8
0
 62
7
100
AcDbSpline
 70
8
 71
3
 72
8
 73
4
 74
0
 40
0
 40
0
 40
0
 40
0
 40
1
 40
1
 40
1
 40
1
 10
-1.675000
 20
-47.471185
 30
0.0
 10
-0.638506
 20
-48.069605
 30
0.0
 10
0.638506
 20
-48.069605
 30
0.0
 10
1.675000
 20
-47.471185
 30
0.0
  0
SPLINE
  5
163
100
AcDbEntity
  8
0
 62
7
100
AcDbSpline
 70
8
 71
3
 72
8
 73
4
 74
0
 40
0
 40
0
 40
0
 40
0
 40
1
 40
1
 40
1
 40
1
 10
1.675000
 20
-47.471185
 30
0.0
 10
2.711494
 20
-46.872765
 30
0.0
 10
3.350000
 20
-45.766840
 30
0.0
 10
3.350000
 20
-44.570000
 30
0.0
  0
SPLINE
  5
164
100
AcDbEntity
  8
0
 62
7
100
AcDbSpline
 70
8
 71
3
 72
8
 73
4
 74
0
 40
0
 40
0
 40
0
 40
0
 40
1
 40
1
 40
1
 40
1
 10
-44.250000
 20
-39.610000
 30
0.0
 10
-44.250000
 20
-38.413160
 30
0.0
 10
-44.888506
 20
-37.307235
 30
0.0
 10
-45.925000
 20
-36.708815
 30
0.0
  0
SPLINE
  5
165
100
AcDbEntity
  8
0
 62
7
100
AcDbSpline
 70
8
 71
3
 72
8
 73
4
 74
0
 40
0
 40
0
 40
0
 40
0
 40
1
 40
1
 40
1
 40
1
 10
-45.925000
 20
-36.708815
 30
0.0
 10
-46.961494
 20
-36.110395
 30
0.0
 10
-48.238506
 20
-36.110395
 30
0.0
 10
-49.275000
 20
-36.708815
 30
0.0
  0
SPLINE
  5
166
100
AcDbEntity
  8
0
 62
7
100
AcDbSpline
 70
8
 71
3
 72
8
 73
4
 74
0
 40
0
 40
0
 40
0
 40
0
 40
1
 40
1
 40
1
 40
1
 10
-49.275000
 20
-36.708815
 30
0.0
 10
-50.311493
 20
-37.307235
 30
0.0
 10
-50.950000
 20
-38.413160
 30
0.0
 10
-50.950000
 20
-39.610000
 30
0.0
  0
SPLINE
  5
167
100
AcDbEntity
  8
0
 62
7
100
AcDbSpline
 70
8
 71
3
 72
8
 73
4
 74
0
 40
0
 40
0
 40
0
 40
0
 40
1
 40
1
 40
1
 40
1
 10
-50.950000
 20
-39.610000
 30
0.0
 10
-50.950000
 20
-40.806840
 30
0.0
 10
-50.311493
 20
-41.912765
 30
0.0
 10
-49.275000
 20
-42.511185
 30
0.0
  0
SPLINE
  5
168
100
AcDbEntity
  8
0
 62
7
100
AcDbSpline
 70
8
 71
3
 72
8
 73
4
 74
0
 40
0
 40
0
 40
0
 40
0
 40
1
 40
1
 40
1
 40
1
 10
-49.275000
 20
-42.511185
 30
0.0
 10
-48.238506
 20
-43.109605
 30
0.0
 10
-46.961493
 20
-43.109605
 30
0.0
 10
-45.925000
 20
-42.511185
 30
0.0
  0
SPLINE
  5
169
100
AcDbEntity
  8
0
 62
7
100
AcDbSpline
 70
8
 71
3
 72
8
 73
4
 74
0
 40
0
 40
0
 40
0
 40
0
 40
1
 40
1
 40
1
 40
1
 10
-45.925000
 20
-42.511185
 30
0.0
 10
-44.888506
 20
-41.912765
 30
0.0
 10
-44.250000
 20
-40.806840
 30
0.0
 10
-44.250000
 20
-39.610000
 30
0.0
  0
SPLINE
  5
16a
100
AcDbEntity
  8
0
 62
7
100
AcDbSpline
 70
8
 71
3
 72
8
 73
4
 74
0
 40
0
 40
0
 40
0
 40
0
 40
1
 40
1
 40
1
 40
1
 10
-51.220000
 20
0.000000
 30
0.0
 10
-51.220000
 20
1.196840
 30
0.0
 10
-51.858506
 20
2.302765
 30
0.0
 10
-52.895000
 20
2.901185
 30
0.0
  0
SPLINE
  5
16b
100
AcDbEntity
  8
0
 62
7
100
AcDbSpline
 70
8
 71
3
 72
8
 73
4
 74
0
 40
0
 40
0
 40
0
 40
0
 40
1
 40
1
 40
1
 40
1
 10
-52.895000
 20
2.901185
 30
0.0
 10
-53.931494
 20
3.499605
 30
0.0
 10
-55.208506
 20
3.499605
 30
0.0
 10
-56.245000
 20
2.901185
 30
0.0
  0
SPLINE
  5
16c
100
AcDbEntity
  8
0
 62
7
100
AcDbSpline
 70
8
 71
3
 72
8
 73
4
 74
0
 40
0
 40
0
 40
0
 40
0
 40
1
 40
1
 40
1
 40
1
 10
-56.245000
 20
2.901185
 30
0.0
 10
-57.281494
 20
2.302765
 30
0.0
 10
-57.920000
 20
1.196840
 30
0.0
 10
-57.920000
 20
0.000000
 30
0.0
  0
SPLINE
  5
16d
100
AcDbEntity
  8
0
 62
7
100
AcDbSpline
 70
8
 71
3
 72
8
 73
4
 74
0
 40
0
 40
0
 40
0
 40
0
 40
1
 40
1
 40
1
 40
1
 10
-57.920000
 20
0.000000
 30
0.0
 10
-57.920000
 20
-1.196840
 30
0.0
 10
-57.281494
 20
-2.302765
 30
0.0
 10
-56.245000
 20
-2.901185
 30
0.0
  0
SPLINE
  5
16e
100
AcDbEntity
  8
0
 62
7
100
AcDbSpline
 70
8
 71
3
 72
8
 73
4
 74
0
 40
0
 40
0
 40
0
 40
0
 40
1
 40
1
 40
1
 40
1
 10
-56.245000
 20
-2.901185
 30
0.0
 10
-55.208506
 20
-3.499605
 30
0.0
 10
-53.931494
 20
-3.499605
 30
0.0
 10
-52.895000
 20
-2.901185
 30
0.0
  0
SPLINE
  5
16f
100
AcDbEntity
  8
0
 62
7
100
AcDbSpline
 70
8
 71
3
 72
8
 73
4
 74
0
 40
0
 40
0
 40
0
 40
0
 40
1
 40
1
 40
1
 40
1
 10
-52.895000
 20
-2.901185
 30
0.0
 10
-51.858506
 20
-2.302765
 30
0.0
 10
-51.220000
 20
-1.196840
 30
0.0
 10
-51.220000
 20
0.000000
 30
0.0
  0
LWPOLYLINE
  5
170
100
AcDbEntity
  8
0
 62
7
100
AcDbPolyline
 90
2
 70
0
 10
62.000000
 20
-35.500000
 30
0.0
 10
62.000000
 20
-28.646110
 30
0.0
  0
ENDSEC
  0
SECTION
  2
OBJECTS
  0
DICTIONARY
  5
C
330
0
100
AcDbDictionary
  3
ACAD_GROUP
350
D
  3
ACAD_MLINESTYLE
350
17
  0
DICTIONARY
  5
D
330
C
100
AcDbDictionary
  0
DICTIONARY
  5
1A
330
C
100
AcDbDictionary
  0
DICTIONARY
  5
17
330
C
100
AcDbDictionary
  3
STANDARD
350
18
  0
DICTIONARY
  5
19
330
C
100
AcDbDictionary
  0
ENDSEC
  0
EOF
