  0
SECTION
  2
HEADER
  9
$ACADVER
  1
AC1014
  9
$HANDSEED
  5
FFFF
  9
$MEASUREMENT
 70
     1
  0
ENDSEC
  0
SECTION
  2
TABLES
  0
TABLE
  2
VPORT
  5
8
330
0
100
AcDbSymbolTable
 70
     4
  0
VPORT
  5
2E
330
8
100
AcDbSymbolTableRecord
100
AcDbViewportTableRecord
  2
*ACTIVE
 70
     0
 10
0.0
 20
0.0
 11
1.0
 21
1.0
 12
210.0
 22
148.5
 13
0.0
 23
0.0
 14
10.0
 24
10.0
 15
10.0
 25
10.0
 16
0.0
 26
0.0
 36
1.0
 17
0.0
 27
0.0
 37
0.0
 40
341.0
 41
1.24
 42
50.0
 43
0.0
 44
0.0
 50
0.0
 51
0.0
 71
     0
 72
   100
 73
     1
 74
     3
 75
     0
 76
     0
 77
     0
 78
     0
  0
ENDTAB
  0
TABLE
  2
LTYPE
  5
5
330
0
100
AcDbSymbolTable
 70
     1
  0
LTYPE
  5
14
330
5
100
AcDbSymbolTableRecord
100
AcDbLinetypeTableRecord
  2
BYBLOCK
 70
     0
  3

 72
    65
 73
     0
 40
0.0
  0
LTYPE
  5
15
330
5
100
AcDbSymbolTableRecord
100
AcDbLinetypeTableRecord
  2
BYLAYER
 70
     0
  3

 72
    65
 73
     0
 40
0.0
  0
LTYPE
  5
16
330
5
100
AcDbSymbolTableRecord
100
AcDbLinetypeTableRecord
  2
CONTINUOUS
 70
     0
  3
Solid line
 72
    65
 73
     0
 40
0.0
  0
ENDTAB
  0
TABLE
  2
LAYER
  5
2
100
AcDbSymbolTable
 70
1
  0
LAYER
  5
50
100
AcDbSymbolTableRecord
100
AcDbLayerTableRecord
  2
0
 70
0
  6
CONTINUOUS
  0
ENDTAB
  0
TABLE
  2
STYLE
  5
3
330
0
100
AcDbSymbolTable
 70
     1
  0
STYLE
  5
11
330
3
100
AcDbSymbolTableRecord
100
AcDbTextStyleTableRecord
  2
STANDARD
 70
     0
 40
0.0
 41
1.0
 50
0.0
 71
     0
 42
2.5
  3
txt
  4

  0
ENDTAB
  0
TABLE
  2
VIEW
  5
6
330
0
100
AcDbSymbolTable
 70
     0
  0
ENDTAB
  0
TABLE
  2
UCS
  5
7
330
0
100
AcDbSymbolTable
 70
     0
  0
ENDTAB
  0
TABLE
  2
APPID
  5
9
330
0
100
AcDbSymbolTable
 70
     2
  0
APPID
  5
12
330
9
100
AcDbSymbolTableRecord
100
AcDbRegAppTableRecord
  2
ACAD
 70
     0
  0
ENDTAB
  0
TABLE
  2
DIMSTYLE
  5
A
330
0
100
AcDbSymbolTable
 70
     1
  0
DIMSTYLE
105
27
330
A
100
AcDbSymbolTableRecord
100
AcDbDimStyleTableRecord
  2
ISO-25
 70
     0
  3

  4

  5

  6

  7

 40
1.0
 41
2.5
 42
0.625
 43
3.75
 44
1.25
 45
0.0
 46
0.0
 47
0.0
 48
0.0
140
2.5
141
2.5
142
0.0
143
0.03937007874016
144
1.0
145
0.0
146
1.0
147
0.625
 71
     0
 72
     0
 73
     0
 74
     0
 75
     0
 76
     0
 77
     1
 78
     8
170
     0
171
     3
172
     1
173
     0
174
     0
175
     0
176
     0
177
     0
178
     0
270
     2
271
     2
272
     2
273
     2
274
     3
340
11
275
     0
280
     0
281
     0
282
     0
283
     0
284
     8
285
     0
286
     0
287
     3
288
     0
  0
ENDTAB
  0
TABLE
  2
BLOCK_RECORD
  5
1
330
0
100
AcDbSymbolTable
 70
     1
  0
BLOCK_RECORD
  5
1F
330
1
100
AcDbSymbolTableRecord
100
AcDbBlockTableRecord
  2
*MODEL_SPACE
  0
BLOCK_RECORD
  5
1B
330
1
100
AcDbSymbolTableRecord
100
AcDbBlockTableRecord
  2
*PAPER_SPACE
  0
ENDTAB
  0
ENDSEC
  0
SECTION
  2
BLOCKS
  0
BLOCK
  5
20
330
1F
100
AcDbEntity
  8
0
100
AcDbBlockBegin
  2
*MODEL_SPACE
 70
     0
 10
0.0
 20
0.0
 30
0.0
  3
*MODEL_SPACE
  1

  0
ENDBLK
  5
21
330
1F
100
AcDbEntity
  8
0
100
AcDbBlockEnd
  0
BLOCK
  5
1C
330
1B
100
AcDbEntity
 67
     1
  8
0
100
AcDbBlockBegin
  2
*PAPER_SPACE
  1

  0
ENDBLK
  5
1D
330
1B
100
AcDbEntity
 67
     1
  8
0
100
AcDbBlockEnd
  0
ENDSEC
  0
SECTION
  2
ENTITIES
  0
LINE
  5
100
100
AcDbEntity
  8
0
 62
7
100
AcDbLine
 10
74.000000
 20
0.500000
 30
0.0
 11
73.502499
 21
0.500000
 31
0.0
  0
LINE
  5
101
100
AcDbEntity
  8
0
 62
7
100
AcDbLine
 10
76.000000
 20
2.500000
 30
0.0
 11
76.000000
 21
9.000000
 31
0.0
  0
SPLINE
  5
102
100
AcDbEntity
  8
0
 62
7
100
AcDbSpline
 70
0
 71
3
 72
13
 73
9
 74
7
 40
0.000000
 40
0.000000
 40
0.000000
 40
0.000000
 40
0.523550
 40
1.042767
 40
1.566317
 40
2.089867
 40
2.609084
 40
3.132634
 40
3.132634
 40
3.132634
 40
3.132634
 10
74.000000
 20
0.500000
 30
0.0
 10
74.175026
 20
0.513333
 30
0.0
 10
74.523631
 20
0.539887
 30
0.0
 10
75.011313
 20
0.749737
 30
0.0
 10
75.430996
 20
1.069004
 30
0.0
 10
75.750263
 20
1.488687
 30
0.0
 10
75.960113
 20
1.976369
 30
0.0
 10
75.986668
 20
2.324974
 30
0.0
 10
76.000000
 20
2.500000
 30
0.0
 11
74.000000
 21
0.500000
 31
0.0
 11
74.519046
 21
0.568521
 31
0.0
 11
74.998741
 21
0.767217
 31
0.0
 11
75.414214
 21
1.085786
 31
0.0
 11
75.732783
 21
1.501259
 31
0.0
 11
75.931479
 21
1.980954
 31
0.0
 11
76.000000
 21
2.500000
 31
0.0
  0
LINE
  5
103
100
AcDbEntity
  8
0
 62
7
100
AcDbLine
 10
69.000000
 20
16.000000
 30
0.0
 11
67.000000
 21
16.000000
 31
0.0
  0
SPLINE
  5
104
100
AcDbEntity
  8
0
 62
7
100
AcDbSpline
 70
0
 71
3
 72
13
 73
9
 74
7
 40
0.000000
 40
0.000000
 40
0.000000
 40
0.000000
 40
1.832424
 40
3.649684
 40
5.482109
 40
7.314533
 40
9.131793
 40
10.964217
 40
10.964217
 40
10.964217
 40
10.964217
 10
76.000000
 20
9.000000
 30
0.0
 10
75.953336
 20
9.612593
 30
0.0
 10
75.860395
 20
10.832709
 30
0.0
 10
75.125919
 20
12.539597
 30
0.0
 10
74.008485
 20
14.008485
 30
0.0
 10
72.539597
 20
15.125919
 30
0.0
 10
70.832709
 20
15.860395
 30
0.0
 10
69.612593
 20
15.953336
 30
0.0
 10
69.000000
 20
16.000000
 30
0.0
 11
76.000000
 21
9.000000
 31
0.0
 11
75.760176
 21
10.816663
 31
0.0
 11
75.064741
 21
12.495592
 31
0.0
 11
73.949748
 21
13.949748
 31
0.0
 11
72.495592
 21
15.064741
 31
0.0
 11
70.816663
 21
15.760176
 31
0.0
 11
69.000000
 21
16.000000
 31
0.0
  0
LINE
  5
105
100
AcDbEntity
  8
0
 62
7
100
AcDbLine
 10
62.000000
 20
21.000000
 30
0.0
 11
62.000000
 21
35.500000
 31
0.0
  0
SPLINE
  5
106
100
AcDbEntity
  8
0
 62
7
100
AcDbSpline
 70
0
 71
3
 72
13
 73
9
 74
7
 40
0.000000
 40
0.000000
 40
0.000000
 40
0.000000
 40
1.308874
 40
2.606917
 40
3.915792
 40
5.224666
 40
6.522709
 40
7.831584
 40
7.831584
 40
7.831584
 40
7.831584
 10
62.000000
 20
21.000000
 30
0.0
 10
62.033331
 20
20.562434
 30
0.0
 10
62.099718
 20
19.690922
 30
0.0
 10
62.624344
 20
18.471717
 30
0.0
 10
63.422510
 20
17.422510
 30
0.0
 10
64.471717
 20
16.624344
 30
0.0
 10
65.690922
 20
16.099718
 30
0.0
 10
66.562434
 20
16.033331
 30
0.0
 10
67.000000
 20
16.000000
 30
0.0
 11
62.000000
 21
21.000000
 31
0.0
 11
62.171303
 21
19.702384
 31
0.0
 11
62.668042
 21
18.503148
 31
0.0
 11
63.464466
 21
17.464466
 31
0.0
 11
64.503149
 21
16.668042
 31
0.0
 11
65.702384
 21
16.171303
 31
0.0
 11
67.000000
 21
16.000000
 31
0.0
  0
LINE
  5
107
100
AcDbEntity
  8
0
 62
7
100
AcDbLine
 10
44.500000
 20
53.000000
 30
0.0
 11
-44.500000
 21
53.000000
 31
0.0
  0
SPLINE
  5
108
100
AcDbEntity
  8
0
 62
7
100
AcDbSpline
 70
0
 71
3
 72
10
 73
6
 74
4
 40
0.000000
 40
0.000000
 40
0.000000
 40
0.000000
 40
9.150035
 40
18.028682
 40
27.178717
 40
27.178717
 40
27.178717
 40
27.178717
 10
62.000000
 20
35.500000
 30
0.0
 10
61.518659
 20
38.566452
 30
0.0
 10
60.570255
 20
44.608406
 30
0.0
 10
53.608406
 20
51.570255
 30
0.0
 10
47.566452
 20
52.518660
 30
0.0
 10
44.500000
 20
53.000000
 30
0.0
 11
62.000000
 21
35.500000
 31
0.0
 11
59.610737
 21
44.332585
 31
0.0
 11
53.332585
 21
50.610737
 31
0.0
 11
44.500000
 21
53.000000
 31
0.0
  0
LINE
  5
109
100
AcDbEntity
  8
0
 62
7
100
AcDbLine
 10
-62.000000
 20
35.500000
 30
0.0
 11
-62.000000
 21
21.000000
 31
0.0
  0
SPLINE
  5
10a
100
AcDbEntity
  8
0
 62
7
100
AcDbSpline
 70
0
 71
3
 72
10
 73
6
 74
4
 40
0.000000
 40
0.000000
 40
0.000000
 40
0.000000
 40
9.150035
 40
18.028682
 40
27.178717
 40
27.178717
 40
27.178717
 40
27.178717
 10
-44.500000
 20
53.000000
 30
0.0
 10
-47.566452
 20
52.518660
 30
0.0
 10
-53.608406
 20
51.570255
 30
0.0
 10
-60.570255
 20
44.608406
 30
0.0
 10
-61.518659
 20
38.566452
 30
0.0
 10
-62.000000
 20
35.500000
 30
0.0
 11
-44.500000
 21
53.000000
 31
0.0
 11
-53.332585
 21
50.610737
 31
0.0
 11
-59.610737
 21
44.332585
 31
0.0
 11
-62.000000
 21
35.500000
 31
0.0
  0
LINE
  5
10b
100
AcDbEntity
  8
0
 62
7
100
AcDbLine
 10
-67.000000
 20
16.000000
 30
0.0
 11
-69.000000
 21
16.000000
 31
0.0
  0
SPLINE
  5
10c
100
AcDbEntity
  8
0
 62
7
100
AcDbSpline
 70
0
 71
3
 72
13
 73
9
 74
7
 40
0.000000
 40
0.000000
 40
0.000000
 40
0.000000
 40
1.308874
 40
2.606917
 40
3.915792
 40
5.224666
 40
6.522709
 40
7.831584
 40
7.831584
 40
7.831584
 40
7.831584
 10
-67.000000
 20
16.000000
 30
0.0
 10
-66.562434
 20
16.033331
 30
0.0
 10
-65.690922
 20
16.099718
 30
0.0
 10
-64.471717
 20
16.624344
 30
0.0
 10
-63.422510
 20
17.422510
 30
0.0
 10
-62.624344
 20
18.471717
 30
0.0
 10
-62.099718
 20
19.690922
 30
0.0
 10
-62.033331
 20
20.562434
 30
0.0
 10
-62.000000
 20
21.000000
 30
0.0
 11
-67.000000
 21
16.000000
 31
0.0
 11
-65.702384
 21
16.171303
 31
0.0
 11
-64.503149
 21
16.668042
 31
0.0
 11
-63.464466
 21
17.464466
 31
0.0
 11
-62.668042
 21
18.503148
 31
0.0
 11
-62.171303
 21
19.702384
 31
0.0
 11
-62.000000
 21
21.000000
 31
0.0
  0
LINE
  5
10d
100
AcDbEntity
  8
0
 62
7
100
AcDbLine
 10
-76.000000
 20
9.000000
 30
0.0
 11
-76.000000
 21
2.500000
 31
0.0
  0
SPLINE
  5
10e
100
AcDbEntity
  8
0
 62
7
100
AcDbSpline
 70
0
 71
3
 72
13
 73
9
 74
7
 40
0.000000
 40
0.000000
 40
0.000000
 40
0.000000
 40
1.832424
 40
3.649684
 40
5.482109
 40
7.314533
 40
9.131793
 40
10.964217
 40
10.964217
 40
10.964217
 40
10.964217
 10
-69.000000
 20
16.000000
 30
0.0
 10
-69.612593
 20
15.953336
 30
0.0
 10
-70.832709
 20
15.860395
 30
0.0
 10
-72.539597
 20
15.125919
 30
0.0
 10
-74.008485
 20
14.008485
 30
0.0
 10
-75.125919
 20
12.539597
 30
0.0
 10
-75.860395
 20
10.832709
 30
0.0
 10
-75.953336
 20
9.612593
 30
0.0
 10
-76.000000
 20
9.000000
 30
0.0
 11
-69.000000
 21
16.000000
 31
0.0
 11
-70.816663
 21
15.760176
 31
0.0
 11
-72.495592
 21
15.064741
 31
0.0
 11
-73.949748
 21
13.949748
 31
0.0
 11
-75.064741
 21
12.495592
 31
0.0
 11
-75.760176
 21
10.816663
 31
0.0
 11
-76.000000
 21
9.000000
 31
0.0
  0
LINE
  5
10f
100
AcDbEntity
  8
0
 62
7
100
AcDbLine
 10
-73.502499
 20
0.500000
 30
0.0
 11
-74.000000
 21
0.500000
 31
0.0
  0
SPLINE
  5
110
100
AcDbEntity
  8
0
 62
7
100
AcDbSpline
 70
0
 71
3
 72
13
 73
9
 74
7
 40
0.000000
 40
0.000000
 40
0.000000
 40
0.000000
 40
0.523550
 40
1.042767
 40
1.566317
 40
2.089867
 40
2.609084
 40
3.132634
 40
3.132634
 40
3.132634
 40
3.132634
 10
-76.000000
 20
2.500000
 30
0.0
 10
-75.986668
 20
2.324974
 30
0.0
 10
-75.960113
 20
1.976369
 30
0.0
 10
-75.750263
 20
1.488687
 30
0.0
 10
-75.430996
 20
1.069004
 30
0.0
 10
-75.011313
 20
0.749737
 30
0.0
 10
-74.523631
 20
0.539887
 30
0.0
 10
-74.175026
 20
0.513333
 30
0.0
 10
-74.000000
 20
0.500000
 30
0.0
 11
-76.000000
 21
2.500000
 31
0.0
 11
-75.931479
 21
1.980954
 31
0.0
 11
-75.732783
 21
1.501259
 31
0.0
 11
-75.414214
 21
1.085786
 31
0.0
 11
-74.998741
 21
0.767217
 31
0.0
 11
-74.519046
 21
0.568521
 31
0.0
 11
-74.000000
 21
0.500000
 31
0.0
  0
SPLINE
  5
111
100
AcDbEntity
  8
0
 62
7
100
AcDbSpline
 70
0
 71
3
 72
10
 73
6
 74
4
 40
0.000000
 40
0.000000
 40
0.000000
 40
0.000000
 40
0.709069
 40
1.407685
 40
2.116754
 40
2.116754
 40
2.116754
 40
2.116754
 10
-73.502499
 20
0.500000
 30
0.0
 10
-73.265729
 20
0.525160
 30
0.0
 10
-72.795679
 20
0.575108
 30
0.0
 10
-72.162738
 20
0.947634
 30
0.0
 10
-71.890889
 20
1.334338
 30
0.0
 10
-71.753956
 20
1.529126
 30
0.0
 11
-73.502499
 21
0.500000
 31
0.0
 11
-72.804654
 21
0.625664
 31
0.0
 11
-72.202580
 21
0.980022
 31
0.0
 11
-71.753956
 21
1.529126
 31
0.0
  0
SPLINE
  5
112
100
AcDbEntity
  8
0
 62
7
100
AcDbSpline
 70
0
 71
3
 72
13
 73
9
 74
7
 40
0.000000
 40
0.000000
 40
0.000000
 40
0.000000
 40
1.116784
 40
2.217103
 40
3.333887
 40
4.450670
 40
5.550990
 40
6.667774
 40
6.667774
 40
6.667774
 40
6.667774
 10
-66.246044
 20
1.529126
 30
0.0
 10
-66.461715
 20
1.837441
 30
0.0
 10
-66.889876
 20
2.449526
 30
0.0
 10
-67.886758
 20
3.013707
 30
0.0
 10
-69.000000
 20
3.218652
 30
0.0
 10
-70.113242
 20
3.013707
 30
0.0
 10
-71.110124
 20
2.449526
 30
0.0
 10
-71.538285
 20
1.837441
 30
0.0
 10
-71.753956
 20
1.529126
 30
0.0
 11
-66.246044
 21
1.529126
 31
0.0
 11
-66.952627
 21
2.393965
 31
0.0
 11
-67.900894
 21
2.952080
 31
0.0
 11
-69.000000
 21
3.150000
 31
0.0
 11
-70.099106
 21
2.952080
 31
0.0
 11
-71.047373
 21
2.393965
 31
0.0
 11
-71.753956
 21
1.529126
 31
0.0
  0
LINE
  5
113
100
AcDbEntity
  8
0
 62
7
100
AcDbLine
 10
-61.641068
 20
0.500000
 30
0.0
 11
-64.497501
 21
0.500000
 31
0.0
  0
SPLINE
  5
114
100
AcDbEntity
  8
0
 62
7
100
AcDbSpline
 70
0
 71
3
 72
10
 73
6
 74
4
 40
0.000000
 40
0.000000
 40
0.000000
 40
0.000000
 40
0.709069
 40
1.407685
 40
2.116754
 40
2.116754
 40
2.116754
 40
2.116754
 10
-66.246044
 20
1.529126
 30
0.0
 10
-66.109111
 20
1.334338
 30
0.0
 10
-65.837262
 20
0.947634
 30
0.0
 10
-65.204321
 20
0.575108
 30
0.0
 10
-64.734271
 20
0.525160
 30
0.0
 10
-64.497501
 20
0.500000
 30
0.0
 11
-66.246044
 21
1.529126
 31
0.0
 11
-65.797420
 21
0.980022
 31
0.0
 11
-65.195346
 21
0.625664
 31
0.0
 11
-64.497501
 21
0.500000
 31
0.0
  0
SPLINE
  5
115
100
AcDbEntity
  8
0
 62
7
100
AcDbSpline
 70
0
 71
3
 72
10
 73
6
 74
4
 40
0.000000
 40
0.000000
 40
0.000000
 40
0.000000
 40
0.820189
 40
1.624552
 40
2.444741
 40
2.444741
 40
2.444741
 40
2.444741
 10
-61.641068
 20
0.500000
 30
0.0
 10
-61.366951
 20
0.533700
 30
0.0
 10
-60.824006
 20
0.600448
 30
0.0
 10
-60.122507
 20
1.096482
 30
0.0
 10
-59.878594
 20
1.586126
 30
0.0
 10
-59.755450
 20
1.833333
 30
0.0
 11
-61.641068
 21
0.500000
 31
0.0
 11
-60.838290
 21
0.668103
 31
0.0
 11
-60.181531
 21
1.132502
 31
0.0
 11
-59.755450
 21
1.833333
 31
0.0
  0
SPLINE
  5
116
100
AcDbEntity
  8
0
 62
7
100
AcDbSpline
 70
0
 71
3
 72
13
 73
9
 74
7
 40
0.000000
 40
0.000000
 40
0.000000
 40
0.000000
 40
2.255520
 40
4.467517
 40
6.723037
 40
8.978556
 40
11.190554
 40
13.446074
 40
13.446074
 40
13.446074
 40
13.446074
 10
-49.384550
 20
1.833333
 30
0.0
 10
-49.723198
 20
2.516716
 30
0.0
 10
-50.393959
 20
3.870296
 30
0.0
 10
-52.323079
 20
5.181888
 30
0.0
 10
-54.570000
 20
5.660605
 30
0.0
 10
-56.816921
 20
5.181888
 30
0.0
 10
-58.746041
 20
3.870296
 30
0.0
 10
-59.416802
 20
2.516716
 30
0.0
 10
-59.755450
 20
1.833333
 30
0.0
 11
-49.384550
 21
1.833333
 31
0.0
 11
-50.556274
 21
3.760619
 31
0.0
 11
-52.362363
 21
5.037717
 31
0.0
 11
-54.570000
 21
5.500000
 31
0.0
 11
-56.777637
 21
5.037717
 31
0.0
 11
-58.583726
 21
3.760619
 31
0.0
 11
-59.755450
 21
1.833333
 31
0.0
  0
LINE
  5
117
100
AcDbEntity
  8
0
 62
7
100
AcDbLine
 10
-46.640000
 20
0.500000
 30
0.0
 11
-47.498932
 21
0.500000
 31
0.0
  0
SPLINE
  5
118
100
AcDbEntity
  8
0
 62
7
100
AcDbSpline
 70
0
 71
3
 72
10
 73
6
 74
4
 40
0.000000
 40
0.000000
 40
0.000000
 40
0.000000
 40
0.820189
 40
1.624552
 40
2.444741
 40
2.444741
 40
2.444741
 40
2.444741
 10
-49.384550
 20
1.833333
 30
0.0
 10
-49.261406
 20
1.586126
 30
0.0
 10
-49.017493
 20
1.096482
 30
0.0
 10
-48.315994
 20
0.600448
 30
0.0
 10
-47.773049
 20
0.533700
 30
0.0
 10
-47.498932
 20
0.500000
 30
0.0
 11
-49.384550
 21
1.833333
 31
0.0
 11
-48.958469
 21
1.132502
 31
0.0
 11
-48.301709
 21
0.668103
 31
0.0
 11
-47.498932
 21
0.500000
 31
0.0
  0
LINE
  5
119
100
AcDbEntity
  8
0
 62
7
100
AcDbLine
 10
-44.640000
 20
25.295000
 30
0.0
 11
-44.640000
 21
2.500000
 31
0.0
  0
SPLINE
  5
11a
100
AcDbEntity
  8
0
 62
7
100
AcDbSpline
 70
0
 71
3
 72
13
 73
9
 74
7
 40
0.000000
 40
0.000000
 40
0.000000
 40
0.000000
 40
0.523550
 40
1.042767
 40
1.566317
 40
2.089867
 40
2.609084
 40
3.132634
 40
3.132634
 40
3.132634
 40
3.132634
 10
-46.640000
 20
0.500000
 30
0.0
 10
-46.464974
 20
0.513333
 30
0.0
 10
-46.116369
 20
0.539887
 30
0.0
 10
-45.628687
 20
0.749737
 30
0.0
 10
-45.209004
 20
1.069004
 30
0.0
 10
-44.889737
 20
1.488687
 30
0.0
 10
-44.679887
 20
1.976369
 30
0.0
 10
-44.653332
 20
2.324974
 30
0.0
 10
-44.640000
 20
2.500000
 30
0.0
 11
-46.640000
 21
0.500000
 31
0.0
 11
-46.120954
 21
0.568521
 31
0.0
 11
-45.641259
 21
0.767217
 31
0.0
 11
-45.225786
 21
1.085786
 31
0.0
 11
-44.907217
 21
1.501259
 31
0.0
 11
-44.708521
 21
1.980954
 31
0.0
 11
-44.640000
 21
2.500000
 31
0.0
  0
LINE
  5
11b
100
AcDbEntity
  8
0
 62
7
100
AcDbLine
 10
34.720000
 20
35.215000
 30
0.0
 11
-34.720000
 21
35.215000
 31
0.0
  0
SPLINE
  5
11c
100
AcDbEntity
  8
0
 62
7
100
AcDbSpline
 70
0
 71
3
 72
13
 73
9
 74
7
 40
0.000000
 40
0.000000
 40
0.000000
 40
0.000000
 40
2.596807
 40
5.172124
 40
7.768931
 40
10.365738
 40
12.941055
 40
15.537862
 40
15.537862
 40
15.537862
 40
15.537862
 10
-34.720000
 20
35.215000
 30
0.0
 10
-35.588131
 20
35.148871
 30
0.0
 10
-37.317210
 20
35.017160
 30
0.0
 10
-39.736114
 20
33.976302
 30
0.0
 10
-41.817739
 20
32.392739
 30
0.0
 10
-43.401302
 20
30.311114
 30
0.0
 10
-44.442160
 20
27.892210
 30
0.0
 10
-44.573871
 20
26.163131
 30
0.0
 10
-44.640000
 20
25.295000
 30
0.0
 11
-34.720000
 21
35.215000
 31
0.0
 11
-37.294470
 21
34.875135
 31
0.0
 11
-39.673753
 21
33.889604
 31
0.0
 11
-41.734499
 21
32.309499
 31
0.0
 11
-43.314604
 21
30.248753
 31
0.0
 11
-44.300135
 21
27.869470
 31
0.0
 11
-44.640000
 21
25.295000
 31
0.0
  0
LINE
  5
11d
100
AcDbEntity
  8
0
 62
7
100
AcDbLine
 10
44.640000
 20
2.500000
 30
0.0
 11
44.640000
 21
25.295000
 31
0.0
  0
SPLINE
  5
11e
100
AcDbEntity
  8
0
 62
7
100
AcDbSpline
 70
0
 71
3
 72
13
 73
9
 74
7
 40
0.000000
 40
0.000000
 40
0.000000
 40
0.000000
 40
2.596807
 40
5.172124
 40
7.768931
 40
10.365738
 40
12.941055
 40
15.537862
 40
15.537862
 40
15.537862
 40
15.537862
 10
44.640000
 20
25.295000
 30
0.0
 10
44.573871
 20
26.163131
 30
0.0
 10
44.442160
 20
27.892210
 30
0.0
 10
43.401302
 20
30.311114
 30
0.0
 10
41.817739
 20
32.392739
 30
0.0
 10
39.736114
 20
33.976302
 30
0.0
 10
37.317210
 20
35.017160
 30
0.0
 10
35.588131
 20
35.148871
 30
0.0
 10
34.720000
 20
35.215000
 30
0.0
 11
44.640000
 21
25.295000
 31
0.0
 11
44.300135
 21
27.869470
 31
0.0
 11
43.314604
 21
30.248753
 31
0.0
 11
41.734499
 21
32.309499
 31
0.0
 11
39.673753
 21
33.889604
 31
0.0
 11
37.294470
 21
34.875135
 31
0.0
 11
34.720000
 21
35.215000
 31
0.0
  0
LINE
  5
11f
100
AcDbEntity
  8
0
 62
7
100
AcDbLine
 10
47.498932
 20
0.500000
 30
0.0
 11
46.640000
 21
0.500000
 31
0.0
  0
SPLINE
  5
120
100
AcDbEntity
  8
0
 62
7
100
AcDbSpline
 70
0
 71
3
 72
13
 73
9
 74
7
 40
0.000000
 40
0.000000
 40
0.000000
 40
0.000000
 40
0.523550
 40
1.042767
 40
1.566317
 40
2.089867
 40
2.609084
 40
3.132634
 40
3.132634
 40
3.132634
 40
3.132634
 10
44.640000
 20
2.500000
 30
0.0
 10
44.653332
 20
2.324974
 30
0.0
 10
44.679887
 20
1.976369
 30
0.0
 10
44.889737
 20
1.488687
 30
0.0
 10
45.209004
 20
1.069004
 30
0.0
 10
45.628687
 20
0.749737
 30
0.0
 10
46.116369
 20
0.539887
 30
0.0
 10
46.464974
 20
0.513333
 30
0.0
 10
46.640000
 20
0.500000
 30
0.0
 11
44.640000
 21
2.500000
 31
0.0
 11
44.708521
 21
1.980954
 31
0.0
 11
44.907217
 21
1.501259
 31
0.0
 11
45.225786
 21
1.085786
 31
0.0
 11
45.641259
 21
0.767217
 31
0.0
 11
46.120954
 21
0.568521
 31
0.0
 11
46.640000
 21
0.500000
 31
0.0
  0
SPLINE
  5
121
100
AcDbEntity
  8
0
 62
7
100
AcDbSpline
 70
0
 71
3
 72
10
 73
6
 74
4
 40
0.000000
 40
0.000000
 40
0.000000
 40
0.000000
 40
0.820189
 40
1.624552
 40
2.444741
 40
2.444741
 40
2.444741
 40
2.444741
 10
47.498932
 20
0.500000
 30
0.0
 10
47.773049
 20
0.533700
 30
0.0
 10
48.315994
 20
0.600448
 30
0.0
 10
49.017493
 20
1.096482
 30
0.0
 10
49.261406
 20
1.586126
 30
0.0
 10
49.384550
 20
1.833333
 30
0.0
 11
47.498932
 21
0.500000
 31
0.0
 11
48.301709
 21
0.668103
 31
0.0
 11
48.958469
 21
1.132502
 31
0.0
 11
49.384550
 21
1.833333
 31
0.0
  0
SPLINE
  5
122
100
AcDbEntity
  8
0
 62
7
100
AcDbSpline
 70
0
 71
3
 72
13
 73
9
 74
7
 40
0.000000
 40
0.000000
 40
0.000000
 40
0.000000
 40
2.255520
 40
4.467517
 40
6.723037
 40
8.978556
 40
11.190554
 40
13.446074
 40
13.446074
 40
13.446074
 40
13.446074
 10
59.755450
 20
1.833333
 30
0.0
 10
59.416802
 20
2.516716
 30
0.0
 10
58.746041
 20
3.870296
 30
0.0
 10
56.816921
 20
5.181888
 30
0.0
 10
54.570000
 20
5.660605
 30
0.0
 10
52.323079
 20
5.181888
 30
0.0
 10
50.393959
 20
3.870296
 30
0.0
 10
49.723198
 20
2.516716
 30
0.0
 10
49.384550
 20
1.833333
 30
0.0
 11
59.755450
 21
1.833333
 31
0.0
 11
58.583726
 21
3.760619
 31
0.0
 11
56.777637
 21
5.037717
 31
0.0
 11
54.570000
 21
5.500000
 31
0.0
 11
52.362363
 21
5.037717
 31
0.0
 11
50.556274
 21
3.760619
 31
0.0
 11
49.384550
 21
1.833333
 31
0.0
  0
LINE
  5
123
100
AcDbEntity
  8
0
 62
7
100
AcDbLine
 10
64.497501
 20
0.500000
 30
0.0
 11
61.641068
 21
0.500000
 31
0.0
  0
SPLINE
  5
124
100
AcDbEntity
  8
0
 62
7
100
AcDbSpline
 70
0
 71
3
 72
10
 73
6
 74
4
 40
0.000000
 40
0.000000
 40
0.000000
 40
0.000000
 40
0.820189
 40
1.624552
 40
2.444741
 40
2.444741
 40
2.444741
 40
2.444741
 10
59.755450
 20
1.833333
 30
0.0
 10
59.878594
 20
1.586126
 30
0.0
 10
60.122507
 20
1.096482
 30
0.0
 10
60.824006
 20
0.600448
 30
0.0
 10
61.366951
 20
0.533700
 30
0.0
 10
61.641068
 20
0.500000
 30
0.0
 11
59.755450
 21
1.833333
 31
0.0
 11
60.181531
 21
1.132502
 31
0.0
 11
60.838290
 21
0.668103
 31
0.0
 11
61.641068
 21
0.500000
 31
0.0
  0
SPLINE
  5
125
100
AcDbEntity
  8
0
 62
7
100
AcDbSpline
 70
0
 71
3
 72
10
 73
6
 74
4
 40
0.000000
 40
0.000000
 40
0.000000
 40
0.000000
 40
0.709069
 40
1.407685
 40
2.116754
 40
2.116754
 40
2.116754
 40
2.116754
 10
64.497501
 20
0.500000
 30
0.0
 10
64.734271
 20
0.525160
 30
0.0
 10
65.204321
 20
0.575108
 30
0.0
 10
65.837262
 20
0.947634
 30
0.0
 10
66.109111
 20
1.334338
 30
0.0
 10
66.246044
 20
1.529126
 30
0.0
 11
64.497501
 21
0.500000
 31
0.0
 11
65.195346
 21
0.625664
 31
0.0
 11
65.797420
 21
0.980022
 31
0.0
 11
66.246044
 21
1.529126
 31
0.0
  0
SPLINE
  5
126
100
AcDbEntity
  8
0
 62
7
100
AcDbSpline
 70
0
 71
3
 72
13
 73
9
 74
7
 40
0.000000
 40
0.000000
 40
0.000000
 40
0.000000
 40
1.116784
 40
2.217103
 40
3.333887
 40
4.450670
 40
5.550990
 40
6.667774
 40
6.667774
 40
6.667774
 40
6.667774
 10
71.753956
 20
1.529126
 30
0.0
 10
71.538285
 20
1.837441
 30
0.0
 10
71.110124
 20
2.449526
 30
0.0
 10
70.113242
 20
3.013707
 30
0.0
 10
69.000000
 20
3.218652
 30
0.0
 10
67.886758
 20
3.013707
 30
0.0
 10
66.889876
 20
2.449526
 30
0.0
 10
66.461715
 20
1.837441
 30
0.0
 10
66.246044
 20
1.529126
 30
0.0
 11
71.753956
 21
1.529126
 31
0.0
 11
71.047373
 21
2.393965
 31
0.0
 11
70.099106
 21
2.952080
 31
0.0
 11
69.000000
 21
3.150000
 31
0.0
 11
67.900894
 21
2.952080
 31
0.0
 11
66.952627
 21
2.393965
 31
0.0
 11
66.246044
 21
1.529126
 31
0.0
  0
SPLINE
  5
127
100
AcDbEntity
  8
0
 62
7
100
AcDbSpline
 70
0
 71
3
 72
10
 73
6
 74
4
 40
0.000000
 40
0.000000
 40
0.000000
 40
0.000000
 40
0.709069
 40
1.407685
 40
2.116754
 40
2.116754
 40
2.116754
 40
2.116754
 10
71.753956
 20
1.529126
 30
0.0
 10
71.890889
 20
1.334338
 30
0.0
 10
72.162738
 20
0.947634
 30
0.0
 10
72.795679
 20
0.575108
 30
0.0
 10
73.265729
 20
0.525160
 30
0.0
 10
73.502499
 20
0.500000
 30
0.0
 11
71.753956
 21
1.529126
 31
0.0
 11
72.202580
 21
0.980022
 31
0.0
 11
72.804654
 21
0.625664
 31
0.0
 11
73.502499
 21
0.500000
 31
0.0
  0
LINE
  5
128
100
AcDbEntity
  8
0
 62
7
100
AcDbLine
 10
53.100000
 20
39.610000
 30
0.0
 11
53.100000
 21
39.610000
 31
0.0
  0
SPLINE
  5
129
100
AcDbEntity
  8
0
 62
7
100
AcDbSpline
 70
0
 71
3
 72
25
 73
21
 74
19
 40
0.000000
 40
0.000000
 40
0.000000
 40
0.000000
 40
1.919303
 40
3.811137
 40
5.730440
 40
7.649742
 40
9.541577
 40
11.460879
 40
13.380182
 40
15.272016
 40
17.191319
 40
19.110622
 40
21.002456
 40
22.921759
 40
24.841061
 40
26.732896
 40
28.652198
 40
30.571501
 40
32.463335
 40
34.382638
 40
34.382638
 40
34.382638
 40
34.382638
 10
53.100000
 20
39.610000
 30
0.0
 10
53.034286
 20
40.253031
 30
0.0
 10
52.903799
 20
41.529889
 30
0.0
 10
51.891432
 20
43.217277
 30
0.0
 10
50.409156
 20
44.471805
 30
0.0
 10
48.573636
 20
45.137165
 30
0.0
 10
46.625942
 20
45.137165
 30
0.0
 10
44.792993
 20
44.471805
 30
0.0
 10
43.300452
 20
43.217277
 30
0.0
 10
42.326224
 20
41.529889
 30
0.0
 10
41.986073
 20
39.610000
 30
0.0
 10
42.326224
 20
37.690111
 30
0.0
 10
43.300452
 20
36.002723
 30
0.0
 10
44.792993
 20
34.748195
 30
0.0
 10
46.625942
 20
34.082835
 30
0.0
 10
48.573636
 20
34.082835
 30
0.0
 10
50.409156
 20
34.748195
 30
0.0
 10
51.891432
 20
36.002723
 30
0.0
 10
52.903799
 20
37.690111
 30
0.0
 10
53.034286
 20
38.966970
 30
0.0
 10
53.100000
 20
39.610000
 30
0.0
 11
53.100000
 21
39.610000
 31
0.0
 11
52.765194
 21
41.499875
 31
0.0
 11
51.819277
 21
43.138252
 31
0.0
 11
50.350000
 21
44.373140
 31
0.0
 11
48.545917
 21
45.028127
 31
0.0
 11
46.654083
 21
45.028127
 31
0.0
 11
44.850000
 21
44.373140
 31
0.0
 11
43.380723
 21
43.138252
 31
0.0
 11
42.434806
 21
41.499875
 31
0.0
 11
42.100000
 21
39.610000
 31
0.0
 11
42.434806
 21
37.720125
 31
0.0
 11
43.380723
 21
36.081748
 31
0.0
 11
44.850000
 21
34.846860
 31
0.0
 11
46.654083
 21
34.191873
 31
0.0
 11
48.545917
 21
34.191873
 31
0.0
 11
50.350000
 21
34.846860
 31
0.0
 11
51.819277
 21
36.081748
 31
0.0
 11
52.765194
 21
37.720125
 31
0.0
 11
53.100000
 21
39.610000
 31
0.0
  0
LINE
  5
12a
100
AcDbEntity
  8
0
 62
7
100
AcDbLine
 10
5.500000
 20
44.570000
 30
0.0
 11
5.500000
 21
44.570000
 31
0.0
  0
SPLINE
  5
12b
100
AcDbEntity
  8
0
 62
7
100
AcDbSpline
 70
0
 71
3
 72
25
 73
21
 74
19
 40
0.000000
 40
0.000000
 40
0.000000
 40
0.000000
 40
1.919303
 40
3.811137
 40
5.730440
 40
7.649742
 40
9.541577
 40
11.460879
 40
13.380182
 40
15.272016
 40
17.191319
 40
19.110622
 40
21.002456
 40
22.921759
 40
24.841061
 40
26.732896
 40
28.652198
 40
30.571501
 40
32.463335
 40
34.382638
 40
34.382638
 40
34.382638
 40
34.382638
 10
5.500000
 20
44.570000
 30
0.0
 10
5.434286
 20
45.213030
 30
0.0
 10
5.303799
 20
46.489889
 30
0.0
 10
4.291432
 20
48.177277
 30
0.0
 10
2.809156
 20
49.431805
 30
0.0
 10
0.973636
 20
50.097165
 30
0.0
 10
-0.974057
 20
50.097165
 30
0.0
 10
-2.807007
 20
49.431805
 30
0.0
 10
-4.299547
 20
48.177277
 30
0.0
 10
-5.273776
 20
46.489889
 30
0.0
 10
-5.613927
 20
44.570000
 30
0.0
 10
-5.273776
 20
42.650111
 30
0.0
 10
-4.299547
 20
40.962723
 30
0.0
 10
-2.807007
 20
39.708195
 30
0.0
 10
-0.974057
 20
39.042835
 30
0.0
 10
0.973636
 20
39.042835
 30
0.0
 10
2.809156
 20
39.708195
 30
0.0
 10
4.291432
 20
40.962723
 30
0.0
 10
5.303799
 20
42.650111
 30
0.0
 10
5.434286
 20
43.926969
 30
0.0
 10
5.500000
 20
44.570000
 30
0.0
 11
5.500000
 21
44.570000
 31
0.0
 11
5.165194
 21
46.459875
 31
0.0
 11
4.219277
 21
48.098252
 31
0.0
 11
2.750000
 21
49.333140
 31
0.0
 11
0.945917
 21
49.988127
 31
0.0
 11
-0.945917
 21
49.988127
 31
0.0
 11
-2.750000
 21
49.333140
 31
0.0
 11
-4.219277
 21
48.098252
 31
0.0
 11
-5.165194
 21
46.459875
 31
0.0
 11
-5.500000
 21
44.570000
 31
0.0
 11
-5.165194
 21
42.680125
 31
0.0
 11
-4.219277
 21
41.041748
 31
0.0
 11
-2.750000
 21
39.806860
 31
0.0
 11
-0.945917
 21
39.151873
 31
0.0
 11
0.945917
 21
39.151873
 31
0.0
 11
2.750000
 21
39.806860
 31
0.0
 11
4.219277
 21
41.041748
 31
0.0
 11
5.165194
 21
42.680125
 31
0.0
 11
5.500000
 21
44.570000
 31
0.0
  0
LINE
  5
12c
100
AcDbEntity
  8
0
 62
7
100
AcDbLine
 10
-42.100000
 20
39.610000
 30
0.0
 11
-42.100000
 21
39.610000
 31
0.0
  0
SPLINE
  5
12d
100
AcDbEntity
  8
0
 62
7
100
AcDbSpline
 70
0
 71
3
 72
25
 73
21
 74
19
 40
0.000000
 40
0.000000
 40
0.000000
 40
0.000000
 40
1.919303
 40
3.811137
 40
5.730440
 40
7.649742
 40
9.541577
 40
11.460879
 40
13.380182
 40
15.272016
 40
17.191319
 40
19.110622
 40
21.002456
 40
22.921759
 40
24.841061
 40
26.732896
 40
28.652198
 40
30.571501
 40
32.463335
 40
34.382638
 40
34.382638
 40
34.382638
 40
34.382638
 10
-42.100000
 20
39.610000
 30
0.0
 10
-42.165714
 20
40.253031
 30
0.0
 10
-42.296201
 20
41.529889
 30
0.0
 10
-43.308567
 20
43.217277
 30
0.0
 10
-44.790844
 20
44.471805
 30
0.0
 10
-46.626364
 20
45.137165
 30
0.0
 10
-48.574057
 20
45.137165
 30
0.0
 10
-50.407007
 20
44.471805
 30
0.0
 10
-51.899547
 20
43.217277
 30
0.0
 10
-52.873776
 20
41.529889
 30
0.0
 10
-53.213927
 20
39.610000
 30
0.0
 10
-52.873776
 20
37.690111
 30
0.0
 10
-51.899547
 20
36.002723
 30
0.0
 10
-50.407007
 20
34.748195
 30
0.0
 10
-48.574057
 20
34.082835
 30
0.0
 10
-46.626364
 20
34.082835
 30
0.0
 10
-44.790844
 20
34.748195
 30
0.0
 10
-43.308567
 20
36.002723
 30
0.0
 10
-42.296201
 20
37.690111
 30
0.0
 10
-42.165714
 20
38.966970
 30
0.0
 10
-42.100000
 20
39.610000
 30
0.0
 11
-42.100000
 21
39.610000
 31
0.0
 11
-42.434806
 21
41.499875
 31
0.0
 11
-43.380723
 21
43.138252
 31
0.0
 11
-44.850000
 21
44.373140
 31
0.0
 11
-46.654083
 21
45.028127
 31
0.0
 11
-48.545917
 21
45.028127
 31
0.0
 11
-50.350000
 21
44.373140
 31
0.0
 11
-51.819277
 21
43.138252
 31
0.0
 11
-52.765194
 21
41.499875
 31
0.0
 11
-53.100000
 21
39.610000
 31
0.0
 11
-52.765194
 21
37.720125
 31
0.0
 11
-51.819277
 21
36.081748
 31
0.0
 11
-50.350000
 21
34.846860
 31
0.0
 11
-48.545917
 21
34.191873
 31
0.0
 11
-46.654083
 21
34.191873
 31
0.0
 11
-44.850000
 21
34.846860
 31
0.0
 11
-43.380723
 21
36.081748
 31
0.0
 11
-42.434806
 21
37.720125
 31
0.0
 11
-42.100000
 21
39.610000
 31
0.0
  0
LINE
  5
12e
100
AcDbEntity
  8
0
 62
7
100
AcDbLine
 10
56.290000
 20
20.000000
 30
0.0
 11
56.290000
 21
20.000000
 31
0.0
  0
SPLINE
  5
12f
100
AcDbEntity
  8
0
 62
7
100
AcDbSpline
 70
0
 71
3
 72
25
 73
21
 74
19
 40
0.000000
 40
0.000000
 40
0.000000
 40
0.000000
 40
0.575942
 40
1.143638
 40
1.719580
 40
2.295522
 40
2.863218
 40
3.439160
 40
4.015102
 40
4.582798
 40
5.158740
 40
5.734682
 40
6.302378
 40
6.878320
 40
7.454262
 40
8.021958
 40
8.597900
 40
9.173842
 40
9.741538
 40
10.317480
 40
10.317480
 40
10.317480
 40
10.317480
 10
56.290000
 20
20.000000
 30
0.0
 10
56.270355
 20
20.192969
 30
0.0
 10
56.231347
 20
20.576143
 30
0.0
 10
55.927691
 20
21.082581
 30
0.0
 10
55.482958
 20
21.459124
 30
0.0
 10
54.932170
 20
21.658836
 30
0.0
 10
54.347704
 20
21.658836
 30
0.0
 10
53.797685
 20
21.459124
 30
0.0
 10
53.349883
 20
21.082581
 30
0.0
 10
53.057629
 20
20.576143
 30
0.0
 10
52.955942
 20
20.000000
 30
0.0
 10
53.057629
 20
19.423857
 30
0.0
 10
53.349883
 20
18.917419
 30
0.0
 10
53.797685
 20
18.540876
 30
0.0
 10
54.347704
 20
18.341164
 30
0.0
 10
54.932170
 20
18.341164
 30
0.0
 10
55.482958
 20
18.540876
 30
0.0
 10
55.927691
 20
18.917419
 30
0.0
 10
56.231347
 20
19.423857
 30
0.0
 10
56.270355
 20
19.807031
 30
0.0
 10
56.290000
 20
20.000000
 30
0.0
 11
56.290000
 21
20.000000
 31
0.0
 11
56.189740
 21
20.567148
 31
0.0
 11
55.906028
 21
21.058865
 31
0.0
 11
55.465197
 21
21.429511
 31
0.0
 11
54.923848
 21
21.626108
 31
0.0
 11
54.356152
 21
21.626108
 31
0.0
 11
53.814803
 21
21.429511
 31
0.0
 11
53.373972
 21
21.058865
 31
0.0
 11
53.090260
 21
20.567148
 31
0.0
 11
52.990000
 21
20.000000
 31
0.0
 11
53.090260
 21
19.432852
 31
0.0
 11
53.373972
 21
18.941135
 31
0.0
 11
53.814803
 21
18.570489
 31
0.0
 11
54.356152
 21
18.373892
 31
0.0
 11
54.923848
 21
18.373892
 31
0.0
 11
55.465197
 21
18.570489
 31
0.0
 11
55.906028
 21
18.941135
 31
0.0
 11
56.189740
 21
19.432852
 31
0.0
 11
56.290000
 21
20.000000
 31
0.0
  0
LINE
  5
130
100
AcDbEntity
  8
0
 62
7
100
AcDbLine
 10
-52.990000
 20
20.000000
 30
0.0
 11
-52.990000
 21
20.000000
 31
0.0
  0
SPLINE
  5
131
100
AcDbEntity
  8
0
 62
7
100
AcDbSpline
 70
0
 71
3
 72
25
 73
21
 74
19
 40
0.000000
 40
0.000000
 40
0.000000
 40
0.000000
 40
0.575942
 40
1.143638
 40
1.719580
 40
2.295522
 40
2.863218
 40
3.439160
 40
4.015102
 40
4.582798
 40
5.158740
 40
5.734682
 40
6.302378
 40
6.878320
 40
7.454262
 40
8.021958
 40
8.597900
 40
9.173842
 40
9.741538
 40
10.317480
 40
10.317480
 40
10.317480
 40
10.317480
 10
-52.990000
 20
20.000000
 30
0.0
 10
-53.009645
 20
20.192969
 30
0.0
 10
-53.048654
 20
20.576143
 30
0.0
 10
-53.352309
 20
21.082581
 30
0.0
 10
-53.797043
 20
21.459124
 30
0.0
 10
-54.347830
 20
21.658836
 30
0.0
 10
-54.932296
 20
21.658836
 30
0.0
 10
-55.482315
 20
21.459124
 30
0.0
 10
-55.930117
 20
21.082581
 30
0.0
 10
-56.222371
 20
20.576143
 30
0.0
 10
-56.324058
 20
20.000000
 30
0.0
 10
-56.222371
 20
19.423857
 30
0.0
 10
-55.930117
 20
18.917419
 30
0.0
 10
-55.482315
 20
18.540876
 30
0.0
 10
-54.932296
 20
18.341164
 30
0.0
 10
-54.347830
 20
18.341164
 30
0.0
 10
-53.797043
 20
18.540876
 30
0.0
 10
-53.352309
 20
18.917419
 30
0.0
 10
-53.048654
 20
19.423857
 30
0.0
 10
-53.009645
 20
19.807031
 30
0.0
 10
-52.990000
 20
20.000000
 30
0.0
 11
-52.990000
 21
20.000000
 31
0.0
 11
-53.090260
 21
20.567148
 31
0.0
 11
-53.373972
 21
21.058865
 31
0.0
 11
-53.814803
 21
21.429511
 31
0.0
 11
-54.356152
 21
21.626108
 31
0.0
 11
-54.923848
 21
21.626108
 31
0.0
 11
-55.465197
 21
21.429511
 31
0.0
 11
-55.906028
 21
21.058865
 31
0.0
 11
-56.189740
 21
20.567148
 31
0.0
 11
-56.290000
 21
20.000000
 31
0.0
 11
-56.189740
 21
19.432852
 31
0.0
 11
-55.906028
 21
18.941135
 31
0.0
 11
-55.465197
 21
18.570489
 31
0.0
 11
-54.923848
 21
18.373892
 31
0.0
 11
-54.356152
 21
18.373892
 31
0.0
 11
-53.814803
 21
18.570489
 31
0.0
 11
-53.373972
 21
18.941135
 31
0.0
 11
-53.090260
 21
19.432852
 31
0.0
 11
-52.990000
 21
20.000000
 31
0.0
  0
LINE
  5
132
100
AcDbEntity
  8
0
 62
7
100
AcDbLine
 10
21.650000
 20
45.215000
 30
0.0
 11
21.650000
 21
45.215000
 31
0.0
  0
SPLINE
  5
133
100
AcDbEntity
  8
0
 62
7
100
AcDbSpline
 70
0
 71
3
 72
25
 73
21
 74
19
 40
0.000000
 40
0.000000
 40
0.000000
 40
0.000000
 40
0.575942
 40
1.143638
 40
1.719580
 40
2.295522
 40
2.863218
 40
3.439160
 40
4.015102
 40
4.582798
 40
5.158740
 40
5.734682
 40
6.302378
 40
6.878320
 40
7.454262
 40
8.021958
 40
8.597900
 40
9.173842
 40
9.741538
 40
10.317480
 40
10.317480
 40
10.317480
 40
10.317480
 10
21.650000
 20
45.215000
 30
0.0
 10
21.630355
 20
45.407968
 30
0.0
 10
21.591346
 20
45.791143
 30
0.0
 10
21.287691
 20
46.297581
 30
0.0
 10
20.842957
 20
46.674123
 30
0.0
 10
20.292170
 20
46.873836
 30
0.0
 10
19.707704
 20
46.873836
 30
0.0
 10
19.157685
 20
46.674123
 30
0.0
 10
18.709883
 20
46.297581
 30
0.0
 10
18.417629
 20
45.791143
 30
0.0
 10
18.315942
 20
45.215000
 30
0.0
 10
18.417629
 20
44.638857
 30
0.0
 10
18.709883
 20
44.132419
 30
0.0
 10
19.157685
 20
43.755876
 30
0.0
 10
19.707704
 20
43.556164
 30
0.0
 10
20.292170
 20
43.556164
 30
0.0
 10
20.842957
 20
43.755876
 30
0.0
 10
21.287691
 20
44.132419
 30
0.0
 10
21.591346
 20
44.638857
 30
0.0
 10
21.630355
 20
45.022031
 30
0.0
 10
21.650000
 20
45.215000
 30
0.0
 11
21.650000
 21
45.215000
 31
0.0
 11
21.549740
 21
45.782148
 31
0.0
 11
21.266028
 21
46.273865
 31
0.0
 11
20.825197
 21
46.644511
 31
0.0
 11
20.283848
 21
46.841108
 31
0.0
 11
19.716152
 21
46.841108
 31
0.0
 11
19.174803
 21
46.644511
 31
0.0
 11
18.733972
 21
46.273865
 31
0.0
 11
18.450260
 21
45.782148
 31
0.0
 11
18.350000
 21
45.215000
 31
0.0
 11
18.450260
 21
44.647851
 31
0.0
 11
18.733972
 21
44.156134
 31
0.0
 11
19.174803
 21
43.785489
 31
0.0
 11
19.716152
 21
43.588892
 31
0.0
 11
20.283848
 21
43.588892
 31
0.0
 11
20.825197
 21
43.785489
 31
0.0
 11
21.266028
 21
44.156134
 31
0.0
 11
21.549740
 21
44.647851
 31
0.0
 11
21.650000
 21
45.215000
 31
0.0
  0
LINE
  5
134
100
AcDbEntity
  8
0
 62
7
100
AcDbLine
 10
-18.350000
 20
45.215000
 30
0.0
 11
-18.350000
 21
45.215000
 31
0.0
  0
LINE
  5
135
100
AcDbEntity
  8
0
 62
7
100
AcDbLine
 10
73.502499
 20
-0.500000
 30
0.0
 11
74.000000
 21
-0.500000
 31
0.0
  0
SPLINE
  5
136
100
AcDbEntity
  8
0
 62
7
100
AcDbSpline
 70
0
 71
3
 72
25
 73
21
 74
19
 40
0.000000
 40
0.000000
 40
0.000000
 40
0.000000
 40
0.575942
 40
1.143638
 40
1.719580
 40
2.295522
 40
2.863218
 40
3.439160
 40
4.015102
 40
4.582798
 40
5.158740
 40
5.734682
 40
6.302378
 40
6.878320
 40
7.454262
 40
8.021958
 40
8.597900
 40
9.173842
 40
9.741538
 40
10.317480
 40
10.317480
 40
10.317480
 40
10.317480
 10
-18.350000
 20
45.215000
 30
0.0
 10
-18.369645
 20
45.407968
 30
0.0
 10
-18.408653
 20
45.791143
 30
0.0
 10
-18.712309
 20
46.297581
 30
0.0
 10
-19.157042
 20
46.674123
 30
0.0
 10
-19.707830
 20
46.873836
 30
0.0
 10
-20.292296
 20
46.873836
 30
0.0
 10
-20.842315
 20
46.674123
 30
0.0
 10
-21.290117
 20
46.297581
 30
0.0
 10
-21.582371
 20
45.791143
 30
0.0
 10
-21.684058
 20
45.215000
 30
0.0
 10
-21.582371
 20
44.638857
 30
0.0
 10
-21.290117
 20
44.132419
 30
0.0
 10
-20.842315
 20
43.755876
 30
0.0
 10
-20.292296
 20
43.556164
 30
0.0
 10
-19.707830
 20
43.556164
 30
0.0
 10
-19.157042
 20
43.755876
 30
0.0
 10
-18.712309
 20
44.132419
 30
0.0
 10
-18.408653
 20
44.638857
 30
0.0
 10
-18.369645
 20
45.022031
 30
0.0
 10
-18.350000
 20
45.215000
 30
0.0
 11
-18.350000
 21
45.215000
 31
0.0
 11
-18.450260
 21
45.782148
 31
0.0
 11
-18.733972
 21
46.273865
 31
0.0
 11
-19.174803
 21
46.644511
 31
0.0
 11
-19.716152
 21
46.841108
 31
0.0
 11
-20.283848
 21
46.841108
 31
0.0
 11
-20.825197
 21
46.644511
 31
0.0
 11
-21.266028
 21
46.273865
 31
0.0
 11
-21.549740
 21
45.782148
 31
0.0
 11
-21.650000
 21
45.215000
 31
0.0
 11
-21.549740
 21
44.647851
 31
0.0
 11
-21.266028
 21
44.156134
 31
0.0
 11
-20.825197
 21
43.785489
 31
0.0
 11
-20.283848
 21
43.588892
 31
0.0
 11
-19.716152
 21
43.588892
 31
0.0
 11
-19.174803
 21
43.785489
 31
0.0
 11
-18.733972
 21
44.156134
 31
0.0
 11
-18.450260
 21
44.647851
 31
0.0
 11
-18.350000
 21
45.215000
 31
0.0
  0
SPLINE
  5
137
100
AcDbEntity
  8
0
 62
7
100
AcDbSpline
 70
0
 71
3
 72
10
 73
6
 74
4
 40
0.000000
 40
0.000000
 40
0.000000
 40
0.000000
 40
0.709069
 40
1.407685
 40
2.116754
 40
2.116754
 40
2.116754
 40
2.116754
 10
73.502499
 20
-0.500000
 30
0.0
 10
73.265729
 20
-0.525160
 30
0.0
 10
72.795679
 20
-0.575108
 30
0.0
 10
72.162738
 20
-0.947634
 30
0.0
 10
71.890889
 20
-1.334338
 30
0.0
 10
71.753956
 20
-1.529126
 30
0.0
 11
73.502499
 21
-0.500000
 31
0.0
 11
72.804654
 21
-0.625663
 31
0.0
 11
72.202580
 21
-0.980022
 31
0.0
 11
71.753956
 21
-1.529126
 31
0.0
  0
SPLINE
  5
138
100
AcDbEntity
  8
0
 62
7
100
AcDbSpline
 70
0
 71
3
 72
13
 73
9
 74
7
 40
0.000000
 40
0.000000
 40
0.000000
 40
0.000000
 40
1.116784
 40
2.217103
 40
3.333887
 40
4.450670
 40
5.550990
 40
6.667774
 40
6.667774
 40
6.667774
 40
6.667774
 10
66.246044
 20
-1.529126
 30
0.0
 10
66.461715
 20
-1.837441
 30
0.0
 10
66.889876
 20
-2.449526
 30
0.0
 10
67.886758
 20
-3.013707
 30
0.0
 10
69.000000
 20
-3.218652
 30
0.0
 10
70.113242
 20
-3.013707
 30
0.0
 10
71.110124
 20
-2.449526
 30
0.0
 10
71.538285
 20
-1.837441
 30
0.0
 10
71.753956
 20
-1.529126
 30
0.0
 11
66.246044
 21
-1.529126
 31
0.0
 11
66.952627
 21
-2.393965
 31
0.0
 11
67.900894
 21
-2.952080
 31
0.0
 11
69.000000
 21
-3.150000
 31
0.0
 11
70.099106
 21
-2.952080
 31
0.0
 11
71.047373
 21
-2.393965
 31
0.0
 11
71.753956
 21
-1.529126
 31
0.0
  0
LINE
  5
139
100
AcDbEntity
  8
0
 62
7
100
AcDbLine
 10
61.641068
 20
-0.500000
 30
0.0
 11
64.497501
 21
-0.500000
 31
0.0
  0
SPLINE
  5
13a
100
AcDbEntity
  8
0
 62
7
100
AcDbSpline
 70
0
 71
3
 72
10
 73
6
 74
4
 40
0.000000
 40
0.000000
 40
0.000000
 40
0.000000
 40
0.709069
 40
1.407685
 40
2.116754
 40
2.116754
 40
2.116754
 40
2.116754
 10
66.246044
 20
-1.529126
 30
0.0
 10
66.109111
 20
-1.334338
 30
0.0
 10
65.837262
 20
-0.947634
 30
0.0
 10
65.204321
 20
-0.575108
 30
0.0
 10
64.734271
 20
-0.525160
 30
0.0
 10
64.497501
 20
-0.500000
 30
0.0
 11
66.246044
 21
-1.529126
 31
0.0
 11
65.797420
 21
-0.980022
 31
0.0
 11
65.195346
 21
-0.625663
 31
0.0
 11
64.497501
 21
-0.500000
 31
0.0
  0
SPLINE
  5
13b
100
AcDbEntity
  8
0
 62
7
100
AcDbSpline
 70
0
 71
3
 72
10
 73
6
 74
4
 40
0.000000
 40
0.000000
 40
0.000000
 40
0.000000
 40
0.820189
 40
1.624552
 40
2.444741
 40
2.444741
 40
2.444741
 40
2.444741
 10
61.641068
 20
-0.500000
 30
0.0
 10
61.366951
 20
-0.533699
 30
0.0
 10
60.824005
 20
-0.600448
 30
0.0
 10
60.122507
 20
-1.096482
 30
0.0
 10
59.878594
 20
-1.586126
 30
0.0
 10
59.755450
 20
-1.833333
 30
0.0
 11
61.641068
 21
-0.500000
 31
0.0
 11
60.838290
 21
-0.668103
 31
0.0
 11
60.181531
 21
-1.132502
 31
0.0
 11
59.755450
 21
-1.833333
 31
0.0
  0
SPLINE
  5
13c
100
AcDbEntity
  8
0
 62
7
100
AcDbSpline
 70
0
 71
3
 72
13
 73
9
 74
7
 40
0.000000
 40
0.000000
 40
0.000000
 40
0.000000
 40
2.255520
 40
4.467517
 40
6.723037
 40
8.978556
 40
11.190554
 40
13.446074
 40
13.446074
 40
13.446074
 40
13.446074
 10
49.384550
 20
-1.833333
 30
0.0
 10
49.723198
 20
-2.516717
 30
0.0
 10
50.393959
 20
-3.870297
 30
0.0
 10
52.323079
 20
-5.181888
 30
0.0
 10
54.570000
 20
-5.660605
 30
0.0
 10
56.816921
 20
-5.181888
 30
0.0
 10
58.746041
 20
-3.870297
 30
0.0
 10
59.416802
 20
-2.516717
 30
0.0
 10
59.755450
 20
-1.833333
 30
0.0
 11
49.384550
 21
-1.833333
 31
0.0
 11
50.556274
 21
-3.760620
 31
0.0
 11
52.362363
 21
-5.037717
 31
0.0
 11
54.570000
 21
-5.500000
 31
0.0
 11
56.777637
 21
-5.037717
 31
0.0
 11
58.583726
 21
-3.760620
 31
0.0
 11
59.755450
 21
-1.833333
 31
0.0
  0
LINE
  5
13d
100
AcDbEntity
  8
0
 62
7
100
AcDbLine
 10
46.640000
 20
-0.500000
 30
0.0
 11
47.498932
 21
-0.500000
 31
0.0
  0
SPLINE
  5
13e
100
AcDbEntity
  8
0
 62
7
100
AcDbSpline
 70
0
 71
3
 72
10
 73
6
 74
4
 40
0.000000
 40
0.000000
 40
0.000000
 40
0.000000
 40
0.820189
 40
1.624552
 40
2.444741
 40
2.444741
 40
2.444741
 40
2.444741
 10
49.384550
 20
-1.833333
 30
0.0
 10
49.261406
 20
-1.586126
 30
0.0
 10
49.017493
 20
-1.096482
 30
0.0
 10
48.315994
 20
-0.600448
 30
0.0
 10
47.773049
 20
-0.533699
 30
0.0
 10
47.498932
 20
-0.500000
 30
0.0
 11
49.384550
 21
-1.833333
 31
0.0
 11
48.958469
 21
-1.132502
 31
0.0
 11
48.301709
 21
-0.668103
 31
0.0
 11
47.498932
 21
-0.500000
 31
0.0
  0
LINE
  5
13f
100
AcDbEntity
  8
0
 62
7
100
AcDbLine
 10
44.640000
 20
-25.295000
 30
0.0
 11
44.640000
 21
-2.500000
 31
0.0
  0
SPLINE
  5
140
100
AcDbEntity
  8
0
 62
7
100
AcDbSpline
 70
0
 71
3
 72
13
 73
9
 74
7
 40
0.000000
 40
0.000000
 40
0.000000
 40
0.000000
 40
0.523550
 40
1.042767
 40
1.566317
 40
2.089867
 40
2.609084
 40
3.132634
 40
3.132634
 40
3.132634
 40
3.132634
 10
46.640000
 20
-0.500000
 30
0.0
 10
46.464974
 20
-0.513332
 30
0.0
 10
46.116369
 20
-0.539887
 30
0.0
 10
45.628687
 20
-0.749737
 30
0.0
 10
45.209004
 20
-1.069004
 30
0.0
 10
44.889737
 20
-1.488686
 30
0.0
 10
44.679887
 20
-1.976369
 30
0.0
 10
44.653332
 20
-2.324973
 30
0.0
 10
44.640000
 20
-2.500000
 30
0.0
 11
46.640000
 21
-0.500000
 31
0.0
 11
46.120954
 21
-0.568521
 31
0.0
 11
45.641259
 21
-0.767217
 31
0.0
 11
45.225786
 21
-1.085786
 31
0.0
 11
44.907217
 21
-1.501259
 31
0.0
 11
44.708521
 21
-1.980953
 31
0.0
 11
44.640000
 21
-2.500000
 31
0.0
  0
LINE
  5
141
100
AcDbEntity
  8
0
 62
7
100
AcDbLine
 10
-34.720000
 20
-35.215000
 30
0.0
 11
34.720000
 21
-35.215000
 31
0.0
  0
SPLINE
  5
142
100
AcDbEntity
  8
0
 62
7
100
AcDbSpline
 70
0
 71
3
 72
13
 73
9
 74
7
 40
0.000000
 40
0.000000
 40
0.000000
 40
0.000000
 40
2.596807
 40
5.172124
 40
7.768931
 40
10.365738
 40
12.941055
 40
15.537862
 40
15.537862
 40
15.537862
 40
15.537862
 10
34.720000
 20
-35.215000
 30
0.0
 10
35.588131
 20
-35.148871
 30
0.0
 10
37.317210
 20
-35.017160
 30
0.0
 10
39.736114
 20
-33.976302
 30
0.0
 10
41.817739
 20
-32.392739
 30
0.0
 10
43.401302
 20
-30.311114
 30
0.0
 10
44.442160
 20
-27.892210
 30
0.0
 10
44.573871
 20
-26.163131
 30
0.0
 10
44.640000
 20
-25.295000
 30
0.0
 11
34.720000
 21
-35.215000
 31
0.0
 11
37.294470
 21
-34.875136
 31
0.0
 11
39.673753
 21
-33.889604
 31
0.0
 11
41.734499
 21
-32.309499
 31
0.0
 11
43.314604
 21
-30.248753
 31
0.0
 11
44.300136
 21
-27.869470
 31
0.0
 11
44.640000
 21
-25.295000
 31
0.0
  0
LINE
  5
143
100
AcDbEntity
  8
0
 62
7
100
AcDbLine
 10
-44.640000
 20
-2.500000
 30
0.0
 11
-44.640000
 21
-25.295000
 31
0.0
  0
SPLINE
  5
144
100
AcDbEntity
  8
0
 62
7
100
AcDbSpline
 70
0
 71
3
 72
13
 73
9
 74
7
 40
0.000000
 40
0.000000
 40
0.000000
 40
0.000000
 40
2.596807
 40
5.172124
 40
7.768931
 40
10.365738
 40
12.941055
 40
15.537862
 40
15.537862
 40
15.537862
 40
15.537862
 10
-44.640000
 20
-25.295000
 30
0.0
 10
-44.573871
 20
-26.163131
 30
0.0
 10
-44.442160
 20
-27.892210
 30
0.0
 10
-43.401302
 20
-30.311114
 30
0.0
 10
-41.817739
 20
-32.392739
 30
0.0
 10
-39.736114
 20
-33.976302
 30
0.0
 10
-37.317210
 20
-35.017160
 30
0.0
 10
-35.588131
 20
-35.148871
 30
0.0
 10
-34.720000
 20
-35.215000
 30
0.0
 11
-44.640000
 21
-25.295000
 31
0.0
 11
-44.300136
 21
-27.869470
 31
0.0
 11
-43.314604
 21
-30.248753
 31
0.0
 11
-41.734499
 21
-32.309499
 31
0.0
 11
-39.673753
 21
-33.889604
 31
0.0
 11
-37.294470
 21
-34.875136
 31
0.0
 11
-34.720000
 21
-35.215000
 31
0.0
  0
LINE
  5
145
100
AcDbEntity
  8
0
 62
7
100
AcDbLine
 10
-47.498932
 20
-0.500000
 30
0.0
 11
-46.640000
 21
-0.500000
 31
0.0
  0
SPLINE
  5
146
100
AcDbEntity
  8
0
 62
7
100
AcDbSpline
 70
0
 71
3
 72
13
 73
9
 74
7
 40
0.000000
 40
0.000000
 40
0.000000
 40
0.000000
 40
0.523550
 40
1.042767
 40
1.566317
 40
2.089867
 40
2.609084
 40
3.132634
 40
3.132634
 40
3.132634
 40
3.132634
 10
-44.640000
 20
-2.500000
 30
0.0
 10
-44.653332
 20
-2.324973
 30
0.0
 10
-44.679887
 20
-1.976369
 30
0.0
 10
-44.889737
 20
-1.488686
 30
0.0
 10
-45.209004
 20
-1.069004
 30
0.0
 10
-45.628687
 20
-0.749737
 30
0.0
 10
-46.116369
 20
-0.539887
 30
0.0
 10
-46.464974
 20
-0.513332
 30
0.0
 10
-46.640000
 20
-0.500000
 30
0.0
 11
-44.640000
 21
-2.500000
 31
0.0
 11
-44.708521
 21
-1.980953
 31
0.0
 11
-44.907217
 21
-1.501259
 31
0.0
 11
-45.225786
 21
-1.085786
 31
0.0
 11
-45.641259
 21
-0.767217
 31
0.0
 11
-46.120954
 21
-0.568521
 31
0.0
 11
-46.640000
 21
-0.500000
 31
0.0
  0
SPLINE
  5
147
100
AcDbEntity
  8
0
 62
7
100
AcDbSpline
 70
0
 71
3
 72
10
 73
6
 74
4
 40
0.000000
 40
0.000000
 40
0.000000
 40
0.000000
 40
0.820189
 40
1.624552
 40
2.444741
 40
2.444741
 40
2.444741
 40
2.444741
 10
-47.498932
 20
-0.500000
 30
0.0
 10
-47.773049
 20
-0.533699
 30
0.0
 10
-48.315994
 20
-0.600448
 30
0.0
 10
-49.017493
 20
-1.096482
 30
0.0
 10
-49.261406
 20
-1.586126
 30
0.0
 10
-49.384550
 20
-1.833333
 30
0.0
 11
-47.498932
 21
-0.500000
 31
0.0
 11
-48.301709
 21
-0.668103
 31
0.0
 11
-48.958469
 21
-1.132502
 31
0.0
 11
-49.384550
 21
-1.833333
 31
0.0
  0
SPLINE
  5
148
100
AcDbEntity
  8
0
 62
7
100
AcDbSpline
 70
0
 71
3
 72
13
 73
9
 74
7
 40
0.000000
 40
0.000000
 40
0.000000
 40
0.000000
 40
2.255520
 40
4.467517
 40
6.723037
 40
8.978556
 40
11.190554
 40
13.446074
 40
13.446074
 40
13.446074
 40
13.446074
 10
-59.755450
 20
-1.833333
 30
0.0
 10
-59.416802
 20
-2.516717
 30
0.0
 10
-58.746041
 20
-3.870297
 30
0.0
 10
-56.816921
 20
-5.181888
 30
0.0
 10
-54.570000
 20
-5.660605
 30
0.0
 10
-52.323079
 20
-5.181888
 30
0.0
 10
-50.393959
 20
-3.870297
 30
0.0
 10
-49.723198
 20
-2.516717
 30
0.0
 10
-49.384550
 20
-1.833333
 30
0.0
 11
-59.755450
 21
-1.833333
 31
0.0
 11
-58.583726
 21
-3.760620
 31
0.0
 11
-56.777637
 21
-5.037717
 31
0.0
 11
-54.570000
 21
-5.500000
 31
0.0
 11
-52.362363
 21
-5.037717
 31
0.0
 11
-50.556274
 21
-3.760620
 31
0.0
 11
-49.384550
 21
-1.833333
 31
0.0
  0
LINE
  5
149
100
AcDbEntity
  8
0
 62
7
100
AcDbLine
 10
-64.497501
 20
-0.500000
 30
0.0
 11
-61.641068
 21
-0.500000
 31
0.0
  0
SPLINE
  5
14a
100
AcDbEntity
  8
0
 62
7
100
AcDbSpline
 70
0
 71
3
 72
10
 73
6
 74
4
 40
0.000000
 40
0.000000
 40
0.000000
 40
0.000000
 40
0.820189
 40
1.624552
 40
2.444741
 40
2.444741
 40
2.444741
 40
2.444741
 10
-59.755450
 20
-1.833333
 30
0.0
 10
-59.878594
 20
-1.586126
 30
0.0
 10
-60.122507
 20
-1.096482
 30
0.0
 10
-60.824005
 20
-0.600448
 30
0.0
 10
-61.366951
 20
-0.533699
 30
0.0
 10
-61.641068
 20
-0.500000
 30
0.0
 11
-59.755450
 21
-1.833333
 31
0.0
 11
-60.181531
 21
-1.132502
 31
0.0
 11
-60.838290
 21
-0.668103
 31
0.0
 11
-61.641068
 21
-0.500000
 31
0.0
  0
SPLINE
  5
14b
100
AcDbEntity
  8
0
 62
7
100
AcDbSpline
 70
0
 71
3
 72
10
 73
6
 74
4
 40
0.000000
 40
0.000000
 40
0.000000
 40
0.000000
 40
0.709069
 40
1.407685
 40
2.116754
 40
2.116754
 40
2.116754
 40
2.116754
 10
-64.497501
 20
-0.500000
 30
0.0
 10
-64.734271
 20
-0.525160
 30
0.0
 10
-65.204321
 20
-0.575108
 30
0.0
 10
-65.837262
 20
-0.947634
 30
0.0
 10
-66.109111
 20
-1.334338
 30
0.0
 10
-66.246044
 20
-1.529126
 30
0.0
 11
-64.497501
 21
-0.500000
 31
0.0
 11
-65.195346
 21
-0.625663
 31
0.0
 11
-65.797420
 21
-0.980022
 31
0.0
 11
-66.246044
 21
-1.529126
 31
0.0
  0
SPLINE
  5
14c
100
AcDbEntity
  8
0
 62
7
100
AcDbSpline
 70
0
 71
3
 72
13
 73
9
 74
7
 40
0.000000
 40
0.000000
 40
0.000000
 40
0.000000
 40
1.116784
 40
2.217103
 40
3.333887
 40
4.450670
 40
5.550990
 40
6.667774
 40
6.667774
 40
6.667774
 40
6.667774
 10
-71.753956
 20
-1.529126
 30
0.0
 10
-71.538285
 20
-1.837441
 30
0.0
 10
-71.110124
 20
-2.449526
 30
0.0
 10
-70.113242
 20
-3.013707
 30
0.0
 10
-69.000000
 20
-3.218652
 30
0.0
 10
-67.886758
 20
-3.013707
 30
0.0
 10
-66.889876
 20
-2.449526
 30
0.0
 10
-66.461715
 20
-1.837441
 30
0.0
 10
-66.246044
 20
-1.529126
 30
0.0
 11
-71.753956
 21
-1.529126
 31
0.0
 11
-71.047373
 21
-2.393965
 31
0.0
 11
-70.099106
 21
-2.952080
 31
0.0
 11
-69.000000
 21
-3.150000
 31
0.0
 11
-67.900894
 21
-2.952080
 31
0.0
 11
-66.952627
 21
-2.393965
 31
0.0
 11
-66.246044
 21
-1.529126
 31
0.0
  0
LINE
  5
14d
100
AcDbEntity
  8
0
 62
7
100
AcDbLine
 10
-74.000000
 20
-0.500000
 30
0.0
 11
-73.502499
 21
-0.500000
 31
0.0
  0
SPLINE
  5
14e
100
AcDbEntity
  8
0
 62
7
100
AcDbSpline
 70
0
 71
3
 72
10
 73
6
 74
4
 40
0.000000
 40
0.000000
 40
0.000000
 40
0.000000
 40
0.709069
 40
1.407685
 40
2.116754
 40
2.116754
 40
2.116754
 40
2.116754
 10
-71.753956
 20
-1.529126
 30
0.0
 10
-71.890889
 20
-1.334338
 30
0.0
 10
-72.162738
 20
-0.947634
 30
0.0
 10
-72.795679
 20
-0.575108
 30
0.0
 10
-73.265729
 20
-0.525160
 30
0.0
 10
-73.502499
 20
-0.500000
 30
0.0
 11
-71.753956
 21
-1.529126
 31
0.0
 11
-72.202580
 21
-0.980022
 31
0.0
 11
-72.804654
 21
-0.625663
 31
0.0
 11
-73.502499
 21
-0.500000
 31
0.0
  0
LINE
  5
14f
100
AcDbEntity
  8
0
 62
7
100
AcDbLine
 10
-76.000000
 20
-2.500000
 30
0.0
 11
-76.000000
 21
-9.000000
 31
0.0
  0
SPLINE
  5
150
100
AcDbEntity
  8
0
 62
7
100
AcDbSpline
 70
0
 71
3
 72
13
 73
9
 74
7
 40
0.000000
 40
0.000000
 40
0.000000
 40
0.000000
 40
0.523550
 40
1.042767
 40
1.566317
 40
2.089867
 40
2.609084
 40
3.132634
 40
3.132634
 40
3.132634
 40
3.132634
 10
-74.000000
 20
-0.500000
 30
0.0
 10
-74.175026
 20
-0.513332
 30
0.0
 10
-74.523631
 20
-0.539887
 30
0.0
 10
-75.011313
 20
-0.749737
 30
0.0
 10
-75.430996
 20
-1.069004
 30
0.0
 10
-75.750263
 20
-1.488686
 30
0.0
 10
-75.960113
 20
-1.976369
 30
0.0
 10
-75.986668
 20
-2.324973
 30
0.0
 10
-76.000000
 20
-2.500000
 30
0.0
 11
-74.000000
 21
-0.500000
 31
0.0
 11
-74.519046
 21
-0.568521
 31
0.0
 11
-74.998741
 21
-0.767217
 31
0.0
 11
-75.414214
 21
-1.085786
 31
0.0
 11
-75.732783
 21
-1.501259
 31
0.0
 11
-75.931479
 21
-1.980953
 31
0.0
 11
-76.000000
 21
-2.500000
 31
0.0
  0
LINE
  5
151
100
AcDbEntity
  8
0
 62
7
100
AcDbLine
 10
-69.000000
 20
-16.000000
 30
0.0
 11
-67.000000
 21
-16.000000
 31
0.0
  0
SPLINE
  5
152
100
AcDbEntity
  8
0
 62
7
100
AcDbSpline
 70
0
 71
3
 72
10
 73
6
 74
4
 40
0.000000
 40
0.000000
 40
0.000000
 40
0.000000
 40
3.660014
 40
7.211473
 40
10.871487
 40
10.871487
 40
10.871487
 40
10.871487
 10
-76.000000
 20
-9.000000
 30
0.0
 10
-75.807464
 20
-10.226581
 30
0.0
 10
-75.428102
 20
-12.643362
 30
0.0
 10
-72.643362
 20
-15.428102
 30
0.0
 10
-70.226581
 20
-15.807464
 30
0.0
 10
-69.000000
 20
-16.000000
 30
0.0
 11
-76.000000
 21
-9.000000
 31
0.0
 11
-75.044295
 21
-12.533034
 31
0.0
 11
-72.533034
 21
-15.044295
 31
0.0
 11
-69.000000
 21
-16.000000
 31
0.0
  0
LINE
  5
153
100
AcDbEntity
  8
0
 62
7
100
AcDbLine
 10
-62.000000
 20
-21.000000
 30
0.0
 11
-62.000000
 21
-35.500000
 31
0.0
  0
SPLINE
  5
154
100
AcDbEntity
  8
0
 62
7
100
AcDbSpline
 70
0
 71
3
 72
13
 73
9
 74
7
 40
0.000000
 40
0.000000
 40
0.000000
 40
0.000000
 40
1.308874
 40
2.606918
 40
3.915792
 40
5.224666
 40
6.522710
 40
7.831584
 40
7.831584
 40
7.831584
 40
7.831584
 10
-62.000000
 20
-21.000000
 30
0.0
 10
-62.033331
 20
-20.562434
 30
0.0
 10
-62.099718
 20
-19.690922
 30
0.0
 10
-62.624344
 20
-18.471717
 30
0.0
 10
-63.422510
 20
-17.422510
 30
0.0
 10
-64.471717
 20
-16.624344
 30
0.0
 10
-65.690922
 20
-16.099718
 30
0.0
 10
-66.562434
 20
-16.033331
 30
0.0
 10
-67.000000
 20
-16.000000
 30
0.0
 11
-62.000000
 21
-21.000000
 31
0.0
 11
-62.171302
 21
-19.702384
 31
0.0
 11
-62.668042
 21
-18.503149
 31
0.0
 11
-63.464466
 21
-17.464466
 31
0.0
 11
-64.503148
 21
-16.668042
 31
0.0
 11
-65.702384
 21
-16.171303
 31
0.0
 11
-67.000000
 21
-16.000000
 31
0.0
  0
LINE
  5
155
100
AcDbEntity
  8
0
 62
7
100
AcDbLine
 10
-44.500000
 20
-53.000000
 30
0.0
 11
44.500000
 21
-53.000000
 31
0.0
  0
SPLINE
  5
156
100
AcDbEntity
  8
0
 62
7
100
AcDbSpline
 70
0
 71
3
 72
10
 73
6
 74
4
 40
0.000000
 40
0.000000
 40
0.000000
 40
0.000000
 40
9.150035
 40
18.028682
 40
27.178717
 40
27.178717
 40
27.178717
 40
27.178717
 10
-62.000000
 20
-35.500000
 30
0.0
 10
-61.518659
 20
-38.566452
 30
0.0
 10
-60.570255
 20
-44.608406
 30
0.0
 10
-53.608406
 20
-51.570255
 30
0.0
 10
-47.566452
 20
-52.518660
 30
0.0
 10
-44.500000
 20
-53.000000
 30
0.0
 11
-62.000000
 21
-35.500000
 31
0.0
 11
-59.610737
 21
-44.332585
 31
0.0
 11
-53.332585
 21
-50.610737
 31
0.0
 11
-44.500000
 21
-53.000000
 31
0.0
  0
LINE
  5
157
100
AcDbEntity
  8
0
 62
7
100
AcDbLine
 10
62.000000
 20
-35.500000
 30
0.0
 11
62.000000
 21
-21.000000
 31
0.0
  0
SPLINE
  5
158
100
AcDbEntity
  8
0
 62
7
100
AcDbSpline
 70
0
 71
3
 72
10
 73
6
 74
4
 40
0.000000
 40
0.000000
 40
0.000000
 40
0.000000
 40
9.150035
 40
18.028682
 40
27.178717
 40
27.178717
 40
27.178717
 40
27.178717
 10
44.500000
 20
-53.000000
 30
0.0
 10
47.566452
 20
-52.518660
 30
0.0
 10
53.608406
 20
-51.570255
 30
0.0
 10
60.570255
 20
-44.608406
 30
0.0
 10
61.518659
 20
-38.566452
 30
0.0
 10
62.000000
 20
-35.500000
 30
0.0
 11
44.500000
 21
-53.000000
 31
0.0
 11
53.332585
 21
-50.610737
 31
0.0
 11
59.610737
 21
-44.332585
 31
0.0
 11
62.000000
 21
-35.500000
 31
0.0
  0
LINE
  5
159
100
AcDbEntity
  8
0
 62
7
100
AcDbLine
 10
67.000000
 20
-16.000000
 30
0.0
 11
69.000000
 21
-16.000000
 31
0.0
  0
SPLINE
  5
15a
100
AcDbEntity
  8
0
 62
7
100
AcDbSpline
 70
0
 71
3
 72
13
 73
9
 74
7
 40
0.000000
 40
0.000000
 40
0.000000
 40
0.000000
 40
1.308874
 40
2.606918
 40
3.915792
 40
5.224666
 40
6.522710
 40
7.831584
 40
7.831584
 40
7.831584
 40
7.831584
 10
67.000000
 20
-16.000000
 30
0.0
 10
66.562434
 20
-16.033331
 30
0.0
 10
65.690922
 20
-16.099718
 30
0.0
 10
64.471717
 20
-16.624344
 30
0.0
 10
63.422510
 20
-17.422510
 30
0.0
 10
62.624344
 20
-18.471717
 30
0.0
 10
62.099718
 20
-19.690922
 30
0.0
 10
62.033331
 20
-20.562434
 30
0.0
 10
62.000000
 20
-21.000000
 30
0.0
 11
67.000000
 21
-16.000000
 31
0.0
 11
65.702384
 21
-16.171303
 31
0.0
 11
64.503148
 21
-16.668042
 31
0.0
 11
63.464466
 21
-17.464466
 31
0.0
 11
62.668042
 21
-18.503149
 31
0.0
 11
62.171302
 21
-19.702384
 31
0.0
 11
62.000000
 21
-21.000000
 31
0.0
  0
LINE
  5
15b
100
AcDbEntity
  8
0
 62
7
100
AcDbLine
 10
76.000000
 20
-9.000000
 30
0.0
 11
76.000000
 21
-2.500000
 31
0.0
  0
SPLINE
  5
15c
100
AcDbEntity
  8
0
 62
7
100
AcDbSpline
 70
0
 71
3
 72
10
 73
6
 74
4
 40
0.000000
 40
0.000000
 40
0.000000
 40
0.000000
 40
3.660014
 40
7.211473
 40
10.871487
 40
10.871487
 40
10.871487
 40
10.871487
 10
69.000000
 20
-16.000000
 30
0.0
 10
70.226581
 20
-15.807464
 30
0.0
 10
72.643362
 20
-15.428102
 30
0.0
 10
75.428102
 20
-12.643362
 30
0.0
 10
75.807464
 20
-10.226581
 30
0.0
 10
76.000000
 20
-9.000000
 30
0.0
 11
69.000000
 21
-16.000000
 31
0.0
 11
72.533034
 21
-15.044295
 31
0.0
 11
75.044295
 21
-12.533034
 31
0.0
 11
76.000000
 21
-9.000000
 31
0.0
  0
SPLINE
  5
15d
100
AcDbEntity
  8
0
 62
7
100
AcDbSpline
 70
0
 71
3
 72
13
 73
9
 74
7
 40
0.000000
 40
0.000000
 40
0.000000
 40
0.000000
 40
0.523550
 40
1.042767
 40
1.566317
 40
2.089867
 40
2.609084
 40
3.132634
 40
3.132634
 40
3.132634
 40
3.132634
 10
76.000000
 20
-2.500000
 30
0.0
 10
75.986668
 20
-2.324973
 30
0.0
 10
75.960113
 20
-1.976369
 30
0.0
 10
75.750263
 20
-1.488686
 30
0.0
 10
75.430996
 20
-1.069004
 30
0.0
 10
75.011313
 20
-0.749737
 30
0.0
 10
74.523631
 20
-0.539887
 30
0.0
 10
74.175026
 20
-0.513332
 30
0.0
 10
74.000000
 20
-0.500000
 30
0.0
 11
76.000000
 21
-2.500000
 31
0.0
 11
75.931479
 21
-1.980953
 31
0.0
 11
75.732783
 21
-1.501259
 31
0.0
 11
75.414214
 21
-1.085786
 31
0.0
 11
74.998741
 21
-0.767217
 31
0.0
 11
74.519046
 21
-0.568521
 31
0.0
 11
74.000000
 21
-0.500000
 31
0.0
  0
LINE
  5
15e
100
AcDbEntity
  8
0
 62
7
100
AcDbLine
 10
-52.990000
 20
-20.000000
 30
0.0
 11
-52.990000
 21
-20.000000
 31
0.0
  0
SPLINE
  5
15f
100
AcDbEntity
  8
0
 62
7
100
AcDbSpline
 70
0
 71
3
 72
25
 73
21
 74
19
 40
0.000000
 40
0.000000
 40
0.000000
 40
0.000000
 40
0.575942
 40
1.143638
 40
1.719580
 40
2.295522
 40
2.863218
 40
3.439160
 40
4.015102
 40
4.582798
 40
5.158740
 40
5.734682
 40
6.302378
 40
6.878320
 40
7.454262
 40
8.021958
 40
8.597900
 40
9.173842
 40
9.741538
 40
10.317480
 40
10.317480
 40
10.317480
 40
10.317480
 10
-52.990000
 20
-20.000000
 30
0.0
 10
-53.009645
 20
-19.807031
 30
0.0
 10
-53.048654
 20
-19.423857
 30
0.0
 10
-53.352309
 20
-18.917418
 30
0.0
 10
-53.797043
 20
-18.540876
 30
0.0
 10
-54.347830
 20
-18.341164
 30
0.0
 10
-54.932296
 20
-18.341164
 30
0.0
 10
-55.482315
 20
-18.540876
 30
0.0
 10
-55.930117
 20
-18.917418
 30
0.0
 10
-56.222371
 20
-19.423857
 30
0.0
 10
-56.324058
 20
-20.000000
 30
0.0
 10
-56.222371
 20
-20.576142
 30
0.0
 10
-55.930117
 20
-21.082581
 30
0.0
 10
-55.482315
 20
-21.459123
 30
0.0
 10
-54.932296
 20
-21.658836
 30
0.0
 10
-54.347830
 20
-21.658836
 30
0.0
 10
-53.797043
 20
-21.459123
 30
0.0
 10
-53.352309
 20
-21.082581
 30
0.0
 10
-53.048654
 20
-20.576142
 30
0.0
 10
-53.009645
 20
-20.192968
 30
0.0
 10
-52.990000
 20
-20.000000
 30
0.0
 11
-52.990000
 21
-20.000000
 31
0.0
 11
-53.090260
 21
-19.432851
 31
0.0
 11
-53.373972
 21
-18.941134
 31
0.0
 11
-53.814803
 21
-18.570489
 31
0.0
 11
-54.356152
 21
-18.373892
 31
0.0
 11
-54.923848
 21
-18.373892
 31
0.0
 11
-55.465197
 21
-18.570489
 31
0.0
 11
-55.906028
 21
-18.941134
 31
0.0
 11
-56.189740
 21
-19.432851
 31
0.0
 11
-56.290000
 21
-20.000000
 31
0.0
 11
-56.189740
 21
-20.567148
 31
0.0
 11
-55.906028
 21
-21.058865
 31
0.0
 11
-55.465197
 21
-21.429511
 31
0.0
 11
-54.923848
 21
-21.626108
 31
0.0
 11
-54.356152
 21
-21.626108
 31
0.0
 11
-53.814803
 21
-21.429511
 31
0.0
 11
-53.373972
 21
-21.058865
 31
0.0
 11
-53.090260
 21
-20.567148
 31
0.0
 11
-52.990000
 21
-20.000000
 31
0.0
  0
LINE
  5
160
100
AcDbEntity
  8
0
 62
7
100
AcDbLine
 10
-18.350000
 20
-45.215000
 30
0.0
 11
-18.350000
 21
-45.215000
 31
0.0
  0
SPLINE
  5
161
100
AcDbEntity
  8
0
 62
7
100
AcDbSpline
 70
0
 71
3
 72
25
 73
21
 74
19
 40
0.000000
 40
0.000000
 40
0.000000
 40
0.000000
 40
0.575942
 40
1.143638
 40
1.719580
 40
2.295522
 40
2.863218
 40
3.439160
 40
4.015102
 40
4.582798
 40
5.158740
 40
5.734682
 40
6.302378
 40
6.878320
 40
7.454262
 40
8.021958
 40
8.597900
 40
9.173842
 40
9.741538
 40
10.317480
 40
10.317480
 40
10.317480
 40
10.317480
 10
-18.350000
 20
-45.215000
 30
0.0
 10
-18.369645
 20
-45.022032
 30
0.0
 10
-18.408653
 20
-44.638857
 30
0.0
 10
-18.712309
 20
-44.132419
 30
0.0
 10
-19.157042
 20
-43.755877
 30
0.0
 10
-19.707830
 20
-43.556164
 30
0.0
 10
-20.292296
 20
-43.556164
 30
0.0
 10
-20.842315
 20
-43.755877
 30
0.0
 10
-21.290117
 20
-44.132419
 30
0.0
 10
-21.582371
 20
-44.638857
 30
0.0
 10
-21.684058
 20
-45.215000
 30
0.0
 10
-21.582371
 20
-45.791143
 30
0.0
 10
-21.290117
 20
-46.297582
 30
0.0
 10
-20.842315
 20
-46.674124
 30
0.0
 10
-20.292296
 20
-46.873836
 30
0.0
 10
-19.707830
 20
-46.873836
 30
0.0
 10
-19.157042
 20
-46.674124
 30
0.0
 10
-18.712309
 20
-46.297582
 30
0.0
 10
-18.408653
 20
-45.791143
 30
0.0
 10
-18.369645
 20
-45.407969
 30
0.0
 10
-18.350000
 20
-45.215000
 30
0.0
 11
-18.350000
 21
-45.215000
 31
0.0
 11
-18.450260
 21
-44.647852
 31
0.0
 11
-18.733972
 21
-44.156135
 31
0.0
 11
-19.174803
 21
-43.785489
 31
0.0
 11
-19.716152
 21
-43.588892
 31
0.0
 11
-20.283848
 21
-43.588892
 31
0.0
 11
-20.825197
 21
-43.785489
 31
0.0
 11
-21.266028
 21
-44.156135
 31
0.0
 11
-21.549740
 21
-44.647852
 31
0.0
 11
-21.650000
 21
-45.215000
 31
0.0
 11
-21.549740
 21
-45.782149
 31
0.0
 11
-21.266028
 21
-46.273866
 31
0.0
 11
-20.825197
 21
-46.644511
 31
0.0
 11
-20.283848
 21
-46.841108
 31
0.0
 11
-19.716152
 21
-46.841108
 31
0.0
 11
-19.174803
 21
-46.644511
 31
0.0
 11
-18.733972
 21
-46.273866
 31
0.0
 11
-18.450260
 21
-45.782149
 31
0.0
 11
-18.350000
 21
-45.215000
 31
0.0
  0
LINE
  5
162
100
AcDbEntity
  8
0
 62
7
100
AcDbLine
 10
21.650000
 20
-45.215000
 30
0.0
 11
21.650000
 21
-45.215000
 31
0.0
  0
SPLINE
  5
163
100
AcDbEntity
  8
0
 62
7
100
AcDbSpline
 70
0
 71
3
 72
25
 73
21
 74
19
 40
0.000000
 40
0.000000
 40
0.000000
 40
0.000000
 40
0.575942
 40
1.143638
 40
1.719580
 40
2.295522
 40
2.863218
 40
3.439160
 40
4.015102
 40
4.582798
 40
5.158740
 40
5.734682
 40
6.302378
 40
6.878320
 40
7.454262
 40
8.021958
 40
8.597900
 40
9.173842
 40
9.741538
 40
10.317480
 40
10.317480
 40
10.317480
 40
10.317480
 10
21.650000
 20
-45.215000
 30
0.0
 10
21.630355
 20
-45.022032
 30
0.0
 10
21.591346
 20
-44.638857
 30
0.0
 10
21.287691
 20
-44.132419
 30
0.0
 10
20.842957
 20
-43.755877
 30
0.0
 10
20.292170
 20
-43.556164
 30
0.0
 10
19.707704
 20
-43.556164
 30
0.0
 10
19.157685
 20
-43.755877
 30
0.0
 10
18.709883
 20
-44.132419
 30
0.0
 10
18.417629
 20
-44.638857
 30
0.0
 10
18.315942
 20
-45.215000
 30
0.0
 10
18.417629
 20
-45.791143
 30
0.0
 10
18.709883
 20
-46.297582
 30
0.0
 10
19.157685
 20
-46.674124
 30
0.0
 10
19.707704
 20
-46.873836
 30
0.0
 10
20.292170
 20
-46.873836
 30
0.0
 10
20.842957
 20
-46.674124
 30
0.0
 10
21.287691
 20
-46.297582
 30
0.0
 10
21.591346
 20
-45.791143
 30
0.0
 10
21.630355
 20
-45.407969
 30
0.0
 10
21.650000
 20
-45.215000
 30
0.0
 11
21.650000
 21
-45.215000
 31
0.0
 11
21.549740
 21
-44.647852
 31
0.0
 11
21.266028
 21
-44.156135
 31
0.0
 11
20.825197
 21
-43.785489
 31
0.0
 11
20.283848
 21
-43.588892
 31
0.0
 11
19.716152
 21
-43.588892
 31
0.0
 11
19.174803
 21
-43.785489
 31
0.0
 11
18.733972
 21
-44.156135
 31
0.0
 11
18.450260
 21
-44.647852
 31
0.0
 11
18.350000
 21
-45.215000
 31
0.0
 11
18.450260
 21
-45.782149
 31
0.0
 11
18.733972
 21
-46.273866
 31
0.0
 11
19.174803
 21
-46.644511
 31
0.0
 11
19.716152
 21
-46.841108
 31
0.0
 11
20.283848
 21
-46.841108
 31
0.0
 11
20.825197
 21
-46.644511
 31
0.0
 11
21.266028
 21
-46.273866
 31
0.0
 11
21.549740
 21
-45.782149
 31
0.0
 11
21.650000
 21
-45.215000
 31
0.0
  0
LINE
  5
164
100
AcDbEntity
  8
0
 62
7
100
AcDbLine
 10
56.290000
 20
-20.000000
 30
0.0
 11
56.290000
 21
-20.000000
 31
0.0
  0
SPLINE
  5
165
100
AcDbEntity
  8
0
 62
7
100
AcDbSpline
 70
0
 71
3
 72
25
 73
21
 74
19
 40
0.000000
 40
0.000000
 40
0.000000
 40
0.000000
 40
0.575942
 40
1.143638
 40
1.719580
 40
2.295522
 40
2.863218
 40
3.439160
 40
4.015102
 40
4.582798
 40
5.158740
 40
5.734682
 40
6.302378
 40
6.878320
 40
7.454262
 40
8.021958
 40
8.597900
 40
9.173842
 40
9.741538
 40
10.317480
 40
10.317480
 40
10.317480
 40
10.317480
 10
56.290000
 20
-20.000000
 30
0.0
 10
56.270355
 20
-19.807031
 30
0.0
 10
56.231347
 20
-19.423857
 30
0.0
 10
55.927691
 20
-18.917418
 30
0.0
 10
55.482958
 20
-18.540876
 30
0.0
 10
54.932170
 20
-18.341164
 30
0.0
 10
54.347704
 20
-18.341164
 30
0.0
 10
53.797685
 20
-18.540876
 30
0.0
 10
53.349883
 20
-18.917418
 30
0.0
 10
53.057629
 20
-19.423857
 30
0.0
 10
52.955942
 20
-20.000000
 30
0.0
 10
53.057629
 20
-20.576142
 30
0.0
 10
53.349883
 20
-21.082581
 30
0.0
 10
53.797685
 20
-21.459123
 30
0.0
 10
54.347704
 20
-21.658836
 30
0.0
 10
54.932170
 20
-21.658836
 30
0.0
 10
55.482958
 20
-21.459123
 30
0.0
 10
55.927691
 20
-21.082581
 30
0.0
 10
56.231347
 20
-20.576142
 30
0.0
 10
56.270355
 20
-20.192968
 30
0.0
 10
56.290000
 20
-20.000000
 30
0.0
 11
56.290000
 21
-20.000000
 31
0.0
 11
56.189740
 21
-19.432851
 31
0.0
 11
55.906028
 21
-18.941134
 31
0.0
 11
55.465197
 21
-18.570489
 31
0.0
 11
54.923848
 21
-18.373892
 31
0.0
 11
54.356152
 21
-18.373892
 31
0.0
 11
53.814803
 21
-18.570489
 31
0.0
 11
53.373972
 21
-18.941134
 31
0.0
 11
53.090260
 21
-19.432851
 31
0.0
 11
52.990000
 21
-20.000000
 31
0.0
 11
53.090260
 21
-20.567148
 31
0.0
 11
53.373972
 21
-21.058865
 31
0.0
 11
53.814803
 21
-21.429511
 31
0.0
 11
54.356152
 21
-21.626108
 31
0.0
 11
54.923848
 21
-21.626108
 31
0.0
 11
55.465197
 21
-21.429511
 31
0.0
 11
55.906028
 21
-21.058865
 31
0.0
 11
56.189740
 21
-20.567148
 31
0.0
 11
56.290000
 21
-20.000000
 31
0.0
  0
LINE
  5
166
100
AcDbEntity
  8
0
 62
7
100
AcDbLine
 10
53.100000
 20
-39.610000
 30
0.0
 11
53.100000
 21
-39.610000
 31
0.0
  0
SPLINE
  5
167
100
AcDbEntity
  8
0
 62
7
100
AcDbSpline
 70
0
 71
3
 72
25
 73
21
 74
19
 40
0.000000
 40
0.000000
 40
0.000000
 40
0.000000
 40
1.919303
 40
3.811137
 40
5.730440
 40
7.649742
 40
9.541577
 40
11.460879
 40
13.380182
 40
15.272016
 40
17.191319
 40
19.110622
 40
21.002456
 40
22.921759
 40
24.841061
 40
26.732896
 40
28.652198
 40
30.571501
 40
32.463335
 40
34.382638
 40
34.382638
 40
34.382638
 40
34.382638
 10
53.100000
 20
-39.610000
 30
0.0
 10
53.034286
 20
-38.966969
 30
0.0
 10
52.903799
 20
-37.690111
 30
0.0
 10
51.891432
 20
-36.002723
 30
0.0
 10
50.409156
 20
-34.748195
 30
0.0
 10
48.573636
 20
-34.082835
 30
0.0
 10
46.625942
 20
-34.082835
 30
0.0
 10
44.792993
 20
-34.748195
 30
0.0
 10
43.300452
 20
-36.002723
 30
0.0
 10
42.326224
 20
-37.690111
 30
0.0
 10
41.986073
 20
-39.610000
 30
0.0
 10
42.326224
 20
-41.529889
 30
0.0
 10
43.300452
 20
-43.217276
 30
0.0
 10
44.792993
 20
-44.471805
 30
0.0
 10
46.625942
 20
-45.137165
 30
0.0
 10
48.573636
 20
-45.137165
 30
0.0
 10
50.409156
 20
-44.471805
 30
0.0
 10
51.891432
 20
-43.217276
 30
0.0
 10
52.903799
 20
-41.529889
 30
0.0
 10
53.034286
 20
-40.253030
 30
0.0
 10
53.100000
 20
-39.610000
 30
0.0
 11
53.100000
 21
-39.610000
 31
0.0
 11
52.765194
 21
-37.720125
 31
0.0
 11
51.819277
 21
-36.081748
 31
0.0
 11
50.350000
 21
-34.846860
 31
0.0
 11
48.545917
 21
-34.191873
 31
0.0
 11
46.654083
 21
-34.191873
 31
0.0
 11
44.850000
 21
-34.846860
 31
0.0
 11
43.380723
 21
-36.081748
 31
0.0
 11
42.434806
 21
-37.720125
 31
0.0
 11
42.100000
 21
-39.610000
 31
0.0
 11
42.434806
 21
-41.499875
 31
0.0
 11
43.380723
 21
-43.138252
 31
0.0
 11
44.850000
 21
-44.373140
 31
0.0
 11
46.654083
 21
-45.028127
 31
0.0
 11
48.545917
 21
-45.028127
 31
0.0
 11
50.350000
 21
-44.373140
 31
0.0
 11
51.819277
 21
-43.138252
 31
0.0
 11
52.765194
 21
-41.499875
 31
0.0
 11
53.100000
 21
-39.610000
 31
0.0
  0
LINE
  5
168
100
AcDbEntity
  8
0
 62
7
100
AcDbLine
 10
5.500000
 20
-44.570000
 30
0.0
 11
5.500000
 21
-44.570000
 31
0.0
  0
SPLINE
  5
169
100
AcDbEntity
  8
0
 62
7
100
AcDbSpline
 70
0
 71
3
 72
25
 73
21
 74
19
 40
0.000000
 40
0.000000
 40
0.000000
 40
0.000000
 40
1.919303
 40
3.811137
 40
5.730440
 40
7.649742
 40
9.541577
 40
11.460879
 40
13.380182
 40
15.272016
 40
17.191319
 40
19.110622
 40
21.002456
 40
22.921759
 40
24.841061
 40
26.732896
 40
28.652198
 40
30.571501
 40
32.463335
 40
34.382638
 40
34.382638
 40
34.382638
 40
34.382638
 10
5.500000
 20
-44.570000
 30
0.0
 10
5.434286
 20
-43.926970
 30
0.0
 10
5.303799
 20
-42.650111
 30
0.0
 10
4.291432
 20
-40.962724
 30
0.0
 10
2.809156
 20
-39.708195
 30
0.0
 10
0.973636
 20
-39.042835
 30
0.0
 10
-0.974057
 20
-39.042835
 30
0.0
 10
-2.807007
 20
-39.708195
 30
0.0
 10
-4.299547
 20
-40.962724
 30
0.0
 10
-5.273776
 20
-42.650111
 30
0.0
 10
-5.613927
 20
-44.570000
 30
0.0
 10
-5.273776
 20
-46.489889
 30
0.0
 10
-4.299547
 20
-48.177277
 30
0.0
 10
-2.807007
 20
-49.431805
 30
0.0
 10
-0.974057
 20
-50.097165
 30
0.0
 10
0.973636
 20
-50.097165
 30
0.0
 10
2.809156
 20
-49.431805
 30
0.0
 10
4.291432
 20
-48.177277
 30
0.0
 10
5.303799
 20
-46.489889
 30
0.0
 10
5.434286
 20
-45.213031
 30
0.0
 10
5.500000
 20
-44.570000
 30
0.0
 11
5.500000
 21
-44.570000
 31
0.0
 11
5.165194
 21
-42.680125
 31
0.0
 11
4.219277
 21
-41.041748
 31
0.0
 11
2.750000
 21
-39.806860
 31
0.0
 11
0.945917
 21
-39.151873
 31
0.0
 11
-0.945917
 21
-39.151873
 31
0.0
 11
-2.750000
 21
-39.806860
 31
0.0
 11
-4.219277
 21
-41.041748
 31
0.0
 11
-5.165194
 21
-42.680125
 31
0.0
 11
-5.500000
 21
-44.570000
 31
0.0
 11
-5.165194
 21
-46.459875
 31
0.0
 11
-4.219277
 21
-48.098252
 31
0.0
 11
-2.750000
 21
-49.333140
 31
0.0
 11
-0.945917
 21
-49.988127
 31
0.0
 11
0.945917
 21
-49.988127
 31
0.0
 11
2.750000
 21
-49.333140
 31
0.0
 11
4.219277
 21
-48.098252
 31
0.0
 11
5.165194
 21
-46.459875
 31
0.0
 11
5.500000
 21
-44.570000
 31
0.0
  0
LINE
  5
16a
100
AcDbEntity
  8
0
 62
7
100
AcDbLine
 10
-42.100000
 20
-39.610000
 30
0.0
 11
-42.100000
 21
-39.610000
 31
0.0
  0
SPLINE
  5
16b
100
AcDbEntity
  8
0
 62
7
100
AcDbSpline
 70
0
 71
3
 72
25
 73
21
 74
19
 40
0.000000
 40
0.000000
 40
0.000000
 40
0.000000
 40
1.919303
 40
3.811137
 40
5.730440
 40
7.649742
 40
9.541577
 40
11.460879
 40
13.380182
 40
15.272016
 40
17.191319
 40
19.110622
 40
21.002456
 40
22.921759
 40
24.841061
 40
26.732896
 40
28.652198
 40
30.571501
 40
32.463335
 40
34.382638
 40
34.382638
 40
34.382638
 40
34.382638
 10
-42.100000
 20
-39.610000
 30
0.0
 10
-42.165714
 20
-38.966969
 30
0.0
 10
-42.296201
 20
-37.690111
 30
0.0
 10
-43.308567
 20
-36.002723
 30
0.0
 10
-44.790844
 20
-34.748195
 30
0.0
 10
-46.626364
 20
-34.082835
 30
0.0
 10
-48.574057
 20
-34.082835
 30
0.0
 10
-50.407007
 20
-34.748195
 30
0.0
 10
-51.899547
 20
-36.002723
 30
0.0
 10
-52.873776
 20
-37.690111
 30
0.0
 10
-53.213927
 20
-39.610000
 30
0.0
 10
-52.873776
 20
-41.529889
 30
0.0
 10
-51.899547
 20
-43.217276
 30
0.0
 10
-50.407007
 20
-44.471805
 30
0.0
 10
-48.574057
 20
-45.137165
 30
0.0
 10
-46.626364
 20
-45.137165
 30
0.0
 10
-44.790844
 20
-44.471805
 30
0.0
 10
-43.308567
 20
-43.217276
 30
0.0
 10
-42.296201
 20
-41.529889
 30
0.0
 10
-42.165714
 20
-40.253030
 30
0.0
 10
-42.100000
 20
-39.610000
 30
0.0
 11
-42.100000
 21
-39.610000
 31
0.0
 11
-42.434806
 21
-37.720125
 31
0.0
 11
-43.380723
 21
-36.081748
 31
0.0
 11
-44.850000
 21
-34.846860
 31
0.0
 11
-46.654083
 21
-34.191873
 31
0.0
 11
-48.545917
 21
-34.191873
 31
0.0
 11
-50.350000
 21
-34.846860
 31
0.0
 11
-51.819277
 21
-36.081748
 31
0.0
 11
-52.765194
 21
-37.720125
 31
0.0
 11
-53.100000
 21
-39.610000
 31
0.0
 11
-52.765194
 21
-41.499875
 31
0.0
 11
-51.819277
 21
-43.138252
 31
0.0
 11
-50.350000
 21
-44.373140
 31
0.0
 11
-48.545917
 21
-45.028127
 31
0.0
 11
-46.654083
 21
-45.028127
 31
0.0
 11
-44.850000
 21
-44.373140
 31
0.0
 11
-43.380723
 21
-43.138252
 31
0.0
 11
-42.434806
 21
-41.499875
 31
0.0
 11
-42.100000
 21
-39.610000
 31
0.0
  0
ENDSEC
  0
SECTION
  2
OBJECTS
  0
DICTIONARY
  5
C
330
0
100
AcDbDictionary
  3
ACAD_GROUP
350
D
  3
ACAD_MLINESTYLE
350
17
  0
DICTIONARY
  5
D
330
C
100
AcDbDictionary
  0
DICTIONARY
  5
1A
330
C
100
AcDbDictionary
  0
DICTIONARY
  5
17
330
C
100
AcDbDictionary
  3
STANDARD
350
18
  0
DICTIONARY
  5
19
330
C
100
AcDbDictionary
  0
ENDSEC
  0
EOF
