  0
SECTION
  2
HEADER
  9
$ACADVER
  1
AC1014
  9
$HANDSEED
  5
FFFF
  9
$MEASUREMENT
 70
     1
  0
ENDSEC
  0
SECTION
  2
TABLES
  0
TABLE
  2
VPORT
  5
8
330
0
100
AcDbSymbolTable
 70
     4
  0
VPORT
  5
2E
330
8
100
AcDbSymbolTableRecord
100
AcDbViewportTableRecord
  2
*ACTIVE
 70
     0
 10
0.0
 20
0.0
 11
1.0
 21
1.0
 12
210.0
 22
148.5
 13
0.0
 23
0.0
 14
10.0
 24
10.0
 15
10.0
 25
10.0
 16
0.0
 26
0.0
 36
1.0
 17
0.0
 27
0.0
 37
0.0
 40
341.0
 41
1.24
 42
50.0
 43
0.0
 44
0.0
 50
0.0
 51
0.0
 71
     0
 72
   100
 73
     1
 74
     3
 75
     0
 76
     0
 77
     0
 78
     0
  0
ENDTAB
  0
TABLE
  2
LTYPE
  5
5
330
0
100
AcDbSymbolTable
 70
     1
  0
LTYPE
  5
14
330
5
100
AcDbSymbolTableRecord
100
AcDbLinetypeTableRecord
  2
BYBLOCK
 70
     0
  3

 72
    65
 73
     0
 40
0.0
  0
LTYPE
  5
15
330
5
100
AcDbSymbolTableRecord
100
AcDbLinetypeTableRecord
  2
BYLAYER
 70
     0
  3

 72
    65
 73
     0
 40
0.0
  0
LTYPE
  5
16
330
5
100
AcDbSymbolTableRecord
100
AcDbLinetypeTableRecord
  2
CONTINUOUS
 70
     0
  3
Solid line
 72
    65
 73
     0
 40
0.0
  0
ENDTAB
  0
TABLE
  2
LAYER
  5
2
100
AcDbSymbolTable
 70
1
  0
LAYER
  5
50
100
AcDbSymbolTableRecord
100
AcDbLayerTableRecord
  2
0
 70
0
  6
CONTINUOUS
  0
ENDTAB
  0
TABLE
  2
STYLE
  5
3
330
0
100
AcDbSymbolTable
 70
     1
  0
STYLE
  5
11
330
3
100
AcDbSymbolTableRecord
100
AcDbTextStyleTableRecord
  2
STANDARD
 70
     0
 40
0.0
 41
1.0
 50
0.0
 71
     0
 42
2.5
  3
txt
  4

  0
ENDTAB
  0
TABLE
  2
VIEW
  5
6
330
0
100
AcDbSymbolTable
 70
     0
  0
ENDTAB
  0
TABLE
  2
UCS
  5
7
330
0
100
AcDbSymbolTable
 70
     0
  0
ENDTAB
  0
TABLE
  2
APPID
  5
9
330
0
100
AcDbSymbolTable
 70
     2
  0
APPID
  5
12
330
9
100
AcDbSymbolTableRecord
100
AcDbRegAppTableRecord
  2
ACAD
 70
     0
  0
ENDTAB
  0
TABLE
  2
DIMSTYLE
  5
A
330
0
100
AcDbSymbolTable
 70
     1
  0
DIMSTYLE
105
27
330
A
100
AcDbSymbolTableRecord
100
AcDbDimStyleTableRecord
  2
ISO-25
 70
     0
  3

  4

  5

  6

  7

 40
1.0
 41
2.5
 42
0.625
 43
3.75
 44
1.25
 45
0.0
 46
0.0
 47
0.0
 48
0.0
140
2.5
141
2.5
142
0.0
143
0.03937007874016
144
1.0
145
0.0
146
1.0
147
0.625
 71
     0
 72
     0
 73
     0
 74
     0
 75
     0
 76
     0
 77
     1
 78
     8
170
     0
171
     3
172
     1
173
     0
174
     0
175
     0
176
     0
177
     0
178
     0
270
     2
271
     2
272
     2
273
     2
274
     3
340
11
275
     0
280
     0
281
     0
282
     0
283
     0
284
     8
285
     0
286
     0
287
     3
288
     0
  0
ENDTAB
  0
TABLE
  2
BLOCK_RECORD
  5
1
330
0
100
AcDbSymbolTable
 70
     1
  0
BLOCK_RECORD
  5
1F
330
1
100
AcDbSymbolTableRecord
100
AcDbBlockTableRecord
  2
*MODEL_SPACE
  0
BLOCK_RECORD
  5
1B
330
1
100
AcDbSymbolTableRecord
100
AcDbBlockTableRecord
  2
*PAPER_SPACE
  0
ENDTAB
  0
ENDSEC
  0
SECTION
  2
BLOCKS
  0
BLOCK
  5
20
330
1F
100
AcDbEntity
  8
0
100
AcDbBlockBegin
  2
*MODEL_SPACE
 70
     0
 10
0.0
 20
0.0
 30
0.0
  3
*MODEL_SPACE
  1

  0
ENDBLK
  5
21
330
1F
100
AcDbEntity
  8
0
100
AcDbBlockEnd
  0
BLOCK
  5
1C
330
1B
100
AcDbEntity
 67
     1
  8
0
100
AcDbBlockBegin
  2
*PAPER_SPACE
  1

  0
ENDBLK
  5
1D
330
1B
100
AcDbEntity
 67
     1
  8
0
100
AcDbBlockEnd
  0
ENDSEC
  0
SECTION
  2
ENTITIES
  0
LINE
  5
100
100
AcDbEntity
  8
0
 62
7
100
AcDbLine
 10
56.290000
 20
20.000000
 30
0.0
 11
56.290000
 21
20.000000
 31
0.0
  0
SPLINE
  5
101
100
AcDbEntity
  8
0
 62
7
100
AcDbSpline
 70
0
 71
3
 72
25
 73
21
 74
19
 40
0.000000
 40
0.000000
 40
0.000000
 40
0.000000
 40
0.575942
 40
1.143638
 40
1.719580
 40
2.295522
 40
2.863218
 40
3.439160
 40
4.015102
 40
4.582798
 40
5.158740
 40
5.734682
 40
6.302378
 40
6.878320
 40
7.454262
 40
8.021958
 40
8.597900
 40
9.173842
 40
9.741538
 40
10.317480
 40
10.317480
 40
10.317480
 40
10.317480
 10
56.290000
 20
20.000000
 30
0.0
 10
56.270355
 20
20.192969
 30
0.0
 10
56.231347
 20
20.576143
 30
0.0
 10
55.927691
 20
21.082581
 30
0.0
 10
55.482958
 20
21.459124
 30
0.0
 10
54.932170
 20
21.658836
 30
0.0
 10
54.347704
 20
21.658836
 30
0.0
 10
53.797685
 20
21.459124
 30
0.0
 10
53.349883
 20
21.082581
 30
0.0
 10
53.057629
 20
20.576143
 30
0.0
 10
52.955942
 20
20.000000
 30
0.0
 10
53.057629
 20
19.423857
 30
0.0
 10
53.349883
 20
18.917419
 30
0.0
 10
53.797685
 20
18.540876
 30
0.0
 10
54.347704
 20
18.341164
 30
0.0
 10
54.932170
 20
18.341164
 30
0.0
 10
55.482958
 20
18.540876
 30
0.0
 10
55.927691
 20
18.917419
 30
0.0
 10
56.231347
 20
19.423857
 30
0.0
 10
56.270355
 20
19.807031
 30
0.0
 10
56.290000
 20
20.000000
 30
0.0
 11
56.290000
 21
20.000000
 31
0.0
 11
56.189740
 21
20.567148
 31
0.0
 11
55.906028
 21
21.058865
 31
0.0
 11
55.465197
 21
21.429511
 31
0.0
 11
54.923848
 21
21.626108
 31
0.0
 11
54.356152
 21
21.626108
 31
0.0
 11
53.814803
 21
21.429511
 31
0.0
 11
53.373972
 21
21.058865
 31
0.0
 11
53.090260
 21
20.567148
 31
0.0
 11
52.990000
 21
20.000000
 31
0.0
 11
53.090260
 21
19.432852
 31
0.0
 11
53.373972
 21
18.941135
 31
0.0
 11
53.814803
 21
18.570489
 31
0.0
 11
54.356152
 21
18.373892
 31
0.0
 11
54.923848
 21
18.373892
 31
0.0
 11
55.465197
 21
18.570489
 31
0.0
 11
55.906028
 21
18.941135
 31
0.0
 11
56.189740
 21
19.432852
 31
0.0
 11
56.290000
 21
20.000000
 31
0.0
  0
LINE
  5
102
100
AcDbEntity
  8
0
 62
7
100
AcDbLine
 10
56.290000
 20
-20.000000
 30
0.0
 11
56.290000
 21
-20.000000
 31
0.0
  0
SPLINE
  5
103
100
AcDbEntity
  8
0
 62
7
100
AcDbSpline
 70
0
 71
3
 72
25
 73
21
 74
19
 40
0.000000
 40
0.000000
 40
0.000000
 40
0.000000
 40
0.575942
 40
1.143638
 40
1.719580
 40
2.295522
 40
2.863218
 40
3.439160
 40
4.015102
 40
4.582798
 40
5.158740
 40
5.734682
 40
6.302378
 40
6.878320
 40
7.454262
 40
8.021958
 40
8.597900
 40
9.173842
 40
9.741538
 40
10.317480
 40
10.317480
 40
10.317480
 40
10.317480
 10
56.290000
 20
-20.000000
 30
0.0
 10
56.270355
 20
-19.807031
 30
0.0
 10
56.231347
 20
-19.423857
 30
0.0
 10
55.927691
 20
-18.917418
 30
0.0
 10
55.482958
 20
-18.540876
 30
0.0
 10
54.932170
 20
-18.341164
 30
0.0
 10
54.347704
 20
-18.341164
 30
0.0
 10
53.797685
 20
-18.540876
 30
0.0
 10
53.349883
 20
-18.917418
 30
0.0
 10
53.057629
 20
-19.423857
 30
0.0
 10
52.955942
 20
-20.000000
 30
0.0
 10
53.057629
 20
-20.576142
 30
0.0
 10
53.349883
 20
-21.082581
 30
0.0
 10
53.797685
 20
-21.459123
 30
0.0
 10
54.347704
 20
-21.658836
 30
0.0
 10
54.932170
 20
-21.658836
 30
0.0
 10
55.482958
 20
-21.459123
 30
0.0
 10
55.927691
 20
-21.082581
 30
0.0
 10
56.231347
 20
-20.576142
 30
0.0
 10
56.270355
 20
-20.192968
 30
0.0
 10
56.290000
 20
-20.000000
 30
0.0
 11
56.290000
 21
-20.000000
 31
0.0
 11
56.189740
 21
-19.432851
 31
0.0
 11
55.906028
 21
-18.941134
 31
0.0
 11
55.465197
 21
-18.570489
 31
0.0
 11
54.923848
 21
-18.373892
 31
0.0
 11
54.356152
 21
-18.373892
 31
0.0
 11
53.814803
 21
-18.570489
 31
0.0
 11
53.373972
 21
-18.941134
 31
0.0
 11
53.090260
 21
-19.432851
 31
0.0
 11
52.990000
 21
-20.000000
 31
0.0
 11
53.090260
 21
-20.567148
 31
0.0
 11
53.373972
 21
-21.058865
 31
0.0
 11
53.814803
 21
-21.429511
 31
0.0
 11
54.356152
 21
-21.626108
 31
0.0
 11
54.923848
 21
-21.626108
 31
0.0
 11
55.465197
 21
-21.429511
 31
0.0
 11
55.906028
 21
-21.058865
 31
0.0
 11
56.189740
 21
-20.567148
 31
0.0
 11
56.290000
 21
-20.000000
 31
0.0
  0
LINE
  5
104
100
AcDbEntity
  8
0
 62
7
100
AcDbLine
 10
21.650000
 20
-45.215000
 30
0.0
 11
21.650000
 21
-45.215000
 31
0.0
  0
SPLINE
  5
105
100
AcDbEntity
  8
0
 62
7
100
AcDbSpline
 70
0
 71
3
 72
25
 73
21
 74
19
 40
0.000000
 40
0.000000
 40
0.000000
 40
0.000000
 40
0.575942
 40
1.143638
 40
1.719580
 40
2.295522
 40
2.863218
 40
3.439160
 40
4.015102
 40
4.582798
 40
5.158740
 40
5.734682
 40
6.302378
 40
6.878320
 40
7.454262
 40
8.021958
 40
8.597900
 40
9.173842
 40
9.741538
 40
10.317480
 40
10.317480
 40
10.317480
 40
10.317480
 10
21.650000
 20
-45.215000
 30
0.0
 10
21.630355
 20
-45.022032
 30
0.0
 10
21.591346
 20
-44.638857
 30
0.0
 10
21.287691
 20
-44.132419
 30
0.0
 10
20.842957
 20
-43.755877
 30
0.0
 10
20.292170
 20
-43.556164
 30
0.0
 10
19.707704
 20
-43.556164
 30
0.0
 10
19.157685
 20
-43.755877
 30
0.0
 10
18.709883
 20
-44.132419
 30
0.0
 10
18.417629
 20
-44.638857
 30
0.0
 10
18.315942
 20
-45.215000
 30
0.0
 10
18.417629
 20
-45.791143
 30
0.0
 10
18.709883
 20
-46.297582
 30
0.0
 10
19.157685
 20
-46.674124
 30
0.0
 10
19.707704
 20
-46.873836
 30
0.0
 10
20.292170
 20
-46.873836
 30
0.0
 10
20.842957
 20
-46.674124
 30
0.0
 10
21.287691
 20
-46.297582
 30
0.0
 10
21.591346
 20
-45.791143
 30
0.0
 10
21.630355
 20
-45.407969
 30
0.0
 10
21.650000
 20
-45.215000
 30
0.0
 11
21.650000
 21
-45.215000
 31
0.0
 11
21.549740
 21
-44.647852
 31
0.0
 11
21.266028
 21
-44.156135
 31
0.0
 11
20.825197
 21
-43.785489
 31
0.0
 11
20.283848
 21
-43.588892
 31
0.0
 11
19.716152
 21
-43.588892
 31
0.0
 11
19.174803
 21
-43.785489
 31
0.0
 11
18.733972
 21
-44.156135
 31
0.0
 11
18.450260
 21
-44.647852
 31
0.0
 11
18.350000
 21
-45.215000
 31
0.0
 11
18.450260
 21
-45.782149
 31
0.0
 11
18.733972
 21
-46.273866
 31
0.0
 11
19.174803
 21
-46.644511
 31
0.0
 11
19.716152
 21
-46.841108
 31
0.0
 11
20.283848
 21
-46.841108
 31
0.0
 11
20.825197
 21
-46.644511
 31
0.0
 11
21.266028
 21
-46.273866
 31
0.0
 11
21.549740
 21
-45.782149
 31
0.0
 11
21.650000
 21
-45.215000
 31
0.0
  0
LINE
  5
106
100
AcDbEntity
  8
0
 62
7
100
AcDbLine
 10
-18.350000
 20
-45.215000
 30
0.0
 11
-18.350000
 21
-45.215000
 31
0.0
  0
SPLINE
  5
107
100
AcDbEntity
  8
0
 62
7
100
AcDbSpline
 70
0
 71
3
 72
25
 73
21
 74
19
 40
0.000000
 40
0.000000
 40
0.000000
 40
0.000000
 40
0.575942
 40
1.143638
 40
1.719580
 40
2.295522
 40
2.863218
 40
3.439160
 40
4.015102
 40
4.582798
 40
5.158740
 40
5.734682
 40
6.302378
 40
6.878320
 40
7.454262
 40
8.021958
 40
8.597900
 40
9.173842
 40
9.741538
 40
10.317480
 40
10.317480
 40
10.317480
 40
10.317480
 10
-18.350000
 20
-45.215000
 30
0.0
 10
-18.369645
 20
-45.022032
 30
0.0
 10
-18.408653
 20
-44.638857
 30
0.0
 10
-18.712309
 20
-44.132419
 30
0.0
 10
-19.157042
 20
-43.755877
 30
0.0
 10
-19.707830
 20
-43.556164
 30
0.0
 10
-20.292296
 20
-43.556164
 30
0.0
 10
-20.842315
 20
-43.755877
 30
0.0
 10
-21.290117
 20
-44.132419
 30
0.0
 10
-21.582371
 20
-44.638857
 30
0.0
 10
-21.684058
 20
-45.215000
 30
0.0
 10
-21.582371
 20
-45.791143
 30
0.0
 10
-21.290117
 20
-46.297582
 30
0.0
 10
-20.842315
 20
-46.674124
 30
0.0
 10
-20.292296
 20
-46.873836
 30
0.0
 10
-19.707830
 20
-46.873836
 30
0.0
 10
-19.157042
 20
-46.674124
 30
0.0
 10
-18.712309
 20
-46.297582
 30
0.0
 10
-18.408653
 20
-45.791143
 30
0.0
 10
-18.369645
 20
-45.407969
 30
0.0
 10
-18.350000
 20
-45.215000
 30
0.0
 11
-18.350000
 21
-45.215000
 31
0.0
 11
-18.450260
 21
-44.647852
 31
0.0
 11
-18.733972
 21
-44.156135
 31
0.0
 11
-19.174803
 21
-43.785489
 31
0.0
 11
-19.716152
 21
-43.588892
 31
0.0
 11
-20.283848
 21
-43.588892
 31
0.0
 11
-20.825197
 21
-43.785489
 31
0.0
 11
-21.266028
 21
-44.156135
 31
0.0
 11
-21.549740
 21
-44.647852
 31
0.0
 11
-21.650000
 21
-45.215000
 31
0.0
 11
-21.549740
 21
-45.782149
 31
0.0
 11
-21.266028
 21
-46.273866
 31
0.0
 11
-20.825197
 21
-46.644511
 31
0.0
 11
-20.283848
 21
-46.841108
 31
0.0
 11
-19.716152
 21
-46.841108
 31
0.0
 11
-19.174803
 21
-46.644511
 31
0.0
 11
-18.733972
 21
-46.273866
 31
0.0
 11
-18.450260
 21
-45.782149
 31
0.0
 11
-18.350000
 21
-45.215000
 31
0.0
  0
LINE
  5
108
100
AcDbEntity
  8
0
 62
7
100
AcDbLine
 10
-52.990000
 20
-20.000000
 30
0.0
 11
-52.990000
 21
-20.000000
 31
0.0
  0
SPLINE
  5
109
100
AcDbEntity
  8
0
 62
7
100
AcDbSpline
 70
0
 71
3
 72
25
 73
21
 74
19
 40
0.000000
 40
0.000000
 40
0.000000
 40
0.000000
 40
0.575942
 40
1.143638
 40
1.719580
 40
2.295522
 40
2.863218
 40
3.439160
 40
4.015102
 40
4.582798
 40
5.158740
 40
5.734682
 40
6.302378
 40
6.878320
 40
7.454262
 40
8.021958
 40
8.597900
 40
9.173842
 40
9.741538
 40
10.317480
 40
10.317480
 40
10.317480
 40
10.317480
 10
-52.990000
 20
-20.000000
 30
0.0
 10
-53.009645
 20
-19.807031
 30
0.0
 10
-53.048654
 20
-19.423857
 30
0.0
 10
-53.352309
 20
-18.917418
 30
0.0
 10
-53.797043
 20
-18.540876
 30
0.0
 10
-54.347830
 20
-18.341164
 30
0.0
 10
-54.932296
 20
-18.341164
 30
0.0
 10
-55.482315
 20
-18.540876
 30
0.0
 10
-55.930117
 20
-18.917418
 30
0.0
 10
-56.222371
 20
-19.423857
 30
0.0
 10
-56.324058
 20
-20.000000
 30
0.0
 10
-56.222371
 20
-20.576142
 30
0.0
 10
-55.930117
 20
-21.082581
 30
0.0
 10
-55.482315
 20
-21.459123
 30
0.0
 10
-54.932296
 20
-21.658836
 30
0.0
 10
-54.347830
 20
-21.658836
 30
0.0
 10
-53.797043
 20
-21.459123
 30
0.0
 10
-53.352309
 20
-21.082581
 30
0.0
 10
-53.048654
 20
-20.576142
 30
0.0
 10
-53.009645
 20
-20.192968
 30
0.0
 10
-52.990000
 20
-20.000000
 30
0.0
 11
-52.990000
 21
-20.000000
 31
0.0
 11
-53.090260
 21
-19.432851
 31
0.0
 11
-53.373972
 21
-18.941134
 31
0.0
 11
-53.814803
 21
-18.570489
 31
0.0
 11
-54.356152
 21
-18.373892
 31
0.0
 11
-54.923848
 21
-18.373892
 31
0.0
 11
-55.465197
 21
-18.570489
 31
0.0
 11
-55.906028
 21
-18.941134
 31
0.0
 11
-56.189740
 21
-19.432851
 31
0.0
 11
-56.290000
 21
-20.000000
 31
0.0
 11
-56.189740
 21
-20.567148
 31
0.0
 11
-55.906028
 21
-21.058865
 31
0.0
 11
-55.465197
 21
-21.429511
 31
0.0
 11
-54.923848
 21
-21.626108
 31
0.0
 11
-54.356152
 21
-21.626108
 31
0.0
 11
-53.814803
 21
-21.429511
 31
0.0
 11
-53.373972
 21
-21.058865
 31
0.0
 11
-53.090260
 21
-20.567148
 31
0.0
 11
-52.990000
 21
-20.000000
 31
0.0
  0
LINE
  5
10a
100
AcDbEntity
  8
0
 62
7
100
AcDbLine
 10
-52.990000
 20
20.000000
 30
0.0
 11
-52.990000
 21
20.000000
 31
0.0
  0
SPLINE
  5
10b
100
AcDbEntity
  8
0
 62
7
100
AcDbSpline
 70
0
 71
3
 72
25
 73
21
 74
19
 40
0.000000
 40
0.000000
 40
0.000000
 40
0.000000
 40
0.575942
 40
1.143638
 40
1.719580
 40
2.295522
 40
2.863218
 40
3.439160
 40
4.015102
 40
4.582798
 40
5.158740
 40
5.734682
 40
6.302378
 40
6.878320
 40
7.454262
 40
8.021958
 40
8.597900
 40
9.173842
 40
9.741538
 40
10.317480
 40
10.317480
 40
10.317480
 40
10.317480
 10
-52.990000
 20
20.000000
 30
0.0
 10
-53.009645
 20
20.192969
 30
0.0
 10
-53.048654
 20
20.576143
 30
0.0
 10
-53.352309
 20
21.082581
 30
0.0
 10
-53.797043
 20
21.459124
 30
0.0
 10
-54.347830
 20
21.658836
 30
0.0
 10
-54.932296
 20
21.658836
 30
0.0
 10
-55.482315
 20
21.459124
 30
0.0
 10
-55.930117
 20
21.082581
 30
0.0
 10
-56.222371
 20
20.576143
 30
0.0
 10
-56.324058
 20
20.000000
 30
0.0
 10
-56.222371
 20
19.423857
 30
0.0
 10
-55.930117
 20
18.917419
 30
0.0
 10
-55.482315
 20
18.540876
 30
0.0
 10
-54.932296
 20
18.341164
 30
0.0
 10
-54.347830
 20
18.341164
 30
0.0
 10
-53.797043
 20
18.540876
 30
0.0
 10
-53.352309
 20
18.917419
 30
0.0
 10
-53.048654
 20
19.423857
 30
0.0
 10
-53.009645
 20
19.807031
 30
0.0
 10
-52.990000
 20
20.000000
 30
0.0
 11
-52.990000
 21
20.000000
 31
0.0
 11
-53.090260
 21
20.567148
 31
0.0
 11
-53.373972
 21
21.058865
 31
0.0
 11
-53.814803
 21
21.429511
 31
0.0
 11
-54.356152
 21
21.626108
 31
0.0
 11
-54.923848
 21
21.626108
 31
0.0
 11
-55.465197
 21
21.429511
 31
0.0
 11
-55.906028
 21
21.058865
 31
0.0
 11
-56.189740
 21
20.567148
 31
0.0
 11
-56.290000
 21
20.000000
 31
0.0
 11
-56.189740
 21
19.432852
 31
0.0
 11
-55.906028
 21
18.941135
 31
0.0
 11
-55.465197
 21
18.570489
 31
0.0
 11
-54.923848
 21
18.373892
 31
0.0
 11
-54.356152
 21
18.373892
 31
0.0
 11
-53.814803
 21
18.570489
 31
0.0
 11
-53.373972
 21
18.941135
 31
0.0
 11
-53.090260
 21
19.432852
 31
0.0
 11
-52.990000
 21
20.000000
 31
0.0
  0
LINE
  5
10c
100
AcDbEntity
  8
0
 62
7
100
AcDbLine
 10
21.650000
 20
45.215000
 30
0.0
 11
21.650000
 21
45.215000
 31
0.0
  0
SPLINE
  5
10d
100
AcDbEntity
  8
0
 62
7
100
AcDbSpline
 70
0
 71
3
 72
25
 73
21
 74
19
 40
0.000000
 40
0.000000
 40
0.000000
 40
0.000000
 40
0.575942
 40
1.143638
 40
1.719580
 40
2.295522
 40
2.863218
 40
3.439160
 40
4.015102
 40
4.582798
 40
5.158740
 40
5.734682
 40
6.302378
 40
6.878320
 40
7.454262
 40
8.021958
 40
8.597900
 40
9.173842
 40
9.741538
 40
10.317480
 40
10.317480
 40
10.317480
 40
10.317480
 10
21.650000
 20
45.215000
 30
0.0
 10
21.630355
 20
45.407968
 30
0.0
 10
21.591346
 20
45.791143
 30
0.0
 10
21.287691
 20
46.297581
 30
0.0
 10
20.842957
 20
46.674123
 30
0.0
 10
20.292170
 20
46.873836
 30
0.0
 10
19.707704
 20
46.873836
 30
0.0
 10
19.157685
 20
46.674123
 30
0.0
 10
18.709883
 20
46.297581
 30
0.0
 10
18.417629
 20
45.791143
 30
0.0
 10
18.315942
 20
45.215000
 30
0.0
 10
18.417629
 20
44.638857
 30
0.0
 10
18.709883
 20
44.132419
 30
0.0
 10
19.157685
 20
43.755876
 30
0.0
 10
19.707704
 20
43.556164
 30
0.0
 10
20.292170
 20
43.556164
 30
0.0
 10
20.842957
 20
43.755876
 30
0.0
 10
21.287691
 20
44.132419
 30
0.0
 10
21.591346
 20
44.638857
 30
0.0
 10
21.630355
 20
45.022031
 30
0.0
 10
21.650000
 20
45.215000
 30
0.0
 11
21.650000
 21
45.215000
 31
0.0
 11
21.549740
 21
45.782148
 31
0.0
 11
21.266028
 21
46.273865
 31
0.0
 11
20.825197
 21
46.644511
 31
0.0
 11
20.283848
 21
46.841108
 31
0.0
 11
19.716152
 21
46.841108
 31
0.0
 11
19.174803
 21
46.644511
 31
0.0
 11
18.733972
 21
46.273865
 31
0.0
 11
18.450260
 21
45.782148
 31
0.0
 11
18.350000
 21
45.215000
 31
0.0
 11
18.450260
 21
44.647851
 31
0.0
 11
18.733972
 21
44.156134
 31
0.0
 11
19.174803
 21
43.785489
 31
0.0
 11
19.716152
 21
43.588892
 31
0.0
 11
20.283848
 21
43.588892
 31
0.0
 11
20.825197
 21
43.785489
 31
0.0
 11
21.266028
 21
44.156134
 31
0.0
 11
21.549740
 21
44.647851
 31
0.0
 11
21.650000
 21
45.215000
 31
0.0
  0
LINE
  5
10e
100
AcDbEntity
  8
0
 62
7
100
AcDbLine
 10
-18.350000
 20
45.215000
 30
0.0
 11
-18.350000
 21
45.215000
 31
0.0
  0
SPLINE
  5
10f
100
AcDbEntity
  8
0
 62
7
100
AcDbSpline
 70
0
 71
3
 72
25
 73
21
 74
19
 40
0.000000
 40
0.000000
 40
0.000000
 40
0.000000
 40
0.575942
 40
1.143638
 40
1.719580
 40
2.295522
 40
2.863218
 40
3.439160
 40
4.015102
 40
4.582798
 40
5.158740
 40
5.734682
 40
6.302378
 40
6.878320
 40
7.454262
 40
8.021958
 40
8.597900
 40
9.173842
 40
9.741538
 40
10.317480
 40
10.317480
 40
10.317480
 40
10.317480
 10
-18.350000
 20
45.215000
 30
0.0
 10
-18.369645
 20
45.407968
 30
0.0
 10
-18.408653
 20
45.791143
 30
0.0
 10
-18.712309
 20
46.297581
 30
0.0
 10
-19.157042
 20
46.674123
 30
0.0
 10
-19.707830
 20
46.873836
 30
0.0
 10
-20.292296
 20
46.873836
 30
0.0
 10
-20.842315
 20
46.674123
 30
0.0
 10
-21.290117
 20
46.297581
 30
0.0
 10
-21.582371
 20
45.791143
 30
0.0
 10
-21.684058
 20
45.215000
 30
0.0
 10
-21.582371
 20
44.638857
 30
0.0
 10
-21.290117
 20
44.132419
 30
0.0
 10
-20.842315
 20
43.755876
 30
0.0
 10
-20.292296
 20
43.556164
 30
0.0
 10
-19.707830
 20
43.556164
 30
0.0
 10
-19.157042
 20
43.755876
 30
0.0
 10
-18.712309
 20
44.132419
 30
0.0
 10
-18.408653
 20
44.638857
 30
0.0
 10
-18.369645
 20
45.022031
 30
0.0
 10
-18.350000
 20
45.215000
 30
0.0
 11
-18.350000
 21
45.215000
 31
0.0
 11
-18.450260
 21
45.782148
 31
0.0
 11
-18.733972
 21
46.273865
 31
0.0
 11
-19.174803
 21
46.644511
 31
0.0
 11
-19.716152
 21
46.841108
 31
0.0
 11
-20.283848
 21
46.841108
 31
0.0
 11
-20.825197
 21
46.644511
 31
0.0
 11
-21.266028
 21
46.273865
 31
0.0
 11
-21.549740
 21
45.782148
 31
0.0
 11
-21.650000
 21
45.215000
 31
0.0
 11
-21.549740
 21
44.647851
 31
0.0
 11
-21.266028
 21
44.156134
 31
0.0
 11
-20.825197
 21
43.785489
 31
0.0
 11
-20.283848
 21
43.588892
 31
0.0
 11
-19.716152
 21
43.588892
 31
0.0
 11
-19.174803
 21
43.785489
 31
0.0
 11
-18.733972
 21
44.156134
 31
0.0
 11
-18.450260
 21
44.647851
 31
0.0
 11
-18.350000
 21
45.215000
 31
0.0
  0
LINE
  5
110
100
AcDbEntity
  8
0
 62
7
100
AcDbLine
 10
57.920000
 20
-0.000000
 30
0.0
 11
57.920000
 21
-0.000000
 31
0.0
  0
SPLINE
  5
111
100
AcDbEntity
  8
0
 62
7
100
AcDbSpline
 70
0
 71
3
 72
25
 73
21
 74
19
 40
0.000000
 40
0.000000
 40
0.000000
 40
0.000000
 40
1.169246
 40
2.321752
 40
3.490997
 40
4.660243
 40
5.812749
 40
6.981994
 40
8.151240
 40
9.303746
 40
10.472992
 40
11.642237
 40
12.794743
 40
13.963989
 40
15.133234
 40
16.285740
 40
17.454986
 40
18.624232
 40
19.776738
 40
20.945983
 40
20.945983
 40
20.945983
 40
20.945983
 10
57.920000
 20
-0.000000
 30
0.0
 10
57.880073
 20
0.391749
 30
0.0
 10
57.800790
 20
1.169637
 30
0.0
 10
57.184244
 20
2.197727
 30
0.0
 10
56.281332
 20
2.962110
 30
0.0
 10
55.163145
 20
3.367525
 30
0.0
 10
53.976599
 20
3.367525
 30
0.0
 10
52.859974
 20
2.962110
 30
0.0
 10
51.950825
 20
2.197727
 30
0.0
 10
51.357451
 20
1.169637
 30
0.0
 10
51.150779
 20
-0.000000
 30
0.0
 10
51.357451
 20
-1.169638
 30
0.0
 10
51.950825
 20
-2.197727
 30
0.0
 10
52.859974
 20
-2.962111
 30
0.0
 10
53.976599
 20
-3.367525
 30
0.0
 10
55.163145
 20
-3.367525
 30
0.0
 10
56.281332
 20
-2.962111
 30
0.0
 10
57.184244
 20
-2.197727
 30
0.0
 10
57.800790
 20
-1.169638
 30
0.0
 10
57.880073
 20
-0.391749
 30
0.0
 10
57.920000
 20
-0.000000
 30
0.0
 11
57.920000
 21
-0.000000
 31
0.0
 11
57.716331
 21
1.151371
 31
0.0
 11
57.140272
 21
2.149582
 31
0.0
 11
56.245281
 21
2.901995
 31
0.0
 11
55.146253
 21
3.301086
 31
0.0
 11
53.993747
 21
3.301086
 31
0.0
 11
52.894719
 21
2.901995
 31
0.0
 11
51.999728
 21
2.149582
 31
0.0
 11
51.423668
 21
1.151371
 31
0.0
 11
51.220000
 21
-0.000000
 31
0.0
 11
51.423668
 21
-1.151371
 31
0.0
 11
51.999728
 21
-2.149582
 31
0.0
 11
52.894719
 21
-2.901996
 31
0.0
 11
53.993747
 21
-3.301086
 31
0.0
 11
55.146253
 21
-3.301086
 31
0.0
 11
56.245281
 21
-2.901996
 31
0.0
 11
57.140272
 21
-2.149582
 31
0.0
 11
57.716331
 21
-1.151371
 31
0.0
 11
57.920000
 21
-0.000000
 31
0.0
  0
LINE
  5
112
100
AcDbEntity
  8
0
 62
7
100
AcDbLine
 10
50.950000
 20
-39.610000
 30
0.0
 11
50.950000
 21
-39.610000
 31
0.0
  0
SPLINE
  5
113
100
AcDbEntity
  8
0
 62
7
100
AcDbSpline
 70
0
 71
3
 72
25
 73
21
 74
19
 40
0.000000
 40
0.000000
 40
0.000000
 40
0.000000
 40
1.169246
 40
2.321752
 40
3.490997
 40
4.660243
 40
5.812749
 40
6.981994
 40
8.151240
 40
9.303746
 40
10.472992
 40
11.642237
 40
12.794743
 40
13.963989
 40
15.133234
 40
16.285740
 40
17.454986
 40
18.624232
 40
19.776738
 40
20.945983
 40
20.945983
 40
20.945983
 40
20.945983
 10
50.950000
 20
-39.610000
 30
0.0
 10
50.910073
 20
-39.218251
 30
0.0
 10
50.830791
 20
-38.440362
 30
0.0
 10
50.214245
 20
-37.412273
 30
0.0
 10
49.311332
 20
-36.647889
 30
0.0
 10
48.193145
 20
-36.242475
 30
0.0
 10
47.006599
 20
-36.242475
 30
0.0
 10
45.889974
 20
-36.647889
 30
0.0
 10
44.980825
 20
-37.412273
 30
0.0
 10
44.387451
 20
-38.440362
 30
0.0
 10
44.180779
 20
-39.610000
 30
0.0
 10
44.387451
 20
-40.779637
 30
0.0
 10
44.980825
 20
-41.807727
 30
0.0
 10
45.889974
 20
-42.572110
 30
0.0
 10
47.006599
 20
-42.977524
 30
0.0
 10
48.193145
 20
-42.977524
 30
0.0
 10
49.311332
 20
-42.572110
 30
0.0
 10
50.214245
 20
-41.807727
 30
0.0
 10
50.830791
 20
-40.779637
 30
0.0
 10
50.910073
 20
-40.001749
 30
0.0
 10
50.950000
 20
-39.610000
 30
0.0
 11
50.950000
 21
-39.610000
 31
0.0
 11
50.746332
 21
-38.458629
 31
0.0
 11
50.170272
 21
-37.460418
 31
0.0
 11
49.275281
 21
-36.708004
 31
0.0
 11
48.176253
 21
-36.308914
 31
0.0
 11
47.023747
 21
-36.308914
 31
0.0
 11
45.924719
 21
-36.708004
 31
0.0
 11
45.029728
 21
-37.460418
 31
0.0
 11
44.453669
 21
-38.458629
 31
0.0
 11
44.250000
 21
-39.610000
 31
0.0
 11
44.453669
 21
-40.761371
 31
0.0
 11
45.029728
 21
-41.759582
 31
0.0
 11
45.924719
 21
-42.511995
 31
0.0
 11
47.023747
 21
-42.911086
 31
0.0
 11
48.176253
 21
-42.911086
 31
0.0
 11
49.275281
 21
-42.511995
 31
0.0
 11
50.170272
 21
-41.759582
 31
0.0
 11
50.746332
 21
-40.761371
 31
0.0
 11
50.950000
 21
-39.610000
 31
0.0
  0
LINE
  5
114
100
AcDbEntity
  8
0
 62
7
100
AcDbLine
 10
50.950000
 20
39.610000
 30
0.0
 11
50.950000
 21
39.610000
 31
0.0
  0
SPLINE
  5
115
100
AcDbEntity
  8
0
 62
7
100
AcDbSpline
 70
0
 71
3
 72
25
 73
21
 74
19
 40
0.000000
 40
0.000000
 40
0.000000
 40
0.000000
 40
1.169246
 40
2.321752
 40
3.490997
 40
4.660243
 40
5.812749
 40
6.981994
 40
8.151240
 40
9.303746
 40
10.472992
 40
11.642237
 40
12.794743
 40
13.963989
 40
15.133234
 40
16.285740
 40
17.454986
 40
18.624232
 40
19.776738
 40
20.945983
 40
20.945983
 40
20.945983
 40
20.945983
 10
50.950000
 20
39.610000
 30
0.0
 10
50.910073
 20
40.001749
 30
0.0
 10
50.830791
 20
40.779638
 30
0.0
 10
50.214245
 20
41.807727
 30
0.0
 10
49.311332
 20
42.572111
 30
0.0
 10
48.193145
 20
42.977525
 30
0.0
 10
47.006599
 20
42.977525
 30
0.0
 10
45.889974
 20
42.572111
 30
0.0
 10
44.980825
 20
41.807727
 30
0.0
 10
44.387451
 20
40.779638
 30
0.0
 10
44.180779
 20
39.610000
 30
0.0
 10
44.387451
 20
38.440362
 30
0.0
 10
44.980825
 20
37.412273
 30
0.0
 10
45.889974
 20
36.647889
 30
0.0
 10
47.006599
 20
36.242475
 30
0.0
 10
48.193145
 20
36.242475
 30
0.0
 10
49.311332
 20
36.647889
 30
0.0
 10
50.214245
 20
37.412273
 30
0.0
 10
50.830791
 20
38.440362
 30
0.0
 10
50.910073
 20
39.218251
 30
0.0
 10
50.950000
 20
39.610000
 30
0.0
 11
50.950000
 21
39.610000
 31
0.0
 11
50.746332
 21
40.761371
 31
0.0
 11
50.170272
 21
41.759582
 31
0.0
 11
49.275281
 21
42.511995
 31
0.0
 11
48.176253
 21
42.911086
 31
0.0
 11
47.023747
 21
42.911086
 31
0.0
 11
45.924719
 21
42.511995
 31
0.0
 11
45.029728
 21
41.759582
 31
0.0
 11
44.453669
 21
40.761371
 31
0.0
 11
44.250000
 21
39.610000
 31
0.0
 11
44.453669
 21
38.458629
 31
0.0
 11
45.029728
 21
37.460418
 31
0.0
 11
45.924719
 21
36.708005
 31
0.0
 11
47.023747
 21
36.308914
 31
0.0
 11
48.176253
 21
36.308914
 31
0.0
 11
49.275281
 21
36.708005
 31
0.0
 11
50.170272
 21
37.460418
 31
0.0
 11
50.746332
 21
38.458629
 31
0.0
 11
50.950000
 21
39.610000
 31
0.0
  0
LINE
  5
116
100
AcDbEntity
  8
0
 62
7
100
AcDbLine
 10
-44.250000
 20
39.610000
 30
0.0
 11
-44.250000
 21
39.610000
 31
0.0
  0
SPLINE
  5
117
100
AcDbEntity
  8
0
 62
7
100
AcDbSpline
 70
0
 71
3
 72
25
 73
21
 74
19
 40
0.000000
 40
0.000000
 40
0.000000
 40
0.000000
 40
1.169246
 40
2.321752
 40
3.490997
 40
4.660243
 40
5.812749
 40
6.981994
 40
8.151240
 40
9.303746
 40
10.472992
 40
11.642237
 40
12.794743
 40
13.963989
 40
15.133234
 40
16.285740
 40
17.454986
 40
18.624232
 40
19.776738
 40
20.945983
 40
20.945983
 40
20.945983
 40
20.945983
 10
-44.250000
 20
39.610000
 30
0.0
 10
-44.289927
 20
40.001749
 30
0.0
 10
-44.369210
 20
40.779638
 30
0.0
 10
-44.985755
 20
41.807727
 30
0.0
 10
-45.888668
 20
42.572111
 30
0.0
 10
-47.006855
 20
42.977525
 30
0.0
 10
-48.193401
 20
42.977525
 30
0.0
 10
-49.310026
 20
42.572111
 30
0.0
 10
-50.219175
 20
41.807727
 30
0.0
 10
-50.812549
 20
40.779638
 30
0.0
 10
-51.019221
 20
39.610000
 30
0.0
 10
-50.812549
 20
38.440362
 30
0.0
 10
-50.219175
 20
37.412273
 30
0.0
 10
-49.310026
 20
36.647889
 30
0.0
 10
-48.193401
 20
36.242475
 30
0.0
 10
-47.006855
 20
36.242475
 30
0.0
 10
-45.888668
 20
36.647889
 30
0.0
 10
-44.985755
 20
37.412273
 30
0.0
 10
-44.369210
 20
38.440362
 30
0.0
 10
-44.289927
 20
39.218251
 30
0.0
 10
-44.250000
 20
39.610000
 30
0.0
 11
-44.250000
 21
39.610000
 31
0.0
 11
-44.453669
 21
40.761371
 31
0.0
 11
-45.029728
 21
41.759582
 31
0.0
 11
-45.924719
 21
42.511995
 31
0.0
 11
-47.023747
 21
42.911086
 31
0.0
 11
-48.176253
 21
42.911086
 31
0.0
 11
-49.275281
 21
42.511995
 31
0.0
 11
-50.170272
 21
41.759582
 31
0.0
 11
-50.746332
 21
40.761371
 31
0.0
 11
-50.950000
 21
39.610000
 31
0.0
 11
-50.746332
 21
38.458629
 31
0.0
 11
-50.170272
 21
37.460418
 31
0.0
 11
-49.275281
 21
36.708005
 31
0.0
 11
-48.176253
 21
36.308914
 31
0.0
 11
-47.023747
 21
36.308914
 31
0.0
 11
-45.924719
 21
36.708005
 31
0.0
 11
-45.029728
 21
37.460418
 31
0.0
 11
-44.453669
 21
38.458629
 31
0.0
 11
-44.250000
 21
39.610000
 31
0.0
  0
LINE
  5
118
100
AcDbEntity
  8
0
 62
7
100
AcDbLine
 10
-66.850000
 20
-0.000000
 30
0.0
 11
-66.850000
 21
-0.000000
 31
0.0
  0
SPLINE
  5
119
100
AcDbEntity
  8
0
 62
7
100
AcDbSpline
 70
0
 71
3
 72
25
 73
21
 74
19
 40
0.000000
 40
0.000000
 40
0.000000
 40
0.000000
 40
0.750273
 40
1.489808
 40
2.240081
 40
2.990354
 40
3.729889
 40
4.480162
 40
5.230435
 40
5.969970
 40
6.720243
 40
7.470516
 40
8.210051
 40
8.960324
 40
9.710597
 40
10.450132
 40
11.200405
 40
11.950678
 40
12.690213
 40
13.440486
 40
13.440486
 40
13.440486
 40
13.440486
 10
-66.850000
 20
-0.000000
 30
0.0
 10
-66.875688
 20
0.251366
 30
0.0
 10
-66.926697
 20
0.750502
 30
0.0
 10
-67.322440
 20
1.410117
 30
0.0
 10
-67.901875
 20
1.900524
 30
0.0
 10
-68.619397
 20
2.160619
 30
0.0
 10
-69.380768
 20
2.160619
 30
0.0
 10
-70.097284
 20
1.900524
 30
0.0
 10
-70.680732
 20
1.410117
 30
0.0
 10
-71.061567
 20
0.750502
 30
0.0
 10
-71.194535
 20
-0.000000
 30
0.0
 10
-71.061567
 20
-0.750502
 30
0.0
 10
-70.680732
 20
-1.410117
 30
0.0
 10
-70.097284
 20
-1.900524
 30
0.0
 10
-69.380768
 20
-2.160619
 30
0.0
 10
-68.619397
 20
-2.160619
 30
0.0
 10
-67.901875
 20
-1.900524
 30
0.0
 10
-67.322440
 20
-1.410117
 30
0.0
 10
-66.926697
 20
-0.750502
 30
0.0
 10
-66.875688
 20
-0.251367
 30
0.0
 10
-66.850000
 20
-0.000000
 30
0.0
 11
-66.850000
 21
-0.000000
 31
0.0
 11
-66.980879
 21
0.738769
 31
0.0
 11
-67.350646
 21
1.379226
 31
0.0
 11
-67.925000
 21
1.861955
 31
0.0
 11
-68.630232
 21
2.117995
 31
0.0
 11
-69.369768
 21
2.117995
 31
0.0
 11
-70.075000
 21
1.861955
 31
0.0
 11
-70.649354
 21
1.379226
 31
0.0
 11
-71.019121
 21
0.738769
 31
0.0
 11
-71.150000
 21
-0.000000
 31
0.0
 11
-71.019121
 21
-0.738769
 31
0.0
 11
-70.649354
 21
-1.379226
 31
0.0
 11
-70.075000
 21
-1.861955
 31
0.0
 11
-69.369768
 21
-2.117995
 31
0.0
 11
-68.630232
 21
-2.117995
 31
0.0
 11
-67.925000
 21
-1.861955
 31
0.0
 11
-67.350646
 21
-1.379226
 31
0.0
 11
-66.980879
 21
-0.738769
 31
0.0
 11
-66.850000
 21
-0.000000
 31
0.0
  0
LINE
  5
11a
100
AcDbEntity
  8
0
 62
7
100
AcDbLine
 10
-62.000000
 20
35.500000
 30
0.0
 11
-62.000000
 21
21.000000
 31
0.0
  0
SPLINE
  5
11b
100
AcDbEntity
  8
0
 62
7
100
AcDbSpline
 70
0
 71
3
 72
10
 73
6
 74
4
 40
0.000000
 40
0.000000
 40
0.000000
 40
0.000000
 40
9.150035
 40
18.028682
 40
27.178717
 40
27.178717
 40
27.178717
 40
27.178717
 10
-44.500000
 20
53.000000
 30
0.0
 10
-47.566452
 20
52.518660
 30
0.0
 10
-53.608406
 20
51.570255
 30
0.0
 10
-60.570255
 20
44.608406
 30
0.0
 10
-61.518659
 20
38.566452
 30
0.0
 10
-62.000000
 20
35.500000
 30
0.0
 11
-44.500000
 21
53.000000
 31
0.0
 11
-53.332585
 21
50.610737
 31
0.0
 11
-59.610737
 21
44.332585
 31
0.0
 11
-62.000000
 21
35.500000
 31
0.0
  0
LINE
  5
11c
100
AcDbEntity
  8
0
 62
7
100
AcDbLine
 10
-67.000000
 20
16.000000
 30
0.0
 11
-69.000000
 21
16.000000
 31
0.0
  0
SPLINE
  5
11d
100
AcDbEntity
  8
0
 62
7
100
AcDbSpline
 70
0
 71
3
 72
13
 73
9
 74
7
 40
0.000000
 40
0.000000
 40
0.000000
 40
0.000000
 40
1.308874
 40
2.606917
 40
3.915792
 40
5.224666
 40
6.522709
 40
7.831584
 40
7.831584
 40
7.831584
 40
7.831584
 10
-67.000000
 20
16.000000
 30
0.0
 10
-66.562434
 20
16.033331
 30
0.0
 10
-65.690922
 20
16.099718
 30
0.0
 10
-64.471717
 20
16.624344
 30
0.0
 10
-63.422510
 20
17.422510
 30
0.0
 10
-62.624344
 20
18.471717
 30
0.0
 10
-62.099718
 20
19.690922
 30
0.0
 10
-62.033331
 20
20.562434
 30
0.0
 10
-62.000000
 20
21.000000
 30
0.0
 11
-67.000000
 21
16.000000
 31
0.0
 11
-65.702384
 21
16.171303
 31
0.0
 11
-64.503149
 21
16.668042
 31
0.0
 11
-63.464466
 21
17.464466
 31
0.0
 11
-62.668042
 21
18.503148
 31
0.0
 11
-62.171303
 21
19.702384
 31
0.0
 11
-62.000000
 21
21.000000
 31
0.0
  0
LINE
  5
11e
100
AcDbEntity
  8
0
 62
7
100
AcDbLine
 10
-76.000000
 20
9.000000
 30
0.0
 11
-76.000000
 21
-9.000000
 31
0.0
  0
SPLINE
  5
11f
100
AcDbEntity
  8
0
 62
7
100
AcDbSpline
 70
0
 71
3
 72
13
 73
9
 74
7
 40
0.000000
 40
0.000000
 40
0.000000
 40
0.000000
 40
1.832424
 40
3.649684
 40
5.482109
 40
7.314533
 40
9.131793
 40
10.964217
 40
10.964217
 40
10.964217
 40
10.964217
 10
-69.000000
 20
16.000000
 30
0.0
 10
-69.612593
 20
15.953336
 30
0.0
 10
-70.832709
 20
15.860395
 30
0.0
 10
-72.539597
 20
15.125919
 30
0.0
 10
-74.008485
 20
14.008485
 30
0.0
 10
-75.125919
 20
12.539597
 30
0.0
 10
-75.860395
 20
10.832709
 30
0.0
 10
-75.953336
 20
9.612593
 30
0.0
 10
-76.000000
 20
9.000000
 30
0.0
 11
-69.000000
 21
16.000000
 31
0.0
 11
-70.816663
 21
15.760176
 31
0.0
 11
-72.495592
 21
15.064741
 31
0.0
 11
-73.949748
 21
13.949748
 31
0.0
 11
-75.064741
 21
12.495592
 31
0.0
 11
-75.760176
 21
10.816663
 31
0.0
 11
-76.000000
 21
9.000000
 31
0.0
  0
LINE
  5
120
100
AcDbEntity
  8
0
 62
7
100
AcDbLine
 10
-69.000000
 20
-16.000000
 30
0.0
 11
-67.000000
 21
-16.000000
 31
0.0
  0
SPLINE
  5
121
100
AcDbEntity
  8
0
 62
7
100
AcDbSpline
 70
0
 71
3
 72
10
 73
6
 74
4
 40
0.000000
 40
0.000000
 40
0.000000
 40
0.000000
 40
3.660014
 40
7.211473
 40
10.871487
 40
10.871487
 40
10.871487
 40
10.871487
 10
-76.000000
 20
-9.000000
 30
0.0
 10
-75.807464
 20
-10.226581
 30
0.0
 10
-75.428102
 20
-12.643362
 30
0.0
 10
-72.643362
 20
-15.428102
 30
0.0
 10
-70.226581
 20
-15.807464
 30
0.0
 10
-69.000000
 20
-16.000000
 30
0.0
 11
-76.000000
 21
-9.000000
 31
0.0
 11
-75.044295
 21
-12.533034
 31
0.0
 11
-72.533034
 21
-15.044295
 31
0.0
 11
-69.000000
 21
-16.000000
 31
0.0
  0
LINE
  5
122
100
AcDbEntity
  8
0
 62
7
100
AcDbLine
 10
-62.000000
 20
-21.000000
 30
0.0
 11
-62.000000
 21
-35.500000
 31
0.0
  0
SPLINE
  5
123
100
AcDbEntity
  8
0
 62
7
100
AcDbSpline
 70
0
 71
3
 72
13
 73
9
 74
7
 40
0.000000
 40
0.000000
 40
0.000000
 40
0.000000
 40
1.308874
 40
2.606918
 40
3.915792
 40
5.224666
 40
6.522710
 40
7.831584
 40
7.831584
 40
7.831584
 40
7.831584
 10
-62.000000
 20
-21.000000
 30
0.0
 10
-62.033331
 20
-20.562434
 30
0.0
 10
-62.099718
 20
-19.690922
 30
0.0
 10
-62.624344
 20
-18.471717
 30
0.0
 10
-63.422510
 20
-17.422510
 30
0.0
 10
-64.471717
 20
-16.624344
 30
0.0
 10
-65.690922
 20
-16.099718
 30
0.0
 10
-66.562434
 20
-16.033331
 30
0.0
 10
-67.000000
 20
-16.000000
 30
0.0
 11
-62.000000
 21
-21.000000
 31
0.0
 11
-62.171302
 21
-19.702384
 31
0.0
 11
-62.668042
 21
-18.503149
 31
0.0
 11
-63.464466
 21
-17.464466
 31
0.0
 11
-64.503148
 21
-16.668042
 31
0.0
 11
-65.702384
 21
-16.171303
 31
0.0
 11
-67.000000
 21
-16.000000
 31
0.0
  0
LINE
  5
124
100
AcDbEntity
  8
0
 62
7
100
AcDbLine
 10
-44.500000
 20
-53.000000
 30
0.0
 11
44.500000
 21
-53.000000
 31
0.0
  0
SPLINE
  5
125
100
AcDbEntity
  8
0
 62
7
100
AcDbSpline
 70
0
 71
3
 72
10
 73
6
 74
4
 40
0.000000
 40
0.000000
 40
0.000000
 40
0.000000
 40
9.150035
 40
18.028682
 40
27.178717
 40
27.178717
 40
27.178717
 40
27.178717
 10
-62.000000
 20
-35.500000
 30
0.0
 10
-61.518659
 20
-38.566452
 30
0.0
 10
-60.570255
 20
-44.608406
 30
0.0
 10
-53.608406
 20
-51.570255
 30
0.0
 10
-47.566452
 20
-52.518660
 30
0.0
 10
-44.500000
 20
-53.000000
 30
0.0
 11
-62.000000
 21
-35.500000
 31
0.0
 11
-59.610737
 21
-44.332585
 31
0.0
 11
-53.332585
 21
-50.610737
 31
0.0
 11
-44.500000
 21
-53.000000
 31
0.0
  0
LINE
  5
126
100
AcDbEntity
  8
0
 62
7
100
AcDbLine
 10
62.000000
 20
-35.500000
 30
0.0
 11
62.000000
 21
-21.000000
 31
0.0
  0
SPLINE
  5
127
100
AcDbEntity
  8
0
 62
7
100
AcDbSpline
 70
0
 71
3
 72
10
 73
6
 74
4
 40
0.000000
 40
0.000000
 40
0.000000
 40
0.000000
 40
9.150035
 40
18.028682
 40
27.178717
 40
27.178717
 40
27.178717
 40
27.178717
 10
44.500000
 20
-53.000000
 30
0.0
 10
47.566452
 20
-52.518660
 30
0.0
 10
53.608406
 20
-51.570255
 30
0.0
 10
60.570255
 20
-44.608406
 30
0.0
 10
61.518659
 20
-38.566452
 30
0.0
 10
62.000000
 20
-35.500000
 30
0.0
 11
44.500000
 21
-53.000000
 31
0.0
 11
53.332585
 21
-50.610737
 31
0.0
 11
59.610737
 21
-44.332585
 31
0.0
 11
62.000000
 21
-35.500000
 31
0.0
  0
LINE
  5
128
100
AcDbEntity
  8
0
 62
7
100
AcDbLine
 10
67.000000
 20
-16.000000
 30
0.0
 11
69.000000
 21
-16.000000
 31
0.0
  0
SPLINE
  5
129
100
AcDbEntity
  8
0
 62
7
100
AcDbSpline
 70
0
 71
3
 72
13
 73
9
 74
7
 40
0.000000
 40
0.000000
 40
0.000000
 40
0.000000
 40
1.308874
 40
2.606918
 40
3.915792
 40
5.224666
 40
6.522710
 40
7.831584
 40
7.831584
 40
7.831584
 40
7.831584
 10
67.000000
 20
-16.000000
 30
0.0
 10
66.562434
 20
-16.033331
 30
0.0
 10
65.690922
 20
-16.099718
 30
0.0
 10
64.471717
 20
-16.624344
 30
0.0
 10
63.422510
 20
-17.422510
 30
0.0
 10
62.624344
 20
-18.471717
 30
0.0
 10
62.099718
 20
-19.690922
 30
0.0
 10
62.033331
 20
-20.562434
 30
0.0
 10
62.000000
 20
-21.000000
 30
0.0
 11
67.000000
 21
-16.000000
 31
0.0
 11
65.702384
 21
-16.171303
 31
0.0
 11
64.503148
 21
-16.668042
 31
0.0
 11
63.464466
 21
-17.464466
 31
0.0
 11
62.668042
 21
-18.503149
 31
0.0
 11
62.171302
 21
-19.702384
 31
0.0
 11
62.000000
 21
-21.000000
 31
0.0
  0
LINE
  5
12a
100
AcDbEntity
  8
0
 62
7
100
AcDbLine
 10
76.000000
 20
-9.000000
 30
0.0
 11
76.000000
 21
9.000000
 31
0.0
  0
SPLINE
  5
12b
100
AcDbEntity
  8
0
 62
7
100
AcDbSpline
 70
0
 71
3
 72
10
 73
6
 74
4
 40
0.000000
 40
0.000000
 40
0.000000
 40
0.000000
 40
3.660014
 40
7.211473
 40
10.871487
 40
10.871487
 40
10.871487
 40
10.871487
 10
69.000000
 20
-16.000000
 30
0.0
 10
70.226581
 20
-15.807464
 30
0.0
 10
72.643362
 20
-15.428102
 30
0.0
 10
75.428102
 20
-12.643362
 30
0.0
 10
75.807464
 20
-10.226581
 30
0.0
 10
76.000000
 20
-9.000000
 30
0.0
 11
69.000000
 21
-16.000000
 31
0.0
 11
72.533034
 21
-15.044295
 31
0.0
 11
75.044295
 21
-12.533034
 31
0.0
 11
76.000000
 21
-9.000000
 31
0.0
  0
LINE
  5
12c
100
AcDbEntity
  8
0
 62
7
100
AcDbLine
 10
69.000000
 20
16.000000
 30
0.0
 11
67.000000
 21
16.000000
 31
0.0
  0
SPLINE
  5
12d
100
AcDbEntity
  8
0
 62
7
100
AcDbSpline
 70
0
 71
3
 72
13
 73
9
 74
7
 40
0.000000
 40
0.000000
 40
0.000000
 40
0.000000
 40
1.832424
 40
3.649684
 40
5.482109
 40
7.314533
 40
9.131793
 40
10.964217
 40
10.964217
 40
10.964217
 40
10.964217
 10
76.000000
 20
9.000000
 30
0.0
 10
75.953336
 20
9.612593
 30
0.0
 10
75.860395
 20
10.832709
 30
0.0
 10
75.125919
 20
12.539597
 30
0.0
 10
74.008485
 20
14.008485
 30
0.0
 10
72.539597
 20
15.125919
 30
0.0
 10
70.832709
 20
15.860395
 30
0.0
 10
69.612593
 20
15.953336
 30
0.0
 10
69.000000
 20
16.000000
 30
0.0
 11
76.000000
 21
9.000000
 31
0.0
 11
75.760176
 21
10.816663
 31
0.0
 11
75.064741
 21
12.495592
 31
0.0
 11
73.949748
 21
13.949748
 31
0.0
 11
72.495592
 21
15.064741
 31
0.0
 11
70.816663
 21
15.760176
 31
0.0
 11
69.000000
 21
16.000000
 31
0.0
  0
LINE
  5
12e
100
AcDbEntity
  8
0
 62
7
100
AcDbLine
 10
62.000000
 20
21.000000
 30
0.0
 11
62.000000
 21
35.500000
 31
0.0
  0
SPLINE
  5
12f
100
AcDbEntity
  8
0
 62
7
100
AcDbSpline
 70
0
 71
3
 72
13
 73
9
 74
7
 40
0.000000
 40
0.000000
 40
0.000000
 40
0.000000
 40
1.308874
 40
2.606917
 40
3.915792
 40
5.224666
 40
6.522709
 40
7.831584
 40
7.831584
 40
7.831584
 40
7.831584
 10
62.000000
 20
21.000000
 30
0.0
 10
62.033331
 20
20.562434
 30
0.0
 10
62.099718
 20
19.690922
 30
0.0
 10
62.624344
 20
18.471717
 30
0.0
 10
63.422510
 20
17.422510
 30
0.0
 10
64.471717
 20
16.624344
 30
0.0
 10
65.690922
 20
16.099718
 30
0.0
 10
66.562434
 20
16.033331
 30
0.0
 10
67.000000
 20
16.000000
 30
0.0
 11
62.000000
 21
21.000000
 31
0.0
 11
62.171303
 21
19.702384
 31
0.0
 11
62.668042
 21
18.503148
 31
0.0
 11
63.464466
 21
17.464466
 31
0.0
 11
64.503149
 21
16.668042
 31
0.0
 11
65.702384
 21
16.171303
 31
0.0
 11
67.000000
 21
16.000000
 31
0.0
  0
LINE
  5
130
100
AcDbEntity
  8
0
 62
7
100
AcDbLine
 10
44.500000
 20
53.000000
 30
0.0
 11
-44.500000
 21
53.000000
 31
0.0
  0
LINE
  5
131
100
AcDbEntity
  8
0
 62
7
100
AcDbLine
 10
-44.640000
 20
25.295000
 30
0.0
 11
-44.640000
 21
-25.295000
 31
0.0
  0
SPLINE
  5
132
100
AcDbEntity
  8
0
 62
7
100
AcDbSpline
 70
0
 71
3
 72
10
 73
6
 74
4
 40
0.000000
 40
0.000000
 40
0.000000
 40
0.000000
 40
9.150035
 40
18.028682
 40
27.178717
 40
27.178717
 40
27.178717
 40
27.178717
 10
62.000000
 20
35.500000
 30
0.0
 10
61.518659
 20
38.566452
 30
0.0
 10
60.570255
 20
44.608406
 30
0.0
 10
53.608406
 20
51.570255
 30
0.0
 10
47.566452
 20
52.518660
 30
0.0
 10
44.500000
 20
53.000000
 30
0.0
 11
62.000000
 21
35.500000
 31
0.0
 11
59.610737
 21
44.332585
 31
0.0
 11
53.332585
 21
50.610737
 31
0.0
 11
44.500000
 21
53.000000
 31
0.0
  0
LINE
  5
133
100
AcDbEntity
  8
0
 62
7
100
AcDbLine
 10
34.720000
 20
35.215000
 30
0.0
 11
-34.720000
 21
35.215000
 31
0.0
  0
SPLINE
  5
134
100
AcDbEntity
  8
0
 62
7
100
AcDbSpline
 70
0
 71
3
 72
13
 73
9
 74
7
 40
0.000000
 40
0.000000
 40
0.000000
 40
0.000000
 40
2.596807
 40
5.172124
 40
7.768931
 40
10.365738
 40
12.941055
 40
15.537862
 40
15.537862
 40
15.537862
 40
15.537862
 10
-34.720000
 20
35.215000
 30
0.0
 10
-35.588131
 20
35.148871
 30
0.0
 10
-37.317210
 20
35.017160
 30
0.0
 10
-39.736114
 20
33.976302
 30
0.0
 10
-41.817739
 20
32.392739
 30
0.0
 10
-43.401302
 20
30.311114
 30
0.0
 10
-44.442160
 20
27.892210
 30
0.0
 10
-44.573871
 20
26.163131
 30
0.0
 10
-44.640000
 20
25.295000
 30
0.0
 11
-34.720000
 21
35.215000
 31
0.0
 11
-37.294470
 21
34.875135
 31
0.0
 11
-39.673753
 21
33.889604
 31
0.0
 11
-41.734499
 21
32.309499
 31
0.0
 11
-43.314604
 21
30.248753
 31
0.0
 11
-44.300135
 21
27.869470
 31
0.0
 11
-44.640000
 21
25.295000
 31
0.0
  0
LINE
  5
135
100
AcDbEntity
  8
0
 62
7
100
AcDbLine
 10
44.640000
 20
-25.295000
 30
0.0
 11
44.640000
 21
25.295000
 31
0.0
  0
SPLINE
  5
136
100
AcDbEntity
  8
0
 62
7
100
AcDbSpline
 70
0
 71
3
 72
13
 73
9
 74
7
 40
0.000000
 40
0.000000
 40
0.000000
 40
0.000000
 40
2.596807
 40
5.172124
 40
7.768931
 40
10.365738
 40
12.941055
 40
15.537862
 40
15.537862
 40
15.537862
 40
15.537862
 10
44.640000
 20
25.295000
 30
0.0
 10
44.573871
 20
26.163131
 30
0.0
 10
44.442160
 20
27.892210
 30
0.0
 10
43.401302
 20
30.311114
 30
0.0
 10
41.817739
 20
32.392739
 30
0.0
 10
39.736114
 20
33.976302
 30
0.0
 10
37.317210
 20
35.017160
 30
0.0
 10
35.588131
 20
35.148871
 30
0.0
 10
34.720000
 20
35.215000
 30
0.0
 11
44.640000
 21
25.295000
 31
0.0
 11
44.300135
 21
27.869470
 31
0.0
 11
43.314604
 21
30.248753
 31
0.0
 11
41.734499
 21
32.309499
 31
0.0
 11
39.673753
 21
33.889604
 31
0.0
 11
37.294470
 21
34.875135
 31
0.0
 11
34.720000
 21
35.215000
 31
0.0
  0
LINE
  5
137
100
AcDbEntity
  8
0
 62
7
100
AcDbLine
 10
-34.720000
 20
-35.215000
 30
0.0
 11
34.720000
 21
-35.215000
 31
0.0
  0
SPLINE
  5
138
100
AcDbEntity
  8
0
 62
7
100
AcDbSpline
 70
0
 71
3
 72
13
 73
9
 74
7
 40
0.000000
 40
0.000000
 40
0.000000
 40
0.000000
 40
2.596807
 40
5.172124
 40
7.768931
 40
10.365738
 40
12.941055
 40
15.537862
 40
15.537862
 40
15.537862
 40
15.537862
 10
34.720000
 20
-35.215000
 30
0.0
 10
35.588131
 20
-35.148871
 30
0.0
 10
37.317210
 20
-35.017160
 30
0.0
 10
39.736114
 20
-33.976302
 30
0.0
 10
41.817739
 20
-32.392739
 30
0.0
 10
43.401302
 20
-30.311114
 30
0.0
 10
44.442160
 20
-27.892210
 30
0.0
 10
44.573871
 20
-26.163131
 30
0.0
 10
44.640000
 20
-25.295000
 30
0.0
 11
34.720000
 21
-35.215000
 31
0.0
 11
37.294470
 21
-34.875136
 31
0.0
 11
39.673753
 21
-33.889604
 31
0.0
 11
41.734499
 21
-32.309499
 31
0.0
 11
43.314604
 21
-30.248753
 31
0.0
 11
44.300136
 21
-27.869470
 31
0.0
 11
44.640000
 21
-25.295000
 31
0.0
  0
SPLINE
  5
139
100
AcDbEntity
  8
0
 62
7
100
AcDbSpline
 70
0
 71
3
 72
13
 73
9
 74
7
 40
0.000000
 40
0.000000
 40
0.000000
 40
0.000000
 40
2.596807
 40
5.172124
 40
7.768931
 40
10.365738
 40
12.941055
 40
15.537862
 40
15.537862
 40
15.537862
 40
15.537862
 10
-44.640000
 20
-25.295000
 30
0.0
 10
-44.573871
 20
-26.163131
 30
0.0
 10
-44.442160
 20
-27.892210
 30
0.0
 10
-43.401302
 20
-30.311114
 30
0.0
 10
-41.817739
 20
-32.392739
 30
0.0
 10
-39.736114
 20
-33.976302
 30
0.0
 10
-37.317210
 20
-35.017160
 30
0.0
 10
-35.588131
 20
-35.148871
 30
0.0
 10
-34.720000
 20
-35.215000
 30
0.0
 11
-44.640000
 21
-25.295000
 31
0.0
 11
-44.300136
 21
-27.869470
 31
0.0
 11
-43.314604
 21
-30.248753
 31
0.0
 11
-41.734499
 21
-32.309499
 31
0.0
 11
-39.673753
 21
-33.889604
 31
0.0
 11
-37.294470
 21
-34.875136
 31
0.0
 11
-34.720000
 21
-35.215000
 31
0.0
  0
LINE
  5
13a
100
AcDbEntity
  8
0
 62
7
100
AcDbLine
 10
71.150000
 20
-0.000000
 30
0.0
 11
71.150000
 21
-0.000000
 31
0.0
  0
SPLINE
  5
13b
100
AcDbEntity
  8
0
 62
7
100
AcDbSpline
 70
0
 71
3
 72
25
 73
21
 74
19
 40
0.000000
 40
0.000000
 40
0.000000
 40
0.000000
 40
0.750273
 40
1.489808
 40
2.240081
 40
2.990354
 40
3.729889
 40
4.480162
 40
5.230435
 40
5.969970
 40
6.720243
 40
7.470516
 40
8.210051
 40
8.960324
 40
9.710597
 40
10.450132
 40
11.200405
 40
11.950678
 40
12.690213
 40
13.440486
 40
13.440486
 40
13.440486
 40
13.440486
 10
71.150000
 20
-0.000000
 30
0.0
 10
71.124312
 20
0.251366
 30
0.0
 10
71.073303
 20
0.750502
 30
0.0
 10
70.677560
 20
1.410117
 30
0.0
 10
70.098125
 20
1.900524
 30
0.0
 10
69.380603
 20
2.160619
 30
0.0
 10
68.619232
 20
2.160619
 30
0.0
 10
67.902716
 20
1.900524
 30
0.0
 10
67.319268
 20
1.410117
 30
0.0
 10
66.938433
 20
0.750502
 30
0.0
 10
66.805465
 20
-0.000000
 30
0.0
 10
66.938433
 20
-0.750502
 30
0.0
 10
67.319268
 20
-1.410117
 30
0.0
 10
67.902716
 20
-1.900524
 30
0.0
 10
68.619232
 20
-2.160619
 30
0.0
 10
69.380603
 20
-2.160619
 30
0.0
 10
70.098125
 20
-1.900524
 30
0.0
 10
70.677560
 20
-1.410117
 30
0.0
 10
71.073303
 20
-0.750502
 30
0.0
 10
71.124312
 20
-0.251367
 30
0.0
 10
71.150000
 20
-0.000000
 30
0.0
 11
71.150000
 21
-0.000000
 31
0.0
 11
71.019121
 21
0.738769
 31
0.0
 11
70.649354
 21
1.379226
 31
0.0
 11
70.075000
 21
1.861955
 31
0.0
 11
69.369768
 21
2.117995
 31
0.0
 11
68.630232
 21
2.117995
 31
0.0
 11
67.925000
 21
1.861955
 31
0.0
 11
67.350646
 21
1.379226
 31
0.0
 11
66.980879
 21
0.738769
 31
0.0
 11
66.850000
 21
-0.000000
 31
0.0
 11
66.980879
 21
-0.738769
 31
0.0
 11
67.350646
 21
-1.379226
 31
0.0
 11
67.925000
 21
-1.861955
 31
0.0
 11
68.630232
 21
-2.117995
 31
0.0
 11
69.369768
 21
-2.117995
 31
0.0
 11
70.075000
 21
-1.861955
 31
0.0
 11
70.649354
 21
-1.379226
 31
0.0
 11
71.019121
 21
-0.738769
 31
0.0
 11
71.150000
 21
-0.000000
 31
0.0
  0
LINE
  5
13c
100
AcDbEntity
  8
0
 62
7
100
AcDbLine
 10
3.350000
 20
44.570000
 30
0.0
 11
3.350000
 21
44.570000
 31
0.0
  0
SPLINE
  5
13d
100
AcDbEntity
  8
0
 62
7
100
AcDbSpline
 70
0
 71
3
 72
25
 73
21
 74
19
 40
0.000000
 40
0.000000
 40
0.000000
 40
0.000000
 40
1.169030
 40
2.321329
 40
3.490359
 40
4.659389
 40
5.811688
 40
6.980718
 40
8.149747
 40
9.302047
 40
10.471076
 40
11.640106
 40
12.792405
 40
13.961435
 40
15.130465
 40
16.282764
 40
17.451794
 40
18.620824
 40
19.773123
 40
20.942153
 40
20.942153
 40
20.942153
 40
20.942153
 10
3.350000
 20
44.570000
 30
0.0
 10
3.309974
 20
44.961664
 30
0.0
 10
3.230496
 20
45.739387
 30
0.0
 10
2.613873
 20
46.767159
 30
0.0
 10
1.711032
 20
47.531281
 30
0.0
 10
0.593033
 20
47.936546
 30
0.0
 10
-0.593290
 20
47.936546
 30
0.0
 10
-1.709722
 20
47.531281
 30
0.0
 10
-2.618815
 20
46.767159
 30
0.0
 10
-3.212209
 20
45.739387
 30
0.0
 10
-3.419392
 20
44.570000
 30
0.0
 10
-3.212209
 20
43.400613
 30
0.0
 10
-2.618815
 20
42.372841
 30
0.0
 10
-1.709722
 20
41.608719
 30
0.0
 10
-0.593290
 20
41.203454
 30
0.0
 10
0.593033
 20
41.203454
 30
0.0
 10
1.711032
 20
41.608719
 30
0.0
 10
2.613873
 20
42.372841
 30
0.0
 10
3.230496
 20
43.400613
 30
0.0
 10
3.309974
 20
44.178336
 30
0.0
 10
3.350000
 20
44.570000
 30
0.0
 11
3.350000
 21
44.570000
 31
0.0
 11
3.146073
 21
45.721106
 31
0.0
 11
2.569923
 21
46.719026
 31
0.0
 11
1.675000
 21
47.471185
 31
0.0
 11
0.576150
 21
47.870132
 31
0.0
 11
-0.576150
 21
47.870132
 31
0.0
 11
-1.675000
 21
47.471185
 31
0.0
 11
-2.569923
 21
46.719026
 31
0.0
 11
-3.146073
 21
45.721106
 31
0.0
 11
-3.350000
 21
44.570000
 31
0.0
 11
-3.146073
 21
43.418894
 31
0.0
 11
-2.569923
 21
42.420974
 31
0.0
 11
-1.675000
 21
41.668815
 31
0.0
 11
-0.576150
 21
41.269868
 31
0.0
 11
0.576150
 21
41.269868
 31
0.0
 11
1.675000
 21
41.668815
 31
0.0
 11
2.569923
 21
42.420974
 31
0.0
 11
3.146073
 21
43.418894
 31
0.0
 11
3.350000
 21
44.570000
 31
0.0
  0
LINE
  5
13e
100
AcDbEntity
  8
0
 62
7
100
AcDbLine
 10
3.350000
 20
-44.570000
 30
0.0
 11
3.350000
 21
-44.570000
 31
0.0
  0
SPLINE
  5
13f
100
AcDbEntity
  8
0
 62
7
100
AcDbSpline
 70
0
 71
3
 72
25
 73
21
 74
19
 40
0.000000
 40
0.000000
 40
0.000000
 40
0.000000
 40
1.169030
 40
2.321329
 40
3.490359
 40
4.659389
 40
5.811688
 40
6.980718
 40
8.149747
 40
9.302047
 40
10.471076
 40
11.640106
 40
12.792405
 40
13.961435
 40
15.130465
 40
16.282764
 40
17.451794
 40
18.620824
 40
19.773123
 40
20.942153
 40
20.942153
 40
20.942153
 40
20.942153
 10
3.350000
 20
-44.570000
 30
0.0
 10
3.309974
 20
-44.178336
 30
0.0
 10
3.230496
 20
-43.400613
 30
0.0
 10
2.613873
 20
-42.372841
 30
0.0
 10
1.711032
 20
-41.608719
 30
0.0
 10
0.593033
 20
-41.203454
 30
0.0
 10
-0.593290
 20
-41.203454
 30
0.0
 10
-1.709722
 20
-41.608719
 30
0.0
 10
-2.618815
 20
-42.372841
 30
0.0
 10
-3.212209
 20
-43.400613
 30
0.0
 10
-3.419392
 20
-44.570000
 30
0.0
 10
-3.212209
 20
-45.739387
 30
0.0
 10
-2.618815
 20
-46.767160
 30
0.0
 10
-1.709722
 20
-47.531282
 30
0.0
 10
-0.593290
 20
-47.936546
 30
0.0
 10
0.593033
 20
-47.936546
 30
0.0
 10
1.711032
 20
-47.531282
 30
0.0
 10
2.613873
 20
-46.767160
 30
0.0
 10
3.230496
 20
-45.739387
 30
0.0
 10
3.309974
 20
-44.961664
 30
0.0
 10
3.350000
 20
-44.570000
 30
0.0
 11
3.350000
 21
-44.570000
 31
0.0
 11
3.146073
 21
-43.418894
 31
0.0
 11
2.569923
 21
-42.420974
 31
0.0
 11
1.675000
 21
-41.668815
 31
0.0
 11
0.576150
 21
-41.269868
 31
0.0
 11
-0.576150
 21
-41.269868
 31
0.0
 11
-1.675000
 21
-41.668815
 31
0.0
 11
-2.569923
 21
-42.420974
 31
0.0
 11
-3.146073
 21
-43.418894
 31
0.0
 11
-3.350000
 21
-44.570000
 31
0.0
 11
-3.146073
 21
-45.721106
 31
0.0
 11
-2.569923
 21
-46.719026
 31
0.0
 11
-1.675000
 21
-47.471185
 31
0.0
 11
-0.576150
 21
-47.870132
 31
0.0
 11
0.576150
 21
-47.870132
 31
0.0
 11
1.675000
 21
-47.471185
 31
0.0
 11
2.569923
 21
-46.719026
 31
0.0
 11
3.146073
 21
-45.721106
 31
0.0
 11
3.350000
 21
-44.570000
 31
0.0
  0
LINE
  5
140
100
AcDbEntity
  8
0
 62
7
100
AcDbLine
 10
-44.250000
 20
-39.610000
 30
0.0
 11
-44.250000
 21
-39.610000
 31
0.0
  0
SPLINE
  5
141
100
AcDbEntity
  8
0
 62
7
100
AcDbSpline
 70
0
 71
3
 72
25
 73
21
 74
19
 40
0.000000
 40
0.000000
 40
0.000000
 40
0.000000
 40
1.169246
 40
2.321752
 40
3.490997
 40
4.660243
 40
5.812749
 40
6.981994
 40
8.151240
 40
9.303746
 40
10.472992
 40
11.642237
 40
12.794743
 40
13.963989
 40
15.133234
 40
16.285740
 40
17.454986
 40
18.624232
 40
19.776738
 40
20.945983
 40
20.945983
 40
20.945983
 40
20.945983
 10
-44.250000
 20
-39.610000
 30
0.0
 10
-44.289927
 20
-39.218251
 30
0.0
 10
-44.369210
 20
-38.440362
 30
0.0
 10
-44.985755
 20
-37.412273
 30
0.0
 10
-45.888668
 20
-36.647889
 30
0.0
 10
-47.006855
 20
-36.242475
 30
0.0
 10
-48.193401
 20
-36.242475
 30
0.0
 10
-49.310026
 20
-36.647889
 30
0.0
 10
-50.219175
 20
-37.412273
 30
0.0
 10
-50.812549
 20
-38.440362
 30
0.0
 10
-51.019221
 20
-39.610000
 30
0.0
 10
-50.812549
 20
-40.779637
 30
0.0
 10
-50.219175
 20
-41.807727
 30
0.0
 10
-49.310026
 20
-42.572110
 30
0.0
 10
-48.193401
 20
-42.977524
 30
0.0
 10
-47.006855
 20
-42.977524
 30
0.0
 10
-45.888668
 20
-42.572110
 30
0.0
 10
-44.985755
 20
-41.807727
 30
0.0
 10
-44.369210
 20
-40.779637
 30
0.0
 10
-44.289927
 20
-40.001749
 30
0.0
 10
-44.250000
 20
-39.610000
 30
0.0
 11
-44.250000
 21
-39.610000
 31
0.0
 11
-44.453669
 21
-38.458629
 31
0.0
 11
-45.029728
 21
-37.460418
 31
0.0
 11
-45.924719
 21
-36.708004
 31
0.0
 11
-47.023747
 21
-36.308914
 31
0.0
 11
-48.176253
 21
-36.308914
 31
0.0
 11
-49.275281
 21
-36.708004
 31
0.0
 11
-50.170272
 21
-37.460418
 31
0.0
 11
-50.746332
 21
-38.458629
 31
0.0
 11
-50.950000
 21
-39.610000
 31
0.0
 11
-50.746332
 21
-40.761371
 31
0.0
 11
-50.170272
 21
-41.759582
 31
0.0
 11
-49.275281
 21
-42.511995
 31
0.0
 11
-48.176253
 21
-42.911086
 31
0.0
 11
-47.023747
 21
-42.911086
 31
0.0
 11
-45.924719
 21
-42.511995
 31
0.0
 11
-45.029728
 21
-41.759582
 31
0.0
 11
-44.453669
 21
-40.761371
 31
0.0
 11
-44.250000
 21
-39.610000
 31
0.0
  0
LINE
  5
142
100
AcDbEntity
  8
0
 62
7
100
AcDbLine
 10
-51.220000
 20
-0.000000
 30
0.0
 11
-51.220000
 21
-0.000000
 31
0.0
  0
SPLINE
  5
143
100
AcDbEntity
  8
0
 62
7
100
AcDbSpline
 70
0
 71
3
 72
25
 73
21
 74
19
 40
0.000000
 40
0.000000
 40
0.000000
 40
0.000000
 40
1.169246
 40
2.321752
 40
3.490997
 40
4.660243
 40
5.812749
 40
6.981994
 40
8.151240
 40
9.303746
 40
10.472992
 40
11.642237
 40
12.794743
 40
13.963989
 40
15.133234
 40
16.285740
 40
17.454986
 40
18.624232
 40
19.776738
 40
20.945983
 40
20.945983
 40
20.945983
 40
20.945983
 10
-51.220000
 20
-0.000000
 30
0.0
 10
-51.259927
 20
0.391749
 30
0.0
 10
-51.339209
 20
1.169637
 30
0.0
 10
-51.955755
 20
2.197727
 30
0.0
 10
-52.858668
 20
2.962110
 30
0.0
 10
-53.976855
 20
3.367525
 30
0.0
 10
-55.163401
 20
3.367525
 30
0.0
 10
-56.280026
 20
2.962110
 30
0.0
 10
-57.189175
 20
2.197727
 30
0.0
 10
-57.782549
 20
1.169637
 30
0.0
 10
-57.989221
 20
-0.000000
 30
0.0
 10
-57.782549
 20
-1.169638
 30
0.0
 10
-57.189175
 20
-2.197727
 30
0.0
 10
-56.280026
 20
-2.962111
 30
0.0
 10
-55.163401
 20
-3.367525
 30
0.0
 10
-53.976855
 20
-3.367525
 30
0.0
 10
-52.858668
 20
-2.962111
 30
0.0
 10
-51.955755
 20
-2.197727
 30
0.0
 10
-51.339209
 20
-1.169638
 30
0.0
 10
-51.259927
 20
-0.391749
 30
0.0
 10
-51.220000
 20
-0.000000
 30
0.0
 11
-51.220000
 21
-0.000000
 31
0.0
 11
-51.423668
 21
1.151371
 31
0.0
 11
-51.999728
 21
2.149582
 31
0.0
 11
-52.894719
 21
2.901995
 31
0.0
 11
-53.993747
 21
3.301086
 31
0.0
 11
-55.146253
 21
3.301086
 31
0.0
 11
-56.245281
 21
2.901995
 31
0.0
 11
-57.140272
 21
2.149582
 31
0.0
 11
-57.716331
 21
1.151371
 31
0.0
 11
-57.920000
 21
-0.000000
 31
0.0
 11
-57.716331
 21
-1.151371
 31
0.0
 11
-57.140272
 21
-2.149582
 31
0.0
 11
-56.245281
 21
-2.901996
 31
0.0
 11
-55.146253
 21
-3.301086
 31
0.0
 11
-53.993747
 21
-3.301086
 31
0.0
 11
-52.894719
 21
-2.901996
 31
0.0
 11
-51.999728
 21
-2.149582
 31
0.0
 11
-51.423668
 21
-1.151371
 31
0.0
 11
-51.220000
 21
-0.000000
 31
0.0
  0
ENDSEC
  0
SECTION
  2
OBJECTS
  0
DICTIONARY
  5
C
330
0
100
AcDbDictionary
  3
ACAD_GROUP
350
D
  3
ACAD_MLINESTYLE
350
17
  0
DICTIONARY
  5
D
330
C
100
AcDbDictionary
  0
DICTIONARY
  5
1A
330
C
100
AcDbDictionary
  0
DICTIONARY
  5
17
330
C
100
AcDbDictionary
  3
STANDARD
350
18
  0
DICTIONARY
  5
19
330
C
100
AcDbDictionary
  0
ENDSEC
  0
EOF
