  0
SECTION
  2
HEADER
  9
$ACADVER
  1
AC1014
  9
$HANDSEED
  5
FFFF
  9
$MEASUREMENT
 70
     1
  0
ENDSEC
  0
SECTION
  2
TABLES
  0
TABLE
  2
VPORT
  5
8
330
0
100
AcDbSymbolTable
 70
     4
  0
VPORT
  5
2E
330
8
100
AcDbSymbolTableRecord
100
AcDbViewportTableRecord
  2
*ACTIVE
 70
     0
 10
0.0
 20
0.0
 11
1.0
 21
1.0
 12
210.0
 22
148.5
 13
0.0
 23
0.0
 14
10.0
 24
10.0
 15
10.0
 25
10.0
 16
0.0
 26
0.0
 36
1.0
 17
0.0
 27
0.0
 37
0.0
 40
341.0
 41
1.24
 42
50.0
 43
0.0
 44
0.0
 50
0.0
 51
0.0
 71
     0
 72
   100
 73
     1
 74
     3
 75
     0
 76
     0
 77
     0
 78
     0
  0
ENDTAB
  0
TABLE
  2
LTYPE
  5
5
330
0
100
AcDbSymbolTable
 70
     1
  0
LTYPE
  5
14
330
5
100
AcDbSymbolTableRecord
100
AcDbLinetypeTableRecord
  2
BYBLOCK
 70
     0
  3

 72
    65
 73
     0
 40
0.0
  0
LTYPE
  5
15
330
5
100
AcDbSymbolTableRecord
100
AcDbLinetypeTableRecord
  2
BYLAYER
 70
     0
  3

 72
    65
 73
     0
 40
0.0
  0
LTYPE
  5
16
330
5
100
AcDbSymbolTableRecord
100
AcDbLinetypeTableRecord
  2
CONTINUOUS
 70
     0
  3
Solid line
 72
    65
 73
     0
 40
0.0
  0
ENDTAB
  0
TABLE
  2
LAYER
  5
2
100
AcDbSymbolTable
 70
1
  0
LAYER
  5
50
100
AcDbSymbolTableRecord
100
AcDbLayerTableRecord
  2
0
 70
0
  6
CONTINUOUS
  0
ENDTAB
  0
TABLE
  2
STYLE
  5
3
330
0
100
AcDbSymbolTable
 70
     1
  0
STYLE
  5
11
330
3
100
AcDbSymbolTableRecord
100
AcDbTextStyleTableRecord
  2
STANDARD
 70
     0
 40
0.0
 41
1.0
 50
0.0
 71
     0
 42
2.5
  3
txt
  4

  0
ENDTAB
  0
TABLE
  2
VIEW
  5
6
330
0
100
AcDbSymbolTable
 70
     0
  0
ENDTAB
  0
TABLE
  2
UCS
  5
7
330
0
100
AcDbSymbolTable
 70
     0
  0
ENDTAB
  0
TABLE
  2
APPID
  5
9
330
0
100
AcDbSymbolTable
 70
     2
  0
APPID
  5
12
330
9
100
AcDbSymbolTableRecord
100
AcDbRegAppTableRecord
  2
ACAD
 70
     0
  0
ENDTAB
  0
TABLE
  2
DIMSTYLE
  5
A
330
0
100
AcDbSymbolTable
 70
     1
  0
DIMSTYLE
105
27
330
A
100
AcDbSymbolTableRecord
100
AcDbDimStyleTableRecord
  2
ISO-25
 70
     0
  3

  4

  5

  6

  7

 40
1.0
 41
2.5
 42
0.625
 43
3.75
 44
1.25
 45
0.0
 46
0.0
 47
0.0
 48
0.0
140
2.5
141
2.5
142
0.0
143
0.03937007874016
144
1.0
145
0.0
146
1.0
147
0.625
 71
     0
 72
     0
 73
     0
 74
     0
 75
     0
 76
     0
 77
     1
 78
     8
170
     0
171
     3
172
     1
173
     0
174
     0
175
     0
176
     0
177
     0
178
     0
270
     2
271
     2
272
     2
273
     2
274
     3
340
11
275
     0
280
     0
281
     0
282
     0
283
     0
284
     8
285
     0
286
     0
287
     3
288
     0
  0
ENDTAB
  0
TABLE
  2
BLOCK_RECORD
  5
1
330
0
100
AcDbSymbolTable
 70
     1
  0
BLOCK_RECORD
  5
1F
330
1
100
AcDbSymbolTableRecord
100
AcDbBlockTableRecord
  2
*MODEL_SPACE
  0
BLOCK_RECORD
  5
1B
330
1
100
AcDbSymbolTableRecord
100
AcDbBlockTableRecord
  2
*PAPER_SPACE
  0
ENDTAB
  0
ENDSEC
  0
SECTION
  2
BLOCKS
  0
BLOCK
  5
20
330
1F
100
AcDbEntity
  8
0
100
AcDbBlockBegin
  2
*MODEL_SPACE
 70
     0
 10
0.0
 20
0.0
 30
0.0
  3
*MODEL_SPACE
  1

  0
ENDBLK
  5
21
330
1F
100
AcDbEntity
  8
0
100
AcDbBlockEnd
  0
BLOCK
  5
1C
330
1B
100
AcDbEntity
 67
     1
  8
0
100
AcDbBlockBegin
  2
*PAPER_SPACE
  1

  0
ENDBLK
  5
1D
330
1B
100
AcDbEntity
 67
     1
  8
0
100
AcDbBlockEnd
  0
ENDSEC
  0
SECTION
  2
ENTITIES
  0
SPLINE
  5
100
100
AcDbEntity
  8
0
 62
7
100
AcDbSpline
 70
8
 71
3
 72
8
 73
4
 74
0
 40
0
 40
0
 40
0
 40
0
 40
1
 40
1
 40
1
 40
1
 10
-7.141428
 20
59.500000
 30
0.0
 10
-6.472152
 20
58.914902
 30
0.0
 10
-5.802875
 20
58.329804
 30
0.0
 10
-5.051117
 20
57.869429
 30
0.0
  0
SPLINE
  5
101
100
AcDbEntity
  8
0
 62
7
100
AcDbSpline
 70
8
 71
3
 72
8
 73
4
 74
0
 40
0
 40
0
 40
0
 40
0
 40
1
 40
1
 40
1
 40
1
 10
-5.051117
 20
57.869429
 30
0.0
 10
-4.305733
 20
57.412958
 30
0.0
 10
-3.479261
 20
57.079103
 30
0.0
 10
-2.627679
 20
56.851381
 30
0.0
  0
SPLINE
  5
102
100
AcDbEntity
  8
0
 62
7
100
AcDbSpline
 70
8
 71
3
 72
8
 73
4
 74
0
 40
0
 40
0
 40
0
 40
0
 40
1
 40
1
 40
1
 40
1
 10
-2.627679
 20
56.851381
 30
0.0
 10
-1.768813
 20
56.621712
 30
0.0
 10
-0.884406
 20
56.500000
 30
0.0
 10
0.000000
 20
56.500000
 30
0.0
  0
SPLINE
  5
103
100
AcDbEntity
  8
0
 62
7
100
AcDbSpline
 70
8
 71
3
 72
8
 73
4
 74
0
 40
0
 40
0
 40
0
 40
0
 40
1
 40
1
 40
1
 40
1
 10
0.000000
 20
56.500000
 30
0.0
 10
0.884407
 20
56.500000
 30
0.0
 10
1.768813
 20
56.621712
 30
0.0
 10
2.627678
 20
56.851381
 30
0.0
  0
SPLINE
  5
104
100
AcDbEntity
  8
0
 62
7
100
AcDbSpline
 70
8
 71
3
 72
8
 73
4
 74
0
 40
0
 40
0
 40
0
 40
0
 40
1
 40
1
 40
1
 40
1
 10
2.627678
 20
56.851381
 30
0.0
 10
3.479261
 20
57.079102
 30
0.0
 10
4.305733
 20
57.412957
 30
0.0
 10
5.051117
 20
57.869429
 30
0.0
  0
SPLINE
  5
105
100
AcDbEntity
  8
0
 62
7
100
AcDbSpline
 70
8
 71
3
 72
8
 73
4
 74
0
 40
0
 40
0
 40
0
 40
0
 40
1
 40
1
 40
1
 40
1
 10
5.051117
 20
57.869429
 30
0.0
 10
5.802875
 20
58.329804
 30
0.0
 10
6.472152
 20
58.914902
 30
0.0
 10
7.141428
 20
59.500000
 30
0.0
  0
LWPOLYLINE
  5
106
100
AcDbEntity
  8
0
 62
7
100
AcDbPolyline
 90
2
 70
0
 10
-7.141428
 20
59.500000
 30
0.0
 10
-52.500000
 20
59.500000
 30
0.0
  0
SPLINE
  5
107
100
AcDbEntity
  8
0
 62
7
100
AcDbSpline
 70
8
 71
3
 72
8
 73
4
 74
0
 40
0
 40
0
 40
0
 40
0
 40
1
 40
1
 40
1
 40
1
 10
-52.500000
 20
59.500000
 30
0.0
 10
-55.300424
 20
59.286680
 30
0.0
 10
-58.100848
 20
59.073360
 30
0.0
 10
-60.804744
 20
58.403663
 30
0.0
  0
SPLINE
  5
108
100
AcDbEntity
  8
0
 62
7
100
AcDbSpline
 70
8
 71
3
 72
8
 73
4
 74
0
 40
0
 40
0
 40
0
 40
0
 40
1
 40
1
 40
1
 40
1
 10
-60.804744
 20
58.403663
 30
0.0
 10
-63.486263
 20
57.739508
 30
0.0
 10
-66.072846
 20
56.626497
 30
0.0
 10
-68.479849
 20
55.224530
 30
0.0
  0
SPLINE
  5
109
100
AcDbEntity
  8
0
 62
7
100
AcDbSpline
 70
8
 71
3
 72
8
 73
4
 74
0
 40
0
 40
0
 40
0
 40
0
 40
1
 40
1
 40
1
 40
1
 10
-68.479849
 20
55.224530
 30
0.0
 10
-70.906937
 20
53.810864
 30
0.0
 10
-73.151435
 20
52.103398
 30
0.0
 10
-75.127417
 20
50.127416
 30
0.0
  0
SPLINE
  5
10a
100
AcDbEntity
  8
0
 62
7
100
AcDbSpline
 70
8
 71
3
 72
8
 73
4
 74
0
 40
0
 40
0
 40
0
 40
0
 40
1
 40
1
 40
1
 40
1
 10
-75.127417
 20
50.127416
 30
0.0
 10
-77.103398
 20
48.151435
 30
0.0
 10
-78.810864
 20
45.906937
 30
0.0
 10
-80.224530
 20
43.479849
 30
0.0
  0
SPLINE
  5
10b
100
AcDbEntity
  8
0
 62
7
100
AcDbSpline
 70
8
 71
3
 72
8
 73
4
 74
0
 40
0
 40
0
 40
0
 40
0
 40
1
 40
1
 40
1
 40
1
 10
-80.224530
 20
43.479849
 30
0.0
 10
-81.626497
 20
41.072846
 30
0.0
 10
-82.739508
 20
38.486264
 30
0.0
 10
-83.403663
 20
35.804744
 30
0.0
  0
SPLINE
  5
10c
100
AcDbEntity
  8
0
 62
7
100
AcDbSpline
 70
8
 71
3
 72
8
 73
4
 74
0
 40
0
 40
0
 40
0
 40
0
 40
1
 40
1
 40
1
 40
1
 10
-83.403663
 20
35.804744
 30
0.0
 10
-84.073360
 20
33.100848
 30
0.0
 10
-84.286680
 20
30.300424
 30
0.0
 10
-84.500000
 20
27.500000
 30
0.0
  0
LWPOLYLINE
  5
10d
100
AcDbEntity
  8
0
 62
7
100
AcDbPolyline
 90
2
 70
0
 10
-84.500000
 20
27.500000
 30
0.0
 10
-84.500000
 20
-27.500000
 30
0.0
  0
SPLINE
  5
10e
100
AcDbEntity
  8
0
 62
7
100
AcDbSpline
 70
8
 71
3
 72
8
 73
4
 74
0
 40
0
 40
0
 40
0
 40
0
 40
1
 40
1
 40
1
 40
1
 10
-84.500000
 20
-27.500000
 30
0.0
 10
-84.286680
 20
-30.300424
 30
0.0
 10
-84.073360
 20
-33.100847
 30
0.0
 10
-83.403663
 20
-35.804743
 30
0.0
  0
SPLINE
  5
10f
100
AcDbEntity
  8
0
 62
7
100
AcDbSpline
 70
8
 71
3
 72
8
 73
4
 74
0
 40
0
 40
0
 40
0
 40
0
 40
1
 40
1
 40
1
 40
1
 10
-83.403663
 20
-35.804743
 30
0.0
 10
-82.739508
 20
-38.486263
 30
0.0
 10
-81.626497
 20
-41.072846
 30
0.0
 10
-80.224530
 20
-43.479849
 30
0.0
  0
SPLINE
  5
110
100
AcDbEntity
  8
0
 62
7
100
AcDbSpline
 70
8
 71
3
 72
8
 73
4
 74
0
 40
0
 40
0
 40
0
 40
0
 40
1
 40
1
 40
1
 40
1
 10
-80.224530
 20
-43.479849
 30
0.0
 10
-78.810864
 20
-45.906937
 30
0.0
 10
-77.103398
 20
-48.151435
 30
0.0
 10
-75.127416
 20
-50.127417
 30
0.0
  0
SPLINE
  5
111
100
AcDbEntity
  8
0
 62
7
100
AcDbSpline
 70
8
 71
3
 72
8
 73
4
 74
0
 40
0
 40
0
 40
0
 40
0
 40
1
 40
1
 40
1
 40
1
 10
-75.127416
 20
-50.127417
 30
0.0
 10
-73.151435
 20
-52.103398
 30
0.0
 10
-70.906937
 20
-53.810864
 30
0.0
 10
-68.479849
 20
-55.224530
 30
0.0
  0
SPLINE
  5
112
100
AcDbEntity
  8
0
 62
7
100
AcDbSpline
 70
8
 71
3
 72
8
 73
4
 74
0
 40
0
 40
0
 40
0
 40
0
 40
1
 40
1
 40
1
 40
1
 10
-68.479849
 20
-55.224530
 30
0.0
 10
-66.072846
 20
-56.626497
 30
0.0
 10
-63.486264
 20
-57.739508
 30
0.0
 10
-60.804744
 20
-58.403663
 30
0.0
  0
SPLINE
  5
113
100
AcDbEntity
  8
0
 62
7
100
AcDbSpline
 70
8
 71
3
 72
8
 73
4
 74
0
 40
0
 40
0
 40
0
 40
0
 40
1
 40
1
 40
1
 40
1
 10
-60.804744
 20
-58.403663
 30
0.0
 10
-58.100848
 20
-59.073360
 30
0.0
 10
-55.300424
 20
-59.286680
 30
0.0
 10
-52.500000
 20
-59.500000
 30
0.0
  0
LWPOLYLINE
  5
114
100
AcDbEntity
  8
0
 62
7
100
AcDbPolyline
 90
2
 70
0
 10
-52.500000
 20
-59.500000
 30
0.0
 10
52.500000
 20
-59.500000
 30
0.0
  0
SPLINE
  5
115
100
AcDbEntity
  8
0
 62
7
100
AcDbSpline
 70
8
 71
3
 72
8
 73
4
 74
0
 40
0
 40
0
 40
0
 40
0
 40
1
 40
1
 40
1
 40
1
 10
52.500000
 20
-59.500000
 30
0.0
 10
55.300424
 20
-59.286680
 30
0.0
 10
58.100848
 20
-59.073360
 30
0.0
 10
60.804744
 20
-58.403663
 30
0.0
  0
SPLINE
  5
116
100
AcDbEntity
  8
0
 62
7
100
AcDbSpline
 70
8
 71
3
 72
8
 73
4
 74
0
 40
0
 40
0
 40
0
 40
0
 40
1
 40
1
 40
1
 40
1
 10
60.804744
 20
-58.403663
 30
0.0
 10
63.486263
 20
-57.739508
 30
0.0
 10
66.072846
 20
-56.626497
 30
0.0
 10
68.479849
 20
-55.224530
 30
0.0
  0
SPLINE
  5
117
100
AcDbEntity
  8
0
 62
7
100
AcDbSpline
 70
8
 71
3
 72
8
 73
4
 74
0
 40
0
 40
0
 40
0
 40
0
 40
1
 40
1
 40
1
 40
1
 10
68.479849
 20
-55.224530
 30
0.0
 10
70.906937
 20
-53.810864
 30
0.0
 10
73.151435
 20
-52.103398
 30
0.0
 10
75.127417
 20
-50.127416
 30
0.0
  0
SPLINE
  5
118
100
AcDbEntity
  8
0
 62
7
100
AcDbSpline
 70
8
 71
3
 72
8
 73
4
 74
0
 40
0
 40
0
 40
0
 40
0
 40
1
 40
1
 40
1
 40
1
 10
75.127417
 20
-50.127416
 30
0.0
 10
77.103398
 20
-48.151435
 30
0.0
 10
78.810864
 20
-45.906937
 30
0.0
 10
80.224530
 20
-43.479849
 30
0.0
  0
SPLINE
  5
119
100
AcDbEntity
  8
0
 62
7
100
AcDbSpline
 70
8
 71
3
 72
8
 73
4
 74
0
 40
0
 40
0
 40
0
 40
0
 40
1
 40
1
 40
1
 40
1
 10
80.224530
 20
-43.479849
 30
0.0
 10
81.626497
 20
-41.072846
 30
0.0
 10
82.739508
 20
-38.486263
 30
0.0
 10
83.403663
 20
-35.804743
 30
0.0
  0
SPLINE
  5
11a
100
AcDbEntity
  8
0
 62
7
100
AcDbSpline
 70
8
 71
3
 72
8
 73
4
 74
0
 40
0
 40
0
 40
0
 40
0
 40
1
 40
1
 40
1
 40
1
 10
83.403663
 20
-35.804743
 30
0.0
 10
84.073360
 20
-33.100847
 30
0.0
 10
84.286680
 20
-30.300424
 30
0.0
 10
84.500000
 20
-27.500000
 30
0.0
  0
LWPOLYLINE
  5
11b
100
AcDbEntity
  8
0
 62
7
100
AcDbPolyline
 90
2
 70
0
 10
84.500000
 20
-27.500000
 30
0.0
 10
84.500000
 20
27.500000
 30
0.0
  0
SPLINE
  5
11c
100
AcDbEntity
  8
0
 62
7
100
AcDbSpline
 70
8
 71
3
 72
8
 73
4
 74
0
 40
0
 40
0
 40
0
 40
0
 40
1
 40
1
 40
1
 40
1
 10
84.500000
 20
27.500000
 30
0.0
 10
84.286680
 20
30.300424
 30
0.0
 10
84.073360
 20
33.100848
 30
0.0
 10
83.403663
 20
35.804744
 30
0.0
  0
SPLINE
  5
11d
100
AcDbEntity
  8
0
 62
7
100
AcDbSpline
 70
8
 71
3
 72
8
 73
4
 74
0
 40
0
 40
0
 40
0
 40
0
 40
1
 40
1
 40
1
 40
1
 10
83.403663
 20
35.804744
 30
0.0
 10
82.739508
 20
38.486263
 30
0.0
 10
81.626497
 20
41.072846
 30
0.0
 10
80.224530
 20
43.479849
 30
0.0
  0
SPLINE
  5
11e
100
AcDbEntity
  8
0
 62
7
100
AcDbSpline
 70
8
 71
3
 72
8
 73
4
 74
0
 40
0
 40
0
 40
0
 40
0
 40
1
 40
1
 40
1
 40
1
 10
80.224530
 20
43.479849
 30
0.0
 10
78.810864
 20
45.906937
 30
0.0
 10
77.103398
 20
48.151435
 30
0.0
 10
75.127416
 20
50.127417
 30
0.0
  0
SPLINE
  5
11f
100
AcDbEntity
  8
0
 62
7
100
AcDbSpline
 70
8
 71
3
 72
8
 73
4
 74
0
 40
0
 40
0
 40
0
 40
0
 40
1
 40
1
 40
1
 40
1
 10
75.127416
 20
50.127417
 30
0.0
 10
73.151435
 20
52.103398
 30
0.0
 10
70.906937
 20
53.810864
 30
0.0
 10
68.479849
 20
55.224530
 30
0.0
  0
SPLINE
  5
120
100
AcDbEntity
  8
0
 62
7
100
AcDbSpline
 70
8
 71
3
 72
8
 73
4
 74
0
 40
0
 40
0
 40
0
 40
0
 40
1
 40
1
 40
1
 40
1
 10
68.479849
 20
55.224530
 30
0.0
 10
66.072846
 20
56.626497
 30
0.0
 10
63.486264
 20
57.739508
 30
0.0
 10
60.804744
 20
58.403663
 30
0.0
  0
SPLINE
  5
121
100
AcDbEntity
  8
0
 62
7
100
AcDbSpline
 70
8
 71
3
 72
8
 73
4
 74
0
 40
0
 40
0
 40
0
 40
0
 40
1
 40
1
 40
1
 40
1
 10
60.804744
 20
58.403663
 30
0.0
 10
58.100848
 20
59.073360
 30
0.0
 10
55.300424
 20
59.286680
 30
0.0
 10
52.500000
 20
59.500000
 30
0.0
  0
LWPOLYLINE
  5
122
100
AcDbEntity
  8
0
 62
7
100
AcDbPolyline
 90
2
 70
0
 10
52.500000
 20
59.500000
 30
0.0
 10
7.141428
 20
59.500000
 30
0.0
  0
SPLINE
  5
123
100
AcDbEntity
  8
0
 62
7
100
AcDbSpline
 70
8
 71
3
 72
8
 73
4
 74
0
 40
0
 40
0
 40
0
 40
0
 40
1
 40
1
 40
1
 40
1
 10
-73.350000
 20
19.000000
 30
0.0
 10
-73.369645
 20
19.192969
 30
0.0
 10
-73.389290
 20
19.385938
 30
0.0
 10
-73.450260
 20
19.567149
 30
0.0
  0
SPLINE
  5
124
100
AcDbEntity
  8
0
 62
7
100
AcDbSpline
 70
8
 71
3
 72
8
 73
4
 74
0
 40
0
 40
0
 40
0
 40
0
 40
1
 40
1
 40
1
 40
1
 10
-73.450260
 20
19.567149
 30
0.0
 10
-73.510357
 20
19.745765
 30
0.0
 10
-73.610605
 20
19.912959
 30
0.0
 10
-73.733972
 20
20.058866
 30
0.0
  0
SPLINE
  5
125
100
AcDbEntity
  8
0
 62
7
100
AcDbSpline
 70
8
 71
3
 72
8
 73
4
 74
0
 40
0
 40
0
 40
0
 40
0
 40
1
 40
1
 40
1
 40
1
 10
-73.733972
 20
20.058866
 30
0.0
 10
-73.859132
 20
20.206891
 30
0.0
 10
-74.008087
 20
20.333008
 30
0.0
 10
-74.174803
 20
20.429511
 30
0.0
  0
SPLINE
  5
126
100
AcDbEntity
  8
0
 62
7
100
AcDbSpline
 70
8
 71
3
 72
8
 73
4
 74
0
 40
0
 40
0
 40
0
 40
0
 40
1
 40
1
 40
1
 40
1
 10
-74.174803
 20
20.429511
 30
0.0
 10
-74.341519
 20
20.526014
 30
0.0
 10
-74.525995
 20
20.592904
 30
0.0
 10
-74.716152
 20
20.626108
 30
0.0
  0
SPLINE
  5
127
100
AcDbEntity
  8
0
 62
7
100
AcDbSpline
 70
8
 71
3
 72
8
 73
4
 74
0
 40
0
 40
0
 40
0
 40
0
 40
1
 40
1
 40
1
 40
1
 10
-74.716152
 20
20.626108
 30
0.0
 10
-74.903586
 20
20.658836
 30
0.0
 10
-75.096540
 20
20.658836
 30
0.0
 10
-75.283848
 20
20.626108
 30
0.0
  0
SPLINE
  5
128
100
AcDbEntity
  8
0
 62
7
100
AcDbSpline
 70
8
 71
3
 72
8
 73
4
 74
0
 40
0
 40
0
 40
0
 40
0
 40
1
 40
1
 40
1
 40
1
 10
-75.283848
 20
20.626108
 30
0.0
 10
-75.473877
 20
20.592904
 30
0.0
 10
-75.658096
 20
20.526014
 30
0.0
 10
-75.825197
 20
20.429511
 30
0.0
  0
SPLINE
  5
129
100
AcDbEntity
  8
0
 62
7
100
AcDbSpline
 70
8
 71
3
 72
8
 73
4
 74
0
 40
0
 40
0
 40
0
 40
0
 40
1
 40
1
 40
1
 40
1
 10
-75.825197
 20
20.429511
 30
0.0
 10
-75.992298
 20
20.333008
 30
0.0
 10
-76.142281
 20
20.206891
 30
0.0
 10
-76.266028
 20
20.058866
 30
0.0
  0
SPLINE
  5
12a
100
AcDbEntity
  8
0
 62
7
100
AcDbSpline
 70
8
 71
3
 72
8
 73
4
 74
0
 40
0
 40
0
 40
0
 40
0
 40
1
 40
1
 40
1
 40
1
 10
-76.266028
 20
20.058866
 30
0.0
 10
-76.388002
 20
19.912959
 30
0.0
 10
-76.484486
 20
19.745765
 30
0.0
 10
-76.549740
 20
19.567149
 30
0.0
  0
SPLINE
  5
12b
100
AcDbEntity
  8
0
 62
7
100
AcDbSpline
 70
8
 71
3
 72
8
 73
4
 74
0
 40
0
 40
0
 40
0
 40
0
 40
1
 40
1
 40
1
 40
1
 10
-76.549740
 20
19.567149
 30
0.0
 10
-76.615942
 20
19.385937
 30
0.0
 10
-76.650000
 20
19.192969
 30
0.0
 10
-76.650000
 20
19.000000
 30
0.0
  0
SPLINE
  5
12c
100
AcDbEntity
  8
0
 62
7
100
AcDbSpline
 70
8
 71
3
 72
8
 73
4
 74
0
 40
0
 40
0
 40
0
 40
0
 40
1
 40
1
 40
1
 40
1
 10
-76.650000
 20
19.000000
 30
0.0
 10
-76.650000
 20
18.807031
 30
0.0
 10
-76.615942
 20
18.614063
 30
0.0
 10
-76.549740
 20
18.432851
 30
0.0
  0
SPLINE
  5
12d
100
AcDbEntity
  8
0
 62
7
100
AcDbSpline
 70
8
 71
3
 72
8
 73
4
 74
0
 40
0
 40
0
 40
0
 40
0
 40
1
 40
1
 40
1
 40
1
 10
-76.549740
 20
18.432851
 30
0.0
 10
-76.484486
 20
18.254235
 30
0.0
 10
-76.388002
 20
18.087041
 30
0.0
 10
-76.266028
 20
17.941134
 30
0.0
  0
SPLINE
  5
12e
100
AcDbEntity
  8
0
 62
7
100
AcDbSpline
 70
8
 71
3
 72
8
 73
4
 74
0
 40
0
 40
0
 40
0
 40
0
 40
1
 40
1
 40
1
 40
1
 10
-76.266028
 20
17.941134
 30
0.0
 10
-76.142281
 20
17.793109
 30
0.0
 10
-75.992298
 20
17.666992
 30
0.0
 10
-75.825197
 20
17.570489
 30
0.0
  0
SPLINE
  5
12f
100
AcDbEntity
  8
0
 62
7
100
AcDbSpline
 70
8
 71
3
 72
8
 73
4
 74
0
 40
0
 40
0
 40
0
 40
0
 40
1
 40
1
 40
1
 40
1
 10
-75.825197
 20
17.570489
 30
0.0
 10
-75.658096
 20
17.473986
 30
0.0
 10
-75.473877
 20
17.407096
 30
0.0
 10
-75.283848
 20
17.373892
 30
0.0
  0
SPLINE
  5
130
100
AcDbEntity
  8
0
 62
7
100
AcDbSpline
 70
8
 71
3
 72
8
 73
4
 74
0
 40
0
 40
0
 40
0
 40
0
 40
1
 40
1
 40
1
 40
1
 10
-75.283848
 20
17.373892
 30
0.0
 10
-75.096540
 20
17.341164
 30
0.0
 10
-74.903586
 20
17.341164
 30
0.0
 10
-74.716152
 20
17.373892
 30
0.0
  0
SPLINE
  5
131
100
AcDbEntity
  8
0
 62
7
100
AcDbSpline
 70
8
 71
3
 72
8
 73
4
 74
0
 40
0
 40
0
 40
0
 40
0
 40
1
 40
1
 40
1
 40
1
 10
-74.716152
 20
17.373892
 30
0.0
 10
-74.525995
 20
17.407096
 30
0.0
 10
-74.341519
 20
17.473986
 30
0.0
 10
-74.174803
 20
17.570489
 30
0.0
  0
SPLINE
  5
132
100
AcDbEntity
  8
0
 62
7
100
AcDbSpline
 70
8
 71
3
 72
8
 73
4
 74
0
 40
0
 40
0
 40
0
 40
0
 40
1
 40
1
 40
1
 40
1
 10
-74.174803
 20
17.570489
 30
0.0
 10
-74.008087
 20
17.666992
 30
0.0
 10
-73.859132
 20
17.793109
 30
0.0
 10
-73.733972
 20
17.941134
 30
0.0
  0
SPLINE
  5
133
100
AcDbEntity
  8
0
 62
7
100
AcDbSpline
 70
8
 71
3
 72
8
 73
4
 74
0
 40
0
 40
0
 40
0
 40
0
 40
1
 40
1
 40
1
 40
1
 10
-73.733972
 20
17.941134
 30
0.0
 10
-73.610605
 20
18.087041
 30
0.0
 10
-73.510357
 20
18.254235
 30
0.0
 10
-73.450260
 20
18.432851
 30
0.0
  0
SPLINE
  5
134
100
AcDbEntity
  8
0
 62
7
100
AcDbSpline
 70
8
 71
3
 72
8
 73
4
 74
0
 40
0
 40
0
 40
0
 40
0
 40
1
 40
1
 40
1
 40
1
 10
-73.450260
 20
18.432851
 30
0.0
 10
-73.389290
 20
18.614063
 30
0.0
 10
-73.369645
 20
18.807031
 30
0.0
 10
-73.350000
 20
19.000000
 30
0.0
  0
LWPOLYLINE
  5
135
100
AcDbEntity
  8
0
 62
7
100
AcDbPolyline
 90
1
 70
1
 10
-73.350000
 20
19.000000
 30
0.0
  0
SPLINE
  5
136
100
AcDbEntity
  8
0
 62
7
100
AcDbSpline
 70
8
 71
3
 72
8
 73
4
 74
0
 40
0
 40
0
 40
0
 40
0
 40
1
 40
1
 40
1
 40
1
 10
-73.350000
 20
-19.000000
 30
0.0
 10
-73.369645
 20
-18.807031
 30
0.0
 10
-73.389290
 20
-18.614063
 30
0.0
 10
-73.450260
 20
-18.432851
 30
0.0
  0
SPLINE
  5
137
100
AcDbEntity
  8
0
 62
7
100
AcDbSpline
 70
8
 71
3
 72
8
 73
4
 74
0
 40
0
 40
0
 40
0
 40
0
 40
1
 40
1
 40
1
 40
1
 10
-73.450260
 20
-18.432851
 30
0.0
 10
-73.510357
 20
-18.254234
 30
0.0
 10
-73.610605
 20
-18.087040
 30
0.0
 10
-73.733972
 20
-17.941134
 30
0.0
  0
SPLINE
  5
138
100
AcDbEntity
  8
0
 62
7
100
AcDbSpline
 70
8
 71
3
 72
8
 73
4
 74
0
 40
0
 40
0
 40
0
 40
0
 40
1
 40
1
 40
1
 40
1
 10
-73.733972
 20
-17.941134
 30
0.0
 10
-73.859132
 20
-17.793108
 30
0.0
 10
-74.008087
 20
-17.666992
 30
0.0
 10
-74.174803
 20
-17.570489
 30
0.0
  0
SPLINE
  5
139
100
AcDbEntity
  8
0
 62
7
100
AcDbSpline
 70
8
 71
3
 72
8
 73
4
 74
0
 40
0
 40
0
 40
0
 40
0
 40
1
 40
1
 40
1
 40
1
 10
-74.174803
 20
-17.570489
 30
0.0
 10
-74.341519
 20
-17.473986
 30
0.0
 10
-74.525995
 20
-17.407096
 30
0.0
 10
-74.716152
 20
-17.373892
 30
0.0
  0
SPLINE
  5
13a
100
AcDbEntity
  8
0
 62
7
100
AcDbSpline
 70
8
 71
3
 72
8
 73
4
 74
0
 40
0
 40
0
 40
0
 40
0
 40
1
 40
1
 40
1
 40
1
 10
-74.716152
 20
-17.373892
 30
0.0
 10
-74.903586
 20
-17.341164
 30
0.0
 10
-75.096540
 20
-17.341164
 30
0.0
 10
-75.283848
 20
-17.373892
 30
0.0
  0
SPLINE
  5
13b
100
AcDbEntity
  8
0
 62
7
100
AcDbSpline
 70
8
 71
3
 72
8
 73
4
 74
0
 40
0
 40
0
 40
0
 40
0
 40
1
 40
1
 40
1
 40
1
 10
-75.283848
 20
-17.373892
 30
0.0
 10
-75.473877
 20
-17.407096
 30
0.0
 10
-75.658096
 20
-17.473986
 30
0.0
 10
-75.825197
 20
-17.570489
 30
0.0
  0
SPLINE
  5
13c
100
AcDbEntity
  8
0
 62
7
100
AcDbSpline
 70
8
 71
3
 72
8
 73
4
 74
0
 40
0
 40
0
 40
0
 40
0
 40
1
 40
1
 40
1
 40
1
 10
-75.825197
 20
-17.570489
 30
0.0
 10
-75.992298
 20
-17.666992
 30
0.0
 10
-76.142281
 20
-17.793108
 30
0.0
 10
-76.266028
 20
-17.941134
 30
0.0
  0
SPLINE
  5
13d
100
AcDbEntity
  8
0
 62
7
100
AcDbSpline
 70
8
 71
3
 72
8
 73
4
 74
0
 40
0
 40
0
 40
0
 40
0
 40
1
 40
1
 40
1
 40
1
 10
-76.266028
 20
-17.941134
 30
0.0
 10
-76.388002
 20
-18.087040
 30
0.0
 10
-76.484486
 20
-18.254234
 30
0.0
 10
-76.549740
 20
-18.432851
 30
0.0
  0
SPLINE
  5
13e
100
AcDbEntity
  8
0
 62
7
100
AcDbSpline
 70
8
 71
3
 72
8
 73
4
 74
0
 40
0
 40
0
 40
0
 40
0
 40
1
 40
1
 40
1
 40
1
 10
-76.549740
 20
-18.432851
 30
0.0
 10
-76.615942
 20
-18.614063
 30
0.0
 10
-76.650000
 20
-18.807032
 30
0.0
 10
-76.650000
 20
-19.000000
 30
0.0
  0
SPLINE
  5
13f
100
AcDbEntity
  8
0
 62
7
100
AcDbSpline
 70
8
 71
3
 72
8
 73
4
 74
0
 40
0
 40
0
 40
0
 40
0
 40
1
 40
1
 40
1
 40
1
 10
-76.650000
 20
-19.000000
 30
0.0
 10
-76.650000
 20
-19.192969
 30
0.0
 10
-76.615942
 20
-19.385937
 30
0.0
 10
-76.549740
 20
-19.567148
 30
0.0
  0
SPLINE
  5
140
100
AcDbEntity
  8
0
 62
7
100
AcDbSpline
 70
8
 71
3
 72
8
 73
4
 74
0
 40
0
 40
0
 40
0
 40
0
 40
1
 40
1
 40
1
 40
1
 10
-76.549740
 20
-19.567148
 30
0.0
 10
-76.484486
 20
-19.745765
 30
0.0
 10
-76.388002
 20
-19.912959
 30
0.0
 10
-76.266028
 20
-20.058865
 30
0.0
  0
SPLINE
  5
141
100
AcDbEntity
  8
0
 62
7
100
AcDbSpline
 70
8
 71
3
 72
8
 73
4
 74
0
 40
0
 40
0
 40
0
 40
0
 40
1
 40
1
 40
1
 40
1
 10
-76.266028
 20
-20.058865
 30
0.0
 10
-76.142281
 20
-20.206891
 30
0.0
 10
-75.992298
 20
-20.333007
 30
0.0
 10
-75.825197
 20
-20.429510
 30
0.0
  0
SPLINE
  5
142
100
AcDbEntity
  8
0
 62
7
100
AcDbSpline
 70
8
 71
3
 72
8
 73
4
 74
0
 40
0
 40
0
 40
0
 40
0
 40
1
 40
1
 40
1
 40
1
 10
-75.825197
 20
-20.429510
 30
0.0
 10
-75.658096
 20
-20.526013
 30
0.0
 10
-75.473877
 20
-20.592903
 30
0.0
 10
-75.283848
 20
-20.626108
 30
0.0
  0
SPLINE
  5
143
100
AcDbEntity
  8
0
 62
7
100
AcDbSpline
 70
8
 71
3
 72
8
 73
4
 74
0
 40
0
 40
0
 40
0
 40
0
 40
1
 40
1
 40
1
 40
1
 10
-75.283848
 20
-20.626108
 30
0.0
 10
-75.096540
 20
-20.658836
 30
0.0
 10
-74.903586
 20
-20.658836
 30
0.0
 10
-74.716152
 20
-20.626108
 30
0.0
  0
SPLINE
  5
144
100
AcDbEntity
  8
0
 62
7
100
AcDbSpline
 70
8
 71
3
 72
8
 73
4
 74
0
 40
0
 40
0
 40
0
 40
0
 40
1
 40
1
 40
1
 40
1
 10
-74.716152
 20
-20.626108
 30
0.0
 10
-74.525995
 20
-20.592903
 30
0.0
 10
-74.341519
 20
-20.526013
 30
0.0
 10
-74.174803
 20
-20.429510
 30
0.0
  0
SPLINE
  5
145
100
AcDbEntity
  8
0
 62
7
100
AcDbSpline
 70
8
 71
3
 72
8
 73
4
 74
0
 40
0
 40
0
 40
0
 40
0
 40
1
 40
1
 40
1
 40
1
 10
-74.174803
 20
-20.429510
 30
0.0
 10
-74.008087
 20
-20.333007
 30
0.0
 10
-73.859132
 20
-20.206891
 30
0.0
 10
-73.733972
 20
-20.058865
 30
0.0
  0
SPLINE
  5
146
100
AcDbEntity
  8
0
 62
7
100
AcDbSpline
 70
8
 71
3
 72
8
 73
4
 74
0
 40
0
 40
0
 40
0
 40
0
 40
1
 40
1
 40
1
 40
1
 10
-73.733972
 20
-20.058865
 30
0.0
 10
-73.610605
 20
-19.912959
 30
0.0
 10
-73.510357
 20
-19.745765
 30
0.0
 10
-73.450260
 20
-19.567148
 30
0.0
  0
SPLINE
  5
147
100
AcDbEntity
  8
0
 62
7
100
AcDbSpline
 70
8
 71
3
 72
8
 73
4
 74
0
 40
0
 40
0
 40
0
 40
0
 40
1
 40
1
 40
1
 40
1
 10
-73.450260
 20
-19.567148
 30
0.0
 10
-73.389290
 20
-19.385937
 30
0.0
 10
-73.369645
 20
-19.192968
 30
0.0
 10
-73.350000
 20
-19.000000
 30
0.0
  0
LWPOLYLINE
  5
148
100
AcDbEntity
  8
0
 62
7
100
AcDbPolyline
 90
1
 70
1
 10
-73.350000
 20
-19.000000
 30
0.0
  0
SPLINE
  5
149
100
AcDbEntity
  8
0
 62
7
100
AcDbSpline
 70
8
 71
3
 72
8
 73
4
 74
0
 40
0
 40
0
 40
0
 40
0
 40
1
 40
1
 40
1
 40
1
 10
-38.350000
 20
-50.000000
 30
0.0
 10
-38.369645
 20
-49.807031
 30
0.0
 10
-38.389290
 20
-49.614063
 30
0.0
 10
-38.450260
 20
-49.432851
 30
0.0
  0
SPLINE
  5
14a
100
AcDbEntity
  8
0
 62
7
100
AcDbSpline
 70
8
 71
3
 72
8
 73
4
 74
0
 40
0
 40
0
 40
0
 40
0
 40
1
 40
1
 40
1
 40
1
 10
-38.450260
 20
-49.432851
 30
0.0
 10
-38.510357
 20
-49.254235
 30
0.0
 10
-38.610605
 20
-49.087041
 30
0.0
 10
-38.733972
 20
-48.941135
 30
0.0
  0
SPLINE
  5
14b
100
AcDbEntity
  8
0
 62
7
100
AcDbSpline
 70
8
 71
3
 72
8
 73
4
 74
0
 40
0
 40
0
 40
0
 40
0
 40
1
 40
1
 40
1
 40
1
 10
-38.733972
 20
-48.941135
 30
0.0
 10
-38.859132
 20
-48.793108
 30
0.0
 10
-39.008087
 20
-48.666992
 30
0.0
 10
-39.174803
 20
-48.570489
 30
0.0
  0
SPLINE
  5
14c
100
AcDbEntity
  8
0
 62
7
100
AcDbSpline
 70
8
 71
3
 72
8
 73
4
 74
0
 40
0
 40
0
 40
0
 40
0
 40
1
 40
1
 40
1
 40
1
 10
-39.174803
 20
-48.570489
 30
0.0
 10
-39.341518
 20
-48.473986
 30
0.0
 10
-39.525995
 20
-48.407096
 30
0.0
 10
-39.716152
 20
-48.373893
 30
0.0
  0
SPLINE
  5
14d
100
AcDbEntity
  8
0
 62
7
100
AcDbSpline
 70
8
 71
3
 72
8
 73
4
 74
0
 40
0
 40
0
 40
0
 40
0
 40
1
 40
1
 40
1
 40
1
 10
-39.716152
 20
-48.373893
 30
0.0
 10
-39.903586
 20
-48.341164
 30
0.0
 10
-40.096540
 20
-48.341164
 30
0.0
 10
-40.283848
 20
-48.373893
 30
0.0
  0
SPLINE
  5
14e
100
AcDbEntity
  8
0
 62
7
100
AcDbSpline
 70
8
 71
3
 72
8
 73
4
 74
0
 40
0
 40
0
 40
0
 40
0
 40
1
 40
1
 40
1
 40
1
 10
-40.283848
 20
-48.373893
 30
0.0
 10
-40.473877
 20
-48.407096
 30
0.0
 10
-40.658096
 20
-48.473986
 30
0.0
 10
-40.825197
 20
-48.570489
 30
0.0
  0
SPLINE
  5
14f
100
AcDbEntity
  8
0
 62
7
100
AcDbSpline
 70
8
 71
3
 72
8
 73
4
 74
0
 40
0
 40
0
 40
0
 40
0
 40
1
 40
1
 40
1
 40
1
 10
-40.825197
 20
-48.570489
 30
0.0
 10
-40.992298
 20
-48.666992
 30
0.0
 10
-41.142281
 20
-48.793108
 30
0.0
 10
-41.266027
 20
-48.941135
 30
0.0
  0
SPLINE
  5
150
100
AcDbEntity
  8
0
 62
7
100
AcDbSpline
 70
8
 71
3
 72
8
 73
4
 74
0
 40
0
 40
0
 40
0
 40
0
 40
1
 40
1
 40
1
 40
1
 10
-41.266027
 20
-48.941135
 30
0.0
 10
-41.388002
 20
-49.087041
 30
0.0
 10
-41.484486
 20
-49.254235
 30
0.0
 10
-41.549740
 20
-49.432852
 30
0.0
  0
SPLINE
  5
151
100
AcDbEntity
  8
0
 62
7
100
AcDbSpline
 70
8
 71
3
 72
8
 73
4
 74
0
 40
0
 40
0
 40
0
 40
0
 40
1
 40
1
 40
1
 40
1
 10
-41.549740
 20
-49.432852
 30
0.0
 10
-41.615942
 20
-49.614063
 30
0.0
 10
-41.650000
 20
-49.807031
 30
0.0
 10
-41.650000
 20
-50.000000
 30
0.0
  0
SPLINE
  5
152
100
AcDbEntity
  8
0
 62
7
100
AcDbSpline
 70
8
 71
3
 72
8
 73
4
 74
0
 40
0
 40
0
 40
0
 40
0
 40
1
 40
1
 40
1
 40
1
 10
-41.650000
 20
-50.000000
 30
0.0
 10
-41.650000
 20
-50.192969
 30
0.0
 10
-41.615942
 20
-50.385937
 30
0.0
 10
-41.549740
 20
-50.567148
 30
0.0
  0
SPLINE
  5
153
100
AcDbEntity
  8
0
 62
7
100
AcDbSpline
 70
8
 71
3
 72
8
 73
4
 74
0
 40
0
 40
0
 40
0
 40
0
 40
1
 40
1
 40
1
 40
1
 10
-41.549740
 20
-50.567148
 30
0.0
 10
-41.484486
 20
-50.745765
 30
0.0
 10
-41.388002
 20
-50.912959
 30
0.0
 10
-41.266027
 20
-51.058865
 30
0.0
  0
SPLINE
  5
154
100
AcDbEntity
  8
0
 62
7
100
AcDbSpline
 70
8
 71
3
 72
8
 73
4
 74
0
 40
0
 40
0
 40
0
 40
0
 40
1
 40
1
 40
1
 40
1
 10
-41.266027
 20
-51.058865
 30
0.0
 10
-41.142281
 20
-51.206892
 30
0.0
 10
-40.992298
 20
-51.333008
 30
0.0
 10
-40.825197
 20
-51.429511
 30
0.0
  0
SPLINE
  5
155
100
AcDbEntity
  8
0
 62
7
100
AcDbSpline
 70
8
 71
3
 72
8
 73
4
 74
0
 40
0
 40
0
 40
0
 40
0
 40
1
 40
1
 40
1
 40
1
 10
-40.825197
 20
-51.429511
 30
0.0
 10
-40.658096
 20
-51.526014
 30
0.0
 10
-40.473877
 20
-51.592904
 30
0.0
 10
-40.283848
 20
-51.626107
 30
0.0
  0
SPLINE
  5
156
100
AcDbEntity
  8
0
 62
7
100
AcDbSpline
 70
8
 71
3
 72
8
 73
4
 74
0
 40
0
 40
0
 40
0
 40
0
 40
1
 40
1
 40
1
 40
1
 10
-40.283848
 20
-51.626107
 30
0.0
 10
-40.096540
 20
-51.658836
 30
0.0
 10
-39.903586
 20
-51.658836
 30
0.0
 10
-39.716152
 20
-51.626107
 30
0.0
  0
SPLINE
  5
157
100
AcDbEntity
  8
0
 62
7
100
AcDbSpline
 70
8
 71
3
 72
8
 73
4
 74
0
 40
0
 40
0
 40
0
 40
0
 40
1
 40
1
 40
1
 40
1
 10
-39.716152
 20
-51.626107
 30
0.0
 10
-39.525995
 20
-51.592904
 30
0.0
 10
-39.341518
 20
-51.526014
 30
0.0
 10
-39.174803
 20
-51.429511
 30
0.0
  0
SPLINE
  5
158
100
AcDbEntity
  8
0
 62
7
100
AcDbSpline
 70
8
 71
3
 72
8
 73
4
 74
0
 40
0
 40
0
 40
0
 40
0
 40
1
 40
1
 40
1
 40
1
 10
-39.174803
 20
-51.429511
 30
0.0
 10
-39.008087
 20
-51.333008
 30
0.0
 10
-38.859132
 20
-51.206892
 30
0.0
 10
-38.733972
 20
-51.058865
 30
0.0
  0
SPLINE
  5
159
100
AcDbEntity
  8
0
 62
7
100
AcDbSpline
 70
8
 71
3
 72
8
 73
4
 74
0
 40
0
 40
0
 40
0
 40
0
 40
1
 40
1
 40
1
 40
1
 10
-38.733972
 20
-51.058865
 30
0.0
 10
-38.610605
 20
-50.912959
 30
0.0
 10
-38.510357
 20
-50.745765
 30
0.0
 10
-38.450260
 20
-50.567148
 30
0.0
  0
SPLINE
  5
15a
100
AcDbEntity
  8
0
 62
7
100
AcDbSpline
 70
8
 71
3
 72
8
 73
4
 74
0
 40
0
 40
0
 40
0
 40
0
 40
1
 40
1
 40
1
 40
1
 10
-38.450260
 20
-50.567148
 30
0.0
 10
-38.389290
 20
-50.385937
 30
0.0
 10
-38.369645
 20
-50.192969
 30
0.0
 10
-38.350000
 20
-50.000000
 30
0.0
  0
LWPOLYLINE
  5
15b
100
AcDbEntity
  8
0
 62
7
100
AcDbPolyline
 90
1
 70
1
 10
-38.350000
 20
-50.000000
 30
0.0
  0
SPLINE
  5
15c
100
AcDbEntity
  8
0
 62
7
100
AcDbSpline
 70
8
 71
3
 72
8
 73
4
 74
0
 40
0
 40
0
 40
0
 40
0
 40
1
 40
1
 40
1
 40
1
 10
1.650000
 20
-50.000000
 30
0.0
 10
1.630286
 20
-49.807091
 30
0.0
 10
1.610572
 20
-49.614181
 30
0.0
 10
1.549558
 20
-49.433037
 30
0.0
  0
SPLINE
  5
15d
100
AcDbEntity
  8
0
 62
7
100
AcDbSpline
 70
8
 71
3
 72
8
 73
4
 74
0
 40
0
 40
0
 40
0
 40
0
 40
1
 40
1
 40
1
 40
1
 10
1.549558
 20
-49.433037
 30
0.0
 10
1.489418
 20
-49.254485
 30
0.0
 10
1.389152
 20
-49.087365
 30
0.0
 10
1.265783
 20
-48.941525
 30
0.0
  0
SPLINE
  5
15e
100
AcDbEntity
  8
0
 62
7
100
AcDbSpline
 70
8
 71
3
 72
8
 73
4
 74
0
 40
0
 40
0
 40
0
 40
0
 40
1
 40
1
 40
1
 40
1
 10
1.265783
 20
-48.941525
 30
0.0
 10
1.140624
 20
-48.793567
 30
0.0
 10
0.991685
 20
-48.667512
 30
0.0
 10
0.825000
 20
-48.571058
 30
0.0
  0
SPLINE
  5
15f
100
AcDbEntity
  8
0
 62
7
100
AcDbSpline
 70
8
 71
3
 72
8
 73
4
 74
0
 40
0
 40
0
 40
0
 40
0
 40
1
 40
1
 40
1
 40
1
 10
0.825000
 20
-48.571058
 30
0.0
 10
0.658315
 20
-48.474603
 30
0.0
 10
0.473883
 20
-48.407748
 30
0.0
 10
0.283775
 20
-48.374562
 30
0.0
  0
SPLINE
  5
160
100
AcDbEntity
  8
0
 62
7
100
AcDbSpline
 70
8
 71
3
 72
8
 73
4
 74
0
 40
0
 40
0
 40
0
 40
0
 40
1
 40
1
 40
1
 40
1
 10
0.283775
 20
-48.374562
 30
0.0
 10
0.096388
 20
-48.341850
 30
0.0
 10
-0.096514
 20
-48.341850
 30
0.0
 10
-0.283775
 20
-48.374562
 30
0.0
  0
SPLINE
  5
161
100
AcDbEntity
  8
0
 62
7
100
AcDbSpline
 70
8
 71
3
 72
8
 73
4
 74
0
 40
0
 40
0
 40
0
 40
0
 40
1
 40
1
 40
1
 40
1
 10
-0.283775
 20
-48.374562
 30
0.0
 10
-0.473755
 20
-48.407748
 30
0.0
 10
-0.657928
 20
-48.474603
 30
0.0
 10
-0.825000
 20
-48.571058
 30
0.0
  0
SPLINE
  5
162
100
AcDbEntity
  8
0
 62
7
100
AcDbSpline
 70
8
 71
3
 72
8
 73
4
 74
0
 40
0
 40
0
 40
0
 40
0
 40
1
 40
1
 40
1
 40
1
 10
-0.825000
 20
-48.571058
 30
0.0
 10
-0.992071
 20
-48.667512
 30
0.0
 10
-1.142041
 20
-48.793567
 30
0.0
 10
-1.265783
 20
-48.941525
 30
0.0
  0
SPLINE
  5
163
100
AcDbEntity
  8
0
 62
7
100
AcDbSpline
 70
8
 71
3
 72
8
 73
4
 74
0
 40
0
 40
0
 40
0
 40
0
 40
1
 40
1
 40
1
 40
1
 10
-1.265783
 20
-48.941525
 30
0.0
 10
-1.387754
 20
-49.087365
 30
0.0
 10
-1.484243
 20
-49.254485
 30
0.0
 10
-1.549558
 20
-49.433037
 30
0.0
  0
SPLINE
  5
164
100
AcDbEntity
  8
0
 62
7
100
AcDbSpline
 70
8
 71
3
 72
8
 73
4
 74
0
 40
0
 40
0
 40
0
 40
0
 40
1
 40
1
 40
1
 40
1
 10
-1.549558
 20
-49.433037
 30
0.0
 10
-1.615822
 20
-49.614181
 30
0.0
 10
-1.650000
 20
-49.807091
 30
0.0
 10
-1.650000
 20
-50.000000
 30
0.0
  0
SPLINE
  5
165
100
AcDbEntity
  8
0
 62
7
100
AcDbSpline
 70
8
 71
3
 72
8
 73
4
 74
0
 40
0
 40
0
 40
0
 40
0
 40
1
 40
1
 40
1
 40
1
 10
-1.650000
 20
-50.000000
 30
0.0
 10
-1.650000
 20
-50.192909
 30
0.0
 10
-1.615822
 20
-50.385819
 30
0.0
 10
-1.549558
 20
-50.566963
 30
0.0
  0
SPLINE
  5
166
100
AcDbEntity
  8
0
 62
7
100
AcDbSpline
 70
8
 71
3
 72
8
 73
4
 74
0
 40
0
 40
0
 40
0
 40
0
 40
1
 40
1
 40
1
 40
1
 10
-1.549558
 20
-50.566963
 30
0.0
 10
-1.484243
 20
-50.745515
 30
0.0
 10
-1.387754
 20
-50.912635
 30
0.0
 10
-1.265783
 20
-51.058475
 30
0.0
  0
SPLINE
  5
167
100
AcDbEntity
  8
0
 62
7
100
AcDbSpline
 70
8
 71
3
 72
8
 73
4
 74
0
 40
0
 40
0
 40
0
 40
0
 40
1
 40
1
 40
1
 40
1
 10
-1.265783
 20
-51.058475
 30
0.0
 10
-1.142041
 20
-51.206433
 30
0.0
 10
-0.992071
 20
-51.332488
 30
0.0
 10
-0.825000
 20
-51.428942
 30
0.0
  0
SPLINE
  5
168
100
AcDbEntity
  8
0
 62
7
100
AcDbSpline
 70
8
 71
3
 72
8
 73
4
 74
0
 40
0
 40
0
 40
0
 40
0
 40
1
 40
1
 40
1
 40
1
 10
-0.825000
 20
-51.428942
 30
0.0
 10
-0.657928
 20
-51.525397
 30
0.0
 10
-0.473755
 20
-51.592252
 30
0.0
 10
-0.283775
 20
-51.625438
 30
0.0
  0
SPLINE
  5
169
100
AcDbEntity
  8
0
 62
7
100
AcDbSpline
 70
8
 71
3
 72
8
 73
4
 74
0
 40
0
 40
0
 40
0
 40
0
 40
1
 40
1
 40
1
 40
1
 10
-0.283775
 20
-51.625438
 30
0.0
 10
-0.096514
 20
-51.658150
 30
0.0
 10
0.096388
 20
-51.658150
 30
0.0
 10
0.283775
 20
-51.625438
 30
0.0
  0
SPLINE
  5
16a
100
AcDbEntity
  8
0
 62
7
100
AcDbSpline
 70
8
 71
3
 72
8
 73
4
 74
0
 40
0
 40
0
 40
0
 40
0
 40
1
 40
1
 40
1
 40
1
 10
0.283775
 20
-51.625438
 30
0.0
 10
0.473883
 20
-51.592252
 30
0.0
 10
0.658315
 20
-51.525397
 30
0.0
 10
0.825000
 20
-51.428942
 30
0.0
  0
SPLINE
  5
16b
100
AcDbEntity
  8
0
 62
7
100
AcDbSpline
 70
8
 71
3
 72
8
 73
4
 74
0
 40
0
 40
0
 40
0
 40
0
 40
1
 40
1
 40
1
 40
1
 10
0.825000
 20
-51.428942
 30
0.0
 10
0.991685
 20
-51.332488
 30
0.0
 10
1.140624
 20
-51.206433
 30
0.0
 10
1.265783
 20
-51.058475
 30
0.0
  0
SPLINE
  5
16c
100
AcDbEntity
  8
0
 62
7
100
AcDbSpline
 70
8
 71
3
 72
8
 73
4
 74
0
 40
0
 40
0
 40
0
 40
0
 40
1
 40
1
 40
1
 40
1
 10
1.265783
 20
-51.058475
 30
0.0
 10
1.389152
 20
-50.912635
 30
0.0
 10
1.489418
 20
-50.745515
 30
0.0
 10
1.549558
 20
-50.566963
 30
0.0
  0
SPLINE
  5
16d
100
AcDbEntity
  8
0
 62
7
100
AcDbSpline
 70
8
 71
3
 72
8
 73
4
 74
0
 40
0
 40
0
 40
0
 40
0
 40
1
 40
1
 40
1
 40
1
 10
1.549558
 20
-50.566963
 30
0.0
 10
1.610572
 20
-50.385819
 30
0.0
 10
1.630286
 20
-50.192909
 30
0.0
 10
1.650000
 20
-50.000000
 30
0.0
  0
LWPOLYLINE
  5
16e
100
AcDbEntity
  8
0
 62
7
100
AcDbPolyline
 90
1
 70
1
 10
1.650000
 20
-50.000000
 30
0.0
  0
SPLINE
  5
16f
100
AcDbEntity
  8
0
 62
7
100
AcDbSpline
 70
8
 71
3
 72
8
 73
4
 74
0
 40
0
 40
0
 40
0
 40
0
 40
1
 40
1
 40
1
 40
1
 10
41.650000
 20
-50.000000
 30
0.0
 10
41.630355
 20
-49.807031
 30
0.0
 10
41.610710
 20
-49.614063
 30
0.0
 10
41.549740
 20
-49.432851
 30
0.0
  0
SPLINE
  5
170
100
AcDbEntity
  8
0
 62
7
100
AcDbSpline
 70
8
 71
3
 72
8
 73
4
 74
0
 40
0
 40
0
 40
0
 40
0
 40
1
 40
1
 40
1
 40
1
 10
41.549740
 20
-49.432851
 30
0.0
 10
41.489643
 20
-49.254235
 30
0.0
 10
41.389395
 20
-49.087041
 30
0.0
 10
41.266028
 20
-48.941135
 30
0.0
  0
SPLINE
  5
171
100
AcDbEntity
  8
0
 62
7
100
AcDbSpline
 70
8
 71
3
 72
8
 73
4
 74
0
 40
0
 40
0
 40
0
 40
0
 40
1
 40
1
 40
1
 40
1
 10
41.266028
 20
-48.941135
 30
0.0
 10
41.140868
 20
-48.793108
 30
0.0
 10
40.991913
 20
-48.666992
 30
0.0
 10
40.825197
 20
-48.570489
 30
0.0
  0
SPLINE
  5
172
100
AcDbEntity
  8
0
 62
7
100
AcDbSpline
 70
8
 71
3
 72
8
 73
4
 74
0
 40
0
 40
0
 40
0
 40
0
 40
1
 40
1
 40
1
 40
1
 10
40.825197
 20
-48.570489
 30
0.0
 10
40.658482
 20
-48.473986
 30
0.0
 10
40.474005
 20
-48.407096
 30
0.0
 10
40.283848
 20
-48.373893
 30
0.0
  0
SPLINE
  5
173
100
AcDbEntity
  8
0
 62
7
100
AcDbSpline
 70
8
 71
3
 72
8
 73
4
 74
0
 40
0
 40
0
 40
0
 40
0
 40
1
 40
1
 40
1
 40
1
 10
40.283848
 20
-48.373893
 30
0.0
 10
40.096414
 20
-48.341164
 30
0.0
 10
39.903460
 20
-48.341164
 30
0.0
 10
39.716152
 20
-48.373893
 30
0.0
  0
SPLINE
  5
174
100
AcDbEntity
  8
0
 62
7
100
AcDbSpline
 70
8
 71
3
 72
8
 73
4
 74
0
 40
0
 40
0
 40
0
 40
0
 40
1
 40
1
 40
1
 40
1
 10
39.716152
 20
-48.373893
 30
0.0
 10
39.526123
 20
-48.407096
 30
0.0
 10
39.341904
 20
-48.473986
 30
0.0
 10
39.174803
 20
-48.570489
 30
0.0
  0
SPLINE
  5
175
100
AcDbEntity
  8
0
 62
7
100
AcDbSpline
 70
8
 71
3
 72
8
 73
4
 74
0
 40
0
 40
0
 40
0
 40
0
 40
1
 40
1
 40
1
 40
1
 10
39.174803
 20
-48.570489
 30
0.0
 10
39.007702
 20
-48.666992
 30
0.0
 10
38.857719
 20
-48.793108
 30
0.0
 10
38.733972
 20
-48.941135
 30
0.0
  0
SPLINE
  5
176
100
AcDbEntity
  8
0
 62
7
100
AcDbSpline
 70
8
 71
3
 72
8
 73
4
 74
0
 40
0
 40
0
 40
0
 40
0
 40
1
 40
1
 40
1
 40
1
 10
38.733972
 20
-48.941135
 30
0.0
 10
38.611998
 20
-49.087041
 30
0.0
 10
38.515514
 20
-49.254235
 30
0.0
 10
38.450260
 20
-49.432852
 30
0.0
  0
SPLINE
  5
177
100
AcDbEntity
  8
0
 62
7
100
AcDbSpline
 70
8
 71
3
 72
8
 73
4
 74
0
 40
0
 40
0
 40
0
 40
0
 40
1
 40
1
 40
1
 40
1
 10
38.450260
 20
-49.432852
 30
0.0
 10
38.384059
 20
-49.614063
 30
0.0
 10
38.350000
 20
-49.807031
 30
0.0
 10
38.350000
 20
-50.000000
 30
0.0
  0
SPLINE
  5
178
100
AcDbEntity
  8
0
 62
7
100
AcDbSpline
 70
8
 71
3
 72
8
 73
4
 74
0
 40
0
 40
0
 40
0
 40
0
 40
1
 40
1
 40
1
 40
1
 10
38.350000
 20
-50.000000
 30
0.0
 10
38.350000
 20
-50.192969
 30
0.0
 10
38.384059
 20
-50.385937
 30
0.0
 10
38.450260
 20
-50.567148
 30
0.0
  0
SPLINE
  5
179
100
AcDbEntity
  8
0
 62
7
100
AcDbSpline
 70
8
 71
3
 72
8
 73
4
 74
0
 40
0
 40
0
 40
0
 40
0
 40
1
 40
1
 40
1
 40
1
 10
38.450260
 20
-50.567148
 30
0.0
 10
38.515514
 20
-50.745765
 30
0.0
 10
38.611998
 20
-50.912959
 30
0.0
 10
38.733972
 20
-51.058865
 30
0.0
  0
SPLINE
  5
17a
100
AcDbEntity
  8
0
 62
7
100
AcDbSpline
 70
8
 71
3
 72
8
 73
4
 74
0
 40
0
 40
0
 40
0
 40
0
 40
1
 40
1
 40
1
 40
1
 10
38.733972
 20
-51.058865
 30
0.0
 10
38.857719
 20
-51.206892
 30
0.0
 10
39.007702
 20
-51.333008
 30
0.0
 10
39.174803
 20
-51.429511
 30
0.0
  0
SPLINE
  5
17b
100
AcDbEntity
  8
0
 62
7
100
AcDbSpline
 70
8
 71
3
 72
8
 73
4
 74
0
 40
0
 40
0
 40
0
 40
0
 40
1
 40
1
 40
1
 40
1
 10
39.174803
 20
-51.429511
 30
0.0
 10
39.341904
 20
-51.526014
 30
0.0
 10
39.526123
 20
-51.592904
 30
0.0
 10
39.716152
 20
-51.626107
 30
0.0
  0
SPLINE
  5
17c
100
AcDbEntity
  8
0
 62
7
100
AcDbSpline
 70
8
 71
3
 72
8
 73
4
 74
0
 40
0
 40
0
 40
0
 40
0
 40
1
 40
1
 40
1
 40
1
 10
39.716152
 20
-51.626107
 30
0.0
 10
39.903460
 20
-51.658836
 30
0.0
 10
40.096414
 20
-51.658836
 30
0.0
 10
40.283848
 20
-51.626107
 30
0.0
  0
SPLINE
  5
17d
100
AcDbEntity
  8
0
 62
7
100
AcDbSpline
 70
8
 71
3
 72
8
 73
4
 74
0
 40
0
 40
0
 40
0
 40
0
 40
1
 40
1
 40
1
 40
1
 10
40.283848
 20
-51.626107
 30
0.0
 10
40.474005
 20
-51.592904
 30
0.0
 10
40.658482
 20
-51.526014
 30
0.0
 10
40.825197
 20
-51.429511
 30
0.0
  0
SPLINE
  5
17e
100
AcDbEntity
  8
0
 62
7
100
AcDbSpline
 70
8
 71
3
 72
8
 73
4
 74
0
 40
0
 40
0
 40
0
 40
0
 40
1
 40
1
 40
1
 40
1
 10
40.825197
 20
-51.429511
 30
0.0
 10
40.991913
 20
-51.333008
 30
0.0
 10
41.140868
 20
-51.206892
 30
0.0
 10
41.266028
 20
-51.058865
 30
0.0
  0
SPLINE
  5
17f
100
AcDbEntity
  8
0
 62
7
100
AcDbSpline
 70
8
 71
3
 72
8
 73
4
 74
0
 40
0
 40
0
 40
0
 40
0
 40
1
 40
1
 40
1
 40
1
 10
41.266028
 20
-51.058865
 30
0.0
 10
41.389395
 20
-50.912959
 30
0.0
 10
41.489643
 20
-50.745765
 30
0.0
 10
41.549740
 20
-50.567148
 30
0.0
  0
SPLINE
  5
180
100
AcDbEntity
  8
0
 62
7
100
AcDbSpline
 70
8
 71
3
 72
8
 73
4
 74
0
 40
0
 40
0
 40
0
 40
0
 40
1
 40
1
 40
1
 40
1
 10
41.549740
 20
-50.567148
 30
0.0
 10
41.610710
 20
-50.385937
 30
0.0
 10
41.630355
 20
-50.192969
 30
0.0
 10
41.650000
 20
-50.000000
 30
0.0
  0
LWPOLYLINE
  5
181
100
AcDbEntity
  8
0
 62
7
100
AcDbPolyline
 90
1
 70
1
 10
41.650000
 20
-50.000000
 30
0.0
  0
SPLINE
  5
182
100
AcDbEntity
  8
0
 62
7
100
AcDbSpline
 70
8
 71
3
 72
8
 73
4
 74
0
 40
0
 40
0
 40
0
 40
0
 40
1
 40
1
 40
1
 40
1
 10
76.650000
 20
-19.000000
 30
0.0
 10
76.630355
 20
-18.807031
 30
0.0
 10
76.610710
 20
-18.614063
 30
0.0
 10
76.549740
 20
-18.432851
 30
0.0
  0
SPLINE
  5
183
100
AcDbEntity
  8
0
 62
7
100
AcDbSpline
 70
8
 71
3
 72
8
 73
4
 74
0
 40
0
 40
0
 40
0
 40
0
 40
1
 40
1
 40
1
 40
1
 10
76.549740
 20
-18.432851
 30
0.0
 10
76.489643
 20
-18.254234
 30
0.0
 10
76.389395
 20
-18.087040
 30
0.0
 10
76.266028
 20
-17.941134
 30
0.0
  0
SPLINE
  5
184
100
AcDbEntity
  8
0
 62
7
100
AcDbSpline
 70
8
 71
3
 72
8
 73
4
 74
0
 40
0
 40
0
 40
0
 40
0
 40
1
 40
1
 40
1
 40
1
 10
76.266028
 20
-17.941134
 30
0.0
 10
76.140869
 20
-17.793108
 30
0.0
 10
75.991913
 20
-17.666992
 30
0.0
 10
75.825197
 20
-17.570489
 30
0.0
  0
SPLINE
  5
185
100
AcDbEntity
  8
0
 62
7
100
AcDbSpline
 70
8
 71
3
 72
8
 73
4
 74
0
 40
0
 40
0
 40
0
 40
0
 40
1
 40
1
 40
1
 40
1
 10
75.825197
 20
-17.570489
 30
0.0
 10
75.658482
 20
-17.473986
 30
0.0
 10
75.474005
 20
-17.407096
 30
0.0
 10
75.283848
 20
-17.373892
 30
0.0
  0
SPLINE
  5
186
100
AcDbEntity
  8
0
 62
7
100
AcDbSpline
 70
8
 71
3
 72
8
 73
4
 74
0
 40
0
 40
0
 40
0
 40
0
 40
1
 40
1
 40
1
 40
1
 10
75.283848
 20
-17.373892
 30
0.0
 10
75.096414
 20
-17.341164
 30
0.0
 10
74.903460
 20
-17.341164
 30
0.0
 10
74.716152
 20
-17.373892
 30
0.0
  0
SPLINE
  5
187
100
AcDbEntity
  8
0
 62
7
100
AcDbSpline
 70
8
 71
3
 72
8
 73
4
 74
0
 40
0
 40
0
 40
0
 40
0
 40
1
 40
1
 40
1
 40
1
 10
74.716152
 20
-17.373892
 30
0.0
 10
74.526123
 20
-17.407096
 30
0.0
 10
74.341904
 20
-17.473986
 30
0.0
 10
74.174803
 20
-17.570489
 30
0.0
  0
SPLINE
  5
188
100
AcDbEntity
  8
0
 62
7
100
AcDbSpline
 70
8
 71
3
 72
8
 73
4
 74
0
 40
0
 40
0
 40
0
 40
0
 40
1
 40
1
 40
1
 40
1
 10
74.174803
 20
-17.570489
 30
0.0
 10
74.007702
 20
-17.666992
 30
0.0
 10
73.857719
 20
-17.793108
 30
0.0
 10
73.733972
 20
-17.941134
 30
0.0
  0
SPLINE
  5
189
100
AcDbEntity
  8
0
 62
7
100
AcDbSpline
 70
8
 71
3
 72
8
 73
4
 74
0
 40
0
 40
0
 40
0
 40
0
 40
1
 40
1
 40
1
 40
1
 10
73.733972
 20
-17.941134
 30
0.0
 10
73.611998
 20
-18.087040
 30
0.0
 10
73.515514
 20
-18.254234
 30
0.0
 10
73.450260
 20
-18.432851
 30
0.0
  0
SPLINE
  5
18a
100
AcDbEntity
  8
0
 62
7
100
AcDbSpline
 70
8
 71
3
 72
8
 73
4
 74
0
 40
0
 40
0
 40
0
 40
0
 40
1
 40
1
 40
1
 40
1
 10
73.450260
 20
-18.432851
 30
0.0
 10
73.384058
 20
-18.614063
 30
0.0
 10
73.350000
 20
-18.807032
 30
0.0
 10
73.350000
 20
-19.000000
 30
0.0
  0
SPLINE
  5
18b
100
AcDbEntity
  8
0
 62
7
100
AcDbSpline
 70
8
 71
3
 72
8
 73
4
 74
0
 40
0
 40
0
 40
0
 40
0
 40
1
 40
1
 40
1
 40
1
 10
73.350000
 20
-19.000000
 30
0.0
 10
73.350000
 20
-19.192969
 30
0.0
 10
73.384058
 20
-19.385937
 30
0.0
 10
73.450260
 20
-19.567148
 30
0.0
  0
SPLINE
  5
18c
100
AcDbEntity
  8
0
 62
7
100
AcDbSpline
 70
8
 71
3
 72
8
 73
4
 74
0
 40
0
 40
0
 40
0
 40
0
 40
1
 40
1
 40
1
 40
1
 10
73.450260
 20
-19.567148
 30
0.0
 10
73.515514
 20
-19.745765
 30
0.0
 10
73.611998
 20
-19.912959
 30
0.0
 10
73.733972
 20
-20.058865
 30
0.0
  0
SPLINE
  5
18d
100
AcDbEntity
  8
0
 62
7
100
AcDbSpline
 70
8
 71
3
 72
8
 73
4
 74
0
 40
0
 40
0
 40
0
 40
0
 40
1
 40
1
 40
1
 40
1
 10
73.733972
 20
-20.058865
 30
0.0
 10
73.857719
 20
-20.206891
 30
0.0
 10
74.007702
 20
-20.333007
 30
0.0
 10
74.174803
 20
-20.429510
 30
0.0
  0
SPLINE
  5
18e
100
AcDbEntity
  8
0
 62
7
100
AcDbSpline
 70
8
 71
3
 72
8
 73
4
 74
0
 40
0
 40
0
 40
0
 40
0
 40
1
 40
1
 40
1
 40
1
 10
74.174803
 20
-20.429510
 30
0.0
 10
74.341904
 20
-20.526013
 30
0.0
 10
74.526123
 20
-20.592903
 30
0.0
 10
74.716152
 20
-20.626108
 30
0.0
  0
SPLINE
  5
18f
100
AcDbEntity
  8
0
 62
7
100
AcDbSpline
 70
8
 71
3
 72
8
 73
4
 74
0
 40
0
 40
0
 40
0
 40
0
 40
1
 40
1
 40
1
 40
1
 10
74.716152
 20
-20.626108
 30
0.0
 10
74.903460
 20
-20.658836
 30
0.0
 10
75.096414
 20
-20.658836
 30
0.0
 10
75.283848
 20
-20.626108
 30
0.0
  0
SPLINE
  5
190
100
AcDbEntity
  8
0
 62
7
100
AcDbSpline
 70
8
 71
3
 72
8
 73
4
 74
0
 40
0
 40
0
 40
0
 40
0
 40
1
 40
1
 40
1
 40
1
 10
75.283848
 20
-20.626108
 30
0.0
 10
75.474005
 20
-20.592903
 30
0.0
 10
75.658482
 20
-20.526013
 30
0.0
 10
75.825197
 20
-20.429510
 30
0.0
  0
SPLINE
  5
191
100
AcDbEntity
  8
0
 62
7
100
AcDbSpline
 70
8
 71
3
 72
8
 73
4
 74
0
 40
0
 40
0
 40
0
 40
0
 40
1
 40
1
 40
1
 40
1
 10
75.825197
 20
-20.429510
 30
0.0
 10
75.991913
 20
-20.333007
 30
0.0
 10
76.140869
 20
-20.206891
 30
0.0
 10
76.266028
 20
-20.058865
 30
0.0
  0
SPLINE
  5
192
100
AcDbEntity
  8
0
 62
7
100
AcDbSpline
 70
8
 71
3
 72
8
 73
4
 74
0
 40
0
 40
0
 40
0
 40
0
 40
1
 40
1
 40
1
 40
1
 10
76.266028
 20
-20.058865
 30
0.0
 10
76.389395
 20
-19.912959
 30
0.0
 10
76.489643
 20
-19.745765
 30
0.0
 10
76.549740
 20
-19.567148
 30
0.0
  0
SPLINE
  5
193
100
AcDbEntity
  8
0
 62
7
100
AcDbSpline
 70
8
 71
3
 72
8
 73
4
 74
0
 40
0
 40
0
 40
0
 40
0
 40
1
 40
1
 40
1
 40
1
 10
76.549740
 20
-19.567148
 30
0.0
 10
76.610710
 20
-19.385937
 30
0.0
 10
76.630355
 20
-19.192968
 30
0.0
 10
76.650000
 20
-19.000000
 30
0.0
  0
LWPOLYLINE
  5
194
100
AcDbEntity
  8
0
 62
7
100
AcDbPolyline
 90
1
 70
1
 10
76.650000
 20
-19.000000
 30
0.0
  0
SPLINE
  5
195
100
AcDbEntity
  8
0
 62
7
100
AcDbSpline
 70
8
 71
3
 72
8
 73
4
 74
0
 40
0
 40
0
 40
0
 40
0
 40
1
 40
1
 40
1
 40
1
 10
76.650000
 20
19.000000
 30
0.0
 10
76.630355
 20
19.192969
 30
0.0
 10
76.610710
 20
19.385938
 30
0.0
 10
76.549740
 20
19.567149
 30
0.0
  0
SPLINE
  5
196
100
AcDbEntity
  8
0
 62
7
100
AcDbSpline
 70
8
 71
3
 72
8
 73
4
 74
0
 40
0
 40
0
 40
0
 40
0
 40
1
 40
1
 40
1
 40
1
 10
76.549740
 20
19.567149
 30
0.0
 10
76.489643
 20
19.745765
 30
0.0
 10
76.389395
 20
19.912959
 30
0.0
 10
76.266028
 20
20.058866
 30
0.0
  0
SPLINE
  5
197
100
AcDbEntity
  8
0
 62
7
100
AcDbSpline
 70
8
 71
3
 72
8
 73
4
 74
0
 40
0
 40
0
 40
0
 40
0
 40
1
 40
1
 40
1
 40
1
 10
76.266028
 20
20.058866
 30
0.0
 10
76.140869
 20
20.206891
 30
0.0
 10
75.991913
 20
20.333008
 30
0.0
 10
75.825197
 20
20.429511
 30
0.0
  0
SPLINE
  5
198
100
AcDbEntity
  8
0
 62
7
100
AcDbSpline
 70
8
 71
3
 72
8
 73
4
 74
0
 40
0
 40
0
 40
0
 40
0
 40
1
 40
1
 40
1
 40
1
 10
75.825197
 20
20.429511
 30
0.0
 10
75.658482
 20
20.526014
 30
0.0
 10
75.474005
 20
20.592904
 30
0.0
 10
75.283848
 20
20.626108
 30
0.0
  0
SPLINE
  5
199
100
AcDbEntity
  8
0
 62
7
100
AcDbSpline
 70
8
 71
3
 72
8
 73
4
 74
0
 40
0
 40
0
 40
0
 40
0
 40
1
 40
1
 40
1
 40
1
 10
75.283848
 20
20.626108
 30
0.0
 10
75.096414
 20
20.658836
 30
0.0
 10
74.903460
 20
20.658836
 30
0.0
 10
74.716152
 20
20.626108
 30
0.0
  0
SPLINE
  5
19a
100
AcDbEntity
  8
0
 62
7
100
AcDbSpline
 70
8
 71
3
 72
8
 73
4
 74
0
 40
0
 40
0
 40
0
 40
0
 40
1
 40
1
 40
1
 40
1
 10
74.716152
 20
20.626108
 30
0.0
 10
74.526123
 20
20.592904
 30
0.0
 10
74.341904
 20
20.526014
 30
0.0
 10
74.174803
 20
20.429511
 30
0.0
  0
SPLINE
  5
19b
100
AcDbEntity
  8
0
 62
7
100
AcDbSpline
 70
8
 71
3
 72
8
 73
4
 74
0
 40
0
 40
0
 40
0
 40
0
 40
1
 40
1
 40
1
 40
1
 10
74.174803
 20
20.429511
 30
0.0
 10
74.007702
 20
20.333008
 30
0.0
 10
73.857719
 20
20.206891
 30
0.0
 10
73.733972
 20
20.058866
 30
0.0
  0
SPLINE
  5
19c
100
AcDbEntity
  8
0
 62
7
100
AcDbSpline
 70
8
 71
3
 72
8
 73
4
 74
0
 40
0
 40
0
 40
0
 40
0
 40
1
 40
1
 40
1
 40
1
 10
73.733972
 20
20.058866
 30
0.0
 10
73.611998
 20
19.912959
 30
0.0
 10
73.515514
 20
19.745765
 30
0.0
 10
73.450260
 20
19.567149
 30
0.0
  0
SPLINE
  5
19d
100
AcDbEntity
  8
0
 62
7
100
AcDbSpline
 70
8
 71
3
 72
8
 73
4
 74
0
 40
0
 40
0
 40
0
 40
0
 40
1
 40
1
 40
1
 40
1
 10
73.450260
 20
19.567149
 30
0.0
 10
73.384058
 20
19.385937
 30
0.0
 10
73.350000
 20
19.192969
 30
0.0
 10
73.350000
 20
19.000000
 30
0.0
  0
SPLINE
  5
19e
100
AcDbEntity
  8
0
 62
7
100
AcDbSpline
 70
8
 71
3
 72
8
 73
4
 74
0
 40
0
 40
0
 40
0
 40
0
 40
1
 40
1
 40
1
 40
1
 10
73.350000
 20
19.000000
 30
0.0
 10
73.350000
 20
18.807031
 30
0.0
 10
73.384058
 20
18.614063
 30
0.0
 10
73.450260
 20
18.432851
 30
0.0
  0
SPLINE
  5
19f
100
AcDbEntity
  8
0
 62
7
100
AcDbSpline
 70
8
 71
3
 72
8
 73
4
 74
0
 40
0
 40
0
 40
0
 40
0
 40
1
 40
1
 40
1
 40
1
 10
73.450260
 20
18.432851
 30
0.0
 10
73.515514
 20
18.254235
 30
0.0
 10
73.611998
 20
18.087041
 30
0.0
 10
73.733972
 20
17.941134
 30
0.0
  0
SPLINE
  5
1a0
100
AcDbEntity
  8
0
 62
7
100
AcDbSpline
 70
8
 71
3
 72
8
 73
4
 74
0
 40
0
 40
0
 40
0
 40
0
 40
1
 40
1
 40
1
 40
1
 10
73.733972
 20
17.941134
 30
0.0
 10
73.857719
 20
17.793109
 30
0.0
 10
74.007702
 20
17.666992
 30
0.0
 10
74.174803
 20
17.570489
 30
0.0
  0
SPLINE
  5
1a1
100
AcDbEntity
  8
0
 62
7
100
AcDbSpline
 70
8
 71
3
 72
8
 73
4
 74
0
 40
0
 40
0
 40
0
 40
0
 40
1
 40
1
 40
1
 40
1
 10
74.174803
 20
17.570489
 30
0.0
 10
74.341904
 20
17.473986
 30
0.0
 10
74.526123
 20
17.407096
 30
0.0
 10
74.716152
 20
17.373892
 30
0.0
  0
SPLINE
  5
1a2
100
AcDbEntity
  8
0
 62
7
100
AcDbSpline
 70
8
 71
3
 72
8
 73
4
 74
0
 40
0
 40
0
 40
0
 40
0
 40
1
 40
1
 40
1
 40
1
 10
74.716152
 20
17.373892
 30
0.0
 10
74.903460
 20
17.341164
 30
0.0
 10
75.096414
 20
17.341164
 30
0.0
 10
75.283848
 20
17.373892
 30
0.0
  0
SPLINE
  5
1a3
100
AcDbEntity
  8
0
 62
7
100
AcDbSpline
 70
8
 71
3
 72
8
 73
4
 74
0
 40
0
 40
0
 40
0
 40
0
 40
1
 40
1
 40
1
 40
1
 10
75.283848
 20
17.373892
 30
0.0
 10
75.474005
 20
17.407096
 30
0.0
 10
75.658482
 20
17.473986
 30
0.0
 10
75.825197
 20
17.570489
 30
0.0
  0
SPLINE
  5
1a4
100
AcDbEntity
  8
0
 62
7
100
AcDbSpline
 70
8
 71
3
 72
8
 73
4
 74
0
 40
0
 40
0
 40
0
 40
0
 40
1
 40
1
 40
1
 40
1
 10
75.825197
 20
17.570489
 30
0.0
 10
75.991913
 20
17.666992
 30
0.0
 10
76.140869
 20
17.793109
 30
0.0
 10
76.266028
 20
17.941134
 30
0.0
  0
SPLINE
  5
1a5
100
AcDbEntity
  8
0
 62
7
100
AcDbSpline
 70
8
 71
3
 72
8
 73
4
 74
0
 40
0
 40
0
 40
0
 40
0
 40
1
 40
1
 40
1
 40
1
 10
76.266028
 20
17.941134
 30
0.0
 10
76.389395
 20
18.087041
 30
0.0
 10
76.489643
 20
18.254235
 30
0.0
 10
76.549740
 20
18.432851
 30
0.0
  0
SPLINE
  5
1a6
100
AcDbEntity
  8
0
 62
7
100
AcDbSpline
 70
8
 71
3
 72
8
 73
4
 74
0
 40
0
 40
0
 40
0
 40
0
 40
1
 40
1
 40
1
 40
1
 10
76.549740
 20
18.432851
 30
0.0
 10
76.610710
 20
18.614063
 30
0.0
 10
76.630355
 20
18.807031
 30
0.0
 10
76.650000
 20
19.000000
 30
0.0
  0
LWPOLYLINE
  5
1a7
100
AcDbEntity
  8
0
 62
7
100
AcDbPolyline
 90
1
 70
1
 10
76.650000
 20
19.000000
 30
0.0
  0
SPLINE
  5
1a8
100
AcDbEntity
  8
0
 62
7
100
AcDbSpline
 70
8
 71
3
 72
8
 73
4
 74
0
 40
0
 40
0
 40
0
 40
0
 40
1
 40
1
 40
1
 40
1
 10
41.650000
 20
50.000000
 30
0.0
 10
41.630355
 20
50.192969
 30
0.0
 10
41.610710
 20
50.385937
 30
0.0
 10
41.549740
 20
50.567149
 30
0.0
  0
SPLINE
  5
1a9
100
AcDbEntity
  8
0
 62
7
100
AcDbSpline
 70
8
 71
3
 72
8
 73
4
 74
0
 40
0
 40
0
 40
0
 40
0
 40
1
 40
1
 40
1
 40
1
 10
41.549740
 20
50.567149
 30
0.0
 10
41.489643
 20
50.745765
 30
0.0
 10
41.389395
 20
50.912959
 30
0.0
 10
41.266028
 20
51.058866
 30
0.0
  0
SPLINE
  5
1aa
100
AcDbEntity
  8
0
 62
7
100
AcDbSpline
 70
8
 71
3
 72
8
 73
4
 74
0
 40
0
 40
0
 40
0
 40
0
 40
1
 40
1
 40
1
 40
1
 10
41.266028
 20
51.058866
 30
0.0
 10
41.140868
 20
51.206892
 30
0.0
 10
40.991913
 20
51.333008
 30
0.0
 10
40.825197
 20
51.429511
 30
0.0
  0
SPLINE
  5
1ab
100
AcDbEntity
  8
0
 62
7
100
AcDbSpline
 70
8
 71
3
 72
8
 73
4
 74
0
 40
0
 40
0
 40
0
 40
0
 40
1
 40
1
 40
1
 40
1
 10
40.825197
 20
51.429511
 30
0.0
 10
40.658482
 20
51.526014
 30
0.0
 10
40.474005
 20
51.592904
 30
0.0
 10
40.283848
 20
51.626107
 30
0.0
  0
SPLINE
  5
1ac
100
AcDbEntity
  8
0
 62
7
100
AcDbSpline
 70
8
 71
3
 72
8
 73
4
 74
0
 40
0
 40
0
 40
0
 40
0
 40
1
 40
1
 40
1
 40
1
 10
40.283848
 20
51.626107
 30
0.0
 10
40.096414
 20
51.658836
 30
0.0
 10
39.903460
 20
51.658836
 30
0.0
 10
39.716152
 20
51.626107
 30
0.0
  0
SPLINE
  5
1ad
100
AcDbEntity
  8
0
 62
7
100
AcDbSpline
 70
8
 71
3
 72
8
 73
4
 74
0
 40
0
 40
0
 40
0
 40
0
 40
1
 40
1
 40
1
 40
1
 10
39.716152
 20
51.626107
 30
0.0
 10
39.526123
 20
51.592904
 30
0.0
 10
39.341904
 20
51.526014
 30
0.0
 10
39.174803
 20
51.429511
 30
0.0
  0
SPLINE
  5
1ae
100
AcDbEntity
  8
0
 62
7
100
AcDbSpline
 70
8
 71
3
 72
8
 73
4
 74
0
 40
0
 40
0
 40
0
 40
0
 40
1
 40
1
 40
1
 40
1
 10
39.174803
 20
51.429511
 30
0.0
 10
39.007702
 20
51.333008
 30
0.0
 10
38.857719
 20
51.206892
 30
0.0
 10
38.733972
 20
51.058866
 30
0.0
  0
SPLINE
  5
1af
100
AcDbEntity
  8
0
 62
7
100
AcDbSpline
 70
8
 71
3
 72
8
 73
4
 74
0
 40
0
 40
0
 40
0
 40
0
 40
1
 40
1
 40
1
 40
1
 10
38.733972
 20
51.058866
 30
0.0
 10
38.611998
 20
50.912959
 30
0.0
 10
38.515514
 20
50.745765
 30
0.0
 10
38.450260
 20
50.567149
 30
0.0
  0
SPLINE
  5
1b0
100
AcDbEntity
  8
0
 62
7
100
AcDbSpline
 70
8
 71
3
 72
8
 73
4
 74
0
 40
0
 40
0
 40
0
 40
0
 40
1
 40
1
 40
1
 40
1
 10
38.450260
 20
50.567149
 30
0.0
 10
38.384059
 20
50.385937
 30
0.0
 10
38.350000
 20
50.192969
 30
0.0
 10
38.350000
 20
50.000000
 30
0.0
  0
SPLINE
  5
1b1
100
AcDbEntity
  8
0
 62
7
100
AcDbSpline
 70
8
 71
3
 72
8
 73
4
 74
0
 40
0
 40
0
 40
0
 40
0
 40
1
 40
1
 40
1
 40
1
 10
38.350000
 20
50.000000
 30
0.0
 10
38.350000
 20
49.807031
 30
0.0
 10
38.384059
 20
49.614063
 30
0.0
 10
38.450260
 20
49.432852
 30
0.0
  0
SPLINE
  5
1b2
100
AcDbEntity
  8
0
 62
7
100
AcDbSpline
 70
8
 71
3
 72
8
 73
4
 74
0
 40
0
 40
0
 40
0
 40
0
 40
1
 40
1
 40
1
 40
1
 10
38.450260
 20
49.432852
 30
0.0
 10
38.515514
 20
49.254235
 30
0.0
 10
38.611998
 20
49.087041
 30
0.0
 10
38.733972
 20
48.941135
 30
0.0
  0
SPLINE
  5
1b3
100
AcDbEntity
  8
0
 62
7
100
AcDbSpline
 70
8
 71
3
 72
8
 73
4
 74
0
 40
0
 40
0
 40
0
 40
0
 40
1
 40
1
 40
1
 40
1
 10
38.733972
 20
48.941135
 30
0.0
 10
38.857719
 20
48.793109
 30
0.0
 10
39.007702
 20
48.666993
 30
0.0
 10
39.174803
 20
48.570490
 30
0.0
  0
SPLINE
  5
1b4
100
AcDbEntity
  8
0
 62
7
100
AcDbSpline
 70
8
 71
3
 72
8
 73
4
 74
0
 40
0
 40
0
 40
0
 40
0
 40
1
 40
1
 40
1
 40
1
 10
39.174803
 20
48.570490
 30
0.0
 10
39.341904
 20
48.473987
 30
0.0
 10
39.526123
 20
48.407096
 30
0.0
 10
39.716152
 20
48.373893
 30
0.0
  0
SPLINE
  5
1b5
100
AcDbEntity
  8
0
 62
7
100
AcDbSpline
 70
8
 71
3
 72
8
 73
4
 74
0
 40
0
 40
0
 40
0
 40
0
 40
1
 40
1
 40
1
 40
1
 10
39.716152
 20
48.373893
 30
0.0
 10
39.903460
 20
48.341164
 30
0.0
 10
40.096414
 20
48.341164
 30
0.0
 10
40.283848
 20
48.373893
 30
0.0
  0
SPLINE
  5
1b6
100
AcDbEntity
  8
0
 62
7
100
AcDbSpline
 70
8
 71
3
 72
8
 73
4
 74
0
 40
0
 40
0
 40
0
 40
0
 40
1
 40
1
 40
1
 40
1
 10
40.283848
 20
48.373893
 30
0.0
 10
40.474005
 20
48.407096
 30
0.0
 10
40.658482
 20
48.473987
 30
0.0
 10
40.825197
 20
48.570490
 30
0.0
  0
SPLINE
  5
1b7
100
AcDbEntity
  8
0
 62
7
100
AcDbSpline
 70
8
 71
3
 72
8
 73
4
 74
0
 40
0
 40
0
 40
0
 40
0
 40
1
 40
1
 40
1
 40
1
 10
40.825197
 20
48.570490
 30
0.0
 10
40.991913
 20
48.666993
 30
0.0
 10
41.140868
 20
48.793109
 30
0.0
 10
41.266028
 20
48.941135
 30
0.0
  0
SPLINE
  5
1b8
100
AcDbEntity
  8
0
 62
7
100
AcDbSpline
 70
8
 71
3
 72
8
 73
4
 74
0
 40
0
 40
0
 40
0
 40
0
 40
1
 40
1
 40
1
 40
1
 10
41.266028
 20
48.941135
 30
0.0
 10
41.389395
 20
49.087041
 30
0.0
 10
41.489643
 20
49.254235
 30
0.0
 10
41.549740
 20
49.432852
 30
0.0
  0
SPLINE
  5
1b9
100
AcDbEntity
  8
0
 62
7
100
AcDbSpline
 70
8
 71
3
 72
8
 73
4
 74
0
 40
0
 40
0
 40
0
 40
0
 40
1
 40
1
 40
1
 40
1
 10
41.549740
 20
49.432852
 30
0.0
 10
41.610710
 20
49.614063
 30
0.0
 10
41.630355
 20
49.807032
 30
0.0
 10
41.650000
 20
50.000000
 30
0.0
  0
LWPOLYLINE
  5
1ba
100
AcDbEntity
  8
0
 62
7
100
AcDbPolyline
 90
1
 70
1
 10
41.650000
 20
50.000000
 30
0.0
  0
SPLINE
  5
1bb
100
AcDbEntity
  8
0
 62
7
100
AcDbSpline
 70
8
 71
3
 72
8
 73
4
 74
0
 40
0
 40
0
 40
0
 40
0
 40
1
 40
1
 40
1
 40
1
 10
1.650000
 20
50.000000
 30
0.0
 10
1.630286
 20
50.192909
 30
0.0
 10
1.610572
 20
50.385819
 30
0.0
 10
1.549558
 20
50.566963
 30
0.0
  0
SPLINE
  5
1bc
100
AcDbEntity
  8
0
 62
7
100
AcDbSpline
 70
8
 71
3
 72
8
 73
4
 74
0
 40
0
 40
0
 40
0
 40
0
 40
1
 40
1
 40
1
 40
1
 10
1.549558
 20
50.566963
 30
0.0
 10
1.489418
 20
50.745515
 30
0.0
 10
1.389152
 20
50.912636
 30
0.0
 10
1.265783
 20
51.058475
 30
0.0
  0
SPLINE
  5
1bd
100
AcDbEntity
  8
0
 62
7
100
AcDbSpline
 70
8
 71
3
 72
8
 73
4
 74
0
 40
0
 40
0
 40
0
 40
0
 40
1
 40
1
 40
1
 40
1
 10
1.265783
 20
51.058475
 30
0.0
 10
1.140624
 20
51.206433
 30
0.0
 10
0.991685
 20
51.332488
 30
0.0
 10
0.825000
 20
51.428942
 30
0.0
  0
SPLINE
  5
1be
100
AcDbEntity
  8
0
 62
7
100
AcDbSpline
 70
8
 71
3
 72
8
 73
4
 74
0
 40
0
 40
0
 40
0
 40
0
 40
1
 40
1
 40
1
 40
1
 10
0.825000
 20
51.428942
 30
0.0
 10
0.658315
 20
51.525397
 30
0.0
 10
0.473883
 20
51.592252
 30
0.0
 10
0.283775
 20
51.625438
 30
0.0
  0
SPLINE
  5
1bf
100
AcDbEntity
  8
0
 62
7
100
AcDbSpline
 70
8
 71
3
 72
8
 73
4
 74
0
 40
0
 40
0
 40
0
 40
0
 40
1
 40
1
 40
1
 40
1
 10
0.283775
 20
51.625438
 30
0.0
 10
0.096388
 20
51.658150
 30
0.0
 10
-0.096514
 20
51.658150
 30
0.0
 10
-0.283775
 20
51.625438
 30
0.0
  0
SPLINE
  5
1c0
100
AcDbEntity
  8
0
 62
7
100
AcDbSpline
 70
8
 71
3
 72
8
 73
4
 74
0
 40
0
 40
0
 40
0
 40
0
 40
1
 40
1
 40
1
 40
1
 10
-0.283775
 20
51.625438
 30
0.0
 10
-0.473755
 20
51.592252
 30
0.0
 10
-0.657928
 20
51.525397
 30
0.0
 10
-0.825000
 20
51.428942
 30
0.0
  0
SPLINE
  5
1c1
100
AcDbEntity
  8
0
 62
7
100
AcDbSpline
 70
8
 71
3
 72
8
 73
4
 74
0
 40
0
 40
0
 40
0
 40
0
 40
1
 40
1
 40
1
 40
1
 10
-0.825000
 20
51.428942
 30
0.0
 10
-0.992071
 20
51.332488
 30
0.0
 10
-1.142041
 20
51.206433
 30
0.0
 10
-1.265783
 20
51.058475
 30
0.0
  0
SPLINE
  5
1c2
100
AcDbEntity
  8
0
 62
7
100
AcDbSpline
 70
8
 71
3
 72
8
 73
4
 74
0
 40
0
 40
0
 40
0
 40
0
 40
1
 40
1
 40
1
 40
1
 10
-1.265783
 20
51.058475
 30
0.0
 10
-1.387754
 20
50.912636
 30
0.0
 10
-1.484243
 20
50.745515
 30
0.0
 10
-1.549558
 20
50.566963
 30
0.0
  0
SPLINE
  5
1c3
100
AcDbEntity
  8
0
 62
7
100
AcDbSpline
 70
8
 71
3
 72
8
 73
4
 74
0
 40
0
 40
0
 40
0
 40
0
 40
1
 40
1
 40
1
 40
1
 10
-1.549558
 20
50.566963
 30
0.0
 10
-1.615822
 20
50.385819
 30
0.0
 10
-1.650000
 20
50.192909
 30
0.0
 10
-1.650000
 20
50.000000
 30
0.0
  0
SPLINE
  5
1c4
100
AcDbEntity
  8
0
 62
7
100
AcDbSpline
 70
8
 71
3
 72
8
 73
4
 74
0
 40
0
 40
0
 40
0
 40
0
 40
1
 40
1
 40
1
 40
1
 10
-1.650000
 20
50.000000
 30
0.0
 10
-1.650000
 20
49.807091
 30
0.0
 10
-1.615822
 20
49.614181
 30
0.0
 10
-1.549558
 20
49.433037
 30
0.0
  0
SPLINE
  5
1c5
100
AcDbEntity
  8
0
 62
7
100
AcDbSpline
 70
8
 71
3
 72
8
 73
4
 74
0
 40
0
 40
0
 40
0
 40
0
 40
1
 40
1
 40
1
 40
1
 10
-1.549558
 20
49.433037
 30
0.0
 10
-1.484243
 20
49.254485
 30
0.0
 10
-1.387754
 20
49.087365
 30
0.0
 10
-1.265783
 20
48.941525
 30
0.0
  0
SPLINE
  5
1c6
100
AcDbEntity
  8
0
 62
7
100
AcDbSpline
 70
8
 71
3
 72
8
 73
4
 74
0
 40
0
 40
0
 40
0
 40
0
 40
1
 40
1
 40
1
 40
1
 10
-1.265783
 20
48.941525
 30
0.0
 10
-1.142041
 20
48.793567
 30
0.0
 10
-0.992071
 20
48.667512
 30
0.0
 10
-0.825000
 20
48.571058
 30
0.0
  0
SPLINE
  5
1c7
100
AcDbEntity
  8
0
 62
7
100
AcDbSpline
 70
8
 71
3
 72
8
 73
4
 74
0
 40
0
 40
0
 40
0
 40
0
 40
1
 40
1
 40
1
 40
1
 10
-0.825000
 20
48.571058
 30
0.0
 10
-0.657928
 20
48.474603
 30
0.0
 10
-0.473755
 20
48.407748
 30
0.0
 10
-0.283775
 20
48.374562
 30
0.0
  0
SPLINE
  5
1c8
100
AcDbEntity
  8
0
 62
7
100
AcDbSpline
 70
8
 71
3
 72
8
 73
4
 74
0
 40
0
 40
0
 40
0
 40
0
 40
1
 40
1
 40
1
 40
1
 10
-0.283775
 20
48.374562
 30
0.0
 10
-0.096514
 20
48.341850
 30
0.0
 10
0.096388
 20
48.341850
 30
0.0
 10
0.283775
 20
48.374562
 30
0.0
  0
SPLINE
  5
1c9
100
AcDbEntity
  8
0
 62
7
100
AcDbSpline
 70
8
 71
3
 72
8
 73
4
 74
0
 40
0
 40
0
 40
0
 40
0
 40
1
 40
1
 40
1
 40
1
 10
0.283775
 20
48.374562
 30
0.0
 10
0.473883
 20
48.407748
 30
0.0
 10
0.658315
 20
48.474603
 30
0.0
 10
0.825000
 20
48.571058
 30
0.0
  0
SPLINE
  5
1ca
100
AcDbEntity
  8
0
 62
7
100
AcDbSpline
 70
8
 71
3
 72
8
 73
4
 74
0
 40
0
 40
0
 40
0
 40
0
 40
1
 40
1
 40
1
 40
1
 10
0.825000
 20
48.571058
 30
0.0
 10
0.991685
 20
48.667512
 30
0.0
 10
1.140624
 20
48.793567
 30
0.0
 10
1.265783
 20
48.941525
 30
0.0
  0
SPLINE
  5
1cb
100
AcDbEntity
  8
0
 62
7
100
AcDbSpline
 70
8
 71
3
 72
8
 73
4
 74
0
 40
0
 40
0
 40
0
 40
0
 40
1
 40
1
 40
1
 40
1
 10
1.265783
 20
48.941525
 30
0.0
 10
1.389152
 20
49.087365
 30
0.0
 10
1.489418
 20
49.254485
 30
0.0
 10
1.549558
 20
49.433037
 30
0.0
  0
SPLINE
  5
1cc
100
AcDbEntity
  8
0
 62
7
100
AcDbSpline
 70
8
 71
3
 72
8
 73
4
 74
0
 40
0
 40
0
 40
0
 40
0
 40
1
 40
1
 40
1
 40
1
 10
1.549558
 20
49.433037
 30
0.0
 10
1.610572
 20
49.614181
 30
0.0
 10
1.630286
 20
49.807091
 30
0.0
 10
1.650000
 20
50.000000
 30
0.0
  0
LWPOLYLINE
  5
1cd
100
AcDbEntity
  8
0
 62
7
100
AcDbPolyline
 90
1
 70
1
 10
1.650000
 20
50.000000
 30
0.0
  0
SPLINE
  5
1ce
100
AcDbEntity
  8
0
 62
7
100
AcDbSpline
 70
8
 71
3
 72
8
 73
4
 74
0
 40
0
 40
0
 40
0
 40
0
 40
1
 40
1
 40
1
 40
1
 10
-38.350000
 20
50.000000
 30
0.0
 10
-38.369645
 20
50.192969
 30
0.0
 10
-38.389290
 20
50.385937
 30
0.0
 10
-38.450260
 20
50.567149
 30
0.0
  0
SPLINE
  5
1cf
100
AcDbEntity
  8
0
 62
7
100
AcDbSpline
 70
8
 71
3
 72
8
 73
4
 74
0
 40
0
 40
0
 40
0
 40
0
 40
1
 40
1
 40
1
 40
1
 10
-38.450260
 20
50.567149
 30
0.0
 10
-38.510357
 20
50.745765
 30
0.0
 10
-38.610605
 20
50.912959
 30
0.0
 10
-38.733972
 20
51.058866
 30
0.0
  0
SPLINE
  5
1d0
100
AcDbEntity
  8
0
 62
7
100
AcDbSpline
 70
8
 71
3
 72
8
 73
4
 74
0
 40
0
 40
0
 40
0
 40
0
 40
1
 40
1
 40
1
 40
1
 10
-38.733972
 20
51.058866
 30
0.0
 10
-38.859132
 20
51.206892
 30
0.0
 10
-39.008087
 20
51.333008
 30
0.0
 10
-39.174803
 20
51.429511
 30
0.0
  0
SPLINE
  5
1d1
100
AcDbEntity
  8
0
 62
7
100
AcDbSpline
 70
8
 71
3
 72
8
 73
4
 74
0
 40
0
 40
0
 40
0
 40
0
 40
1
 40
1
 40
1
 40
1
 10
-39.174803
 20
51.429511
 30
0.0
 10
-39.341518
 20
51.526014
 30
0.0
 10
-39.525995
 20
51.592904
 30
0.0
 10
-39.716152
 20
51.626107
 30
0.0
  0
SPLINE
  5
1d2
100
AcDbEntity
  8
0
 62
7
100
AcDbSpline
 70
8
 71
3
 72
8
 73
4
 74
0
 40
0
 40
0
 40
0
 40
0
 40
1
 40
1
 40
1
 40
1
 10
-39.716152
 20
51.626107
 30
0.0
 10
-39.903586
 20
51.658836
 30
0.0
 10
-40.096540
 20
51.658836
 30
0.0
 10
-40.283848
 20
51.626107
 30
0.0
  0
SPLINE
  5
1d3
100
AcDbEntity
  8
0
 62
7
100
AcDbSpline
 70
8
 71
3
 72
8
 73
4
 74
0
 40
0
 40
0
 40
0
 40
0
 40
1
 40
1
 40
1
 40
1
 10
-40.283848
 20
51.626107
 30
0.0
 10
-40.473877
 20
51.592904
 30
0.0
 10
-40.658096
 20
51.526014
 30
0.0
 10
-40.825197
 20
51.429511
 30
0.0
  0
SPLINE
  5
1d4
100
AcDbEntity
  8
0
 62
7
100
AcDbSpline
 70
8
 71
3
 72
8
 73
4
 74
0
 40
0
 40
0
 40
0
 40
0
 40
1
 40
1
 40
1
 40
1
 10
-40.825197
 20
51.429511
 30
0.0
 10
-40.992298
 20
51.333008
 30
0.0
 10
-41.142281
 20
51.206892
 30
0.0
 10
-41.266027
 20
51.058866
 30
0.0
  0
SPLINE
  5
1d5
100
AcDbEntity
  8
0
 62
7
100
AcDbSpline
 70
8
 71
3
 72
8
 73
4
 74
0
 40
0
 40
0
 40
0
 40
0
 40
1
 40
1
 40
1
 40
1
 10
-41.266027
 20
51.058866
 30
0.0
 10
-41.388002
 20
50.912959
 30
0.0
 10
-41.484486
 20
50.745765
 30
0.0
 10
-41.549740
 20
50.567149
 30
0.0
  0
SPLINE
  5
1d6
100
AcDbEntity
  8
0
 62
7
100
AcDbSpline
 70
8
 71
3
 72
8
 73
4
 74
0
 40
0
 40
0
 40
0
 40
0
 40
1
 40
1
 40
1
 40
1
 10
-41.549740
 20
50.567149
 30
0.0
 10
-41.615942
 20
50.385937
 30
0.0
 10
-41.650000
 20
50.192969
 30
0.0
 10
-41.650000
 20
50.000000
 30
0.0
  0
SPLINE
  5
1d7
100
AcDbEntity
  8
0
 62
7
100
AcDbSpline
 70
8
 71
3
 72
8
 73
4
 74
0
 40
0
 40
0
 40
0
 40
0
 40
1
 40
1
 40
1
 40
1
 10
-41.650000
 20
50.000000
 30
0.0
 10
-41.650000
 20
49.807031
 30
0.0
 10
-41.615942
 20
49.614063
 30
0.0
 10
-41.549740
 20
49.432852
 30
0.0
  0
SPLINE
  5
1d8
100
AcDbEntity
  8
0
 62
7
100
AcDbSpline
 70
8
 71
3
 72
8
 73
4
 74
0
 40
0
 40
0
 40
0
 40
0
 40
1
 40
1
 40
1
 40
1
 10
-41.549740
 20
49.432852
 30
0.0
 10
-41.484486
 20
49.254235
 30
0.0
 10
-41.388002
 20
49.087041
 30
0.0
 10
-41.266027
 20
48.941135
 30
0.0
  0
SPLINE
  5
1d9
100
AcDbEntity
  8
0
 62
7
100
AcDbSpline
 70
8
 71
3
 72
8
 73
4
 74
0
 40
0
 40
0
 40
0
 40
0
 40
1
 40
1
 40
1
 40
1
 10
-41.266027
 20
48.941135
 30
0.0
 10
-41.142281
 20
48.793109
 30
0.0
 10
-40.992298
 20
48.666993
 30
0.0
 10
-40.825197
 20
48.570490
 30
0.0
  0
SPLINE
  5
1da
100
AcDbEntity
  8
0
 62
7
100
AcDbSpline
 70
8
 71
3
 72
8
 73
4
 74
0
 40
0
 40
0
 40
0
 40
0
 40
1
 40
1
 40
1
 40
1
 10
-40.825197
 20
48.570490
 30
0.0
 10
-40.658096
 20
48.473987
 30
0.0
 10
-40.473877
 20
48.407096
 30
0.0
 10
-40.283848
 20
48.373893
 30
0.0
  0
SPLINE
  5
1db
100
AcDbEntity
  8
0
 62
7
100
AcDbSpline
 70
8
 71
3
 72
8
 73
4
 74
0
 40
0
 40
0
 40
0
 40
0
 40
1
 40
1
 40
1
 40
1
 10
-40.283848
 20
48.373893
 30
0.0
 10
-40.096540
 20
48.341164
 30
0.0
 10
-39.903586
 20
48.341164
 30
0.0
 10
-39.716152
 20
48.373893
 30
0.0
  0
SPLINE
  5
1dc
100
AcDbEntity
  8
0
 62
7
100
AcDbSpline
 70
8
 71
3
 72
8
 73
4
 74
0
 40
0
 40
0
 40
0
 40
0
 40
1
 40
1
 40
1
 40
1
 10
-39.716152
 20
48.373893
 30
0.0
 10
-39.525995
 20
48.407096
 30
0.0
 10
-39.341518
 20
48.473987
 30
0.0
 10
-39.174803
 20
48.570490
 30
0.0
  0
SPLINE
  5
1dd
100
AcDbEntity
  8
0
 62
7
100
AcDbSpline
 70
8
 71
3
 72
8
 73
4
 74
0
 40
0
 40
0
 40
0
 40
0
 40
1
 40
1
 40
1
 40
1
 10
-39.174803
 20
48.570490
 30
0.0
 10
-39.008087
 20
48.666993
 30
0.0
 10
-38.859132
 20
48.793109
 30
0.0
 10
-38.733972
 20
48.941135
 30
0.0
  0
SPLINE
  5
1de
100
AcDbEntity
  8
0
 62
7
100
AcDbSpline
 70
8
 71
3
 72
8
 73
4
 74
0
 40
0
 40
0
 40
0
 40
0
 40
1
 40
1
 40
1
 40
1
 10
-38.733972
 20
48.941135
 30
0.0
 10
-38.610605
 20
49.087041
 30
0.0
 10
-38.510357
 20
49.254235
 30
0.0
 10
-38.450260
 20
49.432852
 30
0.0
  0
SPLINE
  5
1df
100
AcDbEntity
  8
0
 62
7
100
AcDbSpline
 70
8
 71
3
 72
8
 73
4
 74
0
 40
0
 40
0
 40
0
 40
0
 40
1
 40
1
 40
1
 40
1
 10
-38.450260
 20
49.432852
 30
0.0
 10
-38.389290
 20
49.614063
 30
0.0
 10
-38.369645
 20
49.807032
 30
0.0
 10
-38.350000
 20
50.000000
 30
0.0
  0
LWPOLYLINE
  5
1e0
100
AcDbEntity
  8
0
 62
7
100
AcDbPolyline
 90
1
 70
1
 10
-38.350000
 20
50.000000
 30
0.0
  0
SPLINE
  5
1e1
100
AcDbEntity
  8
0
 62
7
100
AcDbSpline
 70
8
 71
3
 72
8
 73
4
 74
0
 40
0
 40
0
 40
0
 40
0
 40
1
 40
1
 40
1
 40
1
 10
54.350000
 20
49.750000
 30
0.0
 10
54.310073
 20
50.141749
 30
0.0
 10
54.270146
 20
50.533498
 30
0.0
 10
54.146332
 20
50.901371
 30
0.0
  0
SPLINE
  5
1e2
100
AcDbEntity
  8
0
 62
7
100
AcDbSpline
 70
8
 71
3
 72
8
 73
4
 74
0
 40
0
 40
0
 40
0
 40
0
 40
1
 40
1
 40
1
 40
1
 10
54.146332
 20
50.901371
 30
0.0
 10
54.024290
 20
51.263978
 30
0.0
 10
53.820746
 20
51.603387
 30
0.0
 10
53.570272
 20
51.899582
 30
0.0
  0
SPLINE
  5
1e3
100
AcDbEntity
  8
0
 62
7
100
AcDbSpline
 70
8
 71
3
 72
8
 73
4
 74
0
 40
0
 40
0
 40
0
 40
0
 40
1
 40
1
 40
1
 40
1
 10
53.570272
 20
51.899582
 30
0.0
 10
53.316160
 20
52.200078
 30
0.0
 10
53.013746
 20
52.456095
 30
0.0
 10
52.675281
 20
52.651996
 30
0.0
  0
SPLINE
  5
1e4
100
AcDbEntity
  8
0
 62
7
100
AcDbSpline
 70
8
 71
3
 72
8
 73
4
 74
0
 40
0
 40
0
 40
0
 40
0
 40
1
 40
1
 40
1
 40
1
 10
52.675281
 20
52.651996
 30
0.0
 10
52.336816
 20
52.847897
 30
0.0
 10
51.962300
 20
52.983683
 30
0.0
 10
51.576253
 20
53.051086
 30
0.0
  0
SPLINE
  5
1e5
100
AcDbEntity
  8
0
 62
7
100
AcDbSpline
 70
8
 71
3
 72
8
 73
4
 74
0
 40
0
 40
0
 40
0
 40
0
 40
1
 40
1
 40
1
 40
1
 10
51.576253
 20
53.051086
 30
0.0
 10
51.195733
 20
53.117525
 30
0.0
 10
50.804011
 20
53.117525
 30
0.0
 10
50.423747
 20
53.051086
 30
0.0
  0
SPLINE
  5
1e6
100
AcDbEntity
  8
0
 62
7
100
AcDbSpline
 70
8
 71
3
 72
8
 73
4
 74
0
 40
0
 40
0
 40
0
 40
0
 40
1
 40
1
 40
1
 40
1
 10
50.423747
 20
53.051086
 30
0.0
 10
50.037960
 20
52.983683
 30
0.0
 10
49.663967
 20
52.847897
 30
0.0
 10
49.324719
 20
52.651996
 30
0.0
  0
SPLINE
  5
1e7
100
AcDbEntity
  8
0
 62
7
100
AcDbSpline
 70
8
 71
3
 72
8
 73
4
 74
0
 40
0
 40
0
 40
0
 40
0
 40
1
 40
1
 40
1
 40
1
 10
49.324719
 20
52.651996
 30
0.0
 10
48.985471
 20
52.456095
 30
0.0
 10
48.680968
 20
52.200078
 30
0.0
 10
48.429728
 20
51.899582
 30
0.0
  0
SPLINE
  5
1e8
100
AcDbEntity
  8
0
 62
7
100
AcDbSpline
 70
8
 71
3
 72
8
 73
4
 74
0
 40
0
 40
0
 40
0
 40
0
 40
1
 40
1
 40
1
 40
1
 10
48.429728
 20
51.899582
 30
0.0
 10
48.182085
 20
51.603387
 30
0.0
 10
47.986191
 20
51.263978
 30
0.0
 10
47.853668
 20
50.901371
 30
0.0
  0
SPLINE
  5
1e9
100
AcDbEntity
  8
0
 62
7
100
AcDbSpline
 70
8
 71
3
 72
8
 73
4
 74
0
 40
0
 40
0
 40
0
 40
0
 40
1
 40
1
 40
1
 40
1
 10
47.853668
 20
50.901371
 30
0.0
 10
47.719221
 20
50.533498
 30
0.0
 10
47.650000
 20
50.141749
 30
0.0
 10
47.650000
 20
49.750000
 30
0.0
  0
SPLINE
  5
1ea
100
AcDbEntity
  8
0
 62
7
100
AcDbSpline
 70
8
 71
3
 72
8
 73
4
 74
0
 40
0
 40
0
 40
0
 40
0
 40
1
 40
1
 40
1
 40
1
 10
47.650000
 20
49.750000
 30
0.0
 10
47.650000
 20
49.358251
 30
0.0
 10
47.719221
 20
48.966503
 30
0.0
 10
47.853668
 20
48.598630
 30
0.0
  0
SPLINE
  5
1eb
100
AcDbEntity
  8
0
 62
7
100
AcDbSpline
 70
8
 71
3
 72
8
 73
4
 74
0
 40
0
 40
0
 40
0
 40
0
 40
1
 40
1
 40
1
 40
1
 10
47.853668
 20
48.598630
 30
0.0
 10
47.986191
 20
48.236023
 30
0.0
 10
48.182085
 20
47.896613
 30
0.0
 10
48.429728
 20
47.600419
 30
0.0
  0
SPLINE
  5
1ec
100
AcDbEntity
  8
0
 62
7
100
AcDbSpline
 70
8
 71
3
 72
8
 73
4
 74
0
 40
0
 40
0
 40
0
 40
0
 40
1
 40
1
 40
1
 40
1
 10
48.429728
 20
47.600419
 30
0.0
 10
48.680968
 20
47.299922
 30
0.0
 10
48.985471
 20
47.043905
 30
0.0
 10
49.324719
 20
46.848004
 30
0.0
  0
SPLINE
  5
1ed
100
AcDbEntity
  8
0
 62
7
100
AcDbSpline
 70
8
 71
3
 72
8
 73
4
 74
0
 40
0
 40
0
 40
0
 40
0
 40
1
 40
1
 40
1
 40
1
 10
49.324719
 20
46.848004
 30
0.0
 10
49.663967
 20
46.652103
 30
0.0
 10
50.037960
 20
46.516317
 30
0.0
 10
50.423747
 20
46.448914
 30
0.0
  0
SPLINE
  5
1ee
100
AcDbEntity
  8
0
 62
7
100
AcDbSpline
 70
8
 71
3
 72
8
 73
4
 74
0
 40
0
 40
0
 40
0
 40
0
 40
1
 40
1
 40
1
 40
1
 10
50.423747
 20
46.448914
 30
0.0
 10
50.804011
 20
46.382475
 30
0.0
 10
51.195733
 20
46.382475
 30
0.0
 10
51.576253
 20
46.448914
 30
0.0
  0
SPLINE
  5
1ef
100
AcDbEntity
  8
0
 62
7
100
AcDbSpline
 70
8
 71
3
 72
8
 73
4
 74
0
 40
0
 40
0
 40
0
 40
0
 40
1
 40
1
 40
1
 40
1
 10
51.576253
 20
46.448914
 30
0.0
 10
51.962300
 20
46.516317
 30
0.0
 10
52.336816
 20
46.652103
 30
0.0
 10
52.675281
 20
46.848004
 30
0.0
  0
SPLINE
  5
1f0
100
AcDbEntity
  8
0
 62
7
100
AcDbSpline
 70
8
 71
3
 72
8
 73
4
 74
0
 40
0
 40
0
 40
0
 40
0
 40
1
 40
1
 40
1
 40
1
 10
52.675281
 20
46.848004
 30
0.0
 10
53.013746
 20
47.043905
 30
0.0
 10
53.316161
 20
47.299922
 30
0.0
 10
53.570272
 20
47.600419
 30
0.0
  0
SPLINE
  5
1f1
100
AcDbEntity
  8
0
 62
7
100
AcDbSpline
 70
8
 71
3
 72
8
 73
4
 74
0
 40
0
 40
0
 40
0
 40
0
 40
1
 40
1
 40
1
 40
1
 10
53.570272
 20
47.600419
 30
0.0
 10
53.820746
 20
47.896613
 30
0.0
 10
54.024290
 20
48.236023
 30
0.0
 10
54.146332
 20
48.598630
 30
0.0
  0
SPLINE
  5
1f2
100
AcDbEntity
  8
0
 62
7
100
AcDbSpline
 70
8
 71
3
 72
8
 73
4
 74
0
 40
0
 40
0
 40
0
 40
0
 40
1
 40
1
 40
1
 40
1
 10
54.146332
 20
48.598630
 30
0.0
 10
54.270146
 20
48.966503
 30
0.0
 10
54.310073
 20
49.358251
 30
0.0
 10
54.350000
 20
49.750000
 30
0.0
  0
LWPOLYLINE
  5
1f3
100
AcDbEntity
  8
0
 62
7
100
AcDbPolyline
 90
1
 70
1
 10
54.350000
 20
49.750000
 30
0.0
  0
SPLINE
  5
1f4
100
AcDbEntity
  8
0
 62
7
100
AcDbSpline
 70
8
 71
3
 72
8
 73
4
 74
0
 40
0
 40
0
 40
0
 40
0
 40
1
 40
1
 40
1
 40
1
 10
-71.113912
 20
-31.056556
 30
0.0
 10
-71.153839
 20
-30.664807
 30
0.0
 10
-71.193766
 20
-30.273058
 30
0.0
 10
-71.317580
 20
-29.905185
 30
0.0
  0
SPLINE
  5
1f5
100
AcDbEntity
  8
0
 62
7
100
AcDbSpline
 70
8
 71
3
 72
8
 73
4
 74
0
 40
0
 40
0
 40
0
 40
0
 40
1
 40
1
 40
1
 40
1
 10
-71.317580
 20
-29.905185
 30
0.0
 10
-71.439622
 20
-29.542578
 30
0.0
 10
-71.643166
 20
-29.203168
 30
0.0
 10
-71.893640
 20
-28.906974
 30
0.0
  0
SPLINE
  5
1f6
100
AcDbEntity
  8
0
 62
7
100
AcDbSpline
 70
8
 71
3
 72
8
 73
4
 74
0
 40
0
 40
0
 40
0
 40
0
 40
1
 40
1
 40
1
 40
1
 10
-71.893640
 20
-28.906974
 30
0.0
 10
-72.147752
 20
-28.606478
 30
0.0
 10
-72.450166
 20
-28.350462
 30
0.0
 10
-72.788631
 20
-28.154560
 30
0.0
  0
SPLINE
  5
1f7
100
AcDbEntity
  8
0
 62
7
100
AcDbSpline
 70
8
 71
3
 72
8
 73
4
 74
0
 40
0
 40
0
 40
0
 40
0
 40
1
 40
1
 40
1
 40
1
 10
-72.788631
 20
-28.154560
 30
0.0
 10
-73.127096
 20
-27.958659
 30
0.0
 10
-73.501612
 20
-27.822873
 30
0.0
 10
-73.887659
 20
-27.755470
 30
0.0
  0
SPLINE
  5
1f8
100
AcDbEntity
  8
0
 62
7
100
AcDbSpline
 70
8
 71
3
 72
8
 73
4
 74
0
 40
0
 40
0
 40
0
 40
0
 40
1
 40
1
 40
1
 40
1
 10
-73.887659
 20
-27.755470
 30
0.0
 10
-74.268178
 20
-27.689031
 30
0.0
 10
-74.659901
 20
-27.689031
 30
0.0
 10
-75.040165
 20
-27.755470
 30
0.0
  0
SPLINE
  5
1f9
100
AcDbEntity
  8
0
 62
7
100
AcDbSpline
 70
8
 71
3
 72
8
 73
4
 74
0
 40
0
 40
0
 40
0
 40
0
 40
1
 40
1
 40
1
 40
1
 10
-75.040165
 20
-27.755470
 30
0.0
 10
-75.425951
 20
-27.822873
 30
0.0
 10
-75.799944
 20
-27.958659
 30
0.0
 10
-76.139192
 20
-28.154560
 30
0.0
  0
SPLINE
  5
1fa
100
AcDbEntity
  8
0
 62
7
100
AcDbSpline
 70
8
 71
3
 72
8
 73
4
 74
0
 40
0
 40
0
 40
0
 40
0
 40
1
 40
1
 40
1
 40
1
 10
-76.139192
 20
-28.154560
 30
0.0
 10
-76.478440
 20
-28.350461
 30
0.0
 10
-76.782943
 20
-28.606478
 30
0.0
 10
-77.034183
 20
-28.906974
 30
0.0
  0
SPLINE
  5
1fb
100
AcDbEntity
  8
0
 62
7
100
AcDbSpline
 70
8
 71
3
 72
8
 73
4
 74
0
 40
0
 40
0
 40
0
 40
0
 40
1
 40
1
 40
1
 40
1
 10
-77.034183
 20
-28.906974
 30
0.0
 10
-77.281826
 20
-29.203169
 30
0.0
 10
-77.477721
 20
-29.542578
 30
0.0
 10
-77.610243
 20
-29.905185
 30
0.0
  0
SPLINE
  5
1fc
100
AcDbEntity
  8
0
 62
7
100
AcDbSpline
 70
8
 71
3
 72
8
 73
4
 74
0
 40
0
 40
0
 40
0
 40
0
 40
1
 40
1
 40
1
 40
1
 10
-77.610243
 20
-29.905185
 30
0.0
 10
-77.744690
 20
-30.273058
 30
0.0
 10
-77.813912
 20
-30.664807
 30
0.0
 10
-77.813912
 20
-31.056556
 30
0.0
  0
SPLINE
  5
1fd
100
AcDbEntity
  8
0
 62
7
100
AcDbSpline
 70
8
 71
3
 72
8
 73
4
 74
0
 40
0
 40
0
 40
0
 40
0
 40
1
 40
1
 40
1
 40
1
 10
-77.813912
 20
-31.056556
 30
0.0
 10
-77.813912
 20
-31.448305
 30
0.0
 10
-77.744690
 20
-31.840053
 30
0.0
 10
-77.610243
 20
-32.207926
 30
0.0
  0
SPLINE
  5
1fe
100
AcDbEntity
  8
0
 62
7
100
AcDbSpline
 70
8
 71
3
 72
8
 73
4
 74
0
 40
0
 40
0
 40
0
 40
0
 40
1
 40
1
 40
1
 40
1
 10
-77.610243
 20
-32.207926
 30
0.0
 10
-77.477721
 20
-32.570533
 30
0.0
 10
-77.281826
 20
-32.909943
 30
0.0
 10
-77.034183
 20
-33.206137
 30
0.0
  0
SPLINE
  5
1ff
100
AcDbEntity
  8
0
 62
7
100
AcDbSpline
 70
8
 71
3
 72
8
 73
4
 74
0
 40
0
 40
0
 40
0
 40
0
 40
1
 40
1
 40
1
 40
1
 10
-77.034183
 20
-33.206137
 30
0.0
 10
-76.782943
 20
-33.506634
 30
0.0
 10
-76.478440
 20
-33.762650
 30
0.0
 10
-76.139192
 20
-33.958551
 30
0.0
  0
SPLINE
  5
200
100
AcDbEntity
  8
0
 62
7
100
AcDbSpline
 70
8
 71
3
 72
8
 73
4
 74
0
 40
0
 40
0
 40
0
 40
0
 40
1
 40
1
 40
1
 40
1
 10
-76.139192
 20
-33.958551
 30
0.0
 10
-75.799944
 20
-34.154452
 30
0.0
 10
-75.425951
 20
-34.290238
 30
0.0
 10
-75.040165
 20
-34.357642
 30
0.0
  0
SPLINE
  5
201
100
AcDbEntity
  8
0
 62
7
100
AcDbSpline
 70
8
 71
3
 72
8
 73
4
 74
0
 40
0
 40
0
 40
0
 40
0
 40
1
 40
1
 40
1
 40
1
 10
-75.040165
 20
-34.357642
 30
0.0
 10
-74.659901
 20
-34.424080
 30
0.0
 10
-74.268178
 20
-34.424080
 30
0.0
 10
-73.887659
 20
-34.357642
 30
0.0
  0
SPLINE
  5
202
100
AcDbEntity
  8
0
 62
7
100
AcDbSpline
 70
8
 71
3
 72
8
 73
4
 74
0
 40
0
 40
0
 40
0
 40
0
 40
1
 40
1
 40
1
 40
1
 10
-73.887659
 20
-34.357642
 30
0.0
 10
-73.501612
 20
-34.290238
 30
0.0
 10
-73.127096
 20
-34.154452
 30
0.0
 10
-72.788631
 20
-33.958551
 30
0.0
  0
SPLINE
  5
203
100
AcDbEntity
  8
0
 62
7
100
AcDbSpline
 70
8
 71
3
 72
8
 73
4
 74
0
 40
0
 40
0
 40
0
 40
0
 40
1
 40
1
 40
1
 40
1
 10
-72.788631
 20
-33.958551
 30
0.0
 10
-72.450166
 20
-33.762650
 30
0.0
 10
-72.147751
 20
-33.506634
 30
0.0
 10
-71.893640
 20
-33.206137
 30
0.0
  0
SPLINE
  5
204
100
AcDbEntity
  8
0
 62
7
100
AcDbSpline
 70
8
 71
3
 72
8
 73
4
 74
0
 40
0
 40
0
 40
0
 40
0
 40
1
 40
1
 40
1
 40
1
 10
-71.893640
 20
-33.206137
 30
0.0
 10
-71.643166
 20
-32.909943
 30
0.0
 10
-71.439622
 20
-32.570533
 30
0.0
 10
-71.317580
 20
-32.207926
 30
0.0
  0
SPLINE
  5
205
100
AcDbEntity
  8
0
 62
7
100
AcDbSpline
 70
8
 71
3
 72
8
 73
4
 74
0
 40
0
 40
0
 40
0
 40
0
 40
1
 40
1
 40
1
 40
1
 10
-71.317580
 20
-32.207926
 30
0.0
 10
-71.193766
 20
-31.840053
 30
0.0
 10
-71.153839
 20
-31.448304
 30
0.0
 10
-71.113912
 20
-31.056556
 30
0.0
  0
LWPOLYLINE
  5
206
100
AcDbEntity
  8
0
 62
7
100
AcDbPolyline
 90
1
 70
1
 10
-71.113912
 20
-31.056556
 30
0.0
  0
SPLINE
  5
207
100
AcDbEntity
  8
0
 62
7
100
AcDbSpline
 70
8
 71
3
 72
8
 73
4
 74
0
 40
0
 40
0
 40
0
 40
0
 40
1
 40
1
 40
1
 40
1
 10
-13.650000
 20
-49.750000
 30
0.0
 10
-13.689927
 20
-49.358251
 30
0.0
 10
-13.729854
 20
-48.966502
 30
0.0
 10
-13.853669
 20
-48.598629
 30
0.0
  0
SPLINE
  5
208
100
AcDbEntity
  8
0
 62
7
100
AcDbSpline
 70
8
 71
3
 72
8
 73
4
 74
0
 40
0
 40
0
 40
0
 40
0
 40
1
 40
1
 40
1
 40
1
 10
-13.853669
 20
-48.598629
 30
0.0
 10
-13.975711
 20
-48.236022
 30
0.0
 10
-14.179255
 20
-47.896613
 30
0.0
 10
-14.429728
 20
-47.600418
 30
0.0
  0
SPLINE
  5
209
100
AcDbEntity
  8
0
 62
7
100
AcDbSpline
 70
8
 71
3
 72
8
 73
4
 74
0
 40
0
 40
0
 40
0
 40
0
 40
1
 40
1
 40
1
 40
1
 10
-14.429728
 20
-47.600418
 30
0.0
 10
-14.683840
 20
-47.299922
 30
0.0
 10
-14.986254
 20
-47.043905
 30
0.0
 10
-15.324719
 20
-46.848004
 30
0.0
  0
SPLINE
  5
20a
100
AcDbEntity
  8
0
 62
7
100
AcDbSpline
 70
8
 71
3
 72
8
 73
4
 74
0
 40
0
 40
0
 40
0
 40
0
 40
1
 40
1
 40
1
 40
1
 10
-15.324719
 20
-46.848004
 30
0.0
 10
-15.663184
 20
-46.652103
 30
0.0
 10
-16.037700
 20
-46.516317
 30
0.0
 10
-16.423747
 20
-46.448914
 30
0.0
  0
SPLINE
  5
20b
100
AcDbEntity
  8
0
 62
7
100
AcDbSpline
 70
8
 71
3
 72
8
 73
4
 74
0
 40
0
 40
0
 40
0
 40
0
 40
1
 40
1
 40
1
 40
1
 10
-16.423747
 20
-46.448914
 30
0.0
 10
-16.804267
 20
-46.382475
 30
0.0
 10
-17.195989
 20
-46.382475
 30
0.0
 10
-17.576253
 20
-46.448914
 30
0.0
  0
SPLINE
  5
20c
100
AcDbEntity
  8
0
 62
7
100
AcDbSpline
 70
8
 71
3
 72
8
 73
4
 74
0
 40
0
 40
0
 40
0
 40
0
 40
1
 40
1
 40
1
 40
1
 10
-17.576253
 20
-46.448914
 30
0.0
 10
-17.962040
 20
-46.516317
 30
0.0
 10
-18.336033
 20
-46.652103
 30
0.0
 10
-18.675281
 20
-46.848004
 30
0.0
  0
SPLINE
  5
20d
100
AcDbEntity
  8
0
 62
7
100
AcDbSpline
 70
8
 71
3
 72
8
 73
4
 74
0
 40
0
 40
0
 40
0
 40
0
 40
1
 40
1
 40
1
 40
1
 10
-18.675281
 20
-46.848004
 30
0.0
 10
-19.014529
 20
-47.043905
 30
0.0
 10
-19.319032
 20
-47.299922
 30
0.0
 10
-19.570272
 20
-47.600418
 30
0.0
  0
SPLINE
  5
20e
100
AcDbEntity
  8
0
 62
7
100
AcDbSpline
 70
8
 71
3
 72
8
 73
4
 74
0
 40
0
 40
0
 40
0
 40
0
 40
1
 40
1
 40
1
 40
1
 10
-19.570272
 20
-47.600418
 30
0.0
 10
-19.817915
 20
-47.896613
 30
0.0
 10
-20.013809
 20
-48.236022
 30
0.0
 10
-20.146332
 20
-48.598629
 30
0.0
  0
SPLINE
  5
20f
100
AcDbEntity
  8
0
 62
7
100
AcDbSpline
 70
8
 71
3
 72
8
 73
4
 74
0
 40
0
 40
0
 40
0
 40
0
 40
1
 40
1
 40
1
 40
1
 10
-20.146332
 20
-48.598629
 30
0.0
 10
-20.280779
 20
-48.966502
 30
0.0
 10
-20.350000
 20
-49.358251
 30
0.0
 10
-20.350000
 20
-49.750000
 30
0.0
  0
SPLINE
  5
210
100
AcDbEntity
  8
0
 62
7
100
AcDbSpline
 70
8
 71
3
 72
8
 73
4
 74
0
 40
0
 40
0
 40
0
 40
0
 40
1
 40
1
 40
1
 40
1
 10
-20.350000
 20
-49.750000
 30
0.0
 10
-20.350000
 20
-50.141749
 30
0.0
 10
-20.280779
 20
-50.533497
 30
0.0
 10
-20.146332
 20
-50.901370
 30
0.0
  0
SPLINE
  5
211
100
AcDbEntity
  8
0
 62
7
100
AcDbSpline
 70
8
 71
3
 72
8
 73
4
 74
0
 40
0
 40
0
 40
0
 40
0
 40
1
 40
1
 40
1
 40
1
 10
-20.146332
 20
-50.901370
 30
0.0
 10
-20.013809
 20
-51.263977
 30
0.0
 10
-19.817915
 20
-51.603387
 30
0.0
 10
-19.570272
 20
-51.899581
 30
0.0
  0
SPLINE
  5
212
100
AcDbEntity
  8
0
 62
7
100
AcDbSpline
 70
8
 71
3
 72
8
 73
4
 74
0
 40
0
 40
0
 40
0
 40
0
 40
1
 40
1
 40
1
 40
1
 10
-19.570272
 20
-51.899581
 30
0.0
 10
-19.319032
 20
-52.200078
 30
0.0
 10
-19.014529
 20
-52.456094
 30
0.0
 10
-18.675281
 20
-52.651995
 30
0.0
  0
SPLINE
  5
213
100
AcDbEntity
  8
0
 62
7
100
AcDbSpline
 70
8
 71
3
 72
8
 73
4
 74
0
 40
0
 40
0
 40
0
 40
0
 40
1
 40
1
 40
1
 40
1
 10
-18.675281
 20
-52.651995
 30
0.0
 10
-18.336033
 20
-52.847896
 30
0.0
 10
-17.962040
 20
-52.983683
 30
0.0
 10
-17.576253
 20
-53.051086
 30
0.0
  0
SPLINE
  5
214
100
AcDbEntity
  8
0
 62
7
100
AcDbSpline
 70
8
 71
3
 72
8
 73
4
 74
0
 40
0
 40
0
 40
0
 40
0
 40
1
 40
1
 40
1
 40
1
 10
-17.576253
 20
-53.051086
 30
0.0
 10
-17.195989
 20
-53.117525
 30
0.0
 10
-16.804267
 20
-53.117525
 30
0.0
 10
-16.423747
 20
-53.051086
 30
0.0
  0
SPLINE
  5
215
100
AcDbEntity
  8
0
 62
7
100
AcDbSpline
 70
8
 71
3
 72
8
 73
4
 74
0
 40
0
 40
0
 40
0
 40
0
 40
1
 40
1
 40
1
 40
1
 10
-16.423747
 20
-53.051086
 30
0.0
 10
-16.037700
 20
-52.983683
 30
0.0
 10
-15.663184
 20
-52.847896
 30
0.0
 10
-15.324719
 20
-52.651995
 30
0.0
  0
SPLINE
  5
216
100
AcDbEntity
  8
0
 62
7
100
AcDbSpline
 70
8
 71
3
 72
8
 73
4
 74
0
 40
0
 40
0
 40
0
 40
0
 40
1
 40
1
 40
1
 40
1
 10
-15.324719
 20
-52.651995
 30
0.0
 10
-14.986254
 20
-52.456094
 30
0.0
 10
-14.683839
 20
-52.200078
 30
0.0
 10
-14.429728
 20
-51.899581
 30
0.0
  0
SPLINE
  5
217
100
AcDbEntity
  8
0
 62
7
100
AcDbSpline
 70
8
 71
3
 72
8
 73
4
 74
0
 40
0
 40
0
 40
0
 40
0
 40
1
 40
1
 40
1
 40
1
 10
-14.429728
 20
-51.899581
 30
0.0
 10
-14.179254
 20
-51.603387
 30
0.0
 10
-13.975710
 20
-51.263977
 30
0.0
 10
-13.853669
 20
-50.901370
 30
0.0
  0
SPLINE
  5
218
100
AcDbEntity
  8
0
 62
7
100
AcDbSpline
 70
8
 71
3
 72
8
 73
4
 74
0
 40
0
 40
0
 40
0
 40
0
 40
1
 40
1
 40
1
 40
1
 10
-13.853669
 20
-50.901370
 30
0.0
 10
-13.729854
 20
-50.533497
 30
0.0
 10
-13.689927
 20
-50.141749
 30
0.0
 10
-13.650000
 20
-49.750000
 30
0.0
  0
LWPOLYLINE
  5
219
100
AcDbEntity
  8
0
 62
7
100
AcDbPolyline
 90
1
 70
1
 10
-13.650000
 20
-49.750000
 30
0.0
  0
SPLINE
  5
21a
100
AcDbEntity
  8
0
 62
7
100
AcDbSpline
 70
8
 71
3
 72
8
 73
4
 74
0
 40
0
 40
0
 40
0
 40
0
 40
1
 40
1
 40
1
 40
1
 10
54.350000
 20
-49.750000
 30
0.0
 10
54.310073
 20
-49.358251
 30
0.0
 10
54.270146
 20
-48.966502
 30
0.0
 10
54.146332
 20
-48.598629
 30
0.0
  0
SPLINE
  5
21b
100
AcDbEntity
  8
0
 62
7
100
AcDbSpline
 70
8
 71
3
 72
8
 73
4
 74
0
 40
0
 40
0
 40
0
 40
0
 40
1
 40
1
 40
1
 40
1
 10
54.146332
 20
-48.598629
 30
0.0
 10
54.024290
 20
-48.236022
 30
0.0
 10
53.820746
 20
-47.896613
 30
0.0
 10
53.570272
 20
-47.600418
 30
0.0
  0
SPLINE
  5
21c
100
AcDbEntity
  8
0
 62
7
100
AcDbSpline
 70
8
 71
3
 72
8
 73
4
 74
0
 40
0
 40
0
 40
0
 40
0
 40
1
 40
1
 40
1
 40
1
 10
53.570272
 20
-47.600418
 30
0.0
 10
53.316160
 20
-47.299922
 30
0.0
 10
53.013746
 20
-47.043905
 30
0.0
 10
52.675281
 20
-46.848004
 30
0.0
  0
SPLINE
  5
21d
100
AcDbEntity
  8
0
 62
7
100
AcDbSpline
 70
8
 71
3
 72
8
 73
4
 74
0
 40
0
 40
0
 40
0
 40
0
 40
1
 40
1
 40
1
 40
1
 10
52.675281
 20
-46.848004
 30
0.0
 10
52.336816
 20
-46.652103
 30
0.0
 10
51.962300
 20
-46.516317
 30
0.0
 10
51.576253
 20
-46.448914
 30
0.0
  0
SPLINE
  5
21e
100
AcDbEntity
  8
0
 62
7
100
AcDbSpline
 70
8
 71
3
 72
8
 73
4
 74
0
 40
0
 40
0
 40
0
 40
0
 40
1
 40
1
 40
1
 40
1
 10
51.576253
 20
-46.448914
 30
0.0
 10
51.195733
 20
-46.382475
 30
0.0
 10
50.804011
 20
-46.382475
 30
0.0
 10
50.423747
 20
-46.448914
 30
0.0
  0
SPLINE
  5
21f
100
AcDbEntity
  8
0
 62
7
100
AcDbSpline
 70
8
 71
3
 72
8
 73
4
 74
0
 40
0
 40
0
 40
0
 40
0
 40
1
 40
1
 40
1
 40
1
 10
50.423747
 20
-46.448914
 30
0.0
 10
50.037960
 20
-46.516317
 30
0.0
 10
49.663967
 20
-46.652103
 30
0.0
 10
49.324719
 20
-46.848004
 30
0.0
  0
SPLINE
  5
220
100
AcDbEntity
  8
0
 62
7
100
AcDbSpline
 70
8
 71
3
 72
8
 73
4
 74
0
 40
0
 40
0
 40
0
 40
0
 40
1
 40
1
 40
1
 40
1
 10
49.324719
 20
-46.848004
 30
0.0
 10
48.985471
 20
-47.043905
 30
0.0
 10
48.680968
 20
-47.299922
 30
0.0
 10
48.429728
 20
-47.600418
 30
0.0
  0
SPLINE
  5
221
100
AcDbEntity
  8
0
 62
7
100
AcDbSpline
 70
8
 71
3
 72
8
 73
4
 74
0
 40
0
 40
0
 40
0
 40
0
 40
1
 40
1
 40
1
 40
1
 10
48.429728
 20
-47.600418
 30
0.0
 10
48.182085
 20
-47.896613
 30
0.0
 10
47.986191
 20
-48.236022
 30
0.0
 10
47.853668
 20
-48.598629
 30
0.0
  0
SPLINE
  5
222
100
AcDbEntity
  8
0
 62
7
100
AcDbSpline
 70
8
 71
3
 72
8
 73
4
 74
0
 40
0
 40
0
 40
0
 40
0
 40
1
 40
1
 40
1
 40
1
 10
47.853668
 20
-48.598629
 30
0.0
 10
47.719221
 20
-48.966502
 30
0.0
 10
47.650000
 20
-49.358251
 30
0.0
 10
47.650000
 20
-49.750000
 30
0.0
  0
SPLINE
  5
223
100
AcDbEntity
  8
0
 62
7
100
AcDbSpline
 70
8
 71
3
 72
8
 73
4
 74
0
 40
0
 40
0
 40
0
 40
0
 40
1
 40
1
 40
1
 40
1
 10
47.650000
 20
-49.750000
 30
0.0
 10
47.650000
 20
-50.141749
 30
0.0
 10
47.719221
 20
-50.533497
 30
0.0
 10
47.853668
 20
-50.901370
 30
0.0
  0
SPLINE
  5
224
100
AcDbEntity
  8
0
 62
7
100
AcDbSpline
 70
8
 71
3
 72
8
 73
4
 74
0
 40
0
 40
0
 40
0
 40
0
 40
1
 40
1
 40
1
 40
1
 10
47.853668
 20
-50.901370
 30
0.0
 10
47.986191
 20
-51.263977
 30
0.0
 10
48.182085
 20
-51.603387
 30
0.0
 10
48.429728
 20
-51.899581
 30
0.0
  0
SPLINE
  5
225
100
AcDbEntity
  8
0
 62
7
100
AcDbSpline
 70
8
 71
3
 72
8
 73
4
 74
0
 40
0
 40
0
 40
0
 40
0
 40
1
 40
1
 40
1
 40
1
 10
48.429728
 20
-51.899581
 30
0.0
 10
48.680968
 20
-52.200078
 30
0.0
 10
48.985471
 20
-52.456094
 30
0.0
 10
49.324719
 20
-52.651995
 30
0.0
  0
SPLINE
  5
226
100
AcDbEntity
  8
0
 62
7
100
AcDbSpline
 70
8
 71
3
 72
8
 73
4
 74
0
 40
0
 40
0
 40
0
 40
0
 40
1
 40
1
 40
1
 40
1
 10
49.324719
 20
-52.651995
 30
0.0
 10
49.663967
 20
-52.847896
 30
0.0
 10
50.037960
 20
-52.983683
 30
0.0
 10
50.423747
 20
-53.051086
 30
0.0
  0
SPLINE
  5
227
100
AcDbEntity
  8
0
 62
7
100
AcDbSpline
 70
8
 71
3
 72
8
 73
4
 74
0
 40
0
 40
0
 40
0
 40
0
 40
1
 40
1
 40
1
 40
1
 10
50.423747
 20
-53.051086
 30
0.0
 10
50.804011
 20
-53.117525
 30
0.0
 10
51.195733
 20
-53.117525
 30
0.0
 10
51.576253
 20
-53.051086
 30
0.0
  0
SPLINE
  5
228
100
AcDbEntity
  8
0
 62
7
100
AcDbSpline
 70
8
 71
3
 72
8
 73
4
 74
0
 40
0
 40
0
 40
0
 40
0
 40
1
 40
1
 40
1
 40
1
 10
51.576253
 20
-53.051086
 30
0.0
 10
51.962300
 20
-52.983683
 30
0.0
 10
52.336816
 20
-52.847896
 30
0.0
 10
52.675281
 20
-52.651995
 30
0.0
  0
SPLINE
  5
229
100
AcDbEntity
  8
0
 62
7
100
AcDbSpline
 70
8
 71
3
 72
8
 73
4
 74
0
 40
0
 40
0
 40
0
 40
0
 40
1
 40
1
 40
1
 40
1
 10
52.675281
 20
-52.651995
 30
0.0
 10
53.013746
 20
-52.456094
 30
0.0
 10
53.316161
 20
-52.200078
 30
0.0
 10
53.570272
 20
-51.899581
 30
0.0
  0
SPLINE
  5
22a
100
AcDbEntity
  8
0
 62
7
100
AcDbSpline
 70
8
 71
3
 72
8
 73
4
 74
0
 40
0
 40
0
 40
0
 40
0
 40
1
 40
1
 40
1
 40
1
 10
53.570272
 20
-51.899581
 30
0.0
 10
53.820746
 20
-51.603387
 30
0.0
 10
54.024290
 20
-51.263977
 30
0.0
 10
54.146332
 20
-50.901370
 30
0.0
  0
SPLINE
  5
22b
100
AcDbEntity
  8
0
 62
7
100
AcDbSpline
 70
8
 71
3
 72
8
 73
4
 74
0
 40
0
 40
0
 40
0
 40
0
 40
1
 40
1
 40
1
 40
1
 10
54.146332
 20
-50.901370
 30
0.0
 10
54.270146
 20
-50.533497
 30
0.0
 10
54.310073
 20
-50.141749
 30
0.0
 10
54.350000
 20
-49.750000
 30
0.0
  0
LWPOLYLINE
  5
22c
100
AcDbEntity
  8
0
 62
7
100
AcDbPolyline
 90
1
 70
1
 10
54.350000
 20
-49.750000
 30
0.0
  0
SPLINE
  5
22d
100
AcDbEntity
  8
0
 62
7
100
AcDbSpline
 70
8
 71
3
 72
8
 73
4
 74
0
 40
0
 40
0
 40
0
 40
0
 40
1
 40
1
 40
1
 40
1
 10
77.813911
 20
31.056556
 30
0.0
 10
77.773984
 20
31.448305
 30
0.0
 10
77.734057
 20
31.840053
 30
0.0
 10
77.610243
 20
32.207927
 30
0.0
  0
SPLINE
  5
22e
100
AcDbEntity
  8
0
 62
7
100
AcDbSpline
 70
8
 71
3
 72
8
 73
4
 74
0
 40
0
 40
0
 40
0
 40
0
 40
1
 40
1
 40
1
 40
1
 10
77.610243
 20
32.207927
 30
0.0
 10
77.488201
 20
32.570533
 30
0.0
 10
77.284657
 20
32.909943
 30
0.0
 10
77.034183
 20
33.206138
 30
0.0
  0
SPLINE
  5
22f
100
AcDbEntity
  8
0
 62
7
100
AcDbSpline
 70
8
 71
3
 72
8
 73
4
 74
0
 40
0
 40
0
 40
0
 40
0
 40
1
 40
1
 40
1
 40
1
 10
77.034183
 20
33.206138
 30
0.0
 10
76.780071
 20
33.506634
 30
0.0
 10
76.477657
 20
33.762650
 30
0.0
 10
76.139192
 20
33.958551
 30
0.0
  0
SPLINE
  5
230
100
AcDbEntity
  8
0
 62
7
100
AcDbSpline
 70
8
 71
3
 72
8
 73
4
 74
0
 40
0
 40
0
 40
0
 40
0
 40
1
 40
1
 40
1
 40
1
 10
76.139192
 20
33.958551
 30
0.0
 10
75.800727
 20
34.154452
 30
0.0
 10
75.426211
 20
34.290239
 30
0.0
 10
75.040164
 20
34.357642
 30
0.0
  0
SPLINE
  5
231
100
AcDbEntity
  8
0
 62
7
100
AcDbSpline
 70
8
 71
3
 72
8
 73
4
 74
0
 40
0
 40
0
 40
0
 40
0
 40
1
 40
1
 40
1
 40
1
 10
75.040164
 20
34.357642
 30
0.0
 10
74.659645
 20
34.424081
 30
0.0
 10
74.267922
 20
34.424081
 30
0.0
 10
73.887658
 20
34.357642
 30
0.0
  0
SPLINE
  5
232
100
AcDbEntity
  8
0
 62
7
100
AcDbSpline
 70
8
 71
3
 72
8
 73
4
 74
0
 40
0
 40
0
 40
0
 40
0
 40
1
 40
1
 40
1
 40
1
 10
73.887658
 20
34.357642
 30
0.0
 10
73.501872
 20
34.290239
 30
0.0
 10
73.127879
 20
34.154452
 30
0.0
 10
72.788631
 20
33.958551
 30
0.0
  0
SPLINE
  5
233
100
AcDbEntity
  8
0
 62
7
100
AcDbSpline
 70
8
 71
3
 72
8
 73
4
 74
0
 40
0
 40
0
 40
0
 40
0
 40
1
 40
1
 40
1
 40
1
 10
72.788631
 20
33.958551
 30
0.0
 10
72.449383
 20
33.762650
 30
0.0
 10
72.144880
 20
33.506634
 30
0.0
 10
71.893640
 20
33.206137
 30
0.0
  0
SPLINE
  5
234
100
AcDbEntity
  8
0
 62
7
100
AcDbSpline
 70
8
 71
3
 72
8
 73
4
 74
0
 40
0
 40
0
 40
0
 40
0
 40
1
 40
1
 40
1
 40
1
 10
71.893640
 20
33.206137
 30
0.0
 10
71.645996
 20
32.909943
 30
0.0
 10
71.450102
 20
32.570533
 30
0.0
 10
71.317580
 20
32.207926
 30
0.0
  0
SPLINE
  5
235
100
AcDbEntity
  8
0
 62
7
100
AcDbSpline
 70
8
 71
3
 72
8
 73
4
 74
0
 40
0
 40
0
 40
0
 40
0
 40
1
 40
1
 40
1
 40
1
 10
71.317580
 20
32.207926
 30
0.0
 10
71.183133
 20
31.840053
 30
0.0
 10
71.113911
 20
31.448304
 30
0.0
 10
71.113911
 20
31.056555
 30
0.0
  0
SPLINE
  5
236
100
AcDbEntity
  8
0
 62
7
100
AcDbSpline
 70
8
 71
3
 72
8
 73
4
 74
0
 40
0
 40
0
 40
0
 40
0
 40
1
 40
1
 40
1
 40
1
 10
71.113911
 20
31.056555
 30
0.0
 10
71.113911
 20
30.664807
 30
0.0
 10
71.183133
 20
30.273058
 30
0.0
 10
71.317580
 20
29.905185
 30
0.0
  0
SPLINE
  5
237
100
AcDbEntity
  8
0
 62
7
100
AcDbSpline
 70
8
 71
3
 72
8
 73
4
 74
0
 40
0
 40
0
 40
0
 40
0
 40
1
 40
1
 40
1
 40
1
 10
71.317580
 20
29.905185
 30
0.0
 10
71.450102
 20
29.542579
 30
0.0
 10
71.645996
 20
29.203169
 30
0.0
 10
71.893640
 20
28.906974
 30
0.0
  0
SPLINE
  5
238
100
AcDbEntity
  8
0
 62
7
100
AcDbSpline
 70
8
 71
3
 72
8
 73
4
 74
0
 40
0
 40
0
 40
0
 40
0
 40
1
 40
1
 40
1
 40
1
 10
71.893640
 20
28.906974
 30
0.0
 10
72.144880
 20
28.606478
 30
0.0
 10
72.449383
 20
28.350461
 30
0.0
 10
72.788631
 20
28.154560
 30
0.0
  0
SPLINE
  5
239
100
AcDbEntity
  8
0
 62
7
100
AcDbSpline
 70
8
 71
3
 72
8
 73
4
 74
0
 40
0
 40
0
 40
0
 40
0
 40
1
 40
1
 40
1
 40
1
 10
72.788631
 20
28.154560
 30
0.0
 10
73.127879
 20
27.958659
 30
0.0
 10
73.501872
 20
27.822873
 30
0.0
 10
73.887658
 20
27.755470
 30
0.0
  0
SPLINE
  5
23a
100
AcDbEntity
  8
0
 62
7
100
AcDbSpline
 70
8
 71
3
 72
8
 73
4
 74
0
 40
0
 40
0
 40
0
 40
0
 40
1
 40
1
 40
1
 40
1
 10
73.887658
 20
27.755470
 30
0.0
 10
74.267922
 20
27.689031
 30
0.0
 10
74.659645
 20
27.689031
 30
0.0
 10
75.040164
 20
27.755470
 30
0.0
  0
SPLINE
  5
23b
100
AcDbEntity
  8
0
 62
7
100
AcDbSpline
 70
8
 71
3
 72
8
 73
4
 74
0
 40
0
 40
0
 40
0
 40
0
 40
1
 40
1
 40
1
 40
1
 10
75.040164
 20
27.755470
 30
0.0
 10
75.426211
 20
27.822873
 30
0.0
 10
75.800727
 20
27.958659
 30
0.0
 10
76.139192
 20
28.154560
 30
0.0
  0
SPLINE
  5
23c
100
AcDbEntity
  8
0
 62
7
100
AcDbSpline
 70
8
 71
3
 72
8
 73
4
 74
0
 40
0
 40
0
 40
0
 40
0
 40
1
 40
1
 40
1
 40
1
 10
76.139192
 20
28.154560
 30
0.0
 10
76.477657
 20
28.350461
 30
0.0
 10
76.780071
 20
28.606478
 30
0.0
 10
77.034183
 20
28.906974
 30
0.0
  0
SPLINE
  5
23d
100
AcDbEntity
  8
0
 62
7
100
AcDbSpline
 70
8
 71
3
 72
8
 73
4
 74
0
 40
0
 40
0
 40
0
 40
0
 40
1
 40
1
 40
1
 40
1
 10
77.034183
 20
28.906974
 30
0.0
 10
77.284657
 20
29.203169
 30
0.0
 10
77.488201
 20
29.542579
 30
0.0
 10
77.610243
 20
29.905185
 30
0.0
  0
SPLINE
  5
23e
100
AcDbEntity
  8
0
 62
7
100
AcDbSpline
 70
8
 71
3
 72
8
 73
4
 74
0
 40
0
 40
0
 40
0
 40
0
 40
1
 40
1
 40
1
 40
1
 10
77.610243
 20
29.905185
 30
0.0
 10
77.734057
 20
30.273058
 30
0.0
 10
77.773984
 20
30.664807
 30
0.0
 10
77.813911
 20
31.056556
 30
0.0
  0
LWPOLYLINE
  5
23f
100
AcDbEntity
  8
0
 62
7
100
AcDbPolyline
 90
1
 70
1
 10
77.813911
 20
31.056556
 30
0.0
  0
SPLINE
  5
240
100
AcDbEntity
  8
0
 62
7
100
AcDbSpline
 70
8
 71
3
 72
8
 73
4
 74
0
 40
0
 40
0
 40
0
 40
0
 40
1
 40
1
 40
1
 40
1
 10
20.350000
 20
49.750000
 30
0.0
 10
20.310073
 20
50.141749
 30
0.0
 10
20.270146
 20
50.533498
 30
0.0
 10
20.146331
 20
50.901371
 30
0.0
  0
SPLINE
  5
241
100
AcDbEntity
  8
0
 62
7
100
AcDbSpline
 70
8
 71
3
 72
8
 73
4
 74
0
 40
0
 40
0
 40
0
 40
0
 40
1
 40
1
 40
1
 40
1
 10
20.146331
 20
50.901371
 30
0.0
 10
20.024289
 20
51.263978
 30
0.0
 10
19.820745
 20
51.603387
 30
0.0
 10
19.570272
 20
51.899582
 30
0.0
  0
SPLINE
  5
242
100
AcDbEntity
  8
0
 62
7
100
AcDbSpline
 70
8
 71
3
 72
8
 73
4
 74
0
 40
0
 40
0
 40
0
 40
0
 40
1
 40
1
 40
1
 40
1
 10
19.570272
 20
51.899582
 30
0.0
 10
19.316160
 20
52.200078
 30
0.0
 10
19.013746
 20
52.456095
 30
0.0
 10
18.675281
 20
52.651996
 30
0.0
  0
SPLINE
  5
243
100
AcDbEntity
  8
0
 62
7
100
AcDbSpline
 70
8
 71
3
 72
8
 73
4
 74
0
 40
0
 40
0
 40
0
 40
0
 40
1
 40
1
 40
1
 40
1
 10
18.675281
 20
52.651996
 30
0.0
 10
18.336816
 20
52.847897
 30
0.0
 10
17.962300
 20
52.983683
 30
0.0
 10
17.576253
 20
53.051086
 30
0.0
  0
SPLINE
  5
244
100
AcDbEntity
  8
0
 62
7
100
AcDbSpline
 70
8
 71
3
 72
8
 73
4
 74
0
 40
0
 40
0
 40
0
 40
0
 40
1
 40
1
 40
1
 40
1
 10
17.576253
 20
53.051086
 30
0.0
 10
17.195733
 20
53.117525
 30
0.0
 10
16.804011
 20
53.117525
 30
0.0
 10
16.423747
 20
53.051086
 30
0.0
  0
SPLINE
  5
245
100
AcDbEntity
  8
0
 62
7
100
AcDbSpline
 70
8
 71
3
 72
8
 73
4
 74
0
 40
0
 40
0
 40
0
 40
0
 40
1
 40
1
 40
1
 40
1
 10
16.423747
 20
53.051086
 30
0.0
 10
16.037960
 20
52.983683
 30
0.0
 10
15.663967
 20
52.847897
 30
0.0
 10
15.324719
 20
52.651996
 30
0.0
  0
SPLINE
  5
246
100
AcDbEntity
  8
0
 62
7
100
AcDbSpline
 70
8
 71
3
 72
8
 73
4
 74
0
 40
0
 40
0
 40
0
 40
0
 40
1
 40
1
 40
1
 40
1
 10
15.324719
 20
52.651996
 30
0.0
 10
14.985471
 20
52.456095
 30
0.0
 10
14.680968
 20
52.200078
 30
0.0
 10
14.429728
 20
51.899582
 30
0.0
  0
SPLINE
  5
247
100
AcDbEntity
  8
0
 62
7
100
AcDbSpline
 70
8
 71
3
 72
8
 73
4
 74
0
 40
0
 40
0
 40
0
 40
0
 40
1
 40
1
 40
1
 40
1
 10
14.429728
 20
51.899582
 30
0.0
 10
14.182085
 20
51.603387
 30
0.0
 10
13.986191
 20
51.263978
 30
0.0
 10
13.853668
 20
50.901371
 30
0.0
  0
SPLINE
  5
248
100
AcDbEntity
  8
0
 62
7
100
AcDbSpline
 70
8
 71
3
 72
8
 73
4
 74
0
 40
0
 40
0
 40
0
 40
0
 40
1
 40
1
 40
1
 40
1
 10
13.853668
 20
50.901371
 30
0.0
 10
13.719221
 20
50.533498
 30
0.0
 10
13.650000
 20
50.141749
 30
0.0
 10
13.650000
 20
49.750000
 30
0.0
  0
SPLINE
  5
249
100
AcDbEntity
  8
0
 62
7
100
AcDbSpline
 70
8
 71
3
 72
8
 73
4
 74
0
 40
0
 40
0
 40
0
 40
0
 40
1
 40
1
 40
1
 40
1
 10
13.650000
 20
49.750000
 30
0.0
 10
13.650000
 20
49.358251
 30
0.0
 10
13.719221
 20
48.966503
 30
0.0
 10
13.853668
 20
48.598630
 30
0.0
  0
SPLINE
  5
24a
100
AcDbEntity
  8
0
 62
7
100
AcDbSpline
 70
8
 71
3
 72
8
 73
4
 74
0
 40
0
 40
0
 40
0
 40
0
 40
1
 40
1
 40
1
 40
1
 10
13.853668
 20
48.598630
 30
0.0
 10
13.986191
 20
48.236023
 30
0.0
 10
14.182085
 20
47.896613
 30
0.0
 10
14.429728
 20
47.600419
 30
0.0
  0
SPLINE
  5
24b
100
AcDbEntity
  8
0
 62
7
100
AcDbSpline
 70
8
 71
3
 72
8
 73
4
 74
0
 40
0
 40
0
 40
0
 40
0
 40
1
 40
1
 40
1
 40
1
 10
14.429728
 20
47.600419
 30
0.0
 10
14.680968
 20
47.299922
 30
0.0
 10
14.985471
 20
47.043905
 30
0.0
 10
15.324719
 20
46.848004
 30
0.0
  0
SPLINE
  5
24c
100
AcDbEntity
  8
0
 62
7
100
AcDbSpline
 70
8
 71
3
 72
8
 73
4
 74
0
 40
0
 40
0
 40
0
 40
0
 40
1
 40
1
 40
1
 40
1
 10
15.324719
 20
46.848004
 30
0.0
 10
15.663967
 20
46.652103
 30
0.0
 10
16.037960
 20
46.516317
 30
0.0
 10
16.423747
 20
46.448914
 30
0.0
  0
SPLINE
  5
24d
100
AcDbEntity
  8
0
 62
7
100
AcDbSpline
 70
8
 71
3
 72
8
 73
4
 74
0
 40
0
 40
0
 40
0
 40
0
 40
1
 40
1
 40
1
 40
1
 10
16.423747
 20
46.448914
 30
0.0
 10
16.804011
 20
46.382475
 30
0.0
 10
17.195733
 20
46.382475
 30
0.0
 10
17.576253
 20
46.448914
 30
0.0
  0
SPLINE
  5
24e
100
AcDbEntity
  8
0
 62
7
100
AcDbSpline
 70
8
 71
3
 72
8
 73
4
 74
0
 40
0
 40
0
 40
0
 40
0
 40
1
 40
1
 40
1
 40
1
 10
17.576253
 20
46.448914
 30
0.0
 10
17.962300
 20
46.516317
 30
0.0
 10
18.336816
 20
46.652103
 30
0.0
 10
18.675281
 20
46.848004
 30
0.0
  0
SPLINE
  5
24f
100
AcDbEntity
  8
0
 62
7
100
AcDbSpline
 70
8
 71
3
 72
8
 73
4
 74
0
 40
0
 40
0
 40
0
 40
0
 40
1
 40
1
 40
1
 40
1
 10
18.675281
 20
46.848004
 30
0.0
 10
19.013746
 20
47.043905
 30
0.0
 10
19.316161
 20
47.299922
 30
0.0
 10
19.570272
 20
47.600419
 30
0.0
  0
SPLINE
  5
250
100
AcDbEntity
  8
0
 62
7
100
AcDbSpline
 70
8
 71
3
 72
8
 73
4
 74
0
 40
0
 40
0
 40
0
 40
0
 40
1
 40
1
 40
1
 40
1
 10
19.570272
 20
47.600419
 30
0.0
 10
19.820746
 20
47.896613
 30
0.0
 10
20.024290
 20
48.236023
 30
0.0
 10
20.146331
 20
48.598630
 30
0.0
  0
SPLINE
  5
251
100
AcDbEntity
  8
0
 62
7
100
AcDbSpline
 70
8
 71
3
 72
8
 73
4
 74
0
 40
0
 40
0
 40
0
 40
0
 40
1
 40
1
 40
1
 40
1
 10
20.146331
 20
48.598630
 30
0.0
 10
20.270146
 20
48.966503
 30
0.0
 10
20.310073
 20
49.358251
 30
0.0
 10
20.350000
 20
49.750000
 30
0.0
  0
LWPOLYLINE
  5
252
100
AcDbEntity
  8
0
 62
7
100
AcDbPolyline
 90
1
 70
1
 10
20.350000
 20
49.750000
 30
0.0
  0
SPLINE
  5
253
100
AcDbEntity
  8
0
 62
7
100
AcDbSpline
 70
8
 71
3
 72
8
 73
4
 74
0
 40
0
 40
0
 40
0
 40
0
 40
1
 40
1
 40
1
 40
1
 10
78.100000
 20
0.000000
 30
0.0
 10
78.060073
 20
0.391749
 30
0.0
 10
78.020146
 20
0.783497
 30
0.0
 10
77.896331
 20
1.151371
 30
0.0
  0
SPLINE
  5
254
100
AcDbEntity
  8
0
 62
7
100
AcDbSpline
 70
8
 71
3
 72
8
 73
4
 74
0
 40
0
 40
0
 40
0
 40
0
 40
1
 40
1
 40
1
 40
1
 10
77.896331
 20
1.151371
 30
0.0
 10
77.774289
 20
1.513977
 30
0.0
 10
77.570745
 20
1.853387
 30
0.0
 10
77.320271
 20
2.149582
 30
0.0
  0
SPLINE
  5
255
100
AcDbEntity
  8
0
 62
7
100
AcDbSpline
 70
8
 71
3
 72
8
 73
4
 74
0
 40
0
 40
0
 40
0
 40
0
 40
1
 40
1
 40
1
 40
1
 10
77.320271
 20
2.149582
 30
0.0
 10
77.066160
 20
2.450078
 30
0.0
 10
76.763746
 20
2.706094
 30
0.0
 10
76.425281
 20
2.901995
 30
0.0
  0
SPLINE
  5
256
100
AcDbEntity
  8
0
 62
7
100
AcDbSpline
 70
8
 71
3
 72
8
 73
4
 74
0
 40
0
 40
0
 40
0
 40
0
 40
1
 40
1
 40
1
 40
1
 10
76.425281
 20
2.901995
 30
0.0
 10
76.086816
 20
3.097896
 30
0.0
 10
75.712299
 20
3.233683
 30
0.0
 10
75.326253
 20
3.301086
 30
0.0
  0
SPLINE
  5
257
100
AcDbEntity
  8
0
 62
7
100
AcDbSpline
 70
8
 71
3
 72
8
 73
4
 74
0
 40
0
 40
0
 40
0
 40
0
 40
1
 40
1
 40
1
 40
1
 10
75.326253
 20
3.301086
 30
0.0
 10
74.945733
 20
3.367525
 30
0.0
 10
74.554011
 20
3.367525
 30
0.0
 10
74.173747
 20
3.301086
 30
0.0
  0
SPLINE
  5
258
100
AcDbEntity
  8
0
 62
7
100
AcDbSpline
 70
8
 71
3
 72
8
 73
4
 74
0
 40
0
 40
0
 40
0
 40
0
 40
1
 40
1
 40
1
 40
1
 10
74.173747
 20
3.301086
 30
0.0
 10
73.787960
 20
3.233683
 30
0.0
 10
73.413967
 20
3.097896
 30
0.0
 10
73.074719
 20
2.901995
 30
0.0
  0
SPLINE
  5
259
100
AcDbEntity
  8
0
 62
7
100
AcDbSpline
 70
8
 71
3
 72
8
 73
4
 74
0
 40
0
 40
0
 40
0
 40
0
 40
1
 40
1
 40
1
 40
1
 10
73.074719
 20
2.901995
 30
0.0
 10
72.735471
 20
2.706094
 30
0.0
 10
72.430968
 20
2.450078
 30
0.0
 10
72.179728
 20
2.149581
 30
0.0
  0
SPLINE
  5
25a
100
AcDbEntity
  8
0
 62
7
100
AcDbSpline
 70
8
 71
3
 72
8
 73
4
 74
0
 40
0
 40
0
 40
0
 40
0
 40
1
 40
1
 40
1
 40
1
 10
72.179728
 20
2.149581
 30
0.0
 10
71.932085
 20
1.853387
 30
0.0
 10
71.736191
 20
1.513977
 30
0.0
 10
71.603668
 20
1.151370
 30
0.0
  0
SPLINE
  5
25b
100
AcDbEntity
  8
0
 62
7
100
AcDbSpline
 70
8
 71
3
 72
8
 73
4
 74
0
 40
0
 40
0
 40
0
 40
0
 40
1
 40
1
 40
1
 40
1
 10
71.603668
 20
1.151370
 30
0.0
 10
71.469221
 20
0.783497
 30
0.0
 10
71.400000
 20
0.391748
 30
0.0
 10
71.400000
 20
-0.000001
 30
0.0
  0
SPLINE
  5
25c
100
AcDbEntity
  8
0
 62
7
100
AcDbSpline
 70
8
 71
3
 72
8
 73
4
 74
0
 40
0
 40
0
 40
0
 40
0
 40
1
 40
1
 40
1
 40
1
 10
71.400000
 20
-0.000001
 30
0.0
 10
71.400000
 20
-0.391749
 30
0.0
 10
71.469221
 20
-0.783498
 30
0.0
 10
71.603668
 20
-1.151371
 30
0.0
  0
SPLINE
  5
25d
100
AcDbEntity
  8
0
 62
7
100
AcDbSpline
 70
8
 71
3
 72
8
 73
4
 74
0
 40
0
 40
0
 40
0
 40
0
 40
1
 40
1
 40
1
 40
1
 10
71.603668
 20
-1.151371
 30
0.0
 10
71.736191
 20
-1.513977
 30
0.0
 10
71.932085
 20
-1.853387
 30
0.0
 10
72.179728
 20
-2.149582
 30
0.0
  0
SPLINE
  5
25e
100
AcDbEntity
  8
0
 62
7
100
AcDbSpline
 70
8
 71
3
 72
8
 73
4
 74
0
 40
0
 40
0
 40
0
 40
0
 40
1
 40
1
 40
1
 40
1
 10
72.179728
 20
-2.149582
 30
0.0
 10
72.430968
 20
-2.450078
 30
0.0
 10
72.735471
 20
-2.706095
 30
0.0
 10
73.074719
 20
-2.901996
 30
0.0
  0
SPLINE
  5
25f
100
AcDbEntity
  8
0
 62
7
100
AcDbSpline
 70
8
 71
3
 72
8
 73
4
 74
0
 40
0
 40
0
 40
0
 40
0
 40
1
 40
1
 40
1
 40
1
 10
73.074719
 20
-2.901996
 30
0.0
 10
73.413967
 20
-3.097897
 30
0.0
 10
73.787960
 20
-3.233683
 30
0.0
 10
74.173747
 20
-3.301086
 30
0.0
  0
SPLINE
  5
260
100
AcDbEntity
  8
0
 62
7
100
AcDbSpline
 70
8
 71
3
 72
8
 73
4
 74
0
 40
0
 40
0
 40
0
 40
0
 40
1
 40
1
 40
1
 40
1
 10
74.173747
 20
-3.301086
 30
0.0
 10
74.554011
 20
-3.367525
 30
0.0
 10
74.945733
 20
-3.367525
 30
0.0
 10
75.326253
 20
-3.301087
 30
0.0
  0
SPLINE
  5
261
100
AcDbEntity
  8
0
 62
7
100
AcDbSpline
 70
8
 71
3
 72
8
 73
4
 74
0
 40
0
 40
0
 40
0
 40
0
 40
1
 40
1
 40
1
 40
1
 10
75.326253
 20
-3.301087
 30
0.0
 10
75.712299
 20
-3.233683
 30
0.0
 10
76.086816
 20
-3.097897
 30
0.0
 10
76.425281
 20
-2.901996
 30
0.0
  0
SPLINE
  5
262
100
AcDbEntity
  8
0
 62
7
100
AcDbSpline
 70
8
 71
3
 72
8
 73
4
 74
0
 40
0
 40
0
 40
0
 40
0
 40
1
 40
1
 40
1
 40
1
 10
76.425281
 20
-2.901996
 30
0.0
 10
76.763746
 20
-2.706095
 30
0.0
 10
77.066160
 20
-2.450078
 30
0.0
 10
77.320271
 20
-2.149582
 30
0.0
  0
SPLINE
  5
263
100
AcDbEntity
  8
0
 62
7
100
AcDbSpline
 70
8
 71
3
 72
8
 73
4
 74
0
 40
0
 40
0
 40
0
 40
0
 40
1
 40
1
 40
1
 40
1
 10
77.320271
 20
-2.149582
 30
0.0
 10
77.570745
 20
-1.853387
 30
0.0
 10
77.774289
 20
-1.513977
 30
0.0
 10
77.896331
 20
-1.151371
 30
0.0
  0
SPLINE
  5
264
100
AcDbEntity
  8
0
 62
7
100
AcDbSpline
 70
8
 71
3
 72
8
 73
4
 74
0
 40
0
 40
0
 40
0
 40
0
 40
1
 40
1
 40
1
 40
1
 10
77.896331
 20
-1.151371
 30
0.0
 10
78.020146
 20
-0.783498
 30
0.0
 10
78.060073
 20
-0.391749
 30
0.0
 10
78.100000
 20
0.000000
 30
0.0
  0
LWPOLYLINE
  5
265
100
AcDbEntity
  8
0
 62
7
100
AcDbPolyline
 90
1
 70
1
 10
78.100000
 20
0.000000
 30
0.0
  0
SPLINE
  5
266
100
AcDbEntity
  8
0
 62
7
100
AcDbSpline
 70
8
 71
3
 72
8
 73
4
 74
0
 40
0
 40
0
 40
0
 40
0
 40
1
 40
1
 40
1
 40
1
 10
-71.400000
 20
0.000000
 30
0.0
 10
-71.439927
 20
0.391749
 30
0.0
 10
-71.479854
 20
0.783497
 30
0.0
 10
-71.603668
 20
1.151371
 30
0.0
  0
SPLINE
  5
267
100
AcDbEntity
  8
0
 62
7
100
AcDbSpline
 70
8
 71
3
 72
8
 73
4
 74
0
 40
0
 40
0
 40
0
 40
0
 40
1
 40
1
 40
1
 40
1
 10
-71.603668
 20
1.151371
 30
0.0
 10
-71.725710
 20
1.513977
 30
0.0
 10
-71.929254
 20
1.853387
 30
0.0
 10
-72.179728
 20
2.149582
 30
0.0
  0
SPLINE
  5
268
100
AcDbEntity
  8
0
 62
7
100
AcDbSpline
 70
8
 71
3
 72
8
 73
4
 74
0
 40
0
 40
0
 40
0
 40
0
 40
1
 40
1
 40
1
 40
1
 10
-72.179728
 20
2.149582
 30
0.0
 10
-72.433840
 20
2.450078
 30
0.0
 10
-72.736254
 20
2.706094
 30
0.0
 10
-73.074719
 20
2.901995
 30
0.0
  0
SPLINE
  5
269
100
AcDbEntity
  8
0
 62
7
100
AcDbSpline
 70
8
 71
3
 72
8
 73
4
 74
0
 40
0
 40
0
 40
0
 40
0
 40
1
 40
1
 40
1
 40
1
 10
-73.074719
 20
2.901995
 30
0.0
 10
-73.413184
 20
3.097896
 30
0.0
 10
-73.787701
 20
3.233683
 30
0.0
 10
-74.173747
 20
3.301086
 30
0.0
  0
SPLINE
  5
26a
100
AcDbEntity
  8
0
 62
7
100
AcDbSpline
 70
8
 71
3
 72
8
 73
4
 74
0
 40
0
 40
0
 40
0
 40
0
 40
1
 40
1
 40
1
 40
1
 10
-74.173747
 20
3.301086
 30
0.0
 10
-74.554267
 20
3.367525
 30
0.0
 10
-74.945989
 20
3.367525
 30
0.0
 10
-75.326253
 20
3.301086
 30
0.0
  0
SPLINE
  5
26b
100
AcDbEntity
  8
0
 62
7
100
AcDbSpline
 70
8
 71
3
 72
8
 73
4
 74
0
 40
0
 40
0
 40
0
 40
0
 40
1
 40
1
 40
1
 40
1
 10
-75.326253
 20
3.301086
 30
0.0
 10
-75.712040
 20
3.233683
 30
0.0
 10
-76.086033
 20
3.097896
 30
0.0
 10
-76.425281
 20
2.901995
 30
0.0
  0
SPLINE
  5
26c
100
AcDbEntity
  8
0
 62
7
100
AcDbSpline
 70
8
 71
3
 72
8
 73
4
 74
0
 40
0
 40
0
 40
0
 40
0
 40
1
 40
1
 40
1
 40
1
 10
-76.425281
 20
2.901995
 30
0.0
 10
-76.764529
 20
2.706094
 30
0.0
 10
-77.069032
 20
2.450078
 30
0.0
 10
-77.320272
 20
2.149581
 30
0.0
  0
SPLINE
  5
26d
100
AcDbEntity
  8
0
 62
7
100
AcDbSpline
 70
8
 71
3
 72
8
 73
4
 74
0
 40
0
 40
0
 40
0
 40
0
 40
1
 40
1
 40
1
 40
1
 10
-77.320272
 20
2.149581
 30
0.0
 10
-77.567915
 20
1.853387
 30
0.0
 10
-77.763809
 20
1.513977
 30
0.0
 10
-77.896332
 20
1.151370
 30
0.0
  0
SPLINE
  5
26e
100
AcDbEntity
  8
0
 62
7
100
AcDbSpline
 70
8
 71
3
 72
8
 73
4
 74
0
 40
0
 40
0
 40
0
 40
0
 40
1
 40
1
 40
1
 40
1
 10
-77.896332
 20
1.151370
 30
0.0
 10
-78.030779
 20
0.783497
 30
0.0
 10
-78.100000
 20
0.391748
 30
0.0
 10
-78.100000
 20
-0.000001
 30
0.0
  0
SPLINE
  5
26f
100
AcDbEntity
  8
0
 62
7
100
AcDbSpline
 70
8
 71
3
 72
8
 73
4
 74
0
 40
0
 40
0
 40
0
 40
0
 40
1
 40
1
 40
1
 40
1
 10
-78.100000
 20
-0.000001
 30
0.0
 10
-78.100000
 20
-0.391749
 30
0.0
 10
-78.030779
 20
-0.783498
 30
0.0
 10
-77.896332
 20
-1.151371
 30
0.0
  0
SPLINE
  5
270
100
AcDbEntity
  8
0
 62
7
100
AcDbSpline
 70
8
 71
3
 72
8
 73
4
 74
0
 40
0
 40
0
 40
0
 40
0
 40
1
 40
1
 40
1
 40
1
 10
-77.896332
 20
-1.151371
 30
0.0
 10
-77.763809
 20
-1.513977
 30
0.0
 10
-77.567915
 20
-1.853387
 30
0.0
 10
-77.320272
 20
-2.149582
 30
0.0
  0
SPLINE
  5
271
100
AcDbEntity
  8
0
 62
7
100
AcDbSpline
 70
8
 71
3
 72
8
 73
4
 74
0
 40
0
 40
0
 40
0
 40
0
 40
1
 40
1
 40
1
 40
1
 10
-77.320272
 20
-2.149582
 30
0.0
 10
-77.069032
 20
-2.450078
 30
0.0
 10
-76.764529
 20
-2.706095
 30
0.0
 10
-76.425281
 20
-2.901996
 30
0.0
  0
SPLINE
  5
272
100
AcDbEntity
  8
0
 62
7
100
AcDbSpline
 70
8
 71
3
 72
8
 73
4
 74
0
 40
0
 40
0
 40
0
 40
0
 40
1
 40
1
 40
1
 40
1
 10
-76.425281
 20
-2.901996
 30
0.0
 10
-76.086033
 20
-3.097897
 30
0.0
 10
-75.712040
 20
-3.233683
 30
0.0
 10
-75.326253
 20
-3.301086
 30
0.0
  0
SPLINE
  5
273
100
AcDbEntity
  8
0
 62
7
100
AcDbSpline
 70
8
 71
3
 72
8
 73
4
 74
0
 40
0
 40
0
 40
0
 40
0
 40
1
 40
1
 40
1
 40
1
 10
-75.326253
 20
-3.301086
 30
0.0
 10
-74.945989
 20
-3.367525
 30
0.0
 10
-74.554267
 20
-3.367525
 30
0.0
 10
-74.173747
 20
-3.301087
 30
0.0
  0
SPLINE
  5
274
100
AcDbEntity
  8
0
 62
7
100
AcDbSpline
 70
8
 71
3
 72
8
 73
4
 74
0
 40
0
 40
0
 40
0
 40
0
 40
1
 40
1
 40
1
 40
1
 10
-74.173747
 20
-3.301087
 30
0.0
 10
-73.787701
 20
-3.233683
 30
0.0
 10
-73.413184
 20
-3.097897
 30
0.0
 10
-73.074719
 20
-2.901996
 30
0.0
  0
SPLINE
  5
275
100
AcDbEntity
  8
0
 62
7
100
AcDbSpline
 70
8
 71
3
 72
8
 73
4
 74
0
 40
0
 40
0
 40
0
 40
0
 40
1
 40
1
 40
1
 40
1
 10
-73.074719
 20
-2.901996
 30
0.0
 10
-72.736254
 20
-2.706095
 30
0.0
 10
-72.433840
 20
-2.450078
 30
0.0
 10
-72.179728
 20
-2.149582
 30
0.0
  0
SPLINE
  5
276
100
AcDbEntity
  8
0
 62
7
100
AcDbSpline
 70
8
 71
3
 72
8
 73
4
 74
0
 40
0
 40
0
 40
0
 40
0
 40
1
 40
1
 40
1
 40
1
 10
-72.179728
 20
-2.149582
 30
0.0
 10
-71.929254
 20
-1.853387
 30
0.0
 10
-71.725710
 20
-1.513977
 30
0.0
 10
-71.603668
 20
-1.151371
 30
0.0
  0
SPLINE
  5
277
100
AcDbEntity
  8
0
 62
7
100
AcDbSpline
 70
8
 71
3
 72
8
 73
4
 74
0
 40
0
 40
0
 40
0
 40
0
 40
1
 40
1
 40
1
 40
1
 10
-71.603668
 20
-1.151371
 30
0.0
 10
-71.479854
 20
-0.783498
 30
0.0
 10
-71.439927
 20
-0.391749
 30
0.0
 10
-71.400000
 20
0.000000
 30
0.0
  0
LWPOLYLINE
  5
278
100
AcDbEntity
  8
0
 62
7
100
AcDbPolyline
 90
1
 70
1
 10
-71.400000
 20
0.000000
 30
0.0
  0
SPLINE
  5
279
100
AcDbEntity
  8
0
 62
7
100
AcDbSpline
 70
8
 71
3
 72
8
 73
4
 74
0
 40
0
 40
0
 40
0
 40
0
 40
1
 40
1
 40
1
 40
1
 10
-13.650000
 20
49.750000
 30
0.0
 10
-13.689927
 20
50.141749
 30
0.0
 10
-13.729854
 20
50.533498
 30
0.0
 10
-13.853669
 20
50.901371
 30
0.0
  0
SPLINE
  5
27a
100
AcDbEntity
  8
0
 62
7
100
AcDbSpline
 70
8
 71
3
 72
8
 73
4
 74
0
 40
0
 40
0
 40
0
 40
0
 40
1
 40
1
 40
1
 40
1
 10
-13.853669
 20
50.901371
 30
0.0
 10
-13.975711
 20
51.263978
 30
0.0
 10
-14.179255
 20
51.603387
 30
0.0
 10
-14.429728
 20
51.899582
 30
0.0
  0
SPLINE
  5
27b
100
AcDbEntity
  8
0
 62
7
100
AcDbSpline
 70
8
 71
3
 72
8
 73
4
 74
0
 40
0
 40
0
 40
0
 40
0
 40
1
 40
1
 40
1
 40
1
 10
-14.429728
 20
51.899582
 30
0.0
 10
-14.683840
 20
52.200078
 30
0.0
 10
-14.986254
 20
52.456095
 30
0.0
 10
-15.324719
 20
52.651996
 30
0.0
  0
SPLINE
  5
27c
100
AcDbEntity
  8
0
 62
7
100
AcDbSpline
 70
8
 71
3
 72
8
 73
4
 74
0
 40
0
 40
0
 40
0
 40
0
 40
1
 40
1
 40
1
 40
1
 10
-15.324719
 20
52.651996
 30
0.0
 10
-15.663184
 20
52.847897
 30
0.0
 10
-16.037700
 20
52.983683
 30
0.0
 10
-16.423747
 20
53.051086
 30
0.0
  0
SPLINE
  5
27d
100
AcDbEntity
  8
0
 62
7
100
AcDbSpline
 70
8
 71
3
 72
8
 73
4
 74
0
 40
0
 40
0
 40
0
 40
0
 40
1
 40
1
 40
1
 40
1
 10
-16.423747
 20
53.051086
 30
0.0
 10
-16.804267
 20
53.117525
 30
0.0
 10
-17.195989
 20
53.117525
 30
0.0
 10
-17.576253
 20
53.051086
 30
0.0
  0
SPLINE
  5
27e
100
AcDbEntity
  8
0
 62
7
100
AcDbSpline
 70
8
 71
3
 72
8
 73
4
 74
0
 40
0
 40
0
 40
0
 40
0
 40
1
 40
1
 40
1
 40
1
 10
-17.576253
 20
53.051086
 30
0.0
 10
-17.962040
 20
52.983683
 30
0.0
 10
-18.336033
 20
52.847897
 30
0.0
 10
-18.675281
 20
52.651996
 30
0.0
  0
SPLINE
  5
27f
100
AcDbEntity
  8
0
 62
7
100
AcDbSpline
 70
8
 71
3
 72
8
 73
4
 74
0
 40
0
 40
0
 40
0
 40
0
 40
1
 40
1
 40
1
 40
1
 10
-18.675281
 20
52.651996
 30
0.0
 10
-19.014529
 20
52.456095
 30
0.0
 10
-19.319032
 20
52.200078
 30
0.0
 10
-19.570272
 20
51.899582
 30
0.0
  0
SPLINE
  5
280
100
AcDbEntity
  8
0
 62
7
100
AcDbSpline
 70
8
 71
3
 72
8
 73
4
 74
0
 40
0
 40
0
 40
0
 40
0
 40
1
 40
1
 40
1
 40
1
 10
-19.570272
 20
51.899582
 30
0.0
 10
-19.817915
 20
51.603387
 30
0.0
 10
-20.013809
 20
51.263978
 30
0.0
 10
-20.146332
 20
50.901371
 30
0.0
  0
SPLINE
  5
281
100
AcDbEntity
  8
0
 62
7
100
AcDbSpline
 70
8
 71
3
 72
8
 73
4
 74
0
 40
0
 40
0
 40
0
 40
0
 40
1
 40
1
 40
1
 40
1
 10
-20.146332
 20
50.901371
 30
0.0
 10
-20.280779
 20
50.533498
 30
0.0
 10
-20.350000
 20
50.141749
 30
0.0
 10
-20.350000
 20
49.750000
 30
0.0
  0
SPLINE
  5
282
100
AcDbEntity
  8
0
 62
7
100
AcDbSpline
 70
8
 71
3
 72
8
 73
4
 74
0
 40
0
 40
0
 40
0
 40
0
 40
1
 40
1
 40
1
 40
1
 10
-20.350000
 20
49.750000
 30
0.0
 10
-20.350000
 20
49.358251
 30
0.0
 10
-20.280779
 20
48.966503
 30
0.0
 10
-20.146332
 20
48.598630
 30
0.0
  0
SPLINE
  5
283
100
AcDbEntity
  8
0
 62
7
100
AcDbSpline
 70
8
 71
3
 72
8
 73
4
 74
0
 40
0
 40
0
 40
0
 40
0
 40
1
 40
1
 40
1
 40
1
 10
-20.146332
 20
48.598630
 30
0.0
 10
-20.013809
 20
48.236023
 30
0.0
 10
-19.817915
 20
47.896613
 30
0.0
 10
-19.570272
 20
47.600419
 30
0.0
  0
SPLINE
  5
284
100
AcDbEntity
  8
0
 62
7
100
AcDbSpline
 70
8
 71
3
 72
8
 73
4
 74
0
 40
0
 40
0
 40
0
 40
0
 40
1
 40
1
 40
1
 40
1
 10
-19.570272
 20
47.600419
 30
0.0
 10
-19.319032
 20
47.299922
 30
0.0
 10
-19.014529
 20
47.043905
 30
0.0
 10
-18.675281
 20
46.848004
 30
0.0
  0
SPLINE
  5
285
100
AcDbEntity
  8
0
 62
7
100
AcDbSpline
 70
8
 71
3
 72
8
 73
4
 74
0
 40
0
 40
0
 40
0
 40
0
 40
1
 40
1
 40
1
 40
1
 10
-18.675281
 20
46.848004
 30
0.0
 10
-18.336033
 20
46.652103
 30
0.0
 10
-17.962040
 20
46.516317
 30
0.0
 10
-17.576253
 20
46.448914
 30
0.0
  0
SPLINE
  5
286
100
AcDbEntity
  8
0
 62
7
100
AcDbSpline
 70
8
 71
3
 72
8
 73
4
 74
0
 40
0
 40
0
 40
0
 40
0
 40
1
 40
1
 40
1
 40
1
 10
-17.576253
 20
46.448914
 30
0.0
 10
-17.195989
 20
46.382475
 30
0.0
 10
-16.804267
 20
46.382475
 30
0.0
 10
-16.423747
 20
46.448914
 30
0.0
  0
SPLINE
  5
287
100
AcDbEntity
  8
0
 62
7
100
AcDbSpline
 70
8
 71
3
 72
8
 73
4
 74
0
 40
0
 40
0
 40
0
 40
0
 40
1
 40
1
 40
1
 40
1
 10
-16.423747
 20
46.448914
 30
0.0
 10
-16.037700
 20
46.516317
 30
0.0
 10
-15.663184
 20
46.652103
 30
0.0
 10
-15.324719
 20
46.848004
 30
0.0
  0
SPLINE
  5
288
100
AcDbEntity
  8
0
 62
7
100
AcDbSpline
 70
8
 71
3
 72
8
 73
4
 74
0
 40
0
 40
0
 40
0
 40
0
 40
1
 40
1
 40
1
 40
1
 10
-15.324719
 20
46.848004
 30
0.0
 10
-14.986254
 20
47.043905
 30
0.0
 10
-14.683839
 20
47.299922
 30
0.0
 10
-14.429728
 20
47.600419
 30
0.0
  0
SPLINE
  5
289
100
AcDbEntity
  8
0
 62
7
100
AcDbSpline
 70
8
 71
3
 72
8
 73
4
 74
0
 40
0
 40
0
 40
0
 40
0
 40
1
 40
1
 40
1
 40
1
 10
-14.429728
 20
47.600419
 30
0.0
 10
-14.179254
 20
47.896613
 30
0.0
 10
-13.975710
 20
48.236023
 30
0.0
 10
-13.853669
 20
48.598630
 30
0.0
  0
SPLINE
  5
28a
100
AcDbEntity
  8
0
 62
7
100
AcDbSpline
 70
8
 71
3
 72
8
 73
4
 74
0
 40
0
 40
0
 40
0
 40
0
 40
1
 40
1
 40
1
 40
1
 10
-13.853669
 20
48.598630
 30
0.0
 10
-13.729854
 20
48.966503
 30
0.0
 10
-13.689927
 20
49.358251
 30
0.0
 10
-13.650000
 20
49.750000
 30
0.0
  0
LWPOLYLINE
  5
28b
100
AcDbEntity
  8
0
 62
7
100
AcDbPolyline
 90
1
 70
1
 10
-13.650000
 20
49.750000
 30
0.0
  0
SPLINE
  5
28c
100
AcDbEntity
  8
0
 62
7
100
AcDbSpline
 70
8
 71
3
 72
8
 73
4
 74
0
 40
0
 40
0
 40
0
 40
0
 40
1
 40
1
 40
1
 40
1
 10
77.813911
 20
-31.056556
 30
0.0
 10
77.773984
 20
-30.664807
 30
0.0
 10
77.734057
 20
-30.273058
 30
0.0
 10
77.610243
 20
-29.905185
 30
0.0
  0
SPLINE
  5
28d
100
AcDbEntity
  8
0
 62
7
100
AcDbSpline
 70
8
 71
3
 72
8
 73
4
 74
0
 40
0
 40
0
 40
0
 40
0
 40
1
 40
1
 40
1
 40
1
 10
77.610243
 20
-29.905185
 30
0.0
 10
77.488201
 20
-29.542578
 30
0.0
 10
77.284657
 20
-29.203168
 30
0.0
 10
77.034183
 20
-28.906974
 30
0.0
  0
SPLINE
  5
28e
100
AcDbEntity
  8
0
 62
7
100
AcDbSpline
 70
8
 71
3
 72
8
 73
4
 74
0
 40
0
 40
0
 40
0
 40
0
 40
1
 40
1
 40
1
 40
1
 10
77.034183
 20
-28.906974
 30
0.0
 10
76.780071
 20
-28.606478
 30
0.0
 10
76.477657
 20
-28.350462
 30
0.0
 10
76.139192
 20
-28.154560
 30
0.0
  0
SPLINE
  5
28f
100
AcDbEntity
  8
0
 62
7
100
AcDbSpline
 70
8
 71
3
 72
8
 73
4
 74
0
 40
0
 40
0
 40
0
 40
0
 40
1
 40
1
 40
1
 40
1
 10
76.139192
 20
-28.154560
 30
0.0
 10
75.800727
 20
-27.958659
 30
0.0
 10
75.426211
 20
-27.822873
 30
0.0
 10
75.040164
 20
-27.755470
 30
0.0
  0
SPLINE
  5
290
100
AcDbEntity
  8
0
 62
7
100
AcDbSpline
 70
8
 71
3
 72
8
 73
4
 74
0
 40
0
 40
0
 40
0
 40
0
 40
1
 40
1
 40
1
 40
1
 10
75.040164
 20
-27.755470
 30
0.0
 10
74.659645
 20
-27.689031
 30
0.0
 10
74.267922
 20
-27.689031
 30
0.0
 10
73.887658
 20
-27.755470
 30
0.0
  0
SPLINE
  5
291
100
AcDbEntity
  8
0
 62
7
100
AcDbSpline
 70
8
 71
3
 72
8
 73
4
 74
0
 40
0
 40
0
 40
0
 40
0
 40
1
 40
1
 40
1
 40
1
 10
73.887658
 20
-27.755470
 30
0.0
 10
73.501872
 20
-27.822873
 30
0.0
 10
73.127879
 20
-27.958659
 30
0.0
 10
72.788631
 20
-28.154560
 30
0.0
  0
SPLINE
  5
292
100
AcDbEntity
  8
0
 62
7
100
AcDbSpline
 70
8
 71
3
 72
8
 73
4
 74
0
 40
0
 40
0
 40
0
 40
0
 40
1
 40
1
 40
1
 40
1
 10
72.788631
 20
-28.154560
 30
0.0
 10
72.449383
 20
-28.350461
 30
0.0
 10
72.144880
 20
-28.606478
 30
0.0
 10
71.893640
 20
-28.906974
 30
0.0
  0
SPLINE
  5
293
100
AcDbEntity
  8
0
 62
7
100
AcDbSpline
 70
8
 71
3
 72
8
 73
4
 74
0
 40
0
 40
0
 40
0
 40
0
 40
1
 40
1
 40
1
 40
1
 10
71.893640
 20
-28.906974
 30
0.0
 10
71.645996
 20
-29.203169
 30
0.0
 10
71.450102
 20
-29.542578
 30
0.0
 10
71.317580
 20
-29.905185
 30
0.0
  0
SPLINE
  5
294
100
AcDbEntity
  8
0
 62
7
100
AcDbSpline
 70
8
 71
3
 72
8
 73
4
 74
0
 40
0
 40
0
 40
0
 40
0
 40
1
 40
1
 40
1
 40
1
 10
71.317580
 20
-29.905185
 30
0.0
 10
71.183133
 20
-30.273058
 30
0.0
 10
71.113911
 20
-30.664807
 30
0.0
 10
71.113911
 20
-31.056556
 30
0.0
  0
SPLINE
  5
295
100
AcDbEntity
  8
0
 62
7
100
AcDbSpline
 70
8
 71
3
 72
8
 73
4
 74
0
 40
0
 40
0
 40
0
 40
0
 40
1
 40
1
 40
1
 40
1
 10
71.113911
 20
-31.056556
 30
0.0
 10
71.113911
 20
-31.448305
 30
0.0
 10
71.183133
 20
-31.840053
 30
0.0
 10
71.317580
 20
-32.207926
 30
0.0
  0
SPLINE
  5
296
100
AcDbEntity
  8
0
 62
7
100
AcDbSpline
 70
8
 71
3
 72
8
 73
4
 74
0
 40
0
 40
0
 40
0
 40
0
 40
1
 40
1
 40
1
 40
1
 10
71.317580
 20
-32.207926
 30
0.0
 10
71.450102
 20
-32.570533
 30
0.0
 10
71.645996
 20
-32.909943
 30
0.0
 10
71.893640
 20
-33.206137
 30
0.0
  0
SPLINE
  5
297
100
AcDbEntity
  8
0
 62
7
100
AcDbSpline
 70
8
 71
3
 72
8
 73
4
 74
0
 40
0
 40
0
 40
0
 40
0
 40
1
 40
1
 40
1
 40
1
 10
71.893640
 20
-33.206137
 30
0.0
 10
72.144880
 20
-33.506634
 30
0.0
 10
72.449383
 20
-33.762650
 30
0.0
 10
72.788631
 20
-33.958551
 30
0.0
  0
SPLINE
  5
298
100
AcDbEntity
  8
0
 62
7
100
AcDbSpline
 70
8
 71
3
 72
8
 73
4
 74
0
 40
0
 40
0
 40
0
 40
0
 40
1
 40
1
 40
1
 40
1
 10
72.788631
 20
-33.958551
 30
0.0
 10
73.127879
 20
-34.154452
 30
0.0
 10
73.501872
 20
-34.290238
 30
0.0
 10
73.887658
 20
-34.357642
 30
0.0
  0
SPLINE
  5
299
100
AcDbEntity
  8
0
 62
7
100
AcDbSpline
 70
8
 71
3
 72
8
 73
4
 74
0
 40
0
 40
0
 40
0
 40
0
 40
1
 40
1
 40
1
 40
1
 10
73.887658
 20
-34.357642
 30
0.0
 10
74.267922
 20
-34.424080
 30
0.0
 10
74.659645
 20
-34.424080
 30
0.0
 10
75.040164
 20
-34.357642
 30
0.0
  0
SPLINE
  5
29a
100
AcDbEntity
  8
0
 62
7
100
AcDbSpline
 70
8
 71
3
 72
8
 73
4
 74
0
 40
0
 40
0
 40
0
 40
0
 40
1
 40
1
 40
1
 40
1
 10
75.040164
 20
-34.357642
 30
0.0
 10
75.426211
 20
-34.290238
 30
0.0
 10
75.800727
 20
-34.154452
 30
0.0
 10
76.139192
 20
-33.958551
 30
0.0
  0
SPLINE
  5
29b
100
AcDbEntity
  8
0
 62
7
100
AcDbSpline
 70
8
 71
3
 72
8
 73
4
 74
0
 40
0
 40
0
 40
0
 40
0
 40
1
 40
1
 40
1
 40
1
 10
76.139192
 20
-33.958551
 30
0.0
 10
76.477657
 20
-33.762650
 30
0.0
 10
76.780071
 20
-33.506634
 30
0.0
 10
77.034183
 20
-33.206137
 30
0.0
  0
SPLINE
  5
29c
100
AcDbEntity
  8
0
 62
7
100
AcDbSpline
 70
8
 71
3
 72
8
 73
4
 74
0
 40
0
 40
0
 40
0
 40
0
 40
1
 40
1
 40
1
 40
1
 10
77.034183
 20
-33.206137
 30
0.0
 10
77.284657
 20
-32.909943
 30
0.0
 10
77.488201
 20
-32.570533
 30
0.0
 10
77.610243
 20
-32.207926
 30
0.0
  0
SPLINE
  5
29d
100
AcDbEntity
  8
0
 62
7
100
AcDbSpline
 70
8
 71
3
 72
8
 73
4
 74
0
 40
0
 40
0
 40
0
 40
0
 40
1
 40
1
 40
1
 40
1
 10
77.610243
 20
-32.207926
 30
0.0
 10
77.734057
 20
-31.840053
 30
0.0
 10
77.773984
 20
-31.448304
 30
0.0
 10
77.813911
 20
-31.056556
 30
0.0
  0
LWPOLYLINE
  5
29e
100
AcDbEntity
  8
0
 62
7
100
AcDbPolyline
 90
1
 70
1
 10
77.813911
 20
-31.056556
 30
0.0
  0
SPLINE
  5
29f
100
AcDbEntity
  8
0
 62
7
100
AcDbSpline
 70
8
 71
3
 72
8
 73
4
 74
0
 40
0
 40
0
 40
0
 40
0
 40
1
 40
1
 40
1
 40
1
 10
20.350000
 20
-49.750000
 30
0.0
 10
20.310073
 20
-49.358251
 30
0.0
 10
20.270146
 20
-48.966502
 30
0.0
 10
20.146331
 20
-48.598629
 30
0.0
  0
SPLINE
  5
2a0
100
AcDbEntity
  8
0
 62
7
100
AcDbSpline
 70
8
 71
3
 72
8
 73
4
 74
0
 40
0
 40
0
 40
0
 40
0
 40
1
 40
1
 40
1
 40
1
 10
20.146331
 20
-48.598629
 30
0.0
 10
20.024289
 20
-48.236022
 30
0.0
 10
19.820745
 20
-47.896613
 30
0.0
 10
19.570272
 20
-47.600418
 30
0.0
  0
SPLINE
  5
2a1
100
AcDbEntity
  8
0
 62
7
100
AcDbSpline
 70
8
 71
3
 72
8
 73
4
 74
0
 40
0
 40
0
 40
0
 40
0
 40
1
 40
1
 40
1
 40
1
 10
19.570272
 20
-47.600418
 30
0.0
 10
19.316160
 20
-47.299922
 30
0.0
 10
19.013746
 20
-47.043905
 30
0.0
 10
18.675281
 20
-46.848004
 30
0.0
  0
SPLINE
  5
2a2
100
AcDbEntity
  8
0
 62
7
100
AcDbSpline
 70
8
 71
3
 72
8
 73
4
 74
0
 40
0
 40
0
 40
0
 40
0
 40
1
 40
1
 40
1
 40
1
 10
18.675281
 20
-46.848004
 30
0.0
 10
18.336816
 20
-46.652103
 30
0.0
 10
17.962300
 20
-46.516317
 30
0.0
 10
17.576253
 20
-46.448914
 30
0.0
  0
SPLINE
  5
2a3
100
AcDbEntity
  8
0
 62
7
100
AcDbSpline
 70
8
 71
3
 72
8
 73
4
 74
0
 40
0
 40
0
 40
0
 40
0
 40
1
 40
1
 40
1
 40
1
 10
17.576253
 20
-46.448914
 30
0.0
 10
17.195733
 20
-46.382475
 30
0.0
 10
16.804011
 20
-46.382475
 30
0.0
 10
16.423747
 20
-46.448914
 30
0.0
  0
SPLINE
  5
2a4
100
AcDbEntity
  8
0
 62
7
100
AcDbSpline
 70
8
 71
3
 72
8
 73
4
 74
0
 40
0
 40
0
 40
0
 40
0
 40
1
 40
1
 40
1
 40
1
 10
16.423747
 20
-46.448914
 30
0.0
 10
16.037960
 20
-46.516317
 30
0.0
 10
15.663967
 20
-46.652103
 30
0.0
 10
15.324719
 20
-46.848004
 30
0.0
  0
SPLINE
  5
2a5
100
AcDbEntity
  8
0
 62
7
100
AcDbSpline
 70
8
 71
3
 72
8
 73
4
 74
0
 40
0
 40
0
 40
0
 40
0
 40
1
 40
1
 40
1
 40
1
 10
15.324719
 20
-46.848004
 30
0.0
 10
14.985471
 20
-47.043905
 30
0.0
 10
14.680968
 20
-47.299922
 30
0.0
 10
14.429728
 20
-47.600418
 30
0.0
  0
SPLINE
  5
2a6
100
AcDbEntity
  8
0
 62
7
100
AcDbSpline
 70
8
 71
3
 72
8
 73
4
 74
0
 40
0
 40
0
 40
0
 40
0
 40
1
 40
1
 40
1
 40
1
 10
14.429728
 20
-47.600418
 30
0.0
 10
14.182085
 20
-47.896613
 30
0.0
 10
13.986191
 20
-48.236022
 30
0.0
 10
13.853668
 20
-48.598629
 30
0.0
  0
SPLINE
  5
2a7
100
AcDbEntity
  8
0
 62
7
100
AcDbSpline
 70
8
 71
3
 72
8
 73
4
 74
0
 40
0
 40
0
 40
0
 40
0
 40
1
 40
1
 40
1
 40
1
 10
13.853668
 20
-48.598629
 30
0.0
 10
13.719221
 20
-48.966502
 30
0.0
 10
13.650000
 20
-49.358251
 30
0.0
 10
13.650000
 20
-49.750000
 30
0.0
  0
SPLINE
  5
2a8
100
AcDbEntity
  8
0
 62
7
100
AcDbSpline
 70
8
 71
3
 72
8
 73
4
 74
0
 40
0
 40
0
 40
0
 40
0
 40
1
 40
1
 40
1
 40
1
 10
13.650000
 20
-49.750000
 30
0.0
 10
13.650000
 20
-50.141749
 30
0.0
 10
13.719221
 20
-50.533497
 30
0.0
 10
13.853668
 20
-50.901370
 30
0.0
  0
SPLINE
  5
2a9
100
AcDbEntity
  8
0
 62
7
100
AcDbSpline
 70
8
 71
3
 72
8
 73
4
 74
0
 40
0
 40
0
 40
0
 40
0
 40
1
 40
1
 40
1
 40
1
 10
13.853668
 20
-50.901370
 30
0.0
 10
13.986191
 20
-51.263977
 30
0.0
 10
14.182085
 20
-51.603387
 30
0.0
 10
14.429728
 20
-51.899581
 30
0.0
  0
SPLINE
  5
2aa
100
AcDbEntity
  8
0
 62
7
100
AcDbSpline
 70
8
 71
3
 72
8
 73
4
 74
0
 40
0
 40
0
 40
0
 40
0
 40
1
 40
1
 40
1
 40
1
 10
14.429728
 20
-51.899581
 30
0.0
 10
14.680968
 20
-52.200078
 30
0.0
 10
14.985471
 20
-52.456094
 30
0.0
 10
15.324719
 20
-52.651995
 30
0.0
  0
SPLINE
  5
2ab
100
AcDbEntity
  8
0
 62
7
100
AcDbSpline
 70
8
 71
3
 72
8
 73
4
 74
0
 40
0
 40
0
 40
0
 40
0
 40
1
 40
1
 40
1
 40
1
 10
15.324719
 20
-52.651995
 30
0.0
 10
15.663967
 20
-52.847896
 30
0.0
 10
16.037960
 20
-52.983683
 30
0.0
 10
16.423747
 20
-53.051086
 30
0.0
  0
SPLINE
  5
2ac
100
AcDbEntity
  8
0
 62
7
100
AcDbSpline
 70
8
 71
3
 72
8
 73
4
 74
0
 40
0
 40
0
 40
0
 40
0
 40
1
 40
1
 40
1
 40
1
 10
16.423747
 20
-53.051086
 30
0.0
 10
16.804011
 20
-53.117525
 30
0.0
 10
17.195733
 20
-53.117525
 30
0.0
 10
17.576253
 20
-53.051086
 30
0.0
  0
SPLINE
  5
2ad
100
AcDbEntity
  8
0
 62
7
100
AcDbSpline
 70
8
 71
3
 72
8
 73
4
 74
0
 40
0
 40
0
 40
0
 40
0
 40
1
 40
1
 40
1
 40
1
 10
17.576253
 20
-53.051086
 30
0.0
 10
17.962300
 20
-52.983683
 30
0.0
 10
18.336816
 20
-52.847896
 30
0.0
 10
18.675281
 20
-52.651995
 30
0.0
  0
SPLINE
  5
2ae
100
AcDbEntity
  8
0
 62
7
100
AcDbSpline
 70
8
 71
3
 72
8
 73
4
 74
0
 40
0
 40
0
 40
0
 40
0
 40
1
 40
1
 40
1
 40
1
 10
18.675281
 20
-52.651995
 30
0.0
 10
19.013746
 20
-52.456094
 30
0.0
 10
19.316161
 20
-52.200078
 30
0.0
 10
19.570272
 20
-51.899581
 30
0.0
  0
SPLINE
  5
2af
100
AcDbEntity
  8
0
 62
7
100
AcDbSpline
 70
8
 71
3
 72
8
 73
4
 74
0
 40
0
 40
0
 40
0
 40
0
 40
1
 40
1
 40
1
 40
1
 10
19.570272
 20
-51.899581
 30
0.0
 10
19.820746
 20
-51.603387
 30
0.0
 10
20.024290
 20
-51.263977
 30
0.0
 10
20.146331
 20
-50.901370
 30
0.0
  0
SPLINE
  5
2b0
100
AcDbEntity
  8
0
 62
7
100
AcDbSpline
 70
8
 71
3
 72
8
 73
4
 74
0
 40
0
 40
0
 40
0
 40
0
 40
1
 40
1
 40
1
 40
1
 10
20.146331
 20
-50.901370
 30
0.0
 10
20.270146
 20
-50.533497
 30
0.0
 10
20.310073
 20
-50.141749
 30
0.0
 10
20.350000
 20
-49.750000
 30
0.0
  0
LWPOLYLINE
  5
2b1
100
AcDbEntity
  8
0
 62
7
100
AcDbPolyline
 90
1
 70
1
 10
20.350000
 20
-49.750000
 30
0.0
  0
SPLINE
  5
2b2
100
AcDbEntity
  8
0
 62
7
100
AcDbSpline
 70
8
 71
3
 72
8
 73
4
 74
0
 40
0
 40
0
 40
0
 40
0
 40
1
 40
1
 40
1
 40
1
 10
-47.650000
 20
-49.750000
 30
0.0
 10
-47.689927
 20
-49.358251
 30
0.0
 10
-47.729854
 20
-48.966502
 30
0.0
 10
-47.853669
 20
-48.598629
 30
0.0
  0
SPLINE
  5
2b3
100
AcDbEntity
  8
0
 62
7
100
AcDbSpline
 70
8
 71
3
 72
8
 73
4
 74
0
 40
0
 40
0
 40
0
 40
0
 40
1
 40
1
 40
1
 40
1
 10
-47.853669
 20
-48.598629
 30
0.0
 10
-47.975711
 20
-48.236022
 30
0.0
 10
-48.179255
 20
-47.896613
 30
0.0
 10
-48.429728
 20
-47.600418
 30
0.0
  0
SPLINE
  5
2b4
100
AcDbEntity
  8
0
 62
7
100
AcDbSpline
 70
8
 71
3
 72
8
 73
4
 74
0
 40
0
 40
0
 40
0
 40
0
 40
1
 40
1
 40
1
 40
1
 10
-48.429728
 20
-47.600418
 30
0.0
 10
-48.683840
 20
-47.299922
 30
0.0
 10
-48.986254
 20
-47.043905
 30
0.0
 10
-49.324719
 20
-46.848004
 30
0.0
  0
SPLINE
  5
2b5
100
AcDbEntity
  8
0
 62
7
100
AcDbSpline
 70
8
 71
3
 72
8
 73
4
 74
0
 40
0
 40
0
 40
0
 40
0
 40
1
 40
1
 40
1
 40
1
 10
-49.324719
 20
-46.848004
 30
0.0
 10
-49.663184
 20
-46.652103
 30
0.0
 10
-50.037700
 20
-46.516317
 30
0.0
 10
-50.423747
 20
-46.448914
 30
0.0
  0
SPLINE
  5
2b6
100
AcDbEntity
  8
0
 62
7
100
AcDbSpline
 70
8
 71
3
 72
8
 73
4
 74
0
 40
0
 40
0
 40
0
 40
0
 40
1
 40
1
 40
1
 40
1
 10
-50.423747
 20
-46.448914
 30
0.0
 10
-50.804267
 20
-46.382475
 30
0.0
 10
-51.195989
 20
-46.382475
 30
0.0
 10
-51.576253
 20
-46.448914
 30
0.0
  0
SPLINE
  5
2b7
100
AcDbEntity
  8
0
 62
7
100
AcDbSpline
 70
8
 71
3
 72
8
 73
4
 74
0
 40
0
 40
0
 40
0
 40
0
 40
1
 40
1
 40
1
 40
1
 10
-51.576253
 20
-46.448914
 30
0.0
 10
-51.962040
 20
-46.516317
 30
0.0
 10
-52.336033
 20
-46.652103
 30
0.0
 10
-52.675281
 20
-46.848004
 30
0.0
  0
SPLINE
  5
2b8
100
AcDbEntity
  8
0
 62
7
100
AcDbSpline
 70
8
 71
3
 72
8
 73
4
 74
0
 40
0
 40
0
 40
0
 40
0
 40
1
 40
1
 40
1
 40
1
 10
-52.675281
 20
-46.848004
 30
0.0
 10
-53.014529
 20
-47.043905
 30
0.0
 10
-53.319032
 20
-47.299922
 30
0.0
 10
-53.570272
 20
-47.600418
 30
0.0
  0
SPLINE
  5
2b9
100
AcDbEntity
  8
0
 62
7
100
AcDbSpline
 70
8
 71
3
 72
8
 73
4
 74
0
 40
0
 40
0
 40
0
 40
0
 40
1
 40
1
 40
1
 40
1
 10
-53.570272
 20
-47.600418
 30
0.0
 10
-53.817915
 20
-47.896613
 30
0.0
 10
-54.013809
 20
-48.236022
 30
0.0
 10
-54.146332
 20
-48.598629
 30
0.0
  0
SPLINE
  5
2ba
100
AcDbEntity
  8
0
 62
7
100
AcDbSpline
 70
8
 71
3
 72
8
 73
4
 74
0
 40
0
 40
0
 40
0
 40
0
 40
1
 40
1
 40
1
 40
1
 10
-54.146332
 20
-48.598629
 30
0.0
 10
-54.280779
 20
-48.966502
 30
0.0
 10
-54.350000
 20
-49.358251
 30
0.0
 10
-54.350000
 20
-49.750000
 30
0.0
  0
SPLINE
  5
2bb
100
AcDbEntity
  8
0
 62
7
100
AcDbSpline
 70
8
 71
3
 72
8
 73
4
 74
0
 40
0
 40
0
 40
0
 40
0
 40
1
 40
1
 40
1
 40
1
 10
-54.350000
 20
-49.750000
 30
0.0
 10
-54.350000
 20
-50.141749
 30
0.0
 10
-54.280779
 20
-50.533497
 30
0.0
 10
-54.146332
 20
-50.901370
 30
0.0
  0
SPLINE
  5
2bc
100
AcDbEntity
  8
0
 62
7
100
AcDbSpline
 70
8
 71
3
 72
8
 73
4
 74
0
 40
0
 40
0
 40
0
 40
0
 40
1
 40
1
 40
1
 40
1
 10
-54.146332
 20
-50.901370
 30
0.0
 10
-54.013809
 20
-51.263977
 30
0.0
 10
-53.817915
 20
-51.603387
 30
0.0
 10
-53.570272
 20
-51.899581
 30
0.0
  0
SPLINE
  5
2bd
100
AcDbEntity
  8
0
 62
7
100
AcDbSpline
 70
8
 71
3
 72
8
 73
4
 74
0
 40
0
 40
0
 40
0
 40
0
 40
1
 40
1
 40
1
 40
1
 10
-53.570272
 20
-51.899581
 30
0.0
 10
-53.319032
 20
-52.200078
 30
0.0
 10
-53.014529
 20
-52.456094
 30
0.0
 10
-52.675281
 20
-52.651995
 30
0.0
  0
SPLINE
  5
2be
100
AcDbEntity
  8
0
 62
7
100
AcDbSpline
 70
8
 71
3
 72
8
 73
4
 74
0
 40
0
 40
0
 40
0
 40
0
 40
1
 40
1
 40
1
 40
1
 10
-52.675281
 20
-52.651995
 30
0.0
 10
-52.336033
 20
-52.847896
 30
0.0
 10
-51.962040
 20
-52.983683
 30
0.0
 10
-51.576253
 20
-53.051086
 30
0.0
  0
SPLINE
  5
2bf
100
AcDbEntity
  8
0
 62
7
100
AcDbSpline
 70
8
 71
3
 72
8
 73
4
 74
0
 40
0
 40
0
 40
0
 40
0
 40
1
 40
1
 40
1
 40
1
 10
-51.576253
 20
-53.051086
 30
0.0
 10
-51.195989
 20
-53.117525
 30
0.0
 10
-50.804267
 20
-53.117525
 30
0.0
 10
-50.423747
 20
-53.051086
 30
0.0
  0
SPLINE
  5
2c0
100
AcDbEntity
  8
0
 62
7
100
AcDbSpline
 70
8
 71
3
 72
8
 73
4
 74
0
 40
0
 40
0
 40
0
 40
0
 40
1
 40
1
 40
1
 40
1
 10
-50.423747
 20
-53.051086
 30
0.0
 10
-50.037700
 20
-52.983683
 30
0.0
 10
-49.663184
 20
-52.847896
 30
0.0
 10
-49.324719
 20
-52.651995
 30
0.0
  0
SPLINE
  5
2c1
100
AcDbEntity
  8
0
 62
7
100
AcDbSpline
 70
8
 71
3
 72
8
 73
4
 74
0
 40
0
 40
0
 40
0
 40
0
 40
1
 40
1
 40
1
 40
1
 10
-49.324719
 20
-52.651995
 30
0.0
 10
-48.986254
 20
-52.456094
 30
0.0
 10
-48.683839
 20
-52.200078
 30
0.0
 10
-48.429728
 20
-51.899581
 30
0.0
  0
SPLINE
  5
2c2
100
AcDbEntity
  8
0
 62
7
100
AcDbSpline
 70
8
 71
3
 72
8
 73
4
 74
0
 40
0
 40
0
 40
0
 40
0
 40
1
 40
1
 40
1
 40
1
 10
-48.429728
 20
-51.899581
 30
0.0
 10
-48.179254
 20
-51.603387
 30
0.0
 10
-47.975710
 20
-51.263977
 30
0.0
 10
-47.853669
 20
-50.901370
 30
0.0
  0
SPLINE
  5
2c3
100
AcDbEntity
  8
0
 62
7
100
AcDbSpline
 70
8
 71
3
 72
8
 73
4
 74
0
 40
0
 40
0
 40
0
 40
0
 40
1
 40
1
 40
1
 40
1
 10
-47.853669
 20
-50.901370
 30
0.0
 10
-47.729854
 20
-50.533497
 30
0.0
 10
-47.689927
 20
-50.141749
 30
0.0
 10
-47.650000
 20
-49.750000
 30
0.0
  0
LWPOLYLINE
  5
2c4
100
AcDbEntity
  8
0
 62
7
100
AcDbPolyline
 90
1
 70
1
 10
-47.650000
 20
-49.750000
 30
0.0
  0
SPLINE
  5
2c5
100
AcDbEntity
  8
0
 62
7
100
AcDbSpline
 70
8
 71
3
 72
8
 73
4
 74
0
 40
0
 40
0
 40
0
 40
0
 40
1
 40
1
 40
1
 40
1
 10
-47.650000
 20
49.750000
 30
0.0
 10
-47.689927
 20
50.141749
 30
0.0
 10
-47.729854
 20
50.533498
 30
0.0
 10
-47.853669
 20
50.901371
 30
0.0
  0
SPLINE
  5
2c6
100
AcDbEntity
  8
0
 62
7
100
AcDbSpline
 70
8
 71
3
 72
8
 73
4
 74
0
 40
0
 40
0
 40
0
 40
0
 40
1
 40
1
 40
1
 40
1
 10
-47.853669
 20
50.901371
 30
0.0
 10
-47.975711
 20
51.263978
 30
0.0
 10
-48.179255
 20
51.603387
 30
0.0
 10
-48.429728
 20
51.899582
 30
0.0
  0
SPLINE
  5
2c7
100
AcDbEntity
  8
0
 62
7
100
AcDbSpline
 70
8
 71
3
 72
8
 73
4
 74
0
 40
0
 40
0
 40
0
 40
0
 40
1
 40
1
 40
1
 40
1
 10
-48.429728
 20
51.899582
 30
0.0
 10
-48.683840
 20
52.200078
 30
0.0
 10
-48.986254
 20
52.456095
 30
0.0
 10
-49.324719
 20
52.651996
 30
0.0
  0
SPLINE
  5
2c8
100
AcDbEntity
  8
0
 62
7
100
AcDbSpline
 70
8
 71
3
 72
8
 73
4
 74
0
 40
0
 40
0
 40
0
 40
0
 40
1
 40
1
 40
1
 40
1
 10
-49.324719
 20
52.651996
 30
0.0
 10
-49.663184
 20
52.847897
 30
0.0
 10
-50.037700
 20
52.983683
 30
0.0
 10
-50.423747
 20
53.051086
 30
0.0
  0
SPLINE
  5
2c9
100
AcDbEntity
  8
0
 62
7
100
AcDbSpline
 70
8
 71
3
 72
8
 73
4
 74
0
 40
0
 40
0
 40
0
 40
0
 40
1
 40
1
 40
1
 40
1
 10
-50.423747
 20
53.051086
 30
0.0
 10
-50.804267
 20
53.117525
 30
0.0
 10
-51.195989
 20
53.117525
 30
0.0
 10
-51.576253
 20
53.051086
 30
0.0
  0
SPLINE
  5
2ca
100
AcDbEntity
  8
0
 62
7
100
AcDbSpline
 70
8
 71
3
 72
8
 73
4
 74
0
 40
0
 40
0
 40
0
 40
0
 40
1
 40
1
 40
1
 40
1
 10
-51.576253
 20
53.051086
 30
0.0
 10
-51.962040
 20
52.983683
 30
0.0
 10
-52.336033
 20
52.847897
 30
0.0
 10
-52.675281
 20
52.651996
 30
0.0
  0
SPLINE
  5
2cb
100
AcDbEntity
  8
0
 62
7
100
AcDbSpline
 70
8
 71
3
 72
8
 73
4
 74
0
 40
0
 40
0
 40
0
 40
0
 40
1
 40
1
 40
1
 40
1
 10
-52.675281
 20
52.651996
 30
0.0
 10
-53.014529
 20
52.456095
 30
0.0
 10
-53.319032
 20
52.200078
 30
0.0
 10
-53.570272
 20
51.899582
 30
0.0
  0
SPLINE
  5
2cc
100
AcDbEntity
  8
0
 62
7
100
AcDbSpline
 70
8
 71
3
 72
8
 73
4
 74
0
 40
0
 40
0
 40
0
 40
0
 40
1
 40
1
 40
1
 40
1
 10
-53.570272
 20
51.899582
 30
0.0
 10
-53.817915
 20
51.603387
 30
0.0
 10
-54.013809
 20
51.263978
 30
0.0
 10
-54.146332
 20
50.901371
 30
0.0
  0
SPLINE
  5
2cd
100
AcDbEntity
  8
0
 62
7
100
AcDbSpline
 70
8
 71
3
 72
8
 73
4
 74
0
 40
0
 40
0
 40
0
 40
0
 40
1
 40
1
 40
1
 40
1
 10
-54.146332
 20
50.901371
 30
0.0
 10
-54.280779
 20
50.533498
 30
0.0
 10
-54.350000
 20
50.141749
 30
0.0
 10
-54.350000
 20
49.750000
 30
0.0
  0
SPLINE
  5
2ce
100
AcDbEntity
  8
0
 62
7
100
AcDbSpline
 70
8
 71
3
 72
8
 73
4
 74
0
 40
0
 40
0
 40
0
 40
0
 40
1
 40
1
 40
1
 40
1
 10
-54.350000
 20
49.750000
 30
0.0
 10
-54.350000
 20
49.358251
 30
0.0
 10
-54.280779
 20
48.966503
 30
0.0
 10
-54.146332
 20
48.598630
 30
0.0
  0
SPLINE
  5
2cf
100
AcDbEntity
  8
0
 62
7
100
AcDbSpline
 70
8
 71
3
 72
8
 73
4
 74
0
 40
0
 40
0
 40
0
 40
0
 40
1
 40
1
 40
1
 40
1
 10
-54.146332
 20
48.598630
 30
0.0
 10
-54.013809
 20
48.236023
 30
0.0
 10
-53.817915
 20
47.896613
 30
0.0
 10
-53.570272
 20
47.600419
 30
0.0
  0
SPLINE
  5
2d0
100
AcDbEntity
  8
0
 62
7
100
AcDbSpline
 70
8
 71
3
 72
8
 73
4
 74
0
 40
0
 40
0
 40
0
 40
0
 40
1
 40
1
 40
1
 40
1
 10
-53.570272
 20
47.600419
 30
0.0
 10
-53.319032
 20
47.299922
 30
0.0
 10
-53.014529
 20
47.043905
 30
0.0
 10
-52.675281
 20
46.848004
 30
0.0
  0
SPLINE
  5
2d1
100
AcDbEntity
  8
0
 62
7
100
AcDbSpline
 70
8
 71
3
 72
8
 73
4
 74
0
 40
0
 40
0
 40
0
 40
0
 40
1
 40
1
 40
1
 40
1
 10
-52.675281
 20
46.848004
 30
0.0
 10
-52.336033
 20
46.652103
 30
0.0
 10
-51.962040
 20
46.516317
 30
0.0
 10
-51.576253
 20
46.448914
 30
0.0
  0
SPLINE
  5
2d2
100
AcDbEntity
  8
0
 62
7
100
AcDbSpline
 70
8
 71
3
 72
8
 73
4
 74
0
 40
0
 40
0
 40
0
 40
0
 40
1
 40
1
 40
1
 40
1
 10
-51.576253
 20
46.448914
 30
0.0
 10
-51.195989
 20
46.382475
 30
0.0
 10
-50.804267
 20
46.382475
 30
0.0
 10
-50.423747
 20
46.448914
 30
0.0
  0
SPLINE
  5
2d3
100
AcDbEntity
  8
0
 62
7
100
AcDbSpline
 70
8
 71
3
 72
8
 73
4
 74
0
 40
0
 40
0
 40
0
 40
0
 40
1
 40
1
 40
1
 40
1
 10
-50.423747
 20
46.448914
 30
0.0
 10
-50.037700
 20
46.516317
 30
0.0
 10
-49.663184
 20
46.652103
 30
0.0
 10
-49.324719
 20
46.848004
 30
0.0
  0
SPLINE
  5
2d4
100
AcDbEntity
  8
0
 62
7
100
AcDbSpline
 70
8
 71
3
 72
8
 73
4
 74
0
 40
0
 40
0
 40
0
 40
0
 40
1
 40
1
 40
1
 40
1
 10
-49.324719
 20
46.848004
 30
0.0
 10
-48.986254
 20
47.043905
 30
0.0
 10
-48.683839
 20
47.299922
 30
0.0
 10
-48.429728
 20
47.600419
 30
0.0
  0
SPLINE
  5
2d5
100
AcDbEntity
  8
0
 62
7
100
AcDbSpline
 70
8
 71
3
 72
8
 73
4
 74
0
 40
0
 40
0
 40
0
 40
0
 40
1
 40
1
 40
1
 40
1
 10
-48.429728
 20
47.600419
 30
0.0
 10
-48.179254
 20
47.896613
 30
0.0
 10
-47.975710
 20
48.236023
 30
0.0
 10
-47.853669
 20
48.598630
 30
0.0
  0
SPLINE
  5
2d6
100
AcDbEntity
  8
0
 62
7
100
AcDbSpline
 70
8
 71
3
 72
8
 73
4
 74
0
 40
0
 40
0
 40
0
 40
0
 40
1
 40
1
 40
1
 40
1
 10
-47.853669
 20
48.598630
 30
0.0
 10
-47.729854
 20
48.966503
 30
0.0
 10
-47.689927
 20
49.358251
 30
0.0
 10
-47.650000
 20
49.750000
 30
0.0
  0
LWPOLYLINE
  5
2d7
100
AcDbEntity
  8
0
 62
7
100
AcDbPolyline
 90
1
 70
1
 10
-47.650000
 20
49.750000
 30
0.0
  0
SPLINE
  5
2d8
100
AcDbEntity
  8
0
 62
7
100
AcDbSpline
 70
8
 71
3
 72
8
 73
4
 74
0
 40
0
 40
0
 40
0
 40
0
 40
1
 40
1
 40
1
 40
1
 10
-71.113912
 20
31.056556
 30
0.0
 10
-71.153839
 20
31.448305
 30
0.0
 10
-71.193766
 20
31.840053
 30
0.0
 10
-71.317580
 20
32.207927
 30
0.0
  0
SPLINE
  5
2d9
100
AcDbEntity
  8
0
 62
7
100
AcDbSpline
 70
8
 71
3
 72
8
 73
4
 74
0
 40
0
 40
0
 40
0
 40
0
 40
1
 40
1
 40
1
 40
1
 10
-71.317580
 20
32.207927
 30
0.0
 10
-71.439622
 20
32.570533
 30
0.0
 10
-71.643166
 20
32.909943
 30
0.0
 10
-71.893640
 20
33.206138
 30
0.0
  0
SPLINE
  5
2da
100
AcDbEntity
  8
0
 62
7
100
AcDbSpline
 70
8
 71
3
 72
8
 73
4
 74
0
 40
0
 40
0
 40
0
 40
0
 40
1
 40
1
 40
1
 40
1
 10
-71.893640
 20
33.206138
 30
0.0
 10
-72.147752
 20
33.506634
 30
0.0
 10
-72.450166
 20
33.762650
 30
0.0
 10
-72.788631
 20
33.958551
 30
0.0
  0
SPLINE
  5
2db
100
AcDbEntity
  8
0
 62
7
100
AcDbSpline
 70
8
 71
3
 72
8
 73
4
 74
0
 40
0
 40
0
 40
0
 40
0
 40
1
 40
1
 40
1
 40
1
 10
-72.788631
 20
33.958551
 30
0.0
 10
-73.127096
 20
34.154452
 30
0.0
 10
-73.501612
 20
34.290239
 30
0.0
 10
-73.887659
 20
34.357642
 30
0.0
  0
SPLINE
  5
2dc
100
AcDbEntity
  8
0
 62
7
100
AcDbSpline
 70
8
 71
3
 72
8
 73
4
 74
0
 40
0
 40
0
 40
0
 40
0
 40
1
 40
1
 40
1
 40
1
 10
-73.887659
 20
34.357642
 30
0.0
 10
-74.268178
 20
34.424081
 30
0.0
 10
-74.659901
 20
34.424081
 30
0.0
 10
-75.040165
 20
34.357642
 30
0.0
  0
SPLINE
  5
2dd
100
AcDbEntity
  8
0
 62
7
100
AcDbSpline
 70
8
 71
3
 72
8
 73
4
 74
0
 40
0
 40
0
 40
0
 40
0
 40
1
 40
1
 40
1
 40
1
 10
-75.040165
 20
34.357642
 30
0.0
 10
-75.425951
 20
34.290239
 30
0.0
 10
-75.799944
 20
34.154452
 30
0.0
 10
-76.139192
 20
33.958551
 30
0.0
  0
SPLINE
  5
2de
100
AcDbEntity
  8
0
 62
7
100
AcDbSpline
 70
8
 71
3
 72
8
 73
4
 74
0
 40
0
 40
0
 40
0
 40
0
 40
1
 40
1
 40
1
 40
1
 10
-76.139192
 20
33.958551
 30
0.0
 10
-76.478440
 20
33.762650
 30
0.0
 10
-76.782943
 20
33.506634
 30
0.0
 10
-77.034183
 20
33.206137
 30
0.0
  0
SPLINE
  5
2df
100
AcDbEntity
  8
0
 62
7
100
AcDbSpline
 70
8
 71
3
 72
8
 73
4
 74
0
 40
0
 40
0
 40
0
 40
0
 40
1
 40
1
 40
1
 40
1
 10
-77.034183
 20
33.206137
 30
0.0
 10
-77.281826
 20
32.909943
 30
0.0
 10
-77.477721
 20
32.570533
 30
0.0
 10
-77.610243
 20
32.207926
 30
0.0
  0
SPLINE
  5
2e0
100
AcDbEntity
  8
0
 62
7
100
AcDbSpline
 70
8
 71
3
 72
8
 73
4
 74
0
 40
0
 40
0
 40
0
 40
0
 40
1
 40
1
 40
1
 40
1
 10
-77.610243
 20
32.207926
 30
0.0
 10
-77.744690
 20
31.840053
 30
0.0
 10
-77.813912
 20
31.448304
 30
0.0
 10
-77.813912
 20
31.056555
 30
0.0
  0
SPLINE
  5
2e1
100
AcDbEntity
  8
0
 62
7
100
AcDbSpline
 70
8
 71
3
 72
8
 73
4
 74
0
 40
0
 40
0
 40
0
 40
0
 40
1
 40
1
 40
1
 40
1
 10
-77.813912
 20
31.056555
 30
0.0
 10
-77.813912
 20
30.664807
 30
0.0
 10
-77.744690
 20
30.273058
 30
0.0
 10
-77.610243
 20
29.905185
 30
0.0
  0
SPLINE
  5
2e2
100
AcDbEntity
  8
0
 62
7
100
AcDbSpline
 70
8
 71
3
 72
8
 73
4
 74
0
 40
0
 40
0
 40
0
 40
0
 40
1
 40
1
 40
1
 40
1
 10
-77.610243
 20
29.905185
 30
0.0
 10
-77.477721
 20
29.542579
 30
0.0
 10
-77.281826
 20
29.203169
 30
0.0
 10
-77.034183
 20
28.906974
 30
0.0
  0
SPLINE
  5
2e3
100
AcDbEntity
  8
0
 62
7
100
AcDbSpline
 70
8
 71
3
 72
8
 73
4
 74
0
 40
0
 40
0
 40
0
 40
0
 40
1
 40
1
 40
1
 40
1
 10
-77.034183
 20
28.906974
 30
0.0
 10
-76.782943
 20
28.606478
 30
0.0
 10
-76.478440
 20
28.350461
 30
0.0
 10
-76.139192
 20
28.154560
 30
0.0
  0
SPLINE
  5
2e4
100
AcDbEntity
  8
0
 62
7
100
AcDbSpline
 70
8
 71
3
 72
8
 73
4
 74
0
 40
0
 40
0
 40
0
 40
0
 40
1
 40
1
 40
1
 40
1
 10
-76.139192
 20
28.154560
 30
0.0
 10
-75.799944
 20
27.958659
 30
0.0
 10
-75.425951
 20
27.822873
 30
0.0
 10
-75.040165
 20
27.755470
 30
0.0
  0
SPLINE
  5
2e5
100
AcDbEntity
  8
0
 62
7
100
AcDbSpline
 70
8
 71
3
 72
8
 73
4
 74
0
 40
0
 40
0
 40
0
 40
0
 40
1
 40
1
 40
1
 40
1
 10
-75.040165
 20
27.755470
 30
0.0
 10
-74.659901
 20
27.689031
 30
0.0
 10
-74.268178
 20
27.689031
 30
0.0
 10
-73.887659
 20
27.755470
 30
0.0
  0
SPLINE
  5
2e6
100
AcDbEntity
  8
0
 62
7
100
AcDbSpline
 70
8
 71
3
 72
8
 73
4
 74
0
 40
0
 40
0
 40
0
 40
0
 40
1
 40
1
 40
1
 40
1
 10
-73.887659
 20
27.755470
 30
0.0
 10
-73.501612
 20
27.822873
 30
0.0
 10
-73.127096
 20
27.958659
 30
0.0
 10
-72.788631
 20
28.154560
 30
0.0
  0
SPLINE
  5
2e7
100
AcDbEntity
  8
0
 62
7
100
AcDbSpline
 70
8
 71
3
 72
8
 73
4
 74
0
 40
0
 40
0
 40
0
 40
0
 40
1
 40
1
 40
1
 40
1
 10
-72.788631
 20
28.154560
 30
0.0
 10
-72.450166
 20
28.350461
 30
0.0
 10
-72.147751
 20
28.606478
 30
0.0
 10
-71.893640
 20
28.906974
 30
0.0
  0
SPLINE
  5
2e8
100
AcDbEntity
  8
0
 62
7
100
AcDbSpline
 70
8
 71
3
 72
8
 73
4
 74
0
 40
0
 40
0
 40
0
 40
0
 40
1
 40
1
 40
1
 40
1
 10
-71.893640
 20
28.906974
 30
0.0
 10
-71.643166
 20
29.203169
 30
0.0
 10
-71.439622
 20
29.542579
 30
0.0
 10
-71.317580
 20
29.905185
 30
0.0
  0
SPLINE
  5
2e9
100
AcDbEntity
  8
0
 62
7
100
AcDbSpline
 70
8
 71
3
 72
8
 73
4
 74
0
 40
0
 40
0
 40
0
 40
0
 40
1
 40
1
 40
1
 40
1
 10
-71.317580
 20
29.905185
 30
0.0
 10
-71.193766
 20
30.273058
 30
0.0
 10
-71.153839
 20
30.664807
 30
0.0
 10
-71.113912
 20
31.056556
 30
0.0
  0
LWPOLYLINE
  5
2ea
100
AcDbEntity
  8
0
 62
7
100
AcDbPolyline
 90
1
 70
1
 10
-71.113912
 20
31.056556
 30
0.0
  0
ENDSEC
  0
SECTION
  2
OBJECTS
  0
DICTIONARY
  5
C
330
0
100
AcDbDictionary
  3
ACAD_GROUP
350
D
  3
ACAD_MLINESTYLE
350
17
  0
DICTIONARY
  5
D
330
C
100
AcDbDictionary
  0
DICTIONARY
  5
1A
330
C
100
AcDbDictionary
  0
DICTIONARY
  5
17
330
C
100
AcDbDictionary
  3
STANDARD
350
18
  0
DICTIONARY
  5
19
330
C
100
AcDbDictionary
  0
ENDSEC
  0
EOF
